<svg xmlns="http://www.w3.org/2000/svg" width="82" height="82" viewBox="0 0 82 82">
  <g id="Grupo_1189680" data-name="Grupo 1189680" transform="translate(-769.073 -1963)">
    <rect id="Rectángulo_402627" data-name="Rectángulo 402627" width="82" height="82" transform="translate(769.073 1963)" fill="none"/>
    <g id="Grupo_1189717" data-name="Grupo 1189717" transform="translate(776.073 1970)">
      <g id="Grupo_1189718" data-name="Grupo 1189718" transform="translate(0 0)">
        <g id="Grupo_1189717-2" data-name="Grupo 1189717">
          <path id="Trazado_877742" data-name="Trazado 877742" d="M58.252,9.994A34.123,34.123,0,0,0,9.994,58.251,34.123,34.123,0,0,0,58.252,9.994ZM34.123,65.58A31.457,31.457,0,1,1,65.58,34.123,31.493,31.493,0,0,1,34.123,65.58Z" transform="translate(0 0)"/>
        </g>
      </g>
      <g id="Grupo_1189720" data-name="Grupo 1189720" transform="translate(5.34 6.225)">
        <g id="Grupo_1189719" data-name="Grupo 1189719">
          <path id="Trazado_877743" data-name="Trazado 877743" d="M76.278,46.786a1.333,1.333,0,1,0-.686,2.576,26.117,26.117,0,1,1-13.351-.037,1.333,1.333,0,0,0-.672-2.58,28.783,28.783,0,1,0,14.709.041Z" transform="translate(-40.063 -46.702)"/>
        </g>
      </g>
      <g id="Grupo_1189722" data-name="Grupo 1189722" transform="translate(32.732 5.34)">
        <g id="Grupo_1189721" data-name="Grupo 1189721">
          <path id="Trazado_877744" data-name="Trazado 877744" d="M246.953,40.063h-.063a1.333,1.333,0,0,0,0,2.666h.058a1.333,1.333,0,0,0,0-2.666Z" transform="translate(-245.562 -40.063)"/>
        </g>
      </g>
      <g id="Grupo_1189724" data-name="Grupo 1189724" transform="translate(14.685 17.328)">
        <g id="Grupo_1189723" data-name="Grupo 1189723">
          <path id="Trazado_877745" data-name="Trazado 877745" d="M145.536,130.393a1.335,1.335,0,0,0-1.1-.383l-19.2,2.3c-.036,0-.071.01-.106.017a16.7,16.7,0,0,0-10.051,28.443c.123.123.248.243.374.362a15.2,15.2,0,0,0-.6,4.25,1.333,1.333,0,0,0,2.666,0,12.587,12.587,0,0,1,.236-2.433,16.64,16.64,0,0,0,9.155,2.734h.024a16.669,16.669,0,0,0,16.589-14.952l0-.015,2.39-19.215A1.334,1.334,0,0,0,145.536,130.393Zm-4.652,19.946c0,.025-.007.05-.01.075a14,14,0,0,1-13.941,12.6h-.02a13.988,13.988,0,0,1-8.314-2.728,12.464,12.464,0,0,1,2.571-3.723l.411-.411h10.828a1.333,1.333,0,1,0,0-2.666h-8.162l4.332-4.332h7.294a1.333,1.333,0,0,0,0-2.666h-4.628l7.63-7.63a1.333,1.333,0,1,0-1.885-1.885l-7.63,7.63v-4.628a1.333,1.333,0,1,0-2.666,0v7.294l-4.332,4.332v-4.868a1.333,1.333,0,1,0-2.666,0v7.534l-.411.411a15.173,15.173,0,0,0-2.75,3.752,14.025,14.025,0,0,1,8.992-23.467,1.313,1.313,0,0,0,.168-.027l17.364-2.077Z" transform="translate(-110.168 -130.001)"/>
        </g>
      </g>
      <g id="Grupo_1189726" data-name="Grupo 1189726" transform="translate(24.212 27.725)">
        <g id="Grupo_1189725" data-name="Grupo 1189725">
          <path id="Trazado_877746" data-name="Trazado 877746" d="M183.924,208.391a1.332,1.332,0,1,0,.391.942A1.345,1.345,0,0,0,183.924,208.391Z" transform="translate(-181.649 -208)"/>
        </g>
      </g>
    </g>
  </g>
</svg>
