<svg xmlns="http://www.w3.org/2000/svg" width="82" height="82" viewBox="0 0 82 82">
  <g id="Grupo_1189681" data-name="Grupo 1189681" transform="translate(-769.073 -1963)">
    <rect id="Rectángulo_402627" data-name="Rectángulo 402627" width="82" height="82" transform="translate(769.073 1963)" fill="none"/>
    <path id="Trazado_877747" data-name="Trazado 877747" d="M48.429,65.753V59.434a1.059,1.059,0,1,1,2.119,0v6.319a1.059,1.059,0,0,1-2.119,0ZM16.675,57.039c.556.745,2.37,3.289,2.37,4.722a3.219,3.219,0,1,1-6.439,0c0-1.433,1.814-3.977,2.37-4.722a1.059,1.059,0,0,1,1.7,0Zm.252,4.723a7.244,7.244,0,0,0-1.1-2.225,7.233,7.233,0,0,0-1.1,2.225,1.1,1.1,0,0,0,2.2,0ZM39.648,71.19a3.088,3.088,0,0,1,.03-3.139L46.8,56.062a3.123,3.123,0,0,1,5.368,0L59.3,68.05a3.122,3.122,0,0,1-2.684,4.718H42.362a3.088,3.088,0,0,1-2.714-1.578Zm1.841-1.048a.98.98,0,0,0,.872.507H56.615a1,1,0,0,0,.863-1.517L50.351,57.144a1,1,0,0,0-1.726,0L41.5,69.133a.98.98,0,0,0-.01,1.009Zm29.25-19.49v6.957a1.059,1.059,0,0,1-1.059,1.059h-5.5V80.9a4.265,4.265,0,0,1-4.26,4.26h-24.4a4.265,4.265,0,0,1-4.26-4.26V78.773a1.059,1.059,0,0,1,1.059-1.059h2.221v-1.1a26.859,26.859,0,0,1-5.863.209v1.889a3.118,3.118,0,0,1-.962,2.246,3.075,3.075,0,0,1-2.14.858q-.075,0-.151,0a3.129,3.129,0,0,1-2.955-3.158V75.709a.133.133,0,0,0-.1-.123c-.613-.2-1.222-.424-1.821-.669a3.121,3.121,0,0,1-.938,1.87,3.083,3.083,0,0,1-2.291.854,3.129,3.129,0,0,1-2.955-3.158v-2.9a.5.5,0,0,0-.193-.391c-.556-.438-1.1-.9-1.623-1.387v7.4a3.118,3.118,0,0,1-.962,2.246,3.074,3.074,0,0,1-2.291.854,3.129,3.129,0,0,1-2.955-3.158V61.182a26.647,26.647,0,1,1,50.669-14.79H66.4a4.306,4.306,0,0,1,4.341,4.26Zm-44.2-24.577.017.07c.246,1.019.593,2.461,0,3.538a6.016,6.016,0,0,0,1.752,1.733c.266.2.546.415.837.655a4.573,4.573,0,0,1,2.787-2.561,5.587,5.587,0,0,1,4.987,1.369c.2.171.411.342.619.508.93.74,2.087,1.66,1.793,3.106-.2.965-1.2,1.333-2.009,1.629-.088.032-.2.072-.3.111.09,2.067-.228,3.307-1.011,3.985a3.089,3.089,0,0,1-2.846.351c-.794-.173-1.037-.183-1.132-.048a36.625,36.625,0,0,0-2,3.339c-.512.923-1.041,1.879-1.618,2.79a1.059,1.059,0,0,1-1.855-.118,5.845,5.845,0,0,1-.423-1.247c-.389-.019-1.085,0-1.763.011a2.759,2.759,0,0,0-2.37,1.534,1.123,1.123,0,0,0-.133.956c.07.1.374.23,1.071.124l.3-.046c2.636-.407,4.418-.682,7.128,2.251a23.73,23.73,0,0,1,4.22-.2,4.266,4.266,0,0,1,4.194-3.52H54.867A24.518,24.518,0,0,0,26.544,26.075Zm4.347,38.792a16.031,16.031,0,0,0-3.224-3.606,2.2,2.2,0,0,1-1.013-1.481,5.52,5.52,0,0,1,.367-2.05c.149-.531.342-1.222.572-2.138L24.35,52.87c-.251.021-.647.073-.934.111a6.431,6.431,0,0,1-2.654.058c-.534-.189-1.01-.34-1.43-.473-1.354-.429-2.332-.739-2.972-1.676a7.546,7.546,0,0,1-.933-3.176c-.286-1.971-.55-3.208-1.816-3.761a1.059,1.059,0,0,1-.591-.669,21.528,21.528,0,0,1-.822-9.1A24.388,24.388,0,0,0,8.377,60.544a1.06,1.06,0,0,1,.081.635V77.147a1.027,1.027,0,0,0,.936,1.042.985.985,0,0,0,1.034-.984V69.519a1.993,1.993,0,0,1,3.36-1.452c.54.511,1.11,1,1.693,1.463a2.6,2.6,0,0,1,1,2.055v2.9a1.027,1.027,0,0,0,.936,1.042.985.985,0,0,0,1.034-.984V73.3a1.059,1.059,0,0,1,1.521-.954,24.4,24.4,0,0,0,3.053,1.23,2.246,2.246,0,0,1,1.557,2.138v2.947a1.027,1.027,0,0,0,.936,1.042.985.985,0,0,0,1.034-.984V76.74a2.038,2.038,0,0,1,2.191-2.035c.348.027.7.044,1.045.056V74.6a1.059,1.059,0,0,1,.067-.371c1.222-3.266,2.227-7.677,1.035-9.363Zm3.642,9.6V52.031a22.134,22.134,0,0,0-4.407.259,1.06,1.06,0,0,1-.961-.355c-2.167-2.507-3.029-2.374-5.591-1.978l-.3.046a2.984,2.984,0,0,1-3.1-.967,3.017,3.017,0,0,1-.057-3.146,4.889,4.889,0,0,1,4.224-2.714c1.853-.04,2.835-.062,3.378.506.16-.284.317-.569.473-.851A38.742,38.742,0,0,1,30.313,39.3c.931-1.32,2.423-.995,3.314-.8a2.9,2.9,0,0,0,1.007.119s.426-.374.254-2.778c-.075-1.052.958-1.431,1.713-1.707.166-.061.4-.148.584-.229a7.331,7.331,0,0,0-.959-.859c-.227-.181-.462-.367-.7-.572a3.6,3.6,0,0,0-2.99-.932c-.856.254-1.509,1.153-1.939,2.674a1.059,1.059,0,0,1-1.8.427,12.519,12.519,0,0,0-1.768-1.54,7.125,7.125,0,0,1-2.7-3.167,1.059,1.059,0,0,1,.325-1.224c.283-.224-.052-1.614-.162-2.07l-.029-.12a24.389,24.389,0,0,0-9.4,4.861,17.511,17.511,0,0,0-.151,10.862c2.017,1.153,2.338,3.364,2.6,5.165a6.216,6.216,0,0,0,.585,2.284c.219.32.759.5,1.863.852.427.135.911.289,1.464.484a11.038,11.038,0,0,0,1.7-.149c1.155-.154,1.641-.208,2.07-.01a1.06,1.06,0,0,1,.236.15l4.018,3.37a1.059,1.059,0,0,1,.349,1.06c-.308,1.278-.562,2.186-.748,2.849-.129.459-.251.9-.29,1.123.067.058.158.132.236.2a18.158,18.158,0,0,1,3.614,4.024c1.981,2.8.244,8.529-.7,11.1a24.665,24.665,0,0,0,2.609-.272Zm21.7,8.565a4.235,4.235,0,0,1-.578-2.141V79.832H33.372V80.9a2.143,2.143,0,0,0,2.141,2.141Zm6.412-34.526H38.793a2.143,2.143,0,0,0-2.141,2.141V77.713H56.716a1.059,1.059,0,0,1,1.059,1.059V80.9a2.141,2.141,0,0,0,4.282,0V50.652A4.174,4.174,0,0,1,62.646,48.511Zm5.975,2.141a2.224,2.224,0,0,0-4.445,0v5.9h4.445Zm-19.3,19.369h.344a1.059,1.059,0,1,0,0-2.119h-.344a1.059,1.059,0,1,0,0,2.119Zm-24.394-6.4c.556.746,2.37,3.289,2.37,4.722a3.219,3.219,0,1,1-6.439,0c0-1.433,1.814-3.977,2.37-4.722a1.059,1.059,0,0,1,1.7,0Zm.252,4.723a7.245,7.245,0,0,0-1.1-2.225,7.235,7.235,0,0,0-1.1,2.225,1.1,1.1,0,0,0,2.2,0Z" transform="translate(772.073 1949.391)"/>
  </g>
</svg>
