<svg xmlns="http://www.w3.org/2000/svg" width="82" height="82" viewBox="0 0 82 82">
  <g id="Grupo_1189636" data-name="Grupo 1189636" transform="translate(-769.369 -1963)">
    <rect id="Rectángulo_402627" data-name="Rectángulo 402627" width="82" height="82" transform="translate(769.369 1963)" fill="none"/>
    <g id="Grupo_1189711" data-name="Grupo 1189711" transform="translate(775.812 1969.444)">
      <path id="Trazado_877710" data-name="Trazado 877710" d="M94.429,104.986a.886.886,0,0,0,0,1.772,2.1,2.1,0,0,1,2.1,2.1.886.886,0,1,0,1.772,0A3.875,3.875,0,0,0,94.429,104.986Z" transform="translate(-43.934 -49.584)"/>
      <path id="Trazado_877711" data-name="Trazado 877711" d="M81.295,96.755a3.915,3.915,0,0,0-3.909,3.91.886.886,0,0,0,1.772,0,2.14,2.14,0,0,1,2.138-2.138.886.886,0,0,0,0-1.772Z" transform="translate(-35.957 -45.52)"/>
      <path id="Trazado_877712" data-name="Trazado 877712" d="M42.626,61.331v2.03a.886.886,0,0,0,1.772,0v-2.03a7.01,7.01,0,0,0,6.119-6.942.886.886,0,0,0-.886-.886A6.987,6.987,0,0,0,44.4,55.866v-1.6a6.99,6.99,0,0,0-.259-9.619.887.887,0,0,0-1.253,0,7.007,7.007,0,0,0-.26,9.619v1.6A6.981,6.981,0,0,0,37.393,53.5a.886.886,0,0,0-.886.886,7.01,7.01,0,0,0,6.119,6.942Zm6.028-5.965a5.247,5.247,0,0,1-4.165,4.166A5.247,5.247,0,0,1,48.654,55.366Zm-5.141-8.708a5.241,5.241,0,0,1,0,5.89,5.247,5.247,0,0,1,0-5.893Zm-.978,12.874a5.247,5.247,0,0,1-4.164-4.164A5.247,5.247,0,0,1,42.535,59.532Z" transform="translate(-15.774 -19.665)"/>
      <path id="Trazado_877713" data-name="Trazado 877713" d="M23.423,50.709A13.63,13.63,0,1,0,37.052,37.08,13.63,13.63,0,0,0,23.423,50.709ZM37.052,38.852A11.857,11.857,0,1,1,25.195,50.709,11.857,11.857,0,0,1,37.052,38.852Z" transform="translate(-9.315 -16.057)"/>
      <path id="Trazado_877714" data-name="Trazado 877714" d="M61.313,58.9a5.716,5.716,0,0,0-4.3-5.088c0-.045,0-.089,0-.133a5.684,5.684,0,0,0-5.239-5.659,5.6,5.6,0,0,0-.167-.582,102.308,102.308,0,0,0,.884-12.581v-.416a132.313,132.313,0,0,0-2.745-23.836V5.443a.886.886,0,0,0-.886-.886H8.188a.885.885,0,0,0-.886.886v5.164A132.322,132.322,0,0,0,4.557,34.444v.416A132.291,132.291,0,0,0,7.3,58.7V63.86a.885.885,0,0,0,.886.886H63.861a.885.885,0,0,0,.886-.886A5.26,5.26,0,0,0,61.313,58.9ZM9.074,6.329h38.9V9.816H9.074ZM6.329,34.444A128.57,128.57,0,0,1,8.911,11.588H48.135a128.816,128.816,0,0,1,2.582,22.856v.416A95,95,0,0,1,50.1,45.036a6.14,6.14,0,0,0-10.277,2.987,5.685,5.685,0,0,0-5.233,5.66c0,.044,0,.089,0,.133a5.727,5.727,0,0,0-4.08,3.9H8.909A128.767,128.767,0,0,1,6.327,34.859ZM9.074,59.488H29.158a5.248,5.248,0,0,0-2.231,3.487H9.074Zm29.382,3.487a2.392,2.392,0,0,1,2.218-1.507.886.886,0,1,0,0-1.772,4.17,4.17,0,0,0-4.067,3.279H28.734a3.5,3.5,0,0,1,2.63-2.546.887.887,0,0,0,.689-.908l-.006-.1c0-.032-.005-.065-.005-.1a3.921,3.921,0,0,1,3.586-3.888.886.886,0,0,0,.8-1.043,3.865,3.865,0,0,1-.068-.709,3.909,3.909,0,0,1,3.905-3.905c.06,0,.118,0,.177.009l.076.005a.886.886,0,0,0,.937-.8,4.36,4.36,0,0,1,8.679,0,.884.884,0,0,0,.94.8l.066,0c.064,0,.128-.01.192-.01a3.889,3.889,0,0,1,3.837,4.615.885.885,0,0,0,.8,1.043,3.922,3.922,0,0,1,3.586,3.888.669.669,0,0,1,0,.1l-.007.1a.886.886,0,0,0,.689.908,3.5,3.5,0,0,1,2.63,2.546Z"/>
      <path id="Trazado_877715" data-name="Trazado 877715" d="M19.583,25.172h7.368a.886.886,0,1,0,0-1.772H19.583a.886.886,0,0,0,0,1.772Z" transform="translate(-6.981 -9.303)"/>
      <path id="Trazado_877716" data-name="Trazado 877716" d="M41.157,25.172h2.014a.886.886,0,1,0,0-1.772H41.157a.886.886,0,0,0,0,1.772Z" transform="translate(-17.633 -9.303)"/>
    </g>
  </g>
</svg>
