<svg xmlns="http://www.w3.org/2000/svg" width="82" height="82" viewBox="0 0 82 82">
  <g id="Grupo_1189675" data-name="Grupo 1189675" transform="translate(-769.077 -1963)">
    <rect id="Rectángulo_402627" data-name="Rectángulo 402627" width="82" height="82" transform="translate(769.077 1963)" fill="none"/>
    <g id="Grupo_1189712" data-name="Grupo 1189712" transform="translate(693.573 1969.001)">
      <path id="Trazado_877718" data-name="Trazado 877718" d="M188.1,10.8h.052a3.431,3.431,0,0,0,2.438-1.069,5.88,5.88,0,0,0,1.5-4.312c-.084-3-1.932-5.387-4.207-5.424a3.411,3.411,0,0,0-2.49,1.069,5.881,5.881,0,0,0-1.5,4.312c.084,3,1.932,5.387,4.207,5.424Zm-1.246-8.3a1.371,1.371,0,0,1,.981-.461h.019c1.237.02,2.149,1.826,2.194,3.435a3.9,3.9,0,0,1-.914,2.815,1.374,1.374,0,0,1-1,.461c-1.237-.02-2.149-1.826-2.194-3.435a3.9,3.9,0,0,1,.914-2.815Z" transform="translate(-77.187)"/>
      <path id="Trazado_877719" data-name="Trazado 877719" d="M320.5,62.5a3.26,3.26,0,0,0,2.152.79,3.61,3.61,0,0,0,.382-.02,4.442,4.442,0,0,0,3.017-1.809,4.31,4.31,0,0,0-.208-5.832,3.294,3.294,0,0,0-2.533-.77,4.443,4.443,0,0,0-3.017,1.809A4.31,4.31,0,0,0,320.5,62.5Zm1.428-4.6a2.4,2.4,0,0,1,1.6-1,1.549,1.549,0,0,1,.163-.009,1.22,1.22,0,0,1,.814.292,2.351,2.351,0,0,1-.09,3.052,2.4,2.4,0,0,1-1.6,1,1.261,1.261,0,0,1-.977-.283A2.351,2.351,0,0,1,321.927,57.9Z" transform="translate(-194.085 -47.358)"/>
      <path id="Trazado_877720" data-name="Trazado 877720" d="M260.672,17.635a3.254,3.254,0,0,0,.809.1,3.46,3.46,0,0,0,1.9-.585,5.319,5.319,0,0,0,2.177-3.659c.451-2.8-.895-5.431-3.064-5.987a3.372,3.372,0,0,0-2.708.482,5.319,5.319,0,0,0-2.177,3.659C257.157,14.449,258.5,17.079,260.672,17.635Zm-1.043-5.662A3.338,3.338,0,0,1,260.907,9.7a1.4,1.4,0,0,1,.772-.251,1.225,1.225,0,0,1,.305.039c1.116.286,1.827,1.971,1.552,3.679a3.337,3.337,0,0,1-1.278,2.272,1.316,1.316,0,0,1-1.078.212C260.065,15.366,259.354,13.681,259.629,11.974Z" transform="translate(-140.769 -6.394)"/>
      <path id="Trazado_877721" data-name="Trazado 877721" d="M371.116,110.494a2.908,2.908,0,0,0-2-1.3,3.908,3.908,0,0,0-3.03.872,3.979,3.979,0,0,0-1.216,5.124,2.908,2.908,0,0,0,2,1.3,3.325,3.325,0,0,0,.541.044,4.048,4.048,0,0,0,2.489-.916A3.979,3.979,0,0,0,371.116,110.494Zm-2.488,3.52a1.9,1.9,0,0,1-1.424.456.862.862,0,0,1-.613-.387,2.248,2.248,0,0,1,1.985-2.884,1.264,1.264,0,0,1,.206.017.863.863,0,0,1,.613.387A2.031,2.031,0,0,1,368.628,114.014Z" transform="translate(-233.035 -94.256)"/>
      <path id="Trazado_877722" data-name="Trazado 877722" d="M101.583,28.178c2.608-.929,3.851-4.153,2.771-7.187s-4.081-4.747-6.689-3.818-3.851,4.152-2.771,7.187a5.813,5.813,0,0,0,5.222,4.071A4.36,4.36,0,0,0,101.583,28.178Zm-4.761-4.505c-.7-1.971-.016-4.021,1.529-4.571a2.374,2.374,0,0,1,.8-.137,3.775,3.775,0,0,1,3.275,2.714c.7,1.971.016,4.021-1.529,4.571S97.524,25.644,96.822,23.673Z" transform="translate(0 -14.612)"/>
      <path id="Trazado_877723" data-name="Trazado 877723" d="M159.761,100.526a15.925,15.925,0,0,0-8.138-3.489,28.894,28.894,0,0,0-11.487,1.03l-.348.094-.212.292c-3.679,5.066-5.126,9.536-4.425,13.667,1.108,6.525,7.387,10.881,13.459,15.092,4.93,3.42,9.587,6.65,11.365,10.78l.887,2.059.975-2.019a47.114,47.114,0,0,0,3.5-10.094l-2-.452a46.353,46.353,0,0,1-2.507,7.8c-2.423-3.762-6.8-6.8-11.059-9.752-5.725-3.971-11.644-8.076-12.608-13.753-.568-3.344.572-7.046,3.48-11.294a42.568,42.568,0,0,1,5.045,4.452l-2.052,7.022,1.965.574,1.711-5.856a52.9,52.9,0,0,1,7.653,11.161l-1.807,3.894,1.857.862,1.091-2.351a45.909,45.909,0,0,1,2.418,6.9l1.98-.518a49.874,49.874,0,0,0-6.036-13.8l3.644.2.112-2.044-5.157-.282a53.144,53.144,0,0,0-10.3-11.163c6.67-1.418,11.937-.561,15.674,2.561a16.051,16.051,0,0,1,4.969,8.2,32.034,32.034,0,0,1,.857,11.253l2.04.177a34.088,34.088,0,0,0-.925-11.984A18.048,18.048,0,0,0,159.761,100.526Z" transform="translate(-34.952 -83.617)"/>
      <path id="Trazado_877724" data-name="Trazado 877724" d="M177.721,306.642,176.39,308.2c3.172,2.714,5.294,5.408,6.306,8a9.124,9.124,0,0,1-.658,8.312,28.515,28.515,0,0,1-4.937-7.58l2.067-1.67-1.287-1.592-1.6,1.291a23.15,23.15,0,0,1-.941-3.121l-2,.436a29.842,29.842,0,0,0,2.613,6.963l-2.146.166.158,2.041,3.082-.238A28.669,28.669,0,0,0,180,325.315c-2.921.144-5.09-.39-6.59-1.622-2.889-2.373-3.176-7.261-3.479-12.435a53.979,53.979,0,0,0-.916-8.316,65.465,65.465,0,0,1,5.824,3.992l1.258-1.615a74.078,74.078,0,0,0-7.185-4.84c-.417-.254-.778-.474-1.059-.651l-2.547-1.613,1.039,2.83c1.115,3.036,1.332,6.746,1.543,10.334.331,5.634.643,10.955,4.223,13.9a10.639,10.639,0,0,0,6.994,2.112,23.929,23.929,0,0,0,3.249-.24l.441-.061.256-.364a11.4,11.4,0,0,0,1.551-11.264C183.468,312.545,181.152,309.578,177.721,306.642Z" transform="translate(-61.14 -257.515)"/>
      <path id="Trazado_877725" data-name="Trazado 877725" d="M282.344,147.312h2.047v2.047h-2.047Z" transform="translate(-162.204 -127.207)"/>
      <path id="Trazado_877726" data-name="Trazado 877726" d="M252.344,132.312h2.047v2.047h-2.047Z" transform="translate(-136.298 -114.254)"/>
      <path id="Trazado_877727" data-name="Trazado 877727" d="M0,0H2.047V2.047H0Z" transform="matrix(0.167, -0.986, 0.986, 0.167, 128.798, 41.927)"/>
    </g>
  </g>
</svg>
