<svg xmlns="http://www.w3.org/2000/svg" width="82" height="82" viewBox="0 0 82 82">
  <g id="Grupo_1189676" data-name="Grupo 1189676" transform="translate(-769.077 -1963)">
    <rect id="Rectángulo_402627" data-name="Rectángulo 402627" width="82" height="82" transform="translate(769.077 1963)" fill="none"/>
    <g id="Grupo_1189713" data-name="Grupo 1189713" transform="translate(714.112 1973.999)">
      <g id="Grupo_1189713-2" data-name="Grupo 1189713" transform="translate(75.965 0.001)">
        <path id="Trazado_877728" data-name="Trazado 877728" d="M111.465,7.031a20.15,20.15,0,0,0-1.861-1.9h0A20.176,20.176,0,1,0,82.882,35.369a15.343,15.343,0,0,1,4.227,6.006h-.034a1.009,1.009,0,0,0,0,2.018h.668a13.8,13.8,0,0,1,.341,3.027v6.055A3.027,3.027,0,0,0,91.111,55.5H92.12a4.036,4.036,0,1,0,8.073,0H101.2a3.027,3.027,0,0,0,3.027-3.027V46.421a14.14,14.14,0,0,1,.331-3.027h.678a1.009,1.009,0,1,0,0-2.018h-.061a14.673,14.673,0,0,1,4.143-5.91A20.163,20.163,0,0,0,111.465,7.031ZM96.157,57.521A2.018,2.018,0,0,1,94.139,55.5h4.036A2.018,2.018,0,0,1,96.157,57.521Zm6.055-5.046a1.009,1.009,0,0,1-1.009,1.009H91.111A1.009,1.009,0,0,1,90.1,52.476V51.467h12.109Zm0-3.027H90.1V47.43h12.109Zm.031-4.036H90.07a15.811,15.811,0,0,0-.279-2.018h12.723A16.063,16.063,0,0,0,102.243,45.412Zm7.593-13.3A18.157,18.157,0,0,1,108,33.935h0a16.657,16.657,0,0,0-4.965,7.44H97.166V34.312h1.009a13.134,13.134,0,0,0,13.118-13.118,1.009,1.009,0,0,0-1.009-1.009h-2.018a13.111,13.111,0,0,0-11.1,6.156V21.134a9.092,9.092,0,0,0,8.073-9.023A1.009,1.009,0,0,0,104.23,11.1a9.082,9.082,0,0,0-8.073,4.945A9.082,9.082,0,0,0,88.084,11.1a1.009,1.009,0,0,0-1.009,1.009,9.092,9.092,0,0,0,8.073,9.023V26.34a13.111,13.111,0,0,0-11.1-6.156H82.029a1.009,1.009,0,0,0-1.009,1.009A13.134,13.134,0,0,0,94.139,34.312h1.009v7.064h-5.9a17.28,17.28,0,0,0-5.046-7.526,18.164,18.164,0,1,1,25.629-1.733Zm-12.625.177A11.115,11.115,0,0,1,108.266,22.2h.964A11.115,11.115,0,0,1,98.175,32.293Zm.039-13.2a7.079,7.079,0,0,1,5.885-5.885A7.079,7.079,0,0,1,97.251,19.09Zm-2.188,0a7.079,7.079,0,0,1-5.885-5.885A7.079,7.079,0,0,1,95.063,19.09Zm.039,13.2h-.964A11.115,11.115,0,0,1,83.084,22.2h.964A11.116,11.116,0,0,1,95.1,32.293Z" transform="translate(-75.965 -0.001)"/>
      </g>
    </g>
  </g>
</svg>
