<svg xmlns="http://www.w3.org/2000/svg" width="83.701" height="84.387" viewBox="0 0 83.701 84.387">
  <g id="Grupo_1188605" data-name="Grupo 1188605" transform="translate(-600 -418)">
    <g id="Grupo_1188604" data-name="Grupo 1188604" transform="translate(600 418)">
      <path id="Rectángulo_402596" data-name="Rectángulo 402596" d="M83.7,0h0a0,0,0,0,1,0,0V73.785a10.6,10.6,0,0,1-10.6,10.6H0a0,0,0,0,1,0,0V83.7A83.7,83.7,0,0,1,83.7,0Z" transform="translate(0)" fill="#26c790"/>
      <path id="Trazado_874772" data-name="Trazado 874772" d="M10.583,4.6a.878.878,0,0,1,.8.386,1.546,1.546,0,0,1,.248.854,1.416,1.416,0,0,1-.248.826.9.9,0,0,1-.8.358H7.058q0,1.267,0,2.258A9.958,9.958,0,0,1,7,10.6a.949.949,0,0,1-.386.826,1.377,1.377,0,0,1-1.652,0A.949.949,0,0,1,4.58,10.6V7.025h-3.3A1.27,1.27,0,0,1,.256,6.667a1.04,1.04,0,0,1-.248-.826,1.574,1.574,0,0,1,.386-.854A1.1,1.1,0,0,1,1.275,4.6h3.3V1.242A1.139,1.139,0,0,1,4.965.25,1.254,1.254,0,0,1,5.792,0a1.387,1.387,0,0,1,.826.358A1.1,1.1,0,0,1,7,1.242a8.027,8.027,0,0,1,.055,1.212q0,.936,0,2.148Z" transform="translate(62.323 70.818) rotate(-43)" fill="#fff"/>
    </g>
    <g id="goat" transform="translate(609.854 429.911)">
      <path id="Trazado_875125" data-name="Trazado 875125" d="M25.5,34A1.5,1.5,0,1,0,27,35.5,1.5,1.5,0,0,0,25.5,34Z"/>
      <path id="Trazado_875126" data-name="Trazado 875126" d="M38.5,34A1.5,1.5,0,1,0,40,35.5,1.5,1.5,0,0,0,38.5,34Z"/>
      <path id="Trazado_875127" data-name="Trazado 875127" d="M57.57,35.21,44,21.67a15.93,15.93,0,0,1,8.91-14A1.93,1.93,0,0,0,52,4,18,18,0,0,0,34.27,19H29.73A18,18,0,0,0,11.93,4a1.93,1.93,0,0,0-.84,3.66,15.91,15.91,0,0,1,8.9,14C5.2,36.45,6.14,35.33,6.14,35.92c0,1.47,5.65,5.16,11,2.21.19,1.18.18,1,3.09,9.72a9,9,0,0,0,5.54,5.62c1.64,3.24,3.47,4.52,5.59,6.3a1,1,0,0,0,1.28,0c2.32-1.94,4-3.12,5.58-6.3a9,9,0,0,0,5.57-5.68c2.88-8.63,2.88-8.47,3.07-9.66a9,9,0,0,0,10.71-1.5,1,1,0,0,0,0-1.42ZM51.75,6A17.9,17.9,0,0,0,42,20.81,10.92,10.92,0,0,0,36.28,19,16,16,0,0,1,51.75,6ZM12.25,6A16,16,0,0,1,27.72,19,11.06,11.06,0,0,0,22,20.81,17.92,17.92,0,0,0,12.25,6ZM8.61,35.87c9.75-9.75,8.82-8.9,8.73-8.54C16.89,29.14,17,30,17,35.85a7,7,0,0,1-8.39.02ZM32,57.7A15.64,15.64,0,0,1,28.37,54h7.25A15.8,15.8,0,0,1,32,57.7Zm0-10.83c-1.85-1-1.88-1-2-1.18a.48.48,0,0,1,.35-.69h3.22a.45.45,0,0,1,.39.49c.04.41-.15.41-1.96,1.38ZM45,36.38c0,1.94-.28,2.3-3.13,10.83A7,7,0,0,1,35.23,52H33V48.6c1.38-.74,2.4-1.06,2.82-2.19A2.47,2.47,0,0,0,33.61,43H30.39A2.44,2.44,0,0,0,28,45.49c0,1.81,1.46,2.29,3,3.11V52a13.71,13.71,0,0,1-4.24-.3,7,7,0,0,1-4.65-4.55C19.29,38.72,19,38.33,19,36.38c0-5.92-.66-9.49,2.7-12.8A8.93,8.93,0,0,1,28,21c7.42,0,10.81-.76,14.3,2.58S45,30.44,45,36.38Zm2-.53c0-5.93.1-6.76-.34-8.52-.09-.36-1.31-1.5,8.73,8.54A7,7,0,0,1,47,35.85Z"/>
    </g>
  </g>
</svg>
