<svg xmlns="http://www.w3.org/2000/svg" width="178" height="110.742" viewBox="0 0 178 110.742">
  <g id="Grupo_1188607" data-name="Grupo 1188607" transform="translate(-1230 -703)">
    <rect id="Rectángulo_402637" data-name="Rectángulo 402637" width="178" height="84.51" rx="8" transform="translate(1230 729.232)" fill="#fdbab3"/>
    <g id="Grupo_1188606" data-name="Grupo 1188606" transform="translate(1268.41 703)">
      <path id="Trazado_875128" data-name="Trazado 875128" d="M17.247,190.984a72.882,72.882,0,0,1-.363-15.5S6.25,182.917,9.745,188.415c1.787,2.812,4.9,3.082,7.515,2.676C17.257,191.055,17.251,191.021,17.247,190.984Zm0,0" transform="translate(-7.193 -137.531)" fill="#ff4755"/>
      <path id="Trazado_875129" data-name="Trazado 875129" d="M16.752,211.966c-2.413.281-5.134-.088-6.824-2.478-.967,1.851-1.3,3.811-.179,5.574,1.787,2.811,4.9,3.081,7.516,2.675-.005-.035-.009-.07-.014-.106Q16.9,214.637,16.752,211.966Zm0,0" transform="translate(-7.196 -164.177)" fill="#fc2b3a"/>
      <path id="Trazado_875130" data-name="Trazado 875130" d="M21.8,128.754c-5.777,1.6-9.84,3.074-9.476,5.763.335,2.475,5.028,3.852,7.116,4.345A35,35,0,0,1,21.8,128.754Zm0,0" transform="translate(-9.749 -100.905)" fill="#ffa812"/>
      <path id="Trazado_875131" data-name="Trazado 875131" d="M14.11,141.938c-1.274.816-1.943,1.751-1.786,2.912.335,2.475,5.028,3.852,7.116,4.345q.194-1.981.518-3.717C17.847,144.88,14.823,143.733,14.11,141.938Zm0,0" transform="translate(-9.749 -111.237)" fill="#ff9a00"/>
      <path id="Trazado_875132" data-name="Trazado 875132" d="M66.787,26.159a14.791,14.791,0,0,1,7.574-2.394c6.463-.155,9.965,2.214,12.27,5.654,1.982-1.044,6.044-3.656,4.809-7.016-1.756-4.776-6.562-1.98-6.562-1.98a4.787,4.787,0,0,0-1.618-5.584c-3.009-2.2-6.692-.139-6.692-.139C75.649,7.691,65.8,6.16,62,13.465,58.986,19.272,64.73,24.528,66.787,26.159Zm0,0" transform="translate(-48.027 -6.791)" fill="#ff4755"/>
      <path id="Trazado_875133" data-name="Trazado 875133" d="M93.823,68.1a12.733,12.733,0,0,0,4.059-3.174c-3.217-3.342-7.7-6.487-13.361-6.844a25.725,25.725,0,0,0-14.2,2.961,19.336,19.336,0,0,0,3.658,3.8,14.789,14.789,0,0,1,7.574-2.394C88.017,62.289,91.518,64.659,93.823,68.1Zm0,0" transform="translate(-55.218 -45.47)" fill="#fc2b3a"/>
      <path id="Trazado_875134" data-name="Trazado 875134" d="M61,78.454c-2.971.072-20.391,1.577-16.28,36.478,3.606,30.621,25.255,40.3,42.207,40.247,24.639-.076,55.358-20.778,46.36-53.352,0,0-2.721-12.106-12.1-11.584s-9.075,18.968-29.318,16.939C71.333,105.125,82.415,77.938,61,78.454Zm0,0" transform="translate(-34.668 -61.479)" fill="#ffe9c8"/>
      <path id="Trazado_875135" data-name="Trazado 875135" d="M86.931,235.274c-16.952.052-38.6-9.627-42.207-40.247-.291-2.476-.471-4.778-.559-6.929a78.777,78.777,0,0,0,.559,12.769c3.606,30.621,25.255,40.3,42.207,40.247,22.441-.069,49.925-17.249,47.85-44.925C132.907,220.421,107.749,235.21,86.931,235.274Zm0,0" transform="translate(-34.67 -147.414)" fill="#ffdca7"/>
      <path id="Trazado_875136" data-name="Trazado 875136" d="M133.761,335.63a52.721,52.721,0,0,1-31.778,11.419h-.133a42.116,42.116,0,0,1-19.374-4.64,37.129,37.129,0,0,1-16.09-16.391,1.629,1.629,0,0,0-2.9,1.484,40.33,40.33,0,0,0,17.483,17.8,44.015,44.015,0,0,0,13.095,4.358v9l-7.869-2.737A1.63,1.63,0,1,0,85.122,359l5.253,1.827-5.181,1.535a1.629,1.629,0,1,0,.926,3.124l10.034-2.974a1.63,1.63,0,0,0,1.167-1.563V350.087c1.656.16,3.182.221,4.53.221h.142a50.877,50.877,0,0,0,10.313-1.125v9.472l-7.869-2.737a1.63,1.63,0,0,0-1.07,3.079l5.253,1.826-5.181,1.536a1.629,1.629,0,1,0,.927,3.124l10.034-2.975a1.629,1.629,0,0,0,1.166-1.562V348.392A56.5,56.5,0,0,0,135.8,338.169a1.629,1.629,0,1,0-2.041-2.54Zm0,0" transform="translate(-49.721 -254.806)"/>
      <path id="Trazado_875137" data-name="Trazado 875137" d="M14.647,65.26a57.993,57.993,0,0,1-2.66-12.006c-1.647-13.987.081-24.375,5-30.041a13.461,13.461,0,0,1,9.776-4.781c4.482-.108,7.633,1.04,9.9,3.613,2.1,2.377,3.271,5.7,4.513,9.214,2.387,6.761,5.092,14.422,15.393,15.9a1.629,1.629,0,0,0,.464-3.226c-8.348-1.2-10.5-7.3-12.784-13.761a46.812,46.812,0,0,0-2.963-7.115c3.683-2.373,5.179-5.3,4.118-8.187a5.556,5.556,0,0,0-3.3-3.563,5.833,5.833,0,0,0-2.892-.229,6.121,6.121,0,0,0-2.593-4.559,7.5,7.5,0,0,0-6.555-1,8.5,8.5,0,0,0-6.6-5.375A9.964,9.964,0,0,0,12.862,5.7c-2.955,5.685.952,10.782,3.665,13.4a17.94,17.94,0,0,0-2,1.975,21.743,21.743,0,0,0-3.338,5.287C6.3,27.724.67,29.5,1.242,33.732c.313,2.312,2.678,3.832,5.319,4.818l-.3.266A21.819,21.819,0,0,0,1.693,44.28c-1.906,3.469-1.179,5.971-.234,7.458a7.846,7.846,0,0,0,7.046,3.6c.154,0,.309,0,.466-.009a60,60,0,0,0,2.594,10.995,1.629,1.629,0,1,0,3.082-1.059Zm1.558-51.68c-1.343-2.289-1.49-4.374-.451-6.374A6.744,6.744,0,0,1,22.9,3.357a5.23,5.23,0,0,1,4.426,4.551,1.635,1.635,0,0,0,2.4,1.215c.029-.015,2.852-1.521,4.973.03a3.136,3.136,0,0,1,1.08,3.673A1.632,1.632,0,0,0,38.1,14.858a4.1,4.1,0,0,1,2.913-.479c.213.078.858.314,1.337,1.618.2.547.33,1.425-.872,2.73a10.449,10.449,0,0,1-2,1.62c-2.559-3.144-6.387-5.324-12.8-5.172a16.5,16.5,0,0,0-7.406,2.04A15.77,15.77,0,0,1,16.205,13.581ZM4.472,33.3c-.151-1.121,2.725-2.281,5.3-3.108A38.725,38.725,0,0,0,8.6,35.8C6.018,34.975,4.562,33.958,4.472,33.3ZM4.21,49.99C2.944,48,4.642,45.316,6.291,43.418a24.7,24.7,0,0,1,1.851-1.9A80.391,80.391,0,0,0,8.58,52.071,4.762,4.762,0,0,1,4.21,49.99Zm0,0" transform="translate(-0.499 0)"/>
      <path id="Trazado_875138" data-name="Trazado 875138" d="M322.794,137.71a23.379,23.379,0,0,0-2.743-6.478c-2.77-4.426-6.6-6.635-11.085-6.384-4.452.247-6.968,3.641-9.632,7.233-3.276,4.418-6.665,8.986-14.263,9.808a1.63,1.63,0,0,0,.351,3.24c9.017-.975,13.183-6.593,16.53-11.107,2.386-3.217,4.27-5.759,7.2-5.921,3.249-.178,5.973,1.432,8.1,4.792a20.247,20.247,0,0,1,2.378,5.575c.006.025.012.051.019.077a37.808,37.808,0,0,1,.345,20.162,36.887,36.887,0,0,1-8.942,15.673,1.629,1.629,0,0,0,2.375,2.231,40.11,40.11,0,0,0,9.714-17.052A41.017,41.017,0,0,0,322.794,137.71Zm0,0" transform="translate(-222.38 -97.829)"/>
      <path id="Trazado_875139" data-name="Trazado 875139" d="M187.418,267.261c-9.581,2.315-17.333.669-23.041-4.894a24.134,24.134,0,0,1-5.852-9.264,1.629,1.629,0,0,0-3.127.915A27,27,0,0,0,162,264.6a24.217,24.217,0,0,0,17.566,6.913,36.965,36.965,0,0,0,8.622-1.081c11.689-2.824,17.733-12.961,16.63-20.732a1.63,1.63,0,0,0-3.227.459,14.036,14.036,0,0,1-2.877,9.783A19.155,19.155,0,0,1,187.418,267.261Zm0,0" transform="translate(-121.843 -194.591)"/>
      <path id="Trazado_875140" data-name="Trazado 875140" d="M103.777,134.741c0,2.322,1.463,4.14,3.329,4.14s3.328-1.818,3.328-4.14-1.462-4.139-3.328-4.139S103.777,132.42,103.777,134.741Zm0,0" transform="translate(-81.439 -102.353)"/>
    </g>
  </g>
</svg>
