<svg xmlns="http://www.w3.org/2000/svg" width="295" height="101.499" viewBox="0 0 295 101.499">
  <g id="Grupo_1189671" data-name="Grupo 1189671" transform="translate(-1125.051 -3498.501)">
    <rect id="Rectángulo_402907" data-name="Rectángulo 402907" width="295" height="68" rx="10" transform="translate(1125.051 3532)" fill="#b17319"/>
    <g id="Grupo_1189668" data-name="Grupo 1189668" transform="translate(1258.812 3498.5)">
      <g id="Grupo_1189666" data-name="Grupo 1189666" transform="translate(8.329 1.48)">
        <g id="Grupo_1189665" data-name="Grupo 1189665" transform="translate(0)">
          <path id="Trazado_877592" data-name="Trazado 877592" d="M414.065,419.966a8.285,8.285,0,1,0,6.409-13.5h-8.7Z" transform="translate(-332.976 -327.362)" fill="#f2f2f2"/>
          <path id="Trazado_877593" data-name="Trazado 877593" d="M128.7,276.819H113.805a4.836,4.836,0,0,0-4.856,4.814,2.579,2.579,0,0,0,2.59,2.568h28.343a22.727,22.727,0,0,0,8.008-44.078c-12.235-4.517-28.041-.287-35.462-10.388H90.579l.359,12.77s-.052,5.758,6,13.05c.354,8.422,1.8,21.264,1.8,21.264H97.62a5.418,5.418,0,0,0-5.441,5.394,2,2,0,0,0,2.006,1.988h8.03a3.546,3.546,0,0,0,3.561-3.531v-17.34a49.236,49.236,0,0,0,11.48,5.6" transform="translate(-75.461 -185.668)" fill="#e6e6e6"/>
          <g id="Grupo_1189660" data-name="Grupo 1189660" transform="translate(31.019 44.067)">
            <path id="Trazado_877594" data-name="Trazado 877594" d="M212.193,240.123c-12.235-4.517-28.041-.287-35.462-10.388h-5.948c7.421,10.1,23.226,5.871,35.462,10.388a22.727,22.727,0,0,1-8.008,44.078h5.948a22.727,22.727,0,0,0,8.008-44.078Z" transform="translate(-170.784 -229.735)" fill="#d8d8d8"/>
          </g>
          <g id="Grupo_1189661" data-name="Grupo 1189661">
            <path id="Trazado_877595" data-name="Trazado 877595" d="M156.057,31.262c.655-4.138,3.3-11.6,13.608-15.915,8.415-3.519,15.113-6.145,19.328-7.757a1.849,1.849,0,0,1,2.262,2.669c-1.46,2.405-3.485,5.694-6.013,9.687l-9.377,15.281-14.42,2.239Z" transform="translate(-127.958 -7.46)" fill="#e6e6e6"/>
            <path id="Trazado_877596" data-name="Trazado 877596" d="M84.119,62.441c-4.489.517-11.639,1.4-20.677,2.726C52.2,66.814,47.8,73.559,46.181,77.376c-4.9-3.868-11.423-3.333-16.779-.251-7.1,4.087-17.665,18.8-14.5,26.323s18.374,4.059,25.959.934c7.155-2.947,13.813-9.016,10.835-18.524,4.341.842,11.477.689,18.828-6.036,6.71-6.139,11.891-11.1,15.113-14.236A1.842,1.842,0,0,0,84.119,62.441Z" transform="translate(-14.325 -51.53)" fill="#f2f2f2"/>
          </g>
          <g id="Grupo_1189664" data-name="Grupo 1189664" transform="translate(36.657 63.874)">
            <g id="Grupo_1189662" data-name="Grupo 1189662" transform="translate(4.252 2.269)">
              <path id="Trazado_877597" data-name="Trazado 877597" d="M233.282,366.09a12.5,12.5,0,1,1,8.137-22.06" transform="translate(-220.668 -341.081)" fill="#e6e6e6"/>
            </g>
            <g id="Grupo_1189663" data-name="Grupo 1189663">
              <path id="Trazado_877598" data-name="Trazado 877598" d="M205,350.383a12.363,12.363,0,0,1-1.529-5.972,12.637,12.637,0,0,1,20.75-9.555s-7.854-9.416-18.042-2.949c-3.551,2.254-7.03,7.663-6.959,15.062Z" transform="translate(-199.222 -329.639)" fill="#d8d8d8"/>
            </g>
          </g>
        </g>
      </g>
      <g id="Grupo_1189667" data-name="Grupo 1189667" transform="translate(6.847 0.001)">
        <path id="Trazado_877599" data-name="Trazado 877599" d="M102.315,179.373a6.827,6.827,0,0,0-9,3.517,1.487,1.487,0,1,0,2.724,1.193,3.853,3.853,0,0,1,5.079-1.986,1.487,1.487,0,0,0,1.193-2.724Z" transform="translate(-76.076 -143.349)" fill="#060606"/>
        <path id="Trazado_877600" data-name="Trazado 877600" d="M97.109,79.184A24.478,24.478,0,0,0,81.273,54.54c-4.778-1.764-9.993-2.237-15.037-2.7-7.684-.7-14.955-1.361-19.267-6.572a14.207,14.207,0,0,0,.694-7.693c4.82.415,11.279-.684,17.869-6.713C72.293,24.682,77.5,19.694,80.68,16.6a3.362,3.362,0,0,0-2.727-5.686c-2.378.274-5.554.657-9.391,1.159C70.083,9.645,71.536,7.292,72.9,5.05A3.368,3.368,0,0,0,68.834.22c-4.161,1.591-10.9,4.231-19.371,7.774-9.767,4.084-13.076,10.9-14.181,15.45a17.965,17.965,0,0,0-12.617,2.34c-7.341,4.224-18.739,19.6-15.13,28.188C8.6,56.508,11.382,59.4,18.522,59.4a32.346,32.346,0,0,0,3.853-.246c.207,1.92,1.2,6.869,5.971,12.773.3,6.569,1.217,15.587,1.6,19.238a6.91,6.91,0,0,0-6.388,6.86,3.488,3.488,0,0,0,3.492,3.475h8.03a5.039,5.039,0,0,0,5.048-5.017V81.827a52.211,52.211,0,0,0,8.893,4.1,14.088,14.088,0,0,0,4.151,5.218h-6.5c-5.933,0-9.337,10.356-2.266,10.356H64.023a1.488,1.488,0,0,0,0-2.974H44.407c-2.671,0,.183-4.408,2.266-4.408H61.567c1.96,0,2.447-2.974.285-2.974a11.018,11.018,0,1,1,0-22.035,11.2,11.2,0,0,1,7.182,2.6,1.488,1.488,0,0,0,1.91-2.28,14.124,14.124,0,0,0-23.192,10.7,13.935,13.935,0,0,0,.176,2.2,46.472,46.472,0,0,1-8.456-4.424,1.505,1.505,0,0,0-2.314,1.236V96.483a2.061,2.061,0,0,1-2.074,2.044h-8.03a.511.511,0,0,1-.519-.5,3.935,3.935,0,0,1,3.954-3.907c1.084.2,2.759-.174,2.592-1.653-.014-.128-1.439-12.887-1.787-21.16a1.486,1.486,0,0,0-.342-.887c-2.7-3.248-5.242-7.413-5.636-11.725a54.613,54.613,0,0,0,10.115-2.987c4.585-1.889,7.986-4.507,10.068-7.617,5.128,5.321,12.914,6.031,20.467,6.717,4.851.441,9.867.9,14.276,2.524a21.24,21.24,0,0,1-7.493,41.2,1.488,1.488,0,0,0,0,2.974,24.448,24.448,0,0,0,16-5.937,9.765,9.765,0,1,0,8.355-16.379ZM34.3,52.956a48.166,48.166,0,0,1-14.163,3.418c-6.74.415-9.082-1.7-9.859-3.554-2.711-6.448,7.069-20.544,13.871-24.458,4.645-2.673,10.706-3.348,15.117.13a1.487,1.487,0,0,0,2.29-.587,17.509,17.509,0,0,1,2.325-3.94,1.488,1.488,0,0,0-2.344-1.83,20.656,20.656,0,0,0-1.942,2.983,13.9,13.9,0,0,0-1.472-.759c.9-3.919,3.737-9.962,12.489-13.622C59.047,7.21,65.755,4.582,69.9,3q.6-.061.459.509c-1.741,2.868-3.634,5.921-5.629,9.079-2.32.316-4.825.669-7.5,1.06a26.9,26.9,0,0,0-9.437,3.116,1.488,1.488,0,0,0,1.469,2.585,23.945,23.945,0,0,1,8.4-2.759c9.061-1.328,16.221-2.212,20.631-2.721q.6.088.312.6c-3.164,3.08-8.348,8.045-15.08,14.2-6.765,6.19-13.273,6.5-17.541,5.674q-1.932-.015-1.7,1.9c1.05,3.354,2.18,11.695-9.983,16.705ZM95.828,95.587a6.843,6.843,0,0,1-4.943-2.1,24.116,24.116,0,0,0,5.806-11.361,6.753,6.753,0,0,1-.863,13.459Z" transform="translate(-6.847 -0.001)" fill="#060606"/>
      </g>
    </g>
    <g id="Grupo_1189670" data-name="Grupo 1189670" transform="translate(1166.514 3509.737)">
      <path id="Trazado_877601" data-name="Trazado 877601" d="M106.414,40H64v71.573h58.319V55.905H106.414Zm0,0" transform="translate(-53.397 -33.373)" fill="#dcf4ca"/>
      <path id="Trazado_877602" data-name="Trazado 877602" d="M136,285.112h46.39V248C182.39,267.048,158.711,285.112,136,285.112Zm0,0" transform="translate(-113.468 -206.912)" fill="#c9eeae"/>
      <path id="Trazado_877603" data-name="Trazado 877603" d="M10.651,8H39.81a2.651,2.651,0,0,1,2.651,2.651V47.763a2.651,2.651,0,0,1-2.651,2.651H10.651A2.651,2.651,0,0,1,8,47.763V10.651A2.651,2.651,0,0,1,10.651,8Zm0,0" transform="translate(-6.675 -6.675)" fill="#d1e7f8"/>
      <path id="Trazado_877604" data-name="Trazado 877604" d="M320,55.905h15.905L320,40Zm0,0" transform="translate(-266.983 -33.373)" fill="#006df0"/>
      <path id="Trazado_877605" data-name="Trazado 877605" d="M32,32H58.509v6.627H32Zm0,0" transform="translate(-26.698 -26.698)" fill="#88f236"/>
      <g id="Grupo_1189669" data-name="Grupo 1189669" transform="translate(6.627 15.905)">
        <path id="Trazado_877606" data-name="Trazado 877606" d="M41.325,96h2.651A1.325,1.325,0,0,1,45.3,97.325v2.651a1.325,1.325,0,0,1-1.325,1.325H41.325A1.325,1.325,0,0,1,40,99.976V97.325A1.325,1.325,0,0,1,41.325,96Zm0,0" transform="translate(-40 -96)" fill="#006df0"/>
        <path id="Trazado_877607" data-name="Trazado 877607" d="M97.325,96h2.651a1.325,1.325,0,0,1,1.325,1.325v2.651a1.325,1.325,0,0,1-1.325,1.325H97.325A1.325,1.325,0,0,1,96,99.976V97.325A1.325,1.325,0,0,1,97.325,96Zm0,0" transform="translate(-86.722 -96)" fill="#006df0"/>
        <path id="Trazado_877608" data-name="Trazado 877608" d="M153.325,96h2.651a1.325,1.325,0,0,1,1.325,1.325v2.651a1.325,1.325,0,0,1-1.325,1.325h-2.651A1.325,1.325,0,0,1,152,99.976V97.325A1.325,1.325,0,0,1,153.325,96Zm0,0" transform="translate(-133.444 -96)" fill="#006df0"/>
        <path id="Trazado_877609" data-name="Trazado 877609" d="M41.325,152h2.651a1.325,1.325,0,0,1,1.325,1.325v2.651a1.325,1.325,0,0,1-1.325,1.325H41.325A1.325,1.325,0,0,1,40,155.976v-2.651A1.325,1.325,0,0,1,41.325,152Zm0,0" transform="translate(-40 -142.722)" fill="#006df0"/>
        <path id="Trazado_877610" data-name="Trazado 877610" d="M97.325,152h2.651a1.325,1.325,0,0,1,1.325,1.325v2.651a1.325,1.325,0,0,1-1.325,1.325H97.325A1.325,1.325,0,0,1,96,155.976v-2.651A1.325,1.325,0,0,1,97.325,152Zm0,0" transform="translate(-86.722 -142.722)" fill="#006df0"/>
        <path id="Trazado_877611" data-name="Trazado 877611" d="M153.325,152h2.651a1.325,1.325,0,0,1,1.325,1.325v2.651a1.325,1.325,0,0,1-1.325,1.325h-2.651A1.325,1.325,0,0,1,152,155.976v-2.651A1.325,1.325,0,0,1,153.325,152Zm0,0" transform="translate(-133.444 -142.722)" fill="#006df0"/>
        <path id="Trazado_877612" data-name="Trazado 877612" d="M41.325,208h2.651a1.325,1.325,0,0,1,1.325,1.325v2.651a1.325,1.325,0,0,1-1.325,1.325H41.325A1.325,1.325,0,0,1,40,211.976v-2.651A1.325,1.325,0,0,1,41.325,208Zm0,0" transform="translate(-40 -189.444)" fill="#006df0"/>
        <path id="Trazado_877613" data-name="Trazado 877613" d="M97.325,208h2.651a1.325,1.325,0,0,1,1.325,1.325v2.651a1.325,1.325,0,0,1-1.325,1.325H97.325A1.325,1.325,0,0,1,96,211.976v-2.651A1.325,1.325,0,0,1,97.325,208Zm0,0" transform="translate(-86.722 -189.444)" fill="#006df0"/>
      </g>
      <path id="Trazado_877614" data-name="Trazado 877614" d="M438.76,260.76a2.651,2.651,0,0,0-3.749-3.749l-1.874,1.874,3.75,3.75Zm0,0" transform="translate(-361.375 -213.782)" fill="#d1d3d4"/>
      <path id="Trazado_877615" data-name="Trazado 877615" d="M291.2,307.182l-3.2,6.949,6.949-3.2,18.045-18.047-3.749-3.748Zm0,0" transform="translate(-240.285 -241.233)" fill="#ed1c24"/>
      <path id="Trazado_877616" data-name="Trazado 877616" d="M416.234,275.041l2.8-2.8,3.749,3.748-2.8,2.8Zm0,0" transform="translate(-347.273 -227.138)" fill="#f7941d"/>
      <path id="Trazado_877617" data-name="Trazado 877617" d="M135.858,307.929A11.929,11.929,0,1,1,123.929,296,11.929,11.929,0,0,1,135.858,307.929Zm0,0" transform="translate(-93.444 -246.959)" fill="#ff9811"/>
      <path id="Trazado_877618" data-name="Trazado 877618" d="M40,143.858H66.509a2.659,2.659,0,0,0,2.651-2.651V120C69.159,133.187,56.117,143.858,40,143.858Zm0,0" transform="translate(-33.373 -100.119)" fill="#c2dff6"/>
      <path id="Trazado_877619" data-name="Trazado 877619" d="M153.325,208h2.651a1.325,1.325,0,0,1,1.325,1.325v2.651a1.325,1.325,0,0,1-1.325,1.325h-2.651A1.325,1.325,0,0,1,152,211.976v-2.651A1.325,1.325,0,0,1,153.325,208Zm0,0" transform="translate(-126.817 -173.539)" fill="#006df0"/>
      <path id="Trazado_877620" data-name="Trazado 877620" d="M117.254,288a13.254,13.254,0,1,0,13.254,13.254A13.254,13.254,0,0,0,117.254,288Zm0,23.858a10.6,10.6,0,1,1,10.6-10.6A10.6,10.6,0,0,1,117.254,311.858Zm0,0" transform="translate(-86.769 -240.285)"/>
      <path id="Trazado_877621" data-name="Trazado 877621" d="M157.3,323.976c1.619,0,2.651.784,2.651,1.325H162.6c0-1.883-1.668-3.409-3.976-3.844V320h-2.651v1.458c-2.308.432-3.976,1.958-3.976,3.844,0,2.231,2.329,3.976,5.3,3.976,1.619,0,2.651.784,2.651,1.325s-1.032,1.325-2.651,1.325-2.651-.784-2.651-1.325H152c0,1.883,1.668,3.409,3.976,3.844v1.458h2.651v-1.458c2.308-.432,3.976-1.958,3.976-3.844,0-2.231-2.329-3.976-5.3-3.976-1.619,0-2.651-.784-2.651-1.325S155.683,323.976,157.3,323.976Zm0,0" transform="translate(-126.817 -266.983)"/>
      <path id="Trazado_877622" data-name="Trazado 877622" d="M67.6,76.875H11.929V45.065H33.136a3.976,3.976,0,0,0,3.976-3.976V7.953h14.58V23.858H67.6V42.414h2.651V21.983L53.566,5.3H37.112V3.976A3.976,3.976,0,0,0,33.136,0H3.976A3.976,3.976,0,0,0,0,3.976V41.088a3.976,3.976,0,0,0,3.976,3.976h5.3V79.526h60.97V60.97H67.6ZM54.343,9.827l11.38,11.38H54.343ZM2.651,41.088V3.976A1.325,1.325,0,0,1,3.976,2.651H33.136a1.325,1.325,0,0,1,1.325,1.325V41.088a1.325,1.325,0,0,1-1.325,1.325H3.976A1.325,1.325,0,0,1,2.651,41.088Zm0,0"/>
      <path id="Trazado_877623" data-name="Trazado 877623" d="M256,200h2.651v2.651H256Zm0,0" transform="translate(-213.586 -166.864)"/>
      <path id="Trazado_877624" data-name="Trazado 877624" d="M288,200h15.905v2.651H288Zm0,0" transform="translate(-240.285 -166.864)"/>
      <path id="Trazado_877625" data-name="Trazado 877625" d="M256,168h2.651v2.651H256Zm0,0" transform="translate(-213.586 -140.166)"/>
      <path id="Trazado_877626" data-name="Trazado 877626" d="M288,168h15.905v2.651H288Zm0,0" transform="translate(-240.285 -140.166)"/>
      <path id="Trazado_877627" data-name="Trazado 877627" d="M256,232h2.651v2.651H256Zm0,0" transform="translate(-213.586 -193.563)"/>
      <path id="Trazado_877628" data-name="Trazado 877628" d="M288,232h15.905v2.651H288Zm0,0" transform="translate(-240.285 -193.563)"/>
      <path id="Trazado_877629" data-name="Trazado 877629" d="M256,264h2.651v2.651H256Zm0,0" transform="translate(-213.586 -220.261)"/>
      <path id="Trazado_877630" data-name="Trazado 877630" d="M288,264h15.905v2.651H288Zm0,0" transform="translate(-240.285 -220.261)"/>
      <path id="Trazado_877631" data-name="Trazado 877631" d="M53.159,24H24v9.278H53.159Zm-2.651,6.627H26.651V26.651H50.509Zm0,0" transform="translate(-20.024 -20.024)"/>
      <path id="Trazado_877632" data-name="Trazado 877632" d="M37.3,88H34.651A2.651,2.651,0,0,0,32,90.651V93.3a2.651,2.651,0,0,0,2.651,2.651H37.3A2.651,2.651,0,0,0,39.953,93.3V90.651A2.651,2.651,0,0,0,37.3,88Zm-2.651,5.3V90.651H37.3V93.3Zm0,0" transform="translate(-26.698 -73.42)"/>
      <path id="Trazado_877633" data-name="Trazado 877633" d="M93.3,88H90.651A2.651,2.651,0,0,0,88,90.651V93.3a2.651,2.651,0,0,0,2.651,2.651H93.3A2.651,2.651,0,0,0,95.953,93.3V90.651A2.651,2.651,0,0,0,93.3,88Zm-2.651,5.3V90.651H93.3V93.3Zm0,0" transform="translate(-73.42 -73.42)"/>
      <path id="Trazado_877634" data-name="Trazado 877634" d="M149.3,88h-2.651A2.651,2.651,0,0,0,144,90.651V93.3a2.651,2.651,0,0,0,2.651,2.651H149.3a2.651,2.651,0,0,0,2.651-2.651V90.651A2.651,2.651,0,0,0,149.3,88Zm-2.651,5.3V90.651H149.3V93.3Zm0,0" transform="translate(-120.142 -73.42)"/>
      <path id="Trazado_877635" data-name="Trazado 877635" d="M37.3,144H34.651A2.651,2.651,0,0,0,32,146.651V149.3a2.651,2.651,0,0,0,2.651,2.651H37.3a2.651,2.651,0,0,0,2.651-2.651v-2.651A2.651,2.651,0,0,0,37.3,144Zm-2.651,5.3v-2.651H37.3V149.3Zm0,0" transform="translate(-26.698 -120.142)"/>
      <path id="Trazado_877636" data-name="Trazado 877636" d="M93.3,144H90.651A2.651,2.651,0,0,0,88,146.651V149.3a2.651,2.651,0,0,0,2.651,2.651H93.3a2.651,2.651,0,0,0,2.651-2.651v-2.651A2.651,2.651,0,0,0,93.3,144Zm-2.651,5.3v-2.651H93.3V149.3Zm0,0" transform="translate(-73.42 -120.142)"/>
      <path id="Trazado_877637" data-name="Trazado 877637" d="M149.3,144h-2.651A2.651,2.651,0,0,0,144,146.651V149.3a2.651,2.651,0,0,0,2.651,2.651H149.3a2.651,2.651,0,0,0,2.651-2.651v-2.651A2.651,2.651,0,0,0,149.3,144Zm-2.651,5.3v-2.651H149.3V149.3Zm0,0" transform="translate(-120.142 -120.142)"/>
      <path id="Trazado_877638" data-name="Trazado 877638" d="M37.3,200H34.651A2.651,2.651,0,0,0,32,202.651V205.3a2.651,2.651,0,0,0,2.651,2.651H37.3a2.651,2.651,0,0,0,2.651-2.651v-2.651A2.651,2.651,0,0,0,37.3,200Zm-2.651,5.3v-2.651H37.3V205.3Zm0,0" transform="translate(-26.698 -166.864)"/>
      <path id="Trazado_877639" data-name="Trazado 877639" d="M93.3,200H90.651A2.651,2.651,0,0,0,88,202.651V205.3a2.651,2.651,0,0,0,2.651,2.651H93.3a2.651,2.651,0,0,0,2.651-2.651v-2.651A2.651,2.651,0,0,0,93.3,200Zm-2.651,5.3v-2.651H93.3V205.3Zm0,0" transform="translate(-73.42 -166.864)"/>
      <path id="Trazado_877640" data-name="Trazado 877640" d="M149.3,200h-2.651A2.651,2.651,0,0,0,144,202.651V205.3a2.651,2.651,0,0,0,2.651,2.651H149.3a2.651,2.651,0,0,0,2.651-2.651v-2.651A2.651,2.651,0,0,0,149.3,200Zm-2.651,5.3v-2.651H149.3V205.3Zm0,0" transform="translate(-120.142 -166.864)"/>
      <path id="Trazado_877641" data-name="Trazado 877641" d="M311.943,249.592a4.07,4.07,0,0,0-5.622,0L283.6,272.314a1.341,1.341,0,0,0-.265.383l-3.2,6.948a1.326,1.326,0,0,0,1.758,1.758l6.948-3.2a1.328,1.328,0,0,0,.383-.265l22.72-22.722A3.976,3.976,0,0,0,311.943,249.592Zm-24.428,26.3-3.473,1.6,1.6-3.473,16.941-16.943,1.874,1.874Zm18.821-18.821-1.874-1.874.928-.928,1.874,1.874Zm3.738-3.737-.937.937-1.874-1.874.938-.937a1.355,1.355,0,0,1,1.873,0A1.326,1.326,0,0,1,310.074,253.335Zm0,0" transform="translate(-233.622 -207.3)"/>
    </g>
  </g>
</svg>
