<svg xmlns="http://www.w3.org/2000/svg" xmlns:xlink="http://www.w3.org/1999/xlink" width="285" height="237.596" viewBox="0 0 285 237.596">
  <defs>
    <filter id="Rect치ngulo_402919" x="0" y="0" width="285" height="237.596" filterUnits="userSpaceOnUse">
      <feOffset dy="3" input="SourceAlpha"/>
      <feGaussianBlur stdDeviation="3" result="blur"/>
      <feFlood flood-opacity="0.161"/>
      <feComposite operator="in" in2="blur"/>
      <feComposite in="SourceGraphic"/>
    </filter>
  </defs>
  <g id="Grupo_1189673" data-name="Grupo 1189673" transform="translate(-1118 -5022.121)">
    <g transform="matrix(1, 0, 0, 1, 1118, 5022.12)" filter="url(#Rect치ngulo_402919)">
      <rect id="Rect치ngulo_402919-2" data-name="Rect치ngulo 402919" width="267" height="219.596" rx="10" transform="translate(9 6)" fill="#fdbab3"/>
    </g>
    <g id="Grupo_1189672" data-name="Grupo 1189672" transform="translate(1179.743 5055.067)">
      <path id="Trazado_877642" data-name="Trazado 877642" d="M180.469,278.733c-1.011,17.12-17.17,21.436-34.359,22.544A50.149,50.149,0,0,1,134.6,305.62c-9.425,2.234-18.749.019-20.094-5.608-1.113-4.69,3.9-10.02,11.619-12.884a25.293,25.293,0,0,1-9.556-11.884c-6.822,12.32-24.723,23.772-37.935,28.145-9.66,3.195-16.123,4.989-19.567.123-6.253-8.844,4.625-16.866,13.82-23-7.7-12.511-7.87-29.625-1-42.218,1.7.047,3.867-22.326,37.992-22.446,31.018-2.341,73.083,20.317,70.584,62.883Z" transform="translate(-39.174 -147.383)" fill="#ece2e2"/>
      <path id="Trazado_877643" data-name="Trazado 877643" d="M457.358,374.705a15.153,15.153,0,0,1-21.488,13.748,20.279,20.279,0,0,0,3.826-11.225,57.178,57.178,0,0,0-1.482-17.126A15.149,15.149,0,0,1,457.358,374.705Z" transform="translate(-298.401 -245.879)" fill="#cec4c4"/>
      <path id="Trazado_877644" data-name="Trazado 877644" d="M160.839,11.347c-13.038,5.3-27.08,17.126-33.025,29.42a30.979,30.979,0,0,0-22.355-.706C116.412,18.569,149.855.823,160.839,11.347Z" transform="translate(-72.199 -5.356)" fill="#cec4c4"/>
      <path id="Trazado_877645" data-name="Trazado 877645" d="M304.486,320.287c-.652,11.05-7.6,17.051-18.252,20.065a81.713,81.713,0,0,1-16.11,2.479c-14.512,7.776-29.784,6.332-31.6-1.265-1.113-4.69,3.9-10.02,11.619-12.884-4.3-2.861-10.944-8.711-11.259-13.442-1.867-28.013,25.2-43.81,49.507-37.462C299.949,289.271,305.454,303.8,304.486,320.287Z" transform="translate(-163.191 -188.938)" fill="#fff6f6"/>
      <path id="Trazado_877646" data-name="Trazado 877646" d="M134.413,215.988c-7.121,18.662-22.895,33.455-42.833,32.64A39.516,39.516,0,0,1,95.415,238.5c1.7.047,3.867-22.327,37.992-22.446C133.741,216.032,134.076,216.007,134.413,215.988Z" transform="translate(-62.697 -147.591)" fill="#cec4c4"/>
      <path id="Trazado_877647" data-name="Trazado 877647" d="M76.074,60.393c4.3,21.975-11.6,35.92-32.75,35.92C25.522,96.313,8,94.4,8,76.591,8,61.9,23.363,45.371,38.738,40.041c0-.17,11.156-4.186,22.355.7C71.961,18.266,107.842-.3,117.664,12.252c9.682,12.375-16.6,43.126-41.591,48.141Z" transform="translate(-5.477 -5.334)" fill="#ece2e2"/>
      <path id="Trazado_877648" data-name="Trazado 877648" d="M393.868,330.813c-.652,11.05-7.6,17.051-18.252,20.065,1.983-11.076,9.21-13.1,8.509-18.053-1.009-7.231-24.129-11.259-11.36-27.527,2.419-3.078,5.358-5.838,6.97-9.4,0-1.17.877-2.813,1.252-4.135C390.039,302.3,394.769,315.459,393.868,330.813Z" transform="translate(-252.573 -199.464)" fill="#ece2e2"/>
      <path id="Trazado_877649" data-name="Trazado 877649" d="M113.308,410.209c-5.705,7.355-19.794,18.338-34.728,23.282-9.66,3.195-16.123,4.989-19.567.123a9.2,9.2,0,0,1-1.873-5.3,41.493,41.493,0,0,0,4.838-.385c2.7-.425,10.586-2.008,13.032-3.214,1.245-.618.868-.411,15.476-10.957,5.239-3.774,9.315-6.393,21.071-8,.851-.114,1.321.043,1.492,1.312A26.751,26.751,0,0,1,113.308,410.209Z" transform="translate(-39.119 -277.484)" fill="#cec4c4"/>
      <path id="Trazado_877650" data-name="Trazado 877650" d="M64.816,125.2c-.13,2.007-2.2,3.2-3.6,4.642-3.842,3.945-2.124,8.677-16.119,14.566a10.064,10.064,0,0,1,.911-7.958c1.755-2.648,5.063-3.78,7.577-5.566A38.735,38.735,0,0,1,64.816,125.2Z" transform="translate(-30.597 -85.435)" fill="#fff"/>
      <circle id="Elipse_11790" data-name="Elipse 11790" cx="4.415" cy="4.415" r="4.415" transform="translate(23.339 55.971)"/>
      <path id="Trazado_877651" data-name="Trazado 877651" d="M219,42.132c2.259-2.157,4.115-2.944,17.373-9.954,2.579-1.363,5.846-2.7,8.224-1.01,2.591,1.842,2,6.051-.07,8.466s-5.106,3.752-7.55,5.785c-4.35,3.619-6.593,9.232-10.725,13.1-5.4,5.048-13.166,6.421-20.466,7.573-1.019.161.289-6.471.472-6.9,1-2.353,2.659-3.359,4.333-5.11C213.99,50.528,215.429,45.544,219,42.132Z" transform="translate(-140.622 -20.519)" fill="#ffa4b8"/>
      <path id="Trazado_877652" data-name="Trazado 877652" d="M290.537,293.791a2.525,2.525,0,0,1-.756-4.931,27.751,27.751,0,0,1,8.325-1.271,2.523,2.523,0,0,1,0,5.046C293.54,292.635,291.633,293.791,290.537,293.791Z" transform="translate(-197.182 -196.61)"/>
      <path id="Trazado_877653" data-name="Trazado 877653" d="M156.549,116.584a17.352,17.352,0,0,0-14.281-5.314.755.755,0,0,1-.8-.55c-5.356-17.546-18.133-28.174-27.908-34-11.394-6.791-26.165-11.356-39.883-10.938a40.346,40.346,0,0,0-.214-8.806c25.263-6.645,51.883-37.337,40.714-51.613-4.459-5.7-13.773-6.508-25.087-2.254C75.5-6.568,43.071,11.221,31.484,32.675,16.112,38.438,0,55.187,0,71.258c0,16.1,12.636,21.016,28.773,22-4.984,11.6-4.967,26.914,1.59,39.091-9.826,6.759-19.49,15.395-12.528,25.233,4.906,6.931,14.312,3.5,22.419.815a78,78,0,0,0,21.206-10.924c6.97-5.047,11.863-9.14,15.65-14.441a27.556,27.556,0,0,0,4.99,6.132c-15.079,8.118-11.375,22.476,6.061,22.476,6.563,0,13.8-2.328,19.46-5.268,10.559-.718,23.431-2.783,30.647-10.782C155.812,151.372,169.154,129.69,156.549,116.584ZM5.046,71.258c0-16.548,21.618-35.787,37.847-35.787,8.716,0,11.2,2.731,13.111,2.431,3.117-.488,1.657-5.435,13.592-16.541a2.523,2.523,0,1,0-3.437-3.694A60.506,60.506,0,0,0,54.42,32.242a34.685,34.685,0,0,0-15.828-1.47C49.027,15.89,70.481,3.023,82.916,5.846a71.223,71.223,0,0,0-8.593,5.2,2.523,2.523,0,1,0,2.9,4.127C97.859.654,119.115,1.97,109.242,22.2c-6.736,13.8-24.6,27.465-39.141,30.383a2.526,2.526,0,0,0-1.913,1.725c-.439,1.41.593,2.221.593,8.349,0,16.935-15.561,25.8-30.934,25.8-20.25,0-32.8-2.877-32.8-17.2Zm151.378,58.075a12.663,12.663,0,0,1-15.113,11.859c2.693-5.247,2.91-11.7,2.5-17.587a2.523,2.523,0,1,0-5.034.35c1.09,15.7-3.568,25.582-31.971,27.418-1.47.073-4.252,2.578-11.961,4.408-8.329,1.973-16.164-.005-17.057-3.735-.713-3,3.13-7.032,8.889-9.476,1.43.85,5.287,2.763,6.678,2.763a2.525,2.525,0,0,0,.756-4.931,22.628,22.628,0,0,1-14.3-13.283,2.531,2.531,0,0,0-.15-.378,22.828,22.828,0,0,1,1.06-18.378,2.523,2.523,0,0,0-4.488-2.308,27.907,27.907,0,0,0-1.612,21.575c-3.594,6.041-8.34,10.13-16.116,15.76A72.957,72.957,0,0,1,38.67,153.612c-9.981,3.3-14.509,4.178-16.715,1.061a6.224,6.224,0,0,1-1.313-4.925c1.224-6.6,13.709-13.6,14.92-14.9,3.032-3.257-5.284-6.366-5.284-23.684a39.521,39.521,0,0,1,3.958-17.693c1.22.022,2.428.031,3.612.031,15.519,0,30.732-7.827,34.884-22.633C96.4,69.721,128.215,84.6,136.639,112.194a5.8,5.8,0,0,0,6.213,4.089c6.923-.807,13.882,5.105,13.573,13.051Z" transform="translate(0 0)"/>
      <path id="Trazado_877654" data-name="Trazado 877654" d="M262.523,312.634A2.522,2.522,0,1,1,265,310.6,2.525,2.525,0,0,1,262.523,312.634Z" transform="translate(-177.998 -210.301)"/>
    </g>
  </g>
</svg>
