<svg xmlns="http://www.w3.org/2000/svg" width="82" height="82" viewBox="0 0 82 82">
  <g id="Grupo_1189636" data-name="Grupo 1189636" transform="translate(-769.077 -1963)">
    <rect id="Rectángulo_402627" data-name="Rectángulo 402627" width="82" height="82" transform="translate(769.077 1963)" fill="none"/>
    <g id="Grupo_1189674" data-name="Grupo 1189674" transform="translate(745.491 1973.542)">
      <path id="Trazado_877655" data-name="Trazado 877655" d="M222.346,316.047h1.193a2.686,2.686,0,0,0,2.683-2.683v-.486c.137.009.274.015.413.015a.894.894,0,1,0,0-1.789,4.3,4.3,0,0,1-2.8-1.027v-.891a3.3,3.3,0,0,0,2.385-2.9c0-1.446-1.441-2.578-3.28-2.578s-3.28,1.132-3.28,2.578a3.3,3.3,0,0,0,2.385,2.9v.892a4.3,4.3,0,0,1-2.8,1.026.894.894,0,1,0,0,1.789c.138,0,.276-.006.413-.015v.486a2.686,2.686,0,0,0,2.683,2.683Zm-.894-9.758c0-.322.581-.789,1.491-.789s1.491.467,1.491.789a1.516,1.516,0,0,1-2.981,0Zm0,6.2a6.071,6.071,0,0,0,1.491-.833,6.064,6.064,0,0,0,1.491.833v.879a.9.9,0,0,1-.894.894h-1.193a.9.9,0,0,1-.894-.894Z" transform="translate(-158.408 -267.491)"/>
      <path id="Trazado_877656" data-name="Trazado 877656" d="M171.341,130.684a7.972,7.972,0,1,0-10.651-10.667c-.233-.132-.466-.261-.7-.383a.894.894,0,0,0-.832,1.583,25.991,25.991,0,0,1,6.281,4.711,3.416,3.416,0,1,0-.9-3.241,27.488,27.488,0,0,0-2.316-1.727,6.182,6.182,0,1,1,7.528,8.439.9.9,0,0,0-.479,1.334c2.5,3.908,4.762,9.526,4.762,11.3a.966.966,0,0,1-.967.962.894.894,0,0,0-.894.894c0,12.646-11.47,17.151-22.2,17.151a30.151,30.151,0,0,1-13.162-2.7.894.894,0,0,0-.788,1.606,31.933,31.933,0,0,0,13.951,2.882c12.6,0,23.55-5.662,23.981-18.19a2.754,2.754,0,0,0,1.838-3.058C175.169,137.832,172.857,133.244,171.341,130.684Zm-3.486-8.8a1.627,1.627,0,1,1-1.627,1.627A1.623,1.623,0,0,1,167.855,121.885Z" transform="translate(-85.447 -101.764)"/>
      <path id="Trazado_877657" data-name="Trazado 877657" d="M48.44,54.807A14.957,14.957,0,0,1,42.314,42.12a.894.894,0,0,0-.894-.894.966.966,0,0,1-.967-.963c0-1.764,2.253-7.363,4.736-11.253a.9.9,0,0,0-.5-1.338,6.182,6.182,0,0,1,1.778-12.1,6.151,6.151,0,0,1,5.669,3.712,27.687,27.687,0,0,0-2.25,1.7,3.476,3.476,0,1,0-.925,3.272l.006-.007c4.331-4.33,9.352-7.06,15.55-7.06a19.907,19.907,0,0,1,6.045.927.894.894,0,1,0,.55-1.7q-.382-.123-.77-.232a1.959,1.959,0,0,1,.906-1.02A3.748,3.748,0,0,0,71.368,8.6a.894.894,0,0,0-.894,1.549,1.959,1.959,0,0,1-.061,3.427,3.748,3.748,0,0,0-1.819,2.193,21.624,21.624,0,0,0-2.343-.309,6.489,6.489,0,0,0-1-7.7l-.722-.722a3.217,3.217,0,0,1,0-4.552,2.4,2.4,0,0,1,3.389,0,1.737,1.737,0,0,1,0,2.458.894.894,0,0,0,1.265,1.265,3.525,3.525,0,0,0,0-4.988A4.089,4.089,0,0,0,66.225,0a4.182,4.182,0,0,0-2.966,1.226,5,5,0,0,0,0,7.082l.722.722a4.73,4.73,0,0,1,.143,6.369q-.643.011-1.281.06a3.744,3.744,0,0,0-1.753-4.619,1.96,1.96,0,0,1-.678-2.866.894.894,0,1,0-1.457-1.037,3.749,3.749,0,0,0,1.3,5.484,1.96,1.96,0,0,1,.177,3.354,20.978,20.978,0,0,0-6.76,2.552A7.972,7.972,0,0,0,38.5,21.75a8.031,8.031,0,0,0,4.612,7.228c-1.508,2.558-3.8,7.12-4.41,10.834A2.754,2.754,0,0,0,40.54,42.87a16.752,16.752,0,0,0,6.835,13.374.894.894,0,0,0,1.066-1.437ZM47.7,22.982a1.687,1.687,0,1,1,0-2.386A1.689,1.689,0,0,1,47.7,22.982Z" transform="translate(0 0)"/>
      <path id="Trazado_877658" data-name="Trazado 877658" d="M123.737,396.446a.9.9,0,0,0-1.2-.391l-3.578,1.822a.894.894,0,1,0,.812,1.594l3.578-1.822A.9.9,0,0,0,123.737,396.446Z" transform="translate(-70.433 -348.736)"/>
      <path id="Trazado_877659" data-name="Trazado 877659" d="M92.425,366.879H88.211a.894.894,0,1,0,0,1.789h4.214a.894.894,0,0,0,0-1.789Z" transform="translate(-42.997 -323.126)"/>
      <path id="Trazado_877660" data-name="Trazado 877660" d="M98.961,316.212a.894.894,0,0,0-.391-1.2l-4.225-2.151a.894.894,0,0,0-.812,1.594l4.225,2.151A.894.894,0,0,0,98.961,316.212Z" transform="translate(-48.042 -275.461)"/>
      <path id="Trazado_877661" data-name="Trazado 877661" d="M374.876,312.859l-4.225,2.151a.894.894,0,0,0,.812,1.594l4.225-2.151a.894.894,0,0,0-.812-1.594Z" transform="translate(-292.111 -275.463)"/>
      <path id="Trazado_877662" data-name="Trazado 877662" d="M375.984,367.773a.894.894,0,0,0,.894.894h4.214a.894.894,0,0,0,0-1.789h-4.214A.894.894,0,0,0,375.984,367.773Z" transform="translate(-297.238 -323.126)"/>
      <path id="Trazado_877663" data-name="Trazado 877663" d="M350.261,396.446a.9.9,0,0,0,.391,1.2l3.578,1.822a.894.894,0,0,0,.812-1.594l-3.578-1.822A.9.9,0,0,0,350.261,396.446Z" transform="translate(-274.497 -348.736)"/>
      <path id="Trazado_877664" data-name="Trazado 877664" d="M161.126,305.169a.9.9,0,0,0-1.265,0l-.506.506-.506-.506a.894.894,0,0,0-1.265,1.265l.506.506-.506.506a.894.894,0,1,0,1.265,1.265l.506-.506.506.506a.894.894,0,1,0,1.265-1.265l-.506-.506.506-.506A.9.9,0,0,0,161.126,305.169Z" transform="translate(-104.653 -268.544)"/>
      <path id="Trazado_877665" data-name="Trazado 877665" d="M326.024,305.169a.9.9,0,0,0-1.265,0l-.506.506-.506-.506a.894.894,0,0,0-1.265,1.265l.506.506-.506.506a.894.894,0,1,0,1.265,1.265l.506-.506.506.506a.894.894,0,1,0,1.265-1.265l-.506-.506.506-.506A.9.9,0,0,0,326.024,305.169Z" transform="translate(-249.886 -268.544)"/>
    </g>
  </g>
</svg>
