<svg xmlns="http://www.w3.org/2000/svg" width="82" height="82" viewBox="0 0 82 82">
  <g id="Grupo_1189637" data-name="Grupo 1189637" transform="translate(-769.077 -1963)">
    <rect id="Rectángulo_402627" data-name="Rectángulo 402627" width="82" height="82" transform="translate(769.077 1963)" fill="none"/>
    <g id="XMLID_1_" transform="translate(714.058 1968.1)">
      <g id="XMLID_3322_" transform="translate(70.019 -0.1)">
        <g id="XMLID_756_" transform="translate(7.579 24.725)">
          <path id="XMLID_2843_" d="M126.106,181.616c-1.179,0-2.106-1.236-2.106-2.808s.927-2.808,2.106-2.808,2.106,1.236,2.106,2.808S127.285,181.616,126.106,181.616Zm0-4.212c-.281,0-.7.548-.7,1.4s.421,1.4.7,1.4.7-.548.7-1.4S126.387,177.4,126.106,177.4Z" transform="translate(-124 -176)"/>
        </g>
        <g id="XMLID_755_" transform="translate(20.777 24.725)">
          <path id="XMLID_2840_" d="M220.106,181.616c-1.179,0-2.106-1.236-2.106-2.808s.927-2.808,2.106-2.808,2.106,1.236,2.106,2.808S221.285,181.616,220.106,181.616Zm0-4.212c-.281,0-.7.548-.7,1.4s.421,1.4.7,1.4.7-.548.7-1.4S220.387,177.4,220.106,177.4Z" transform="translate(-218 -176)"/>
        </g>
        <g id="XMLID_757_" transform="translate(13.799 31.717)">
          <path id="XMLID_2839_" d="M170.785,228.482a.744.744,0,0,1-.379-.112l-2.106-1.376.772-1.179,1.727,1.123,1.727-1.137.772,1.179-2.106,1.39A.779.779,0,0,1,170.785,228.482Z" transform="translate(-168.3 -225.8)"/>
        </g>
        <g id="XMLID_758_" transform="translate(15.582 33.71)">
          <path id="XMLID_2838_" d="M181,240h1.4v2.527H181Z" transform="translate(-181 -240)"/>
        </g>
        <g id="XMLID_771_" transform="translate(1.542 16.02)">
          <path id="XMLID_2835_" d="M95.742,140.676c-4.858,0-8.55-.716-11.007-2.106A6.9,6.9,0,0,1,81,132.252a10.1,10.1,0,0,1,1.9-6.557,26.223,26.223,0,0,0,1.685-3c.225-.491.449-.983.66-1.474,1.587-3.707,3.1-7.217,10.5-7.217s8.9,3.51,10.516,7.217c.211.477.421.983.66,1.474a24.247,24.247,0,0,0,1.685,3,10.1,10.1,0,0,1,1.9,6.557,6.924,6.924,0,0,1-3.735,6.318C104.293,139.96,100.586,140.676,95.742,140.676Zm0-25.272c-6.473,0-7.68,2.808-9.224,6.374-.211.491-.435,1-.674,1.5a24.49,24.49,0,0,1-1.769,3.159,8.7,8.7,0,0,0-1.685,5.813c0,4.661,4.493,7.02,13.338,7.02s13.338-2.359,13.338-7.02a8.7,8.7,0,0,0-1.685-5.813,28.411,28.411,0,0,1-1.769-3.159c-.239-.505-.463-1.011-.674-1.5C103.422,118.212,102.2,115.4,95.742,115.4Z" transform="translate(-81 -114)"/>
        </g>
        <g id="XMLID_732_" transform="translate(12.114 35.479)">
          <path id="XMLID_2834_" d="M161.888,255.812a1.79,1.79,0,0,1-1.39-.632,1.878,1.878,0,0,1-1.46.632c-1.867,0-2.71-2.19-2.738-2.275l1.32-.491c0,.014.548,1.376,1.432,1.376.7,0,.716-1.123.716-1.137a.7.7,0,0,1,.674-.688.687.687,0,0,1,.716.646c0,.014.126,1.179.73,1.179.688,0,1.306-.913,1.46-1.221l1.25.632c-.028.056-1.011,1.98-2.71,1.98Z" transform="translate(-156.3 -252.596)"/>
        </g>
        <g id="XMLID_1247_" transform="translate(0 0.014)">
          <path id="XMLID_2833_" d="M77.753,20.583A19.934,19.934,0,0,1,72.6,14.461C70.438,10.235,69.118,4.03,70.747,1.376A2.764,2.764,0,0,1,73.218,0c4.591,0,9.07,8.859,9.969,12.65a15.321,15.321,0,0,1,.239,4.479l-1.4-.1a13.947,13.947,0,0,0-.211-4.058C80.884,9.014,76.6,1.4,73.218,1.4a1.37,1.37,0,0,0-1.278.716C70.634,4.254,71.9,10,73.85,13.83a18.856,18.856,0,0,0,4.8,5.686Z" transform="translate(-70.019 0)"/>
        </g>
        <g id="XMLID_26_" transform="translate(0.531 3.131)">
          <path id="XMLID_2832_" d="M82.547,37.363c-.295-4.746-1.839-8.508-4.633-11.19A11,11,0,0,0,73.8,23.548l.393-1.348a12.577,12.577,0,0,1,4.633,2.906c2.12,2.022,4.717,5.771,5.111,12.173Z" transform="translate(-73.8 -22.2)"/>
        </g>
        <g id="XMLID_761_" transform="translate(19.077 0)">
          <path id="XMLID_2831_" d="M211.636,20.5l-.9-1.081a18.819,18.819,0,0,0,4.8-5.686c1.952-3.833,3.215-9.575,1.909-11.71a1.4,1.4,0,0,0-1.278-.716c-3.384,0-7.666,7.61-8.607,11.569a13.914,13.914,0,0,0-.211,4.058l-1.4.1a15.321,15.321,0,0,1,.239-4.479c.9-3.777,5.377-12.65,9.969-12.65a2.8,2.8,0,0,1,2.485,1.376c1.629,2.654.295,8.845-1.853,13.071A19.7,19.7,0,0,1,211.636,20.5Z" transform="translate(-205.892 0.1)"/>
        </g>
        <g id="XMLID_1533_" transform="translate(21.872 4.774)">
          <path id="XMLID_2830_" d="M227.2,47.421l-1.4-.084c.449-7.483,3.861-11.429,6.627-13.436l.814,1.137C230.728,36.862,227.625,40.485,227.2,47.421Z" transform="translate(-225.8 -33.9)"/>
        </g>
        <g id="XMLID_1671_" transform="translate(2.89 40.099)">
          <path id="XMLID_2829_" d="M125.967,317.3c-3.328,0-8.354,0-8.354-3.65a5.471,5.471,0,0,1,2.148-4.226l-1.151-.828c-4.2,5.054-7.287,8.7-15.234,8.7-2.794,0-4.366-.6-4.844-1.839s.435-2.654,1.151-3.51a18.719,18.719,0,0,1-4.058-2.7A14.02,14.02,0,0,1,90.6,298.487c0-8.565,3.145-12.819,3.271-12.987l1.123.842c-.028.042-2.991,4.086-2.991,12.145a12.469,12.469,0,0,0,4.521,9.688,16.768,16.768,0,0,0,4.605,2.892.731.731,0,0,1,.449.52.722.722,0,0,1-.211.646c-.772.7-1.783,2.05-1.516,2.724.084.225.59.941,3.538.941,7.343,0,10.095-3.313,14.265-8.326l.309-.365a.716.716,0,0,1,.955-.126l2.485,1.783a.716.716,0,0,1,.295.618.691.691,0,0,1-.379.576,4.384,4.384,0,0,0-2.289,3.594c0,1.867,2.654,2.246,6.95,2.246,2.443,0,5.195,0,6.88-3.819l1.278.562c-2.064,4.661-5.742,4.661-8.171,4.661Z" transform="translate(-90.6 -285.5)"/>
        </g>
        <g id="XMLID_1670_" transform="translate(29.931 32.405)">
          <path id="XMLID_2828_" d="M300.624,262.6l-1.376-.295a33.262,33.262,0,0,0,.632-7.034c0-7.1-4.507-13.043-8.284-16.792a46.345,46.345,0,0,0-8.4-6.557l.7-1.221a46.42,46.42,0,0,1,8.663,6.753c5.7,5.644,8.719,11.794,8.719,17.8a35.18,35.18,0,0,1-.66,7.343Z" transform="translate(-283.2 -230.7)"/>
        </g>
        <g id="XMLID_86_" transform="translate(27.214 48.705)">
          <path id="XMLID_2827_" d="M266.957,360.882a10.482,10.482,0,0,1-3.1-7.2,9.022,9.022,0,0,1,2.611-6.88l1,1a7.617,7.617,0,0,0-2.19,5.827,9.107,9.107,0,0,0,2.611,6.192Z" transform="translate(-263.847 -346.8)"/>
        </g>
        <g id="XMLID_84_" transform="translate(46.442 51.5)">
          <path id="XMLID_2826_" d="M402.457,376.421a4.909,4.909,0,0,1-1.053-.1l.281-1.376a3.745,3.745,0,0,0,2.682-.491,2.718,2.718,0,0,0,.814-2.19c0-2.2-.435-3.636-1.221-4.03s-1.98.239-2.331.505L400.8,367.6c.084-.056,2.078-1.488,3.791-.618,1.32.674,1.98,2.443,1.98,5.279a4.017,4.017,0,0,1-1.334,3.285A4.374,4.374,0,0,1,402.457,376.421Z" transform="translate(-400.8 -366.706)"/>
        </g>
        <g id="XMLID_359_" transform="translate(12.662 61.65)">
          <path id="XMLID_2825_" d="M161.239,444.139,160.2,443.2a34.556,34.556,0,0,1,5.349-4.2l.758,1.179A34.184,34.184,0,0,0,161.239,444.139Z" transform="translate(-160.2 -439)"/>
        </g>
        <g id="XMLID_798_" transform="translate(4.557 62.226)">
          <path id="XMLID_2822_" d="M113.644,452.774c-6.458,0-10.039-1.151-10.951-3.51-1.1-2.836,2.373-6.037,2.513-6.164l.941,1.039c-.814.744-2.766,3.019-2.148,4.619.379.983,2.064,2.611,9.646,2.611Zm-7.5-8.635-.477-.52Z" transform="translate(-102.48 -443.1)"/>
        </g>
      </g>
    </g>
  </g>
</svg>
