<svg xmlns="http://www.w3.org/2000/svg" width="82" height="82" viewBox="0 0 82 82">
  <g id="Grupo_1189638" data-name="Grupo 1189638" transform="translate(-769.077 -1963)">
    <rect id="Rectángulo_402627" data-name="Rectángulo 402627" width="82" height="82" transform="translate(769.077 1963)" fill="none"/>
    <g id="Grupo_1189675" data-name="Grupo 1189675" transform="translate(764.749 1959.42)">
      <path id="Trazado_877666" data-name="Trazado 877666" d="M37.282,34.3a9.455,9.455,0,0,0-9.312,7.333,11.611,11.611,0,0,0,4.719,12.073c4.948,3.651,10.135,5.984,14.724,6.161a10.008,10.008,0,0,0,10.328-7.047,13.921,13.921,0,0,0,5.573-2.74,8.832,8.832,0,0,0,3.156-4.244,3.084,3.084,0,0,0-.229-2.355,3.187,3.187,0,0,0-2.136-1.417l-9.567-2.1a1.067,1.067,0,0,0-.339-.025,1.132,1.132,0,0,0-.147,2.239l9.563,2.1c.8.176.792.468.661.957a7.268,7.268,0,0,1-2.385,3.079c-2.629,2.131-6.719,3.547-10.156,1.547a1.133,1.133,0,1,0-1.14,1.953,9.3,9.3,0,0,0,4.593,1.265c-1.547,3.432-4.172,4.651-7.688,4.516-3.869-.151-8.76-2.256-13.463-5.729a9.241,9.241,0,0,1-3.865-9.7,7.027,7.027,0,0,1,7.109-5.609,1.133,1.133,0,1,0,0-2.264Z" fill-rule="evenodd"/>
      <path id="Trazado_877667" data-name="Trazado 877667" d="M37.09,65.81c2.135.833,4.5,1.459,6.733,2.5a4.428,4.428,0,0,1-2.219,1.7,2.636,2.636,0,0,1-2.76-.968,9.26,9.26,0,0,1-1.754-3.24Zm-18.3-39.782a4.444,4.444,0,0,1,1.146,4.365c-.291.807-.749,1.124-1.5.979A1.624,1.624,0,0,1,17.35,30.2a3.654,3.654,0,0,1,.719-3.427,3.823,3.823,0,0,1,.718-.745Zm-.9-4.755a2.236,2.236,0,0,1,.667,1.052,1.276,1.276,0,0,1-.2.973,9.453,9.453,0,0,0-3.12.656,4.424,4.424,0,0,1,.495-1.171A5.6,5.6,0,0,1,17.886,21.273Zm6.667-5.25a10.59,10.59,0,0,1,6.615,3.261c4.141,4.921,6.745,8.509,9.271,11.145a16.627,16.627,0,0,0,8.813,5.188c7.328,1.667,14.525.723,17.927-2.543s4.251-3.692,4.765-3.8.641,0,.771.145c.261.307.391,1.583-.791,2.76a1.133,1.133,0,0,0,1.093,1.9c1.249-.353,1.573-.02,1.563.511a7.4,7.4,0,0,1-2.251,4.1,1.136,1.136,0,0,0,1.376,1.781,1.316,1.316,0,0,1,.984-.24.747.747,0,0,1,.484.376,1.718,1.718,0,0,1-.489,2.047c-2.9,2.989-3.917,5.651-5.1,8.265a25.191,25.191,0,0,1-6.328,8.88,86.992,86.992,0,0,0-8.756,9.12c-1.229,1.427-3.359,2.021-5.448.109-4.156-3.8-9.375-4.416-12.416-5.885C29.673,59.783,25.132,56.434,22.377,53a16.02,16.02,0,0,1-3.683-10.985,19.832,19.832,0,0,1,2.661-9.557,6.891,6.891,0,0,0,.812-4.891,7.324,7.324,0,0,0-1.645-3.427,3.825,3.825,0,0,0,.281-2.1,4.393,4.393,0,0,0-1.371-2.672,4.433,4.433,0,0,1,4.251-3.333,6.149,6.149,0,0,1,.87,0Zm-1.192-5.37a2.186,2.186,0,0,0,.713.792,1.78,1.78,0,0,0,1.183.228,2.5,2.5,0,0,0,1.281-.719c.593-.473.848-.744,1.541-.561a2.163,2.163,0,0,1,1.411,1.943c.037.828-.26,1.609-1.719,2.072a10.661,10.661,0,0,0-3.093-.651,8.569,8.569,0,0,0-1.167.011,6.989,6.989,0,0,0-6.2,4.781,2.44,2.44,0,0,1-1.62-2.021,4.288,4.288,0,0,1,1.088-3.875c.516-.484.839-.339,1.355-.183.287.084.5.308.948.48a1.337,1.337,0,0,0,1.151-.016A1.452,1.452,0,0,0,21,11.819c.125-.943.385-1.469.907-1.729s1.259.225,1.458.563Zm-1.4-3.073c-1.683,0-2.375,1.323-2.812,2.865-.021-.011-.016-.011-.037-.021a3.667,3.667,0,0,0-1.739-.4,3.417,3.417,0,0,0-2.157.989,6.428,6.428,0,0,0-1.728,6.021,5.223,5.223,0,0,0,1.885,2.959,8.558,8.558,0,0,0-1.412,1.369,6.7,6.7,0,0,0-1.631,4.109,1.133,1.133,0,0,0,1.491,1.073c.708-.235,1.432-.5,2.156-.719a5.877,5.877,0,0,0-.776,5.1,3.967,3.967,0,0,0,2.62,2.62,2.952,2.952,0,0,0,.432.088,22.446,22.446,0,0,0-1.823,8.313A18.567,18.567,0,0,0,20.6,54.412c2.86,3.573,7.3,6.86,13.7,10.093a23.2,23.2,0,0,0,.828,2.573,9.945,9.945,0,0,0,2.135,3.6,5.823,5.823,0,0,0,2.876,1.579v6.281c0,.88-.537,1.541-2.043,1.541H34.792a1.134,1.134,0,1,0,0,2.265H38.1a4.057,4.057,0,0,0,4.313-3.807V72.129A6.81,6.81,0,0,0,45.828,69.4a12.855,12.855,0,0,1,1.7,1.3,6.53,6.53,0,0,0,2.6,1.479V78.4c0,.881-.588,1.677-2.047,1.677h-3.3a1.134,1.134,0,1,0,0,2.265h3.3a4.02,4.02,0,0,0,3.484-2.088l1.86,1.776A1.133,1.133,0,1,0,55,80.395l-2.6-2.484V72.38a5.9,5.9,0,0,0,3.823-1.989,83.434,83.434,0,0,1,8.6-8.953,27.942,27.942,0,0,0,6.833-9.584c1.219-2.7,2.036-4.921,4.661-7.625a3.9,3.9,0,0,0,.817-4.765,3.06,3.06,0,0,0-2.036-1.416c.713-1.152,1.733-2.281,1.755-3.412a2.876,2.876,0,0,0-1.224-2.525,1.487,1.487,0,0,0-1.145-.079c.687-1.459.9-2.973-.037-4.079a3.061,3.061,0,0,0-2.952-.9c-1.136.233-2.3.943-5.5,4.015S56.6,34.959,49.757,33.4A13.879,13.879,0,0,1,42.08,28.86c-2.365-2.464-4.923-6.14-9.229-11.1a12.37,12.37,0,0,0-2.667-2.151A4.269,4.269,0,0,0,28.673,8.2a4.443,4.443,0,0,0-3.7,1.115A3.688,3.688,0,0,0,21.959,7.58Z"/>
      <path id="Trazado_877668" data-name="Trazado 877668" d="M24.866,18.153a2.115,2.115,0,1,1-2.109,2.115A2.116,2.116,0,0,1,24.866,18.153Z" fill-rule="evenodd"/>
    </g>
  </g>
</svg>
