<svg id="Grupo_1189639" data-name="Grupo 1189639" xmlns="http://www.w3.org/2000/svg" width="82" height="82" viewBox="0 0 82 82">
  <rect id="Rectángulo_402627" data-name="Rectángulo 402627" width="82" height="82" fill="none"/>
  <g id="Grupo_1189676" data-name="Grupo 1189676" transform="translate(14.19 8)">
    <path id="Trazado_877669" data-name="Trazado 877669" d="M65.183,8.9a8.423,8.423,0,0,1,5.5-4.192A6.812,6.812,0,0,1,77.154,0h.788a9.285,9.285,0,0,1,9.274,9.274V13.51a4.205,4.205,0,0,0,3.538,4.163,5.116,5.116,0,0,1,2.538-1.105,20.775,20.775,0,0,1,23.408,17.7.974.974,0,1,1-1.929.268A18.824,18.824,0,0,0,93.56,18.5,3.184,3.184,0,0,0,91,22.723l.006.016.724,2.144a.974.974,0,1,1-1.845.623l-.722-2.136a5.107,5.107,0,0,1,.255-4.031,6.15,6.15,0,0,1-4.149-5.83V9.274a7.335,7.335,0,0,0-7.327-7.327h-.788A4.859,4.859,0,0,0,72.3,6.8V8.238a3.421,3.421,0,0,0,3.417,3.417,4.212,4.212,0,0,1,4.207,4.207v.854a.974.974,0,1,1-1.948,0v-.854a2.262,2.262,0,0,0-2.26-2.26,5.348,5.348,0,0,1-3.862-1.647l-5.378-.643A1.675,1.675,0,0,1,65.183,8.9Zm5.416.947a5.347,5.347,0,0,1-.246-1.606V6.862a6.267,6.267,0,0,0-3.242,2.564Z" transform="translate(-65.006 0)"/>
    <path id="Trazado_877670" data-name="Trazado 877670" d="M366.215,40.182a.974.974,0,1,1,.974.974A.974.974,0,0,1,366.215,40.182Z" transform="translate(-355.568 -34.117)"/>
    <path id="Trazado_877671" data-name="Trazado 877671" d="M134.943,192.523a.974.974,0,0,1,1.244.591l.933,2.621a.974.974,0,1,1-1.835.653l-.933-2.621A.974.974,0,0,1,134.943,192.523Z" transform="translate(-94.469 -167.477)"/>
    <path id="Trazado_877672" data-name="Trazado 877672" d="M196.84,173.389a.974.974,0,0,1-.917-.648l-.932-2.621a.974.974,0,0,1,1.835-.653l.932,2.621a.974.974,0,0,1-.918,1.3Z" transform="translate(-162.98 -146.901)"/>
    <path id="Trazado_877673" data-name="Trazado 877673" d="M173.959,228.866a.974.974,0,0,1-.917-.648l-.932-2.621a.974.974,0,0,1,1.835-.653l.932,2.621a.974.974,0,0,1-.918,1.3Z" transform="translate(-137.128 -195.174)"/>
    <path id="Trazado_877674" data-name="Trazado 877674" d="M98.686,249.053a.974.974,0,0,1-.917-.648l-.932-2.621a.974.974,0,1,1,1.835-.653l.932,2.621a.974.974,0,0,1-.918,1.3Z" transform="translate(-52.082 -212.741)"/>
    <path id="Trazado_877675" data-name="Trazado 877675" d="M139.778,277.908l.932,2.621a.974.974,0,1,1-1.835.653l-.932-2.621a.974.974,0,1,1,1.835-.653Z" transform="translate(-98.526 -241.261)"/>
    <path id="Trazado_877676" data-name="Trazado 877676" d="M88.919,327.837l.932,2.621a.974.974,0,1,1-1.835.653l-.932-2.621a.974.974,0,0,1,1.835-.653Z" transform="translate(-41.064 -284.708)"/>
    <path id="Trazado_877677" data-name="Trazado 877677" d="M77.233,184.959a20.783,20.783,0,0,0,7.383,1.36,20.524,20.524,0,0,0,2.826-.195,2.525,2.525,0,0,0,2.153-2.848L88.1,172.54a.974.974,0,1,0-1.929.268l1.491,10.737a.577.577,0,0,1-.492.651,18.725,18.725,0,0,1-20.2-12.23l-3.08-9.117a.974.974,0,1,0-1.845.623l3.083,9.126.006.016A20.736,20.736,0,0,0,73.4,183.025H71.15A20.444,20.444,0,0,1,50.728,162.6v-7.7a.974.974,0,0,0-1.948,0v7.7a22.359,22.359,0,0,0,9.666,18.4l.719,4.621-2,6.8-2.02,2.405H53.35a.974.974,0,1,0,0,1.948H55.6a.973.973,0,0,0,.746-.348l1.7-2.021,1.7,2.021a.974.974,0,0,0,.746.348h2.248a.974.974,0,1,0,0-1.948H60.937l-1.815-2.161,1.973-6.706a.976.976,0,0,0,.028-.425l-.5-3.206a22.2,22.2,0,0,0,7.494,2.429l.317,2.225-2.349,9.091-2.008,2.392H62.284a.974.974,0,1,0,0,1.948h2.248a.973.973,0,0,0,.746-.348l1.7-2.021,1.7,2.021a.974.974,0,0,0,.746.348h2.248a.974.974,0,1,0,0-1.948H69.871L68.043,196.3l2.327-9.007a.973.973,0,0,0,.021-.381l-.279-1.962Z" transform="translate(-35.809 -133.944)"/>
  </g>
</svg>
