<svg xmlns="http://www.w3.org/2000/svg" width="82" height="82" viewBox="0 0 82 82">
  <g id="Grupo_1189640" data-name="Grupo 1189640" transform="translate(-769.077 -1963)">
    <rect id="Rectángulo_402627" data-name="Rectángulo 402627" width="82" height="82" transform="translate(769.077 1963)" fill="none"/>
    <g id="Grupo_1189677" data-name="Grupo 1189677" transform="translate(767.081 1940.086)">
      <path id="Trazado_877678" data-name="Trazado 877678" d="M75.489,39.144A22.079,22.079,0,0,0,57.125,34.3a26.079,26.079,0,0,0-4.088,1.107c-7.837.2-12.661,3.308-15.331,5.886a17.576,17.576,0,0,0-3.856,5.367c-3.74,1.372-6.073,4.93-7.41,6.973A28.434,28.434,0,0,1,23.307,57.6L11.927,69.617a7,7,0,0,0-1.884,3.926,4.482,4.482,0,0,0,1.011,3.7c.063.068.129.133.2.2A5.274,5.274,0,0,0,13.142,80.6a7.061,7.061,0,0,0,4.509,1.355,14.427,14.427,0,0,0,2.424-.222c.225-.034,3.055-.464,5.9-1.194.078.261.147.486.207.683.437,1.427.494,1.61.957,6.119a.8.8,0,0,0,.793.722.824.824,0,0,0,.692-.385l.809-1.243.488,3.385a.8.8,0,0,0,1.479.308,18.091,18.091,0,0,0,1.737-4.013,10.646,10.646,0,0,0,.007-6.893l5.93-.6c.023.069.046.138.07.206a5.239,5.239,0,0,1-.288,4.772,1.936,1.936,0,0,0-.107,1.9,1.974,1.974,0,0,0,1.585,1.112,12.806,12.806,0,0,0,2.667-.006l.75,2.622.005.018a5.909,5.909,0,0,0,8.274,3.54L69.4,84.151a5.911,5.911,0,0,0,1.606-9.416l-12.555-12.9a17.528,17.528,0,0,0-5.591-12.015,18.3,18.3,0,0,0-4.08-2.858,25.792,25.792,0,0,1,6.144-4.135c.162-.079.329-.157.5-.235a36.036,36.036,0,0,1,5.2-.3c3.849.053,7.029.746,9.2,2a.8.8,0,0,0,1.013-.172.837.837,0,0,0,.111-.882,8.526,8.526,0,0,0-2.422-3.11,32.507,32.507,0,0,1,6,.872,1.1,1.1,0,0,0,1.248-.542,1.059,1.059,0,0,0-.287-1.316ZM38.881,42.4a19.047,19.047,0,0,1,9.52-4.86,33.134,33.134,0,0,0-2.9,1.835,24.559,24.559,0,0,0-6.191,5.981,9.958,9.958,0,0,0-1.828.421,8.925,8.925,0,0,1-1.569.385A16.972,16.972,0,0,1,38.881,42.4ZM11.629,74.731a4.215,4.215,0,0,1,.01-.994,5.183,5.183,0,0,1,.66-1.946,1.478,1.478,0,0,1,1.034-.393c.308.061.557.409.712.689a.581.581,0,0,1,.04.475.532.532,0,0,1-.3.32A4.911,4.911,0,0,0,11.629,74.731ZM31.141,86.98l-.416-2.89a.8.8,0,0,0-1.469-.324L28.5,84.921a17.092,17.092,0,0,0-.781-4.173c-.057-.186-.122-.4-.194-.641a18.191,18.191,0,0,1,3.274-.65l.672-.068c1.21,2.516.464,5.552-.334,7.591ZM51.772,51a15.815,15.815,0,0,1,5.1,11.223c.114,2.289,1.2,4.153,2.36,6.127a25.936,25.936,0,0,1,2.714,5.763.8.8,0,0,0,.769.571.814.814,0,0,0,.331-.071.826.826,0,0,0,.429-1,27.332,27.332,0,0,0-2.855-6.076,27.788,27.788,0,0,1-1.425-2.643L69.8,75.8a4.386,4.386,0,0,1,1.227,3.69,4.263,4.263,0,0,1-2.342,3.221L51.32,91.339A4.3,4.3,0,0,1,45.3,88.77l-.7-2.444a13.682,13.682,0,0,0,7.818-5.378,10.315,10.315,0,0,0,2-7.484,17.836,17.836,0,0,1,.472-7.522c1.708-4.934-.543-7.734-.639-7.851A.8.8,0,0,0,53,59.109c.073.091,1.76,2.271.363,6.306a19.408,19.408,0,0,0-.549,8.24,8.715,8.715,0,0,1-1.684,6.324c-3.726,4.941-8.26,5.27-10.631,5.027a.374.374,0,0,1-.3-.213.332.332,0,0,1,.016-.332,6.785,6.785,0,0,0,.446-6.176c-1.564-4.378.376-12.6,1.614-14.9a13.211,13.211,0,0,1,3.173-4.136.8.8,0,1,0-.941-1.3,14.368,14.368,0,0,0-3.646,4.677c-1.165,2.164-3.055,9.291-2.17,14.416l-8.051.814a19.834,19.834,0,0,0-3.667.737,61.189,61.189,0,0,1-7.144,1.547l-.018,0c-2.524.433-4.425.168-5.65-.789a3.582,3.582,0,0,1-.807-.88,5.94,5.94,0,0,0,1.131.105q.139,0,.281-.006a17.392,17.392,0,0,0,4.167-1.285,7.008,7.008,0,0,1,3.98-.96.808.808,0,0,0,.2-1.6,8.721,8.721,0,0,0-4.895,1.123,16.986,16.986,0,0,1-3.52,1.12,3.34,3.34,0,0,1-2.184-.561,3.994,3.994,0,0,1,1.866-2.036A2.146,2.146,0,0,0,15.6,73.1a2.19,2.19,0,0,0-.149-1.789,2.816,2.816,0,0,0-1.564-1.423l10.587-11.18a30.048,30.048,0,0,0,3.31-4.19c1.955-2.985,4.36-6.213,8.189-6.739a10.559,10.559,0,0,0,2.038-.486,8.065,8.065,0,0,1,4.429-.2,13.4,13.4,0,0,0,3.012.719L47.2,48a15.9,15.9,0,0,1,4.575,3Zm9.449-10.31a28.3,28.3,0,0,1,4.349-.558,9.679,9.679,0,0,1,2.319,1.583,24.885,24.885,0,0,0-6.668-1.025Zm-7.066.727A26.191,26.191,0,0,0,47.08,46.37l-1.451-.161a11.833,11.833,0,0,1-2.653-.636,6.076,6.076,0,0,0-1.611-.307,29.13,29.13,0,0,1,16.05-9.382,20.153,20.153,0,0,1,15.05,3.058A29.948,29.948,0,0,0,54.156,41.414Z" transform="translate(0)"/>
      <path id="Trazado_877679" data-name="Trazado 877679" d="M187.229,212.245a2.086,2.086,0,1,0,2.086,2.086A2.086,2.086,0,0,0,187.229,212.245Zm0,2.565a.479.479,0,1,1,.479-.479A.479.479,0,0,1,187.229,214.81Z" transform="translate(-151.689 -154.446)"/>
    </g>
  </g>
</svg>
