<svg xmlns="http://www.w3.org/2000/svg" width="82" height="82" viewBox="0 0 82 82">
  <g id="Grupo_1189641" data-name="Grupo 1189641" transform="translate(-769.077 -1963)">
    <rect id="Rectángulo_402627" data-name="Rectángulo 402627" width="82" height="82" transform="translate(769.077 1963)" fill="none"/>
    <g id="Grupo_1189678" data-name="Grupo 1189678" transform="translate(777.077 1973)">
      <path id="Trazado_877680" data-name="Trazado 877680" d="M60.961,31.32A6.026,6.026,0,0,0,62.408,28a6.028,6.028,0,0,0-1.447-3.324A6.073,6.073,0,0,1,59.9,22.755a6.242,6.242,0,0,1,.166-2.257A5.88,5.88,0,0,0,60,16.944a5.914,5.914,0,0,0-2.65-2.386,6.136,6.136,0,0,1-1.8-1.348,6.089,6.089,0,0,1-.746-2.113,5.96,5.96,0,0,0-1.478-3.244A5.934,5.934,0,0,0,50.007,6.7,6.12,6.12,0,0,1,47.8,6.133a6,6,0,0,1-1.478-1.675A6,6,0,0,0,43.739,2a5.924,5.924,0,0,0-3.486.141,6.142,6.142,0,0,1-2.289.278A5.921,5.921,0,0,1,36,1.386,6.151,6.151,0,0,0,32.7,0a6.139,6.139,0,0,0-3.295,1.384,5.921,5.921,0,0,1-1.964,1.031,6.15,6.15,0,0,1-2.289-.278A5.926,5.926,0,0,0,21.67,2a6.026,6.026,0,0,0-2.581,2.461,6.011,6.011,0,0,1-1.477,1.675A6.123,6.123,0,0,1,15.4,6.7a5.93,5.93,0,0,0-3.325,1.155A5.957,5.957,0,0,0,10.6,11.095a6.1,6.1,0,0,1-.746,2.113,6.146,6.146,0,0,1-1.8,1.348A5.914,5.914,0,0,0,5.4,16.943,5.858,5.858,0,0,0,5.343,20.5a6.241,6.241,0,0,1,.167,2.256,6.1,6.1,0,0,1-1.063,1.918A6.038,6.038,0,0,0,3,28,6.031,6.031,0,0,0,4.447,31.32,6.087,6.087,0,0,1,5.51,33.238a6.243,6.243,0,0,1-.166,2.257A5.88,5.88,0,0,0,5.4,39.05a5.917,5.917,0,0,0,2.65,2.386,6.144,6.144,0,0,1,1.8,1.348A6.1,6.1,0,0,1,10.6,44.9a5.96,5.96,0,0,0,1.478,3.244,4.6,4.6,0,0,0,2.368,1.007v8.919A4.266,4.266,0,0,0,18.7,62.33h.974a4.266,4.266,0,0,0,4.261-4.261V54.117c.407-.069.814-.164,1.217-.26a6.145,6.145,0,0,1,2.289-.279,5.914,5.914,0,0,1,1.964,1.03,6.141,6.141,0,0,0,3.3,1.385A6.14,6.14,0,0,0,36,54.609a5.921,5.921,0,0,1,1.964-1.03,6.129,6.129,0,0,1,2.289.279c.4.1.809.191,1.217.26v3.952A4.266,4.266,0,0,0,45.73,62.33H46.7a4.266,4.266,0,0,0,4.261-4.261v-8.92a4.6,4.6,0,0,0,2.368-1.007A5.957,5.957,0,0,0,54.81,44.9a6.1,6.1,0,0,1,.746-2.114,6.149,6.149,0,0,1,1.8-1.348A5.919,5.919,0,0,0,60,39.051a5.858,5.858,0,0,0,.061-3.555,6.244,6.244,0,0,1-.167-2.257,6.087,6.087,0,0,1,1.063-1.919ZM19.678,60.626H18.7a2.559,2.559,0,0,1-2.556-2.556V49.411a4.216,4.216,0,0,1,1.464.451,6,6,0,0,1,1.478,1.675A6,6,0,0,0,21.671,54a3.194,3.194,0,0,0,.566.15v3.921a2.559,2.559,0,0,1-2.558,2.556Zm27.026,0H45.73a2.559,2.559,0,0,1-2.556-2.556V54.147A3.245,3.245,0,0,0,43.739,54a6.026,6.026,0,0,0,2.581-2.461A6,6,0,0,1,47.8,49.862a4.221,4.221,0,0,1,1.463-.453v8.658A2.559,2.559,0,0,1,46.7,60.626ZM59.567,30.337a7.327,7.327,0,0,0-1.335,2.537,7.482,7.482,0,0,0,.156,2.929,4.7,4.7,0,0,1,.064,2.537,4.729,4.729,0,0,1-1.966,1.628,7.38,7.38,0,0,0-2.3,1.8,7.337,7.337,0,0,0-1.033,2.737,4.767,4.767,0,0,1-.965,2.37,4.759,4.759,0,0,1-2.413.728,7.364,7.364,0,0,0-2.863.8,7.234,7.234,0,0,0-1.986,2.151A4.817,4.817,0,0,1,43.138,52.4a2.014,2.014,0,0,1-.788.1c-.01,0-.019,0-.028,0h-.014a9.847,9.847,0,0,1-1.658-.3,7.348,7.348,0,0,0-2.988-.3,7.139,7.139,0,0,0-2.617,1.295,4.839,4.839,0,0,1-2.34,1.093,4.841,4.841,0,0,1-2.341-1.093A7.137,7.137,0,0,0,27.747,51.9a4.064,4.064,0,0,0-.724-.062,9.917,9.917,0,0,0-2.265.359,9.872,9.872,0,0,1-1.656.3h-.014a.114.114,0,0,0-.029,0,2.016,2.016,0,0,1-.788-.1,4.812,4.812,0,0,1-1.786-1.846A7.24,7.24,0,0,0,18.5,48.4a7.381,7.381,0,0,0-2.863-.8,4.748,4.748,0,0,1-2.413-.728,4.763,4.763,0,0,1-.966-2.37,7.339,7.339,0,0,0-1.033-2.737,7.392,7.392,0,0,0-2.3-1.8,4.726,4.726,0,0,1-1.966-1.628A4.668,4.668,0,0,1,7.019,35.8a7.492,7.492,0,0,0,.156-2.929,7.315,7.315,0,0,0-1.334-2.537A4.726,4.726,0,0,1,4.7,28a4.741,4.741,0,0,1,1.137-2.343,7.325,7.325,0,0,0,1.335-2.537,7.483,7.483,0,0,0-.156-2.929,4.7,4.7,0,0,1-.064-2.537,4.725,4.725,0,0,1,1.966-1.628,7.375,7.375,0,0,0,2.3-1.805,7.338,7.338,0,0,0,1.033-2.736,4.771,4.771,0,0,1,.965-2.37,4.754,4.754,0,0,1,2.413-.727,7.381,7.381,0,0,0,2.863-.8,7.24,7.24,0,0,0,1.986-2.151,4.819,4.819,0,0,1,1.786-1.846,4.755,4.755,0,0,1,2.488.2,7.379,7.379,0,0,0,2.988.3,7.148,7.148,0,0,0,2.617-1.3A4.854,4.854,0,0,1,32.7,1.7,4.836,4.836,0,0,1,35.045,2.8,7.152,7.152,0,0,0,37.661,4.09a7.366,7.366,0,0,0,2.988-.3,4.764,4.764,0,0,1,2.488-.2,4.812,4.812,0,0,1,1.786,1.846,7.24,7.24,0,0,0,1.986,2.151,7.381,7.381,0,0,0,2.863.8,4.75,4.75,0,0,1,2.413.728,4.772,4.772,0,0,1,.966,2.37,7.34,7.34,0,0,0,1.033,2.736,7.391,7.391,0,0,0,2.3,1.8,4.726,4.726,0,0,1,1.966,1.628,4.668,4.668,0,0,1-.064,2.537,7.492,7.492,0,0,0-.156,2.929,7.311,7.311,0,0,0,1.334,2.537A4.731,4.731,0,0,1,60.7,27.994,4.733,4.733,0,0,1,59.567,30.337Z"/>
      <path id="Trazado_877681" data-name="Trazado 877681" d="M70.341,57.7l-1.753-.177a.852.852,0,0,0-.17,1.694l1.753.177c.029,0,.058,0,.087,0a.852.852,0,0,0,.084-1.7Z" transform="translate(-33.191 -29.51)"/>
      <path id="Trazado_877682" data-name="Trazado 877682" d="M55.808,57.517l-1.753.177a.852.852,0,0,0,.084,1.7.575.575,0,0,0,.087,0l1.753-.177a.852.852,0,1,0-.171-1.7Z" transform="translate(-25.798 -29.507)"/>
      <path id="Trazado_877683" data-name="Trazado 877683" d="M62.474,47.936,55.6,44.619a9.886,9.886,0,0,0,.73-.966,5.081,5.081,0,0,1,.647-.828.853.853,0,0,0-1.143-1.266,6.293,6.293,0,0,0-.911,1.129,3.63,3.63,0,0,1-1.289,1.35l-.03.014a3.558,3.558,0,0,1-1.445.059,6.54,6.54,0,0,0-2.041.068,5.662,5.662,0,0,0-1.688.832,3.888,3.888,0,0,1-1.49.7,3.75,3.75,0,0,1-1.457-.333,6.07,6.07,0,0,0-2-.454,6.07,6.07,0,0,0-2,.454,3.742,3.742,0,0,1-1.457.333,3.888,3.888,0,0,1-1.49-.7,5.667,5.667,0,0,0-1.688-.832,6.541,6.541,0,0,0-2.041-.068,3.561,3.561,0,0,1-1.446-.06l-.03-.014a3.625,3.625,0,0,1-1.288-1.35,6.293,6.293,0,0,0-.909-1.128.853.853,0,1,0-1.143,1.266,5.081,5.081,0,0,1,.647.828,9.9,9.9,0,0,0,.73.966l-6.878,3.316A.853.853,0,0,0,24,48.7a4.417,4.417,0,0,0,6.344,3.984L34.1,50.873v2.386a9.374,9.374,0,1,0,18.748,0V50.873l3.761,1.814A4.423,4.423,0,0,0,62.956,48.7.853.853,0,0,0,62.474,47.936ZM29.6,51.149a2.719,2.719,0,0,1-3.852-1.934l7.235-3.489a3.823,3.823,0,0,0,1.12.129v3.126ZM44.33,60.88V58.812c1.555-.232,2.648-1.09,2.648-2.179a.863.863,0,0,0-.85-.867.839.839,0,0,0-.85.838,2.3,2.3,0,0,1-1.8.567,2.443,2.443,0,0,1-1.8-.538.852.852,0,0,0-1.7,0c0,1.088,1.092,1.948,2.648,2.179V60.88a7.679,7.679,0,0,1-6.817-7.619v-7.49a2.824,2.824,0,0,1,.63.065,4.444,4.444,0,0,1,1.169.611,5.242,5.242,0,0,0,2.225.96,4.973,4.973,0,0,0,2.212-.42,4.7,4.7,0,0,1,1.435-.355,4.7,4.7,0,0,1,1.435.356,5.719,5.719,0,0,0,1.9.438,2.843,2.843,0,0,0,.313-.017,5.242,5.242,0,0,0,2.222-.962,4.449,4.449,0,0,1,1.169-.611,2.859,2.859,0,0,1,.633-.065v7.489A7.679,7.679,0,0,1,44.33,60.88Zm15.649-9.875a2.7,2.7,0,0,1-2.627.146l-4.5-2.171V45.855a3.829,3.829,0,0,0,1.12-.13l7.231,3.49a2.7,2.7,0,0,1-1.224,1.79Z" transform="translate(-10.774 -21.209)"/>
    </g>
  </g>
</svg>
