<svg xmlns="http://www.w3.org/2000/svg" width="505" height="319.62" viewBox="0 0 505 319.62">
  <g id="Grupo_1189102" data-name="Grupo 1189102" transform="translate(3172.764 6935)">
    <g id="IMAGEN" transform="translate(-3172.764 -6935)">
      <rect id="Rectángulo_402607" data-name="Rectángulo 402607" width="44" height="153.182" rx="12" transform="translate(461 63.93)" fill="#26c790"/>
      <path id="Rectángulo_402599" data-name="Rectángulo 402599" d="M0,0H74.42a0,0,0,0,1,0,0V.61A74.42,74.42,0,0,1,0,75.03H0a0,0,0,0,1,0,0V0A0,0,0,0,1,0,0Z" transform="translate(0 76.444)" fill="#fdbab3"/>
      <path id="Rectángulo_402630" data-name="Rectángulo 402630" d="M74.42,0h0a0,0,0,0,1,0,0V75.03a0,0,0,0,1,0,0H0a0,0,0,0,1,0,0v-.61A74.42,74.42,0,0,1,74.42,0Z" transform="translate(356.16 238.489)" fill="#fff"/>
      <g id="Grupo_1188572" data-name="Grupo 1188572" transform="translate(18886.764 8877.698)">
        <path id="Rectángulo_402597" data-name="Rectángulo 402597" d="M74.42,0h0a0,0,0,0,1,0,0V75.03a0,0,0,0,1,0,0H0a0,0,0,0,1,0,0v-.61A74.42,74.42,0,0,1,74.42,0Z" transform="translate(-18456.184 -8714.241)" fill="#fdbab3"/>
        <g id="Grupo_1188466" data-name="Grupo 1188466" transform="translate(-18395.285 -8653.132) rotate(-90)">
          <path id="Trazado_874773" data-name="Trazado 874773" d="M.737,1.112c.469,0,.785.412,1.249,1.089A3,3,0,0,0,4.546,3.893,3,3,0,0,0,7.105,2.2c.464-.678.78-1.089,1.249-1.089S9.14,1.524,9.6,2.2a3,3,0,0,0,2.56,1.691A3,3,0,0,0,14.723,2.2c.464-.678.78-1.089,1.249-1.089s.785.412,1.249,1.089a3,3,0,0,0,2.56,1.691A3,3,0,0,0,22.341,2.2c.464-.678.78-1.089,1.249-1.089s.785.412,1.249,1.089A3,3,0,0,0,27.4,3.893,3,3,0,0,0,29.957,2.2c.464-.678.78-1.089,1.249-1.089s.786.412,1.25,1.089a2.783,2.783,0,0,0,5.12,0c.464-.678.78-1.089,1.249-1.089s.786.412,1.251,1.09a2.785,2.785,0,0,0,5.122,0c.465-.678.781-1.09,1.251-1.09.407,0,.737-.249.737-.556S46.857,0,46.45,0a3.006,3.006,0,0,0-2.561,1.691c-.465.678-.781,1.09-1.251,1.09s-.786-.412-1.251-1.089a2.784,2.784,0,0,0-5.121,0c-.464.678-.78,1.089-1.25,1.089s-.786-.412-1.25-1.089a2.783,2.783,0,0,0-5.12,0c-.464.678-.78,1.089-1.25,1.089s-.785-.412-1.249-1.089A3,3,0,0,0,23.59,0a3,3,0,0,0-2.559,1.691c-.464.678-.78,1.089-1.249,1.089S19,2.369,18.532,1.691A3,3,0,0,0,15.973,0a3,3,0,0,0-2.56,1.691c-.464.678-.78,1.089-1.249,1.089s-.785-.412-1.25-1.089A3,3,0,0,0,8.354,0a3,3,0,0,0-2.56,1.691c-.464.678-.78,1.089-1.249,1.089S3.761,2.369,3.3,1.691A3,3,0,0,0,.737,0C.33,0,0,.249,0,.556S.33,1.112.737,1.112Z" transform="translate(0 0)" fill="#fff"/>
        </g>
      </g>
      <g id="Grupo_1188480" data-name="Grupo 1188480" transform="translate(15.436 24.708)">
        <rect id="Rectángulo_402596" data-name="Rectángulo 402596" width="428.286" height="41" transform="translate(13.001 226.625)" fill="#12263f" opacity="0.407"/>
        <g id="Grupo_1099339" data-name="Grupo 1099339" transform="translate(0 0)">
          <g id="primer-plano-de-conejillos-de-indias" fill="#fef0ef" stroke="#1944b6" stroke-width="5">
            <rect width="474.129" height="267.625" rx="14" stroke="none"/>
            <rect x="2.5" y="2.5" width="469.129" height="262.625" rx="11.5" fill="none"/>
          </g>
        </g>
      </g>
      <g id="Grupo_1188479" data-name="Grupo 1188479" transform="translate(430.58 238.489)">
        <path id="Rectángulo_402596-2" data-name="Rectángulo 402596" d="M74.42,0h0a0,0,0,0,1,0,0V65.6a9.427,9.427,0,0,1-9.427,9.427H0a0,0,0,0,1,0,0v-.61A74.42,74.42,0,0,1,74.42,0Z" transform="translate(0)" fill="#fdaa30"/>
        <g id="Grupo_1188461" data-name="Grupo 1188461" transform="translate(27.104 28.144)">
          <path id="Trazado_874753" data-name="Trazado 874753" d="M32.106,4.606,27.958.458a1.622,1.622,0,0,0-2.259,0,1.633,1.633,0,0,0-.1,2.361l.823.823L24.041,6.02l-2-2a1.1,1.1,0,0,0-1.549,0L19,5.517a1.123,1.123,0,0,0,.045,1.593L3.791,22.366a1.493,1.493,0,0,0-.134,1.955l.058,1.872a2.727,2.727,0,0,0,.5,1.486L.157,31.733a.477.477,0,0,0,.674.674l4.054-4.054a2.727,2.727,0,0,0,1.486.5l1.872.058a1.492,1.492,0,0,0,1.955-.134L22.205,16.766a.477.477,0,0,0-.674-.674l-2.137,2.137L14.336,13.17l1.27-1.27,1.512,1.512a.477.477,0,1,0,.674-.674L16.28,11.226,17.5,10l1.512,1.512a.477.477,0,1,0,.674-.674L18.179,9.327l1.543-1.543,5.058,5.058-1.671,1.671a.477.477,0,1,0,.674.674l1.671-1.671a1.119,1.119,0,0,0,1.593.045l1.494-1.494a1.121,1.121,0,0,0,0-1.549l-2-2L27.68,7.387a.477.477,0,0,0-.674-.674L25.87,7.848,24.716,6.694l2.379-2.379,2.651,2.651a1.6,1.6,0,0,0,2.259,0,1.635,1.635,0,0,0,.1-2.361ZM9.524,28.1a.537.537,0,0,1-.76,0,.477.477,0,0,0-.322-.139L6.4,27.9a1.792,1.792,0,0,1-1.732-1.732l-.064-2.04a.477.477,0,0,0-.139-.322.538.538,0,0,1,0-.76l.965-.965,5.058,5.058Zm9.2-9.2-7.557,7.557L6.1,21.4l5.755-5.755,1.512,1.512a.477.477,0,1,0,.674-.674l-1.512-1.512,1.127-1.127Zm9.188-7.609a.138.138,0,0,1-.041.1l-1.494,1.494a.141.141,0,0,1-.2,0l-6.5-6.5c0-.04-.085-.026,0-.2L21.171,4.7c.038.009-.007-.089.2,0l6.5,6.5A.139.139,0,0,1,27.908,11.294Zm3.524-5.1-.1.1a.644.644,0,0,1-.91,0L26.272,2.144a.686.686,0,0,1,.1-1.012.664.664,0,0,1,.91,0L31.432,5.28A.644.644,0,0,1,31.432,6.19Z" transform="translate(-0.017 0)" fill="#12263f"/>
          <path id="Trazado_874754" data-name="Trazado 874754" d="M130.182,114.5a.477.477,0,0,0,.674-.674l-1.1-1.1a.477.477,0,0,0-.674.674Z" transform="translate(-120.739 -105.425)" fill="#12263f"/>
          <path id="Trazado_874755" data-name="Trazado 874755" d="M184.243,86.671a.477.477,0,0,0,.477-.477V84.425a.477.477,0,1,0-.954,0v1.769A.477.477,0,0,0,184.243,86.671Z" transform="translate(-172.082 -78.61)" fill="#12263f"/>
          <path id="Trazado_874756" data-name="Trazado 874756" d="M101.047,168.1h1.769a.477.477,0,0,0,0-.954h-1.769a.477.477,0,0,0,0,.954Z" transform="translate(-94.176 -156.518)" fill="#12263f"/>
          <ellipse id="Elipse_11492" data-name="Elipse 11492" cx="0.489" cy="0.489" rx="0.489" ry="0.489" transform="translate(11.146 22.744)" fill="#12263f"/>
          <ellipse id="Elipse_11493" data-name="Elipse 11493" cx="0.489" cy="0.489" rx="0.489" ry="0.489" transform="translate(12.767 21.174)" fill="#12263f"/>
        </g>
        <path id="Trazado_874772" data-name="Trazado 874772" d="M9.41,4.091a.781.781,0,0,1,.71.343,1.375,1.375,0,0,1,.22.759,1.259,1.259,0,0,1-.22.735.8.8,0,0,1-.71.318H6.276q0,1.126,0,2.008a8.854,8.854,0,0,1-.049,1.175.843.843,0,0,1-.343.735,1.224,1.224,0,0,1-1.469,0,.843.843,0,0,1-.343-.735V6.246H1.134a1.129,1.129,0,0,1-.906-.318.925.925,0,0,1-.22-.735A1.4,1.4,0,0,1,.35,4.434a.98.98,0,0,1,.784-.343H4.072V1.1A1.013,1.013,0,0,1,4.415.223,1.115,1.115,0,0,1,5.149,0a1.233,1.233,0,0,1,.735.318.98.98,0,0,1,.343.784,7.137,7.137,0,0,1,.049,1.077q0,.832,0,1.91Z" transform="translate(55.412 62.966) rotate(-43)" fill="#fff"/>
      </g>
      <g id="Grupo_1188575" data-name="Grupo 1188575" transform="translate(18609.916 8877.7)">
        <g id="Grupo_1188574" data-name="Grupo 1188574">
          <g id="Grupo_1188465" data-name="Grupo 1188465" transform="translate(-18609.916 -8639.212)">
            <path id="Rectángulo_402602" data-name="Rectángulo 402602" d="M0,0H74.42a0,0,0,0,1,0,0V75.03a0,0,0,0,1,0,0h0A74.42,74.42,0,0,1,0,.61V0A0,0,0,0,1,0,0Z" fill="#26c790"/>
            <g id="Grupo_1188464" data-name="Grupo 1188464" transform="translate(29.357 9.782)">
              <path id="Trazado_874763" data-name="Trazado 874763" d="M247.086,245.439a.431.431,0,0,1-.431.431h-.516a.431.431,0,0,1-.431-.431,2.823,2.823,0,0,1,.481-1.4,3.713,3.713,0,0,1,.339-.453c.136-.158.277-.336.42-.529a4.611,4.611,0,0,0,.89-2.467,38.633,38.633,0,0,0-.086-4.892.431.431,0,1,1,.859-.06,39.373,39.373,0,0,1,.087,5.005,5.471,5.471,0,0,1-1.057,2.927c-.155.209-.309.4-.458.577a2.9,2.9,0,0,0-.262.349,2.836,2.836,0,0,0-.26.517A.431.431,0,0,1,247.086,245.439Z" transform="translate(-240.779 -210.545)" fill="#fff"/>
              <path id="Trazado_874764" data-name="Trazado 874764" d="M104.484,260.107a.431.431,0,0,1-.431.431h-.893a.431.431,0,0,1-.329-.709,7.844,7.844,0,0,0,1.5-7.6.431.431,0,1,1,.825-.247,8.687,8.687,0,0,1-1.122,7.7h.017A.431.431,0,0,1,104.484,260.107Z" transform="translate(-82.226 -225.213)" fill="#fff"/>
              <path id="Trazado_874765" data-name="Trazado 874765" d="M167.974,176.362c.2.023.412.041.619.052a2.568,2.568,0,0,1,1.047.286.431.431,0,1,1-.4.764,1.708,1.708,0,0,0-.7-.19c-.222-.013-.447-.032-.666-.056a10.317,10.317,0,0,0-3.051.086c-.8,1.271-.922,3.921-.935,5.029a2.7,2.7,0,0,1-.49,1.536l-.008.008h0c-.011.017-.023.034-.035.05a9.3,9.3,0,0,0-.88,1.523.431.431,0,0,1-.393.256h-2.518a.431.431,0,0,1-.316-.723,10.549,10.549,0,0,0,1.092-1.474c.013-.02.024-.04.036-.061l.03-.051.015-.022a4.628,4.628,0,0,0,.63-2.074,28.913,28.913,0,0,0-.233-6.352c-1.759-1.212-2.8-3.455-3.1-6.672a.431.431,0,0,1,.858-.08,9,9,0,0,0,1.934,5.34,2.658,2.658,0,0,1,.057-.832.431.431,0,1,1,.836.209,3.213,3.213,0,0,0,.207,1.617c0,.011.006.022.01.034s.009.023.011.036a27.483,27.483,0,0,1,.282,6.75,5.5,5.5,0,0,1-.433,1.836h.1a.431.431,0,1,1,0,.862h-.563q-.281.437-.545.8h1.338a9.551,9.551,0,0,1,.855-1.432l.028-.042.008-.009a1.848,1.848,0,0,0,.326-1.04c.018-1.518.194-4.257,1.168-5.628a7.351,7.351,0,0,0,.5-1.1.431.431,0,0,1,.818.272c0,.014-.068.2-.191.488A11.79,11.79,0,0,1,167.974,176.362Z" transform="translate(-152.431 -150.384)" fill="#fff"/>
              <path id="Trazado_874766" data-name="Trazado 874766" d="M50.4,100.835a.431.431,0,0,1,.482-.148,3.787,3.787,0,0,1,2.447,1.991,3.358,3.358,0,0,1-.045,2.539.431.431,0,1,1-.781-.365,2.478,2.478,0,0,0,.033-1.837,2.4,2.4,0,0,0-1-1.09,3.679,3.679,0,0,1-1.058,3.314.431.431,0,0,1-.525.082c-.038-.022-3.845-2.089-10.051.032l-.023.007a13.955,13.955,0,0,1-3.229.463h-.031a3.4,3.4,0,0,1-2.628-1.238,12.339,12.339,0,0,1-1.912-3.161.431.431,0,0,1,.8-.323,11.467,11.467,0,0,0,1.778,2.935,2.539,2.539,0,0,0,1.964.926h.023a13.293,13.293,0,0,0,2.994-.428c5.6-1.908,9.337-.6,10.419-.12a2.6,2.6,0,0,0,.337-3.075A.431.431,0,0,1,50.4,100.835Z" transform="translate(-22.585 -90.469)" fill="#fff"/>
              <path id="Trazado_874767" data-name="Trazado 874767" d="M36.172,136.422a.431.431,0,0,1,.368.485,4.365,4.365,0,0,1-2.786,3.341,9,9,0,0,1-.784,3.975c-.964,2.392-.663,5.98-.489,7.413a2.752,2.752,0,0,1-.35,1.7,10.31,10.31,0,0,0-.927,2.381h0c-.243.89-.357,1.6-.358,1.611a.431.431,0,0,1-.426.363H27.61a.431.431,0,0,1-.366-.659,11.183,11.183,0,0,0,.828-1.595l0-.008a8.582,8.582,0,0,0-.39-7.7,10.516,10.516,0,0,1-1.481.625,6.37,6.37,0,0,1-4.4-.091,3.725,3.725,0,0,0-1.078-.242.431.431,0,1,1,.071-.859,4.585,4.585,0,0,1,1.328.3,5.506,5.506,0,0,0,3.8.075,8.644,8.644,0,0,0,1.673-.75.431.431,0,0,1,.573.113,9.3,9.3,0,0,1,.92,8.276h.311a.431.431,0,0,1,0,.862h-.656q-.179.4-.394.8h1.7c.06-.309.162-.788.312-1.338v0a11,11,0,0,1,1.014-2.588,1.86,1.86,0,0,0,.24-1.166c-.227-1.864-.457-5.362.548-7.847l.006-.014c.011-.023,1.029-2.332.668-3.809h0a6.462,6.462,0,0,0-.5-1.3.431.431,0,0,1,.76-.406,7.767,7.767,0,0,1,.444,1.035,3.491,3.491,0,0,0,2.139-2.608.431.431,0,0,1,.486-.369Z" transform="translate(-4.307 -122.373)" fill="#fff"/>
              <path id="Trazado_874768" data-name="Trazado 874768" d="M220.354,10.714a.98.98,0,0,1,.457.946A2.4,2.4,0,0,1,218.581,14a3.425,3.425,0,0,1-.954,2.491.98.98,0,0,0-.251.563l-.146,1.3a2.235,2.235,0,0,1-.16.616,3.7,3.7,0,0,1-1.79,3.89.431.431,0,0,1-.627-.283q-.048-.21-.1-.4c-.089.071-.174.135-.248.191a3.718,3.718,0,0,1-.96.528,3.565,3.565,0,0,1-.448.129.419.419,0,0,1-.09.01.433.433,0,0,1-.334-.7,2.668,2.668,0,0,0,.432-1.54,1.867,1.867,0,0,0-.032-.379,4.653,4.653,0,0,1-.015-1.775,2.254,2.254,0,0,1-.056-.312l-.125-1.239a.963.963,0,0,0-.185-.473,4.348,4.348,0,0,1-.944-2.75A2.654,2.654,0,0,1,210,13.5a2.582,2.582,0,0,1-1.1-1.888.985.985,0,0,1,1.49-.991,6.89,6.89,0,0,0,1.837.834,5,5,0,0,1,2.288-.854A4.112,4.112,0,0,0,213.4,8.077a4.182,4.182,0,0,0-2.319-1.116,6.309,6.309,0,0,1,1.555,3.054.431.431,0,0,1-.844.171A5.377,5.377,0,0,0,209.578,6.8.431.431,0,0,1,209.8,6h.029a5.679,5.679,0,0,1,4.186,1.47,5.018,5.018,0,0,1,1.369,3.132,4.423,4.423,0,0,1,1.58.485A6.347,6.347,0,0,1,218.638,7a4.01,4.01,0,0,0-2.6,1.444.431.431,0,1,1-.682-.527,5.409,5.409,0,0,1,4.546-1.88h.029a.431.431,0,0,1,.217.8,5.444,5.444,0,0,0-2.331,4.533,6.669,6.669,0,0,0,1.5-.663A.968.968,0,0,1,220.354,10.714Zm-6.566,10.976a8.144,8.144,0,0,0,.669-.551.431.431,0,0,1,.693.144,5.181,5.181,0,0,1,.185.51,2.624,2.624,0,0,0,.9-1.815,2.228,2.228,0,0,1-2.567-.091c.013.125.031.254.055.387a2.709,2.709,0,0,1,.045.552,4.484,4.484,0,0,1-.129.971Q213.713,21.745,213.788,21.689Zm3.778-9.353a.43.43,0,0,1-.354-.075,3.68,3.68,0,0,0-4.609-.016.431.431,0,0,1-.358.095,7.03,7.03,0,0,1-2.31-.987.114.114,0,0,0-.129,0,.12.12,0,0,0-.055.124,1.771,1.771,0,0,0,.706,1.292,2.106,2.106,0,0,0,1.505.181.431.431,0,0,1,.528.543,3.2,3.2,0,0,0,.695,2.619,1.825,1.825,0,0,1,.348.9l.125,1.239a1.365,1.365,0,0,0,2.715.015l.146-1.3A1.846,1.846,0,0,1,217,15.9a2.537,2.537,0,0,0,.683-2.212.431.431,0,0,1,.418-.535h.016a1.583,1.583,0,0,0,1.839-1.593.121.121,0,0,0-.06-.12.109.109,0,0,0-.121,0A8.053,8.053,0,0,1,217.566,12.337Z" transform="translate(-208.888 -6)" fill="#fff"/>
              <path id="Trazado_874769" data-name="Trazado 874769" d="M247.471,80.937a.442.442,0,0,1-.084-.008.525.525,0,0,1-.08-.025.41.41,0,0,1-.074-.04.4.4,0,0,1-.066-.054.431.431,0,0,1-.127-.3.446.446,0,0,1,.009-.084.466.466,0,0,1,.025-.081.5.5,0,0,1,.04-.074.451.451,0,0,1,.054-.066.4.4,0,0,1,.066-.053.353.353,0,0,1,.074-.04.425.425,0,0,1,.08-.025.436.436,0,0,1,.389.117.389.389,0,0,1,.054.066.412.412,0,0,1,.04.074.461.461,0,0,1,.025.081.443.443,0,0,1,.008.084.43.43,0,0,1-.431.431Z" transform="translate(-240.08 -72.098)" fill="#fff"/>
              <path id="Trazado_874770" data-name="Trazado 874770" d="M271.767,80.936a.431.431,0,0,1-.3-.734.39.39,0,0,1,.066-.054.434.434,0,0,1,.155-.065.44.44,0,0,1,.168,0,.434.434,0,0,1,.155.065.387.387,0,0,1,.066.054.431.431,0,0,1-.3.734Z" transform="translate(-266.992 -72.097)" fill="#fff"/>
              <path id="Trazado_874771" data-name="Trazado 874771" d="M256.423,109.32l-.474.318a.431.431,0,0,1-.491-.008l-.443-.318a.431.431,0,0,1,.5-.7l.2.144.226-.151a.431.431,0,1,1,.479.716Z" transform="translate(-249.633 -97.489)" fill="#fff"/>
            </g>
          </g>
          <g id="Elipse_11498" data-name="Elipse 11498" transform="translate(-18583.781 -8583.3)" fill="none" stroke="#fdaa30" stroke-width="6">
            <ellipse cx="8.063" cy="8.063" rx="8.063" ry="8.063" stroke="none"/>
            <ellipse cx="8.063" cy="8.063" rx="5.063" ry="5.063" fill="none"/>
          </g>
        </g>
        <circle id="Elipse_11502" data-name="Elipse 11502" cx="1.916" cy="1.916" r="1.916" transform="translate(-18602.906 -8633.651)" fill="#fff"/>
      </g>
      <g id="Grupo_1188573" data-name="Grupo 1188573" transform="translate(0 1.413)">
        <g id="Grupo_1188468" data-name="Grupo 1188468" transform="translate(0 0)">
          <path id="Rectángulo_402603" data-name="Rectángulo 402603" d="M74.42,0h0a0,0,0,0,1,0,0V75.03a0,0,0,0,1,0,0H0a0,0,0,0,1,0,0v-.61A74.42,74.42,0,0,1,74.42,0Z" fill="#fdaa30"/>
          <g id="Grupo_1188467" data-name="Grupo 1188467" transform="translate(28.513 29.12)">
            <path id="Trazado_874775" data-name="Trazado 874775" d="M288.475,288.708a.456.456,0,0,1-.136-.89,5.01,5.01,0,0,1,1.5-.229.455.455,0,1,1,0,.911A6,6,0,0,0,288.475,288.708Z" transform="translate(-271.625 -271.241)" fill="#12263f"/>
            <path id="Trazado_874776" data-name="Trazado 874776" d="M28.256,21.374a3.132,3.132,0,0,0-2.578-.959.136.136,0,0,1-.145-.1A10.982,10.982,0,0,0,20.5,14.178,13.853,13.853,0,0,0,13.3,12.2a7.282,7.282,0,0,0-.039-1.589c4.56-1.2,9.365-6.739,7.349-9.316C19.8.271,18.122.124,16.08.892,13.628-.854,7.774,2.356,5.683,6.229,2.908,7.269,0,10.292,0,13.193s2.281,3.793,5.193,3.972A8.389,8.389,0,0,0,5.48,24.22C3.707,25.44,1.963,27,3.219,28.775c.885,1.251,2.583.631,4.047.147a14.078,14.078,0,0,0,3.828-1.972,11.644,11.644,0,0,0,2.825-2.607,4.973,4.973,0,0,0,.9,1.107c-2.722,1.465-2.053,4.057,1.094,4.057a8.058,8.058,0,0,0,3.512-.951c1.906-.13,4.229-.5,5.532-1.946A3.192,3.192,0,0,0,28.256,21.374ZM.911,13.193c0-2.987,3.9-6.459,6.831-6.459a9.732,9.732,0,0,1,2.366.439c.563-.088.3-.981,2.453-2.986a.455.455,0,1,0-.62-.667A10.921,10.921,0,0,0,9.823,6.15a6.261,6.261,0,0,0-2.857-.265c1.883-2.686,5.756-5.008,8-4.5a12.856,12.856,0,0,0-1.551.939.455.455,0,1,0,.524.745C17.663.449,21.5.687,19.717,4.338a11.489,11.489,0,0,1-7.065,5.484.456.456,0,0,0-.345.311c-.079.254.107.4.107,1.507,0,3.057-2.809,4.656-5.583,4.656-3.655,0-5.92-.519-5.92-3.1ZM28.234,23.675a2.286,2.286,0,0,1-2.728,2.141,6.113,6.113,0,0,0,.451-3.174.455.455,0,1,0-.909.063c.2,2.833-.644,4.617-5.771,4.949a16.455,16.455,0,0,1-2.159.8c-1.5.356-2.918,0-3.079-.674-.129-.542.565-1.269,1.6-1.71a4.1,4.1,0,0,0,1.205.5.456.456,0,0,0,.136-.89,4.084,4.084,0,0,1-2.582-2.4.457.457,0,0,0-.027-.068,4.12,4.12,0,0,1,.191-3.317.455.455,0,1,0-.81-.417,5.037,5.037,0,0,0-.291,3.894,9.536,9.536,0,0,1-2.909,2.845,13.168,13.168,0,0,1-3.58,1.845c-1.8.6-2.619.754-3.017.191a1.123,1.123,0,0,1-.237-.889c.221-1.191,2.474-2.454,2.693-2.689.547-.588-.954-1.149-.954-4.275A7.133,7.133,0,0,1,6.179,17.2c.22,0,.438.006.652.006,2.8,0,5.547-1.413,6.3-4.085,4.273-.207,10.014,2.478,11.535,7.459a1.047,1.047,0,0,0,1.121.738A2.266,2.266,0,0,1,28.234,23.675Z" transform="translate(0 -0.404)" fill="#12263f"/>
            <path id="Trazado_874777" data-name="Trazado 874777" d="M260.455,308.5a.455.455,0,1,1,.446-.367A.456.456,0,0,1,260.455,308.5Z" transform="translate(-245.199 -290.1)" fill="#12263f"/>
            <ellipse id="Elipse_11499" data-name="Elipse 11499" cx="0.797" cy="0.797" rx="0.797" ry="0.797" transform="translate(4.213 10.029)" fill="#12263f"/>
          </g>
        </g>
        <path id="Trazado_874774" data-name="Trazado 874774" d="M6.926-1c.053,0,.106,0,.159,0a2.666,2.666,0,0,1,1.59.673A2.319,2.319,0,0,1,9.49,1.41a11.019,11.019,0,0,1,.068,1.565v1.6h3.274a2.063,2.063,0,0,1,1.81.927A2.868,2.868,0,0,1,15.1,7.082a2.706,2.706,0,0,1-.478,1.571,2.052,2.052,0,0,1-1.791.865H9.559v1.738a13.077,13.077,0,0,1-.068,1.686,2.107,2.107,0,0,1-.885,1.733,2.669,2.669,0,0,1-3.166,0,2.121,2.121,0,0,1-.886-1.816V9.518H1.546a2.483,2.483,0,0,1-2-.788,2.26,2.26,0,0,1-.53-1.765A2.9,2.9,0,0,1-.281,5.4,2.332,2.332,0,0,1,1.546,4.58H4.554V1.506A2.309,2.309,0,0,1,5.44-.51,2.517,2.517,0,0,1,6.926-1Zm6.038,7.593a.478.478,0,0,0-.131-.014H7.559v-3.6A8.677,8.677,0,0,0,7.512,1.7l-.019-.1v-.1A.342.342,0,0,0,7.374,1.2.679.679,0,0,0,6.96,1H6.926a.519.519,0,0,0-.313.11.9.9,0,0,0-.06.4V6.58H1.546a.342.342,0,0,0-.309.118A.912.912,0,0,0,1,7.2a.268.268,0,0,0,.071.239.927.927,0,0,0,.472.08H6.554v5.341c0,.153.032.176.049.188a.673.673,0,0,0,.841,0c.017-.012.049-.035.049-.188v-.083l.014-.082a10.753,10.753,0,0,0,.053-1.438V7.518h5.274a.547.547,0,0,0,.155-.017.73.73,0,0,0,.114-.419A.875.875,0,0,0,12.964,6.593Z" transform="translate(26.135 9.618) rotate(-43)" fill="#1944b6"/>
      </g>
    </g>
    <g id="Grupo_1189102-2" data-name="Grupo 1189102" transform="translate(-3082.704 -6890.123)">
      <g id="Grupo_1189052" data-name="Grupo 1189052" transform="translate(11.99)">
        <g id="Grupo_1189051" data-name="Grupo 1189051">
          <g id="Grupo_1189050" data-name="Grupo 1189050">
            <path id="Trazado_876067" data-name="Trazado 876067" d="M1919.406,2352.135l-15.365,1.367-.01.251c-2.805,2.078-5.414,4.264-6.627,7.68l9.8-1.845a15.854,15.854,0,0,0-3.047,3.746l13.151-2.5c3.8-.652,8.024-.8,11.627-2.258a9.883,9.883,0,0,0,4.142-3.154,1.592,1.592,0,0,0,.271-.62l-.054-.258-2.695-2.444a6.084,6.084,0,0,0-1.337-1.137,4.239,4.239,0,0,0-.924-.073A62.261,62.261,0,0,1,1919.406,2352.135Z" transform="translate(-1710.92 -2198.655)" fill="#93480a"/>
            <path id="Trazado_876068" data-name="Trazado 876068" d="M1649.874,2329.78a9.5,9.5,0,0,1-1.4,3.672,4.2,4.2,0,0,1-2.625,1.788c-.828.132-1.674.137-2.5.3a10.665,10.665,0,0,0-6.365,3.751,14.673,14.673,0,0,0-2.12,4.041l7.876-1.444a24.174,24.174,0,0,0-1.985,4.085l8.749-1.55a38.117,38.117,0,0,1,4.193-.04,10.4,10.4,0,0,0,8.635-4.338,63.655,63.655,0,0,0,4.156-7.083l3.924-7.272a93.088,93.088,0,0,1-20.943-7.588C1650.1,2321.913,1650.607,2325.952,1649.874,2329.78Z" transform="translate(-1562.222 -2180.086)" fill="#93480a"/>
            <path id="Trazado_876069" data-name="Trazado 876069" d="M1962.284,2364.039c-3.849.715-7.892,1.234-11.423,3.022a14.477,14.477,0,0,0-7.661,8.608l7.706-1.758a12.662,12.662,0,0,0-2.181,4.858,69.6,69.6,0,0,1,10.386-3.189c-.072.878-1.1,1.832-1.222,2.846-.042.357-.062.418.149.7a34.932,34.932,0,0,1,9.007-2.695l8.425-1.673a53.041,53.041,0,0,0,7.192-1.76c1.966-.689,4.33-1.731,5.263-3.732a8.075,8.075,0,0,0,.029-5.486l-.474-.274a1.154,1.154,0,0,0-.824-.3c-.461-.024-.935.108-1.406.1l-6.4-.129c-3.314-.076-6.817-.619-10.125-.2-.757.1-1.507.058-2.26.138a22.756,22.756,0,0,0-3.219.772,1.689,1.689,0,0,1-.9-.074Z" transform="translate(-1736.859 -2205.413)" fill="#93480a"/>
            <path id="Trazado_876070" data-name="Trazado 876070" d="M1467.885,2131.777l-.3.048a13.453,13.453,0,0,0-.255,3.405,25.832,25.832,0,0,0,3.56,13.182,18.944,18.944,0,0,0,4.574,5.236,13.2,13.2,0,0,0,2.989,1.648,61.854,61.854,0,0,0,4.9,5.92c4.105,3.918,9.728,6.589,15.112,8.223l5.382,1.355a30.379,30.379,0,0,1,9.582,4.756c4.847,3.538,8.213,8.641,12.127,13.1a100.632,100.632,0,0,0,13.521,12.751l3.708-.555a33.192,33.192,0,0,0,6.963-2.305l.037-.091c-.668-.673-1.562-1.194-2.284-1.824l-5.95-5.457a90.4,90.4,0,0,1-12.977-15.849c-1.042-1.608-2.331-3.367-2.712-5.27-9.162-1.778-17.729-4.627-25.262-10.314a36.01,36.01,0,0,1-5.31-4.68,15.313,15.313,0,0,1-1.639-1.692c-1.045.463-3.9-.366-5.091-.688a18.219,18.219,0,0,1-10.791-7.775c-.809-1.291-1.392-2.716-2.153-4.039a.724.724,0,0,1,.22-.149,32.306,32.306,0,0,0,4.866-3.409,11.746,11.746,0,0,0,3.743-4.327,2.534,2.534,0,0,0-.249-1.147c-1.575-2.739-5.843-1.247-8.165-.471a7.572,7.572,0,0,1-1.5.512,8.568,8.568,0,0,1-1.262-.744,11.932,11.932,0,0,0-3.133-1.46A3.645,3.645,0,0,0,1467.885,2131.777Z" transform="translate(-1467.324 -2073.356)" fill="#b55b09"/>
            <path id="Trazado_876071" data-name="Trazado 876071" d="M1467.885,2131.777l-.3.048a13.453,13.453,0,0,0-.255,3.405,25.832,25.832,0,0,0,3.56,13.182,18.944,18.944,0,0,0,4.574,5.236,13.2,13.2,0,0,0,2.989,1.648,8.1,8.1,0,0,1,1.639-.493,15.528,15.528,0,0,1,1.556,1.145,10.976,10.976,0,0,0,3.027,1.115,9.022,9.022,0,0,0,6.571-1.4l-2.556.446a9.581,9.581,0,0,1-7.279-2.1c-3.763-3-5.312-8.557-5.8-13.147a.724.724,0,0,1,.22-.149,32.306,32.306,0,0,0,4.866-3.409,11.746,11.746,0,0,0,3.743-4.327,2.534,2.534,0,0,0-.249-1.147c-1.575-2.739-5.843-1.247-8.165-.471a7.572,7.572,0,0,1-1.5.512,8.568,8.568,0,0,1-1.262-.744,11.932,11.932,0,0,0-3.133-1.46A3.645,3.645,0,0,0,1467.885,2131.777Z" transform="translate(-1467.324 -2073.356)" fill="#9f540f"/>
            <path id="Trazado_876072" data-name="Trazado 876072" d="M1467.326,2137.984a25.828,25.828,0,0,0,3.56,13.181,18.953,18.953,0,0,0,4.574,5.236l.777-.525a5.049,5.049,0,0,0,.083-2.125,69.685,69.685,0,0,0-1.382-6.877c-.2-1.04-.22-2.379-.524-3.353-.152-.488-2.207-1.854-2.734-2.308-2.135-1.834-3.583-3.807-3.8-6.682l-.3.047A13.458,13.458,0,0,0,1467.326,2137.984Z" transform="translate(-1467.324 -2076.109)" fill="#733a29"/>
            <path id="Trazado_876073" data-name="Trazado 876073" d="M1535.391,2024.626c-1.559.231-3.119.4-4.662.747l-8.634,2.281-.1.049c-1.61.8-3.534,1.283-5.227,1.916a111.667,111.667,0,0,0-10.326,4.38,97,97,0,0,0-13.385,7.99,104.246,104.246,0,0,0-16.946,15.2c-2.808,3.116-5.881,6.733-7.3,10.746a17.438,17.438,0,0,0-.9,3.977l.3-.048a3.644,3.644,0,0,1,2.243-2.107,11.915,11.915,0,0,1,3.133,1.459,8.7,8.7,0,0,0,1.262.745,7.655,7.655,0,0,0,1.5-.513c2.322-.776,6.59-2.268,8.165.471a2.533,2.533,0,0,1,.249,1.146,11.745,11.745,0,0,1-3.743,4.327,32.333,32.333,0,0,1-4.866,3.409.735.735,0,0,0-.22.149c.761,1.323,1.344,2.748,2.153,4.038a18.213,18.213,0,0,0,10.791,7.775c1.195.322,4.046,1.151,5.091.688a51.673,51.673,0,0,1-3.321-4.665,27.653,27.653,0,0,1-3.206-9.786c-1.1-7.257,2.163-12.6,6.269-18.189,10.432-14.209,25.324-26.4,42.085-32.214a101.757,101.757,0,0,1,18.084-4.16,5.17,5.17,0,0,0,.518-.417l-.141-.132-14.9.524A9.534,9.534,0,0,0,1535.391,2024.626Z" transform="translate(-1467.66 -2013.44)" fill="#733a29"/>
            <path id="Trazado_876074" data-name="Trazado 876074" d="M1522,2028.189c-1.61.8-3.534,1.283-5.227,1.916a111.734,111.734,0,0,0-10.326,4.38,97.025,97.025,0,0,0-13.385,7.99,104.259,104.259,0,0,0-16.946,15.2c-2.808,3.116-5.881,6.733-7.3,10.745a17.448,17.448,0,0,0-.9,3.977l.3-.048a3.646,3.646,0,0,1,2.243-2.107,12.814,12.814,0,0,1,1.447-2.858,82.539,82.539,0,0,1,16.223-17.9,116.071,116.071,0,0,1,30.172-18.6c2.74-1.154,5.464-2.281,8.3-3.186,4.2-1.342,8.48-1.868,12.769-2.792a9.534,9.534,0,0,0-3.982.216c-1.559.231-3.119.4-4.662.748l-8.634,2.28Z" transform="translate(-1467.66 -2013.926)" fill="#de7604"/>
            <path id="Trazado_876075" data-name="Trazado 876075" d="M1601.5,2011.728c1.542-.348,3.1-.517,4.662-.748a9.544,9.544,0,0,1,3.983-.216l14.9-.523.14.132a5.17,5.17,0,0,1-.518.417c-3.069,3.068-7.8,6.778-7.817,11.563-.008,2.711.121,4.618,2.126,6.6,2.446,2.421,5.851,2.961,8.84,4.409a53.4,53.4,0,0,1,4.673,3.046,29.937,29.937,0,0,0,15.886,4.319c3.005-.025,6.922-.8,9.2-2.921l-.575-1.466a7.115,7.115,0,0,0,1.676-3.662c.332-2.522-.562-5.137.861-7.45,1.432-2.329,3.886-3.8,5.693-5.771l.111-.122-.124-.3-.97-1.3-.053-.085a22.3,22.3,0,0,0-3.951-4.3,31.831,31.831,0,0,0-14.464-7.653c-6.585-1.425-12.565-.605-18.232,3.046-4.053-3.552-8.56-6.7-13.812-8.16-4.059-1.132-8.042-1.223-11.779.9-4.589,2.61-7.7,7.519-9.088,12.522Z" transform="translate(-1538.43 -1999.794)" fill="#ba610a"/>
            <path id="Trazado_876076" data-name="Trazado 876076" d="M1674.717,2036.378c6.3-3.9,12.876-4.029,19.9-2.208,1.785.462,3.5,1.168,5.291,1.592l-.97-1.3-.088,0a5.784,5.784,0,0,1-1.969-.967l-3.242-1.581c-6.734-3.09-16.012-4.122-22.084.893-3.771,3.116-9.424,11.807-14.78,11.374-.925-.075-1.773-.519-2.656-.591a10.828,10.828,0,0,0,8.44,2.513,6.344,6.344,0,0,0,2.151-.583C1668.467,2042.943,1670.8,2038.8,1674.717,2036.378Z" transform="translate(-1573.124 -2016.519)" fill="#9f540f"/>
            <path id="Trazado_876077" data-name="Trazado 876077" d="M1681.85,2050.093l7.163-.973a35.619,35.619,0,0,1-2.65,4.183c3.987,2.426,7.392,4.89,12.1,5.781a10.613,10.613,0,0,0,4.7.051,10.933,10.933,0,0,0,2.357-1.217,7.117,7.117,0,0,0,1.676-3.662c.332-2.522-.562-5.137.861-7.45s3.885-3.8,5.693-5.771l.111-.122-.125-.3c-1.786-.424-3.506-1.129-5.29-1.592-7.024-1.82-13.6-1.688-19.9,2.208-3.92,2.423-6.251,6.565-10.008,9.145C1679.275,2050.669,1681.031,2050.207,1681.85,2050.093Z" transform="translate(-1586.958 -2021.372)" fill="#de7604"/>
            <path id="Trazado_876078" data-name="Trazado 876078" d="M1918.2,2153.572c-1.9,1.033-4.61,1.293-6.7,1.918a74.608,74.608,0,0,0-10.191,3.936c-14.711,6.911-27.168,19.137-35.85,32.764a68.475,68.475,0,0,0-7.9,16.427,29.989,29.989,0,0,0-1.093,4.523,26.068,26.068,0,0,1-.453,3.519,8.379,8.379,0,0,1-1.16,2.025,22.078,22.078,0,0,1-8.142,7.431c-8.934,4.736-19.7,5.825-29.638,4.8a56.06,56.06,0,0,1-11.13-2.15c-2.967-.932-6.051-2.4-7.571-5.278s-1-5.507-.44-8.516c-1.006,1.272-1.565,3.182-2.3,4.66l-6.655,13.273c-1.006,1.992-2.325,3.8-3.334,5.8a238.714,238.714,0,0,0,38.978,3.218l10.937-.034a37.643,37.643,0,0,1,5.18-.177l15.365-1.367a62.154,62.154,0,0,0,8.936-1.243,4.208,4.208,0,0,1,.924.074,6.088,6.088,0,0,1,1.337,1.136l2.694,2.444.054.259a7.059,7.059,0,0,1,3.049,2.253,1.693,1.693,0,0,0,.9.075,22.723,22.723,0,0,1,3.219-.772c.753-.08,1.5-.042,2.26-.138,3.309-.418,6.811.125,10.125.2l6.4.13c.471.009.945-.123,1.406-.1a1.157,1.157,0,0,1,.824.294l.581-.088a10.366,10.366,0,0,1,1.743-4.457,48.812,48.812,0,0,1,6.21-6.8,85.635,85.635,0,0,0,7.735-8.7c10.519-13.972,13.459-31.361,11.028-48.416a85.6,85.6,0,0,0-2.315-10.73c-.29-1.055-.529-2.853-1.414-3.516a2.771,2.771,0,0,0,.143-.5,5.822,5.822,0,0,0-.436-1.389c-.575-1.676-1.169-3.371-1.9-4.986-.291-.638-.645-1.588-1.337-1.849Z" transform="translate(-1647.622 -2086.868)" fill="#b55b09"/>
            <path id="Trazado_876079" data-name="Trazado 876079" d="M2017.194,2187.9c-.062,1.2,0,2.417-.17,3.615a79.5,79.5,0,0,1-2.057,11.788c-3.568,12.134-10.368,24.32-20.544,32.131-6.818,5.233-14.551,8.828-23.222,9.332a20.8,20.8,0,0,1-3.731.072l-.424-.088c-.558-.119-1.172-.1-1.741-.172a18.284,18.284,0,0,1-4.444-1.066,17.906,17.906,0,0,1-6.292-3.858,12.026,12.026,0,0,0-1.858-1.908,34.144,34.144,0,0,0,4.579,8.486c.525.722,3.066,3.515,3.037,4.1l-.66.172a4.193,4.193,0,0,1,.924.073,6.1,6.1,0,0,1,1.337,1.136l2.695,2.444.054.259a7.063,7.063,0,0,1,3.049,2.252,1.687,1.687,0,0,0,.9.075,22.816,22.816,0,0,1,3.219-.772c.753-.079,1.5-.042,2.26-.137,3.308-.418,6.811.124,10.125.2l6.4.13c.471.009.945-.123,1.406-.1a1.154,1.154,0,0,1,.823.295l.581-.088a10.369,10.369,0,0,1,1.743-4.457,48.822,48.822,0,0,1,6.21-6.8,85.571,85.571,0,0,0,7.735-8.7c10.519-13.972,13.459-31.362,11.028-48.416a85.609,85.609,0,0,0-2.315-10.731c-.291-1.055-.529-2.852-1.414-3.515A70.413,70.413,0,0,1,2017.194,2187.9Z" transform="translate(-1742.246 -2098.268)" fill="#a55a1c"/>
            <path id="Trazado_876080" data-name="Trazado 876080" d="M1520.855,2095.86a36.083,36.083,0,0,0,5.311,4.681c7.533,5.687,16.1,8.536,25.263,10.313,14.425,2.116,33.193-1.688,45.239-10.05a12.268,12.268,0,0,0,2.638-1.958,40.214,40.214,0,0,0,14.769-38.329,71.236,71.236,0,0,0-2.036-8.347c-2.281,2.124-6.2,2.9-9.2,2.921a29.933,29.933,0,0,1-15.886-4.319,53.652,53.652,0,0,0-4.673-3.046c-2.989-1.447-6.394-1.988-8.84-4.408-2-1.984-2.134-3.891-2.125-6.6.014-4.786,4.748-8.5,7.817-11.563a101.725,101.725,0,0,0-18.085,4.16c-16.76,5.81-31.652,18.005-42.084,32.215-4.106,5.593-7.371,10.932-6.269,18.189a27.64,27.64,0,0,0,3.206,9.786,51.534,51.534,0,0,0,3.321,4.665A15.239,15.239,0,0,0,1520.855,2095.86Z" transform="translate(-1492.896 -2014.157)" fill="#de7604"/>
            <path id="Trazado_876081" data-name="Trazado 876081" d="M1537.115,2192.9c7.533,5.687,16.1,8.536,25.263,10.314,14.425,2.115,33.193-1.689,45.239-10.05-.649-.378-1.467.06-2.126.285-3.411,1.168-6.719,2.405-10.212,3.338a80.779,80.779,0,0,1-24.787,2.517,92.046,92.046,0,0,1-26.4-5.569,65.02,65.02,0,0,1-10.372-4.761,4.225,4.225,0,0,0-1.91-.754A36.1,36.1,0,0,0,1537.115,2192.9Z" transform="translate(-1503.846 -2106.519)" fill="#ba610a"/>
            <path id="Trazado_876082" data-name="Trazado 876082" d="M1589.128,2077.354a9.723,9.723,0,0,0-2.151,7.369,9.555,9.555,0,0,0,3.7,6.211,12.442,12.442,0,0,0,7.793,2.42c3.064-.3,6.057-1.22,8.087-3.692a10.032,10.032,0,0,0,2.294-7.558,10.476,10.476,0,0,0-3.862-6.731,10.869,10.869,0,0,0-7.206-2.186l-.085.01C1594.388,2073.568,1591.287,2074.687,1589.128,2077.354Z" transform="translate(-1535.056 -2041.344)" fill="#763b05"/>
            <path id="Trazado_876083" data-name="Trazado 876083" d="M1596.811,2083.339a7.077,7.077,0,0,0-.323,5.38,6.711,6.711,0,0,0,3.8,3.964,7.565,7.565,0,0,0,3.352.5c1.9-.589,3.473-1.333,4.439-3.192a7.149,7.149,0,0,0,.215-5.5,7.036,7.036,0,0,0-3.406-4.04,7.454,7.454,0,0,0-3.785-.618A6.661,6.661,0,0,0,1596.811,2083.339Z" transform="translate(-1540.262 -2045.114)" fill="#070605"/>
            <path id="Trazado_876084" data-name="Trazado 876084" d="M1617.581,2099.315c.275.408.384.61.9.72a2.471,2.471,0,0,0,.579.019c.278-.554.526-.781.365-1.393a1.726,1.726,0,0,0-1.353-.589A2.407,2.407,0,0,0,1617.581,2099.315Z" transform="translate(-1552.429 -2055.458)" fill="#fefefe"/>
            <path id="Trazado_876085" data-name="Trazado 876085" d="M1600.5,2085.167a2.563,2.563,0,0,0,.357,1.988,3.01,3.01,0,0,0,1.711,1.306,5.2,5.2,0,0,0,1.364-.039,3.37,3.37,0,0,0,1.914-2.074,2.459,2.459,0,0,0-.308-1.858,3.046,3.046,0,0,0-1.841-1.389,4.254,4.254,0,0,0-1.333,0C1601.459,2083.654,1600.781,2084.066,1600.5,2085.167Z" transform="translate(-1542.718 -2046.948)" fill="#fefefe"/>
            <path id="Trazado_876086" data-name="Trazado 876086" d="M1670.579,2043.725c-1.808,1.973-4.261,3.443-5.693,5.771s-.528,4.928-.861,7.45a7.112,7.112,0,0,1-1.676,3.662l.575,1.467a71.21,71.21,0,0,1,2.036,8.347,40.217,40.217,0,0,1-14.769,38.329,12.284,12.284,0,0,1-2.638,1.958c-12.047,8.36-30.814,12.166-45.239,10.05.381,1.9,1.67,3.663,2.712,5.27A90.379,90.379,0,0,0,1618,2141.878l5.95,5.457c.722.629,1.616,1.15,2.284,1.823l-.037.091a33.2,33.2,0,0,1-6.963,2.305l-3.708.555,15.507,9.974a93.1,93.1,0,0,0,20.943,7.588l7.115,1.366c.38,3.909.781,11.745-1.786,14.8a4.53,4.53,0,0,1-2.6,1.314c-3.065.824-6.005,1.651-8.15,4.177a18.771,18.771,0,0,0-2.514,4.27l5.746-1.144a8.968,8.968,0,0,1,2.358-.4l-1.144,3.1a2.892,2.892,0,0,0-.338,1.03,30.129,30.129,0,0,1,5.633-1.418l7.1-.784c2.76-.289,5.669-.326,7.957-2.1,2.448-1.894,3.969-4.916,5.294-7.65l2.844-5.969a39.73,39.73,0,0,0,2.317-4.37c1.01-2,2.328-3.809,3.334-5.8l6.654-13.272c.737-1.479,1.3-3.389,2.3-4.661-.556,3.009-1.074,5.654.44,8.516s4.6,4.346,7.571,5.277a56.045,56.045,0,0,0,11.13,2.151c9.935,1.021,20.7-.068,29.638-4.8a22.074,22.074,0,0,0,8.142-7.432,8.353,8.353,0,0,0,1.161-2.024,26.1,26.1,0,0,0,.453-3.519,30.037,30.037,0,0,1,1.093-4.523,68.487,68.487,0,0,1,7.9-16.427c8.682-13.626,21.139-25.852,35.85-32.764a74.654,74.654,0,0,1,10.191-3.936c2.088-.625,4.8-.885,6.7-1.918l.079-.044c.126-.8-.473-1.538-.887-2.213l-3.283-5.016c-7.04-9.7-16.656-17.3-27.2-22.855a98.162,98.162,0,0,0-11.363-5.222,78.256,78.256,0,0,0-29.677-4.9l-13.879,1.174-16.134,1.439a108.146,108.146,0,0,1-24.551-.637,26.482,26.482,0,0,1-1.325-2.528,16.934,16.934,0,0,0-7.163-6.215,10.228,10.228,0,0,0-5.932-.981,15.9,15.9,0,0,0-2.357.833Z" transform="translate(-1543.782 -2024.062)" fill="#de7604"/>
            <path id="Trazado_876087" data-name="Trazado 876087" d="M1636.5,2290.814l-3.708.555,15.507,9.974a93.073,93.073,0,0,0,20.943,7.588l7.115,1.366a19.855,19.855,0,0,0-3.217-9.323,30.5,30.5,0,0,0-3.69-4.05l-3.558-3.727a15.907,15.907,0,0,0,5.054,7.766,8.514,8.514,0,0,1-2.331-.379,62.044,62.044,0,0,1-19.721-8.258,40.047,40.047,0,0,1-3.3-2.284,11.442,11.442,0,0,0-2.135-1.534A33.2,33.2,0,0,1,1636.5,2290.814Z" transform="translate(-1561.043 -2163.321)" fill="#ba610a"/>
            <path id="Trazado_876088" data-name="Trazado 876088" d="M1670.579,2043.725c-1.808,1.973-4.261,3.443-5.693,5.771s-.528,4.928-.861,7.45a7.112,7.112,0,0,1-1.676,3.662l.575,1.467a71.21,71.21,0,0,1,2.036,8.347,40.217,40.217,0,0,1-14.769,38.329,12.284,12.284,0,0,1-2.638,1.958c-12.047,8.36-30.814,12.166-45.239,10.05.381,1.9,1.67,3.663,2.712,5.27A90.379,90.379,0,0,0,1618,2141.878l5.95,5.457c.722.629,1.616,1.15,2.284,1.823a12.507,12.507,0,0,0,3.043-1.553,28.385,28.385,0,0,0,8.369-7.99c-1.1,4.045-2.381,7.59-5.171,10.818l1.354-.46c6.46-2.36,11.854-6.537,17.173-10.773a72.5,72.5,0,0,0,9.752-8.84,46.77,46.77,0,0,0,6.527-9.823,28.451,28.451,0,0,0,2.3-6.35,22.45,22.45,0,0,1,1.032-4.261,21.127,21.127,0,0,1,.177,4.124,34.64,34.64,0,0,1-.644,7.347,48.783,48.783,0,0,1-3.424,9.324l.128-.029a8.05,8.05,0,0,0,1.251-.978l3.174-2.53c8.163-6.594,15.8-13.659,20.062-23.47,5.912-13.624,5.276-28.967.169-42.728a38.5,38.5,0,0,0-2-4.549,39.144,39.144,0,0,1-2.044-3.944,26.482,26.482,0,0,1-1.325-2.528,16.934,16.934,0,0,0-7.163-6.215,10.228,10.228,0,0,0-5.932-.981,15.9,15.9,0,0,0-2.357.833Z" transform="translate(-1543.782 -2024.062)" fill="#b55b09"/>
          </g>
        </g>
      </g>
      <path id="Trazado_876089" data-name="Trazado 876089" d="M1689.6,2208.1a13.268,13.268,0,0,1,.686-3.023c1.075-3.051,3.412-5.8,5.546-8.169a79.258,79.258,0,0,1,12.883-11.555,73.747,73.747,0,0,1,10.176-6.074,84.851,84.851,0,0,1,7.851-3.33c1.286-.481,2.749-.851,3.974-1.457l.073-.037a15.756,15.756,0,0,1,6.909-9.52c2.841-1.616,5.868-1.548,8.955-.686a27.438,27.438,0,0,1,10.5,6.2,17.522,17.522,0,0,1,13.861-2.316,24.193,24.193,0,0,1,11,5.818,16.966,16.966,0,0,1,3,3.273l.04.065.737.985.094.228a12.065,12.065,0,0,1,1.792-.633,7.766,7.766,0,0,1,4.509.746,12.869,12.869,0,0,1,5.445,4.725,20.259,20.259,0,0,0,1.008,1.923,82.224,82.224,0,0,0,18.665.484l12.266-1.094,10.552-.893a59.512,59.512,0,0,1,22.561,3.724,74.581,74.581,0,0,1,8.639,3.97A59.739,59.739,0,0,1,1892,2208.831l2.5,3.813c.315.513.77,1.071.674,1.682.526.2.795.921,1.016,1.406.555,1.228,1.007,2.516,1.445,3.791a4.439,4.439,0,0,1,.331,1.056,2.111,2.111,0,0,1-.109.383c.673.5.854,1.87,1.075,2.672a64.994,64.994,0,0,1,1.76,8.158c1.848,12.966-.387,26.186-8.384,36.808a65.062,65.062,0,0,1-5.881,6.611,37.151,37.151,0,0,0-4.721,5.173,7.879,7.879,0,0,0-1.325,3.388l-.442.067.361.209a6.139,6.139,0,0,1-.022,4.17c-.71,1.521-2.506,2.313-4,2.838a40.466,40.466,0,0,1-5.468,1.337l-6.405,1.272a26.539,26.539,0,0,0-6.848,2.05c-.16-.215-.146-.262-.114-.534.09-.771.875-1.5.929-2.164a52.952,52.952,0,0,0-7.9,2.425,9.638,9.638,0,0,1,1.658-3.693l-5.858,1.336a11,11,0,0,1,5.824-6.543c2.685-1.359,5.758-1.754,8.685-2.3l.041-.17a5.363,5.363,0,0,0-2.318-1.713,1.188,1.188,0,0,1-.207.471,7.5,7.5,0,0,1-3.148,2.4c-2.739,1.109-5.949,1.221-8.839,1.718l-10,1.9a12.039,12.039,0,0,1,2.317-2.848l-7.453,1.4c.922-2.6,2.905-4.258,5.038-5.838l.007-.191a28.538,28.538,0,0,0-3.938.134l-8.315.026a181.466,181.466,0,0,1-29.632-2.446,30.379,30.379,0,0,1-1.761,3.322l-2.163,4.538c-1.008,2.078-2.164,4.375-4.025,5.816-1.74,1.347-3.952,1.375-6.049,1.595l-5.4.6a22.936,22.936,0,0,0-4.283,1.078,2.213,2.213,0,0,1,.257-.783l.869-2.359a6.805,6.805,0,0,0-1.793.3l-4.368.869a14.3,14.3,0,0,1,1.911-3.245c1.63-1.921,3.866-2.549,6.2-3.176a3.446,3.446,0,0,0,1.978-1c1.951-2.325,1.646-8.282,1.357-11.254l-5.41-1.039-2.983,5.528a48.318,48.318,0,0,1-3.161,5.385,7.9,7.9,0,0,1-6.564,3.3,29.343,29.343,0,0,0-3.188.031l-6.651,1.179a18.292,18.292,0,0,1,1.509-3.106l-5.989,1.1a11.2,11.2,0,0,1,1.612-3.072,8.109,8.109,0,0,1,4.839-2.851c.626-.128,1.269-.132,1.9-.231a3.189,3.189,0,0,0,2-1.36,7.237,7.237,0,0,0,1.061-2.792,25.739,25.739,0,0,0-.3-8.873L1743.948,2261a76.512,76.512,0,0,1-10.279-9.693c-2.976-3.391-5.534-7.271-9.219-9.961a23.091,23.091,0,0,0-7.285-3.616l-4.091-1.03a29.02,29.02,0,0,1-11.489-6.251,46.946,46.946,0,0,1-3.724-4.5,10.018,10.018,0,0,1-2.272-1.253,14.405,14.405,0,0,1-3.477-3.981,19.632,19.632,0,0,1-2.707-10.021A10.262,10.262,0,0,1,1689.6,2208.1Z" transform="translate(-1581.119 -2092.601)" fill="#6b3605" opacity="0.18"/>
      <g id="Grupo_1189055" data-name="Grupo 1189055" transform="translate(112.514 77.383)">
        <g id="Grupo_1189054" data-name="Grupo 1189054">
          <g id="Grupo_1189053" data-name="Grupo 1189053">
            <path id="Trazado_876090" data-name="Trazado 876090" d="M2042.85,2446.125l-11.681,1.04-.008.19c-2.132,1.58-4.116,3.241-5.038,5.838l7.453-1.4a12.042,12.042,0,0,0-2.317,2.848l10-1.9c2.89-.5,6.1-.608,8.839-1.718a7.5,7.5,0,0,0,3.148-2.4,1.19,1.19,0,0,0,.207-.471l-.041-.2-2.049-1.858a4.649,4.649,0,0,0-1.016-.864,3.2,3.2,0,0,0-.7-.056A47.277,47.277,0,0,1,2042.85,2446.125Z" transform="translate(-1884.351 -2329.442)" fill="#93480a"/>
            <path id="Trazado_876091" data-name="Trazado 876091" d="M1837.94,2429.13a7.238,7.238,0,0,1-1.062,2.792,3.191,3.191,0,0,1-2,1.359c-.629.1-1.273.1-1.9.232a8.108,8.108,0,0,0-4.839,2.851,11.16,11.16,0,0,0-1.612,3.072l5.989-1.1a18.325,18.325,0,0,0-1.51,3.107l6.651-1.179a29.1,29.1,0,0,1,3.188-.03,7.9,7.9,0,0,0,6.564-3.3,48.4,48.4,0,0,0,3.16-5.384l2.983-5.529a70.808,70.808,0,0,1-15.922-5.769A25.753,25.753,0,0,1,1837.94,2429.13Z" transform="translate(-1771.303 -2315.326)" fill="#93480a"/>
            <path id="Trazado_876092" data-name="Trazado 876092" d="M2075.449,2455.174c-2.926.543-6,.938-8.685,2.3a11,11,0,0,0-5.824,6.543l5.858-1.336a9.649,9.649,0,0,0-1.658,3.693,52.865,52.865,0,0,1,7.9-2.424c-.054.668-.839,1.392-.929,2.164-.032.271-.047.318.114.532a26.566,26.566,0,0,1,6.848-2.049l6.4-1.272a40.315,40.315,0,0,0,5.468-1.338c1.5-.525,3.292-1.316,4-2.838a6.139,6.139,0,0,0,.021-4.17l-.36-.209a.877.877,0,0,0-.625-.225c-.351-.018-.712.083-1.069.076l-4.869-.1c-2.52-.057-5.183-.469-7.7-.152-.576.073-1.146.044-1.719.1a17.268,17.268,0,0,0-2.448.587,1.273,1.273,0,0,1-.686-.057Z" transform="translate(-1904.07 -2334.58)" fill="#93480a"/>
            <path id="Trazado_876093" data-name="Trazado 876093" d="M1699.585,2278.6l-.231.036a10.257,10.257,0,0,0-.194,2.59,19.633,19.633,0,0,0,2.707,10.021,14.39,14.39,0,0,0,3.478,3.98,10.012,10.012,0,0,0,2.272,1.253,46.947,46.947,0,0,0,3.724,4.5,29.036,29.036,0,0,0,11.489,6.25l4.091,1.03a23.1,23.1,0,0,1,7.285,3.616c3.685,2.689,6.243,6.569,9.219,9.961a76.573,76.573,0,0,0,10.279,9.693l2.819-.421a25.235,25.235,0,0,0,5.293-1.753l.028-.069c-.507-.512-1.187-.908-1.736-1.386l-4.523-4.149a68.691,68.691,0,0,1-9.865-12.049,12.42,12.42,0,0,1-2.062-4.006c-6.965-1.351-13.479-3.518-19.206-7.841a27.472,27.472,0,0,1-4.037-3.558,11.7,11.7,0,0,1-1.245-1.287c-.794.352-2.962-.278-3.87-.522a13.855,13.855,0,0,1-8.2-5.911c-.616-.981-1.058-2.064-1.637-3.071a.561.561,0,0,1,.167-.113,24.56,24.56,0,0,0,3.7-2.592,8.921,8.921,0,0,0,2.845-3.289,1.923,1.923,0,0,0-.189-.872c-1.2-2.082-4.442-.948-6.208-.358a5.752,5.752,0,0,1-1.141.389,6.565,6.565,0,0,1-.959-.565,9.088,9.088,0,0,0-2.383-1.11A2.775,2.775,0,0,0,1699.585,2278.6Z" transform="translate(-1699.158 -2234.184)" fill="#e0c29b"/>
            <path id="Trazado_876094" data-name="Trazado 876094" d="M1699.585,2278.6l-.231.036a10.257,10.257,0,0,0-.194,2.59,19.633,19.633,0,0,0,2.707,10.021,14.39,14.39,0,0,0,3.478,3.98,10.012,10.012,0,0,0,2.272,1.253,6.223,6.223,0,0,1,1.246-.375,11.9,11.9,0,0,1,1.184.871,8.353,8.353,0,0,0,2.3.847,6.857,6.857,0,0,0,5-1.062l-1.943.34a7.285,7.285,0,0,1-5.533-1.6c-2.86-2.277-4.039-6.5-4.409-9.995a.561.561,0,0,1,.167-.113,24.56,24.56,0,0,0,3.7-2.592,8.921,8.921,0,0,0,2.845-3.289,1.923,1.923,0,0,0-.189-.872c-1.2-2.082-4.442-.948-6.208-.358a5.752,5.752,0,0,1-1.141.389,6.565,6.565,0,0,1-.959-.565,9.088,9.088,0,0,0-2.383-1.11A2.775,2.775,0,0,0,1699.585,2278.6Z" transform="translate(-1699.158 -2234.184)" fill="#9f540f"/>
            <path id="Trazado_876095" data-name="Trazado 876095" d="M1699.16,2283.318a19.633,19.633,0,0,0,2.707,10.02,14.391,14.391,0,0,0,3.478,3.98l.591-.4a3.856,3.856,0,0,0,.063-1.614,53.242,53.242,0,0,0-1.051-5.229c-.153-.791-.167-1.809-.4-2.55-.116-.371-1.678-1.41-2.079-1.755a7.158,7.158,0,0,1-2.885-5.08l-.231.036A10.259,10.259,0,0,0,1699.16,2283.318Z" transform="translate(-1699.158 -2236.277)" fill="#e0c29b"/>
            <path id="Trazado_876096" data-name="Trazado 876096" d="M1750.9,2197.138c-1.185.176-2.371.3-3.544.569l-6.564,1.734-.073.038c-1.225.607-2.688.976-3.974,1.457a84.938,84.938,0,0,0-7.851,3.329,73.76,73.76,0,0,0-10.176,6.074,79.242,79.242,0,0,0-12.883,11.555c-2.135,2.369-4.472,5.118-5.546,8.169a13.274,13.274,0,0,0-.686,3.023l.231-.036a2.773,2.773,0,0,1,1.705-1.6,9.118,9.118,0,0,1,2.382,1.11,6.57,6.57,0,0,0,.96.566,5.776,5.776,0,0,0,1.141-.39c1.766-.59,5.01-1.724,6.207.358a1.92,1.92,0,0,1,.189.872,8.925,8.925,0,0,1-2.845,3.29,24.526,24.526,0,0,1-3.7,2.592.555.555,0,0,0-.167.114c.579,1.006,1.021,2.09,1.637,3.071a13.855,13.855,0,0,0,8.2,5.911c.908.245,3.076.874,3.87.522a39.021,39.021,0,0,1-2.525-3.547,21,21,0,0,1-2.437-7.439c-.838-5.518,1.644-9.577,4.766-13.83,7.93-10.8,19.252-20.074,31.994-24.49a77.253,77.253,0,0,1,13.749-3.162,4.112,4.112,0,0,0,.393-.317l-.107-.1-11.325.4A7.26,7.26,0,0,0,1750.9,2197.138Z" transform="translate(-1699.413 -2188.634)" fill="#f9e4c5"/>
            <path id="Trazado_876097" data-name="Trazado 876097" d="M1740.724,2199.848c-1.225.606-2.688.975-3.974,1.456a84.946,84.946,0,0,0-7.851,3.33,73.687,73.687,0,0,0-10.176,6.074,79.226,79.226,0,0,0-12.883,11.555c-2.135,2.369-4.472,5.118-5.546,8.169a13.283,13.283,0,0,0-.686,3.023l.231-.036a2.773,2.773,0,0,1,1.705-1.6,9.723,9.723,0,0,1,1.1-2.173,62.751,62.751,0,0,1,12.334-13.61,88.232,88.232,0,0,1,22.939-14.144c2.082-.877,4.153-1.734,6.307-2.422,3.195-1.02,6.447-1.421,9.708-2.124a7.268,7.268,0,0,0-3.027.164c-1.185.176-2.371.3-3.544.569l-6.564,1.734Z" transform="translate(-1699.413 -2189.004)" fill="#de7604"/>
            <path id="Trazado_876098" data-name="Trazado 876098" d="M1801.164,2187.332c1.172-.264,2.359-.393,3.544-.569a7.259,7.259,0,0,1,3.027-.164l11.325-.4.107.1a4.108,4.108,0,0,1-.394.317c-2.333,2.332-5.933,5.153-5.943,8.791-.006,2.06.092,3.51,1.616,5.019,1.859,1.841,4.448,2.251,6.721,3.352a40.86,40.86,0,0,1,3.552,2.315,22.755,22.755,0,0,0,12.077,3.284c2.285-.02,5.262-.607,7-2.221l-.437-1.114a5.41,5.41,0,0,0,1.274-2.785c.252-1.917-.427-3.9.654-5.664s2.954-2.888,4.328-4.387l.084-.094-.094-.227-.737-.984-.041-.065a16.953,16.953,0,0,0-3-3.273,24.2,24.2,0,0,0-11-5.818,17.521,17.521,0,0,0-13.861,2.315,27.442,27.442,0,0,0-10.5-6.2c-3.086-.861-6.114-.93-8.955.687a15.758,15.758,0,0,0-6.909,9.519Z" transform="translate(-1753.216 -2178.26)" fill="#ba610a"/>
            <path id="Trazado_876099" data-name="Trazado 876099" d="M1856.828,2206.073c4.791-2.962,9.789-3.062,15.129-1.679,1.357.352,2.664.888,4.021,1.21l-.737-.984-.067,0a4.393,4.393,0,0,1-1.5-.735l-2.465-1.2c-5.119-2.349-12.173-3.134-16.789.68-2.868,2.368-7.165,8.976-11.237,8.646-.7-.057-1.348-.394-2.019-.449a8.234,8.234,0,0,0,6.416,1.911,4.837,4.837,0,0,0,1.635-.443C1852.076,2211.064,1853.848,2207.915,1856.828,2206.073Z" transform="translate(-1779.592 -2190.976)" fill="#9f540f"/>
            <path id="Trazado_876100" data-name="Trazado 876100" d="M1862.25,2216.5l5.445-.739a26.982,26.982,0,0,1-2.014,3.179c3.031,1.845,5.62,3.719,9.2,4.4a8.067,8.067,0,0,0,3.575.039,8.286,8.286,0,0,0,1.792-.925,5.41,5.41,0,0,0,1.274-2.785c.252-1.917-.427-3.9.654-5.663s2.954-2.888,4.328-4.387l.084-.094-.095-.227c-1.358-.323-2.665-.859-4.021-1.21-5.34-1.384-10.338-1.283-15.129,1.678-2.979,1.842-4.752,4.992-7.608,6.952A7.027,7.027,0,0,0,1862.25,2216.5Z" transform="translate(-1790.109 -2194.664)" fill="#de7604"/>
            <path id="Trazado_876101" data-name="Trazado 876101" d="M2041.936,2295.168c-1.443.785-3.5.983-5.093,1.458a56.725,56.725,0,0,0-7.748,2.993c-11.183,5.254-20.654,14.549-27.255,24.908a52.061,52.061,0,0,0-6,12.488,22.826,22.826,0,0,0-.831,3.438,19.788,19.788,0,0,1-.344,2.676,6.378,6.378,0,0,1-.882,1.539,16.785,16.785,0,0,1-6.19,5.649c-6.792,3.6-14.979,4.429-22.532,3.652a42.6,42.6,0,0,1-8.461-1.635c-2.256-.708-4.6-1.827-5.756-4.012s-.757-4.187-.335-6.474a20.631,20.631,0,0,0-1.75,3.543l-5.059,10.09c-.765,1.515-1.768,2.891-2.535,4.411a181.439,181.439,0,0,0,29.632,2.446l8.315-.026a28.618,28.618,0,0,1,3.938-.134l11.681-1.04a47.275,47.275,0,0,0,6.794-.945,3.242,3.242,0,0,1,.7.056,4.645,4.645,0,0,1,1.016.864l2.049,1.858.041.2a5.37,5.37,0,0,1,2.318,1.713,1.278,1.278,0,0,0,.686.057,17.3,17.3,0,0,1,2.448-.587c.573-.061,1.143-.032,1.719-.105,2.515-.317,5.177.1,7.7.153l4.869.1c.358.007.719-.094,1.069-.075a.877.877,0,0,1,.626.224l.442-.067a7.883,7.883,0,0,1,1.325-3.389,37.135,37.135,0,0,1,4.721-5.172,65.014,65.014,0,0,0,5.88-6.611c8-10.623,10.232-23.842,8.384-36.808a64.977,64.977,0,0,0-1.76-8.158c-.221-.8-.4-2.168-1.075-2.672a2.016,2.016,0,0,0,.109-.384,4.471,4.471,0,0,0-.331-1.056c-.438-1.274-.89-2.562-1.445-3.79-.221-.485-.49-1.208-1.016-1.406Z" transform="translate(-1836.228 -2244.457)" fill="#b55b09"/>
            <path id="Trazado_876102" data-name="Trazado 876102" d="M2117.193,2321.267c-.047.916,0,1.837-.129,2.748a60.37,60.37,0,0,1-1.564,8.963c-2.712,9.224-7.882,18.488-15.617,24.427-5.184,3.979-11.062,6.711-17.654,7.095a15.847,15.847,0,0,1-2.837.055l-.322-.067c-.425-.09-.891-.073-1.324-.131a13.882,13.882,0,0,1-3.378-.81,13.627,13.627,0,0,1-4.783-2.933,9.112,9.112,0,0,0-1.412-1.451,25.935,25.935,0,0,0,3.481,6.451c.4.549,2.331,2.673,2.309,3.117l-.5.131a3.168,3.168,0,0,1,.7.056,4.662,4.662,0,0,1,1.016.863l2.048,1.858.041.2a5.367,5.367,0,0,1,2.318,1.713,1.283,1.283,0,0,0,.686.057,17.193,17.193,0,0,1,2.448-.587c.573-.061,1.143-.032,1.719-.1,2.515-.318,5.178.094,7.7.152l4.869.1c.358.007.718-.094,1.069-.076a.874.874,0,0,1,.625.224l.442-.067a7.877,7.877,0,0,1,1.326-3.388,37.094,37.094,0,0,1,4.721-5.173,65.093,65.093,0,0,0,5.88-6.611c8-10.623,10.232-23.843,8.384-36.808a65.08,65.08,0,0,0-1.76-8.158c-.221-.8-.4-2.169-1.076-2.672A53.542,53.542,0,0,1,2117.193,2321.267Z" transform="translate(-1908.166 -2253.124)" fill="#a55a1c"/>
            <path id="Trazado_876103" data-name="Trazado 876103" d="M1739.855,2251.294a27.5,27.5,0,0,0,4.037,3.558c5.727,4.323,12.24,6.49,19.206,7.841,10.967,1.609,25.235-1.284,34.393-7.64a9.357,9.357,0,0,0,2.006-1.489,30.572,30.572,0,0,0,11.228-29.139,54.25,54.25,0,0,0-1.548-6.346c-1.735,1.615-4.712,2.2-7,2.221a22.755,22.755,0,0,1-12.077-3.284,40.794,40.794,0,0,0-3.553-2.315c-2.272-1.1-4.862-1.511-6.721-3.352-1.524-1.509-1.622-2.958-1.616-5.019.011-3.638,3.61-6.459,5.944-8.791a77.319,77.319,0,0,0-13.749,3.162c-12.742,4.416-24.064,13.688-31.994,24.49-3.123,4.253-5.6,8.311-4.766,13.83a21.005,21.005,0,0,0,2.438,7.438,39.047,39.047,0,0,0,2.525,3.547A11.62,11.62,0,0,0,1739.855,2251.294Z" transform="translate(-1718.6 -2189.179)" fill="#de7604"/>
            <path id="Trazado_876104" data-name="Trazado 876104" d="M1752.216,2325.069c5.727,4.324,12.24,6.49,19.205,7.841,10.967,1.609,25.235-1.284,34.393-7.64-.494-.288-1.115.045-1.616.217-2.594.887-5.108,1.828-7.764,2.537a61.434,61.434,0,0,1-18.844,1.914,70,70,0,0,1-20.074-4.234,49.521,49.521,0,0,1-7.886-3.62,3.21,3.21,0,0,0-1.452-.573A27.478,27.478,0,0,0,1752.216,2325.069Z" transform="translate(-1726.923 -2259.396)" fill="#ba610a"/>
            <path id="Trazado_876105" data-name="Trazado 876105" d="M1791.759,2237.224a7.392,7.392,0,0,0-1.635,5.6,7.26,7.26,0,0,0,2.816,4.722,9.466,9.466,0,0,0,5.925,1.841,8.661,8.661,0,0,0,6.148-2.808,7.629,7.629,0,0,0,1.744-5.746,7.966,7.966,0,0,0-2.936-5.117,8.265,8.265,0,0,0-5.479-1.662l-.064.008A9.319,9.319,0,0,0,1791.759,2237.224Z" transform="translate(-1750.651 -2209.848)" fill="#763b05"/>
            <path id="Trazado_876106" data-name="Trazado 876106" d="M1797.6,2241.774a5.379,5.379,0,0,0-.246,4.09,5.1,5.1,0,0,0,2.885,3.013,5.756,5.756,0,0,0,2.549.378,5.019,5.019,0,0,0,3.374-2.427,5.435,5.435,0,0,0,.164-4.181,5.349,5.349,0,0,0-2.59-3.072,5.666,5.666,0,0,0-2.877-.47A5.061,5.061,0,0,0,1797.6,2241.774Z" transform="translate(-1754.609 -2212.713)" fill="#070605"/>
            <path id="Trazado_876107" data-name="Trazado 876107" d="M1813.39,2253.92c.208.311.292.464.684.547a1.832,1.832,0,0,0,.44.014c.211-.421.4-.593.277-1.058a1.309,1.309,0,0,0-1.029-.448A1.833,1.833,0,0,0,1813.39,2253.92Z" transform="translate(-1763.859 -2220.578)" fill="#fefefe"/>
            <path id="Trazado_876108" data-name="Trazado 876108" d="M1800.406,2243.164a1.952,1.952,0,0,0,.271,1.512,2.287,2.287,0,0,0,1.3.992,3.91,3.91,0,0,0,1.037-.03,2.562,2.562,0,0,0,1.455-1.577,1.87,1.87,0,0,0-.234-1.412,2.32,2.32,0,0,0-1.4-1.056,3.209,3.209,0,0,0-1.014,0C1801.133,2242.014,1800.618,2242.327,1800.406,2243.164Z" transform="translate(-1756.475 -2214.109)" fill="#fefefe"/>
            <path id="Trazado_876109" data-name="Trazado 876109" d="M1853.681,2211.659c-1.374,1.5-3.239,2.617-4.328,4.387s-.4,3.746-.654,5.663a5.409,5.409,0,0,1-1.274,2.785l.437,1.114a54.23,54.23,0,0,1,1.548,6.346,30.575,30.575,0,0,1-11.228,29.14,9.357,9.357,0,0,1-2.006,1.488c-9.158,6.356-23.427,9.249-34.393,7.64a12.422,12.422,0,0,0,2.062,4.007,68.714,68.714,0,0,0,9.865,12.049l4.523,4.149c.549.478,1.229.874,1.736,1.386l-.029.069a25.236,25.236,0,0,1-5.293,1.753l-2.819.422,11.789,7.583a70.784,70.784,0,0,0,15.922,5.769l5.409,1.039c.289,2.972.593,8.928-1.357,11.254a3.447,3.447,0,0,1-1.978,1c-2.33.627-4.565,1.255-6.2,3.176a14.274,14.274,0,0,0-1.911,3.246l4.368-.87a6.806,6.806,0,0,1,1.792-.3l-.869,2.359a2.212,2.212,0,0,0-.257.783,22.941,22.941,0,0,1,4.283-1.078l5.395-.6c2.1-.219,4.31-.248,6.05-1.594,1.861-1.44,3.017-3.738,4.024-5.817l2.163-4.538a30.29,30.29,0,0,0,1.761-3.322c.767-1.52,1.77-2.9,2.535-4.41l5.059-10.091a20.65,20.65,0,0,1,1.75-3.543c-.423,2.288-.816,4.3.335,6.475s3.5,3.3,5.756,4.012a42.562,42.562,0,0,0,8.462,1.634c7.553.777,15.74-.051,22.532-3.651a16.8,16.8,0,0,0,6.19-5.65,6.368,6.368,0,0,0,.882-1.539,19.775,19.775,0,0,0,.344-2.675,22.731,22.731,0,0,1,.831-3.439,52.072,52.072,0,0,1,6-12.488c6.6-10.36,16.072-19.655,27.255-24.909a56.641,56.641,0,0,1,7.748-2.992c1.588-.475,3.649-.673,5.093-1.458l.06-.034c.1-.611-.359-1.168-.675-1.682l-2.5-3.813a59.727,59.727,0,0,0-20.681-17.375,74.52,74.52,0,0,0-8.638-3.971,59.518,59.518,0,0,0-22.561-3.724l-10.552.893-12.266,1.094a82.2,82.2,0,0,1-18.665-.484,20.4,20.4,0,0,1-1.007-1.923,12.874,12.874,0,0,0-5.446-4.725,7.767,7.767,0,0,0-4.509-.746,12.106,12.106,0,0,0-1.792.633Z" transform="translate(-1757.285 -2196.709)" fill="#de7604"/>
            <path id="Trazado_876110" data-name="Trazado 876110" d="M1827.772,2399.505l-2.819.422,11.789,7.583a70.828,70.828,0,0,0,15.922,5.769l5.409,1.039a15.086,15.086,0,0,0-2.446-7.088,23.077,23.077,0,0,0-2.805-3.078l-2.706-2.834a12.094,12.094,0,0,0,3.843,5.9,6.439,6.439,0,0,1-1.772-.288,47.169,47.169,0,0,1-14.993-6.277,30.439,30.439,0,0,1-2.506-1.737,8.692,8.692,0,0,0-1.623-1.167A25.206,25.206,0,0,1,1827.772,2399.505Z" transform="translate(-1770.408 -2302.58)" fill="#ba610a"/>
            <path id="Trazado_876111" data-name="Trazado 876111" d="M1853.681,2211.659c-1.374,1.5-3.239,2.617-4.328,4.387s-.4,3.746-.654,5.663a5.409,5.409,0,0,1-1.274,2.785l.437,1.114a54.23,54.23,0,0,1,1.548,6.346,30.575,30.575,0,0,1-11.228,29.14,9.357,9.357,0,0,1-2.006,1.488c-9.158,6.356-23.427,9.249-34.393,7.64a12.422,12.422,0,0,0,2.062,4.007,68.714,68.714,0,0,0,9.865,12.049l4.523,4.149c.549.478,1.229.874,1.736,1.386a9.483,9.483,0,0,0,2.313-1.181,21.581,21.581,0,0,0,6.363-6.074,19.686,19.686,0,0,1-3.931,8.224l1.029-.349c4.911-1.793,9.012-4.969,13.055-8.189a55.125,55.125,0,0,0,7.414-6.721,35.556,35.556,0,0,0,4.962-7.468,21.6,21.6,0,0,0,1.747-4.828,17.054,17.054,0,0,1,.785-3.239,16.061,16.061,0,0,1,.134,3.135,26.313,26.313,0,0,1-.49,5.586,37.053,37.053,0,0,1-2.6,7.088l.1-.022a6.084,6.084,0,0,0,.951-.743l2.413-1.923c6.206-5.013,12.015-10.385,15.252-17.843,4.5-10.357,4.011-22.021.128-32.483a29.209,29.209,0,0,0-1.518-3.458,29.931,29.931,0,0,1-1.554-3,20.4,20.4,0,0,1-1.007-1.923,12.874,12.874,0,0,0-5.446-4.725,7.767,7.767,0,0,0-4.509-.746,12.106,12.106,0,0,0-1.792.633Z" transform="translate(-1757.285 -2196.709)" fill="#f9e4c5"/>
          </g>
        </g>
      </g>
      <path id="Trazado_876112" data-name="Trazado 876112" d="M1595.182,2316.677a9.637,9.637,0,0,0-.5-2.186,18.833,18.833,0,0,0-4.01-5.907,57.288,57.288,0,0,0-9.315-8.354,53.347,53.347,0,0,0-7.358-4.393,61.439,61.439,0,0,0-5.676-2.407c-.931-.348-1.988-.615-2.874-1.053l-.053-.027a11.392,11.392,0,0,0-5-6.883,8.149,8.149,0,0,0-6.475-.5,19.833,19.833,0,0,0-7.592,4.486,12.671,12.671,0,0,0-10.022-1.675,17.5,17.5,0,0,0-7.951,4.207,12.246,12.246,0,0,0-2.172,2.366l-.03.047-.533.713-.068.164a8.777,8.777,0,0,0-1.3-.458,5.623,5.623,0,0,0-3.26.539,9.308,9.308,0,0,0-3.937,3.417,14.633,14.633,0,0,1-.729,1.39,59.444,59.444,0,0,1-13.5.35l-8.868-.791-7.63-.646a43.016,43.016,0,0,0-16.313,2.693,53.819,53.819,0,0,0-6.246,2.87,43.191,43.191,0,0,0-14.954,12.563l-1.8,2.757c-.228.372-.557.774-.488,1.216-.38.144-.575.666-.735,1.017-.4.887-.728,1.819-1.045,2.74a3.192,3.192,0,0,0-.24.763,1.487,1.487,0,0,0,.079.277c-.487.365-.618,1.353-.777,1.933a47.052,47.052,0,0,0-1.273,5.9c-1.336,9.375.28,18.934,6.062,26.615a47.081,47.081,0,0,0,4.252,4.78,26.831,26.831,0,0,1,3.414,3.74,5.691,5.691,0,0,1,.958,2.45l.32.049-.261.151a4.44,4.44,0,0,0,.016,3.015,4.747,4.747,0,0,0,2.893,2.052,29.123,29.123,0,0,0,3.954.967l4.631.919a19.216,19.216,0,0,1,4.951,1.481c.116-.155.106-.189.083-.385-.065-.558-.633-1.082-.672-1.565a38.311,38.311,0,0,1,5.71,1.753,6.962,6.962,0,0,0-1.2-2.671l4.236.967a7.958,7.958,0,0,0-4.212-4.731,22.994,22.994,0,0,0-6.28-1.661l-.029-.123a3.877,3.877,0,0,1,1.675-1.238.881.881,0,0,0,.149.341,5.433,5.433,0,0,0,2.276,1.734c1.981.8,4.3.883,6.391,1.241l7.229,1.373a8.712,8.712,0,0,0-1.675-2.06l5.389,1.014a9.282,9.282,0,0,0-3.643-4.222l-.005-.138a20.835,20.835,0,0,1,2.847.1l6.012.019a131.226,131.226,0,0,0,21.427-1.769,21.91,21.91,0,0,0,1.273,2.4l1.564,3.281a11.463,11.463,0,0,0,2.91,4.206c1.258.974,2.858.994,4.374,1.153l3.9.431a16.688,16.688,0,0,1,3.1.779,1.586,1.586,0,0,0-.186-.566l-.628-1.706a4.926,4.926,0,0,1,1.3.219l3.158.628a10.342,10.342,0,0,0-1.382-2.347c-1.179-1.388-2.8-1.843-4.48-2.3a2.487,2.487,0,0,1-1.43-.722c-1.411-1.681-1.19-5.989-.982-8.138l3.911-.751,2.157,4a35.018,35.018,0,0,0,2.285,3.893,5.715,5.715,0,0,0,4.746,2.384,21.157,21.157,0,0,1,2.305.022l4.809.852a13.273,13.273,0,0,0-1.091-2.246l4.329.794a8.054,8.054,0,0,0-1.165-2.221,5.858,5.858,0,0,0-3.5-2.062c-.453-.092-.917-.1-1.372-.167a2.309,2.309,0,0,1-1.443-.983,5.231,5.231,0,0,1-.767-2.019,18.609,18.609,0,0,1,.219-6.415l8.525-5.483a55.383,55.383,0,0,0,7.432-7.009c2.151-2.453,4-5.258,6.666-7.2a16.684,16.684,0,0,1,5.267-2.614l2.958-.745a20.993,20.993,0,0,0,8.307-4.52,33.967,33.967,0,0,0,2.693-3.255,7.242,7.242,0,0,0,1.643-.906,10.41,10.41,0,0,0,2.514-2.877,14.2,14.2,0,0,0,1.957-7.246A7.411,7.411,0,0,0,1595.182,2316.677Z" transform="translate(-1441.053 -2161.072)" fill="#6b3605" opacity="0.18"/>
      <g id="Grupo_1189058" data-name="Grupo 1189058" transform="translate(0 128.046)">
        <g id="Grupo_1189057" data-name="Grupo 1189057">
          <g id="Grupo_1189056" data-name="Grupo 1189056">
            <path id="Trazado_876113" data-name="Trazado 876113" d="M1518.7,2488.784l8.446.751.005.137a9.282,9.282,0,0,1,3.643,4.222l-5.389-1.014a8.7,8.7,0,0,1,1.675,2.059l-7.229-1.373c-2.089-.358-4.411-.439-6.391-1.241a5.427,5.427,0,0,1-2.276-1.734.87.87,0,0,1-.149-.341l.03-.143,1.481-1.343a3.349,3.349,0,0,1,.734-.624,2.325,2.325,0,0,1,.508-.041A34.219,34.219,0,0,0,1518.7,2488.784Z" transform="translate(-1480.092 -2404.415)" fill="#93480a"/>
            <path id="Trazado_876114" data-name="Trazado 876114" d="M1667.148,2476.495a5.227,5.227,0,0,0,.768,2.019,2.305,2.305,0,0,0,1.443.982c.455.072.92.075,1.373.167a5.86,5.86,0,0,1,3.5,2.062,8.054,8.054,0,0,1,1.165,2.221l-4.329-.793a13.255,13.255,0,0,1,1.091,2.245l-4.809-.852a21.093,21.093,0,0,0-2.3-.022,5.714,5.714,0,0,1-4.746-2.384,35.05,35.05,0,0,1-2.285-3.893l-2.157-4a51.208,51.208,0,0,0,11.513-4.17A18.6,18.6,0,0,0,1667.148,2476.495Z" transform="translate(-1562.117 -2394.208)" fill="#93480a"/>
            <path id="Trazado_876115" data-name="Trazado 876115" d="M1488.47,2495.327a23,23,0,0,1,6.279,1.661,7.96,7.96,0,0,1,4.212,4.732l-4.236-.967a6.964,6.964,0,0,1,1.2,2.67,38.357,38.357,0,0,0-5.71-1.753c.039.483.607,1.007.672,1.565.024.2.034.23-.082.385a19.23,19.23,0,0,0-4.952-1.482l-4.631-.919a29.1,29.1,0,0,1-3.954-.967,4.749,4.749,0,0,1-2.893-2.052,4.436,4.436,0,0,1-.016-3.015l.261-.152a.641.641,0,0,1,.453-.162c.253-.013.514.059.773.055l3.521-.071a38.155,38.155,0,0,1,5.566-.11c.416.052.829.031,1.242.076a12.338,12.338,0,0,1,1.77.424.929.929,0,0,0,.5-.041Z" transform="translate(-1459.174 -2408.13)" fill="#93480a"/>
            <path id="Trazado_876116" data-name="Trazado 876116" d="M1733.507,2367.652l.167.026a7.434,7.434,0,0,1,.141,1.873,14.207,14.207,0,0,1-1.958,7.246,10.416,10.416,0,0,1-2.514,2.878,7.238,7.238,0,0,1-1.643.906,33.833,33.833,0,0,1-2.693,3.255,20.989,20.989,0,0,1-8.307,4.519l-2.958.745a16.7,16.7,0,0,0-5.267,2.615c-2.665,1.945-4.514,4.75-6.666,7.2a55.389,55.389,0,0,1-7.433,7.009l-2.039-.305a18.236,18.236,0,0,1-3.827-1.267l-.02-.05c.367-.371.858-.656,1.255-1l3.271-3a49.669,49.669,0,0,0,7.133-8.712,8.985,8.985,0,0,0,1.491-2.9c5.036-.978,9.746-2.544,13.887-5.67a19.839,19.839,0,0,0,2.919-2.573,8.408,8.408,0,0,0,.9-.93c.575.255,2.142-.2,2.8-.378a10.01,10.01,0,0,0,5.931-4.275c.446-.708.766-1.492,1.184-2.219a.411.411,0,0,0-.121-.082,17.784,17.784,0,0,1-2.675-1.874,6.451,6.451,0,0,1-2.057-2.379,1.382,1.382,0,0,1,.136-.63c.865-1.506,3.212-.686,4.489-.259a4.2,4.2,0,0,0,.825.281,4.742,4.742,0,0,0,.694-.409,6.557,6.557,0,0,1,1.722-.8A2,2,0,0,1,1733.507,2367.652Z" transform="translate(-1580.602 -2335.537)" fill="#e0c29b"/>
            <path id="Trazado_876117" data-name="Trazado 876117" d="M1775.539,2367.652l.167.026a7.434,7.434,0,0,1,.141,1.873,14.2,14.2,0,0,1-1.958,7.246,10.416,10.416,0,0,1-2.514,2.878,7.243,7.243,0,0,1-1.643.906,4.546,4.546,0,0,0-.9-.271,8.535,8.535,0,0,0-.856.63,6.025,6.025,0,0,1-1.664.612,4.961,4.961,0,0,1-3.612-.768l1.4.246a5.27,5.27,0,0,0,4-1.154c2.068-1.647,2.92-4.7,3.188-7.227a.407.407,0,0,0-.121-.082,17.772,17.772,0,0,1-2.675-1.874,6.454,6.454,0,0,1-2.057-2.379,1.379,1.379,0,0,1,.137-.63c.865-1.506,3.212-.686,4.489-.259a4.193,4.193,0,0,0,.825.281,4.741,4.741,0,0,0,.694-.409,6.559,6.559,0,0,1,1.723-.8A2,2,0,0,1,1775.539,2367.652Z" transform="translate(-1622.633 -2335.537)" fill="#9f540f"/>
            <path id="Trazado_876118" data-name="Trazado 876118" d="M1786.51,2371.064a14.207,14.207,0,0,1-1.958,7.246,10.425,10.425,0,0,1-2.514,2.878l-.427-.29a2.774,2.774,0,0,1-.046-1.167,38.4,38.4,0,0,1,.76-3.781c.11-.572.121-1.307.288-1.843.084-.268,1.213-1.02,1.5-1.269a5.173,5.173,0,0,0,2.087-3.673l.167.026A7.417,7.417,0,0,1,1786.51,2371.064Z" transform="translate(-1633.297 -2337.051)" fill="#e0c29b"/>
            <path id="Trazado_876119" data-name="Trazado 876119" d="M1693.5,2308.751c.857.127,1.714.22,2.562.411l4.746,1.254.053.027c.886.438,1.943.705,2.874,1.053a61.548,61.548,0,0,1,5.676,2.408,53.315,53.315,0,0,1,7.358,4.392,57.268,57.268,0,0,1,9.315,8.355,18.817,18.817,0,0,1,4.01,5.907,9.6,9.6,0,0,1,.5,2.185l-.167-.026a2,2,0,0,0-1.233-1.159,6.575,6.575,0,0,0-1.723.8,4.743,4.743,0,0,1-.694.409,4.234,4.234,0,0,1-.825-.281c-1.277-.427-3.623-1.247-4.489.259a1.386,1.386,0,0,0-.136.631,6.446,6.446,0,0,0,2.057,2.378,17.758,17.758,0,0,0,2.675,1.875.4.4,0,0,1,.121.081c-.419.728-.738,1.511-1.184,2.22a10.01,10.01,0,0,1-5.932,4.274c-.657.177-2.224.632-2.8.378a28.4,28.4,0,0,0,1.826-2.564,15.182,15.182,0,0,0,1.762-5.379c.606-3.99-1.188-6.924-3.446-10-5.735-7.811-13.921-14.515-23.134-17.708a55.85,55.85,0,0,0-9.941-2.287,2.955,2.955,0,0,1-.284-.229l.077-.073,8.189.288A5.254,5.254,0,0,1,1693.5,2308.751Z" transform="translate(-1577.519 -2302.602)" fill="#f9e4c5"/>
            <path id="Trazado_876120" data-name="Trazado 876120" d="M1711.658,2310.709c.885.438,1.943.706,2.873,1.053a61.366,61.366,0,0,1,5.677,2.408,53.292,53.292,0,0,1,7.358,4.392,57.343,57.343,0,0,1,9.315,8.354,18.832,18.832,0,0,1,4.01,5.907,9.642,9.642,0,0,1,.5,2.186l-.167-.026a2.005,2.005,0,0,0-1.233-1.159,7.034,7.034,0,0,0-.8-1.571,45.36,45.36,0,0,0-8.919-9.841,63.8,63.8,0,0,0-16.586-10.227c-1.505-.634-3-1.253-4.56-1.751-2.31-.738-4.662-1.028-7.019-1.535a5.25,5.25,0,0,1,2.189.118c.857.127,1.714.22,2.562.411l4.746,1.254Z" transform="translate(-1588.315 -2302.869)" fill="#de7604"/>
            <path id="Trazado_876121" data-name="Trazado 876121" d="M1667.226,2301.661c-.848-.191-1.705-.284-2.562-.411a5.247,5.247,0,0,0-2.189-.119l-8.189-.287-.077.072a2.862,2.862,0,0,0,.285.229c1.686,1.686,4.29,3.726,4.3,6.356,0,1.49-.067,2.539-1.169,3.629-1.344,1.331-3.216,1.629-4.859,2.423a29.753,29.753,0,0,0-2.569,1.675,16.458,16.458,0,0,1-8.733,2.375A7.926,7.926,0,0,1,1636.4,2316l.316-.8a3.914,3.914,0,0,1-.921-2.013c-.182-1.386.309-2.824-.473-4.1s-2.136-2.088-3.129-3.173l-.061-.067.068-.164.533-.712.029-.047a12.233,12.233,0,0,1,2.172-2.367,17.5,17.5,0,0,1,7.951-4.207,12.669,12.669,0,0,1,10.022,1.674,19.847,19.847,0,0,1,7.592-4.486,8.154,8.154,0,0,1,6.475.5,11.393,11.393,0,0,1,5,6.884Z" transform="translate(-1548.682 -2295.101)" fill="#ba610a"/>
            <path id="Trazado_876122" data-name="Trazado 876122" d="M1646.139,2315.211c-3.464-2.142-7.078-2.214-10.939-1.214-.981.254-1.926.642-2.908.875l.533-.712h.049a3.17,3.17,0,0,0,1.082-.531l1.783-.868c3.7-1.7,8.8-2.267,12.139.491,2.073,1.712,5.18,6.49,8.125,6.252.509-.041.974-.285,1.459-.325a5.954,5.954,0,0,1-4.64,1.382,3.491,3.491,0,0,1-1.182-.321C1649.574,2318.82,1648.293,2316.543,1646.139,2315.211Z" transform="translate(-1548.771 -2304.295)" fill="#9f540f"/>
            <path id="Trazado_876123" data-name="Trazado 876123" d="M1649.733,2322.75l-3.937-.535a19.577,19.577,0,0,0,1.456,2.3c-2.192,1.333-4.063,2.688-6.653,3.178a5.842,5.842,0,0,1-2.585.029,6,6,0,0,1-1.3-.669,3.912,3.912,0,0,1-.921-2.013c-.182-1.386.309-2.824-.473-4.1s-2.136-2.088-3.129-3.172l-.061-.068.068-.164c.982-.233,1.927-.621,2.908-.875,3.861-1,7.475-.928,10.94,1.213,2.154,1.332,3.436,3.609,5.5,5.027A5.08,5.08,0,0,1,1649.733,2322.75Z" transform="translate(-1548.682 -2306.962)" fill="#de7604"/>
            <path id="Trazado_876124" data-name="Trazado 876124" d="M1444.147,2379.633a20.076,20.076,0,0,0,3.682,1.054,41.052,41.052,0,0,1,5.6,2.164c8.086,3.8,14.934,10.52,19.707,18.01a37.64,37.64,0,0,1,4.341,9.029,16.5,16.5,0,0,1,.6,2.486,14.35,14.35,0,0,0,.249,1.935,4.565,4.565,0,0,0,.638,1.113,12.137,12.137,0,0,0,4.476,4.085c4.911,2.6,10.83,3.2,16.292,2.641a30.874,30.874,0,0,0,6.118-1.182,6.7,6.7,0,0,0,4.162-2.9c.832-1.574.548-3.028.242-4.682a14.856,14.856,0,0,1,1.266,2.563l3.658,7.3c.553,1.095,1.278,2.09,1.833,3.189a131.246,131.246,0,0,1-21.426,1.769l-6.012-.019a20.877,20.877,0,0,0-2.847-.1l-8.447-.751a34.328,34.328,0,0,1-4.912-.684,2.321,2.321,0,0,0-.508.041,3.351,3.351,0,0,0-.735.624l-1.481,1.343-.03.142a3.884,3.884,0,0,0-1.676,1.239.933.933,0,0,1-.5.042,12.361,12.361,0,0,0-1.77-.425c-.414-.044-.826-.023-1.243-.076a38.153,38.153,0,0,0-5.566.11l-3.52.071c-.259.005-.52-.067-.773-.055a.639.639,0,0,0-.453.163l-.319-.049a5.7,5.7,0,0,0-.958-2.45,26.824,26.824,0,0,0-3.414-3.74,46.965,46.965,0,0,1-4.252-4.78c-5.782-7.681-7.4-17.239-6.062-26.615a47.018,47.018,0,0,1,1.272-5.9c.16-.58.291-1.568.777-1.932a1.549,1.549,0,0,1-.079-.276,3.228,3.228,0,0,1,.24-.764c.316-.921.643-1.853,1.045-2.741.159-.351.355-.873.734-1.016Z" transform="translate(-1439.673 -2342.965)" fill="#b55b09"/>
            <path id="Trazado_876125" data-name="Trazado 876125" d="M1441.747,2398.5c.034.663,0,1.329.093,1.988a43.594,43.594,0,0,0,1.131,6.48c1.962,6.67,5.7,13.369,11.292,17.663a23.119,23.119,0,0,0,12.765,5.13,11.489,11.489,0,0,0,2.051.039l.233-.048c.307-.066.644-.053.957-.095a10.03,10.03,0,0,0,2.442-.586,9.833,9.833,0,0,0,3.458-2.12,6.6,6.6,0,0,1,1.022-1.049,18.774,18.774,0,0,1-2.517,4.665c-.288.4-1.686,1.933-1.67,2.254l.363.094a2.351,2.351,0,0,0-.508.041,3.341,3.341,0,0,0-.735.625l-1.481,1.343-.03.142a3.878,3.878,0,0,0-1.676,1.238.924.924,0,0,1-.5.042,12.526,12.526,0,0,0-1.77-.425c-.414-.044-.826-.023-1.243-.075a38.05,38.05,0,0,0-5.566.109l-3.52.072c-.259,0-.52-.068-.773-.055a.635.635,0,0,0-.453.162l-.319-.049a5.7,5.7,0,0,0-.958-2.45,26.82,26.82,0,0,0-3.414-3.74,47,47,0,0,1-4.252-4.781c-5.782-7.68-7.4-17.239-6.062-26.614a47.034,47.034,0,0,1,1.272-5.9c.16-.58.291-1.568.777-1.932A38.645,38.645,0,0,0,1441.747,2398.5Z" transform="translate(-1439.673 -2349.232)" fill="#a55a1c"/>
            <path id="Trazado_876126" data-name="Trazado 876126" d="M1690.278,2347.909a19.856,19.856,0,0,1-2.919,2.573c-4.141,3.126-8.85,4.692-13.887,5.67-7.929,1.163-18.246-.928-24.868-5.524a6.781,6.781,0,0,1-1.45-1.076,22.108,22.108,0,0,1-8.119-21.07,39.21,39.21,0,0,1,1.12-4.589,7.927,7.927,0,0,0,5.059,1.606,16.457,16.457,0,0,0,8.733-2.374,29.643,29.643,0,0,1,2.569-1.675c1.643-.795,3.514-1.092,4.859-2.423,1.1-1.091,1.173-2.139,1.169-3.629-.008-2.63-2.611-4.67-4.3-6.356a55.914,55.914,0,0,1,9.941,2.287c9.213,3.193,17.4,9.9,23.134,17.708,2.257,3.075,4.052,6.01,3.446,10a15.183,15.183,0,0,1-1.762,5.379,28.3,28.3,0,0,1-1.826,2.564A8.38,8.38,0,0,1,1690.278,2347.909Z" transform="translate(-1552.434 -2302.997)" fill="#de7604"/>
            <path id="Trazado_876127" data-name="Trazado 876127" d="M1700.22,2401.252c-4.141,3.126-8.85,4.693-13.887,5.67-7.929,1.163-18.246-.928-24.868-5.524.357-.208.807.032,1.168.157,1.875.642,3.693,1.322,5.614,1.835a44.432,44.432,0,0,0,13.625,1.384,50.636,50.636,0,0,0,14.515-3.062,35.814,35.814,0,0,0,5.7-2.617,2.313,2.313,0,0,1,1.05-.414A19.836,19.836,0,0,1,1700.22,2401.252Z" transform="translate(-1565.295 -2353.768)" fill="#ba610a"/>
            <path id="Trazado_876128" data-name="Trazado 876128" d="M1710.268,2337.735a5.346,5.346,0,0,1,1.182,4.051,5.258,5.258,0,0,1-2.037,3.414,6.836,6.836,0,0,1-4.284,1.33,6.256,6.256,0,0,1-4.445-2.029,5.513,5.513,0,0,1-1.261-4.155,5.76,5.76,0,0,1,2.122-3.7,5.98,5.98,0,0,1,3.961-1.2l.047.006A6.734,6.734,0,0,1,1710.268,2337.735Z" transform="translate(-1586.778 -2317.941)" fill="#763b05"/>
            <path id="Trazado_876129" data-name="Trazado 876129" d="M1712.771,2341.025a3.89,3.89,0,0,1,.178,2.958,3.688,3.688,0,0,1-2.087,2.179,4.15,4.15,0,0,1-1.842.273,3.631,3.631,0,0,1-2.44-1.754,3.931,3.931,0,0,1-.118-3.023,3.871,3.871,0,0,1,1.873-2.221,4.1,4.1,0,0,1,2.08-.339A3.659,3.659,0,0,1,1712.771,2341.025Z" transform="translate(-1590.643 -2320.013)" fill="#070605"/>
            <path id="Trazado_876130" data-name="Trazado 876130" d="M1709.065,2349.808c-.15.224-.211.335-.494.4a1.364,1.364,0,0,1-.319.01c-.152-.3-.288-.429-.2-.765a.945.945,0,0,1,.744-.324A1.318,1.318,0,0,1,1709.065,2349.808Z" transform="translate(-1591.667 -2325.699)" fill="#fefefe"/>
            <path id="Trazado_876131" data-name="Trazado 876131" d="M1715.877,2342.031a1.409,1.409,0,0,1-.2,1.093,1.65,1.65,0,0,1-.941.718,2.842,2.842,0,0,1-.75-.021,1.852,1.852,0,0,1-1.051-1.14,1.349,1.349,0,0,1,.169-1.021,1.676,1.676,0,0,1,1.012-.764,2.335,2.335,0,0,1,.733,0C1715.351,2341.2,1715.724,2341.425,1715.877,2342.031Z" transform="translate(-1594.429 -2321.021)" fill="#fefefe"/>
            <path id="Trazado_876132" data-name="Trazado 876132" d="M1528.961,2319.25c.993,1.084,2.342,1.893,3.129,3.172s.291,2.709.473,4.1a3.913,3.913,0,0,0,.921,2.013l-.316.806a39.247,39.247,0,0,0-1.12,4.589,22.107,22.107,0,0,0,8.119,21.069,6.732,6.732,0,0,0,1.45,1.076c6.622,4.6,16.939,6.688,24.868,5.525a8.976,8.976,0,0,1-1.491,2.9,49.665,49.665,0,0,1-7.133,8.712l-3.271,3c-.4.346-.888.632-1.256,1l.021.05a18.219,18.219,0,0,0,3.827,1.267l2.039.305-8.525,5.483a51.2,51.2,0,0,1-11.513,4.17l-3.911.751c-.208,2.148-.429,6.456.982,8.137a2.5,2.5,0,0,0,1.429.722c1.685.453,3.3.908,4.48,2.3a10.343,10.343,0,0,1,1.383,2.347l-3.159-.628a4.915,4.915,0,0,0-1.3-.219l.628,1.706a1.587,1.587,0,0,1,.186.566,16.661,16.661,0,0,0-3.1-.78l-3.9-.431c-1.517-.158-3.117-.179-4.374-1.153a11.462,11.462,0,0,1-2.91-4.206l-1.564-3.28a21.784,21.784,0,0,1-1.274-2.4c-.555-1.1-1.28-2.094-1.833-3.189l-3.658-7.3a14.9,14.9,0,0,0-1.266-2.562c.306,1.655.591,3.108-.242,4.682a6.7,6.7,0,0,1-4.162,2.9,30.889,30.889,0,0,1-6.118,1.181c-5.461.561-11.381-.038-16.292-2.641a12.139,12.139,0,0,1-4.476-4.085,4.576,4.576,0,0,1-.637-1.113,14.293,14.293,0,0,1-.25-1.934,16.549,16.549,0,0,0-.6-2.487,37.644,37.644,0,0,0-4.341-9.029c-4.773-7.491-11.621-14.212-19.707-18.011a41.045,41.045,0,0,0-5.6-2.164,20.1,20.1,0,0,1-3.682-1.054l-.044-.025c-.069-.442.26-.845.488-1.216l1.805-2.757a43.2,43.2,0,0,1,14.953-12.564,54.032,54.032,0,0,1,6.246-2.87,43.014,43.014,0,0,1,16.313-2.692l7.63.646,8.869.791a59.429,59.429,0,0,0,13.5-.35,14.509,14.509,0,0,0,.728-1.389,9.307,9.307,0,0,1,3.938-3.417,5.618,5.618,0,0,1,3.26-.54,8.864,8.864,0,0,1,1.3.458Z" transform="translate(-1445.448 -2308.441)" fill="#de7604"/>
            <path id="Trazado_876133" data-name="Trazado 876133" d="M1668.744,2455.075l2.039.305-8.524,5.483a51.193,51.193,0,0,1-11.513,4.171l-3.911.751a10.921,10.921,0,0,1,1.769-5.125,16.763,16.763,0,0,1,2.028-2.226l1.956-2.049a8.747,8.747,0,0,1-2.778,4.269,4.7,4.7,0,0,0,1.281-.208,34.108,34.108,0,0,0,10.841-4.54,21.873,21.873,0,0,0,1.812-1.255,6.271,6.271,0,0,1,1.173-.843A18.225,18.225,0,0,0,1668.744,2455.075Z" transform="translate(-1557.008 -2384.992)" fill="#ba610a"/>
            <path id="Trazado_876134" data-name="Trazado 876134" d="M1614.34,2319.25c.994,1.084,2.342,1.893,3.129,3.172s.291,2.709.473,4.1a3.911,3.911,0,0,0,.921,2.013l-.315.806a39.2,39.2,0,0,0-1.12,4.589,22.108,22.108,0,0,0,8.119,21.069,6.722,6.722,0,0,0,1.45,1.076c6.623,4.6,16.939,6.688,24.868,5.525a8.983,8.983,0,0,1-1.491,2.9,49.671,49.671,0,0,1-7.133,8.712l-3.271,3c-.4.346-.888.632-1.255,1a6.866,6.866,0,0,1-1.673-.854,15.607,15.607,0,0,1-4.6-4.392,14.231,14.231,0,0,0,2.842,5.947l-.745-.252c-3.551-1.3-6.516-3.594-9.439-5.922a39.8,39.8,0,0,1-5.361-4.86,25.689,25.689,0,0,1-3.588-5.4,15.606,15.606,0,0,1-1.263-3.49,12.412,12.412,0,0,0-.568-2.343,11.618,11.618,0,0,0-.1,2.268,19.015,19.015,0,0,0,.354,4.038,26.747,26.747,0,0,0,1.882,5.125l-.07-.015a4.417,4.417,0,0,1-.687-.538l-1.745-1.39c-4.487-3.625-8.688-7.509-11.028-12.9-3.25-7.49-2.9-15.923-.093-23.487a21.046,21.046,0,0,1,1.1-2.5,21.426,21.426,0,0,0,1.123-2.168,14.623,14.623,0,0,0,.729-1.389,9.3,9.3,0,0,1,3.938-3.417,5.617,5.617,0,0,1,3.26-.54,8.868,8.868,0,0,1,1.3.458Z" transform="translate(-1530.827 -2308.441)" fill="#f9e4c5"/>
          </g>
        </g>
      </g>
    </g>
  </g>
</svg>
