<svg xmlns="http://www.w3.org/2000/svg" width="505" height="319.62" viewBox="0 0 505 319.62">
  <g id="Grupo_1189101" data-name="Grupo 1189101" transform="translate(1892.764 7522)">
    <g id="IMAGEN" transform="translate(-1892.764 -7522)">
      <rect id="Rectángulo_402607" data-name="Rectángulo 402607" width="44" height="153.182" rx="12" transform="translate(461 63.93)" fill="#26c790"/>
      <path id="Rectángulo_402599" data-name="Rectángulo 402599" d="M0,0H74.42a0,0,0,0,1,0,0V.61A74.42,74.42,0,0,1,0,75.03H0a0,0,0,0,1,0,0V0A0,0,0,0,1,0,0Z" transform="translate(0 76.444)" fill="#fdbab3"/>
      <path id="Rectángulo_402630" data-name="Rectángulo 402630" d="M74.42,0h0a0,0,0,0,1,0,0V75.03a0,0,0,0,1,0,0H0a0,0,0,0,1,0,0v-.61A74.42,74.42,0,0,1,74.42,0Z" transform="translate(356.16 238.489)" fill="#fff"/>
      <g id="Grupo_1188572" data-name="Grupo 1188572" transform="translate(18886.764 8877.698)">
        <path id="Rectángulo_402597" data-name="Rectángulo 402597" d="M74.42,0h0a0,0,0,0,1,0,0V75.03a0,0,0,0,1,0,0H0a0,0,0,0,1,0,0v-.61A74.42,74.42,0,0,1,74.42,0Z" transform="translate(-18456.184 -8714.241)" fill="#fdbab3"/>
        <g id="Grupo_1188466" data-name="Grupo 1188466" transform="translate(-18395.285 -8653.132) rotate(-90)">
          <path id="Trazado_874773" data-name="Trazado 874773" d="M.737,1.112c.469,0,.785.412,1.249,1.089A3,3,0,0,0,4.546,3.893,3,3,0,0,0,7.105,2.2c.464-.678.78-1.089,1.249-1.089S9.14,1.524,9.6,2.2a3,3,0,0,0,2.56,1.691A3,3,0,0,0,14.723,2.2c.464-.678.78-1.089,1.249-1.089s.785.412,1.249,1.089a3,3,0,0,0,2.56,1.691A3,3,0,0,0,22.341,2.2c.464-.678.78-1.089,1.249-1.089s.785.412,1.249,1.089A3,3,0,0,0,27.4,3.893,3,3,0,0,0,29.957,2.2c.464-.678.78-1.089,1.249-1.089s.786.412,1.25,1.089a2.783,2.783,0,0,0,5.12,0c.464-.678.78-1.089,1.249-1.089s.786.412,1.251,1.09a2.785,2.785,0,0,0,5.122,0c.465-.678.781-1.09,1.251-1.09.407,0,.737-.249.737-.556S46.857,0,46.45,0a3.006,3.006,0,0,0-2.561,1.691c-.465.678-.781,1.09-1.251,1.09s-.786-.412-1.251-1.089a2.784,2.784,0,0,0-5.121,0c-.464.678-.78,1.089-1.25,1.089s-.786-.412-1.25-1.089a2.783,2.783,0,0,0-5.12,0c-.464.678-.78,1.089-1.25,1.089s-.785-.412-1.249-1.089A3,3,0,0,0,23.59,0a3,3,0,0,0-2.559,1.691c-.464.678-.78,1.089-1.249,1.089S19,2.369,18.532,1.691A3,3,0,0,0,15.973,0a3,3,0,0,0-2.56,1.691c-.464.678-.78,1.089-1.249,1.089s-.785-.412-1.25-1.089A3,3,0,0,0,8.354,0a3,3,0,0,0-2.56,1.691c-.464.678-.78,1.089-1.249,1.089S3.761,2.369,3.3,1.691A3,3,0,0,0,.737,0C.33,0,0,.249,0,.556S.33,1.112.737,1.112Z" transform="translate(0 0)" fill="#fff"/>
        </g>
      </g>
      <g id="Grupo_1188480" data-name="Grupo 1188480" transform="translate(15.436 24.708)">
        <rect id="Rectángulo_402596" data-name="Rectángulo 402596" width="428.286" height="41" transform="translate(13.001 226.625)" fill="#12263f" opacity="0.407"/>
        <g id="Grupo_1099339" data-name="Grupo 1099339" transform="translate(0 0)">
          <g id="primer-plano-de-conejillos-de-indias" fill="#fef0ef" stroke="#1944b6" stroke-width="5">
            <rect width="474.129" height="267.625" rx="14" stroke="none"/>
            <rect x="2.5" y="2.5" width="469.129" height="262.625" rx="11.5" fill="none"/>
          </g>
        </g>
      </g>
      <g id="Grupo_1188479" data-name="Grupo 1188479" transform="translate(430.58 238.489)">
        <path id="Rectángulo_402596-2" data-name="Rectángulo 402596" d="M74.42,0h0a0,0,0,0,1,0,0V65.6a9.427,9.427,0,0,1-9.427,9.427H0a0,0,0,0,1,0,0v-.61A74.42,74.42,0,0,1,74.42,0Z" transform="translate(0)" fill="#fdaa30"/>
        <g id="Grupo_1188461" data-name="Grupo 1188461" transform="translate(27.104 28.144)">
          <path id="Trazado_874753" data-name="Trazado 874753" d="M32.106,4.606,27.958.458a1.622,1.622,0,0,0-2.259,0,1.633,1.633,0,0,0-.1,2.361l.823.823L24.041,6.02l-2-2a1.1,1.1,0,0,0-1.549,0L19,5.517a1.123,1.123,0,0,0,.045,1.593L3.791,22.366a1.493,1.493,0,0,0-.134,1.955l.058,1.872a2.727,2.727,0,0,0,.5,1.486L.157,31.733a.477.477,0,0,0,.674.674l4.054-4.054a2.727,2.727,0,0,0,1.486.5l1.872.058a1.492,1.492,0,0,0,1.955-.134L22.205,16.766a.477.477,0,0,0-.674-.674l-2.137,2.137L14.336,13.17l1.27-1.27,1.512,1.512a.477.477,0,1,0,.674-.674L16.28,11.226,17.5,10l1.512,1.512a.477.477,0,1,0,.674-.674L18.179,9.327l1.543-1.543,5.058,5.058-1.671,1.671a.477.477,0,1,0,.674.674l1.671-1.671a1.119,1.119,0,0,0,1.593.045l1.494-1.494a1.121,1.121,0,0,0,0-1.549l-2-2L27.68,7.387a.477.477,0,0,0-.674-.674L25.87,7.848,24.716,6.694l2.379-2.379,2.651,2.651a1.6,1.6,0,0,0,2.259,0,1.635,1.635,0,0,0,.1-2.361ZM9.524,28.1a.537.537,0,0,1-.76,0,.477.477,0,0,0-.322-.139L6.4,27.9a1.792,1.792,0,0,1-1.732-1.732l-.064-2.04a.477.477,0,0,0-.139-.322.538.538,0,0,1,0-.76l.965-.965,5.058,5.058Zm9.2-9.2-7.557,7.557L6.1,21.4l5.755-5.755,1.512,1.512a.477.477,0,1,0,.674-.674l-1.512-1.512,1.127-1.127Zm9.188-7.609a.138.138,0,0,1-.041.1l-1.494,1.494a.141.141,0,0,1-.2,0l-6.5-6.5c0-.04-.085-.026,0-.2L21.171,4.7c.038.009-.007-.089.2,0l6.5,6.5A.139.139,0,0,1,27.908,11.294Zm3.524-5.1-.1.1a.644.644,0,0,1-.91,0L26.272,2.144a.686.686,0,0,1,.1-1.012.664.664,0,0,1,.91,0L31.432,5.28A.644.644,0,0,1,31.432,6.19Z" transform="translate(-0.017 0)" fill="#12263f"/>
          <path id="Trazado_874754" data-name="Trazado 874754" d="M130.182,114.5a.477.477,0,0,0,.674-.674l-1.1-1.1a.477.477,0,0,0-.674.674Z" transform="translate(-120.739 -105.425)" fill="#12263f"/>
          <path id="Trazado_874755" data-name="Trazado 874755" d="M184.243,86.671a.477.477,0,0,0,.477-.477V84.425a.477.477,0,1,0-.954,0v1.769A.477.477,0,0,0,184.243,86.671Z" transform="translate(-172.082 -78.61)" fill="#12263f"/>
          <path id="Trazado_874756" data-name="Trazado 874756" d="M101.047,168.1h1.769a.477.477,0,0,0,0-.954h-1.769a.477.477,0,0,0,0,.954Z" transform="translate(-94.176 -156.518)" fill="#12263f"/>
          <ellipse id="Elipse_11492" data-name="Elipse 11492" cx="0.489" cy="0.489" rx="0.489" ry="0.489" transform="translate(11.146 22.744)" fill="#12263f"/>
          <ellipse id="Elipse_11493" data-name="Elipse 11493" cx="0.489" cy="0.489" rx="0.489" ry="0.489" transform="translate(12.767 21.174)" fill="#12263f"/>
        </g>
        <path id="Trazado_874772" data-name="Trazado 874772" d="M9.41,4.091a.781.781,0,0,1,.71.343,1.375,1.375,0,0,1,.22.759,1.259,1.259,0,0,1-.22.735.8.8,0,0,1-.71.318H6.276q0,1.126,0,2.008a8.854,8.854,0,0,1-.049,1.175.843.843,0,0,1-.343.735,1.224,1.224,0,0,1-1.469,0,.843.843,0,0,1-.343-.735V6.246H1.134a1.129,1.129,0,0,1-.906-.318.925.925,0,0,1-.22-.735A1.4,1.4,0,0,1,.35,4.434a.98.98,0,0,1,.784-.343H4.072V1.1A1.013,1.013,0,0,1,4.415.223,1.115,1.115,0,0,1,5.149,0a1.233,1.233,0,0,1,.735.318.98.98,0,0,1,.343.784,7.137,7.137,0,0,1,.049,1.077q0,.832,0,1.91Z" transform="translate(55.412 62.966) rotate(-43)" fill="#fff"/>
      </g>
      <g id="Grupo_1188575" data-name="Grupo 1188575" transform="translate(18609.916 8877.7)">
        <g id="Grupo_1188574" data-name="Grupo 1188574">
          <g id="Grupo_1188465" data-name="Grupo 1188465" transform="translate(-18609.916 -8639.212)">
            <path id="Rectángulo_402602" data-name="Rectángulo 402602" d="M0,0H74.42a0,0,0,0,1,0,0V75.03a0,0,0,0,1,0,0h0A74.42,74.42,0,0,1,0,.61V0A0,0,0,0,1,0,0Z" fill="#26c790"/>
            <g id="Grupo_1188464" data-name="Grupo 1188464" transform="translate(29.357 9.782)">
              <path id="Trazado_874763" data-name="Trazado 874763" d="M247.086,245.439a.431.431,0,0,1-.431.431h-.516a.431.431,0,0,1-.431-.431,2.823,2.823,0,0,1,.481-1.4,3.713,3.713,0,0,1,.339-.453c.136-.158.277-.336.42-.529a4.611,4.611,0,0,0,.89-2.467,38.633,38.633,0,0,0-.086-4.892.431.431,0,1,1,.859-.06,39.373,39.373,0,0,1,.087,5.005,5.471,5.471,0,0,1-1.057,2.927c-.155.209-.309.4-.458.577a2.9,2.9,0,0,0-.262.349,2.836,2.836,0,0,0-.26.517A.431.431,0,0,1,247.086,245.439Z" transform="translate(-240.779 -210.545)" fill="#fff"/>
              <path id="Trazado_874764" data-name="Trazado 874764" d="M104.484,260.107a.431.431,0,0,1-.431.431h-.893a.431.431,0,0,1-.329-.709,7.844,7.844,0,0,0,1.5-7.6.431.431,0,1,1,.825-.247,8.687,8.687,0,0,1-1.122,7.7h.017A.431.431,0,0,1,104.484,260.107Z" transform="translate(-82.226 -225.213)" fill="#fff"/>
              <path id="Trazado_874765" data-name="Trazado 874765" d="M167.974,176.362c.2.023.412.041.619.052a2.568,2.568,0,0,1,1.047.286.431.431,0,1,1-.4.764,1.708,1.708,0,0,0-.7-.19c-.222-.013-.447-.032-.666-.056a10.317,10.317,0,0,0-3.051.086c-.8,1.271-.922,3.921-.935,5.029a2.7,2.7,0,0,1-.49,1.536l-.008.008h0c-.011.017-.023.034-.035.05a9.3,9.3,0,0,0-.88,1.523.431.431,0,0,1-.393.256h-2.518a.431.431,0,0,1-.316-.723,10.549,10.549,0,0,0,1.092-1.474c.013-.02.024-.04.036-.061l.03-.051.015-.022a4.628,4.628,0,0,0,.63-2.074,28.913,28.913,0,0,0-.233-6.352c-1.759-1.212-2.8-3.455-3.1-6.672a.431.431,0,0,1,.858-.08,9,9,0,0,0,1.934,5.34,2.658,2.658,0,0,1,.057-.832.431.431,0,1,1,.836.209,3.213,3.213,0,0,0,.207,1.617c0,.011.006.022.01.034s.009.023.011.036a27.483,27.483,0,0,1,.282,6.75,5.5,5.5,0,0,1-.433,1.836h.1a.431.431,0,1,1,0,.862h-.563q-.281.437-.545.8h1.338a9.551,9.551,0,0,1,.855-1.432l.028-.042.008-.009a1.848,1.848,0,0,0,.326-1.04c.018-1.518.194-4.257,1.168-5.628a7.351,7.351,0,0,0,.5-1.1.431.431,0,0,1,.818.272c0,.014-.068.2-.191.488A11.79,11.79,0,0,1,167.974,176.362Z" transform="translate(-152.431 -150.384)" fill="#fff"/>
              <path id="Trazado_874766" data-name="Trazado 874766" d="M50.4,100.835a.431.431,0,0,1,.482-.148,3.787,3.787,0,0,1,2.447,1.991,3.358,3.358,0,0,1-.045,2.539.431.431,0,1,1-.781-.365,2.478,2.478,0,0,0,.033-1.837,2.4,2.4,0,0,0-1-1.09,3.679,3.679,0,0,1-1.058,3.314.431.431,0,0,1-.525.082c-.038-.022-3.845-2.089-10.051.032l-.023.007a13.955,13.955,0,0,1-3.229.463h-.031a3.4,3.4,0,0,1-2.628-1.238,12.339,12.339,0,0,1-1.912-3.161.431.431,0,0,1,.8-.323,11.467,11.467,0,0,0,1.778,2.935,2.539,2.539,0,0,0,1.964.926h.023a13.293,13.293,0,0,0,2.994-.428c5.6-1.908,9.337-.6,10.419-.12a2.6,2.6,0,0,0,.337-3.075A.431.431,0,0,1,50.4,100.835Z" transform="translate(-22.585 -90.469)" fill="#fff"/>
              <path id="Trazado_874767" data-name="Trazado 874767" d="M36.172,136.422a.431.431,0,0,1,.368.485,4.365,4.365,0,0,1-2.786,3.341,9,9,0,0,1-.784,3.975c-.964,2.392-.663,5.98-.489,7.413a2.752,2.752,0,0,1-.35,1.7,10.31,10.31,0,0,0-.927,2.381h0c-.243.89-.357,1.6-.358,1.611a.431.431,0,0,1-.426.363H27.61a.431.431,0,0,1-.366-.659,11.183,11.183,0,0,0,.828-1.595l0-.008a8.582,8.582,0,0,0-.39-7.7,10.516,10.516,0,0,1-1.481.625,6.37,6.37,0,0,1-4.4-.091,3.725,3.725,0,0,0-1.078-.242.431.431,0,1,1,.071-.859,4.585,4.585,0,0,1,1.328.3,5.506,5.506,0,0,0,3.8.075,8.644,8.644,0,0,0,1.673-.75.431.431,0,0,1,.573.113,9.3,9.3,0,0,1,.92,8.276h.311a.431.431,0,0,1,0,.862h-.656q-.179.4-.394.8h1.7c.06-.309.162-.788.312-1.338v0a11,11,0,0,1,1.014-2.588,1.86,1.86,0,0,0,.24-1.166c-.227-1.864-.457-5.362.548-7.847l.006-.014c.011-.023,1.029-2.332.668-3.809h0a6.462,6.462,0,0,0-.5-1.3.431.431,0,0,1,.76-.406,7.767,7.767,0,0,1,.444,1.035,3.491,3.491,0,0,0,2.139-2.608.431.431,0,0,1,.486-.369Z" transform="translate(-4.307 -122.373)" fill="#fff"/>
              <path id="Trazado_874768" data-name="Trazado 874768" d="M220.354,10.714a.98.98,0,0,1,.457.946A2.4,2.4,0,0,1,218.581,14a3.425,3.425,0,0,1-.954,2.491.98.98,0,0,0-.251.563l-.146,1.3a2.235,2.235,0,0,1-.16.616,3.7,3.7,0,0,1-1.79,3.89.431.431,0,0,1-.627-.283q-.048-.21-.1-.4c-.089.071-.174.135-.248.191a3.718,3.718,0,0,1-.96.528,3.565,3.565,0,0,1-.448.129.419.419,0,0,1-.09.01.433.433,0,0,1-.334-.7,2.668,2.668,0,0,0,.432-1.54,1.867,1.867,0,0,0-.032-.379,4.653,4.653,0,0,1-.015-1.775,2.254,2.254,0,0,1-.056-.312l-.125-1.239a.963.963,0,0,0-.185-.473,4.348,4.348,0,0,1-.944-2.75A2.654,2.654,0,0,1,210,13.5a2.582,2.582,0,0,1-1.1-1.888.985.985,0,0,1,1.49-.991,6.89,6.89,0,0,0,1.837.834,5,5,0,0,1,2.288-.854A4.112,4.112,0,0,0,213.4,8.077a4.182,4.182,0,0,0-2.319-1.116,6.309,6.309,0,0,1,1.555,3.054.431.431,0,0,1-.844.171A5.377,5.377,0,0,0,209.578,6.8.431.431,0,0,1,209.8,6h.029a5.679,5.679,0,0,1,4.186,1.47,5.018,5.018,0,0,1,1.369,3.132,4.423,4.423,0,0,1,1.58.485A6.347,6.347,0,0,1,218.638,7a4.01,4.01,0,0,0-2.6,1.444.431.431,0,1,1-.682-.527,5.409,5.409,0,0,1,4.546-1.88h.029a.431.431,0,0,1,.217.8,5.444,5.444,0,0,0-2.331,4.533,6.669,6.669,0,0,0,1.5-.663A.968.968,0,0,1,220.354,10.714Zm-6.566,10.976a8.144,8.144,0,0,0,.669-.551.431.431,0,0,1,.693.144,5.181,5.181,0,0,1,.185.51,2.624,2.624,0,0,0,.9-1.815,2.228,2.228,0,0,1-2.567-.091c.013.125.031.254.055.387a2.709,2.709,0,0,1,.045.552,4.484,4.484,0,0,1-.129.971Q213.713,21.745,213.788,21.689Zm3.778-9.353a.43.43,0,0,1-.354-.075,3.68,3.68,0,0,0-4.609-.016.431.431,0,0,1-.358.095,7.03,7.03,0,0,1-2.31-.987.114.114,0,0,0-.129,0,.12.12,0,0,0-.055.124,1.771,1.771,0,0,0,.706,1.292,2.106,2.106,0,0,0,1.505.181.431.431,0,0,1,.528.543,3.2,3.2,0,0,0,.695,2.619,1.825,1.825,0,0,1,.348.9l.125,1.239a1.365,1.365,0,0,0,2.715.015l.146-1.3A1.846,1.846,0,0,1,217,15.9a2.537,2.537,0,0,0,.683-2.212.431.431,0,0,1,.418-.535h.016a1.583,1.583,0,0,0,1.839-1.593.121.121,0,0,0-.06-.12.109.109,0,0,0-.121,0A8.053,8.053,0,0,1,217.566,12.337Z" transform="translate(-208.888 -6)" fill="#fff"/>
              <path id="Trazado_874769" data-name="Trazado 874769" d="M247.471,80.937a.442.442,0,0,1-.084-.008.525.525,0,0,1-.08-.025.41.41,0,0,1-.074-.04.4.4,0,0,1-.066-.054.431.431,0,0,1-.127-.3.446.446,0,0,1,.009-.084.466.466,0,0,1,.025-.081.5.5,0,0,1,.04-.074.451.451,0,0,1,.054-.066.4.4,0,0,1,.066-.053.353.353,0,0,1,.074-.04.425.425,0,0,1,.08-.025.436.436,0,0,1,.389.117.389.389,0,0,1,.054.066.412.412,0,0,1,.04.074.461.461,0,0,1,.025.081.443.443,0,0,1,.008.084.43.43,0,0,1-.431.431Z" transform="translate(-240.08 -72.098)" fill="#fff"/>
              <path id="Trazado_874770" data-name="Trazado 874770" d="M271.767,80.936a.431.431,0,0,1-.3-.734.39.39,0,0,1,.066-.054.434.434,0,0,1,.155-.065.44.44,0,0,1,.168,0,.434.434,0,0,1,.155.065.387.387,0,0,1,.066.054.431.431,0,0,1-.3.734Z" transform="translate(-266.992 -72.097)" fill="#fff"/>
              <path id="Trazado_874771" data-name="Trazado 874771" d="M256.423,109.32l-.474.318a.431.431,0,0,1-.491-.008l-.443-.318a.431.431,0,0,1,.5-.7l.2.144.226-.151a.431.431,0,1,1,.479.716Z" transform="translate(-249.633 -97.489)" fill="#fff"/>
            </g>
          </g>
          <g id="Elipse_11498" data-name="Elipse 11498" transform="translate(-18583.781 -8583.3)" fill="none" stroke="#fdaa30" stroke-width="6">
            <ellipse cx="8.063" cy="8.063" rx="8.063" ry="8.063" stroke="none"/>
            <ellipse cx="8.063" cy="8.063" rx="5.063" ry="5.063" fill="none"/>
          </g>
        </g>
        <circle id="Elipse_11502" data-name="Elipse 11502" cx="1.916" cy="1.916" r="1.916" transform="translate(-18602.906 -8633.651)" fill="#fff"/>
      </g>
      <g id="Grupo_1188573" data-name="Grupo 1188573" transform="translate(0 1.413)">
        <g id="Grupo_1188468" data-name="Grupo 1188468" transform="translate(0 0)">
          <path id="Rectángulo_402603" data-name="Rectángulo 402603" d="M74.42,0h0a0,0,0,0,1,0,0V75.03a0,0,0,0,1,0,0H0a0,0,0,0,1,0,0v-.61A74.42,74.42,0,0,1,74.42,0Z" fill="#fdaa30"/>
          <g id="Grupo_1188467" data-name="Grupo 1188467" transform="translate(28.513 29.12)">
            <path id="Trazado_874775" data-name="Trazado 874775" d="M288.475,288.708a.456.456,0,0,1-.136-.89,5.01,5.01,0,0,1,1.5-.229.455.455,0,1,1,0,.911A6,6,0,0,0,288.475,288.708Z" transform="translate(-271.625 -271.241)" fill="#12263f"/>
            <path id="Trazado_874776" data-name="Trazado 874776" d="M28.256,21.374a3.132,3.132,0,0,0-2.578-.959.136.136,0,0,1-.145-.1A10.982,10.982,0,0,0,20.5,14.178,13.853,13.853,0,0,0,13.3,12.2a7.282,7.282,0,0,0-.039-1.589c4.56-1.2,9.365-6.739,7.349-9.316C19.8.271,18.122.124,16.08.892,13.628-.854,7.774,2.356,5.683,6.229,2.908,7.269,0,10.292,0,13.193s2.281,3.793,5.193,3.972A8.389,8.389,0,0,0,5.48,24.22C3.707,25.44,1.963,27,3.219,28.775c.885,1.251,2.583.631,4.047.147a14.078,14.078,0,0,0,3.828-1.972,11.644,11.644,0,0,0,2.825-2.607,4.973,4.973,0,0,0,.9,1.107c-2.722,1.465-2.053,4.057,1.094,4.057a8.058,8.058,0,0,0,3.512-.951c1.906-.13,4.229-.5,5.532-1.946A3.192,3.192,0,0,0,28.256,21.374ZM.911,13.193c0-2.987,3.9-6.459,6.831-6.459a9.732,9.732,0,0,1,2.366.439c.563-.088.3-.981,2.453-2.986a.455.455,0,1,0-.62-.667A10.921,10.921,0,0,0,9.823,6.15a6.261,6.261,0,0,0-2.857-.265c1.883-2.686,5.756-5.008,8-4.5a12.856,12.856,0,0,0-1.551.939.455.455,0,1,0,.524.745C17.663.449,21.5.687,19.717,4.338a11.489,11.489,0,0,1-7.065,5.484.456.456,0,0,0-.345.311c-.079.254.107.4.107,1.507,0,3.057-2.809,4.656-5.583,4.656-3.655,0-5.92-.519-5.92-3.1ZM28.234,23.675a2.286,2.286,0,0,1-2.728,2.141,6.113,6.113,0,0,0,.451-3.174.455.455,0,1,0-.909.063c.2,2.833-.644,4.617-5.771,4.949a16.455,16.455,0,0,1-2.159.8c-1.5.356-2.918,0-3.079-.674-.129-.542.565-1.269,1.6-1.71a4.1,4.1,0,0,0,1.205.5.456.456,0,0,0,.136-.89,4.084,4.084,0,0,1-2.582-2.4.457.457,0,0,0-.027-.068,4.12,4.12,0,0,1,.191-3.317.455.455,0,1,0-.81-.417,5.037,5.037,0,0,0-.291,3.894,9.536,9.536,0,0,1-2.909,2.845,13.168,13.168,0,0,1-3.58,1.845c-1.8.6-2.619.754-3.017.191a1.123,1.123,0,0,1-.237-.889c.221-1.191,2.474-2.454,2.693-2.689.547-.588-.954-1.149-.954-4.275A7.133,7.133,0,0,1,6.179,17.2c.22,0,.438.006.652.006,2.8,0,5.547-1.413,6.3-4.085,4.273-.207,10.014,2.478,11.535,7.459a1.047,1.047,0,0,0,1.121.738A2.266,2.266,0,0,1,28.234,23.675Z" transform="translate(0 -0.404)" fill="#12263f"/>
            <path id="Trazado_874777" data-name="Trazado 874777" d="M260.455,308.5a.455.455,0,1,1,.446-.367A.456.456,0,0,1,260.455,308.5Z" transform="translate(-245.199 -290.1)" fill="#12263f"/>
            <ellipse id="Elipse_11499" data-name="Elipse 11499" cx="0.797" cy="0.797" rx="0.797" ry="0.797" transform="translate(4.213 10.029)" fill="#12263f"/>
          </g>
        </g>
        <path id="Trazado_874774" data-name="Trazado 874774" d="M6.926-1c.053,0,.106,0,.159,0a2.666,2.666,0,0,1,1.59.673A2.319,2.319,0,0,1,9.49,1.41a11.019,11.019,0,0,1,.068,1.565v1.6h3.274a2.063,2.063,0,0,1,1.81.927A2.868,2.868,0,0,1,15.1,7.082a2.706,2.706,0,0,1-.478,1.571,2.052,2.052,0,0,1-1.791.865H9.559v1.738a13.077,13.077,0,0,1-.068,1.686,2.107,2.107,0,0,1-.885,1.733,2.669,2.669,0,0,1-3.166,0,2.121,2.121,0,0,1-.886-1.816V9.518H1.546a2.483,2.483,0,0,1-2-.788,2.26,2.26,0,0,1-.53-1.765A2.9,2.9,0,0,1-.281,5.4,2.332,2.332,0,0,1,1.546,4.58H4.554V1.506A2.309,2.309,0,0,1,5.44-.51,2.517,2.517,0,0,1,6.926-1Zm6.038,7.593a.478.478,0,0,0-.131-.014H7.559v-3.6A8.677,8.677,0,0,0,7.512,1.7l-.019-.1v-.1A.342.342,0,0,0,7.374,1.2.679.679,0,0,0,6.96,1H6.926a.519.519,0,0,0-.313.11.9.9,0,0,0-.06.4V6.58H1.546a.342.342,0,0,0-.309.118A.912.912,0,0,0,1,7.2a.268.268,0,0,0,.071.239.927.927,0,0,0,.472.08H6.554v5.341c0,.153.032.176.049.188a.673.673,0,0,0,.841,0c.017-.012.049-.035.049-.188v-.083l.014-.082a10.753,10.753,0,0,0,.053-1.438V7.518h5.274a.547.547,0,0,0,.155-.017.73.73,0,0,0,.114-.419A.875.875,0,0,0,12.964,6.593Z" transform="translate(26.135 9.618) rotate(-43)" fill="#1944b6"/>
      </g>
    </g>
    <g id="Grupo_1189100" data-name="Grupo 1189100" transform="translate(-1781.764 -7483)">
      <g id="Grupo_1189042" data-name="Grupo 1189042" transform="translate(10.378)">
        <g id="Grupo_1189041" data-name="Grupo 1189041">
          <g id="Grupo_1189040" data-name="Grupo 1189040">
            <path id="Trazado_875999" data-name="Trazado 875999" d="M3005.86,2365.564l-15.261,1.358-.01.25c-2.786,2.064-5.376,4.235-6.581,7.627l9.737-1.832a15.757,15.757,0,0,0-3.027,3.721l13.062-2.48c3.774-.648,7.969-.794,11.547-2.244a9.8,9.8,0,0,0,4.114-3.132,1.57,1.57,0,0,0,.269-.617l-.054-.257-2.676-2.427a6.089,6.089,0,0,0-1.327-1.128,4.192,4.192,0,0,0-.918-.073A61.691,61.691,0,0,1,3005.86,2365.564Z" transform="translate(-2798.788 -2213.125)" fill="#93480a"/>
            <path id="Trazado_876000" data-name="Trazado 876000" d="M2736.374,2343.138a9.46,9.46,0,0,1-1.387,3.648,4.166,4.166,0,0,1-2.607,1.775c-.821.131-1.663.136-2.479.3a10.592,10.592,0,0,0-6.322,3.726,14.575,14.575,0,0,0-2.106,4.013l7.824-1.434a23.9,23.9,0,0,0-1.972,4.058l8.69-1.54a38.076,38.076,0,0,1,4.164-.039,10.329,10.329,0,0,0,8.577-4.309,63.145,63.145,0,0,0,4.127-7.034l3.9-7.223a92.489,92.489,0,0,1-20.8-7.536C2736.595,2335.324,2737.1,2339.337,2736.374,2343.138Z" transform="translate(-2649.317 -2194.459)" fill="#93480a"/>
            <path id="Trazado_876001" data-name="Trazado 876001" d="M3048.758,2377.469c-3.823.71-7.838,1.225-11.345,3a14.375,14.375,0,0,0-7.609,8.548l7.654-1.746a12.593,12.593,0,0,0-2.167,4.826,69.191,69.191,0,0,1,10.316-3.168c-.071.873-1.1,1.82-1.214,2.828-.042.354-.062.415.148.7a34.691,34.691,0,0,1,8.946-2.677l8.367-1.662a52.6,52.6,0,0,0,7.144-1.748c1.953-.685,4.3-1.719,5.227-3.707a8.021,8.021,0,0,0,.029-5.449l-.471-.273a1.147,1.147,0,0,0-.818-.293c-.458-.024-.929.107-1.4.1l-6.361-.129c-3.292-.076-6.771-.614-10.056-.2-.752.095-1.5.058-2.246.136a22.6,22.6,0,0,0-3.2.768,1.669,1.669,0,0,1-.9-.075Z" transform="translate(-2824.861 -2219.918)" fill="#93480a"/>
            <path id="Trazado_876002" data-name="Trazado 876002" d="M2554.483,2145.2l-.3.047a13.367,13.367,0,0,0-.253,3.382,25.648,25.648,0,0,0,3.536,13.092,18.814,18.814,0,0,0,4.543,5.2,13.129,13.129,0,0,0,2.969,1.638,61.582,61.582,0,0,0,4.865,5.88c4.078,3.89,9.662,6.543,15.01,8.166l5.345,1.346a30.169,30.169,0,0,1,9.517,4.725c4.815,3.514,8.157,8.583,12.045,13.013a99.957,99.957,0,0,0,13.429,12.665l3.683-.551a32.935,32.935,0,0,0,6.916-2.29l.037-.09c-.663-.669-1.551-1.186-2.269-1.812l-5.909-5.42a89.771,89.771,0,0,1-12.889-15.741c-1.035-1.6-2.315-3.345-2.694-5.234-9.1-1.767-17.609-4.6-25.091-10.244a35.91,35.91,0,0,1-5.274-4.649,15.227,15.227,0,0,1-1.627-1.681c-1.038.459-3.87-.363-5.056-.683a18.1,18.1,0,0,1-10.717-7.723c-.8-1.281-1.383-2.7-2.14-4.011a.758.758,0,0,1,.219-.147,32.156,32.156,0,0,0,4.834-3.387,11.66,11.66,0,0,0,3.717-4.3,2.5,2.5,0,0,0-.247-1.139c-1.563-2.721-5.8-1.239-8.109-.468a7.586,7.586,0,0,1-1.491.509,8.538,8.538,0,0,1-1.254-.74,11.885,11.885,0,0,0-3.112-1.45A3.626,3.626,0,0,0,2554.483,2145.2Z" transform="translate(-2553.927 -2087.175)" fill="#b55b09"/>
            <path id="Trazado_876003" data-name="Trazado 876003" d="M2554.483,2145.2l-.3.047a13.367,13.367,0,0,0-.253,3.382,25.648,25.648,0,0,0,3.536,13.092,18.814,18.814,0,0,0,4.543,5.2,13.129,13.129,0,0,0,2.969,1.638,8.057,8.057,0,0,1,1.627-.491,15.586,15.586,0,0,1,1.547,1.137,10.9,10.9,0,0,0,3.006,1.107,8.957,8.957,0,0,0,6.527-1.387l-2.539.443a9.514,9.514,0,0,1-7.229-2.085c-3.737-2.975-5.276-8.5-5.761-13.058a.758.758,0,0,1,.219-.147,32.156,32.156,0,0,0,4.834-3.387,11.66,11.66,0,0,0,3.717-4.3,2.5,2.5,0,0,0-.247-1.139c-1.563-2.721-5.8-1.239-8.109-.468a7.586,7.586,0,0,1-1.491.509,8.538,8.538,0,0,1-1.254-.74,11.885,11.885,0,0,0-3.112-1.45A3.626,3.626,0,0,0,2554.483,2145.2Z" transform="translate(-2553.927 -2087.175)" fill="#9f540f"/>
            <path id="Trazado_876004" data-name="Trazado 876004" d="M2553.929,2151.4a25.651,25.651,0,0,0,3.536,13.092,18.807,18.807,0,0,0,4.543,5.2l.772-.522a5.023,5.023,0,0,0,.083-2.109,69.446,69.446,0,0,0-1.373-6.831c-.2-1.033-.219-2.363-.521-3.331-.151-.484-2.192-1.842-2.716-2.292-2.121-1.822-3.559-3.781-3.77-6.637l-.3.048A13.364,13.364,0,0,0,2553.929,2151.4Z" transform="translate(-2553.927 -2089.942)" fill="#733a29"/>
            <path id="Trazado_876005" data-name="Trazado 876005" d="M2621.536,2038.059c-1.549.23-3.1.4-4.63.742l-8.575,2.266-.1.049c-1.6.792-3.512,1.275-5.192,1.9a110.872,110.872,0,0,0-10.256,4.351,96.356,96.356,0,0,0-13.294,7.936,103.523,103.523,0,0,0-16.831,15.1c-2.789,3.095-5.842,6.687-7.246,10.673a17.314,17.314,0,0,0-.9,3.95l.3-.048a3.62,3.62,0,0,1,2.228-2.093,11.861,11.861,0,0,1,3.112,1.45,8.57,8.57,0,0,0,1.254.739,7.537,7.537,0,0,0,1.49-.509c2.307-.771,6.546-2.253,8.11.468a2.512,2.512,0,0,1,.247,1.139,11.659,11.659,0,0,1-3.718,4.3,32.148,32.148,0,0,1-4.833,3.386.734.734,0,0,0-.218.148c.756,1.314,1.334,2.73,2.139,4.011a18.1,18.1,0,0,0,10.717,7.723c1.187.319,4.019,1.142,5.057.683a51.242,51.242,0,0,1-3.3-4.634,27.457,27.457,0,0,1-3.184-9.719c-1.095-7.208,2.147-12.511,6.227-18.067,10.361-14.113,25.152-26.226,41.8-32a101.016,101.016,0,0,1,17.962-4.131,5.3,5.3,0,0,0,.515-.414l-.139-.131-14.8.521A9.474,9.474,0,0,0,2621.536,2038.059Z" transform="translate(-2554.264 -2026.949)" fill="#733a29"/>
            <path id="Trazado_876006" data-name="Trazado 876006" d="M2608.235,2041.6c-1.6.792-3.512,1.275-5.192,1.9a110.872,110.872,0,0,0-10.256,4.351,96.356,96.356,0,0,0-13.294,7.936,103.526,103.526,0,0,0-16.831,15.1c-2.789,3.094-5.842,6.687-7.246,10.672a17.32,17.32,0,0,0-.9,3.95l.3-.048a3.62,3.62,0,0,1,2.228-2.093,12.69,12.69,0,0,1,1.437-2.839,81.976,81.976,0,0,1,16.114-17.781,115.227,115.227,0,0,1,29.968-18.479c2.721-1.146,5.426-2.265,8.241-3.164,4.173-1.333,8.422-1.856,12.682-2.774a9.474,9.474,0,0,0-3.955.213c-1.549.23-3.1.4-4.63.743l-8.575,2.265Z" transform="translate(-2554.264 -2027.437)" fill="#de7604"/>
            <path id="Trazado_876007" data-name="Trazado 876007" d="M2688.043,2025.084c1.532-.345,3.082-.513,4.63-.743a9.48,9.48,0,0,1,3.956-.214l14.794-.52.14.131a5.323,5.323,0,0,1-.515.414c-3.048,3.047-7.751,6.732-7.764,11.485-.008,2.693.12,4.586,2.11,6.557,2.43,2.405,5.812,2.942,8.781,4.379a53.413,53.413,0,0,1,4.641,3.025,29.735,29.735,0,0,0,15.779,4.291c2.985-.025,6.875-.792,9.141-2.9l-.57-1.456a7.072,7.072,0,0,0,1.664-3.638c.33-2.506-.558-5.1.855-7.4,1.422-2.313,3.858-3.773,5.654-5.732l.111-.122-.124-.3-.963-1.286-.053-.085a22.138,22.138,0,0,0-3.925-4.276,31.611,31.611,0,0,0-14.366-7.6c-6.541-1.415-12.479-.6-18.108,3.026-4.026-3.528-8.5-6.65-13.718-8.105-4.032-1.125-7.987-1.214-11.7.9-4.558,2.592-7.644,7.467-9.026,12.437Z" transform="translate(-2625.402 -2013.232)" fill="#ba610a"/>
            <path id="Trazado_876008" data-name="Trazado 876008" d="M2761.18,2049.768c6.259-3.87,12.789-4,19.766-2.193,1.772.459,3.48,1.16,5.254,1.582l-.963-1.287-.087,0a5.718,5.718,0,0,1-1.956-.96l-3.221-1.57c-6.687-3.069-15.9-4.095-21.934.887-3.746,3.094-9.36,11.727-14.681,11.3-.919-.074-1.76-.516-2.637-.587a10.753,10.753,0,0,0,8.383,2.5,6.315,6.315,0,0,0,2.136-.58C2754.972,2056.288,2757.288,2052.174,2761.18,2049.768Z" transform="translate(-2660.276 -2030.044)" fill="#9f540f"/>
            <path id="Trazado_876009" data-name="Trazado 876009" d="M2768.43,2063.448l7.114-.966a35.284,35.284,0,0,1-2.632,4.155c3.961,2.409,7.343,4.857,12.022,5.742a10.55,10.55,0,0,0,4.671.051,10.849,10.849,0,0,0,2.34-1.209,7.07,7.07,0,0,0,1.664-3.638c.33-2.505-.558-5.1.855-7.4,1.422-2.313,3.858-3.773,5.654-5.732l.11-.122-.123-.3c-1.774-.421-3.482-1.123-5.254-1.582-6.977-1.808-13.506-1.676-19.766,2.193-3.893,2.406-6.208,6.521-9.94,9.082C2765.873,2064.02,2767.617,2063.561,2768.43,2063.448Z" transform="translate(-2674.182 -2034.922)" fill="#de7604"/>
            <path id="Trazado_876010" data-name="Trazado 876010" d="M3003.908,2167.009c-1.886,1.026-4.58,1.285-6.654,1.905a74.023,74.023,0,0,0-10.122,3.909c-14.611,6.864-26.983,19.007-35.607,32.542a68.06,68.06,0,0,0-7.844,16.315,29.808,29.808,0,0,0-1.085,4.493,25.845,25.845,0,0,1-.451,3.5,8.269,8.269,0,0,1-1.152,2.011,21.929,21.929,0,0,1-8.086,7.381c-8.874,4.7-19.57,5.786-29.437,4.771a55.687,55.687,0,0,1-11.055-2.136c-2.946-.925-6.01-2.388-7.52-5.242s-.99-5.469-.437-8.458c-1,1.263-1.556,3.161-2.287,4.628l-6.609,13.183c-1,1.979-2.31,3.776-3.312,5.762a237.069,237.069,0,0,0,38.713,3.2l10.863-.033a37.521,37.521,0,0,1,5.145-.176l15.261-1.358a61.683,61.683,0,0,0,8.875-1.234,4.219,4.219,0,0,1,.918.073,6.09,6.09,0,0,1,1.328,1.128l2.676,2.427.054.257a7.015,7.015,0,0,1,3.028,2.238,1.68,1.68,0,0,0,.9.074,22.6,22.6,0,0,1,3.2-.767c.748-.079,1.493-.042,2.245-.137,3.286-.416,6.765.123,10.057.2l6.361.128c.467.009.938-.122,1.4-.1a1.153,1.153,0,0,1,.818.292l.577-.087a10.3,10.3,0,0,1,1.732-4.427,48.531,48.531,0,0,1,6.168-6.758,84.863,84.863,0,0,0,7.683-8.636c10.447-13.878,13.368-31.149,10.953-48.088a85.208,85.208,0,0,0-2.3-10.658c-.289-1.048-.525-2.833-1.4-3.491a2.8,2.8,0,0,0,.143-.5,5.816,5.816,0,0,0-.433-1.379c-.571-1.665-1.162-3.348-1.887-4.952-.289-.634-.641-1.577-1.328-1.836Z" transform="translate(-2735.16 -2100.758)" fill="#b55b09"/>
            <path id="Trazado_876011" data-name="Trazado 876011" d="M3103.359,2201.241c-.062,1.2,0,2.4-.169,3.591a78.921,78.921,0,0,1-2.043,11.708c-3.544,12.051-10.3,24.155-20.4,31.913-6.772,5.2-14.453,8.769-23.065,9.269a20.606,20.606,0,0,1-3.706.072l-.421-.087c-.554-.118-1.164-.1-1.729-.171a18.126,18.126,0,0,1-4.414-1.059,17.778,17.778,0,0,1-6.249-3.832,11.957,11.957,0,0,0-1.845-1.9,33.911,33.911,0,0,0,4.548,8.428c.521.717,3.046,3.492,3.017,4.072l-.656.172a4.194,4.194,0,0,1,.918.073,6.089,6.089,0,0,1,1.327,1.128l2.676,2.427.054.257a7.019,7.019,0,0,1,3.029,2.238,1.674,1.674,0,0,0,.9.074,22.6,22.6,0,0,1,3.2-.767c.749-.079,1.493-.042,2.246-.137,3.286-.416,6.764.123,10.056.2l6.361.129c.468.008.939-.123,1.4-.1a1.148,1.148,0,0,1,.818.292l.577-.088a10.29,10.29,0,0,1,1.731-4.427,48.531,48.531,0,0,1,6.168-6.758,84.863,84.863,0,0,0,7.683-8.636c10.447-13.877,13.368-31.148,10.953-48.088a85.018,85.018,0,0,0-2.3-10.657c-.289-1.048-.525-2.833-1.4-3.492A69.924,69.924,0,0,1,3103.359,2201.241Z" transform="translate(-2830.275 -2112.217)" fill="#a55a1c"/>
            <path id="Trazado_876012" data-name="Trazado 876012" d="M2607.4,2108.818a35.864,35.864,0,0,0,5.274,4.649c7.483,5.648,15.991,8.478,25.091,10.243,14.327,2.1,32.968-1.677,44.933-9.981a12.235,12.235,0,0,0,2.621-1.944,39.946,39.946,0,0,0,14.669-38.069,70.906,70.906,0,0,0-2.023-8.292c-2.266,2.11-6.156,2.877-9.141,2.9a29.723,29.723,0,0,1-15.778-4.29,53.617,53.617,0,0,0-4.642-3.025c-2.969-1.437-6.351-1.974-8.78-4.378-1.99-1.971-2.119-3.864-2.111-6.557.014-4.752,4.717-8.438,7.765-11.485a101.054,101.054,0,0,0-17.962,4.132c-16.647,5.77-31.438,17.883-41.8,32-4.079,5.557-7.321,10.859-6.227,18.067a27.446,27.446,0,0,0,3.185,9.719,51,51,0,0,0,3.3,4.634A15.137,15.137,0,0,0,2607.4,2108.818Z" transform="translate(-2579.632 -2027.67)" fill="#de7604"/>
            <path id="Trazado_876013" data-name="Trazado 876013" d="M2623.681,2206.308c7.483,5.648,15.991,8.478,25.092,10.244,14.327,2.1,32.968-1.677,44.933-9.981-.645-.375-1.458.059-2.111.282-3.388,1.16-6.673,2.389-10.143,3.316a80.251,80.251,0,0,1-24.619,2.5,91.438,91.438,0,0,1-26.226-5.531,64.639,64.639,0,0,1-10.3-4.729,4.191,4.191,0,0,0-1.9-.749A35.857,35.857,0,0,0,2623.681,2206.308Z" transform="translate(-2590.638 -2120.51)" fill="#ba610a"/>
            <path id="Trazado_876014" data-name="Trazado 876014" d="M2675.717,2090.763a9.657,9.657,0,0,0-2.137,7.319,9.489,9.489,0,0,0,3.679,6.169,12.366,12.366,0,0,0,7.741,2.4c3.042-.295,6.015-1.213,8.031-3.667a9.963,9.963,0,0,0,2.278-7.508,10.4,10.4,0,0,0-3.835-6.684,10.8,10.8,0,0,0-7.158-2.172l-.084.01C2680.94,2087,2677.86,2088.114,2675.717,2090.763Z" transform="translate(-2622.011 -2054.997)" fill="#763b05"/>
            <path id="Trazado_876015" data-name="Trazado 876015" d="M2683.409,2096.752a7.03,7.03,0,0,0-.322,5.344,6.669,6.669,0,0,0,3.771,3.937,7.508,7.508,0,0,0,3.329.493c1.891-.584,3.449-1.323,4.409-3.17a7.1,7.1,0,0,0,.213-5.462,6.988,6.988,0,0,0-3.384-4.013,7.4,7.4,0,0,0-3.758-.613A6.611,6.611,0,0,0,2683.409,2096.752Z" transform="translate(-2627.244 -2058.786)" fill="#070605"/>
            <path id="Trazado_876016" data-name="Trazado 876016" d="M2704.184,2112.745c.271.4.381.605.893.714a2.47,2.47,0,0,0,.576.019c.275-.55.521-.774.362-1.383a1.718,1.718,0,0,0-1.345-.585A2.391,2.391,0,0,0,2704.184,2112.745Z" transform="translate(-2639.474 -2069.185)" fill="#fefefe"/>
            <path id="Trazado_876017" data-name="Trazado 876017" d="M2687.1,2098.59a2.548,2.548,0,0,0,.356,1.975,2.983,2.983,0,0,0,1.7,1.3,5.128,5.128,0,0,0,1.354-.038,3.348,3.348,0,0,0,1.9-2.061,2.446,2.446,0,0,0-.306-1.845,3.027,3.027,0,0,0-1.829-1.379,4.2,4.2,0,0,0-1.325,0C2688.055,2097.087,2687.381,2097.5,2687.1,2098.59Z" transform="translate(-2629.711 -2060.631)" fill="#fefefe"/>
            <path id="Trazado_876018" data-name="Trazado 876018" d="M2756.718,2057.156c-1.8,1.959-4.231,3.419-5.654,5.732s-.525,4.894-.855,7.4a7.072,7.072,0,0,1-1.664,3.637l.57,1.456a70.784,70.784,0,0,1,2.023,8.292,39.939,39.939,0,0,1-14.669,38.068,12.189,12.189,0,0,1-2.621,1.945c-11.964,8.3-30.605,12.083-44.933,9.981.379,1.89,1.66,3.638,2.694,5.234a89.736,89.736,0,0,0,12.889,15.741l5.909,5.42c.718.625,1.606,1.143,2.269,1.812l-.037.09a32.94,32.94,0,0,1-6.916,2.29l-3.683.551,15.4,9.906a92.443,92.443,0,0,0,20.8,7.537l7.067,1.356c.377,3.882.775,11.665-1.774,14.7a4.5,4.5,0,0,1-2.583,1.306c-3.044.819-5.964,1.64-8.094,4.148a18.671,18.671,0,0,0-2.5,4.24l5.707-1.136a8.9,8.9,0,0,1,2.342-.4l-1.136,3.082a2.888,2.888,0,0,0-.335,1.022,29.988,29.988,0,0,1,5.6-1.409l7.048-.779c2.741-.287,5.631-.324,7.9-2.083,2.431-1.881,3.941-4.883,5.258-7.6l2.825-5.928a39.564,39.564,0,0,0,2.3-4.34c1-1.985,2.313-3.784,3.312-5.762l6.609-13.183c.731-1.468,1.288-3.366,2.287-4.629-.553,2.989-1.067,5.615.437,8.459s4.573,4.316,7.52,5.241a55.687,55.687,0,0,0,11.055,2.136c9.867,1.014,20.563-.068,29.437-4.772a21.923,21.923,0,0,0,8.086-7.38,8.287,8.287,0,0,0,1.152-2.011,25.845,25.845,0,0,0,.451-3.5,29.793,29.793,0,0,1,1.085-4.493,68.051,68.051,0,0,1,7.844-16.315c8.624-13.535,21-25.678,35.607-32.542a74.025,74.025,0,0,1,10.122-3.91c2.074-.621,4.768-.879,6.654-1.9l.079-.044c.125-.8-.469-1.528-.881-2.2l-3.261-4.981c-6.992-9.631-16.542-17.18-27.019-22.7a97.461,97.461,0,0,0-11.285-5.187,77.73,77.73,0,0,0-29.476-4.865l-13.785,1.167-16.024,1.43a107.448,107.448,0,0,1-24.385-.632,26.523,26.523,0,0,1-1.316-2.511,16.8,16.8,0,0,0-7.114-6.173,10.149,10.149,0,0,0-5.89-.975,15.9,15.9,0,0,0-2.341.827Z" transform="translate(-2630.781 -2037.625)" fill="#de7604"/>
            <path id="Trazado_876019" data-name="Trazado 876019" d="M2723.076,2304.235l-3.683.552,15.4,9.906a92.465,92.465,0,0,0,20.8,7.536l7.066,1.357a19.725,19.725,0,0,0-3.2-9.26,30.328,30.328,0,0,0-3.665-4.022l-3.535-3.7a15.8,15.8,0,0,0,5.021,7.713,8.449,8.449,0,0,1-2.315-.375,61.652,61.652,0,0,1-19.588-8.2c-1.126-.695-2.223-1.464-3.274-2.269a11.386,11.386,0,0,0-2.12-1.524A32.925,32.925,0,0,1,2723.076,2304.235Z" transform="translate(-2648.133 -2177.607)" fill="#ba610a"/>
            <path id="Trazado_876020" data-name="Trazado 876020" d="M2756.718,2057.156c-1.8,1.959-4.231,3.419-5.654,5.732s-.525,4.894-.855,7.4a7.072,7.072,0,0,1-1.664,3.637l.57,1.456a70.784,70.784,0,0,1,2.023,8.292,39.939,39.939,0,0,1-14.669,38.068,12.189,12.189,0,0,1-2.621,1.945c-11.964,8.3-30.605,12.083-44.933,9.981.379,1.89,1.66,3.638,2.694,5.234a89.736,89.736,0,0,0,12.889,15.741l5.909,5.42c.718.625,1.606,1.143,2.269,1.812a12.423,12.423,0,0,0,3.022-1.543,28.192,28.192,0,0,0,8.312-7.936c-1.094,4.019-2.364,7.538-5.136,10.745l1.345-.456c6.417-2.343,11.774-6.494,17.056-10.7a72.034,72.034,0,0,0,9.686-8.78,46.442,46.442,0,0,0,6.482-9.756,28.211,28.211,0,0,0,2.282-6.308,22.276,22.276,0,0,1,1.025-4.231,20.955,20.955,0,0,1,.176,4.1,34.382,34.382,0,0,1-.64,7.3,48.416,48.416,0,0,1-3.4,9.26l.127-.029a7.978,7.978,0,0,0,1.243-.971l3.153-2.513c8.107-6.549,15.7-13.567,19.926-23.312,5.872-13.531,5.24-28.769.167-42.437a38.208,38.208,0,0,0-1.982-4.519,39.116,39.116,0,0,1-2.03-3.917,26.523,26.523,0,0,1-1.316-2.511,16.8,16.8,0,0,0-7.114-6.173,10.149,10.149,0,0,0-5.89-.975,15.9,15.9,0,0,0-2.341.827Z" transform="translate(-2630.781 -2037.625)" fill="#b55b09"/>
          </g>
        </g>
      </g>
      <path id="Trazado_876021" data-name="Trazado 876021" d="M2996.025,2221.238a13.132,13.132,0,0,0-.68-3c-1.068-3.031-3.389-5.761-5.509-8.114a78.682,78.682,0,0,0-12.795-11.476,73.21,73.21,0,0,0-10.107-6.033,84.276,84.276,0,0,0-7.8-3.308c-1.278-.478-2.731-.845-3.947-1.447l-.073-.037a15.647,15.647,0,0,0-6.861-9.455c-2.823-1.605-5.83-1.537-8.895-.682a27.257,27.257,0,0,0-10.429,6.162,17.4,17.4,0,0,0-13.767-2.3,24.021,24.021,0,0,0-10.921,5.778,16.848,16.848,0,0,0-2.984,3.251l-.04.064-.732.979-.094.226a11.991,11.991,0,0,0-1.78-.628,7.713,7.713,0,0,0-4.478.741,12.772,12.772,0,0,0-5.408,4.692,20.216,20.216,0,0,1-1,1.91,81.662,81.662,0,0,1-18.539.481l-12.182-1.087-10.48-.887a59.069,59.069,0,0,0-22.408,3.7,74.186,74.186,0,0,0-8.581,3.943,59.325,59.325,0,0,0-20.54,17.257l-2.479,3.787c-.313.51-.766,1.063-.67,1.67-.522.2-.791.914-1.009,1.4-.552,1.22-1,2.5-1.436,3.765a4.384,4.384,0,0,0-.329,1.048,2.013,2.013,0,0,0,.108.38c-.668.5-.849,1.858-1.068,2.655a64.676,64.676,0,0,0-1.748,8.1c-1.835,12.878.385,26.009,8.327,36.559a64.669,64.669,0,0,0,5.841,6.566,36.841,36.841,0,0,1,4.689,5.138,7.833,7.833,0,0,1,1.317,3.366l.438.066-.358.208a6.1,6.1,0,0,0,.021,4.142c.706,1.511,2.49,2.3,3.975,2.818a40.1,40.1,0,0,0,5.431,1.329l6.361,1.263a26.369,26.369,0,0,1,6.8,2.036c.159-.214.145-.26.112-.53-.089-.766-.869-1.486-.923-2.149a52.553,52.553,0,0,1,7.843,2.408,9.57,9.57,0,0,0-1.647-3.668l5.819,1.327a10.929,10.929,0,0,0-5.786-6.5c-2.666-1.35-5.719-1.743-8.625-2.282l-.041-.169a5.334,5.334,0,0,1,2.3-1.7,1.186,1.186,0,0,0,.2.468,7.449,7.449,0,0,0,3.127,2.381c2.721,1.1,5.91,1.213,8.779,1.706l9.931,1.886a11.975,11.975,0,0,0-2.3-2.829l7.4,1.393c-.916-2.58-2.886-4.229-5-5.8l-.007-.189a28.341,28.341,0,0,1,3.911.133l8.259.025a180.217,180.217,0,0,0,29.432-2.429,30.173,30.173,0,0,0,1.749,3.3l2.148,4.507c1,2.064,2.149,4.346,4,5.777,1.728,1.337,3.925,1.366,6.009,1.584l5.358.592a22.8,22.8,0,0,1,4.253,1.071,2.176,2.176,0,0,0-.255-.778l-.863-2.343a6.781,6.781,0,0,1,1.781.3l4.338.864a14.166,14.166,0,0,0-1.9-3.223c-1.619-1.908-3.839-2.532-6.154-3.154a3.422,3.422,0,0,1-1.964-.992c-1.937-2.31-1.635-8.227-1.348-11.178l5.373-1.031,2.963,5.491a48.036,48.036,0,0,0,3.138,5.348,7.849,7.849,0,0,0,6.52,3.275,29,29,0,0,1,3.166.031l6.606,1.171a18.3,18.3,0,0,0-1.5-3.086l5.948,1.09a11.09,11.09,0,0,0-1.6-3.051,8.054,8.054,0,0,0-4.806-2.832c-.621-.127-1.261-.131-1.885-.23a3.17,3.17,0,0,1-1.982-1.35,7.181,7.181,0,0,1-1.054-2.773,25.542,25.542,0,0,1,.3-8.813l11.709-7.531a76.069,76.069,0,0,0,10.209-9.628c2.956-3.368,5.5-7.222,9.157-9.893a22.912,22.912,0,0,1,7.235-3.592l4.063-1.023a28.84,28.84,0,0,0,11.412-6.208,46.887,46.887,0,0,0,3.7-4.471,10,10,0,0,0,2.257-1.245,14.316,14.316,0,0,0,3.454-3.954,19.5,19.5,0,0,0,2.688-9.953A10.139,10.139,0,0,0,2996.025,2221.238Z" transform="translate(-2675.541 -2106.521)" fill="#6b3605" opacity="0.18"/>
      <g id="Grupo_1189045" data-name="Grupo 1189045" transform="translate(121.836 76.859)">
        <g id="Grupo_1189044" data-name="Grupo 1189044">
          <g id="Grupo_1189043" data-name="Grupo 1189043">
            <path id="Trazado_876022" data-name="Trazado 876022" d="M2921.958,2459.556l11.6,1.032.007.189c2.118,1.569,4.088,3.22,5,5.8l-7.4-1.393a11.973,11.973,0,0,1,2.3,2.829l-9.93-1.886c-2.87-.493-6.059-.6-8.779-1.706a7.444,7.444,0,0,1-3.126-2.382,1.182,1.182,0,0,1-.206-.468l.041-.2,2.035-1.845a4.573,4.573,0,0,1,1.009-.858,3.188,3.188,0,0,1,.7-.056A46.99,46.99,0,0,0,2921.958,2459.556Z" transform="translate(-2868.923 -2343.665)" fill="#93480a"/>
            <path id="Trazado_876023" data-name="Trazado 876023" d="M3127.229,2442.508a7.183,7.183,0,0,0,1.055,2.772,3.167,3.167,0,0,0,1.982,1.35c.625.1,1.264.1,1.885.23a8.052,8.052,0,0,1,4.806,2.832,11.055,11.055,0,0,1,1.6,3.051l-5.948-1.09a18.238,18.238,0,0,1,1.5,3.085l-6.606-1.17a28.883,28.883,0,0,0-3.166-.031,7.849,7.849,0,0,1-6.52-3.275,48.164,48.164,0,0,1-3.139-5.348l-2.963-5.491a70.272,70.272,0,0,0,15.814-5.729A25.581,25.581,0,0,0,3127.229,2442.508Z" transform="translate(-2982.955 -2329.475)" fill="#93480a"/>
            <path id="Trazado_876024" data-name="Trazado 876024" d="M2880.086,2468.606c2.906.54,5.958.932,8.625,2.282a10.927,10.927,0,0,1,5.785,6.5l-5.818-1.327a9.567,9.567,0,0,1,1.647,3.668,52.577,52.577,0,0,0-7.843-2.408c.054.663.834,1.383.923,2.149.033.269.047.315-.112.529a26.4,26.4,0,0,0-6.8-2.035l-6.36-1.263a40.16,40.16,0,0,1-5.431-1.329c-1.485-.521-3.269-1.308-3.974-2.818a6.1,6.1,0,0,1-.022-4.142l.358-.207a.872.872,0,0,1,.622-.223c.348-.018.706.082,1.062.075l4.835-.1c2.5-.057,5.147-.466,7.645-.151.572.073,1.139.044,1.707.1a17.16,17.16,0,0,1,2.432.584,1.275,1.275,0,0,0,.681-.057Z" transform="translate(-2839.844 -2348.829)" fill="#93480a"/>
            <path id="Trazado_876025" data-name="Trazado 876025" d="M3218.687,2292.026l.23.036a10.215,10.215,0,0,1,.192,2.572,19.5,19.5,0,0,1-2.689,9.953,14.3,14.3,0,0,1-3.454,3.954,9.979,9.979,0,0,1-2.256,1.245,46.816,46.816,0,0,1-3.7,4.471,28.832,28.832,0,0,1-11.411,6.208l-4.063,1.023a22.938,22.938,0,0,0-7.235,3.592c-3.66,2.671-6.2,6.525-9.157,9.893a76.011,76.011,0,0,1-10.209,9.628l-2.8-.419a24.958,24.958,0,0,1-5.257-1.741l-.028-.068c.5-.509,1.179-.9,1.725-1.377l4.493-4.121a68.263,68.263,0,0,0,9.8-11.967,12.347,12.347,0,0,0,2.048-3.979c6.918-1.343,13.387-3.494,19.076-7.788a27.275,27.275,0,0,0,4.009-3.534,11.465,11.465,0,0,0,1.237-1.277c.789.349,2.942-.276,3.844-.519a13.756,13.756,0,0,0,8.148-5.871c.612-.974,1.052-2.051,1.627-3.05a.56.56,0,0,0-.167-.112,24.422,24.422,0,0,1-3.674-2.575,8.862,8.862,0,0,1-2.826-3.267,1.907,1.907,0,0,1,.188-.866c1.189-2.069,4.412-.941,6.165-.356a5.727,5.727,0,0,0,1.134.387,6.514,6.514,0,0,0,.953-.562,9.054,9.054,0,0,1,2.366-1.1A2.754,2.754,0,0,1,3218.687,2292.026Z" transform="translate(-3008.652 -2247.912)" fill="#e0c29b"/>
            <path id="Trazado_876026" data-name="Trazado 876026" d="M3277.117,2292.026l.23.036a10.215,10.215,0,0,1,.192,2.572,19.5,19.5,0,0,1-2.689,9.953,14.3,14.3,0,0,1-3.454,3.954,9.979,9.979,0,0,1-2.256,1.245,6.142,6.142,0,0,0-1.238-.373,11.885,11.885,0,0,0-1.175.865,8.289,8.289,0,0,1-2.286.841,6.805,6.805,0,0,1-4.962-1.055l1.93.337a7.234,7.234,0,0,0,5.5-1.585c2.842-2.262,4.011-6.461,4.38-9.928a.56.56,0,0,0-.167-.112,24.422,24.422,0,0,1-3.674-2.575,8.862,8.862,0,0,1-2.826-3.267,1.907,1.907,0,0,1,.188-.866c1.189-2.069,4.412-.941,6.165-.356a5.727,5.727,0,0,0,1.134.387,6.514,6.514,0,0,0,.953-.562,9.054,9.054,0,0,1,2.366-1.1A2.754,2.754,0,0,1,3277.117,2292.026Z" transform="translate(-3067.083 -2247.912)" fill="#9f540f"/>
            <path id="Trazado_876027" data-name="Trazado 876027" d="M3292.365,2296.738a19.5,19.5,0,0,1-2.689,9.953,14.3,14.3,0,0,1-3.454,3.953l-.586-.4a3.82,3.82,0,0,1-.062-1.6,52.735,52.735,0,0,1,1.043-5.193c.152-.786.167-1.8.4-2.532.115-.369,1.667-1.4,2.064-1.743a7.11,7.11,0,0,0,2.866-5.046l.23.036A10.215,10.215,0,0,1,3292.365,2296.738Z" transform="translate(-3081.908 -2250.016)" fill="#e0c29b"/>
            <path id="Trazado_876028" data-name="Trazado 876028" d="M3163.681,2210.572c1.177.174,2.354.3,3.52.564l6.519,1.722.073.038c1.216.6,2.669.969,3.947,1.447a84.327,84.327,0,0,1,7.8,3.307,73.264,73.264,0,0,1,10.106,6.033,78.693,78.693,0,0,1,12.8,11.477c2.12,2.353,4.441,5.083,5.509,8.113a13.176,13.176,0,0,1,.681,3l-.229-.036a2.752,2.752,0,0,0-1.694-1.591,9.023,9.023,0,0,0-2.366,1.1,6.527,6.527,0,0,1-.953.562,5.727,5.727,0,0,1-1.134-.387c-1.753-.585-4.976-1.712-6.166.356a1.909,1.909,0,0,0-.187.865,8.868,8.868,0,0,0,2.826,3.268,24.4,24.4,0,0,0,3.674,2.574.557.557,0,0,1,.167.112c-.575,1-1.015,2.076-1.626,3.05a13.758,13.758,0,0,1-8.148,5.871c-.9.243-3.055.868-3.844.519a38.764,38.764,0,0,0,2.508-3.523,20.863,20.863,0,0,0,2.421-7.388c.832-5.48-1.633-9.511-4.734-13.735-7.876-10.729-19.122-19.938-31.777-24.324a76.778,76.778,0,0,0-13.655-3.141,4.025,4.025,0,0,1-.392-.315l.106-.1,11.248.4A7.206,7.206,0,0,1,3163.681,2210.572Z" transform="translate(-3004.364 -2202.126)" fill="#f9e4c5"/>
            <path id="Trazado_876029" data-name="Trazado 876029" d="M3188.8,2213.267c1.216.6,2.669.969,3.947,1.447a84.085,84.085,0,0,1,7.8,3.308,73.221,73.221,0,0,1,10.107,6.033,78.688,78.688,0,0,1,12.8,11.477c2.121,2.353,4.44,5.083,5.509,8.114a13.237,13.237,0,0,1,.681,3l-.23-.036a2.754,2.754,0,0,0-1.694-1.591,9.649,9.649,0,0,0-1.092-2.158,62.323,62.323,0,0,0-12.25-13.519,87.625,87.625,0,0,0-22.783-14.048c-2.069-.872-4.126-1.723-6.265-2.406-3.173-1.013-6.4-1.411-9.642-2.108a7.194,7.194,0,0,1,3.007.162c1.177.175,2.356.3,3.52.564l6.52,1.722Z" transform="translate(-3019.374 -2202.497)" fill="#de7604"/>
            <path id="Trazado_876030" data-name="Trazado 876030" d="M3127.113,2200.708c-1.164-.262-2.343-.39-3.52-.564a7.194,7.194,0,0,0-3.007-.162l-11.248-.4-.105.1a4.1,4.1,0,0,0,.391.314c2.317,2.316,5.892,5.118,5.9,8.731.006,2.047-.092,3.487-1.6,4.985-1.847,1.828-4.418,2.236-6.675,3.329a40.526,40.526,0,0,0-3.529,2.3,22.59,22.59,0,0,1-12,3.261c-2.27-.019-5.227-.6-6.95-2.206l.434-1.107a5.367,5.367,0,0,1-1.265-2.766c-.251-1.9.424-3.879-.65-5.625s-2.934-2.868-4.3-4.358l-.084-.093.094-.226.732-.978.04-.064a16.829,16.829,0,0,1,2.984-3.25,24.034,24.034,0,0,1,10.921-5.778,17.4,17.4,0,0,1,13.767,2.3,27.265,27.265,0,0,1,10.429-6.162c3.066-.855,6.073-.923,8.895.682a15.653,15.653,0,0,1,6.862,9.455Z" transform="translate(-2964.277 -2191.698)" fill="#ba610a"/>
            <path id="Trazado_876031" data-name="Trazado 876031" d="M3098.148,2219.474c-4.759-2.941-9.723-3.042-15.026-1.667-1.348.349-2.646.882-3.995,1.2l.732-.978h.066a4.37,4.37,0,0,0,1.487-.73l2.448-1.194c5.085-2.333,12.09-3.113,16.675.674,2.848,2.353,7.117,8.916,11.161,8.588.7-.057,1.338-.393,2-.447a8.175,8.175,0,0,1-6.373,1.9,4.791,4.791,0,0,1-1.623-.44C3102.867,2224.431,3101.107,2221.3,3098.148,2219.474Z" transform="translate(-2964.401 -2204.479)" fill="#9f540f"/>
            <path id="Trazado_876032" data-name="Trazado 876032" d="M3103.083,2229.875l-5.408-.734a26.774,26.774,0,0,0,2,3.158c-3.011,1.832-5.582,3.692-9.14,4.365a8.019,8.019,0,0,1-3.551.04,8.272,8.272,0,0,1-1.78-.919,5.369,5.369,0,0,1-1.265-2.766c-.251-1.9.424-3.879-.65-5.625s-2.934-2.868-4.3-4.358l-.084-.093.094-.226c1.349-.319,2.647-.852,4-1.2,5.3-1.375,10.268-1.275,15.026,1.667,2.959,1.829,4.719,4.957,7.557,6.905A7.02,7.02,0,0,1,3103.083,2229.875Z" transform="translate(-2964.277 -2208.187)" fill="#de7604"/>
            <path id="Trazado_876033" data-name="Trazado 876033" d="M2818.879,2308.605c1.434.78,3.481.977,5.059,1.448a56.4,56.4,0,0,1,7.695,2.972c11.108,5.218,20.514,14.45,27.07,24.74a51.661,51.661,0,0,1,5.963,12.4,22.651,22.651,0,0,1,.825,3.415,19.51,19.51,0,0,0,.342,2.657,6.3,6.3,0,0,0,.876,1.529,16.669,16.669,0,0,0,6.148,5.611c6.746,3.576,14.877,4.4,22.379,3.627a42.34,42.34,0,0,0,8.4-1.624c2.24-.7,4.569-1.815,5.717-3.985s.753-4.158.333-6.431a20.44,20.44,0,0,1,1.738,3.519l5.025,10.022c.76,1.5,1.756,2.871,2.518,4.38a180.249,180.249,0,0,1-29.431,2.43l-8.258-.026a28.423,28.423,0,0,0-3.911-.133l-11.6-1.032a47.019,47.019,0,0,1-6.748-.939,3.157,3.157,0,0,0-.7.056,4.6,4.6,0,0,0-1.009.857l-2.035,1.846-.041.2a5.327,5.327,0,0,0-2.3,1.7,1.275,1.275,0,0,1-.681.057,17.219,17.219,0,0,0-2.431-.583c-.569-.06-1.135-.032-1.708-.1-2.5-.316-5.142.094-7.645.151l-4.836.1c-.355.006-.714-.093-1.062-.075a.874.874,0,0,0-.622.223l-.439-.067a7.832,7.832,0,0,0-1.316-3.365,36.877,36.877,0,0,0-4.69-5.138,64.659,64.659,0,0,1-5.84-6.565c-7.942-10.551-10.163-23.681-8.327-36.559a64.77,64.77,0,0,1,1.748-8.1c.22-.8.4-2.153,1.068-2.654a2.067,2.067,0,0,1-.108-.38,4.408,4.408,0,0,1,.329-1.049c.435-1.266.884-2.545,1.435-3.765.22-.482.487-1.2,1.01-1.4Z" transform="translate(-2812.734 -2258.239)" fill="#b55b09"/>
            <path id="Trazado_876034" data-name="Trazado 876034" d="M2815.583,2334.631c.046.91,0,1.825.128,2.73a59.922,59.922,0,0,0,1.553,8.9c2.695,9.162,7.828,18.363,15.512,24.262,5.148,3.952,10.987,6.666,17.534,7.046a15.655,15.655,0,0,0,2.817.054l.32-.066c.421-.089.885-.073,1.315-.13a13.8,13.8,0,0,0,3.355-.8,13.522,13.522,0,0,0,4.75-2.914,9.083,9.083,0,0,1,1.4-1.441,25.786,25.786,0,0,1-3.458,6.408c-.4.545-2.315,2.654-2.293,3.1l.5.13a3.157,3.157,0,0,0-.7.056,4.6,4.6,0,0,0-1.009.857l-2.035,1.846-.041.195a5.337,5.337,0,0,0-2.3,1.7,1.284,1.284,0,0,1-.681.057,17.087,17.087,0,0,0-2.431-.584c-.569-.06-1.135-.032-1.708-.1-2.5-.316-5.142.093-7.645.151l-4.836.1c-.355.006-.714-.093-1.062-.075a.872.872,0,0,0-.622.223l-.439-.067a7.827,7.827,0,0,0-1.316-3.365,36.85,36.85,0,0,0-4.69-5.138,64.617,64.617,0,0,1-5.84-6.566c-7.942-10.55-10.163-23.68-8.327-36.558a64.752,64.752,0,0,1,1.748-8.1c.22-.8.4-2.154,1.068-2.654A53.17,53.17,0,0,0,2815.583,2334.631Z" transform="translate(-2812.734 -2266.95)" fill="#a55a1c"/>
            <path id="Trazado_876035" data-name="Trazado 876035" d="M3158.84,2264.367a27.275,27.275,0,0,1-4.009,3.534c-5.689,4.294-12.157,6.445-19.076,7.788-10.893,1.6-25.064-1.275-34.16-7.589a9.286,9.286,0,0,1-1.993-1.478,30.368,30.368,0,0,1-11.151-28.942,53.853,53.853,0,0,1,1.538-6.3c1.723,1.6,4.68,2.187,6.949,2.206a22.6,22.6,0,0,0,12-3.261,40.5,40.5,0,0,1,3.529-2.3c2.257-1.092,4.828-1.5,6.675-3.329,1.514-1.5,1.611-2.938,1.6-4.984-.011-3.614-3.586-6.416-5.9-8.732a76.8,76.8,0,0,1,13.655,3.141c12.655,4.387,23.9,13.6,31.777,24.325,3.1,4.224,5.566,8.254,4.734,13.735a20.863,20.863,0,0,1-2.421,7.389,38.928,38.928,0,0,1-2.508,3.523A11.465,11.465,0,0,1,3158.84,2264.367Z" transform="translate(-2969.493 -2202.674)" fill="#de7604"/>
            <path id="Trazado_876036" data-name="Trazado 876036" d="M3172.71,2338.483c-5.689,4.294-12.157,6.445-19.076,7.787-10.893,1.6-25.064-1.275-34.16-7.588.49-.286,1.108.045,1.605.215,2.576.882,5.073,1.816,7.711,2.52a60.985,60.985,0,0,0,18.716,1.9,69.558,69.558,0,0,0,19.938-4.2,49.188,49.188,0,0,0,7.832-3.6,3.188,3.188,0,0,1,1.442-.57A27.278,27.278,0,0,1,3172.71,2338.483Z" transform="translate(-2987.373 -2273.255)" fill="#ba610a"/>
            <path id="Trazado_876037" data-name="Trazado 876037" d="M3186.867,2250.64a7.342,7.342,0,0,1,1.624,5.564,7.21,7.21,0,0,1-2.8,4.689,9.392,9.392,0,0,1-5.885,1.828,8.6,8.6,0,0,1-6.106-2.788,7.577,7.577,0,0,1-1.731-5.708,7.914,7.914,0,0,1,2.916-5.082,8.207,8.207,0,0,1,5.441-1.65l.064.007A9.255,9.255,0,0,1,3186.867,2250.64Z" transform="translate(-3017.238 -2223.45)" fill="#763b05"/>
            <path id="Trazado_876038" data-name="Trazado 876038" d="M3190.371,2255.194a5.345,5.345,0,0,1,.244,4.063,5.068,5.068,0,0,1-2.866,2.993,5.715,5.715,0,0,1-2.53.375,4.985,4.985,0,0,1-3.352-2.41,5.4,5.4,0,0,1-.163-4.153,5.315,5.315,0,0,1,2.572-3.05,5.623,5.623,0,0,1,2.858-.466A5.028,5.028,0,0,1,3190.371,2255.194Z" transform="translate(-3022.611 -2226.33)" fill="#070605"/>
            <path id="Trazado_876039" data-name="Trazado 876039" d="M3185.3,2267.352c-.207.308-.29.461-.679.543a1.846,1.846,0,0,1-.437.014c-.209-.418-.4-.589-.275-1.051a1.3,1.3,0,0,1,1.021-.445A1.815,1.815,0,0,1,3185.3,2267.352Z" transform="translate(-3024.033 -2234.236)" fill="#fefefe"/>
            <path id="Trazado_876040" data-name="Trazado 876040" d="M3194.7,2256.591a1.936,1.936,0,0,1-.271,1.5,2.269,2.269,0,0,1-1.292.986,3.878,3.878,0,0,1-1.03-.029,2.545,2.545,0,0,1-1.445-1.567,1.859,1.859,0,0,1,.232-1.4,2.3,2.3,0,0,1,1.391-1.048,3.18,3.18,0,0,1,1.007,0C3193.977,2255.448,3194.488,2255.76,3194.7,2256.591Z" transform="translate(-3027.873 -2227.732)" fill="#fefefe"/>
            <path id="Trazado_876041" data-name="Trazado 876041" d="M2935.478,2225.091c1.365,1.49,3.217,2.6,4.3,4.358s.4,3.721.65,5.625a5.371,5.371,0,0,0,1.265,2.766l-.434,1.107a53.805,53.805,0,0,0-1.538,6.3,30.369,30.369,0,0,0,11.151,28.942,9.286,9.286,0,0,0,1.993,1.478c9.1,6.313,23.267,9.186,34.16,7.588a12.349,12.349,0,0,1-2.048,3.979,68.256,68.256,0,0,1-9.8,11.967l-4.493,4.121c-.545.475-1.22.868-1.724,1.377l.028.068a25.009,25.009,0,0,0,5.258,1.741l2.8.419-11.709,7.531a70.349,70.349,0,0,1-15.814,5.73l-5.372,1.031c-.287,2.952-.59,8.869,1.348,11.177a3.42,3.42,0,0,0,1.964.993c2.314.623,4.535,1.247,6.154,3.154a14.179,14.179,0,0,1,1.9,3.223l-4.338-.863a6.762,6.762,0,0,0-1.781-.3l.863,2.344a2.183,2.183,0,0,1,.255.777,22.781,22.781,0,0,0-4.254-1.071l-5.358-.591c-2.083-.219-4.281-.248-6.008-1.585-1.848-1.431-3-3.712-4-5.776l-2.148-4.507a30.348,30.348,0,0,1-1.75-3.3c-.762-1.51-1.757-2.877-2.518-4.381l-5.025-10.022a20.405,20.405,0,0,0-1.738-3.519c.42,2.272.811,4.269-.333,6.431s-3.476,3.281-5.716,3.984a42.338,42.338,0,0,1-8.4,1.624c-7.5.771-15.633-.051-22.379-3.628a16.661,16.661,0,0,1-6.147-5.61,6.323,6.323,0,0,1-.876-1.529,19.675,19.675,0,0,1-.342-2.657,22.651,22.651,0,0,0-.825-3.415,51.643,51.643,0,0,0-5.963-12.4c-6.556-10.29-15.962-19.522-27.069-24.74a56.338,56.338,0,0,0-7.7-2.972c-1.577-.472-3.625-.668-5.058-1.448l-.06-.033c-.1-.608.357-1.161.669-1.671l2.479-3.787a59.344,59.344,0,0,1,20.541-17.257,74.172,74.172,0,0,1,8.58-3.943,59.1,59.1,0,0,1,22.409-3.7l10.48.887,12.183,1.086a81.691,81.691,0,0,0,18.539-.48,20.032,20.032,0,0,0,1-1.909,12.778,12.778,0,0,1,5.409-4.693,7.714,7.714,0,0,1,4.478-.74,11.92,11.92,0,0,1,1.78.628Z" transform="translate(-2820.762 -2210.243)" fill="#de7604"/>
            <path id="Trazado_876042" data-name="Trazado 876042" d="M3129.336,2412.932l2.8.419-11.709,7.532a70.344,70.344,0,0,1-15.814,5.729l-5.373,1.031a14.99,14.99,0,0,1,2.429-7.04,22.992,22.992,0,0,1,2.787-3.058l2.687-2.814a12.014,12.014,0,0,1-3.817,5.864,6.429,6.429,0,0,0,1.761-.286,46.856,46.856,0,0,0,14.891-6.235,30.227,30.227,0,0,0,2.489-1.725,8.68,8.68,0,0,1,1.612-1.159A25.046,25.046,0,0,0,3129.336,2412.932Z" transform="translate(-2975.853 -2316.663)" fill="#ba610a"/>
            <path id="Trazado_876043" data-name="Trazado 876043" d="M3054.171,2225.091c1.365,1.49,3.217,2.6,4.3,4.358s.4,3.721.65,5.625a5.374,5.374,0,0,0,1.265,2.766l-.433,1.107a53.708,53.708,0,0,0-1.538,6.3,30.365,30.365,0,0,0,11.152,28.942,9.269,9.269,0,0,0,1.992,1.478c9.1,6.313,23.268,9.186,34.16,7.588a12.331,12.331,0,0,1-2.048,3.979,68.234,68.234,0,0,1-9.8,11.967l-4.492,4.121c-.546.475-1.221.868-1.725,1.377a9.471,9.471,0,0,1-2.3-1.173,21.446,21.446,0,0,1-6.32-6.034,19.543,19.543,0,0,0,3.9,8.169l-1.022-.347c-4.878-1.782-8.951-4.937-12.967-8.135a54.836,54.836,0,0,1-7.364-6.675,35.3,35.3,0,0,1-4.928-7.417,21.487,21.487,0,0,1-1.735-4.8,16.993,16.993,0,0,0-.779-3.217,15.855,15.855,0,0,0-.134,3.114,26.133,26.133,0,0,0,.486,5.547,36.857,36.857,0,0,0,2.585,7.041l-.1-.022a6.041,6.041,0,0,1-.944-.738l-2.4-1.91c-6.164-4.979-11.933-10.314-15.148-17.723-4.464-10.287-3.984-21.872-.127-32.263a28.976,28.976,0,0,1,1.507-3.434,29.736,29.736,0,0,0,1.543-2.978,20.035,20.035,0,0,0,1-1.909,12.781,12.781,0,0,1,5.408-4.693,7.719,7.719,0,0,1,4.479-.74,11.9,11.9,0,0,1,1.78.628Z" transform="translate(-2939.455 -2210.243)" fill="#f9e4c5"/>
          </g>
        </g>
      </g>
      <path id="Trazado_876044" data-name="Trazado 876044" d="M2743.466,2254.713a13.165,13.165,0,0,0-.681-3c-1.068-3.03-3.388-5.761-5.509-8.114a78.667,78.667,0,0,0-12.795-11.477,73.278,73.278,0,0,0-10.107-6.033c-2.532-1.249-5.154-2.319-7.8-3.308-1.279-.478-2.731-.844-3.948-1.446l-.072-.037a15.649,15.649,0,0,0-6.862-9.455c-2.822-1.605-5.829-1.537-8.894-.682a27.252,27.252,0,0,0-10.429,6.163,17.4,17.4,0,0,0-13.767-2.3,24.027,24.027,0,0,0-10.922,5.778,16.85,16.85,0,0,0-2.983,3.25l-.041.065-.732.978-.094.226a12,12,0,0,0-1.78-.628,7.717,7.717,0,0,0-4.479.741,12.771,12.771,0,0,0-5.408,4.693,20.262,20.262,0,0,1-1,1.909,81.663,81.663,0,0,1-18.539.481l-12.183-1.087-10.48-.887a59.1,59.1,0,0,0-22.408,3.7,74.141,74.141,0,0,0-8.58,3.943,59.331,59.331,0,0,0-20.541,17.257l-2.479,3.787c-.313.51-.765,1.063-.67,1.671-.522.2-.79.914-1.009,1.4-.551,1.22-1,2.5-1.435,3.765a4.427,4.427,0,0,0-.33,1.049,2.127,2.127,0,0,0,.108.381c-.669.5-.848,1.857-1.068,2.654a64.676,64.676,0,0,0-1.748,8.1c-1.835,12.878.385,26.009,8.328,36.559a64.542,64.542,0,0,0,5.84,6.565,36.934,36.934,0,0,1,4.69,5.138,7.821,7.821,0,0,1,1.316,3.365l.439.066-.358.208a6.09,6.09,0,0,0,.022,4.142c.705,1.511,2.489,2.3,3.973,2.818a40.089,40.089,0,0,0,5.432,1.328l6.361,1.263a26.385,26.385,0,0,1,6.8,2.036c.159-.213.145-.26.112-.53-.089-.765-.868-1.485-.923-2.149a52.6,52.6,0,0,1,7.843,2.408,9.572,9.572,0,0,0-1.647-3.668l5.818,1.327a10.93,10.93,0,0,0-5.785-6.5c-2.667-1.35-5.719-1.742-8.625-2.282l-.041-.169a5.327,5.327,0,0,1,2.3-1.7,1.184,1.184,0,0,0,.2.468,7.45,7.45,0,0,0,3.127,2.382c2.72,1.1,5.909,1.213,8.779,1.706l9.931,1.886a11.958,11.958,0,0,0-2.3-2.829l7.4,1.393c-.916-2.579-2.886-4.229-5-5.8l-.007-.189a28.421,28.421,0,0,1,3.911.133l8.258.026a180.268,180.268,0,0,0,29.432-2.429,30.053,30.053,0,0,0,1.749,3.3l2.147,4.507c1,2.064,2.149,4.346,4,5.776,1.728,1.338,3.925,1.366,6.008,1.585l5.359.591a22.762,22.762,0,0,1,4.253,1.071,2.182,2.182,0,0,0-.255-.777l-.863-2.344a6.769,6.769,0,0,1,1.78.3l4.339.863a14.2,14.2,0,0,0-1.9-3.223c-1.62-1.907-3.84-2.532-6.154-3.154a3.42,3.42,0,0,1-1.964-.993c-1.937-2.309-1.635-8.225-1.348-11.177l5.372-1.031,2.963,5.491a48.058,48.058,0,0,0,3.139,5.347,7.851,7.851,0,0,0,6.521,3.276,29,29,0,0,1,3.166.03l6.606,1.171a18.208,18.208,0,0,0-1.5-3.086l5.948,1.09a11.084,11.084,0,0,0-1.6-3.051,8.056,8.056,0,0,0-4.806-2.832c-.622-.127-1.261-.13-1.886-.229a3.165,3.165,0,0,1-1.982-1.351,7.164,7.164,0,0,1-1.054-2.772,25.558,25.558,0,0,1,.3-8.813l11.71-7.531a76.04,76.04,0,0,0,10.209-9.628c2.956-3.368,5.5-7.222,9.157-9.893a22.937,22.937,0,0,1,7.235-3.591l4.063-1.023a28.832,28.832,0,0,0,11.411-6.208,46.9,46.9,0,0,0,3.7-4.471,9.954,9.954,0,0,0,2.257-1.245,14.293,14.293,0,0,0,3.454-3.954,19.5,19.5,0,0,0,2.689-9.953A10.168,10.168,0,0,0,2743.466,2254.713Z" transform="translate(-2531.749 -2125.579)" fill="#6b3605" opacity="0.18"/>
      <g id="Grupo_1189048" data-name="Grupo 1189048" transform="translate(0 91.275)">
        <g id="Grupo_1189047" data-name="Grupo 1189047">
          <g id="Grupo_1189046" data-name="Grupo 1189046">
            <path id="Trazado_876045" data-name="Trazado 876045" d="M2639.053,2493.032l11.6,1.032.007.189c2.118,1.57,4.087,3.22,5,5.8l-7.4-1.392a11.973,11.973,0,0,1,2.3,2.828l-9.93-1.885c-2.87-.493-6.059-.6-8.779-1.706a7.45,7.45,0,0,1-3.127-2.381,1.187,1.187,0,0,1-.205-.468l.041-.2,2.035-1.845a4.6,4.6,0,0,1,1.009-.858,3.185,3.185,0,0,1,.7-.056A47.081,47.081,0,0,0,2639.053,2493.032Z" transform="translate(-2586.02 -2377.14)" fill="#93480a"/>
            <path id="Trazado_876046" data-name="Trazado 876046" d="M2844.325,2475.982a7.178,7.178,0,0,0,1.054,2.773,3.17,3.17,0,0,0,1.982,1.35c.625.1,1.264.1,1.885.23a8.054,8.054,0,0,1,4.806,2.832,11.069,11.069,0,0,1,1.6,3.051l-5.947-1.089a18.246,18.246,0,0,1,1.5,3.084l-6.606-1.17a28.882,28.882,0,0,0-3.166-.03,7.85,7.85,0,0,1-6.52-3.275,48.109,48.109,0,0,1-3.139-5.348l-2.963-5.491a70.281,70.281,0,0,0,15.814-5.729A25.557,25.557,0,0,0,2844.325,2475.982Z" transform="translate(-2700.051 -2362.95)" fill="#93480a"/>
            <path id="Trazado_876047" data-name="Trazado 876047" d="M2597.183,2502.081c2.906.54,5.958.932,8.625,2.282a10.929,10.929,0,0,1,5.785,6.5l-5.818-1.327a9.561,9.561,0,0,1,1.647,3.668,52.5,52.5,0,0,0-7.843-2.408c.054.664.834,1.384.923,2.149.032.269.047.316-.113.529a26.4,26.4,0,0,0-6.8-2.036l-6.361-1.263a40.121,40.121,0,0,1-5.431-1.329c-1.484-.521-3.27-1.307-3.974-2.818a6.1,6.1,0,0,1-.022-4.142l.358-.208a.872.872,0,0,1,.622-.223c.348-.018.706.082,1.062.075l4.836-.1c2.5-.057,5.147-.467,7.646-.151.572.072,1.138.044,1.707.1a17.21,17.21,0,0,1,2.431.583,1.276,1.276,0,0,0,.682-.056Z" transform="translate(-2556.94 -2382.304)" fill="#93480a"/>
            <path id="Trazado_876048" data-name="Trazado 876048" d="M2935.783,2325.5l.229.036a10.142,10.142,0,0,1,.192,2.571,19.5,19.5,0,0,1-2.688,9.954,14.315,14.315,0,0,1-3.454,3.953,9.944,9.944,0,0,1-2.257,1.244,46.643,46.643,0,0,1-3.7,4.471,28.837,28.837,0,0,1-11.411,6.208l-4.063,1.022a22.957,22.957,0,0,0-7.235,3.592c-3.66,2.671-6.2,6.525-9.157,9.893a76,76,0,0,1-10.209,9.628l-2.8-.419a25.066,25.066,0,0,1-5.257-1.741l-.028-.069c.5-.509,1.179-.9,1.725-1.376l4.492-4.121a68.213,68.213,0,0,0,9.8-11.967,12.327,12.327,0,0,0,2.049-3.979c6.918-1.342,13.387-3.493,19.075-7.788a27.251,27.251,0,0,0,4.01-3.534,11.469,11.469,0,0,0,1.237-1.278c.789.35,2.942-.276,3.844-.519a13.753,13.753,0,0,0,8.148-5.871c.612-.974,1.052-2.05,1.626-3.049a.565.565,0,0,0-.166-.113,24.4,24.4,0,0,1-3.675-2.574,8.863,8.863,0,0,1-2.826-3.268,1.91,1.91,0,0,1,.188-.866c1.189-2.068,4.412-.941,6.166-.355a5.752,5.752,0,0,0,1.133.387,6.51,6.51,0,0,0,.953-.562,9.032,9.032,0,0,1,2.366-1.1A2.757,2.757,0,0,1,2935.783,2325.5Z" transform="translate(-2725.748 -2281.387)" fill="#e0c29b"/>
            <path id="Trazado_876049" data-name="Trazado 876049" d="M2994.214,2325.5l.229.036a10.187,10.187,0,0,1,.193,2.571,19.519,19.519,0,0,1-2.688,9.954,14.324,14.324,0,0,1-3.455,3.953,9.933,9.933,0,0,1-2.257,1.244,6.176,6.176,0,0,0-1.237-.373,11.809,11.809,0,0,0-1.176.865,8.269,8.269,0,0,1-2.286.841,6.808,6.808,0,0,1-4.961-1.055l1.93.337a7.236,7.236,0,0,0,5.5-1.585c2.841-2.262,4.011-6.461,4.379-9.927a.565.565,0,0,0-.166-.113,24.4,24.4,0,0,1-3.675-2.574,8.863,8.863,0,0,1-2.826-3.268,1.9,1.9,0,0,1,.188-.866c1.188-2.068,4.412-.941,6.165-.355a5.763,5.763,0,0,0,1.133.387,6.51,6.51,0,0,0,.953-.562,9.039,9.039,0,0,1,2.366-1.1A2.756,2.756,0,0,1,2994.214,2325.5Z" transform="translate(-2784.179 -2281.387)" fill="#9f540f"/>
            <path id="Trazado_876050" data-name="Trazado 876050" d="M3009.462,2330.213a19.516,19.516,0,0,1-2.688,9.953,14.326,14.326,0,0,1-3.455,3.954l-.586-.4a3.82,3.82,0,0,1-.063-1.6,52.908,52.908,0,0,1,1.043-5.193c.152-.785.167-1.8.4-2.532.115-.368,1.667-1.4,2.065-1.743a7.109,7.109,0,0,0,2.866-5.045l.229.036A10.185,10.185,0,0,1,3009.462,2330.213Z" transform="translate(-2799.004 -2283.492)" fill="#e0c29b"/>
            <path id="Trazado_876051" data-name="Trazado 876051" d="M2880.777,2244.047c1.178.175,2.355.3,3.52.564l6.52,1.722.073.037c1.216.6,2.669.969,3.947,1.447a84.148,84.148,0,0,1,7.8,3.307,73.2,73.2,0,0,1,10.107,6.033,78.707,78.707,0,0,1,12.8,11.476c2.12,2.354,4.44,5.084,5.509,8.114a13.194,13.194,0,0,1,.681,3l-.229-.036a2.755,2.755,0,0,0-1.694-1.592,9.039,9.039,0,0,0-2.366,1.1,6.418,6.418,0,0,1-.953.562,5.749,5.749,0,0,1-1.133-.386c-1.754-.586-4.977-1.713-6.166.355a1.907,1.907,0,0,0-.187.866,8.863,8.863,0,0,0,2.826,3.268,24.4,24.4,0,0,0,3.675,2.574.56.56,0,0,1,.166.113c-.574,1-1.014,2.075-1.626,3.049a13.76,13.76,0,0,1-8.148,5.871c-.9.243-3.055.868-3.844.519a39.005,39.005,0,0,0,2.508-3.522,20.879,20.879,0,0,0,2.421-7.389c.832-5.48-1.632-9.512-4.734-13.735-7.876-10.729-19.122-19.938-31.777-24.325a76.816,76.816,0,0,0-13.656-3.141,4.028,4.028,0,0,1-.392-.314l.106-.1,11.248.4A7.2,7.2,0,0,1,2880.777,2244.047Z" transform="translate(-2721.46 -2235.601)" fill="#f9e4c5"/>
            <path id="Trazado_876052" data-name="Trazado 876052" d="M2905.9,2246.742c1.216.6,2.669.969,3.947,1.447a84.285,84.285,0,0,1,7.8,3.308,73.226,73.226,0,0,1,10.107,6.033,78.753,78.753,0,0,1,12.8,11.477c2.12,2.353,4.44,5.084,5.508,8.114a13.148,13.148,0,0,1,.681,3l-.229-.036a2.754,2.754,0,0,0-1.694-1.591,9.7,9.7,0,0,0-1.092-2.159,62.333,62.333,0,0,0-12.25-13.518,87.658,87.658,0,0,0-22.783-14.048c-2.068-.871-4.125-1.722-6.265-2.4-3.173-1.014-6.4-1.411-9.642-2.109a7.194,7.194,0,0,1,3.007.163c1.177.174,2.355.3,3.52.564l6.519,1.723Z" transform="translate(-2736.47 -2235.973)" fill="#de7604"/>
            <path id="Trazado_876053" data-name="Trazado 876053" d="M2844.209,2234.183c-1.165-.262-2.343-.39-3.52-.564a7.2,7.2,0,0,0-3.007-.162l-11.248-.4-.106.1a3.97,3.97,0,0,0,.392.314c2.317,2.316,5.892,5.118,5.9,8.732.006,2.046-.092,3.486-1.6,4.984-1.847,1.828-4.418,2.237-6.675,3.329a40.452,40.452,0,0,0-3.529,2.3,22.6,22.6,0,0,1-12,3.262c-2.269-.02-5.227-.6-6.949-2.207l.434-1.107a5.371,5.371,0,0,1-1.265-2.766c-.251-1.9.424-3.878-.65-5.625s-2.934-2.868-4.3-4.358l-.084-.092.094-.227.732-.978.041-.065a16.854,16.854,0,0,1,2.984-3.25,24.029,24.029,0,0,1,10.921-5.778,17.4,17.4,0,0,1,13.767,2.3,27.25,27.25,0,0,1,10.429-6.162c3.065-.855,6.072-.923,8.895.682a15.65,15.65,0,0,1,6.861,9.456Z" transform="translate(-2681.373 -2225.172)" fill="#ba610a"/>
            <path id="Trazado_876054" data-name="Trazado 876054" d="M2815.244,2252.949c-4.759-2.942-9.723-3.042-15.026-1.668-1.348.35-2.646.883-4,1.2l.732-.978h.067a4.344,4.344,0,0,0,1.486-.73l2.449-1.194c5.084-2.333,12.09-3.113,16.675.675,2.848,2.353,7.117,8.915,11.161,8.588.7-.057,1.339-.392,2.005-.447a8.176,8.176,0,0,1-6.373,1.9,4.783,4.783,0,0,1-1.624-.44C2819.963,2257.907,2818.2,2254.779,2815.244,2252.949Z" transform="translate(-2681.497 -2237.954)" fill="#9f540f"/>
            <path id="Trazado_876055" data-name="Trazado 876055" d="M2820.179,2263.35l-5.409-.735a26.834,26.834,0,0,0,2,3.159c-3.011,1.832-5.583,3.693-9.14,4.366a8.019,8.019,0,0,1-3.551.039,8.248,8.248,0,0,1-1.78-.919,5.373,5.373,0,0,1-1.265-2.766c-.251-1.9.424-3.878-.65-5.625s-2.934-2.868-4.3-4.357l-.084-.093.094-.226c1.349-.32,2.647-.853,4-1.2,5.3-1.374,10.267-1.274,15.026,1.667,2.96,1.83,4.72,4.958,7.557,6.9A7,7,0,0,1,2820.179,2263.35Z" transform="translate(-2681.373 -2241.662)" fill="#de7604"/>
            <path id="Trazado_876056" data-name="Trazado 876056" d="M2535.975,2342.08c1.434.78,3.481.977,5.058,1.448a56.34,56.34,0,0,1,7.7,2.973c11.107,5.218,20.514,14.45,27.07,24.74a51.706,51.706,0,0,1,5.963,12.4,22.724,22.724,0,0,1,.825,3.415,19.6,19.6,0,0,0,.343,2.658,6.307,6.307,0,0,0,.875,1.529,16.673,16.673,0,0,0,6.148,5.611c6.746,3.576,14.877,4.4,22.379,3.627a42.332,42.332,0,0,0,8.4-1.623c2.24-.7,4.569-1.815,5.717-3.985s.752-4.159.333-6.431a20.5,20.5,0,0,1,1.738,3.52l5.025,10.021c.76,1.5,1.755,2.872,2.518,4.381a180.267,180.267,0,0,1-29.432,2.43l-8.259-.026a28.486,28.486,0,0,0-3.91-.133l-11.6-1.033a46.932,46.932,0,0,1-6.748-.938,3.211,3.211,0,0,0-.7.055,4.617,4.617,0,0,0-1.009.858l-2.035,1.845-.041.2a5.33,5.33,0,0,0-2.3,1.7,1.271,1.271,0,0,1-.682.057,17.3,17.3,0,0,0-2.431-.583c-.569-.06-1.135-.031-1.707-.1-2.5-.315-5.143.094-7.646.151l-4.835.1c-.356.007-.714-.093-1.062-.075a.873.873,0,0,0-.622.222l-.439-.066a7.834,7.834,0,0,0-1.316-3.366,36.929,36.929,0,0,0-4.689-5.138,64.493,64.493,0,0,1-5.841-6.565c-7.942-10.551-10.163-23.681-8.327-36.559a64.75,64.75,0,0,1,1.748-8.1c.219-.8.4-2.154,1.068-2.654a2.154,2.154,0,0,1-.109-.38,4.435,4.435,0,0,1,.33-1.049c.434-1.266.884-2.545,1.435-3.764.22-.482.487-1.2,1.01-1.4Z" transform="translate(-2529.83 -2291.713)" fill="#b55b09"/>
            <path id="Trazado_876057" data-name="Trazado 876057" d="M2532.679,2368.106c.046.91,0,1.825.129,2.73a59.915,59.915,0,0,0,1.553,8.9c2.694,9.161,7.828,18.362,15.512,24.261,5.148,3.952,10.987,6.666,17.534,7.046a15.659,15.659,0,0,0,2.818.055l.32-.067c.421-.089.884-.072,1.314-.129a13.79,13.79,0,0,0,3.356-.805,13.539,13.539,0,0,0,4.751-2.913,9.033,9.033,0,0,1,1.4-1.441,25.79,25.79,0,0,1-3.458,6.407c-.4.545-2.316,2.655-2.293,3.1l.5.13a3.21,3.21,0,0,0-.7.056,4.628,4.628,0,0,0-1.009.858l-2.035,1.846-.041.195a5.331,5.331,0,0,0-2.3,1.7,1.276,1.276,0,0,1-.682.056,17.233,17.233,0,0,0-2.431-.583c-.569-.06-1.135-.032-1.707-.1-2.5-.316-5.143.094-7.646.151l-4.835.1c-.356.006-.714-.093-1.062-.075a.869.869,0,0,0-.622.222l-.439-.066a7.829,7.829,0,0,0-1.316-3.366,36.929,36.929,0,0,0-4.689-5.138,64.5,64.5,0,0,1-5.841-6.566c-7.942-10.55-10.163-23.681-8.327-36.558a64.739,64.739,0,0,1,1.748-8.1c.219-.8.4-2.154,1.068-2.654A53.168,53.168,0,0,0,2532.679,2368.106Z" transform="translate(-2529.83 -2300.426)" fill="#a55a1c"/>
            <path id="Trazado_876058" data-name="Trazado 876058" d="M2875.936,2297.842a27.222,27.222,0,0,1-4.01,3.534c-5.688,4.294-12.156,6.445-19.075,7.788-10.893,1.6-25.063-1.275-34.16-7.588a9.283,9.283,0,0,1-1.992-1.478,30.371,30.371,0,0,1-11.151-28.942,53.732,53.732,0,0,1,1.538-6.3c1.722,1.6,4.68,2.187,6.949,2.206a22.6,22.6,0,0,0,12-3.262,40.565,40.565,0,0,1,3.529-2.3c2.257-1.092,4.829-1.5,6.675-3.329,1.513-1.5,1.611-2.938,1.6-4.985-.011-3.613-3.585-6.415-5.9-8.731a76.774,76.774,0,0,1,13.656,3.141c12.655,4.386,23.9,13.6,31.777,24.324,3.1,4.224,5.566,8.255,4.734,13.736a20.876,20.876,0,0,1-2.421,7.388,39.012,39.012,0,0,1-2.508,3.523A11.558,11.558,0,0,1,2875.936,2297.842Z" transform="translate(-2686.589 -2236.149)" fill="#de7604"/>
            <path id="Trazado_876059" data-name="Trazado 876059" d="M2889.806,2371.958c-5.688,4.294-12.157,6.445-19.075,7.788-10.893,1.6-25.063-1.275-34.16-7.588.49-.286,1.108.045,1.605.215,2.576.882,5.074,1.816,7.711,2.52a61.017,61.017,0,0,0,18.716,1.9,69.526,69.526,0,0,0,19.938-4.205,49.14,49.14,0,0,0,7.832-3.6,3.191,3.191,0,0,1,1.442-.569A27.226,27.226,0,0,1,2889.806,2371.958Z" transform="translate(-2704.469 -2306.73)" fill="#ba610a"/>
            <path id="Trazado_876060" data-name="Trazado 876060" d="M2903.963,2284.115a7.342,7.342,0,0,1,1.624,5.564,7.211,7.211,0,0,1-2.8,4.69,9.4,9.4,0,0,1-5.885,1.828,8.605,8.605,0,0,1-6.106-2.789,7.577,7.577,0,0,1-1.732-5.708,7.913,7.913,0,0,1,2.916-5.082,8.212,8.212,0,0,1,5.441-1.651l.064.008A9.255,9.255,0,0,1,2903.963,2284.115Z" transform="translate(-2734.333 -2256.924)" fill="#763b05"/>
            <path id="Trazado_876061" data-name="Trazado 876061" d="M2907.467,2288.669a5.345,5.345,0,0,1,.244,4.063,5.069,5.069,0,0,1-2.866,2.993,5.718,5.718,0,0,1-2.531.375,4.985,4.985,0,0,1-3.352-2.411,5.4,5.4,0,0,1-.162-4.152,5.313,5.313,0,0,1,2.572-3.051,5.627,5.627,0,0,1,2.858-.467A5.027,5.027,0,0,1,2907.467,2288.669Z" transform="translate(-2739.707 -2259.805)" fill="#070605"/>
            <path id="Trazado_876062" data-name="Trazado 876062" d="M2902.393,2300.827c-.208.308-.29.46-.679.543a1.873,1.873,0,0,1-.437.014c-.21-.418-.4-.588-.275-1.05a1.3,1.3,0,0,1,1.022-.446A1.818,1.818,0,0,1,2902.393,2300.827Z" transform="translate(-2741.129 -2267.71)" fill="#fefefe"/>
            <path id="Trazado_876063" data-name="Trazado 876063" d="M2911.795,2290.066a1.939,1.939,0,0,1-.271,1.5,2.27,2.27,0,0,1-1.292.986,3.9,3.9,0,0,1-1.03-.029,2.546,2.546,0,0,1-1.445-1.566,1.861,1.861,0,0,1,.233-1.4,2.3,2.3,0,0,1,1.391-1.049,3.209,3.209,0,0,1,1.007,0C2911.073,2288.924,2911.584,2289.235,2911.795,2290.066Z" transform="translate(-2744.969 -2261.207)" fill="#fefefe"/>
            <path id="Trazado_876064" data-name="Trazado 876064" d="M2652.573,2258.566c1.365,1.49,3.217,2.6,4.3,4.358s.4,3.72.65,5.625a5.366,5.366,0,0,0,1.265,2.766l-.434,1.107a53.633,53.633,0,0,0-1.537,6.3,30.368,30.368,0,0,0,11.151,28.942,9.271,9.271,0,0,0,1.992,1.478c9.1,6.313,23.267,9.186,34.16,7.588a12.332,12.332,0,0,1-2.048,3.979,68.266,68.266,0,0,1-9.8,11.968l-4.493,4.121c-.545.475-1.22.868-1.724,1.377l.028.068a25.081,25.081,0,0,0,5.257,1.741l2.8.418-11.709,7.532a70.324,70.324,0,0,1-15.813,5.729l-5.373,1.031c-.287,2.951-.589,8.868,1.348,11.178a3.426,3.426,0,0,0,1.964.992c2.314.623,4.535,1.247,6.154,3.154a14.192,14.192,0,0,1,1.9,3.224l-4.339-.864a6.778,6.778,0,0,0-1.78-.3l.863,2.343a2.2,2.2,0,0,1,.256.777,22.79,22.79,0,0,0-4.254-1.07l-5.359-.592c-2.083-.219-4.28-.247-6.008-1.584-1.848-1.431-3-3.712-4-5.777l-2.148-4.507a30.136,30.136,0,0,1-1.75-3.3c-.762-1.509-1.758-2.876-2.517-4.38l-5.025-10.022a20.478,20.478,0,0,0-1.738-3.519c.42,2.272.811,4.269-.333,6.431s-3.477,3.281-5.717,3.984a42.322,42.322,0,0,1-8.4,1.624c-7.5.771-15.633-.052-22.379-3.627a16.682,16.682,0,0,1-6.148-5.612,6.289,6.289,0,0,1-.875-1.529,19.685,19.685,0,0,1-.343-2.657,22.637,22.637,0,0,0-.825-3.415,51.691,51.691,0,0,0-5.963-12.4c-6.555-10.289-15.962-19.521-27.069-24.74a56.36,56.36,0,0,0-7.7-2.972c-1.577-.472-3.625-.668-5.059-1.449l-.06-.034c-.1-.607.357-1.161.67-1.67l2.479-3.787a59.34,59.34,0,0,1,20.541-17.257,74.179,74.179,0,0,1,8.581-3.943,59.1,59.1,0,0,1,22.408-3.7l10.48.887,12.183,1.087a81.6,81.6,0,0,0,18.538-.481,20.151,20.151,0,0,0,1-1.909,12.779,12.779,0,0,1,5.409-4.693,7.719,7.719,0,0,1,4.478-.741,12.013,12.013,0,0,1,1.78.629Z" transform="translate(-2537.858 -2243.718)" fill="#de7604"/>
            <path id="Trazado_876065" data-name="Trazado 876065" d="M2846.432,2446.406l2.8.419-11.709,7.532a70.324,70.324,0,0,1-15.814,5.729l-5.372,1.031a14.983,14.983,0,0,1,2.429-7.04,23.077,23.077,0,0,1,2.786-3.057l2.688-2.814a12.014,12.014,0,0,1-3.817,5.864,6.4,6.4,0,0,0,1.76-.286,46.853,46.853,0,0,0,14.892-6.235,30.235,30.235,0,0,0,2.489-1.725,8.622,8.622,0,0,1,1.612-1.159A25.009,25.009,0,0,0,2846.432,2446.406Z" transform="translate(-2692.948 -2350.138)" fill="#ba610a"/>
            <path id="Trazado_876066" data-name="Trazado 876066" d="M2771.267,2258.566c1.365,1.49,3.217,2.6,4.3,4.358s.4,3.72.65,5.625a5.369,5.369,0,0,0,1.265,2.766l-.434,1.107a53.73,53.73,0,0,0-1.537,6.3,30.368,30.368,0,0,0,11.151,28.942,9.271,9.271,0,0,0,1.992,1.478c9.1,6.313,23.268,9.186,34.16,7.588a12.333,12.333,0,0,1-2.048,3.979,68.22,68.22,0,0,1-9.8,11.968l-4.493,4.121c-.545.475-1.22.868-1.724,1.377a9.441,9.441,0,0,1-2.3-1.173,21.423,21.423,0,0,1-6.319-6.033,19.545,19.545,0,0,0,3.9,8.168l-1.022-.347c-4.877-1.782-8.951-4.936-12.966-8.134a54.708,54.708,0,0,1-7.364-6.675,35.3,35.3,0,0,1-4.928-7.417,21.434,21.434,0,0,1-1.734-4.795,16.911,16.911,0,0,0-.78-3.217,15.922,15.922,0,0,0-.133,3.113,26.139,26.139,0,0,0,.486,5.548,36.791,36.791,0,0,0,2.585,7.04l-.1-.021a6.047,6.047,0,0,1-.944-.738l-2.4-1.91c-6.164-4.979-11.933-10.314-15.148-17.722-4.465-10.287-3.984-21.872-.127-32.262a28.952,28.952,0,0,1,1.507-3.435,29.634,29.634,0,0,0,1.544-2.978,20.148,20.148,0,0,0,1-1.909,12.781,12.781,0,0,1,5.409-4.693,7.72,7.72,0,0,1,4.479-.741,12.021,12.021,0,0,1,1.779.629Z" transform="translate(-2656.551 -2243.718)" fill="#f9e4c5"/>
          </g>
        </g>
      </g>
    </g>
  </g>
</svg>
