<svg xmlns="http://www.w3.org/2000/svg" xmlns:xlink="http://www.w3.org/1999/xlink" width="192" height="246.865" viewBox="0 0 192 246.865">
  <defs>
    <filter id="Rect치ngulo_402760" x="0" y="16.865" width="192" height="230" filterUnits="userSpaceOnUse">
      <feOffset dy="3" input="SourceAlpha"/>
      <feGaussianBlur stdDeviation="3" result="blur"/>
      <feFlood flood-opacity="0.161"/>
      <feComposite operator="in" in2="blur"/>
      <feComposite in="SourceGraphic"/>
    </filter>
  </defs>
  <g id="Grupo_1189233" data-name="Grupo 1189233" transform="translate(-687.051 -9437.135)">
    <g transform="matrix(1, 0, 0, 1, 687.05, 9437.13)" filter="url(#Rect치ngulo_402760)">
      <rect id="Rect치ngulo_402760-2" data-name="Rect치ngulo 402760" width="174" height="212" rx="10" transform="translate(9 22.87)" fill="#af817c"/>
    </g>
    <g id="Grupo_1189232" data-name="Grupo 1189232" transform="translate(-1644.641 7840.021)">
      <g id="Grupo_1189223" data-name="Grupo 1189223" transform="translate(2366.691 1681.317)">
        <path id="Trazado_876508" data-name="Trazado 876508" d="M2489.049,2532.541c-.91,1.337-3.13,2.383-6.006,3.031-.409.092-.831.177-1.265.252a35.532,35.532,0,0,1-7.043.471q-.468-.015-.94-.04c-8.1-.443-16.436-3.515-17.173-10.534-.025-.239-.042-.483-.049-.732-.128-4.476-2.653-7.886-6.174-10.445-5.394-3.921-13.125-5.846-18.167-6.54a26.621,26.621,0,0,0-8.109,0c-5.04.694-12.774,2.618-18.167,6.54-3.522,2.559-6.047,5.969-6.174,10.445q-.011.372-.049.73c-.734,7.021-9.076,10.094-17.173,10.536-.313.017-.628.03-.94.04a35.547,35.547,0,0,1-7.045-.471c-.432-.074-.854-.159-1.263-.252-2.877-.647-5.1-1.694-6.007-3.031-3.914-5.752,12.13-22.423,13.695-30.933s-9.391-23.967-3.522-51.656a31.24,31.24,0,0,1,8.357-15.18c14.72-15.36,42.342-19.941,42.342-19.941s27.624,4.581,42.343,19.943a31.245,31.245,0,0,1,8.357,15.179c5.869,27.689-5.088,43.144-3.521,51.656S2492.962,2526.788,2489.049,2532.541Z" transform="translate(-2366.691 -2385.882)" fill="#c0a59e"/>
        <path id="Trazado_876509" data-name="Trazado 876509" d="M2653.732,2864.949q-.038-.359-.049-.733c-.392-13.7-23.235-17.424-28.4-17.295-5.159-.129-28,3.6-28.4,17.295-.007.248-.023.492-.049.729-1.984-12.191-6.75-56.408,28.444-56.408S2655.714,2852.763,2653.732,2864.949Z" transform="translate(-2563.802 -2725.111)" fill="#42210b" opacity="0.2"/>
        <path id="Trazado_876510" data-name="Trazado 876510" d="M2567.822,2325.073a29.223,29.223,0,0,0,.479,9.219c1.576,8.044,5.256,14.706,2.456,18.367a9.375,9.375,0,0,1-5.043,2.9q-.35.1-.712.178a24.2,24.2,0,0,1-7.494.446q-.341-.034-.675-.076c-3.392-.428-6.281-1.6-7.207-3.448-1.116-2.232-.022-13.592.507-24.907.583-12.493.475-24.931-4.055-24.982-4.53.051-4.637,12.491-4.054,24.982.529,11.317,1.623,22.675.507,24.907-.926,1.852-3.814,3.02-7.207,3.448q-.334.043-.675.076a24.207,24.207,0,0,1-7.5-.446q-.361-.083-.71-.178a9.377,9.377,0,0,1-5.043-2.9c-2.8-3.661.88-10.323,2.456-18.367a29.24,29.24,0,0,0,.479-9.219c-1.468-12.031-18.684-20.347-20.739-62.9a56.564,56.564,0,0,1,.14-7.653c3.2-36.6,42.342-48.889,42.342-48.889s39.141,12.293,42.344,48.891a56.542,56.542,0,0,1,.14,7.652C2586.506,2304.727,2569.29,2313.042,2567.822,2325.073Z" transform="translate(-2484.594 -2205.632)" fill="#ddd4cf"/>
        <path id="Trazado_876511" data-name="Trazado 876511" d="M2417.94,3228.513l-2.116,8.223a.739.739,0,0,1-.07.177c-.432-.074-.855-.159-1.263-.251a.669.669,0,0,1-.006-.1C2414.529,3232.386,2417.94,3228.513,2417.94,3228.513Z" transform="translate(-2407.871 -3086.973)" fill="#42210b" opacity="0.3"/>
        <path id="Trazado_876512" data-name="Trazado 876512" d="M2475.686,3229.361l-1.516,8.354a.672.672,0,0,1-.18.36c-.314.017-.629.029-.941.04a.658.658,0,0,1-.229-.474C2472.565,3233.471,2475.686,3229.361,2475.686,3229.361Z" transform="translate(-2458.122 -3087.703)" fill="#42210b" opacity="0.3"/>
        <path id="Trazado_876513" data-name="Trazado 876513" d="M3186.068,3236.563a.639.639,0,0,1-.006.1c-.408.092-.831.177-1.264.251a.729.729,0,0,1-.07-.177l-2.115-8.223S3186.024,3232.386,3186.068,3236.563Z" transform="translate(-3069.711 -3086.973)" fill="#42210b" opacity="0.3"/>
        <path id="Trazado_876514" data-name="Trazado 876514" d="M3131.312,3237.641a.655.655,0,0,1-.227.474c-.312-.011-.626-.023-.941-.04a.669.669,0,0,1-.18-.36l-1.515-8.354S3131.57,3233.471,3131.312,3237.641Z" transform="translate(-3023.041 -3087.703)" fill="#42210b" opacity="0.3"/>
        <path id="Trazado_876515" data-name="Trazado 876515" d="M2670.287,3249.9l-.679,5.332a.4.4,0,0,1-.147.274c-.24-.055-.477-.115-.71-.178a.467.467,0,0,1-.025-.1C2668.4,3252.6,2670.287,3249.9,2670.287,3249.9Z" transform="translate(-2626.899 -3105.404)" fill="#42210b" opacity="0.3"/>
        <path id="Trazado_876516" data-name="Trazado 876516" d="M2728.325,3258.013a.434.434,0,0,1-.065.142q-.334.042-.675.076a.4.4,0,0,1-.137-.318l.059-5.367S2729.007,3255.442,2728.325,3258.013Z" transform="translate(-2677.529 -3107.68)" fill="#42210b" opacity="0.3"/>
        <path id="Trazado_876517" data-name="Trazado 876517" d="M2943.376,3255.227a.441.441,0,0,1-.026.1c-.233.063-.471.123-.712.178a.4.4,0,0,1-.145-.274l-.681-5.332S2943.7,3252.6,2943.376,3255.227Z" transform="translate(-2862.231 -3105.404)" fill="#42210b" opacity="0.3"/>
        <path id="Trazado_876518" data-name="Trazado 876518" d="M2888.05,3257.913a.4.4,0,0,1-.137.318q-.341-.033-.675-.076a.449.449,0,0,1-.065-.142c-.682-2.571.817-5.467.817-5.467Z" transform="translate(-2814.999 -3107.68)" fill="#42210b" opacity="0.3"/>
      </g>
      <g id="Grupo_1189224" data-name="Grupo 1189224" transform="translate(2401.822 1691.598)">
        <path id="Trazado_876519" data-name="Trazado 876519" d="M2647.011,2279.93h-.719c-6.532,3.543-54.274,31.909-.284,77.513a1,1,0,0,0,.644.24h0a1,1,0,0,0,.644-.24C2701.284,2311.838,2653.543,2283.473,2647.011,2279.93Z" transform="translate(-2620.575 -2279.93)" fill="#efe8e4"/>
        <path id="Trazado_876520" data-name="Trazado 876520" d="M2715.822,2594.959s-4.87,6.221,1.04,9.55C2716.862,2604.509,2713.014,2601.538,2715.822,2594.959Z" transform="translate(-2701.017 -2551.367)" fill="#ddd4cf"/>
        <path id="Trazado_876521" data-name="Trazado 876521" d="M2753.256,2544.931s-4.394,4.871-.262,8.31C2752.994,2553.241,2750.392,2550.311,2753.256,2544.931Z" transform="translate(-2733.145 -2508.261)" fill="#ddd4cf"/>
        <path id="Trazado_876522" data-name="Trazado 876522" d="M2830.387,2569.746s4.395,4.871.262,8.31C2830.649,2578.056,2833.25,2575.127,2830.387,2569.746Z" transform="translate(-2801.354 -2529.643)" fill="#ddd4cf"/>
        <path id="Trazado_876523" data-name="Trazado 876523" d="M2895.746,2617.967s4.395,4.871.262,8.31C2896.008,2626.277,2898.61,2623.348,2895.746,2617.967Z" transform="translate(-2857.669 -2571.191)" fill="#ddd4cf"/>
        <path id="Trazado_876524" data-name="Trazado 876524" d="M2897.841,2513.879s4.865,4.4,1.1,8.241C2898.942,2522.12,2901.234,2518.942,2897.841,2513.879Z" transform="translate(-2859.474 -2481.506)" fill="#ddd4cf"/>
        <path id="Trazado_876525" data-name="Trazado 876525" d="M2634.382,2625.614a8.464,8.464,0,0,0,.969,7.252s-.083-5.286,1.275-6.291S2634.382,2625.614,2634.382,2625.614Z" transform="translate(-2632.113 -2577.781)" fill="#efe8e4"/>
        <path id="Trazado_876526" data-name="Trazado 876526" d="M2694.805,2719.022a8.463,8.463,0,0,0,1.921,7.059s-.782-5.228.43-6.4S2694.805,2719.022,2694.805,2719.022Z" transform="translate(-2684.416 -2658.164)" fill="#efe8e4"/>
        <path id="Trazado_876527" data-name="Trazado 876527" d="M2944.7,2668.072a10.369,10.369,0,0,1-2.418,7.774s1.144-5.762,0-7.069S2944.7,2668.072,2944.7,2668.072Z" transform="translate(-2897.577 -2614.244)" fill="#efe8e4"/>
      </g>
      <g id="Grupo_1189225" data-name="Grupo 1189225" transform="translate(2381.941 1597.114)">
        <path id="Trazado_876528" data-name="Trazado 876528" d="M2632.505,2003.927c-6.246-24.5-22.846-22.535-22.846-22.535s-16.6-1.969-22.846,22.535a18.04,18.04,0,0,1-2.307,5.329c-4.919,7.627-17.622,31.463,10.262,38.672,6.349,5.613,11.089,4.982,13.373,4.089a4.155,4.155,0,0,1,3.035,0c2.284.893,7.025,1.524,13.373-4.089,27.885-7.21,15.182-31.045,10.262-38.672A18.04,18.04,0,0,1,2632.505,2003.927Z" transform="translate(-2563.423 -1928.185)" fill="#c0a59e"/>
        <path id="Trazado_876529" data-name="Trazado 876529" d="M2754.765,2328.758c-3.042-.424-8.714-5.417-8.714-5.417,0,2.377,6.275,6.978,8.341,8.429a1.132,1.132,0,0,0,1.3,0c2.066-1.45,8.341-6.051,8.341-8.429,0,0-5.672,4.993-8.714,5.417A2.01,2.01,0,0,1,2754.765,2328.758Z" transform="translate(-2708.807 -2222.849)" fill="#51252a"/>
        <path id="Trazado_876530" data-name="Trazado 876530" d="M2520.8,1650.356l-18.99,20.375c-.227-7.511-17.527-27.543-20.866-32.248s-7.132-40.216,0-41.278,18.362,7.286,26.018,16.087a29.508,29.508,0,0,1,3.866,6.169s0,0,0,0h0C2516.594,1631.144,2520.8,1650.356,2520.8,1650.356Z" transform="translate(-2476.893 -1597.114)" fill="#c0a59e"/>
        <path id="Trazado_876531" data-name="Trazado 876531" d="M2535.279,1694.665a1.322,1.322,0,0,0,2.4-.34c2.16-7.69,7.578-28.567,4.322-33.862-4.013-6.525-19.34-18.059-21.616-17.755s-5.008,18.357,0,27.237C2524.25,1676.806,2531.967,1689.324,2535.279,1694.665Z" transform="translate(-2511.933 -1636.394)" fill="#d87c75"/>
        <ellipse id="Elipse_11627" data-name="Elipse 11627" cx="0.708" cy="5.59" rx="0.708" ry="5.59" transform="translate(45.528 107.08)" fill="#42210b" opacity="0.3"/>
        <path id="Trazado_876532" data-name="Trazado 876532" d="M2827.886,1650.36s6.184-28.262,13.839-37.064,18.885-17.148,26.017-16.086,3.339,36.573,0,41.278-20.639,24.736-20.866,32.248Z" transform="translate(-2779.317 -1597.117)" fill="#c0a59e"/>
        <path id="Trazado_876533" data-name="Trazado 876533" d="M2945.426,1663.166a21.531,21.531,0,0,1-2.247,6.783c-1.759,3.12-4.317,7.413-6.892,11.666l-.012.018c-3.28,5.419-6.591,10.775-8.324,13.57a1.046,1.046,0,0,1-1.895-.266c-.5-1.767-1.236-4.443-2.008-7.55-.027-.105-.052-.211-.078-.317-2.318-9.406-4.9-22.558-2.407-26.6a36.725,36.725,0,0,1,5.947-6.713c6.033-5.63,14.07-11.256,15.669-11.042C2944.962,1642.95,2947.026,1654.084,2945.426,1663.166Z" transform="translate(-2859.156 -1636.397)" fill="#d87c75"/>
        <path id="Trazado_876534" data-name="Trazado 876534" d="M2765.326,2443.366a9.805,9.805,0,0,1-6.525,2.415.094.094,0,0,0-.03.184,21.579,21.579,0,0,0,14.349,0,.094.094,0,0,0-.03-.184,9.807,9.807,0,0,1-6.525-2.415A.971.971,0,0,0,2765.326,2443.366Z" transform="translate(-2719.709 -2326.074)" fill="#a05252"/>
        <path id="Trazado_876535" data-name="Trazado 876535" d="M2673.142,2334.765s-6.958,11.288,1.486,17.329C2674.628,2352.094,2669.131,2346.7,2673.142,2334.765Z" transform="translate(-2643.664 -2232.693)" fill="#42210b" opacity="0.3"/>
        <path id="Trazado_876536" data-name="Trazado 876536" d="M2918.871,2334.765s6.957,11.288-1.486,17.329C2917.385,2352.094,2922.882,2346.7,2918.871,2334.765Z" transform="translate(-2856.432 -2232.693)" fill="#42210b" opacity="0.3"/>
        <path id="Trazado_876537" data-name="Trazado 876537" d="M2936.276,1792.23c-3.28,5.419-6.591,10.775-8.324,13.57a1.046,1.046,0,0,1-1.895-.266c-.5-1.767-1.236-4.443-2.008-7.55-.027-.105-.052-.211-.078-.316-2.318-9.406-4.9-22.558-2.407-26.6a39.92,39.92,0,0,0,5.947,17.6C2932.878,1797.2,2936.066,1792.555,2936.276,1792.23Z" transform="translate(-2859.156 -1746.994)" fill="#a05252" opacity="0.3"/>
        <path id="Trazado_876538" data-name="Trazado 876538" d="M2587.844,1792.23c3.28,5.419,6.59,10.775,8.324,13.57a1.046,1.046,0,0,0,1.895-.266c.5-1.767,1.237-4.443,2.008-7.55.027-.105.052-.211.079-.316,2.318-9.406,4.9-22.558,2.407-26.6a39.92,39.92,0,0,1-5.947,17.6C2591.243,1797.2,2588.054,1792.555,2587.844,1792.23Z" transform="translate(-2572.491 -1746.994)" fill="#a05252" opacity="0.3"/>
        <path id="Trazado_876539" data-name="Trazado 876539" d="M2732.1,1789.549c-2.628.057-8.372,3.714-9.969,5.654,5.385-8.274.186-36,0-36.543C2727.9,1770.338,2732.1,1789.549,2732.1,1789.549Z" transform="translate(-2688.199 -1736.307)" fill="#42210b" opacity="0.2"/>
        <path id="Trazado_876540" data-name="Trazado 876540" d="M2827.884,1789.549c2.628.057,8.372,3.184,9.969,5.124-5.385-8.274-.186-35.473,0-36.012C2832.087,1770.338,2827.884,1789.549,2827.884,1789.549Z" transform="translate(-2779.316 -1736.307)" fill="#42210b" opacity="0.2"/>
      </g>
      <g id="Grupo_1189226" data-name="Grupo 1189226" transform="translate(2405.561 1669.462)">
        <path id="Trazado_876541" data-name="Trazado 876541" d="M2654.907,2119.958a27.934,27.934,0,0,1-7.317.541s3.787,1.145,6.081.348a10.323,10.323,0,0,1-4,.96,18.638,18.638,0,0,0,4.06-.161c1.036-.326,1.555-.672,1.626-1.066S2654.907,2119.958,2654.907,2119.958Z" transform="translate(-2647.591 -2119.958)" fill="#1a1a1a"/>
        <path id="Trazado_876542" data-name="Trazado 876542" d="M2671.871,2120.24a13.487,13.487,0,0,1,1.337,11.956,1.162,1.162,0,0,1-1.192.758c-1.465-.1-4.31-.511-5.469-2.149-1.314-1.856,2.79-8.355,4.27-10.576A.64.64,0,0,1,2671.871,2120.24Z" transform="translate(-2663.704 -2119.958)" fill="#a05252"/>
        <path id="Trazado_876543" data-name="Trazado 876543" d="M2671.425,2130.872c.691,1.157,1.735,3.911.681,9.116a1.137,1.137,0,0,1-1.24.862c-1.607-.147-4.542-.787-4.905-3.478a6.9,6.9,0,0,1,4.114-6.937A1.1,1.1,0,0,1,2671.425,2130.872Z" transform="translate(-2663.374 -2128.917)" fill="#30232d"/>
        <path id="Trazado_876544" data-name="Trazado 876544" d="M2674.675,2146.692a4.361,4.361,0,0,0-1.183,4.855c1.068,3.088-3.294-1.548-2.155-3.1S2674.3,2146.059,2674.675,2146.692Z" transform="translate(-2667.886 -2142.81)" fill="#fff" opacity="0.2"/>
      </g>
      <g id="Grupo_1189227" data-name="Grupo 1189227" transform="translate(2440.481 1669.462)">
        <path id="Trazado_876545" data-name="Trazado 876545" d="M2918.735,2119.958a27.934,27.934,0,0,0,7.317.541s-3.788,1.145-6.081.348a10.325,10.325,0,0,0,4,.96,18.638,18.638,0,0,1-4.06-.161c-1.036-.326-1.555-.672-1.627-1.066S2918.735,2119.958,2918.735,2119.958Z" transform="translate(-2915.74 -2119.958)" fill="#1a1a1a"/>
        <path id="Trazado_876546" data-name="Trazado 876546" d="M2902.1,2120.24a13.489,13.489,0,0,0-1.337,11.956,1.161,1.161,0,0,0,1.192.758c1.465-.1,4.31-.511,5.469-2.149,1.314-1.856-2.79-8.355-4.27-10.576A.64.64,0,0,0,2902.1,2120.24Z" transform="translate(-2899.954 -2119.958)" fill="#a05252"/>
        <path id="Trazado_876547" data-name="Trazado 876547" d="M2909.255,2130.872c-.691,1.157-1.735,3.911-.681,9.116a1.137,1.137,0,0,0,1.24.862c1.606-.147,4.542-.787,4.905-3.478a6.9,6.9,0,0,0-4.114-6.937A1.105,1.105,0,0,0,2909.255,2130.872Z" transform="translate(-2906.995 -2128.917)" fill="#30232d"/>
        <path id="Trazado_876548" data-name="Trazado 876548" d="M2925.408,2146.692a4.361,4.361,0,0,1,1.183,4.855c-1.068,3.088,3.293-1.548,2.155-3.1S2925.788,2146.059,2925.408,2146.692Z" transform="translate(-2921.886 -2142.81)" fill="#fff" opacity="0.2"/>
      </g>
      <g id="Grupo_1189229" data-name="Grupo 1189229" transform="translate(2384.52 1705.042)">
        <g id="Grupo_1189228" data-name="Grupo 1189228" transform="translate(0 0)">
          <path id="Trazado_876549" data-name="Trazado 876549" d="M2525.936,2419.142c-13.066,4.406-25.892,13.841-29.491,27.746a33.086,33.086,0,0,0-.9,5.128,33.091,33.091,0,0,1,.779-5.159c2.773-12.177,12.826-21.213,23.7-26.509a48.625,48.625,0,0,1,5.568-2.342.594.594,0,1,1,.35,1.136Z" transform="translate(-2495.54 -2412.318)" fill="#6d6868"/>
          <path id="Trazado_876550" data-name="Trazado 876550" d="M2543.531,2380.155c-7.315-2.225-18.231-4.146-25.145-.136a11.248,11.248,0,0,0-2.825,2.369,11.3,11.3,0,0,1,2.747-2.5c5.371-3.328,12.163-3.08,18.218-2.348a56.776,56.776,0,0,1,7.36,1.475.6.6,0,1,1-.354,1.135Z" transform="translate(-2512.791 -2377.087)" fill="#6d6868"/>
          <path id="Trazado_876551" data-name="Trazado 876551" d="M2594,2437.029a43.91,43.91,0,0,0-16.27,14.379c-.359.516-.761,1.214-1.1,1.747-.166.3-.5.9-.668,1.2-.244.4-.708,1.419-.927,1.847-.274.576-.561,1.312-.818,1.9-.208.6-.5,1.344-.694,1.949-.058.2-.441,1.465-.495,1.654-.073.26-.175.749-.241,1.007-.082.364-.244.979-.3,1.35-.066.428-.3,1.617-.335,2.047-.054.485-.141,1.234-.2,1.719-.025.362-.072,1.379-.093,1.729-.055.832,0,1.936-.01,2.772l-.047-1.386c-.049-.784,0-1.974.019-2.776,0-.382.068-1,.1-1.386.02-.252.071-.8.09-1.039.021-.2.222-1.49.252-1.72.047-.379.186-.987.263-1.367.085-.406.192-.968.307-1.358l.363-1.345c.1-.383.311-.941.429-1.326l.22-.662.255-.649c.163-.384.347-.924.521-1.294.33-.74.826-1.814,1.211-2.516l.323-.619.351-.6a44.166,44.166,0,0,1,13.349-14.13,36.54,36.54,0,0,1,3.624-2.2.594.594,0,1,1,.514,1.072Z" transform="translate(-2561.234 -2427.754)" fill="#6d6868"/>
        </g>
      </g>
      <g id="Grupo_1189231" data-name="Grupo 1189231" transform="translate(2438.719 1705.034)">
        <g id="Grupo_1189230" data-name="Grupo 1189230" transform="translate(0 0)">
          <path id="Trazado_876552" data-name="Trazado 876552" d="M2904.554,2418.006c13.147,4.789,25.958,14.659,29.267,28.851a33.138,33.138,0,0,1,.779,5.159,32.976,32.976,0,0,0-.905-5.127c-3.033-11.959-13.154-20.642-24.018-25.6a47.664,47.664,0,0,0-5.472-2.145.594.594,0,1,1,.35-1.136Z" transform="translate(-2901.487 -2412.31)" fill="#6d6868"/>
          <path id="Trazado_876553" data-name="Trazado 876553" d="M2899.134,2378.97c7.52-1.97,18.72-3.482,25.577.872a11.321,11.321,0,0,1,2.747,2.5,11.239,11.239,0,0,0-2.825-2.369c-5.414-3.063-12.075-2.55-18-1.593a55.766,55.766,0,0,0-7.15,1.732.594.594,0,1,1-.345-1.137Z" transform="translate(-2897.115 -2377.029)" fill="#6d6868"/>
          <path id="Trazado_876554" data-name="Trazado 876554" d="M2888.086,2435.95a44.452,44.452,0,0,1,16.973,16.328l.351.6.323.619c.181.37.47.873.632,1.245.19.445.693,1.469.845,1.916.126.323.385.976.511,1.3.194.615.472,1.371.649,1.989l.364,1.345c.117.391.22.958.307,1.358.035.179.177.837.212,1.022.084.635.285,1.774.333,2.411.042.488.109,1.241.15,1.731.019.355.032,1.39.047,1.736.033.834-.049,1.937-.065,2.774,0-.843.042-1.95-.009-2.772-.014-.3-.078-1.461-.093-1.729-.054-.489-.141-1.228-.2-1.719-.065-.628-.293-1.758-.4-2.388-.148-.62-.325-1.4-.479-2.017-.053-.187-.43-1.433-.494-1.654-.191-.6-.485-1.346-.695-1.949-.259-.59-.544-1.322-.818-1.9a39.831,39.831,0,0,0-9.951-13.021,46.187,46.187,0,0,0-6.636-4.853c-.771-.464-1.589-.922-2.391-1.309a.594.594,0,1,1,.527-1.066Z" transform="translate(-2887.223 -2427.739)" fill="#6d6868"/>
        </g>
      </g>
    </g>
  </g>
</svg>
