<svg xmlns="http://www.w3.org/2000/svg" width="81.504" height="92.172" viewBox="0 0 81.504 92.172">
  <g id="Grupo_1189234" data-name="Grupo 1189234" transform="translate(-0.051 8)">
    <g id="Grupo_1188468" data-name="Grupo 1188468" transform="translate(0 1.548)">
      <path id="Rectángulo_402603" data-name="Rectángulo 402603" d="M81.5,0h0a0,0,0,0,1,0,0V82.172a0,0,0,0,1,0,0H0a0,0,0,0,1,0,0V81.5A81.5,81.5,0,0,1,81.5,0Z" transform="translate(0.051 0.452)" fill="#fdaa30"/>
      <g id="Grupo_1189235" data-name="Grupo 1189235" transform="translate(11.051 -6.589)">
        <g id="Grupo_1189236" data-name="Grupo 1189236" transform="translate(9.45 28.545)">
          <g id="Grupo_1189235-2" data-name="Grupo 1189235">
            <path id="Trazado_876555" data-name="Trazado 876555" d="M86.715,95.021a.884.884,0,0,0-.884.884v.945a1.951,1.951,0,0,1-3.9,0v-.945a1.953,1.953,0,0,1,1.951-1.951.884.884,0,1,0,0-1.768,3.723,3.723,0,0,0-3.719,3.719v.945a3.719,3.719,0,0,0,7.438,0v-.945A.884.884,0,0,0,86.715,95.021Z" transform="translate(-80.161 -92.186)"/>
          </g>
        </g>
        <g id="Grupo_1189238" data-name="Grupo 1189238" transform="translate(42.813 49.06)">
          <g id="Grupo_1189237" data-name="Grupo 1189237">
            <path id="Trazado_876556" data-name="Trazado 876556" d="M365.571,266.429a.884.884,0,0,0-1.249.067c-.278.309-.575.614-.884.907a.884.884,0,1,0,1.216,1.284c.343-.325.674-.664.983-1.009A.884.884,0,0,0,365.571,266.429Z" transform="translate(-363.162 -266.203)"/>
          </g>
        </g>
        <g id="Grupo_1189240" data-name="Grupo 1189240" transform="translate(0 20.04)">
          <g id="Grupo_1189239" data-name="Grupo 1189239" transform="translate(0 0)">
            <path id="Trazado_876557" data-name="Trazado 876557" d="M59.965,47.608a.884.884,0,0,0-1.019.027,12.611,12.611,0,0,1-6.765,2.19q.712-.9,1.4-1.88a.884.884,0,0,0-.569-1.38,63.572,63.572,0,0,1-10.72-3.058c-8.5-3.352-10.285-6.936-10.285-9.353A14.115,14.115,0,0,0,3.847,32.776L.259,36.364A.884.884,0,0,0,.6,37.827l4.127,1.4a14.121,14.121,0,0,0,2.033,3.583,1.929,1.929,0,0,1,.362,1.213,25.058,25.058,0,0,0,7.024,17.893,23.159,23.159,0,0,0,5.839,4.312L16.18,68.8l-4.467-2.509a.884.884,0,1,0-.866,1.542L18.262,72a.884.884,0,0,0,.866-1.542L17.9,69.77l3.952-2.677a27.224,27.224,0,0,0,10.394,1.98l.69,4.833H28.288a.884.884,0,1,0,0,1.768h7.56a.884.884,0,0,0,0-1.768H34.726l-.7-4.88a30.273,30.273,0,0,0,16.3-5.8A26.419,26.419,0,0,0,60.333,48.558.884.884,0,0,0,59.965,47.608ZM5.589,36.646a4.49,4.49,0,0,1-.134.957l-2.939-.995L4.728,34.4A2.911,2.911,0,0,1,5.589,36.646ZM49.274,61.809a28.6,28.6,0,0,1-16.947,5.5c-6.792,0-12.643-2.294-16.921-6.634A23.279,23.279,0,0,1,8.891,44.045a3.644,3.644,0,0,0-.735-2.325,12.393,12.393,0,0,1-1.479-2.427A.883.883,0,0,0,6.8,39.11,5.216,5.216,0,0,0,5.62,32.824a12.346,12.346,0,0,1,24.62,1.331c0,2.431,1.25,4.7,3.716,6.743a28.569,28.569,0,0,0,7.712,4.264,64.246,64.246,0,0,0,9.663,2.871,27.969,27.969,0,0,1-10.017,8.69,16.382,16.382,0,0,1-10.033,1.5,14.4,14.4,0,0,1-3.894-1.3,15.742,15.742,0,0,0,2.851.254A21.215,21.215,0,0,0,41.12,53.979a.884.884,0,0,0-.928-1.505c-4.46,2.75-10.139,3.663-14.132,2.273a7.549,7.549,0,0,1-4.622-4.1,8.78,8.78,0,0,1-.3-.94,7.79,7.79,0,0,1,2.988-8.254.884.884,0,0,0-1.119-1.369,9.589,9.589,0,0,0-3.581,10.064c1.244,4.831,5.882,8.773,11.539,9.808a16.656,16.656,0,0,0,3,.271,18.82,18.82,0,0,0,8.112-1.91,27.682,27.682,0,0,0,8.7-6.811,13.055,13.055,0,0,0,7.207-1.286A24.961,24.961,0,0,1,49.274,61.809Z" transform="translate(0 -20.04)"/>
          </g>
        </g>
      </g>
    </g>
    <path id="Trazado_874774" data-name="Trazado 874774" d="M8.681,0c.058,0,.116,0,.174.005A2.92,2.92,0,0,1,10.6.742a2.539,2.539,0,0,1,.893,1.9,12.068,12.068,0,0,1,.075,1.714V6.111H15.15a2.259,2.259,0,0,1,1.982,1.015,3.141,3.141,0,0,1,.5,1.726,2.963,2.963,0,0,1-.524,1.721,2.248,2.248,0,0,1-1.961.947H11.564v1.9a14.322,14.322,0,0,1-.074,1.846,2.308,2.308,0,0,1-.969,1.9,2.923,2.923,0,0,1-3.467,0,2.323,2.323,0,0,1-.971-1.988V11.519H2.789A2.719,2.719,0,0,1,.6,10.656,2.475,2.475,0,0,1,.019,8.724,3.176,3.176,0,0,1,.787,7.005a2.554,2.554,0,0,1,2-.894H6.082V2.744A2.529,2.529,0,0,1,7.053.536,2.757,2.757,0,0,1,8.681,0Zm6.612,8.316A.523.523,0,0,0,15.15,8.3H9.374V4.353a9.5,9.5,0,0,0-.052-1.394L9.3,2.853V2.744a.374.374,0,0,0-.13-.339.744.744,0,0,0-.453-.214H8.681a.568.568,0,0,0-.343.12.989.989,0,0,0-.066.434V8.3H2.789a.374.374,0,0,0-.339.13,1,1,0,0,0-.256.549.294.294,0,0,0,.077.262,1.015,1.015,0,0,0,.517.088H8.272v5.849c0,.168.035.193.053.206a.737.737,0,0,0,.921,0c.019-.013.053-.038.053-.206v-.091L9.315,15a11.777,11.777,0,0,0,.058-1.575V9.329H15.15a.6.6,0,0,0,.17-.018.8.8,0,0,0,.124-.459A.958.958,0,0,0,15.293,8.316Z" transform="translate(45.075 4.027) rotate(-43)" fill="#1944b6"/>
  </g>
</svg>
