<svg xmlns="http://www.w3.org/2000/svg" width="86.414" height="86.844" viewBox="0 0 86.414 86.844">
  <g id="Grupo_1189383" data-name="Grupo 1189383" transform="translate(0 1.414)">
    <g id="Grupo_1188468" data-name="Grupo 1188468" transform="translate(0 0)">
      <path id="Rectángulo_402603" data-name="Rectángulo 402603" d="M0,0H0A84.736,84.736,0,0,1,84.736,84.736v.694a0,0,0,0,1,0,0H0a0,0,0,0,1,0,0V0A0,0,0,0,1,0,0Z" fill="#1944b6"/>
      <g id="Grupo_1188464" data-name="Grupo 1188464" transform="translate(10.136 17.576)">
        <path id="Trazado_874763" data-name="Trazado 874763" d="M248.136,253.219a.759.759,0,0,1-.759.759h-.909a.759.759,0,0,1-.759-.759,4.975,4.975,0,0,1,.847-2.475,6.54,6.54,0,0,1,.6-.8c.239-.279.488-.593.74-.932a8.127,8.127,0,0,0,1.568-4.348,68.076,68.076,0,0,0-.152-8.621.759.759,0,1,1,1.515-.106,69.392,69.392,0,0,1,.154,8.82,9.642,9.642,0,0,1-1.863,5.158c-.273.369-.545.711-.808,1.018a5.107,5.107,0,0,0-.462.615,5,5,0,0,0-.458.911A.759.759,0,0,1,248.136,253.219Z" transform="translate(-237.021 -191.725)" fill="#fff"/>
        <path id="Trazado_874764" data-name="Trazado 874764" d="M105.822,266.538a.759.759,0,0,1-.759.759h-1.574a.759.759,0,0,1-.58-1.249,13.823,13.823,0,0,0,2.646-13.4.759.759,0,0,1,1.455-.435,15.309,15.309,0,0,1-1.978,13.566h.03A.759.759,0,0,1,105.822,266.538Z" transform="translate(-66.595 -205.043)" fill="#fff"/>
        <path id="Trazado_874765" data-name="Trazado 874765" d="M175.794,182.88c.36.04.727.071,1.092.092a4.525,4.525,0,0,1,1.845.5.759.759,0,1,1-.7,1.347,3.011,3.011,0,0,0-1.23-.335c-.392-.023-.787-.056-1.174-.1a18.182,18.182,0,0,0-5.377.152c-1.416,2.24-1.624,6.91-1.647,8.864a4.767,4.767,0,0,1-.864,2.707c0,.005-.009.009-.014.015l0,0c-.019.03-.04.059-.061.088a16.39,16.39,0,0,0-1.55,2.684.759.759,0,0,1-.693.451h-4.438a.759.759,0,0,1-.557-1.275,18.592,18.592,0,0,0,1.924-2.6c.022-.035.043-.071.064-.107l.052-.089c.008-.013.017-.025.026-.038a8.157,8.157,0,0,0,1.11-3.655,50.954,50.954,0,0,0-.411-11.194c-3.1-2.136-4.939-6.089-5.466-11.757a.759.759,0,0,1,1.512-.141c.393,4.223,1.539,7.374,3.409,9.411a4.685,4.685,0,0,1,.1-1.467.759.759,0,1,1,1.473.368,5.662,5.662,0,0,0,.364,2.849c.008.019.011.039.017.059s.015.041.02.063a48.435,48.435,0,0,1,.5,11.9,9.694,9.694,0,0,1-.763,3.235h.181a.759.759,0,0,1,0,1.518h-.992q-.495.77-.96,1.4h2.358a16.835,16.835,0,0,1,1.507-2.524l.05-.073c0-.006.01-.011.014-.017a3.257,3.257,0,0,0,.575-1.832c.031-2.675.342-7.5,2.059-9.918a12.949,12.949,0,0,0,.881-1.938.759.759,0,0,1,1.441.479c-.008.024-.12.358-.337.86A20.777,20.777,0,0,1,175.794,182.88Z" transform="translate(-148.401 -137.099)" fill="#fff"/>
        <path id="Trazado_874766" data-name="Trazado 874766" d="M64.392,100.965a.759.759,0,0,1,.85-.26,6.675,6.675,0,0,1,4.313,3.508,5.918,5.918,0,0,1-.079,4.475.759.759,0,1,1-1.376-.643,4.367,4.367,0,0,0,.058-3.237,4.222,4.222,0,0,0-1.771-1.921,6.483,6.483,0,0,1-1.864,5.841.759.759,0,0,1-.925.144c-.067-.038-6.777-3.682-17.713.057l-.04.013a24.592,24.592,0,0,1-5.69.816H40.1a5.987,5.987,0,0,1-4.631-2.182A21.744,21.744,0,0,1,32.1,102a.759.759,0,0,1,1.408-.569,20.208,20.208,0,0,0,3.133,5.173,4.474,4.474,0,0,0,3.461,1.631h.04a23.427,23.427,0,0,0,5.276-.754c9.861-3.363,16.454-1.063,18.362-.211a4.574,4.574,0,0,0,.593-5.42A.759.759,0,0,1,64.392,100.965Z" transform="translate(-15.376 -82.697)" fill="#fff"/>
        <path id="Trazado_874767" data-name="Trazado 874767" d="M48.246,136.425a.759.759,0,0,1,.649.855,7.692,7.692,0,0,1-4.909,5.888c.367,2.978-1.248,6.7-1.382,7.006-1.7,4.215-1.168,10.539-.861,13.064a4.85,4.85,0,0,1-.618,3,18.17,18.17,0,0,0-1.634,4.2v0c-.428,1.569-.629,2.826-.631,2.838a.759.759,0,0,1-.75.64H33.158a.759.759,0,0,1-.644-1.161,19.709,19.709,0,0,0,1.459-2.811c0-.005.005-.009.007-.014a15.124,15.124,0,0,0-.687-13.574,18.531,18.531,0,0,1-2.61,1.1,11.225,11.225,0,0,1-7.753-.161,6.564,6.564,0,0,0-1.9-.426.759.759,0,1,1,.124-1.513,8.08,8.08,0,0,1,2.34.529,9.7,9.7,0,0,0,6.7.132,15.232,15.232,0,0,0,2.948-1.322.759.759,0,0,1,1.01.2,16.392,16.392,0,0,1,1.622,14.584h.549a.759.759,0,0,1,0,1.518H35.171q-.316.7-.694,1.4h3c.106-.544.285-1.388.55-2.357v0a19.4,19.4,0,0,1,1.786-4.562,3.277,3.277,0,0,0,.422-2.056c-.4-3.285-.806-9.449.965-13.828l.011-.025c.019-.041,1.814-4.109,1.177-6.713h0a11.389,11.389,0,0,0-.89-2.29.759.759,0,0,1,1.339-.716,13.687,13.687,0,0,1,.783,1.824,6.152,6.152,0,0,0,3.77-4.6.759.759,0,0,1,.856-.65Z" transform="translate(7.91 -111.665)" fill="#fff"/>
        <path id="Trazado_874768" data-name="Trazado 874768" d="M229.1,14.307a1.727,1.727,0,0,1,.805,1.668A4.222,4.222,0,0,1,225.97,20.1a6.037,6.037,0,0,1-1.682,4.391,1.727,1.727,0,0,0-.442.992l-.257,2.3a3.935,3.935,0,0,1-.283,1.085,6.526,6.526,0,0,1-3.154,6.856.759.759,0,0,1-1.1-.5q-.084-.37-.176-.7c-.158.124-.307.239-.437.336a6.553,6.553,0,0,1-1.692.93,6.283,6.283,0,0,1-.789.228.738.738,0,0,1-.159.017.762.762,0,0,1-.588-1.242,4.7,4.7,0,0,0,.761-2.714,3.286,3.286,0,0,0-.057-.667,8.2,8.2,0,0,1-.027-3.128,3.972,3.972,0,0,1-.1-.549l-.22-2.183a1.7,1.7,0,0,0-.325-.834,7.662,7.662,0,0,1-1.663-4.846,4.677,4.677,0,0,1-2.736-.664,4.55,4.55,0,0,1-1.931-3.327,1.737,1.737,0,0,1,2.625-1.746,12.143,12.143,0,0,0,3.237,1.47,8.807,8.807,0,0,1,4.032-1.5A7.246,7.246,0,0,0,216.84,9.66a7.369,7.369,0,0,0-4.087-1.967,11.118,11.118,0,0,1,2.741,5.383.759.759,0,0,1-1.488.3,9.475,9.475,0,0,0-3.9-5.963A.759.759,0,0,1,210.487,6h.05c3.181,0,5.664.871,7.377,2.59a8.843,8.843,0,0,1,2.412,5.52,7.8,7.8,0,0,1,2.784.854,11.186,11.186,0,0,1,2.96-7.2,7.067,7.067,0,0,0-4.589,2.545.759.759,0,1,1-1.2-.929c1.7-2.2,4.4-3.313,8.012-3.313h.051a.759.759,0,0,1,.382,1.414,9.594,9.594,0,0,0-4.107,7.989,11.753,11.753,0,0,0,2.65-1.169A1.706,1.706,0,0,1,229.1,14.307ZM217.523,33.649a14.343,14.343,0,0,0,1.179-.971.759.759,0,0,1,1.221.253,9.148,9.148,0,0,1,.325.9,4.625,4.625,0,0,0,1.583-3.2,3.926,3.926,0,0,1-4.523-.161c.024.221.055.448.1.682a4.774,4.774,0,0,1,.079.974,7.9,7.9,0,0,1-.227,1.712Q217.391,33.748,217.523,33.649Zm6.658-16.482a.757.757,0,0,1-.623-.133,6.485,6.485,0,0,0-8.122-.028.759.759,0,0,1-.631.167,12.389,12.389,0,0,1-4.07-1.739.2.2,0,0,0-.228,0,.212.212,0,0,0-.1.218,3.121,3.121,0,0,0,1.244,2.277,3.711,3.711,0,0,0,2.653.319.759.759,0,0,1,.931.956c-.583,1.874.662,3.852,1.225,4.615a3.216,3.216,0,0,1,.614,1.582l.22,2.183a2.406,2.406,0,0,0,4.784.026l.257-2.3a3.253,3.253,0,0,1,.847-1.865,4.471,4.471,0,0,0,1.2-3.9.759.759,0,0,1,.736-.943h.029a2.79,2.79,0,0,0,3.24-2.807.214.214,0,0,0-.1-.212.191.191,0,0,0-.213,0A14.193,14.193,0,0,1,224.182,17.167Z" transform="translate(-208.888 -6)" fill="#fff"/>
        <path id="Trazado_874769" data-name="Trazado 874769" d="M247.8,81.593a.781.781,0,0,1-.148-.013.926.926,0,0,1-.14-.044.721.721,0,0,1-.131-.07.7.7,0,0,1-.116-.095.759.759,0,0,1-.224-.537.786.786,0,0,1,.015-.148.822.822,0,0,1,.044-.142.873.873,0,0,1,.07-.131.8.8,0,0,1,.095-.116.693.693,0,0,1,.116-.093.621.621,0,0,1,.131-.07.751.751,0,0,1,.14-.044.768.768,0,0,1,.685.207.685.685,0,0,1,.095.116.727.727,0,0,1,.07.131.811.811,0,0,1,.044.142.78.78,0,0,1,.013.148.758.758,0,0,1-.759.759Z" transform="translate(-234.775 -66.017)" fill="#fff"/>
        <path id="Trazado_874770" data-name="Trazado 874770" d="M272.095,81.592a.759.759,0,0,1-.537-1.294.684.684,0,0,1,.116-.095.766.766,0,0,1,.273-.114.776.776,0,0,1,.3,0,.765.765,0,0,1,.273.114.682.682,0,0,1,.116.095.759.759,0,0,1-.537,1.294Z" transform="translate(-263.68 -66.016)" fill="#fff"/>
        <path id="Trazado_874771" data-name="Trazado 874771" d="M257.627,109.921l-.836.56a.759.759,0,0,1-.864-.014l-.781-.56a.759.759,0,0,1,.884-1.234l.353.253.4-.267a.759.759,0,0,1,.844,1.262Z" transform="translate(-245.661 -89.071)" fill="#fff"/>
      </g>
    </g>
    <path id="Trazado_874774" data-name="Trazado 874774" d="M14.612,6.353a1.213,1.213,0,0,1,1.1.532,2.135,2.135,0,0,1,.342,1.179A1.955,1.955,0,0,1,15.715,9.2a1.246,1.246,0,0,1-1.1.494H9.745q0,1.749,0,3.118a13.748,13.748,0,0,1-.076,1.825,1.31,1.31,0,0,1-.532,1.141,1.9,1.9,0,0,1-2.281,0,1.31,1.31,0,0,1-.532-1.141V9.7H1.761A1.754,1.754,0,0,1,.354,9.2,1.436,1.436,0,0,1,.012,8.064,2.174,2.174,0,0,1,.544,6.885a1.522,1.522,0,0,1,1.217-.532H6.323V1.714A1.573,1.573,0,0,1,6.856.346,1.731,1.731,0,0,1,8,0,1.915,1.915,0,0,1,9.137.5a1.522,1.522,0,0,1,.532,1.217,11.083,11.083,0,0,1,.076,1.673q0,1.293,0,2.966Z" transform="translate(62.234 10.951) rotate(-43)" fill="none" stroke="#12263f" stroke-width="2"/>
  </g>
</svg>
