<svg xmlns="http://www.w3.org/2000/svg" width="81.504" height="92.172" viewBox="0 0 81.504 92.172">
  <g id="Grupo_1189610" data-name="Grupo 1189610" transform="translate(-309.347 -12019)">
    <g id="Grupo_1189603" data-name="Grupo 1189603" transform="translate(309.296 12027)">
      <g id="Grupo_1188468" data-name="Grupo 1188468" transform="translate(0 1.548)">
        <path id="Trazado_877517" data-name="Trazado 877517" d="M81.5,0V82.172H0V81.5A81.5,81.5,0,0,1,81.5,0Z" transform="translate(0.051 0.452)" fill="#fdbab3"/>
      </g>
      <path id="Trazado_874774" data-name="Trazado 874774" d="M8.681,0c.058,0,.116,0,.174.005A2.92,2.92,0,0,1,10.6.742a2.539,2.539,0,0,1,.893,1.9,12.068,12.068,0,0,1,.075,1.714V6.111H15.15a2.259,2.259,0,0,1,1.982,1.015,3.141,3.141,0,0,1,.5,1.726,2.963,2.963,0,0,1-.524,1.721,2.248,2.248,0,0,1-1.961.947H11.564v1.9a14.322,14.322,0,0,1-.074,1.846,2.308,2.308,0,0,1-.969,1.9,2.923,2.923,0,0,1-3.467,0,2.323,2.323,0,0,1-.971-1.988V11.519H2.789A2.719,2.719,0,0,1,.6,10.656,2.475,2.475,0,0,1,.019,8.724,3.176,3.176,0,0,1,.787,7.005a2.554,2.554,0,0,1,2-.894H6.082V2.744A2.529,2.529,0,0,1,7.053.536,2.757,2.757,0,0,1,8.681,0Zm6.612,8.316A.523.523,0,0,0,15.15,8.3H9.374V4.353a9.5,9.5,0,0,0-.052-1.394L9.3,2.853V2.744a.374.374,0,0,0-.13-.339.744.744,0,0,0-.453-.214H8.681a.568.568,0,0,0-.343.12.989.989,0,0,0-.066.434V8.3H2.789a.374.374,0,0,0-.339.13,1,1,0,0,0-.256.549.294.294,0,0,0,.077.262,1.015,1.015,0,0,0,.517.088H8.272v5.849c0,.168.035.193.053.206a.737.737,0,0,0,.921,0c.019-.013.053-.038.053-.206v-.091L9.315,15a11.777,11.777,0,0,0,.058-1.575V9.329H15.15a.6.6,0,0,0,.17-.018.8.8,0,0,0,.124-.459A.958.958,0,0,0,15.293,8.316Z" transform="translate(45.075 4.027) rotate(-43)" fill="#1944b6"/>
    </g>
    <g id="Grupo_1189609" data-name="Grupo 1189609" transform="translate(318.294 12032.875)">
      <path id="Trazado_877520" data-name="Trazado 877520" d="M63.03,31.483c-.843-3.761-3.88-6.267-6.655-7.821a4.326,4.326,0,0,0,.75-2.924A3.968,3.968,0,0,0,54.978,17.6a4.074,4.074,0,0,0-5.841-3.3L49,14.363a1.378,1.378,0,0,0-.248-.127,1.4,1.4,0,0,0-1.545.355l-.086.093a4.429,4.429,0,0,0-4.43-.475l-.9-1.317a6.528,6.528,0,0,0-4.342-2.769,6.218,6.218,0,0,0-4.823,1.2c-.034.025-.066.051-.1.076A8.117,8.117,0,0,0,25.9,8.127a7.821,7.821,0,0,0-6.65,3.724,6.849,6.849,0,0,0-.532,1.058A7.687,7.687,0,0,0,8.223,16.914a8.058,8.058,0,0,0-.6,2.443,20.071,20.071,0,0,0-2.519,1.18,7.911,7.911,0,0,0-4.022,6.222,7.418,7.418,0,0,0,2.722,6.495q.177.144.359.272a8.033,8.033,0,0,0-.9,8.3,8.281,8.281,0,0,0,6.505,4.812V56.6a.932.932,0,0,0,.932.932h3.653a.932.932,0,0,0,.932-.932V48.862c.127.125.246.246.386.378V56.6a.932.932,0,0,0,.932.932h3.653a.932.932,0,0,0,.932-.932V51.711a8.636,8.636,0,0,0,4.448-.776,5.326,5.326,0,0,0,1.578-1.055c.566.392,1.385.952,2.285,1.544.2.13.419.226.63.338V56.6a.932.932,0,0,0,.932.932h3.653a.932.932,0,0,0,.932-.932V52.377c.15-.042.3-.091.444-.142V56.6a.932.932,0,0,0,.932.932h3.653a.932.932,0,0,0,.932-.932V48.348a6.379,6.379,0,0,0,4.007-1.038A6.288,6.288,0,0,0,48.256,43.6a9.222,9.222,0,0,0,7.17-9.265c0-.693-.032-1.426-.085-2.177a12.048,12.048,0,0,0,4.233.751,11.181,11.181,0,0,0,2.8-.325.932.932,0,0,0,.658-1.1ZM46.382,16.516l.1.113a.935.935,0,0,0,.687.309h.005a.932.932,0,0,0,.686-.3l.31-.338.045.031a.927.927,0,0,0,.9.048l.832-.4a2.2,2.2,0,0,1,2.193.147,2.152,2.152,0,0,1,.986,1.867l-.011.124a.933.933,0,0,0,.583.963l.172.068a2.107,2.107,0,0,1,1.4,1.793,2.365,2.365,0,0,1-.954,2.195h0a1.965,1.965,0,0,1-1.126.319,2.087,2.087,0,0,1-.272-.015,3.846,3.846,0,0,1-.654-.135A8.678,8.678,0,0,1,50.6,21.877a.922.922,0,0,0-1.023-.647.942.942,0,0,0-.8.922.922.922,0,0,1-.326.686c-.193.132-.817.374-2.416-.229a.943.943,0,0,0-.968.194c-.009.009-.993.913-1.767.469a.933.933,0,0,0-1.023.065A9.921,9.921,0,0,1,40.385,24.4a1.953,1.953,0,0,1-1.566-.022,1.882,1.882,0,0,1-.945-.887,1.659,1.659,0,0,1-.171-.761,1.98,1.98,0,0,1,.553-1.359.936.936,0,0,0,.215-.852c-.324-1.308-.363-3.049.069-3.331a1.347,1.347,0,0,1,.411-.165c.038-.01.078-.017.117-.024a2.45,2.45,0,0,1,.406-.04c.023,0,.045,0,.067,0a3.9,3.9,0,0,1,.459.031l.064.01c.128.018.252.04.37.065l.1.023c.1.024.2.049.285.075l.073.021c.1.031.192.062.256.088a.932.932,0,0,0,1.083-.287l.262-.334a2.467,2.467,0,0,1,.471-.465,2.543,2.543,0,0,1,3.412.332Zm-9.65,8.568a3.719,3.719,0,0,0,.6.557,27.014,27.014,0,0,0-1,4.334,10.851,10.851,0,0,1-5.133.753,11.115,11.115,0,0,1,5.536-5.643ZM13.424,55.67H11.635V46.728c.047,0,.1-.008.146-.009.5-.014,1.005-.043,1.528-.1.036.048.074.1.115.152Zm5.9,0H17.538V50.593c.07.039.144.068.214.1.123.064.247.123.372.182.2.1.409.181.618.261.127.048.253.1.382.139.068.023.134.053.2.074v4.317Zm14.458,0H32V52.48c.02,0,.04.005.06.01a7.4,7.4,0,0,0,.824.131H32.9c.235.022.471.036.708.036.023,0,.046-.006.069-.006s.068.005.1,0Zm5.961,0H37.957v-4.4c.072-.052.128-.118.2-.172a6.984,6.984,0,0,0,.571-.5c.114-.111.228-.221.335-.339a6.617,6.617,0,0,0,.486-.619c.062-.088.141-.163.2-.254v6.284Zm4.842-9.917a4.51,4.51,0,0,1-3.68.594l-.154-.045c-.393-.118-.639-.209-.653-.214a.934.934,0,0,0-1.238.668,4.956,4.956,0,0,1-.176.6,5.158,5.158,0,0,1-2.149,2.617,5.609,5.609,0,0,1-5.108.373h0a5.465,5.465,0,0,1-.9-.481c-1.643-1.083-3.013-2.053-3.027-2.063a.933.933,0,0,0-1.429.481c-.034.106-.22.488-1.227.96a6.841,6.841,0,0,1-4.393.477,7.458,7.458,0,0,1-3.26-1.627c-.087-.071-.171-.149-.259-.23a18.813,18.813,0,0,1-1.852-2c-.35-.438-.524-.709-.539-.731a.926.926,0,0,0-.916-.432,17.59,17.59,0,0,1-2.108.146c-.262,0-.531.017-.782.007l-.236-.011a6.353,6.353,0,0,1-5.537-3.8,6.206,6.206,0,0,1,.772-6.512,4.861,4.861,0,0,1,.494-.551.932.932,0,0,0-.241-1.554A4.537,4.537,0,0,1,4.979,31.8a5.574,5.574,0,0,1-2.037-4.885,6.042,6.042,0,0,1,3.074-4.756A17.546,17.546,0,0,1,8.837,20.9a.933.933,0,0,0,.645-.944,5.528,5.528,0,0,1,.471-2.348,5.741,5.741,0,0,1,3.673-3.357,5.8,5.8,0,0,1,4.975.742c.059.04.1.067.1.071a.932.932,0,0,0,1.511-.591,4.32,4.32,0,0,1,.624-1.647A5.887,5.887,0,0,1,25.913,9.99h.056a6.306,6.306,0,0,1,5.35,2.921c.184.294.286.474.291.484a.933.933,0,0,0,1.68-.113c0-.007.072-.172.475-.482a4.363,4.363,0,0,1,3.392-.837,4.667,4.667,0,0,1,3.1,1.977l.932,1.369-.009.01a4.659,4.659,0,0,0-3.653.306c-1.536,1-1.2,3.694-.964,4.883a3.755,3.755,0,0,0-.721,2.207,3.562,3.562,0,0,0,.061.7c-2.384,1.206-5.806,3.631-6.842,7.919a.932.932,0,0,0,.771,1.141,15.973,15.973,0,0,0,6.288-.391,18.2,18.2,0,0,0,.215,3.953,9.213,9.213,0,0,0,3.788,6.21,9.771,9.771,0,0,0,6.055,1.671,4.47,4.47,0,0,1-1.589,1.839Zm2.7-3.843h0a8.088,8.088,0,0,1-6.1-1.2,7.4,7.4,0,0,1-3.015-4.993,17.472,17.472,0,0,1-.061-5.034,24.979,24.979,0,0,1,.948-4.33,3.473,3.473,0,0,0,2.047-.234,11.779,11.779,0,0,0,1.843-.982,3.447,3.447,0,0,0,2.943-.608,4.057,4.057,0,0,0,3.65-.179,2.457,2.457,0,0,0,.472-.436,15.185,15.185,0,0,0,1.3,1,.912.912,0,0,0,.238.118,6.029,6.029,0,0,0,.779.194,48.248,48.248,0,0,1,1.009,5.52,30.448,30.448,0,0,1,.218,3.586,7.474,7.474,0,0,1-6.276,7.579Zm7.841-11.89c-.195-1.508-.492-3.129-.887-4.838a3.759,3.759,0,0,0,.608-.218c2.331,1.2,5.034,3.135,6.088,5.995a10.347,10.347,0,0,1-5.81-.939Z"/>
      <path id="Trazado_877521" data-name="Trazado 877521" d="M43.369,30.117a.932.932,0,1,0,1.478-1.135,3.183,3.183,0,0,0-2.288-1.236,3.217,3.217,0,0,0-2.447.886l-.256.248a.932.932,0,0,0,1.3,1.338l.254-.247a1.318,1.318,0,0,1,1.961.146Z"/>
      <path id="Trazado_877522" data-name="Trazado 877522" d="M50.167,27.747a3.218,3.218,0,0,0-2.447.886l-.256.248a.932.932,0,0,0,1.3,1.338l.254-.247a1.319,1.319,0,0,1,1.013-.366,1.3,1.3,0,0,1,.948.512.932.932,0,1,0,1.478-1.135,3.183,3.183,0,0,0-2.288-1.236Z"/>
      <path id="Trazado_877523" data-name="Trazado 877523" d="M49.178,37.133a4.441,4.441,0,0,1-2.135,1.455V36.459l1.589-1.065A.932.932,0,1,0,47.6,33.846l-1.484.994-1.484-.994a.932.932,0,1,0-1.037,1.548l1.589,1.065v2a5.823,5.823,0,0,1-2.115-1.493.932.932,0,0,0-1.438,1.186,6.836,6.836,0,0,0,4.6,2.4h.091a5.67,5.67,0,0,0,4.254-2.184.932.932,0,1,0-1.394-1.237Z"/>
    </g>
  </g>
</svg>
