<svg xmlns="http://www.w3.org/2000/svg" width="505" height="319.62" viewBox="0 0 505 319.62">
  <g id="Grupo_1189097" data-name="Grupo 1189097" transform="translate(1893 8109)">
    <g id="IMAGEN" transform="translate(-1893 -8109)">
      <rect id="Rectángulo_402607" data-name="Rectángulo 402607" width="44" height="153.182" rx="12" transform="translate(461 63.93)" fill="#26c790"/>
      <path id="Rectángulo_402599" data-name="Rectángulo 402599" d="M0,0H74.42a0,0,0,0,1,0,0V.61A74.42,74.42,0,0,1,0,75.03H0a0,0,0,0,1,0,0V0A0,0,0,0,1,0,0Z" transform="translate(0 76.444)" fill="#fdbab3"/>
      <path id="Rectángulo_402630" data-name="Rectángulo 402630" d="M74.42,0h0a0,0,0,0,1,0,0V75.03a0,0,0,0,1,0,0H0a0,0,0,0,1,0,0v-.61A74.42,74.42,0,0,1,74.42,0Z" transform="translate(356.16 238.489)" fill="#fff"/>
      <g id="Grupo_1188572" data-name="Grupo 1188572" transform="translate(18886.764 8877.698)">
        <path id="Rectángulo_402597" data-name="Rectángulo 402597" d="M74.42,0h0a0,0,0,0,1,0,0V75.03a0,0,0,0,1,0,0H0a0,0,0,0,1,0,0v-.61A74.42,74.42,0,0,1,74.42,0Z" transform="translate(-18456.184 -8714.241)" fill="#fdbab3"/>
        <g id="Grupo_1188466" data-name="Grupo 1188466" transform="translate(-18395.285 -8653.132) rotate(-90)">
          <path id="Trazado_874773" data-name="Trazado 874773" d="M.737,1.112c.469,0,.785.412,1.249,1.089A3,3,0,0,0,4.546,3.893,3,3,0,0,0,7.105,2.2c.464-.678.78-1.089,1.249-1.089S9.14,1.524,9.6,2.2a3,3,0,0,0,2.56,1.691A3,3,0,0,0,14.723,2.2c.464-.678.78-1.089,1.249-1.089s.785.412,1.249,1.089a3,3,0,0,0,2.56,1.691A3,3,0,0,0,22.341,2.2c.464-.678.78-1.089,1.249-1.089s.785.412,1.249,1.089A3,3,0,0,0,27.4,3.893,3,3,0,0,0,29.957,2.2c.464-.678.78-1.089,1.249-1.089s.786.412,1.25,1.089a2.783,2.783,0,0,0,5.12,0c.464-.678.78-1.089,1.249-1.089s.786.412,1.251,1.09a2.785,2.785,0,0,0,5.122,0c.465-.678.781-1.09,1.251-1.09.407,0,.737-.249.737-.556S46.857,0,46.45,0a3.006,3.006,0,0,0-2.561,1.691c-.465.678-.781,1.09-1.251,1.09s-.786-.412-1.251-1.089a2.784,2.784,0,0,0-5.121,0c-.464.678-.78,1.089-1.25,1.089s-.786-.412-1.25-1.089a2.783,2.783,0,0,0-5.12,0c-.464.678-.78,1.089-1.25,1.089s-.785-.412-1.249-1.089A3,3,0,0,0,23.59,0a3,3,0,0,0-2.559,1.691c-.464.678-.78,1.089-1.249,1.089S19,2.369,18.532,1.691A3,3,0,0,0,15.973,0a3,3,0,0,0-2.56,1.691c-.464.678-.78,1.089-1.249,1.089s-.785-.412-1.25-1.089A3,3,0,0,0,8.354,0a3,3,0,0,0-2.56,1.691c-.464.678-.78,1.089-1.249,1.089S3.761,2.369,3.3,1.691A3,3,0,0,0,.737,0C.33,0,0,.249,0,.556S.33,1.112.737,1.112Z" transform="translate(0 0)" fill="#fff"/>
        </g>
      </g>
      <g id="Grupo_1188480" data-name="Grupo 1188480" transform="translate(15.436 24.708)">
        <rect id="Rectángulo_402596" data-name="Rectángulo 402596" width="428.286" height="41" transform="translate(13.001 226.625)" fill="#12263f" opacity="0.407"/>
        <g id="Grupo_1099339" data-name="Grupo 1099339" transform="translate(0 0)">
          <g id="primer-plano-de-conejillos-de-indias" fill="#fef0ef" stroke="#1944b6" stroke-width="5">
            <rect width="474.129" height="267.625" rx="14" stroke="none"/>
            <rect x="2.5" y="2.5" width="469.129" height="262.625" rx="11.5" fill="none"/>
          </g>
        </g>
      </g>
      <g id="Grupo_1188479" data-name="Grupo 1188479" transform="translate(430.58 238.489)">
        <path id="Rectángulo_402596-2" data-name="Rectángulo 402596" d="M74.42,0h0a0,0,0,0,1,0,0V65.6a9.427,9.427,0,0,1-9.427,9.427H0a0,0,0,0,1,0,0v-.61A74.42,74.42,0,0,1,74.42,0Z" transform="translate(0)" fill="#fdaa30"/>
        <g id="Grupo_1188461" data-name="Grupo 1188461" transform="translate(27.104 28.144)">
          <path id="Trazado_874753" data-name="Trazado 874753" d="M32.106,4.606,27.958.458a1.622,1.622,0,0,0-2.259,0,1.633,1.633,0,0,0-.1,2.361l.823.823L24.041,6.02l-2-2a1.1,1.1,0,0,0-1.549,0L19,5.517a1.123,1.123,0,0,0,.045,1.593L3.791,22.366a1.493,1.493,0,0,0-.134,1.955l.058,1.872a2.727,2.727,0,0,0,.5,1.486L.157,31.733a.477.477,0,0,0,.674.674l4.054-4.054a2.727,2.727,0,0,0,1.486.5l1.872.058a1.492,1.492,0,0,0,1.955-.134L22.205,16.766a.477.477,0,0,0-.674-.674l-2.137,2.137L14.336,13.17l1.27-1.27,1.512,1.512a.477.477,0,1,0,.674-.674L16.28,11.226,17.5,10l1.512,1.512a.477.477,0,1,0,.674-.674L18.179,9.327l1.543-1.543,5.058,5.058-1.671,1.671a.477.477,0,1,0,.674.674l1.671-1.671a1.119,1.119,0,0,0,1.593.045l1.494-1.494a1.121,1.121,0,0,0,0-1.549l-2-2L27.68,7.387a.477.477,0,0,0-.674-.674L25.87,7.848,24.716,6.694l2.379-2.379,2.651,2.651a1.6,1.6,0,0,0,2.259,0,1.635,1.635,0,0,0,.1-2.361ZM9.524,28.1a.537.537,0,0,1-.76,0,.477.477,0,0,0-.322-.139L6.4,27.9a1.792,1.792,0,0,1-1.732-1.732l-.064-2.04a.477.477,0,0,0-.139-.322.538.538,0,0,1,0-.76l.965-.965,5.058,5.058Zm9.2-9.2-7.557,7.557L6.1,21.4l5.755-5.755,1.512,1.512a.477.477,0,1,0,.674-.674l-1.512-1.512,1.127-1.127Zm9.188-7.609a.138.138,0,0,1-.041.1l-1.494,1.494a.141.141,0,0,1-.2,0l-6.5-6.5c0-.04-.085-.026,0-.2L21.171,4.7c.038.009-.007-.089.2,0l6.5,6.5A.139.139,0,0,1,27.908,11.294Zm3.524-5.1-.1.1a.644.644,0,0,1-.91,0L26.272,2.144a.686.686,0,0,1,.1-1.012.664.664,0,0,1,.91,0L31.432,5.28A.644.644,0,0,1,31.432,6.19Z" transform="translate(-0.017 0)" fill="#12263f"/>
          <path id="Trazado_874754" data-name="Trazado 874754" d="M130.182,114.5a.477.477,0,0,0,.674-.674l-1.1-1.1a.477.477,0,0,0-.674.674Z" transform="translate(-120.739 -105.425)" fill="#12263f"/>
          <path id="Trazado_874755" data-name="Trazado 874755" d="M184.243,86.671a.477.477,0,0,0,.477-.477V84.425a.477.477,0,1,0-.954,0v1.769A.477.477,0,0,0,184.243,86.671Z" transform="translate(-172.082 -78.61)" fill="#12263f"/>
          <path id="Trazado_874756" data-name="Trazado 874756" d="M101.047,168.1h1.769a.477.477,0,0,0,0-.954h-1.769a.477.477,0,0,0,0,.954Z" transform="translate(-94.176 -156.518)" fill="#12263f"/>
          <ellipse id="Elipse_11492" data-name="Elipse 11492" cx="0.489" cy="0.489" rx="0.489" ry="0.489" transform="translate(11.146 22.744)" fill="#12263f"/>
          <ellipse id="Elipse_11493" data-name="Elipse 11493" cx="0.489" cy="0.489" rx="0.489" ry="0.489" transform="translate(12.767 21.174)" fill="#12263f"/>
        </g>
        <path id="Trazado_874772" data-name="Trazado 874772" d="M9.41,4.091a.781.781,0,0,1,.71.343,1.375,1.375,0,0,1,.22.759,1.259,1.259,0,0,1-.22.735.8.8,0,0,1-.71.318H6.276q0,1.126,0,2.008a8.854,8.854,0,0,1-.049,1.175.843.843,0,0,1-.343.735,1.224,1.224,0,0,1-1.469,0,.843.843,0,0,1-.343-.735V6.246H1.134a1.129,1.129,0,0,1-.906-.318.925.925,0,0,1-.22-.735A1.4,1.4,0,0,1,.35,4.434a.98.98,0,0,1,.784-.343H4.072V1.1A1.013,1.013,0,0,1,4.415.223,1.115,1.115,0,0,1,5.149,0a1.233,1.233,0,0,1,.735.318.98.98,0,0,1,.343.784,7.137,7.137,0,0,1,.049,1.077q0,.832,0,1.91Z" transform="translate(55.412 62.966) rotate(-43)" fill="#fff"/>
      </g>
      <g id="Grupo_1188575" data-name="Grupo 1188575" transform="translate(18609.916 8877.7)">
        <g id="Grupo_1188574" data-name="Grupo 1188574">
          <g id="Grupo_1188465" data-name="Grupo 1188465" transform="translate(-18609.916 -8639.212)">
            <path id="Rectángulo_402602" data-name="Rectángulo 402602" d="M0,0H74.42a0,0,0,0,1,0,0V75.03a0,0,0,0,1,0,0h0A74.42,74.42,0,0,1,0,.61V0A0,0,0,0,1,0,0Z" fill="#26c790"/>
            <g id="Grupo_1188464" data-name="Grupo 1188464" transform="translate(29.357 9.782)">
              <path id="Trazado_874763" data-name="Trazado 874763" d="M247.086,245.439a.431.431,0,0,1-.431.431h-.516a.431.431,0,0,1-.431-.431,2.823,2.823,0,0,1,.481-1.4,3.713,3.713,0,0,1,.339-.453c.136-.158.277-.336.42-.529a4.611,4.611,0,0,0,.89-2.467,38.633,38.633,0,0,0-.086-4.892.431.431,0,1,1,.859-.06,39.373,39.373,0,0,1,.087,5.005,5.471,5.471,0,0,1-1.057,2.927c-.155.209-.309.4-.458.577a2.9,2.9,0,0,0-.262.349,2.836,2.836,0,0,0-.26.517A.431.431,0,0,1,247.086,245.439Z" transform="translate(-240.779 -210.545)" fill="#fff"/>
              <path id="Trazado_874764" data-name="Trazado 874764" d="M104.484,260.107a.431.431,0,0,1-.431.431h-.893a.431.431,0,0,1-.329-.709,7.844,7.844,0,0,0,1.5-7.6.431.431,0,1,1,.825-.247,8.687,8.687,0,0,1-1.122,7.7h.017A.431.431,0,0,1,104.484,260.107Z" transform="translate(-82.226 -225.213)" fill="#fff"/>
              <path id="Trazado_874765" data-name="Trazado 874765" d="M167.974,176.362c.2.023.412.041.619.052a2.568,2.568,0,0,1,1.047.286.431.431,0,1,1-.4.764,1.708,1.708,0,0,0-.7-.19c-.222-.013-.447-.032-.666-.056a10.317,10.317,0,0,0-3.051.086c-.8,1.271-.922,3.921-.935,5.029a2.7,2.7,0,0,1-.49,1.536l-.008.008h0c-.011.017-.023.034-.035.05a9.3,9.3,0,0,0-.88,1.523.431.431,0,0,1-.393.256h-2.518a.431.431,0,0,1-.316-.723,10.549,10.549,0,0,0,1.092-1.474c.013-.02.024-.04.036-.061l.03-.051.015-.022a4.628,4.628,0,0,0,.63-2.074,28.913,28.913,0,0,0-.233-6.352c-1.759-1.212-2.8-3.455-3.1-6.672a.431.431,0,0,1,.858-.08,9,9,0,0,0,1.934,5.34,2.658,2.658,0,0,1,.057-.832.431.431,0,1,1,.836.209,3.213,3.213,0,0,0,.207,1.617c0,.011.006.022.01.034s.009.023.011.036a27.483,27.483,0,0,1,.282,6.75,5.5,5.5,0,0,1-.433,1.836h.1a.431.431,0,1,1,0,.862h-.563q-.281.437-.545.8h1.338a9.551,9.551,0,0,1,.855-1.432l.028-.042.008-.009a1.848,1.848,0,0,0,.326-1.04c.018-1.518.194-4.257,1.168-5.628a7.351,7.351,0,0,0,.5-1.1.431.431,0,0,1,.818.272c0,.014-.068.2-.191.488A11.79,11.79,0,0,1,167.974,176.362Z" transform="translate(-152.431 -150.384)" fill="#fff"/>
              <path id="Trazado_874766" data-name="Trazado 874766" d="M50.4,100.835a.431.431,0,0,1,.482-.148,3.787,3.787,0,0,1,2.447,1.991,3.358,3.358,0,0,1-.045,2.539.431.431,0,1,1-.781-.365,2.478,2.478,0,0,0,.033-1.837,2.4,2.4,0,0,0-1-1.09,3.679,3.679,0,0,1-1.058,3.314.431.431,0,0,1-.525.082c-.038-.022-3.845-2.089-10.051.032l-.023.007a13.955,13.955,0,0,1-3.229.463h-.031a3.4,3.4,0,0,1-2.628-1.238,12.339,12.339,0,0,1-1.912-3.161.431.431,0,0,1,.8-.323,11.467,11.467,0,0,0,1.778,2.935,2.539,2.539,0,0,0,1.964.926h.023a13.293,13.293,0,0,0,2.994-.428c5.6-1.908,9.337-.6,10.419-.12a2.6,2.6,0,0,0,.337-3.075A.431.431,0,0,1,50.4,100.835Z" transform="translate(-22.585 -90.469)" fill="#fff"/>
              <path id="Trazado_874767" data-name="Trazado 874767" d="M36.172,136.422a.431.431,0,0,1,.368.485,4.365,4.365,0,0,1-2.786,3.341,9,9,0,0,1-.784,3.975c-.964,2.392-.663,5.98-.489,7.413a2.752,2.752,0,0,1-.35,1.7,10.31,10.31,0,0,0-.927,2.381h0c-.243.89-.357,1.6-.358,1.611a.431.431,0,0,1-.426.363H27.61a.431.431,0,0,1-.366-.659,11.183,11.183,0,0,0,.828-1.595l0-.008a8.582,8.582,0,0,0-.39-7.7,10.516,10.516,0,0,1-1.481.625,6.37,6.37,0,0,1-4.4-.091,3.725,3.725,0,0,0-1.078-.242.431.431,0,1,1,.071-.859,4.585,4.585,0,0,1,1.328.3,5.506,5.506,0,0,0,3.8.075,8.644,8.644,0,0,0,1.673-.75.431.431,0,0,1,.573.113,9.3,9.3,0,0,1,.92,8.276h.311a.431.431,0,0,1,0,.862h-.656q-.179.4-.394.8h1.7c.06-.309.162-.788.312-1.338v0a11,11,0,0,1,1.014-2.588,1.86,1.86,0,0,0,.24-1.166c-.227-1.864-.457-5.362.548-7.847l.006-.014c.011-.023,1.029-2.332.668-3.809h0a6.462,6.462,0,0,0-.5-1.3.431.431,0,0,1,.76-.406,7.767,7.767,0,0,1,.444,1.035,3.491,3.491,0,0,0,2.139-2.608.431.431,0,0,1,.486-.369Z" transform="translate(-4.307 -122.373)" fill="#fff"/>
              <path id="Trazado_874768" data-name="Trazado 874768" d="M220.354,10.714a.98.98,0,0,1,.457.946A2.4,2.4,0,0,1,218.581,14a3.425,3.425,0,0,1-.954,2.491.98.98,0,0,0-.251.563l-.146,1.3a2.235,2.235,0,0,1-.16.616,3.7,3.7,0,0,1-1.79,3.89.431.431,0,0,1-.627-.283q-.048-.21-.1-.4c-.089.071-.174.135-.248.191a3.718,3.718,0,0,1-.96.528,3.565,3.565,0,0,1-.448.129.419.419,0,0,1-.09.01.433.433,0,0,1-.334-.7,2.668,2.668,0,0,0,.432-1.54,1.867,1.867,0,0,0-.032-.379,4.653,4.653,0,0,1-.015-1.775,2.254,2.254,0,0,1-.056-.312l-.125-1.239a.963.963,0,0,0-.185-.473,4.348,4.348,0,0,1-.944-2.75A2.654,2.654,0,0,1,210,13.5a2.582,2.582,0,0,1-1.1-1.888.985.985,0,0,1,1.49-.991,6.89,6.89,0,0,0,1.837.834,5,5,0,0,1,2.288-.854A4.112,4.112,0,0,0,213.4,8.077a4.182,4.182,0,0,0-2.319-1.116,6.309,6.309,0,0,1,1.555,3.054.431.431,0,0,1-.844.171A5.377,5.377,0,0,0,209.578,6.8.431.431,0,0,1,209.8,6h.029a5.679,5.679,0,0,1,4.186,1.47,5.018,5.018,0,0,1,1.369,3.132,4.423,4.423,0,0,1,1.58.485A6.347,6.347,0,0,1,218.638,7a4.01,4.01,0,0,0-2.6,1.444.431.431,0,1,1-.682-.527,5.409,5.409,0,0,1,4.546-1.88h.029a.431.431,0,0,1,.217.8,5.444,5.444,0,0,0-2.331,4.533,6.669,6.669,0,0,0,1.5-.663A.968.968,0,0,1,220.354,10.714Zm-6.566,10.976a8.144,8.144,0,0,0,.669-.551.431.431,0,0,1,.693.144,5.181,5.181,0,0,1,.185.51,2.624,2.624,0,0,0,.9-1.815,2.228,2.228,0,0,1-2.567-.091c.013.125.031.254.055.387a2.709,2.709,0,0,1,.045.552,4.484,4.484,0,0,1-.129.971Q213.713,21.745,213.788,21.689Zm3.778-9.353a.43.43,0,0,1-.354-.075,3.68,3.68,0,0,0-4.609-.016.431.431,0,0,1-.358.095,7.03,7.03,0,0,1-2.31-.987.114.114,0,0,0-.129,0,.12.12,0,0,0-.055.124,1.771,1.771,0,0,0,.706,1.292,2.106,2.106,0,0,0,1.505.181.431.431,0,0,1,.528.543,3.2,3.2,0,0,0,.695,2.619,1.825,1.825,0,0,1,.348.9l.125,1.239a1.365,1.365,0,0,0,2.715.015l.146-1.3A1.846,1.846,0,0,1,217,15.9a2.537,2.537,0,0,0,.683-2.212.431.431,0,0,1,.418-.535h.016a1.583,1.583,0,0,0,1.839-1.593.121.121,0,0,0-.06-.12.109.109,0,0,0-.121,0A8.053,8.053,0,0,1,217.566,12.337Z" transform="translate(-208.888 -6)" fill="#fff"/>
              <path id="Trazado_874769" data-name="Trazado 874769" d="M247.471,80.937a.442.442,0,0,1-.084-.008.525.525,0,0,1-.08-.025.41.41,0,0,1-.074-.04.4.4,0,0,1-.066-.054.431.431,0,0,1-.127-.3.446.446,0,0,1,.009-.084.466.466,0,0,1,.025-.081.5.5,0,0,1,.04-.074.451.451,0,0,1,.054-.066.4.4,0,0,1,.066-.053.353.353,0,0,1,.074-.04.425.425,0,0,1,.08-.025.436.436,0,0,1,.389.117.389.389,0,0,1,.054.066.412.412,0,0,1,.04.074.461.461,0,0,1,.025.081.443.443,0,0,1,.008.084.43.43,0,0,1-.431.431Z" transform="translate(-240.08 -72.098)" fill="#fff"/>
              <path id="Trazado_874770" data-name="Trazado 874770" d="M271.767,80.936a.431.431,0,0,1-.3-.734.39.39,0,0,1,.066-.054.434.434,0,0,1,.155-.065.44.44,0,0,1,.168,0,.434.434,0,0,1,.155.065.387.387,0,0,1,.066.054.431.431,0,0,1-.3.734Z" transform="translate(-266.992 -72.097)" fill="#fff"/>
              <path id="Trazado_874771" data-name="Trazado 874771" d="M256.423,109.32l-.474.318a.431.431,0,0,1-.491-.008l-.443-.318a.431.431,0,0,1,.5-.7l.2.144.226-.151a.431.431,0,1,1,.479.716Z" transform="translate(-249.633 -97.489)" fill="#fff"/>
            </g>
          </g>
          <g id="Elipse_11498" data-name="Elipse 11498" transform="translate(-18583.781 -8583.3)" fill="none" stroke="#fdaa30" stroke-width="6">
            <ellipse cx="8.063" cy="8.063" rx="8.063" ry="8.063" stroke="none"/>
            <ellipse cx="8.063" cy="8.063" rx="5.063" ry="5.063" fill="none"/>
          </g>
        </g>
        <circle id="Elipse_11502" data-name="Elipse 11502" cx="1.916" cy="1.916" r="1.916" transform="translate(-18602.906 -8633.651)" fill="#fff"/>
      </g>
      <g id="Grupo_1188573" data-name="Grupo 1188573" transform="translate(0 1.413)">
        <g id="Grupo_1188468" data-name="Grupo 1188468" transform="translate(0 0)">
          <path id="Rectángulo_402603" data-name="Rectángulo 402603" d="M74.42,0h0a0,0,0,0,1,0,0V75.03a0,0,0,0,1,0,0H0a0,0,0,0,1,0,0v-.61A74.42,74.42,0,0,1,74.42,0Z" fill="#fdaa30"/>
          <g id="Grupo_1188467" data-name="Grupo 1188467" transform="translate(28.513 29.12)">
            <path id="Trazado_874775" data-name="Trazado 874775" d="M288.475,288.708a.456.456,0,0,1-.136-.89,5.01,5.01,0,0,1,1.5-.229.455.455,0,1,1,0,.911A6,6,0,0,0,288.475,288.708Z" transform="translate(-271.625 -271.241)" fill="#12263f"/>
            <path id="Trazado_874776" data-name="Trazado 874776" d="M28.256,21.374a3.132,3.132,0,0,0-2.578-.959.136.136,0,0,1-.145-.1A10.982,10.982,0,0,0,20.5,14.178,13.853,13.853,0,0,0,13.3,12.2a7.282,7.282,0,0,0-.039-1.589c4.56-1.2,9.365-6.739,7.349-9.316C19.8.271,18.122.124,16.08.892,13.628-.854,7.774,2.356,5.683,6.229,2.908,7.269,0,10.292,0,13.193s2.281,3.793,5.193,3.972A8.389,8.389,0,0,0,5.48,24.22C3.707,25.44,1.963,27,3.219,28.775c.885,1.251,2.583.631,4.047.147a14.078,14.078,0,0,0,3.828-1.972,11.644,11.644,0,0,0,2.825-2.607,4.973,4.973,0,0,0,.9,1.107c-2.722,1.465-2.053,4.057,1.094,4.057a8.058,8.058,0,0,0,3.512-.951c1.906-.13,4.229-.5,5.532-1.946A3.192,3.192,0,0,0,28.256,21.374ZM.911,13.193c0-2.987,3.9-6.459,6.831-6.459a9.732,9.732,0,0,1,2.366.439c.563-.088.3-.981,2.453-2.986a.455.455,0,1,0-.62-.667A10.921,10.921,0,0,0,9.823,6.15a6.261,6.261,0,0,0-2.857-.265c1.883-2.686,5.756-5.008,8-4.5a12.856,12.856,0,0,0-1.551.939.455.455,0,1,0,.524.745C17.663.449,21.5.687,19.717,4.338a11.489,11.489,0,0,1-7.065,5.484.456.456,0,0,0-.345.311c-.079.254.107.4.107,1.507,0,3.057-2.809,4.656-5.583,4.656-3.655,0-5.92-.519-5.92-3.1ZM28.234,23.675a2.286,2.286,0,0,1-2.728,2.141,6.113,6.113,0,0,0,.451-3.174.455.455,0,1,0-.909.063c.2,2.833-.644,4.617-5.771,4.949a16.455,16.455,0,0,1-2.159.8c-1.5.356-2.918,0-3.079-.674-.129-.542.565-1.269,1.6-1.71a4.1,4.1,0,0,0,1.205.5.456.456,0,0,0,.136-.89,4.084,4.084,0,0,1-2.582-2.4.457.457,0,0,0-.027-.068,4.12,4.12,0,0,1,.191-3.317.455.455,0,1,0-.81-.417,5.037,5.037,0,0,0-.291,3.894,9.536,9.536,0,0,1-2.909,2.845,13.168,13.168,0,0,1-3.58,1.845c-1.8.6-2.619.754-3.017.191a1.123,1.123,0,0,1-.237-.889c.221-1.191,2.474-2.454,2.693-2.689.547-.588-.954-1.149-.954-4.275A7.133,7.133,0,0,1,6.179,17.2c.22,0,.438.006.652.006,2.8,0,5.547-1.413,6.3-4.085,4.273-.207,10.014,2.478,11.535,7.459a1.047,1.047,0,0,0,1.121.738A2.266,2.266,0,0,1,28.234,23.675Z" transform="translate(0 -0.404)" fill="#12263f"/>
            <path id="Trazado_874777" data-name="Trazado 874777" d="M260.455,308.5a.455.455,0,1,1,.446-.367A.456.456,0,0,1,260.455,308.5Z" transform="translate(-245.199 -290.1)" fill="#12263f"/>
            <ellipse id="Elipse_11499" data-name="Elipse 11499" cx="0.797" cy="0.797" rx="0.797" ry="0.797" transform="translate(4.213 10.029)" fill="#12263f"/>
          </g>
        </g>
        <path id="Trazado_874774" data-name="Trazado 874774" d="M6.926-1c.053,0,.106,0,.159,0a2.666,2.666,0,0,1,1.59.673A2.319,2.319,0,0,1,9.49,1.41a11.019,11.019,0,0,1,.068,1.565v1.6h3.274a2.063,2.063,0,0,1,1.81.927A2.868,2.868,0,0,1,15.1,7.082a2.706,2.706,0,0,1-.478,1.571,2.052,2.052,0,0,1-1.791.865H9.559v1.738a13.077,13.077,0,0,1-.068,1.686,2.107,2.107,0,0,1-.885,1.733,2.669,2.669,0,0,1-3.166,0,2.121,2.121,0,0,1-.886-1.816V9.518H1.546a2.483,2.483,0,0,1-2-.788,2.26,2.26,0,0,1-.53-1.765A2.9,2.9,0,0,1-.281,5.4,2.332,2.332,0,0,1,1.546,4.58H4.554V1.506A2.309,2.309,0,0,1,5.44-.51,2.517,2.517,0,0,1,6.926-1Zm6.038,7.593a.478.478,0,0,0-.131-.014H7.559v-3.6A8.677,8.677,0,0,0,7.512,1.7l-.019-.1v-.1A.342.342,0,0,0,7.374,1.2.679.679,0,0,0,6.96,1H6.926a.519.519,0,0,0-.313.11.9.9,0,0,0-.06.4V6.58H1.546a.342.342,0,0,0-.309.118A.912.912,0,0,0,1,7.2a.268.268,0,0,0,.071.239.927.927,0,0,0,.472.08H6.554v5.341c0,.153.032.176.049.188a.673.673,0,0,0,.841,0c.017-.012.049-.035.049-.188v-.083l.014-.082a10.753,10.753,0,0,0,.053-1.438V7.518h5.274a.547.547,0,0,0,.155-.017.73.73,0,0,0,.114-.419A.875.875,0,0,0,12.964,6.593Z" transform="translate(26.135 9.618) rotate(-43)" fill="#1944b6"/>
      </g>
    </g>
    <g id="Grupo_1189096" data-name="Grupo 1189096" transform="translate(-1817 -8063)">
      <g id="Grupo_1189031" data-name="Grupo 1189031" transform="translate(0 0)">
        <g id="Grupo_1189030" data-name="Grupo 1189030">
          <path id="Trazado_875933" data-name="Trazado 875933" d="M3100.722,1353.248l-.385.06a17.041,17.041,0,0,0-.323,4.314,32.718,32.718,0,0,0,4.51,16.7,24,24,0,0,0,5.794,6.633,16.744,16.744,0,0,0,3.786,2.088,10.35,10.35,0,0,1,2.077-.625,19.619,19.619,0,0,1,1.972,1.451,13.878,13.878,0,0,0,3.835,1.411,11.424,11.424,0,0,0,8.324-1.769l-3.238.566a12.14,12.14,0,0,1-9.22-2.659c-4.767-3.8-6.729-10.84-7.347-16.655a.922.922,0,0,1,.279-.189,40.947,40.947,0,0,0,6.165-4.319c1.816-1.489,3.863-3.249,4.742-5.481a3.2,3.2,0,0,0-.316-1.453c-1.995-3.47-7.4-1.58-10.343-.6a9.631,9.631,0,0,1-1.9.649,11.007,11.007,0,0,1-1.6-.943,15.129,15.129,0,0,0-3.969-1.849A4.615,4.615,0,0,0,3100.722,1353.248Z" transform="translate(-3100.011 -1279.239)" fill="#9f540f"/>
          <path id="Trazado_875934" data-name="Trazado 875934" d="M3100.014,1359.814a32.718,32.718,0,0,0,4.51,16.7,24,24,0,0,0,5.794,6.633l.985-.666a6.409,6.409,0,0,0,.1-2.691,88.588,88.588,0,0,0-1.75-8.712c-.256-1.317-.28-3.013-.665-4.248-.193-.618-2.8-2.349-3.464-2.924-2.706-2.324-4.539-4.823-4.808-8.465l-.385.06A17.04,17.04,0,0,0,3100.014,1359.814Z" transform="translate(-3100.011 -1281.431)" fill="#733a29"/>
          <g id="Grupo_1189029" data-name="Grupo 1189029">
            <path id="Trazado_875935" data-name="Trazado 875935" d="M3557.962,1573.375l-19.465,1.732-.012.318c-3.553,2.633-6.858,5.4-8.395,9.728l12.419-2.337a20.108,20.108,0,0,0-3.86,4.745l16.66-3.163c4.814-.827,10.164-1.013,14.728-2.861a12.5,12.5,0,0,0,5.247-4,2,2,0,0,0,.344-.786l-.069-.327-3.412-3.1a7.742,7.742,0,0,0-1.694-1.44,5.413,5.413,0,0,0-1.17-.094A78.773,78.773,0,0,1,3557.962,1573.375Z" transform="translate(-3293.856 -1378.948)" fill="#93480a"/>
            <path id="Trazado_875936" data-name="Trazado 875936" d="M3286.563,1553.8a12.038,12.038,0,0,1-1.769,4.652,5.317,5.317,0,0,1-3.325,2.265c-1.049.167-2.121.173-3.163.385a13.511,13.511,0,0,0-8.063,4.751,18.57,18.57,0,0,0-2.685,5.119l9.978-1.828a30.506,30.506,0,0,0-2.515,5.176l11.083-1.964a48.451,48.451,0,0,1,5.311-.051,13.174,13.174,0,0,0,10.939-5.495,80.692,80.692,0,0,0,5.265-8.971l4.972-9.212c-8.958-2.241-18.366-5.256-26.531-9.613C3286.846,1543.836,3287.492,1548.954,3286.563,1553.8Z" transform="translate(-3175.528 -1364.172)" fill="#93480a"/>
            <path id="Trazado_875937" data-name="Trazado 875937" d="M3600.063,1585.272c-4.877.905-10,1.563-14.471,3.828a18.342,18.342,0,0,0-9.706,10.9l9.763-2.227c-1.475,1.692-2.147,4.042-2.764,6.154a88.368,88.368,0,0,1,13.157-4.04c-.091,1.113-1.4,2.321-1.548,3.605-.054.452-.079.53.189.889a44.212,44.212,0,0,1,11.41-3.415l10.673-2.119a67.188,67.188,0,0,0,9.11-2.23c2.491-.873,5.484-2.192,6.667-4.728a10.222,10.222,0,0,0,.037-6.949l-.6-.348a1.465,1.465,0,0,0-1.043-.373c-.584-.03-1.186.137-1.782.125l-8.112-.164c-4.2-.1-8.635-.783-12.826-.253-.96.121-1.909.073-2.863.175a28.734,28.734,0,0,0-4.079.978,2.138,2.138,0,0,1-1.144-.1Z" transform="translate(-3314.496 -1384.326)" fill="#93480a"/>
            <path id="Trazado_875938" data-name="Trazado 875938" d="M3100.722,1353.248l-.385.06a17.041,17.041,0,0,0-.323,4.314,32.718,32.718,0,0,0,4.51,16.7,24,24,0,0,0,5.794,6.633,16.744,16.744,0,0,0,3.786,2.088c2.115,2.568,3.765,5.172,6.206,7.5,5.2,4.962,12.323,8.346,19.144,10.416l6.817,1.716a38.494,38.494,0,0,1,12.138,6.025c6.141,4.482,10.4,10.947,15.362,16.6a127.568,127.568,0,0,0,17.128,16.153l4.7-.7a42.023,42.023,0,0,0,8.82-2.92l.047-.115c-.846-.854-1.978-1.513-2.893-2.311l-7.537-6.913a114.475,114.475,0,0,1-16.438-20.077c-1.32-2.037-2.954-4.266-3.436-6.676-11.608-2.252-22.46-5.861-32-13.065a45.717,45.717,0,0,1-6.727-5.929,19.281,19.281,0,0,1-2.075-2.144c-1.324.587-4.936-.463-6.449-.871a23.077,23.077,0,0,1-13.67-9.849c-1.026-1.635-1.764-3.44-2.728-5.116a.922.922,0,0,1,.279-.189,40.947,40.947,0,0,0,6.165-4.319c1.816-1.489,3.863-3.249,4.742-5.481a3.2,3.2,0,0,0-.316-1.453c-1.995-3.47-7.4-1.58-10.343-.6a9.631,9.631,0,0,1-1.9.649,11.007,11.007,0,0,1-1.6-.943,15.129,15.129,0,0,0-3.969-1.849A4.615,4.615,0,0,0,3100.722,1353.248Z" transform="translate(-3100.011 -1279.239)" fill="#b55b09"/>
            <path id="Trazado_875939" data-name="Trazado 875939" d="M3186.079,1245.732c-1.975.293-3.952.506-5.906.947l-10.937,2.888-.122.063c-2.041,1.01-4.478,1.625-6.622,2.427a141.616,141.616,0,0,0-13.082,5.549,122.912,122.912,0,0,0-16.956,10.121,132.106,132.106,0,0,0-21.467,19.254c-3.557,3.948-7.45,8.529-9.242,13.612a22.117,22.117,0,0,0-1.142,5.037l.385-.061a4.621,4.621,0,0,1,2.842-2.67,15.142,15.142,0,0,1,3.969,1.85,10.959,10.959,0,0,0,1.6.943,9.674,9.674,0,0,0,1.9-.649c2.942-.983,8.349-2.873,10.343.6a3.2,3.2,0,0,1,.315,1.453c-.878,2.232-2.925,3.992-4.741,5.481a40.909,40.909,0,0,1-6.165,4.319.924.924,0,0,0-.278.189c.964,1.676,1.7,3.481,2.728,5.116a23.079,23.079,0,0,0,13.67,9.849c1.513.407,5.125,1.457,6.449.871a65.279,65.279,0,0,1-4.208-5.91,35,35,0,0,1-4.061-12.4c-1.4-9.195,2.738-15.958,7.941-23.044,13.214-18,32.079-33.449,53.311-40.809a128.936,128.936,0,0,1,22.91-5.269,6.569,6.569,0,0,0,.656-.528l-.177-.168-18.871.664C3189.435,1245,3187.749,1245.483,3186.079,1245.732Z" transform="translate(-3100.279 -1231.561)" fill="#733a29"/>
            <path id="Trazado_875940" data-name="Trazado 875940" d="M3169.114,1250.017c-2.041,1.01-4.478,1.625-6.622,2.426a141.616,141.616,0,0,0-13.082,5.549,122.912,122.912,0,0,0-16.956,10.121,132.106,132.106,0,0,0-21.467,19.254c-3.557,3.948-7.45,8.529-9.242,13.612a22.12,22.12,0,0,0-1.142,5.037l.385-.06a4.62,4.62,0,0,1,2.842-2.67,16.271,16.271,0,0,1,1.832-3.621,104.583,104.583,0,0,1,20.552-22.679,147.015,147.015,0,0,1,38.222-23.568c3.47-1.462,6.921-2.889,10.511-4.036,5.323-1.7,10.743-2.367,16.175-3.538-1.688-.464-3.375.024-5.044.273-1.975.293-3.952.506-5.906.947l-10.937,2.889Z" transform="translate(-3100.279 -1231.948)" fill="#de7604"/>
            <path id="Trazado_875941" data-name="Trazado 875941" d="M3236.49,1235.82c1.954-.441,3.931-.654,5.905-.947,1.67-.248,3.355-.737,5.044-.273l18.871-.663.177.167a6.544,6.544,0,0,1-.655.528c-3.888,3.886-9.886,8.587-9.9,14.648-.01,3.434.153,5.85,2.692,8.364,3.1,3.067,7.412,3.752,11.2,5.584,2.136,1.034,3.913,2.617,5.92,3.859a37.923,37.923,0,0,0,20.124,5.471c3.808-.032,8.769-1.011,11.659-3.7L3306.8,1267a9.022,9.022,0,0,0,2.122-4.64c.421-3.2-.712-6.507,1.09-9.437,1.814-2.95,4.923-4.812,7.213-7.311l.141-.156-.158-.379-1.229-1.641-.066-.108a28.243,28.243,0,0,0-5.006-5.453,40.323,40.323,0,0,0-18.323-9.695c-8.343-1.8-15.917-.767-23.1,3.859-5.134-4.5-10.844-8.482-17.5-10.337-5.143-1.434-10.187-1.549-14.922,1.143-5.813,3.306-9.749,9.525-11.512,15.862Z" transform="translate(-3156.595 -1220.702)" fill="#ba610a"/>
            <path id="Trazado_875942" data-name="Trazado 875942" d="M3312.9,1259.168c7.983-4.936,16.312-5.1,25.209-2.8,2.261.585,4.438,1.48,6.7,2.016l-1.229-1.641-.11,0a7.317,7.317,0,0,1-2.5-1.225l-4.107-2c-8.53-3.914-20.283-5.222-27.976,1.132-4.777,3.947-11.937,14.957-18.723,14.408-1.173-.1-2.246-.658-3.365-.749a13.72,13.72,0,0,0,10.692,3.184,8.034,8.034,0,0,0,2.725-.739C3304.982,1267.484,3307.936,1262.237,3312.9,1259.168Z" transform="translate(-3184.202 -1234.012)" fill="#9f540f"/>
            <path id="Trazado_875943" data-name="Trazado 875943" d="M3315.419,1274.257l9.074-1.232a45.114,45.114,0,0,1-3.357,5.3c5.052,3.073,9.365,6.195,15.333,7.323a13.447,13.447,0,0,0,5.957.065,13.867,13.867,0,0,0,2.986-1.541,9.014,9.014,0,0,0,2.122-4.64c.421-3.2-.712-6.507,1.09-9.438,1.814-2.949,4.922-4.812,7.212-7.311l.142-.155-.158-.379c-2.263-.537-4.44-1.431-6.7-2.017-8.9-2.306-17.226-2.138-25.209,2.8-4.965,3.069-7.918,8.316-12.678,11.584C3312.158,1274.986,3314.382,1274.4,3315.419,1274.257Z" transform="translate(-3195.211 -1237.873)" fill="#de7604"/>
            <path id="Trazado_875944" data-name="Trazado 875944" d="M3586.255,1374.491c-2.405,1.309-5.841,1.639-8.486,2.43a94.562,94.562,0,0,0-12.909,4.986c-18.636,8.755-34.416,24.243-45.415,41.506a86.8,86.8,0,0,0-10,20.809,38.033,38.033,0,0,0-1.384,5.73,33.014,33.014,0,0,1-.573,4.458,10.635,10.635,0,0,1-1.471,2.565,27.962,27.962,0,0,1-10.313,9.414c-11.317,6-24.959,7.379-37.545,6.086a71.07,71.07,0,0,1-14.1-2.724c-3.759-1.18-7.665-3.045-9.591-6.686s-1.263-6.976-.558-10.789c-1.274,1.612-1.983,4.031-2.916,5.9l-8.431,16.814c-1.274,2.524-2.944,4.817-4.224,7.35,16.146,2.876,32.986,3.9,49.377,4.076l13.854-.044c2.1-.048,4.5-.477,6.562-.223l19.464-1.732a78.856,78.856,0,0,0,11.32-1.575,5.392,5.392,0,0,1,1.171.093,7.731,7.731,0,0,1,1.693,1.44l3.413,3.1.068.328a8.943,8.943,0,0,1,3.862,2.854,2.141,2.141,0,0,0,1.144.095,28.766,28.766,0,0,1,4.079-.978c.954-.1,1.9-.053,2.863-.175,4.191-.53,8.628.157,12.826.253l8.112.164c.6.011,1.2-.156,1.782-.125a1.464,1.464,0,0,1,1.043.373l.736-.111a13.128,13.128,0,0,1,2.208-5.646c2.12-3.182,5.183-5.91,7.867-8.619a108.332,108.332,0,0,0,9.8-11.015c13.325-17.7,17.049-39.728,13.97-61.333a108.417,108.417,0,0,0-2.933-13.594c-.367-1.335-.67-3.613-1.791-4.453a3.488,3.488,0,0,0,.182-.638,7.364,7.364,0,0,0-.553-1.76c-.729-2.124-1.481-4.271-2.406-6.316-.368-.808-.817-2.012-1.693-2.342Z" transform="translate(-3243.485 -1289.992)" fill="#b55b09"/>
            <path id="Trazado_875945" data-name="Trazado 875945" d="M3667.084,1412.609c-.078,1.526,0,3.062-.216,4.58-.7,5.051-1.156,10-2.606,14.934-4.52,15.37-13.133,30.807-26.022,40.7-8.639,6.63-18.435,11.183-29.418,11.822a26.357,26.357,0,0,1-4.727.091l-.537-.112c-.707-.15-1.484-.122-2.206-.218a23.127,23.127,0,0,1-5.63-1.35,22.688,22.688,0,0,1-7.97-4.887,15.263,15.263,0,0,0-2.354-2.417,43.293,43.293,0,0,0,5.8,10.75c.664.915,3.885,4.453,3.848,5.194l-.838.218a5.392,5.392,0,0,1,1.171.093,7.715,7.715,0,0,1,1.693,1.44l3.413,3.1.068.327a8.951,8.951,0,0,1,3.863,2.854,2.141,2.141,0,0,0,1.144.095,28.755,28.755,0,0,1,4.078-.978c.955-.1,1.9-.053,2.864-.175,4.19-.53,8.627.157,12.826.253l8.112.164c.6.012,1.2-.156,1.781-.125a1.463,1.463,0,0,1,1.043.373l.736-.111a13.129,13.129,0,0,1,2.209-5.646c2.12-3.182,5.182-5.91,7.867-8.619a108.2,108.2,0,0,0,9.8-11.015c13.325-17.7,17.05-39.728,13.971-61.333a108.6,108.6,0,0,0-2.933-13.594c-.368-1.335-.67-3.613-1.791-4.453A89.172,89.172,0,0,1,3667.084,1412.609Z" transform="translate(-3318.784 -1299.064)" fill="#a55a1c"/>
            <path id="Trazado_875946" data-name="Trazado 875946" d="M3155.779,1335.632a45.719,45.719,0,0,0,6.727,5.929c9.543,7.2,20.4,10.813,32,13.065,18.273,2.68,42.048-2.14,57.309-12.731a15.6,15.6,0,0,0,3.342-2.479,50.951,50.951,0,0,0,18.709-48.555,90.3,90.3,0,0,0-2.58-10.574c-2.89,2.69-7.851,3.668-11.658,3.7a37.926,37.926,0,0,1-20.125-5.472c-2.006-1.241-3.784-2.825-5.92-3.859-3.786-1.833-8.1-2.517-11.2-5.585-2.539-2.513-2.7-4.929-2.693-8.363.018-6.062,6.016-10.762,9.9-14.648a128.937,128.937,0,0,0-22.91,5.27c-21.231,7.36-40.1,22.809-53.311,40.809-5.2,7.086-9.337,13.849-7.941,23.044a35,35,0,0,0,4.061,12.4,65.279,65.279,0,0,0,4.208,5.91A19.3,19.3,0,0,0,3155.779,1335.632Z" transform="translate(-3120.362 -1232.132)" fill="#de7604"/>
            <path id="Trazado_875947" data-name="Trazado 875947" d="M3171.219,1415.059c9.543,7.2,20.4,10.813,32,13.065,18.273,2.681,42.048-2.139,57.309-12.731-.822-.479-1.859.075-2.693.36-4.32,1.48-8.512,3.047-12.937,4.229a102.371,102.371,0,0,1-31.4,3.189,116.655,116.655,0,0,1-33.45-7.055,82.413,82.413,0,0,1-13.139-6.031,5.352,5.352,0,0,0-2.42-.955A45.706,45.706,0,0,0,3171.219,1415.059Z" transform="translate(-3129.074 -1305.63)" fill="#ba610a"/>
            <path id="Trazado_875948" data-name="Trazado 875948" d="M3222.408,1299.383a12.316,12.316,0,0,0-2.725,9.335,12.105,12.105,0,0,0,4.692,7.868,15.761,15.761,0,0,0,9.873,3.066c3.88-.375,7.673-1.546,10.244-4.677a12.718,12.718,0,0,0,2.905-9.576,13.275,13.275,0,0,0-4.892-8.526,13.77,13.77,0,0,0-9.129-2.769l-.107.013C3229.071,1294.587,3225.143,1296,3222.408,1299.383Z" transform="translate(-3153.91 -1253.766)" fill="#763b05"/>
            <path id="Trazado_875949" data-name="Trazado 875949" d="M3229.688,1305.189a8.965,8.965,0,0,0-.409,6.816,8.5,8.5,0,0,0,4.808,5.021,9.589,9.589,0,0,0,4.246.63c2.412-.746,4.4-1.688,5.623-4.044a9.054,9.054,0,0,0,.272-6.968,8.919,8.919,0,0,0-4.315-5.118,9.438,9.438,0,0,0-4.795-.783A8.434,8.434,0,0,0,3229.688,1305.189Z" transform="translate(-3158.053 -1256.766)" fill="#070605"/>
            <path id="Trazado_875950" data-name="Trazado 875950" d="M3250.269,1320.556c.347.516.485.773,1.139.912a3.142,3.142,0,0,0,.734.023c.352-.7.665-.989.462-1.763a2.185,2.185,0,0,0-1.715-.747A3.044,3.044,0,0,0,3250.269,1320.556Z" transform="translate(-3167.735 -1264.998)" fill="#fefefe"/>
            <path id="Trazado_875951" data-name="Trazado 875951" d="M3233.209,1306.641a3.245,3.245,0,0,0,.454,2.519,3.809,3.809,0,0,0,2.167,1.654,6.556,6.556,0,0,0,1.728-.049,4.27,4.27,0,0,0,2.424-2.628,3.116,3.116,0,0,0-.391-2.353,3.861,3.861,0,0,0-2.332-1.759,5.379,5.379,0,0,0-1.689,0C3234.42,1304.724,3233.562,1305.246,3233.209,1306.641Z" transform="translate(-3160.007 -1258.225)" fill="#fefefe"/>
            <path id="Trazado_875952" data-name="Trazado 875952" d="M3321.479,1264.924c-2.29,2.5-5.4,4.361-7.212,7.31-1.8,2.93-.67,6.243-1.091,9.438a9.021,9.021,0,0,1-2.122,4.64l.728,1.857a90.105,90.105,0,0,1,2.579,10.574,50.944,50.944,0,0,1-18.709,48.555,15.569,15.569,0,0,1-3.342,2.479c-15.26,10.592-39.035,15.411-57.309,12.731.482,2.41,2.115,4.64,3.437,6.676a114.417,114.417,0,0,0,16.438,20.077l7.536,6.913c.916.8,2.048,1.457,2.894,2.311l-.047.115a42.048,42.048,0,0,1-8.82,2.92l-4.7.7,19.645,12.635c8.165,4.357,17.572,7.371,26.53,9.613l9.014,1.73c.481,4.952.988,14.878-2.263,18.752a5.744,5.744,0,0,1-3.294,1.665c-3.883,1.044-7.607,2.091-10.325,5.292a23.849,23.849,0,0,0-3.185,5.408l7.279-1.449a11.357,11.357,0,0,1,2.987-.5l-1.448,3.931a3.662,3.662,0,0,0-.429,1.3,38.248,38.248,0,0,1,7.136-1.8l8.989-.992c3.5-.366,7.183-.414,10.08-2.658,3.1-2.4,5.027-6.228,6.707-9.692l3.6-7.561a50.557,50.557,0,0,0,2.935-5.536c1.279-2.532,2.949-4.826,4.224-7.35l8.431-16.814c.933-1.872,1.643-4.292,2.916-5.9-.7,3.813-1.36,7.162.558,10.789s5.832,5.5,9.591,6.685a71.018,71.018,0,0,0,14.1,2.724c12.586,1.293,26.228-.086,37.545-6.086a27.962,27.962,0,0,0,10.313-9.413,10.6,10.6,0,0,0,1.471-2.565,32.853,32.853,0,0,0,.573-4.458,38.026,38.026,0,0,1,1.385-5.729,86.732,86.732,0,0,1,10-20.809c11-17.262,26.779-32.75,45.414-41.505a94.563,94.563,0,0,1,12.91-4.986c2.646-.791,6.082-1.121,8.486-2.429l.1-.057c.16-1.019-.6-1.948-1.124-2.8l-4.159-6.354c-8.918-12.283-21.1-21.911-34.46-28.952a124.344,124.344,0,0,0-14.395-6.616,99.139,99.139,0,0,0-37.595-6.2l-17.582,1.488-20.438,1.823c-10.423.723-20.748.832-31.1-.806a33.631,33.631,0,0,1-1.679-3.2,21.443,21.443,0,0,0-9.073-7.873,12.952,12.952,0,0,0-7.514-1.243,20.081,20.081,0,0,0-2.985,1.055Z" transform="translate(-3160.854 -1240.014)" fill="#de7604"/>
            <path id="Trazado_875953" data-name="Trazado 875953" d="M3270.175,1512.337l-4.7.7,19.645,12.635c8.166,4.357,17.573,7.371,26.531,9.613l9.014,1.73a25.166,25.166,0,0,0-4.076-11.811,38.6,38.6,0,0,0-4.675-5.129l-4.508-4.721c1.388,4.045,3.071,7.075,6.4,9.838a10.791,10.791,0,0,1-2.953-.479c-8.7-1.739-17.456-5.817-24.982-10.461a50.559,50.559,0,0,1-4.176-2.893,14.5,14.5,0,0,0-2.7-1.944A42.047,42.047,0,0,1,3270.175,1512.337Z" transform="translate(-3174.59 -1350.831)" fill="#ba610a"/>
            <path id="Trazado_875954" data-name="Trazado 875954" d="M3321.479,1264.924c-2.29,2.5-5.4,4.361-7.212,7.31-1.8,2.93-.67,6.243-1.091,9.438a9.021,9.021,0,0,1-2.122,4.64l.728,1.857a90.105,90.105,0,0,1,2.579,10.574,50.944,50.944,0,0,1-18.709,48.555,15.569,15.569,0,0,1-3.342,2.479c-15.26,10.592-39.035,15.411-57.309,12.731.482,2.41,2.115,4.64,3.437,6.676a114.417,114.417,0,0,0,16.438,20.077l7.536,6.913c.916.8,2.048,1.457,2.894,2.311a15.807,15.807,0,0,0,3.854-1.969,35.958,35.958,0,0,0,10.6-10.121c-1.4,5.125-3.017,9.615-6.551,13.7l1.715-.582c8.183-2.989,15.017-8.281,21.754-13.646a91.958,91.958,0,0,0,12.354-11.2,59.218,59.218,0,0,0,8.269-12.444,36.117,36.117,0,0,0,2.91-8.044,28.441,28.441,0,0,1,1.308-5.4,26.719,26.719,0,0,1,.225,5.224,43.888,43.888,0,0,1-.816,9.308,61.791,61.791,0,0,1-4.337,11.811l.161-.036a10.124,10.124,0,0,0,1.585-1.239l4.021-3.2c10.341-8.354,20.021-17.3,25.415-29.732,7.49-17.259,6.685-36.694.214-54.126a48.67,48.67,0,0,0-2.529-5.762,49.828,49.828,0,0,1-2.589-5,33.631,33.631,0,0,1-1.679-3.2,21.443,21.443,0,0,0-9.073-7.873,12.952,12.952,0,0,0-7.514-1.243,20.081,20.081,0,0,0-2.985,1.055Z" transform="translate(-3160.854 -1240.014)" fill="#b55b09"/>
          </g>
        </g>
      </g>
    </g>
  </g>
</svg>
