<svg xmlns="http://www.w3.org/2000/svg" width="82" height="82" viewBox="0 0 82 82">
  <g id="Grupo_1189706" data-name="Grupo 1189706" transform="translate(-768.781 -1962.939)">
    <rect id="Rectángulo_402627" data-name="Rectángulo 402627" width="82" height="82" transform="translate(768.781 1962.939)" fill="none"/>
    <g id="Grupo_1189734" data-name="Grupo 1189734" transform="translate(777.781 1971.939)">
      <path id="Trazado_877764" data-name="Trazado 877764" d="M31,45H23a2,2,0,0,0-2,2,4,4,0,0,0,4,4h4a4,4,0,0,0,4-4A2,2,0,0,0,31,45Zm-2,4H25a2,2,0,0,1-2-2h8A2,2,0,0,1,29,49Z"/>
      <circle id="Elipse_11679" data-name="Elipse 11679" cx="1" cy="1" r="1" transform="translate(41 5)"/>
      <circle id="Elipse_11680" data-name="Elipse 11680" cx="1" cy="1" r="1" transform="translate(37 5)"/>
      <path id="Trazado_877765" data-name="Trazado 877765" d="M23,5h8V7H23Z"/>
      <path id="Trazado_877766" data-name="Trazado 877766" d="M59.093,19.32l2.578-2.578a4.535,4.535,0,0,0-6.414-6.414L50.586,15h-3.1c-.163,0-.324.013-.485.024V6a5.006,5.006,0,0,0-5-5H12A5.006,5.006,0,0,0,7,6V29.586L4.24,32.347A10.983,10.983,0,0,0,1,40.167a11.2,11.2,0,0,0,.15,1.818l1.556,9.332a18.284,18.284,0,0,0,1.061,3.792L5,58.193V63H19V58.193l.69-1.725c.193-.483.357-.974.508-1.468H42a5.006,5.006,0,0,0,5-5V31.414l.4-.405.918.551a10.1,10.1,0,0,0,8.4.92L61.162,31H63V21H61.333Zm-2.422-7.578a2.536,2.536,0,1,1,3.586,3.586L50.926,24.66l-2.391-1.913a7.934,7.934,0,0,0-1.792-1.076ZM48.586,17,44.52,21.066A7.983,7.983,0,0,0,43.554,21a3.547,3.547,0,0,0-3.433,4.466L38.87,26.717a1.817,1.817,0,0,1-.334-2.839l5.414-5.414A4.966,4.966,0,0,1,47.485,17ZM9,6a3,3,0,0,1,3-3H42a3,3,0,0,1,3,3v9.459a6.929,6.929,0,0,0-2,1.169V11a2,2,0,0,0-2-2H13a2,2,0,0,0-2,2V41a2,2,0,0,0,1.157,1.807,29.237,29.237,0,0,1-1.539,3.72A.854.854,0,0,1,9,46.146Zm8,55H7V59H17Zm.833-5.274L17.323,57H6.677L5.623,54.366a16.364,16.364,0,0,1-.945-3.377L3.122,41.657A9.311,9.311,0,0,1,3,40.167a9,9,0,0,1,2.654-6.406L7,32.414V46.145a2.854,2.854,0,0,0,5.407,1.277,31.379,31.379,0,0,0,2.37-6.406l.75-3a1.343,1.343,0,0,1,2.643.223l.783,10.172q.047.624.047,1.252a16.263,16.263,0,0,1-1.167,6.061ZM16.83,35a3.34,3.34,0,0,0-3.244,2.533L13,39.877V11H41v7.586l-3.878,3.878a3.811,3.811,0,0,0,.317,5.683l-2.292,2.292-1.956,4.889a2.678,2.678,0,0,0,3.48,3.481L41,37.077V41H20.388l-.224-2.912A3.359,3.359,0,0,0,16.83,35Zm19.535-2.221,2.855,2.855-3.291,1.317A.69.69,0,0,1,35,36.323a.661.661,0,0,1,.049-.252ZM45,50a3,3,0,0,1-3,3H20.689A18.28,18.28,0,0,0,21,49.665q0-.7-.054-1.4l-.4-5.26H41a2,2,0,0,0,2-2V35.414l2-2ZM41,34.586,37.414,31l3.791-3.79a3.464,3.464,0,0,0,.521.392l3.912,2.347ZM61,29h-.162l-4.752,1.584a8.168,8.168,0,0,1-6.733-.739l-6.6-3.958a1.554,1.554,0,0,1,.8-2.887,5.989,5.989,0,0,1,3.731,1.31L50.649,27H56V25H53.414l4.251-4.251,3,2.251H61Z"/>
      <path id="Trazado_877767" data-name="Trazado 877767" d="M39,13H15v6H39Zm-2,4H17V15H37Z"/>
      <path id="Trazado_877768" data-name="Trazado 877768" d="M21,21H34v2H21Z"/>
      <path id="Trazado_877769" data-name="Trazado 877769" d="M32,25h2v2H32Z"/>
      <path id="Trazado_877770" data-name="Trazado 877770" d="M21,25h9v2H21Z"/>
      <path id="Trazado_877771" data-name="Trazado 877771" d="M21,29H34v2H21Z"/>
      <path id="Trazado_877772" data-name="Trazado 877772" d="M21,33H32v2H21Z"/>
      <path id="Trazado_877773" data-name="Trazado 877773" d="M21,37H32v2H21Z"/>
    </g>
  </g>
</svg>
