<svg xmlns="http://www.w3.org/2000/svg" width="81.504" height="92.172" viewBox="0 0 81.504 92.172">
  <g id="Grupo_1189682" data-name="Grupo 1189682" transform="translate(-0.051 8)">
    <g id="Grupo_1188468" data-name="Grupo 1188468" transform="translate(0 1.548)">
      <path id="Rectángulo_402603" data-name="Rectángulo 402603" d="M81.5,0h0a0,0,0,0,1,0,0V82.172a0,0,0,0,1,0,0H0a0,0,0,0,1,0,0V81.5A81.5,81.5,0,0,1,81.5,0Z" transform="translate(0.051 0.452)" fill="#26c790"/>
      <g id="Grupo_1189727" data-name="Grupo 1189727" transform="translate(1.659 6.42)">
        <path id="Trazado_877748" data-name="Trazado 877748" d="M154.273,57.393v2.013a.885.885,0,0,0,1.771,0V57.393a.885.885,0,1,0-1.771,0Zm0,0" transform="translate(-136.061 -49.837)"/>
        <path id="Trazado_877749" data-name="Trazado 877749" d="M344.5,59.407V57.393a.885.885,0,1,0-1.771,0v2.013a.885.885,0,1,0,1.771,0Zm0,0" transform="translate(-302.267 -49.837)"/>
        <path id="Trazado_877750" data-name="Trazado 877750" d="M230.953,72.677a2.825,2.825,0,0,1-4.158,0,.885.885,0,0,0-1.333,1.166,4.6,4.6,0,0,0,6.824,0,.885.885,0,0,0-1.333-1.165Zm0,0" transform="translate(-198.653 -63.83)"/>
        <path id="Trazado_877751" data-name="Trazado 877751" d="M247.392,347.655a1.331,1.331,0,1,1-1.33-1.331A1.331,1.331,0,0,1,247.392,347.655Zm0,0" transform="translate(-215.839 -305.44)"/>
        <path id="Trazado_877752" data-name="Trazado 877752" d="M56.059,15.145,52.134,4.551A7,7,0,0,0,45.6,0H40.825a.885.885,0,0,0,0,1.771H45.6a5.222,5.222,0,0,1,4.878,3.395L54.155,15.1H6.288L9.969,5.166a5.222,5.222,0,0,1,4.878-3.395H37.283a.885.885,0,0,0,0-1.771H14.847A7,7,0,0,0,8.309,4.551L4.384,15.145a5.015,5.015,0,0,0-.138,9.931L8.76,54.681c0,.007,0,.014,0,.022a6.7,6.7,0,0,0,6.6,5.532H45.075a6.7,6.7,0,0,0,6.6-5.532c0-.007,0-.014,0-.022L56.2,25.076a5.015,5.015,0,0,0-.138-9.931Zm-.631,8.219H18.513a.885.885,0,0,0,0,1.771H54.4L49.934,54.4a4.932,4.932,0,0,1-4.859,4.061H15.368a4.932,4.932,0,0,1-4.86-4.061L6.046,25.135h8.925a.885.885,0,1,0,0-1.771H5.015a3.245,3.245,0,0,1,0-6.489H55.427a3.245,3.245,0,0,1,0,6.489Zm0,0"/>
        <path id="Trazado_877753" data-name="Trazado 877753" d="M128.645,253.972a1.194,1.194,0,0,0,.869.375,1.161,1.161,0,0,0,1.075-.706,4.938,4.938,0,0,1,2.067-2.308,4.853,4.853,0,0,1,2.018-.623c0,.046,0,.092,0,.138a8.737,8.737,0,0,0,4.533,7.658,4.809,4.809,0,0,1-1.567,1.451,4.984,4.984,0,0,1-3.033.637,1.178,1.178,0,0,0-.649,2.229,10.089,10.089,0,0,0,9.448-.286,10.087,10.087,0,0,0,4.984,1.323,10.191,10.191,0,0,0,4.464-1.037,1.173,1.173,0,0,0,.629-1.323,1.19,1.19,0,0,0-1.278-.905,5,5,0,0,1-3.034-.637A4.837,4.837,0,0,1,147.6,258.5a8.7,8.7,0,0,0,4.533-7.654c0-.048,0-.1,0-.143a4.863,4.863,0,0,1,2.015.628,4.939,4.939,0,0,1,2.069,2.31,1.161,1.161,0,0,0,1.075.706,1.191,1.191,0,0,0,.869-.375,1.166,1.166,0,0,0,.311-.884,10.09,10.09,0,0,0-4.984-8.048v-.026a10.088,10.088,0,0,0-4.477-8.39,1.19,1.19,0,0,0-1.712.45,1.169,1.169,0,0,0,.106,1.226,4.978,4.978,0,0,1,.493,5.063,8.723,8.723,0,0,0-9.01.007,5,5,0,0,1-.475-2.125,4.936,4.936,0,0,1,.965-2.945,1.169,1.169,0,0,0,.106-1.226,1.19,1.19,0,0,0-1.711-.45,10.089,10.089,0,0,0-4.477,8.39v.04a10.089,10.089,0,0,0-4.96,8.033A1.166,1.166,0,0,0,128.645,253.972Zm7.8-3.1a4.868,4.868,0,0,1,3.5,6l-.005.019a6.982,6.982,0,0,1-3.495-6.017Zm10.425,6.014a4.988,4.988,0,0,1,1.051-4.521A5.058,5.058,0,0,1,149.939,251c.14-.051.282-.1.427-.136A6.937,6.937,0,0,1,146.867,256.885Zm0-12.077a4.962,4.962,0,0,1-6.94.008,6.964,6.964,0,0,1,6.94-.008Zm-12.615,1.741c.117-.068.233-.131.356-.194a.885.885,0,0,0,.477-.841c-.01-.168-.015-.336-.015-.5a8.317,8.317,0,0,1,1.695-5.037,6.751,6.751,0,0,0,5.8,7.968,6.63,6.63,0,0,0,1.631,0,6.828,6.828,0,0,0,5.131-3.481,6.774,6.774,0,0,0,.7-4.486,8.311,8.311,0,0,1,1.694,5.035c0,.165,0,.33-.014.491a.886.886,0,0,0,.478.838c.124.064.249.131.378.206a8.312,8.312,0,0,1,3.514,3.986,6.745,6.745,0,1,0-6.631,11.485,8.336,8.336,0,0,1-5.213-1.051c-.107-.061-.221-.131-.349-.213a.885.885,0,0,0-.959,0c-.123.08-.236.148-.349.213a8.334,8.334,0,0,1-5.209,1.05,6.809,6.809,0,0,0,1.157-.53,6.734,6.734,0,0,0-3.432-12.572,6.711,6.711,0,0,0-4.356,1.615A8.313,8.313,0,0,1,134.247,246.549Zm0,0" transform="translate(-113.182 -208.518)"/>
      </g>
    </g>
    <path id="Trazado_874774" data-name="Trazado 874774" d="M8.681,0c.058,0,.116,0,.174.005A2.92,2.92,0,0,1,10.6.742a2.539,2.539,0,0,1,.893,1.9,12.068,12.068,0,0,1,.075,1.714V6.111H15.15a2.259,2.259,0,0,1,1.982,1.015,3.141,3.141,0,0,1,.5,1.726,2.963,2.963,0,0,1-.524,1.721,2.248,2.248,0,0,1-1.961.947H11.564v1.9a14.322,14.322,0,0,1-.074,1.846,2.308,2.308,0,0,1-.969,1.9,2.923,2.923,0,0,1-3.467,0,2.323,2.323,0,0,1-.971-1.988V11.519H2.789A2.719,2.719,0,0,1,.6,10.656,2.475,2.475,0,0,1,.019,8.724,3.176,3.176,0,0,1,.787,7.005a2.554,2.554,0,0,1,2-.894H6.082V2.744A2.529,2.529,0,0,1,7.053.536,2.757,2.757,0,0,1,8.681,0Zm6.612,8.316A.523.523,0,0,0,15.15,8.3H9.374V4.353a9.5,9.5,0,0,0-.052-1.394L9.3,2.853V2.744a.374.374,0,0,0-.13-.339.744.744,0,0,0-.453-.214H8.681a.568.568,0,0,0-.343.12.989.989,0,0,0-.066.434V8.3H2.789a.374.374,0,0,0-.339.13,1,1,0,0,0-.256.549.294.294,0,0,0,.077.262,1.015,1.015,0,0,0,.517.088H8.272v5.849c0,.168.035.193.053.206a.737.737,0,0,0,.921,0c.019-.013.053-.038.053-.206v-.091L9.315,15a11.777,11.777,0,0,0,.058-1.575V9.329H15.15a.6.6,0,0,0,.17-.018.8.8,0,0,0,.124-.459A.958.958,0,0,0,15.293,8.316Z" transform="translate(45.075 4.027) rotate(-43)" fill="#1944b6"/>
  </g>
</svg>
