<svg xmlns="http://www.w3.org/2000/svg" xmlns:xlink="http://www.w3.org/1999/xlink" width="420" height="318.233" viewBox="0 0 420 318.233">
  <defs>
    <linearGradient id="linear-gradient" x1="0.723" y1="3.367" x2="0.184" y2="2.251" gradientUnits="objectBoundingBox">
      <stop offset="0" stop-color="#110404"/>
      <stop offset="1" stop-color="#250805"/>
    </linearGradient>
    <linearGradient id="linear-gradient-2" x1="0.892" y1="-1.481" x2="0.104" y2="-2.211" gradientUnits="objectBoundingBox">
      <stop offset="0" stop-color="#df6a37"/>
      <stop offset="1" stop-color="#e78949"/>
    </linearGradient>
  </defs>
  <g id="Grupo_1188579" data-name="Grupo 1188579" transform="translate(-181.73 -2354)">
    <rect id="Rectángulo_35205" data-name="Rectángulo 35205" width="420" height="318.233" transform="translate(181.73 2354)" fill="#fedba6"/>
    <g id="Grupo_1188578" data-name="Grupo 1188578" transform="translate(207.168 2330.086)">
      <path id="Trazado_874877" data-name="Trazado 874877" d="M380.976,448.969a41.268,41.268,0,0,1,5.652-2.955l-.14.672C385.136,447.536,382.6,449.107,380.976,448.969Z" transform="translate(-238.148 -285.919)" fill="#467265"/>
      <path id="Trazado_874878" data-name="Trazado 874878" d="M528.3,461.043c.142-.424.148-.657.516-.924,3.558,2.054,6.778,4.763,10.339,6.868a16.921,16.921,0,0,1-.523,2.331C535.372,466.375,531.293,464.242,528.3,461.043Z" transform="translate(-340.611 -295.73)" fill="#304c54"/>
      <path id="Trazado_874879" data-name="Trazado 874879" d="M364.925,450.5c1.627.138,4.16-1.432,5.513-2.283a10.4,10.4,0,0,0-.069,1.365l-11.176,7.166c-.4-.89-.846-1.755-1.3-2.623C360.292,453.071,362.468,451.4,364.925,450.5Z" transform="translate(-222.097 -287.454)" fill="#304c54"/>
      <path id="Trazado_874880" data-name="Trazado 874880" d="M525.386,463.153c2.994,3.2,7.073,5.332,10.331,8.275a13.678,13.678,0,0,1-1.621,3.4c-3.329-3.107-6.808-6.058-9.985-9.324l.065-.135A16.248,16.248,0,0,0,525.386,463.153Z" transform="translate(-337.698 -297.84)" fill="#273b49"/>
      <path id="Trazado_874881" data-name="Trazado 874881" d="M362.151,459.869l11.176-7.166c.181.552.339,1.126.565,1.66.312.542.611,1.1.955,1.622-3.289,2.94-6.473,6.018-9.918,8.778l-.658-.576a16.007,16.007,0,0,1-.771-1.495C363.11,461.735,362.6,460.8,362.151,459.869Z" transform="translate(-225.055 -290.572)" fill="#467265"/>
      <path id="Trazado_874882" data-name="Trazado 874882" d="M376.974,458.154c.312.542.611,1.1.955,1.622-3.289,2.94-6.473,6.018-9.918,8.779l-.658-.576a16,16,0,0,1-.771-1.494C369.9,463.535,373.73,461.2,376.974,458.154Z" transform="translate(-228.137 -294.363)" fill="#304c54"/>
      <path id="Trazado_874883" data-name="Trazado 874883" d="M599.919,275.937c1.773,1.292,3.406,2.957,3.721,5.236a6.367,6.367,0,0,1-1.434,4.8,6.561,6.561,0,0,1-4.573,2.318,8.768,8.768,0,0,1-2.987-.268c1.434-3.756,2.618-7.689,3.75-11.546a.793.793,0,0,1,.329-.137A8.345,8.345,0,0,0,599.919,275.937Z" transform="translate(-386.755 -167.631)" fill="#070101"/>
      <path id="Trazado_874884" data-name="Trazado 874884" d="M909.958,597.482c5.281-.536,10.954,2.334,15.2,5.242-.649-.252-1.3-.5-1.955-.734-6.989-2.432-15.067-.088-21.454,3.012a39.208,39.208,0,0,0-10.094,7.486c.031-.048.061-.1.094-.144a52.152,52.152,0,0,1,4.116-4.779C899.838,603.108,903.751,598.529,909.958,597.482Z" transform="translate(-593.324 -391.22)" fill="#f99d16"/>
      <path id="Trazado_874885" data-name="Trazado 874885" d="M696.686,945.759c2.687,1.042,5.042,3.9,6.17,6.479a17.121,17.121,0,0,1,1.185,4.566c-1.729,0-14.671.247-15.479-.659a1.711,1.711,0,0,1-.113-.163A33.319,33.319,0,0,1,696.686,945.759Z" transform="translate(-451.994 -633.491)" fill="#070101"/>
      <path id="Trazado_874886" data-name="Trazado 874886" d="M63.212,313.784a43.4,43.4,0,0,1,21.15,15.344,63.144,63.144,0,0,1,4.644,7.624,16.177,16.177,0,0,1-2.158-2.33,22.051,22.051,0,0,0-3.938-3.4c-2.6-1.736-5.406-2.609-8.213-3.906C69.452,324.694,65.751,318.721,63.212,313.784Z" transform="translate(-17.144 -193.954)" fill="#f99d16"/>
      <path id="Trazado_874887" data-name="Trazado 874887" d="M583.532,972.661c1.036.119,1.612,1.024,2.5,1.41,2.978,2.564,4.975,5.527,5.292,9.509l.032.454c-4.8,0-13.336.493-17.793-.917C577.135,978.205,578.424,976.255,583.532,972.661Z" transform="translate(-372.091 -652.202)" fill="#070101"/>
      <path id="Trazado_874888" data-name="Trazado 874888" d="M801.908,393.824a26.294,26.294,0,0,1,16.723,2.55c2.538,1.275,4.934,2.817,7.477,4.082a65.436,65.436,0,0,0,8.367,3.291,20.192,20.192,0,0,1-2.516.922c-.858-.16-1.766-.166-2.636-.262a40.244,40.244,0,0,1-6-1.073c-6.568-1.76-12.467-4.894-19.4-5.225C803.326,396.645,802.591,395.25,801.908,393.824Z" transform="translate(-530.906 -249.32)" fill="#fdfbfb"/>
      <path id="Trazado_874889" data-name="Trazado 874889" d="M808.546,408.886c6.931.331,12.829,3.465,19.4,5.225a40.238,40.238,0,0,0,6,1.073c.871.1,1.779.1,2.636.262-6.7,3.534-17.768,5.2-25.077,3C810.624,415.222,809.52,412.08,808.546,408.886Z" transform="translate(-535.522 -260.097)" fill="#a291b1"/>
      <path id="Trazado_874890" data-name="Trazado 874890" d="M350.937,939.749a4.841,4.841,0,0,0,.139,1.565c.333,2.427.931,4.935,3.008,6.491,2.446,1.833,6.235,1.921,9.1,2.762a2.1,2.1,0,0,1-1.04.2c-2.431.071-4.87.007-7.3.048l-28.8.29c-2.7.016-11.742.447-13.591-.1-1.234-.366-1.838-1.554-2.389-2.609C321.789,947.968,340.165,944.37,350.937,939.749Z" transform="translate(-188.827 -629.312)" fill="#1c1c35"/>
      <path id="Trazado_874891" data-name="Trazado 874891" d="M732.2,802.631c2.129,3.479,4.4,6.859,6.583,10.306,2.35,3.718,4.6,7.5,6.93,11.229,1.65,2.649,4.349,6.5,5.628,9.155,4.387,7.057,9,13.982,13.249,21.124,1,1.684,2.4,3.293,3.219,5.057a3.31,3.31,0,0,1,.3,2.243,3.832,3.832,0,0,1-1.793,2.2,2.52,2.52,0,0,1-1.986.365,5.578,5.578,0,0,1-2.334-1.945,85.338,85.338,0,0,1-5.347-8.807l-7.86-13.3a33.53,33.53,0,0,0-3.513-5.511c-.273-1.345-15.148-25.419-17-28.4Z" transform="translate(-479.694 -533.946)" fill="#601a05"/>
      <path id="Trazado_874892" data-name="Trazado 874892" d="M846.588,681.694c.052-.085.107-.168.157-.254,1.245-2.1,1.758-4.88,2.564-7.179,4.068-11.6,8.092-25.507,21.423-29.283a13.817,13.817,0,0,1,10.878,1.094c2.112,1.182,4.3,3.084,4.989,5.484a5.563,5.563,0,0,1-.464,4.186,6.479,6.479,0,0,1-4.279,2.832c-2.927.735-6.067.729-9.05,1.226-9.363,1.561-16.149,7.108-21.011,15.117-1.789,2.947-2.884,6.038-4.375,9.109C847.113,683.267,846.863,682.468,846.588,681.694Z" transform="translate(-561.981 -423.861)" fill="#f99d16"/>
      <path id="Trazado_874893" data-name="Trazado 874893" d="M832.248,603.016c.922-6.832,3.343-18.994,9.031-23.284a7.048,7.048,0,0,1,5.367-1.43,6.377,6.377,0,0,1,4.486,2.359c1.28,1.823,1.1,4.308.675,6.387-.843,4.09-3.032,8.051-4.7,11.856-1.088,2.473-2.007,5.031-2.937,7.567a196.635,196.635,0,0,0-6.288,21.01c-.583,2.392-1.021,4.814-1.592,7.208l-2.005-6.271a93.257,93.257,0,0,1,1.121-9.737c.85-5.475,2-10.143-2.073-14.61A13.9,13.9,0,0,0,832.248,603.016Z" transform="translate(-552.007 -377.874)" fill="#f99d16"/>
      <path id="Trazado_874894" data-name="Trazado 874894" d="M566.066,106.469c.754.185,1.518.3,2.284.416a113.554,113.554,0,0,1,27.952,8.389,26.042,26.042,0,0,1,4.688,2.344l.8.367c-1.885.915-4.543,1.122-6.6,1.572l-12.837,2.866a84.1,84.1,0,0,0-10.08,2.509l-.8-.24a125.516,125.516,0,0,0-15.484-3.513c-2.071-.317-4.167-.5-6.245-.767a56.721,56.721,0,0,1,4.581-3.985C558.23,113.155,562.393,109.987,566.066,106.469Z" transform="translate(-355.525 -49.766)" fill="#b35f01"/>
      <path id="Trazado_874895" data-name="Trazado 874895" d="M650.621,143.082l.8.367c-1.885.915-4.543,1.122-6.6,1.572l-12.837,2.866A84.087,84.087,0,0,0,621.9,150.4l-.8-.24a.161.161,0,0,1,.012-.062.685.685,0,0,1,.173-.22C622.155,149.316,647.174,143.83,650.621,143.082Z" transform="translate(-405.155 -75.231)" fill="#f99d16"/>
      <path id="Trazado_874896" data-name="Trazado 874896" d="M253.793,173.31c3.888.373,7.786,1.049,11.645,1.643,9.286,1.43,19.129,3.047,28,6.2l.03.857c.125.875.233,1.755.41,2.621a9.134,9.134,0,0,0-7.315-.632,5.867,5.867,0,0,0-3.522,3.05,4.925,4.925,0,0,0-.087,3.911,7.29,7.29,0,0,0,3.3,3.484,7.966,7.966,0,0,0-1.174,2.379,9.8,9.8,0,0,0-3.011,1.065c-8.4-1.826-17.558-6.007-23.814-11.976-2.3-2.2-5.792-5.953-5.788-9.375a3.888,3.888,0,0,1,1.12-2.755Z" transform="translate(-148.773 -96.254)" fill="#b35f01"/>
      <path id="Trazado_874897" data-name="Trazado 874897" d="M256.35,173.31c3.888.373,7.785,1.049,11.645,1.643,9.286,1.43,19.129,3.047,28,6.2l.03.857a71.175,71.175,0,0,0-7.346-2.2c-6.4-1.7-12.818-2.908-19.339-4.038-4.372-.758-8.764-1.642-13.193-1.985Z" transform="translate(-151.33 -96.254)" fill="#f99d16"/>
      <path id="Trazado_874898" data-name="Trazado 874898" d="M444.8,922.346a92.611,92.611,0,0,0,15.07-7.452,30.982,30.982,0,0,1-.577,7.7c11.953,1.3,24.349,3.337,34.658,9.892-5.108,3.594-6.4,5.544-9.971,10.456-3.166-.856-6.175-2.792-9.216-4.072a105.178,105.178,0,0,0-17.9-5.587c-2.867-.841-6.656-.93-9.1-2.762-2.077-1.556-2.674-4.064-3.008-6.491Z" transform="translate(-282.507 -612.025)" fill="#f6e3c3"/>
      <path id="Trazado_874899" data-name="Trazado 874899" d="M513.943,874.891a44.378,44.378,0,0,1,7.271-2.772c-1.158,4.795-1.839,15.1.344,19.437a85.8,85.8,0,0,1,16.106,5.965c4.224,2.167,8.16,4.779,12.581,6.574a46.782,46.782,0,0,1-6.025.1c-4.843,0-9.738-.176-14.576-.052-.886-.386-1.462-1.292-2.5-1.41-10.309-6.555-22.7-8.593-34.658-9.892a30.979,30.979,0,0,0,.577-7.7l.4-.531a11.507,11.507,0,0,0,2.257.8,19.653,19.653,0,0,0,2.148-1.707c1.9-1.7,5.01-2.135,7.287-3.354C508.176,878.738,511.073,876.753,513.943,874.891Z" transform="translate(-315.704 -582.275)" fill="#1c1c35"/>
      <path id="Trazado_874900" data-name="Trazado 874900" d="M584.349,860.349c1.659-.667,3.448-1.141,5.158-1.673l11.578-3.48c-.433,2.268-.913,4.52-1.424,6.772a37.625,37.625,0,0,0-2.022,11.474,77.554,77.554,0,0,1,20.136,6.173c1.97.935,3.779,2.273,5.755,3.157a33.321,33.321,0,0,0-8.238,10.222,5.816,5.816,0,0,0-1.913-.669c-4.421-1.8-8.357-4.408-12.581-6.575a85.8,85.8,0,0,0-16.106-5.965C582.51,875.447,583.191,865.144,584.349,860.349Z" transform="translate(-378.84 -570.505)" fill="#c87f91"/>
      <path id="Trazado_874901" data-name="Trazado 874901" d="M638.538,827.128c10.641-2.685,17.64-5.471,26.335-12.289,1.85,2.982,16.726,27.057,17,28.4a34.18,34.18,0,0,1-5.728,1.167c-10.818,1.351-21.5-1.295-31.221-5.968a42.947,42.947,0,0,1-7.807-4.54C637.625,831.648,638.1,829.4,638.538,827.128Z" transform="translate(-416.292 -542.437)" fill="#467265"/>
      <path id="Trazado_874902" data-name="Trazado 874902" d="M729.687,603.065A167.357,167.357,0,0,1,750.346,633.3c2.2,4.068,4.052,8.327,6.239,12.391l2.005,6.271c.105.335.192.7.328,1.018.275.774.525,1.573.833,2.333.261,1.1.569,2.2.767,3.306a32.767,32.767,0,0,1-2.438-3.788,27.665,27.665,0,0,0-4.579-4.973c-.045-.042-.088-.086-.132-.129-6.852-4.359-14.1-5.135-21.951-3.539a12.013,12.013,0,0,0-.784-2.038,3.294,3.294,0,0,0-2.561-.908c-1.574.157-2.781,1.692-3.759,2.8l-.7-.172a31.926,31.926,0,0,0,2.315-2.931c1.014-1.492,1.891-3.222,1.49-5.077a2.486,2.486,0,0,0-1.139-1.662c-1.457-.882-3.347-.627-4.924-.3l-.8.806-.021-.2a10.138,10.138,0,0,0,2.33-2.895,3.2,3.2,0,0,0-.233-2.506,2.808,2.808,0,0,0,.214-.3c.878-1.4,3.236-5.646,2.917-7.188-.218-.092-.422-.186-.634-.294.125-1.069,1.394-3.426,1.793-4.572.334-.958.9-2.466.389-3.427-.47-.889-.977-.291-1.726-.548.674-1.97,1.847-3.868,2.679-5.8-.466-.285-.9-.627-1.346-.948a8.347,8.347,0,0,0,.373-1.226C727.493,605.953,729.151,603.867,729.687,603.065Z" transform="translate(-474.311 -395.148)" fill="#304c54"/>
      <path id="Trazado_874903" data-name="Trazado 874903" d="M741.877,615.341a2.121,2.121,0,0,1,1.355.36,2.958,2.958,0,0,1-.383,1.814c-.466-.285-.9-.627-1.346-.948A8.36,8.36,0,0,0,741.877,615.341Z" transform="translate(-488.895 -403.686)" fill="#b19ea5"/>
      <path id="Trazado_874904" data-name="Trazado 874904" d="M753.7,733.738c3.573-2.122,8.1-2.273,12.047-1.264,3.247.83,8.83,3.684,10.577,6.645.038.065.073.131.11.2-6.852-4.359-14.1-5.135-21.951-3.539A12.018,12.018,0,0,0,753.7,733.738Z" transform="translate(-497.379 -484.733)" fill="#070101"/>
      <path id="Trazado_874905" data-name="Trazado 874905" d="M647.864,144.286c4.212,2.254,12.785,7.3,14.656,11.708a9.788,9.788,0,0,1-1.167,3.183c-2.42,4-9.209,8.877-13.26,11.463-8.026,5.123-17.482,9.051-27.007,10.044a16.962,16.962,0,0,1-5.095.067c1.607-4.227,2.955-8.52,4.3-12.836a9.038,9.038,0,0,0,1.865-1.319,8.479,8.479,0,0,0,2.685-5.895,8.428,8.428,0,0,0,2.506-1.965,3.483,3.483,0,0,0,.674-2.846l-.414-.714c-2.316-2.021-6.365-2.994-9.26-3.944a84.1,84.1,0,0,1,10.08-2.509l12.837-2.866C643.322,145.408,645.979,145.2,647.864,144.286Z" transform="translate(-401.601 -76.068)" fill="#b35f01"/>
      <path id="Trazado_874906" data-name="Trazado 874906" d="M721.974,181.793c2.108-.023,4.215.05,6.323.022,1.861-.025,3.733-.157,5.591-.028l.041.09c-3.761.766-10.492.464-14.478.357l.033-.28A11.005,11.005,0,0,1,721.974,181.793Z" transform="translate(-473.557 -102.111)" fill="#ecc35d"/>
      <path id="Trazado_874907" data-name="Trazado 874907" d="M654.132,179.822c1.545-.325,8.951.232,11.237.287,3.343.08,8.005-.146,11.176.286a11,11,0,0,0-2.49.161l-.033.28c-6.492-.056-12.982-.381-19.476-.3Z" transform="translate(-428.128 -100.713)" fill="#f99d16"/>
      <path id="Trazado_874908" data-name="Trazado 874908" d="M76.666,480.9a44.228,44.228,0,0,1-.149-5.183l-.058-8.32a203.6,203.6,0,0,0-1.47-24.189c-2.065-15.367-7.4-19.579-20.652-25.638a49.431,49.431,0,0,1-9.851-5.355,14.571,14.571,0,0,1-5.837-9.837,10.248,10.248,0,0,1,1.848-7.534c2.011-2.488,5.413-3.79,8.511-4.143,5.016-.571,10.389,1.549,14.26,4.655,11.4,9.144,14.344,27.415,15.868,41.121.521,4.689,1,9.4,1.185,14.114.131,3.392.2,6.794.2,10.189a56.372,56.372,0,0,0,.072,6.341c.007.055.014.111.022.166-.842,2.511-1.685,5.021-2.394,7.573C77.668,476.867,77.231,478.907,76.666,480.9Z" transform="translate(0 -247.388)" fill="#f99d16"/>
      <path id="Trazado_874909" data-name="Trazado 874909" d="M742.759,742.949c7.85-1.6,15.1-.821,21.951,3.539.044.043.087.087.132.129a27.661,27.661,0,0,1,4.579,4.973,32.8,32.8,0,0,0,2.438,3.788c2.37,8.087,2.257,16.965-1.857,24.493-3.055,5.589-7.223,8.494-12.706,11.409-1.279-2.658-3.979-6.505-5.628-9.155-2.325-3.734-4.58-7.51-6.93-11.229-2.178-3.447-4.454-6.827-6.583-10.306,1.522-1.542,4.063-3.995,4.178-6.313a2.808,2.808,0,0,0-.744-2.124,2.728,2.728,0,0,0-2.1-.747,2.765,2.765,0,0,0-2.232,1.256l-.42-.383a15.924,15.924,0,0,1,1.515-1.683C740.568,748.232,742.406,746.321,742.759,742.949Z" transform="translate(-485.651 -491.905)" fill="#467265"/>
      <path id="Trazado_874910" data-name="Trazado 874910" d="M309.038,43.877q8.432,9.373,17.121,18.533c-4.6.407-9.193,1.016-13.795,1.4,5.771,3,11.323,6.1,16.862,9.513,1.513.932,3.233,1.769,4.655,2.816.078.276.1.164.04.337l-.96.019c-3.359.319-6.718.527-10.059,1.026a94.092,94.092,0,0,0-20.071,5.625c-1.748.678-4.637,1.523-5.852,2.972-.817.975-.564,3.736-.522,5.007-8.872-3.15-18.715-4.767-28-6.2-3.859-.594-7.757-1.27-11.645-1.643a11.972,11.972,0,0,0,1.205-1.166,27.487,27.487,0,0,1,3.321-2.767C271.431,72.5,284.769,67.737,296.8,65.966l6.505-11.64C305.217,50.848,307.054,47.314,309.038,43.877Z" transform="translate(-151.792 -6.234)" fill="#b35f01"/>
      <path id="Trazado_874911" data-name="Trazado 874911" d="M400.371,43.877Q408.8,53.25,417.492,62.41c-4.6.407-9.193,1.016-13.795,1.4,5.771,3,11.323,6.1,16.862,9.513,1.513.932,3.233,1.769,4.655,2.816.078.276.1.164.04.337l-.96.019c-1.529-1.146-3.243-2.118-4.866-3.129-3.25-2.023-6.5-4-9.838-5.877-2.055-1.159-4.243-2.235-6.185-3.574-3.371.258-6.751.818-10.091,1.338a42.274,42.274,0,0,1-5.181.709l6.505-11.64C396.55,50.848,398.387,47.314,400.371,43.877Z" transform="translate(-243.125 -6.234)" fill="#f99d16"/>
      <path id="Trazado_874912" data-name="Trazado 874912" d="M468.623,35.177l4.811-.263c.378.79.787,1.579,1.121,2.388,3.192,6.564,6.074,13.3,9.35,19.816-.766-.119-1.53-.231-2.284-.416-3.673,3.518-7.836,6.686-11.743,9.957a56.728,56.728,0,0,0-4.581,3.985l-.9-.079c-3.74-.267-7.437-.324-11.185-.32.055-.173.038-.061-.04-.337-1.422-1.047-3.142-1.884-4.655-2.816-5.539-3.411-11.091-6.513-16.862-9.513,4.6-.388,9.19-1,13.795-1.4q-8.687-9.138-17.121-18.533a7.066,7.066,0,0,1,.732-1.168c3.7-.018,7.43-.294,11.124-.467,2.537.016,5.119-.091,7.653-.227,2.082-.168,4.2-.173,6.286-.243l6.169-.172C463.048,35.169,465.857,35.217,468.623,35.177Z" transform="translate(-271.079)" fill="#e17f3e"/>
      <path id="Trazado_874913" data-name="Trazado 874913" d="M468.237,101.883c6.292.044,14.615.067,20.679,1.351a7.594,7.594,0,0,0-1.656,1.04c-3.158,2.46-6.13,5.194-9.209,7.755-1.57,1.306-4.867,3.692-6.061,5.114-3.74-.267-7.437-.324-11.185-.32.055-.173.038-.061-.04-.337-1.422-1.047-3.142-1.884-4.655-2.816-5.539-3.411-11.091-6.513-16.862-9.513,4.6-.388,9.19-1,13.795-1.4,4.83-.494,9.733-.766,14.585-.85-1.614,3.065-2.867,6.343-4.2,9.538a27.438,27.438,0,0,0-1.974,5.151l.1.21a2.7,2.7,0,0,0,.9-1.169c.548-1.072.889-2.267,1.338-3.383C465.1,109.02,466.621,104.906,468.237,101.883Z" transform="translate(-278.677 -46.577)" fill="#b35f01"/>
      <path id="Trazado_874914" data-name="Trazado 874914" d="M391.682,150.948c3.748,0,7.445.053,11.185.32l.9.079c2.078.27,4.174.449,6.245.767a125.522,125.522,0,0,1,15.484,3.513l.8.24c2.9.949,6.944,1.923,9.26,3.944l.414.714a3.483,3.483,0,0,1-.674,2.846,8.43,8.43,0,0,1-2.506,1.965,8.479,8.479,0,0,1-2.685,5.895,9.039,9.039,0,0,1-1.865,1.319c-1.342,4.315-2.69,8.609-4.3,12.836-.417,1.2-.894,2.4-1.226,3.623a8.347,8.347,0,0,1-1.195.4.794.794,0,0,0-.329.137l3.755-12.451c.812-2.733,1.545-5.513,2.487-8.2-4.641.2-8.913-.752-12.433-3.969a10.479,10.479,0,0,1-2.877-4.3c-3.932,3.174-7.929,5.123-13.113,4.568a17.3,17.3,0,0,1-11.565-6.485,27.3,27.3,0,0,1-2.359-3.616c-1.008,3.11-2.418,5.839-5.44,7.406-2.8,1.453-5.557,1.241-8.482.331.912,1.649,1.65,3.45,1.12,5.366a4.705,4.705,0,0,1-2.437,2.891,11.416,11.416,0,0,1-1.581.59c-.935,4.043-1.979,8.036-3.1,12.031-1.605-3.152-3.519-6.7-7.137-7.823a7.624,7.624,0,0,0-5.862.5,8.291,8.291,0,0,0-3.763,5.172,11.045,11.045,0,0,0,1.462,8.573,13.76,13.76,0,0,0,8.061,6.261,10.456,10.456,0,0,0,5.41-.215c.02,2.763.337,5.729.1,8.463-.135,1.021-.3,2.047-.35,3.075-.61,3.652-1.152,7.316-1.7,10.978a14.909,14.909,0,0,1-3.847-.845,6.6,6.6,0,0,1-3.7-3.515,5.427,5.427,0,0,1,.441-4.464c-2.515-.218-4.693-.794-6.511-2.691a7.535,7.535,0,0,1-2.158-5.539c.164-2.685,1.8-4.518,3.7-6.208a9.713,9.713,0,0,1-2.684.3,6.7,6.7,0,0,1-4.669-2.324,7.838,7.838,0,0,1-2.094-5.758,7.591,7.591,0,0,1,2.974-5.3,9.8,9.8,0,0,1,3.011-1.065,7.966,7.966,0,0,1,1.174-2.379,7.29,7.29,0,0,1-3.3-3.484,4.925,4.925,0,0,1,.087-3.911,5.867,5.867,0,0,1,3.522-3.05,9.134,9.134,0,0,1,7.315.632c-.177-.866-.284-1.746-.41-2.621l-.03-.857c-.042-1.271-.3-4.032.522-5.007,1.215-1.449,4.1-2.294,5.852-2.972a94.092,94.092,0,0,1,20.071-5.625c3.34-.5,6.7-.707,10.059-1.026Z" transform="translate(-209.553 -80.701)" fill="url(#linear-gradient)"/>
      <path id="Trazado_874915" data-name="Trazado 874915" d="M165.907,397.575c-.184-3.342-.086-6.735-.17-10.085-.245-9.784-.5-19.546-1.483-29.291-.872-8.675-1.967-17.348-3.091-25.993-.718-5.523-1.848-11.26-1.759-16.836.07-4.441.858-9.208,3.41-12.944a14.005,14.005,0,0,1,8.836-6.212,12.006,12.006,0,0,1,9.14,2.031c4.952,3.437,7.221,9.472,8.246,15.188,2.011,11.21.443,30.517-5.605,40.353-2.24,3.643-5.737,6.138-8.137,9.633-4.034,5.875-4.343,13.816-3.1,20.652-.731,2.129-2.174,4.181-3.135,6.251C168,392.621,167.183,395.452,165.907,397.575Z" transform="translate(-84.041 -181.593)" fill="#f99d16"/>
      <path id="Trazado_874916" data-name="Trazado 874916" d="M620.17,360.209a3.541,3.541,0,0,1,1.206-2.139,1.928,1.928,0,0,1,1.453-.37,3.953,3.953,0,0,1,2.693,2.029c.037-.032.073-.065.11-.1.062-.053.125-.1.188-.157a3.708,3.708,0,0,1,2.41-1.083c1.019.136,1.356,1.051,1.927,1.764.81,1.011,1.486.069,2.537.244a2.11,2.11,0,0,1,1.4.841c.83,1.241,2.238,1.988,3.387,2.92a20.413,20.413,0,0,1,4.314,4.825c.683,1.427,1.418,2.821,2.021,4.285.974,3.194,2.078,6.336,2.953,9.561,1.137,4.159,2.069,8.685,3.719,12.663,1.076,2.594,2.8,4.913,3.776,7.538a8.529,8.529,0,0,1,.147,6.693,6.877,6.877,0,0,1-1.575,2.362l-.154.248c-.155.866-1.622,1.9-2.337,2.4a13.025,13.025,0,0,1-10.231,2.116,53.5,53.5,0,0,1-9.721-2.879c-4.877-1.888-9.873-3.25-14.409-5.949-4.52-2.689-7.711-5.877-9.021-11.053-1.421-5.611.251-8.725,3.063-13.447a37.587,37.587,0,0,1-8.1,3.4c-8.693,2.673-21.732.8-30.228-2.329,2.563-1.837,5.4-3.333,8.071-5.016,5.873-3.7,11.45-8.284,18.379-9.839,3.143-.705,6.613-.469,9.826-.536.006-.093.011-.186.018-.279a5.028,5.028,0,0,1,2.16-3.964l1.52-.238a5.068,5.068,0,0,1-.225-1.227,2.531,2.531,0,0,1,.605-1.8c.669-.579,1.96-.343,2.77-.281.608-.461.659-1.823,1.23-2.5a1.305,1.305,0,0,1,1.108-.5A5.476,5.476,0,0,1,620.17,360.209Z" transform="translate(-370.794 -224.483)" fill="#f6e3c3"/>
      <path id="Trazado_874917" data-name="Trazado 874917" d="M794.215,506.449a53.069,53.069,0,0,1,9.1-.422,18,18,0,0,1-2.915,4.016l.046,4.339,2.3.865-.154.248a12.128,12.128,0,0,1-2.814-.473,10.517,10.517,0,0,1-5.3,1.662c-3.156-.031-5.119-1.621-7.213-3.791.041-.227.005-.149.118-.338.026-.043.054-.084.081-.126l-.225-.037c1.381.685,1.727,2.2,4.207,3.1,2.816,1.016,5.352.078,7.89-1.152.068-1.383.1-2.766.133-4.15A15.807,15.807,0,0,1,794.215,506.449Z" transform="translate(-520.704 -327.641)" fill="#070101"/>
      <path id="Trazado_874918" data-name="Trazado 874918" d="M732.98,439.282a3.9,3.9,0,0,1,.358-1.049,3.1,3.1,0,0,1,1.9-1.539,5.362,5.362,0,0,1,4.039.668,4.213,4.213,0,0,1,2.089,2.466,2.836,2.836,0,0,1-.55,2.279,4.468,4.468,0,0,1-2.962,1.719,4.643,4.643,0,0,1-3.591-1.1,3.554,3.554,0,0,1-1.323-2.41A4.811,4.811,0,0,1,732.98,439.282Z" transform="translate(-482.927 -279.324)" fill="#070101"/>
      <path id="Trazado_874919" data-name="Trazado 874919" d="M733.11,439.282a3.9,3.9,0,0,1,.358-1.049,3.1,3.1,0,0,1,1.9-1.539,5.362,5.362,0,0,1,4.039.668c-.236.1-.259.145-.522.1-.347-.056-.851-.206-1.154.038a2.251,2.251,0,0,0-.318.344,2,2,0,0,1-.859,1.529,1.224,1.224,0,0,1-1.085.068,1.331,1.331,0,0,1-.552-.424l-.17.237-1.433.233Z" transform="translate(-483.057 -279.324)" fill="#070101"/>
      <path id="Trazado_874920" data-name="Trazado 874920" d="M739.025,440.328c0-.078-.006-.155,0-.233a1.752,1.752,0,0,1,.58-1.385,1.178,1.178,0,0,1,1-.275,1.614,1.614,0,0,1,.916.72,2,2,0,0,1-.859,1.529,1.223,1.223,0,0,1-1.085.068A1.331,1.331,0,0,1,739.025,440.328Z" transform="translate(-487.167 -280.634)" fill="#fdfbfb"/>
      <path id="Trazado_874921" data-name="Trazado 874921" d="M612.754,413.532c3.219-.31,6.532.435,9.737.707a11.441,11.441,0,0,1-2.919,4.082c-5.991,5.431-15.32,6.831-23.157,6.437a61.257,61.257,0,0,1-9.833-1.025,53.329,53.329,0,0,0,6.007-2.375C599.437,418.074,604.921,414.273,612.754,413.532Z" transform="translate(-381.147 -263.277)" fill="#f8896f"/>
      <path id="Trazado_874922" data-name="Trazado 874922" d="M493.051,717.225c1.364-3.176,2.4-6.493,3.758-9.676,1.61-3.769,3.729-7.529,4.868-11.464a21.8,21.8,0,0,0,.586-4.575c.241-3.751-.71-6.959-.533-10.459a2.179,2.179,0,0,1,.861-1.734,2.5,2.5,0,0,1,1.96-.581,7.41,7.41,0,0,1,4.8,3.123c2.576,3.524,3.557,9.257,3.478,13.538a43.132,43.132,0,0,1-.606,5.592c2.233-1.041,4.411-2.3,6.54-3.537a35.279,35.279,0,0,0,6.272-3.9,80.2,80.2,0,0,0,8.539-5.639l.255-.357a25.944,25.944,0,0,1,9.6-5.348c.275.046.549.094.825.131a4.97,4.97,0,0,1,2.76,1.383,3.2,3.2,0,0,1,.233,2.506,10.14,10.14,0,0,1-2.33,2.895l.021.2.8-.806c1.577-.325,3.467-.581,4.924.3a2.486,2.486,0,0,1,1.139,1.662c.4,1.855-.476,3.585-1.49,5.077A31.934,31.934,0,0,1,548,698.486l.7.172c.978-1.107,2.185-2.641,3.759-2.8a3.294,3.294,0,0,1,2.561.908,12,12,0,0,1,.784,2.038c-.353,3.372-2.191,5.283-4.4,7.647a15.931,15.931,0,0,0-1.515,1.683l.42.383a2.765,2.765,0,0,1,2.232-1.256,2.728,2.728,0,0,1,2.1.748,2.808,2.808,0,0,1,.744,2.124c-.115,2.319-2.657,4.772-4.178,6.313l-3.924,3.717c-8.7,6.818-15.694,9.6-26.335,12.289l-11.578,3.48c-1.709.532-3.5,1.006-5.158,1.673a44.376,44.376,0,0,0-7.271,2.772c-2.87,1.862-5.767,3.847-8.782,5.462-2.277,1.22-5.388,1.652-7.287,3.354a19.642,19.642,0,0,1-2.148,1.707,11.5,11.5,0,0,1-2.257-.8,23.672,23.672,0,0,1-2.943-3.022c-5.2-6.63-6.112-17.011-5.15-25.106a20.826,20.826,0,0,1,2.863.023,24.6,24.6,0,0,0,3.679-.025,18.581,18.581,0,0,1,2.77-.3c1.741-.2,3.456-.475,5.177-.8a53.087,53.087,0,0,0,10.2-3.642Z" transform="translate(-298.69 -447.762)" fill="url(#linear-gradient-2)"/>
      <path id="Trazado_874923" data-name="Trazado 874923" d="M675.754,775.336l.42.383c-5.8,7.373-17.728,15.1-27.164,16.287,2.457-1.237,5.132-2.142,7.65-3.268A56.284,56.284,0,0,0,675.754,775.336Z" transform="translate(-424.565 -514.963)" fill="#070101"/>
      <path id="Trazado_874924" data-name="Trazado 874924" d="M654.787,712.882l.021.2A87.942,87.942,0,0,1,631.037,731.3c-1.655.884-3.311,1.844-5.035,2.585,2.013-2.278,5.162-3.721,7.733-5.277,2.49-1.507,4.957-3.051,7.354-4.7A147.63,147.63,0,0,0,654.787,712.882Z" transform="translate(-408.563 -471.526)" fill="#070101"/>
      <path id="Trazado_874925" data-name="Trazado 874925" d="M666.531,743.646l.7.172c-8.054,8.6-17.182,15.609-28.773,18.658,2.686-1.625,5.737-2.762,8.52-4.248A81.378,81.378,0,0,0,666.531,743.646Z" transform="translate(-417.224 -492.922)" fill="#070101"/>
      <path id="Trazado_874926" data-name="Trazado 874926" d="M468.362,820.683a20.836,20.836,0,0,1,2.863.023,24.605,24.605,0,0,0,3.679-.025c.242.106.431.1.528.367a42.265,42.265,0,0,1,.833,5.212c1.073,5.849,3.456,14.025,8.141,17.921,1.887-.949,10.907-5.3,12.523-5.091-2.87,1.862-5.767,3.847-8.782,5.462-2.277,1.22-5.388,1.652-7.287,3.354a19.651,19.651,0,0,1-2.148,1.707,11.515,11.515,0,0,1-2.257-.8,23.676,23.676,0,0,1-2.943-3.022C468.314,839.159,467.4,828.778,468.362,820.683Z" transform="translate(-298.69 -546.473)" fill="#e17f3e"/>
      <path id="Trazado_874927" data-name="Trazado 874927" d="M468.362,820.683a20.836,20.836,0,0,1,2.863.023c-.533,7.852-.018,18.389,5.419,24.592a7.2,7.2,0,0,0,4.217,2.609,19.651,19.651,0,0,1-2.148,1.707,11.515,11.515,0,0,1-2.257-.8,23.676,23.676,0,0,1-2.943-3.022C468.314,839.159,467.4,828.778,468.362,820.683Z" transform="translate(-298.69 -546.473)" fill="#ecc35d"/>
      <path id="Trazado_874928" data-name="Trazado 874928" d="M389.962,172.281c2.925.91,5.68,1.122,8.482-.331,3.022-1.567,4.432-4.3,5.44-7.406a27.311,27.311,0,0,0,2.359,3.616,17.3,17.3,0,0,0,11.565,6.485c5.184.554,9.181-1.395,13.113-4.568a10.479,10.479,0,0,0,2.877,4.3c3.52,3.218,7.791,4.165,12.433,3.969-.942,2.691-1.675,5.471-2.487,8.2L439.988,199c-1.132,3.857-2.316,7.79-3.75,11.546-3.88,10.6-11.673,28.231-22.453,33.225a14.247,14.247,0,0,1-3.668,1.156l3.175,8.535c.5,1.387.941,2.88,1.533,4.226l-.065.135c-.445.455-.879.931-1.353,1.354-.533.435-1.06.882-1.6,1.306l-.15.048-1.072.754c-.518.3-1.031.629-1.572.891l-1.674.739-1.855.631-1.973.479c-.692.092-1.394.214-2.09.266-.875.066-1.749.139-2.626.165-1.068-.009-2.122-.044-3.186-.129-.755-.077-1.509-.2-2.261-.312-.639-.112-1.267-.263-1.9-.41a22.182,22.182,0,0,1-2.2-.628c-.539-.168-1.075-.417-1.6-.624l-1.7-.733-2.08-1.072-1.532-.962a17.61,17.61,0,0,0-1.56-1.249l-1.162-1.074-1.473-1.692c-.344-.523-.643-1.079-.955-1.622-.226-.534-.384-1.108-.565-1.66a10.4,10.4,0,0,1,.069-1.365l.14-.672c.91-7.4,2.267-14.741,3.366-22.112.55-3.662,1.091-7.325,1.7-10.978.053-1.029.215-2.054.35-3.075.233-2.734-.084-5.7-.1-8.463a10.456,10.456,0,0,1-5.41.215,13.761,13.761,0,0,1-8.061-6.261,11.044,11.044,0,0,1-1.462-8.573,8.291,8.291,0,0,1,3.763-5.172,7.625,7.625,0,0,1,5.862-.5c3.618,1.123,5.531,4.671,7.137,7.823,1.117-4,2.161-7.989,3.1-12.031a11.414,11.414,0,0,0,1.581-.59,4.7,4.7,0,0,0,2.437-2.891C391.612,175.731,390.874,173.93,389.962,172.281Z" transform="translate(-228.347 -90.157)" fill="#e17f3e"/>
      <path id="Trazado_874929" data-name="Trazado 874929" d="M486.645,346.889a4.39,4.39,0,0,1-1.09-.345,12.644,12.644,0,0,1-6.683-6.733l.356-.114-.036-.019a11.456,11.456,0,0,1,1.653,2.231,12.38,12.38,0,0,0,5.4,4.179,16.75,16.75,0,0,0,9.587.772,11.243,11.243,0,0,1,2.387-.653,1.014,1.014,0,0,1-.653.719c-2.8,1.248-7.891,1.416-10.682.082C486.8,346.97,486.723,346.928,486.645,346.889Z" transform="translate(-306.235 -211.963)" fill="#601a05"/>
      <path id="Trazado_874930" data-name="Trazado 874930" d="M563.7,232.548a8.267,8.267,0,0,1,4.342,1.1c3.6,1.962,5.235,4.806,6.385,8.624l-1.586-.924a39.167,39.167,0,0,0-3.994-1.835c-2.077-.832-6.245-1.816-7.311-3.983a1.432,1.432,0,0,1-.079-1.248A4.216,4.216,0,0,1,563.7,232.548Z" transform="translate(-363.596 -137.452)" fill="#070101"/>
      <path id="Trazado_874931" data-name="Trazado 874931" d="M386.952,252.373a4.623,4.623,0,0,1-1.877,1.431,4.2,4.2,0,0,1-3.415-.387,11.4,11.4,0,0,1-5.049-6.6,6.7,6.7,0,0,1,.422-5.146,5.881,5.881,0,0,1,3.915-2.485,43.8,43.8,0,0,0-.47,4.5c.7,1.463,2.2,3.848,1.634,5.466a8.83,8.83,0,0,0-.742,2.34c.171.335.193.342.53.514,1.112-.019,1.888-.787,2.757-1.392A4.531,4.531,0,0,1,386.952,252.373Z" transform="translate(-234.893 -142.074)" fill="#a3422f"/>
      <path id="Trazado_874932" data-name="Trazado 874932" d="M558.846,274.069a6.627,6.627,0,0,1,4.509-.168,3.016,3.016,0,0,1,1.672,1.807,9.7,9.7,0,0,1,.3,1.055,5.314,5.314,0,0,1-2.4,3.69,6.451,6.451,0,0,1-4.708.9,3.067,3.067,0,0,1-1.843-1.191,1.022,1.022,0,0,1-.041-.136c-.173-.127-.343-.251-.5-.394a3.206,3.206,0,0,1-1.165-2.34,2.932,2.932,0,0,1,.917-2.127A3.976,3.976,0,0,1,558.846,274.069Z" transform="translate(-358.955 -165.988)" fill="#fdfbfb"/>
      <path id="Trazado_874933" data-name="Trazado 874933" d="M556.342,281.145c-.173-.127-.343-.252-.5-.394a3.206,3.206,0,0,1-1.165-2.34,2.932,2.932,0,0,1,.917-2.127,3.976,3.976,0,0,1,3.255-1.1,4.291,4.291,0,0,1,1.778,3,3,3,0,0,1-.7,2.261,2.945,2.945,0,0,1-2.116.922A4.548,4.548,0,0,1,556.342,281.145Z" transform="translate(-358.955 -167.108)" fill="#070101"/>
      <path id="Trazado_874934" data-name="Trazado 874934" d="M563.2,277.761a1.888,1.888,0,0,1,1.149.369,1.362,1.362,0,0,1,.107.961,2.159,2.159,0,0,1-1.428-.33A1.391,1.391,0,0,1,563.2,277.761Z" transform="translate(-364.74 -168.9)" fill="#fdfbfb"/>
      <path id="Trazado_874935" data-name="Trazado 874935" d="M390.5,239.191a6.035,6.035,0,0,1,4.562,2,9.4,9.4,0,0,1,2.687,6.693,7.8,7.8,0,0,1-1.244,4.488,4.531,4.531,0,0,0-2.3-1.753c-.869.606-1.645,1.373-2.757,1.392-.337-.172-.36-.179-.53-.514a8.829,8.829,0,0,1,.742-2.34c.565-1.618-.932-4-1.634-5.466A43.8,43.8,0,0,1,390.5,239.191Z" transform="translate(-244.443 -142.074)" fill="#601a05"/>
      <path id="Trazado_874936" data-name="Trazado 874936" d="M461.921,212.406c2.084-.225,4.648-.278,6.417,1.008a3.19,3.19,0,0,1,1.377,1.989,1.385,1.385,0,0,1-.42,1.2c-1.763,1.835-7.714.778-10.2.749a53.05,53.05,0,0,0-7.785.4C454.229,214.334,457.48,212.915,461.921,212.406Z" transform="translate(-287.064 -123.359)" fill="#070101"/>
      <path id="Trazado_874937" data-name="Trazado 874937" d="M515.583,253.374c.14,2.232-.732,7.195-.93,9.753-.365,4.726-.22,9.611-.885,14.3a8.063,8.063,0,0,1-1.106,3.595,2.877,2.877,0,0,1-2.024,1.05,9.877,9.877,0,0,1-6.789-2.016,6.606,6.606,0,0,1-2.368-4.99c.037-.8.118-1.6.18-2.4.7.049,1.4.069,2.1.1a9.591,9.591,0,0,0,.144,4.568,3.852,3.852,0,0,0,2.426,2.243,3.944,3.944,0,0,0,3.094.183,2.389,2.389,0,0,0,1.171-1.469,33.387,33.387,0,0,0,1.222-5.663l2.4-13.059a37.42,37.42,0,0,1,1.314-6.075C515.551,253.451,515.567,253.412,515.583,253.374Z" transform="translate(-321.96 -151.939)" fill="#a3422f"/>
      <path id="Trazado_874938" data-name="Trazado 874938" d="M465.083,249a7.2,7.2,0,0,1,5.44,1.385,4.685,4.685,0,0,1,1.689,3.382,4.188,4.188,0,0,1-1.121,3.01,5.3,5.3,0,0,1-3.906,1.5,6.416,6.416,0,0,1-4.575-1.917,3.408,3.408,0,0,1-.375-.453,4.429,4.429,0,0,1-1.634-3.095,3.393,3.393,0,0,1,.956-2.495A4.569,4.569,0,0,1,465.083,249Z" transform="translate(-293.525 -148.859)" fill="#fdfbfb"/>
      <path id="Trazado_874939" data-name="Trazado 874939" d="M462.235,256.042a4.429,4.429,0,0,1-1.634-3.095,3.393,3.393,0,0,1,.956-2.495,4.569,4.569,0,0,1,3.526-1.319,4.512,4.512,0,0,1,2.368,2.791,3.456,3.456,0,0,1-.407,2.633,3.737,3.737,0,0,1-2.495,1.7A4.945,4.945,0,0,1,462.235,256.042Z" transform="translate(-293.525 -148.989)" fill="#070101"/>
      <path id="Trazado_874940" data-name="Trazado 874940" d="M404.117,330.323c.053-1.029.215-2.054.35-3.075,2.448,11.376,5.483,20.624,15.9,27.318,3.641,2.341,7.578,3.954,11.976,3.521l3.175,8.535c.5,1.387.941,2.88,1.534,4.226l-.065.135c-.445.455-.879.931-1.353,1.354-.533.435-1.06.882-1.6,1.306l-.15.048-1.072.754c-.518.3-1.031.629-1.572.891l-1.674.739-1.855.631-1.973.479c-.692.092-1.394.214-2.09.266-.875.066-1.749.139-2.626.165-1.068-.009-2.122-.044-3.186-.129-.755-.077-1.509-.2-2.261-.312-.639-.112-1.267-.263-1.9-.41a22.175,22.175,0,0,1-2.2-.628c-.539-.168-1.075-.417-1.6-.624l-1.7-.733-2.08-1.072-1.532-.962A17.6,17.6,0,0,0,403,371.5l-1.162-1.074-1.473-1.692c-.344-.523-.643-1.079-.955-1.622-.226-.534-.384-1.108-.565-1.66a10.391,10.391,0,0,1,.069-1.365l.14-.672c.91-7.4,2.267-14.741,3.366-22.112C402.965,337.639,403.507,333.976,404.117,330.323Z" transform="translate(-250.569 -203.318)" fill="#e17f3e"/>
      <path id="Trazado_874941" data-name="Trazado 874941" d="M416.18,330.323c.053-1.029.215-2.054.35-3.075,2.448,11.376,5.483,20.624,15.9,27.318,3.641,2.341,7.578,3.954,11.976,3.521l3.175,8.535c.5,1.387.941,2.88,1.533,4.226l-.065.135c-.445.455-.879.931-1.353,1.354-.533.435-1.06.882-1.6,1.306l-.15.048a.875.875,0,0,0-.284-.155,21.073,21.073,0,0,1-5.453-3.264c-7.306-6-16.414-19.479-20.092-28.317-1.047-2.515-1.979-5.124-2.784-7.726a23.856,23.856,0,0,0-1.044-3.719C416.25,330.447,416.214,330.386,416.18,330.323Z" transform="translate(-262.632 -203.318)" fill="#a3422f"/>
      <path id="Trazado_874942" data-name="Trazado 874942" d="M455.832,445.943a37.588,37.588,0,0,0,8.1-3.4c-2.812,4.722-4.484,7.837-3.063,13.447,1.311,5.176,4.5,8.364,9.021,11.053,4.536,2.7,9.533,4.061,14.409,5.949-.586,1.428-.967,2.985-1.455,4.454a106.7,106.7,0,0,1-3.884,10.381c.607.315,1.29.569,1.54,1.266a3.42,3.42,0,0,1-.424,2.328c-.536.8-2.194,2.888-2.394,3.738a8.348,8.348,0,0,1-.373,1.226c.442.321.88.663,1.346.948-.832,1.928-2,3.826-2.679,5.8.749.256,1.255-.341,1.726.548.509.961-.055,2.469-.389,3.427-.4,1.146-1.668,3.5-1.793,4.572.212.108.416.2.634.294.319,1.542-2.04,5.785-2.917,7.188a2.785,2.785,0,0,1-.214.3,4.97,4.97,0,0,0-2.76-1.383c-.276-.037-.55-.085-.825-.131a25.943,25.943,0,0,0-9.6,5.348l-.255.357a80.205,80.205,0,0,1-8.539,5.639,35.278,35.278,0,0,1-6.272,3.9c-2.129,1.24-4.307,2.5-6.54,3.537a43.135,43.135,0,0,0,.606-5.592c.079-4.281-.9-10.013-3.478-13.538a7.41,7.41,0,0,0-4.8-3.123,2.5,2.5,0,0,0-1.96.581,2.179,2.179,0,0,0-.861,1.734c-.177,3.5.775,6.708.534,10.459a21.8,21.8,0,0,1-.586,4.575c-1.139,3.934-3.258,7.695-4.868,11.464-1.359,3.183-2.394,6.5-3.758,9.676a53.093,53.093,0,0,1-10.2,3.642c-1.722.326-3.437.6-5.177.8a18.58,18.58,0,0,0-2.77.3,24.606,24.606,0,0,1-3.679.025,20.826,20.826,0,0,0-2.863-.023c.129-1.2.23-2.394.293-3.6a116.042,116.042,0,0,1-18.04.757c-1.4-.029-10.444-.08-11.083-.746a86.085,86.085,0,0,1-3.824-19.642c-.753-12.188,4.168-22.454,12.048-31.39a81.767,81.767,0,0,1,11.588-9.743,57.134,57.134,0,0,1-3.371-4.744,192.725,192.725,0,0,1-13.89-22.973c-1.452-2.8-2.928-5.609-4.175-8.512l.658.576c3.445-2.761,6.629-5.838,9.918-8.778l1.473,1.692,1.162,1.074a17.605,17.605,0,0,1,1.56,1.249l1.532.962,2.08,1.072,1.7.733c.527.207,1.063.456,1.6.624a22.173,22.173,0,0,0,2.2.628c.631.147,1.26.3,1.9.41.752.108,1.506.235,2.261.312,1.065.086,2.118.121,3.186.129.877-.026,1.751-.1,2.626-.165.7-.051,1.4-.174,2.09-.266l1.973-.479,1.855-.631,1.674-.739c.541-.262,1.054-.587,1.572-.891l1.072-.754.15-.047c.542-.424,1.069-.871,1.6-1.306.474-.424.908-.9,1.353-1.354,3.177,3.266,6.656,6.217,9.985,9.324a13.679,13.679,0,0,0,1.622-3.4,16.936,16.936,0,0,0,.523-2.331,32.919,32.919,0,0,0,3.167,1.469,1.849,1.849,0,0,1,.251-1.243c2.03-.7,8.187,1.655,10.083,2.572,1.2.581,4.652,2.259,4.935,3.67a2.412,2.412,0,0,1,.022.286,22.255,22.255,0,0,0,1.5,2.345c1.625-2.028,3.293-4.041,4.832-6.136,1.109-1.509,2.115-3.1,3.257-4.582C451.981,451.826,455.919,446.751,455.832,445.943Z" transform="translate(-224.702 -283.508)" fill="#f6e3c3"/>
      <path id="Trazado_874943" data-name="Trazado 874943" d="M664,578.81a1.863,1.863,0,0,1,.39.371c.088.936-1.418,2.266-1.872,3.2-.028.058-.054.116-.081.173-.14-.052-.06-.016-.249-.146a.587.587,0,0,1-.276-.555C661.877,580.775,663.232,579.433,664,578.81Z" transform="translate(-433.537 -378.279)" fill="#ecc35d"/>
      <path id="Trazado_874944" data-name="Trazado 874944" d="M539.636,605.4a.679.679,0,0,1,.078.645,25.06,25.06,0,0,1-1.907,4.747,2.826,2.826,0,0,1-.5.312,1.525,1.525,0,0,1-.326-1.408A7.771,7.771,0,0,1,539.636,605.4Z" transform="translate(-346.619 -396.774)" fill="#ecc35d"/>
      <path id="Trazado_874945" data-name="Trazado 874945" d="M520.052,702.706a4.636,4.636,0,0,1,.625.141,3.357,3.357,0,0,1,.813,1.3,7.451,7.451,0,0,1-.8,5.677c-.336.1-.281.145-.625-.018-.189-.816.674-2.441.715-3.4C520.833,705.08,520,703.966,520.052,702.706Z" transform="translate(-334.864 -464.448)" fill="#ecc35d"/>
      <path id="Trazado_874946" data-name="Trazado 874946" d="M531.877,747.244a2.589,2.589,0,0,1,.469.112,2.948,2.948,0,0,1,1.7,1.6c.782,1.687.316,3.747-.3,5.411a1.794,1.794,0,0,1-.529-.14c-.447-.9.072-2.446.158-3.419.118-1.323-.828-2.125-1.6-3.037Z" transform="translate(-343.025 -495.425)" fill="#ecc35d"/>
      <path id="Trazado_874947" data-name="Trazado 874947" d="M658.161,568.547a4.357,4.357,0,0,1,2.305.653,3.129,3.129,0,0,1,1.614,2.037,1.759,1.759,0,0,1-.141,1.274c-.605-.074-1.273-1.68-1.748-2.182-3.594-1.964-3.037.908-4.824.922l-.2-.3a1.008,1.008,0,0,1,.166-.585A4.668,4.668,0,0,1,658.161,568.547Z" transform="translate(-428.85 -371.141)" fill="#ecc35d"/>
      <path id="Trazado_874948" data-name="Trazado 874948" d="M483.794,749.536a1.566,1.566,0,0,1,1.189-.234,3.466,3.466,0,0,1,2.036,1.6c.055.083.107.168.16.252-.18.978-.958,3.11-.353,3.916.414.55,1.46,1.048,1.635,1.681a1.236,1.236,0,0,1-1.028-.2,3.692,3.692,0,0,1-1.677-2.78c.378-1.119.734-1.978.239-3.138a1.124,1.124,0,0,0-.761-.682,2.347,2.347,0,0,0-1.738.471c-.537,1.064-.681,2.735-1.421,3.56l-.21-.115a4.109,4.109,0,0,1,.178-2.3A3.284,3.284,0,0,1,483.794,749.536Z" transform="translate(-308.253 -496.837)" fill="#ecc35d"/>
      <path id="Trazado_874949" data-name="Trazado 874949" d="M497.61,695.04a4.391,4.391,0,0,1,1.183.118,2.3,2.3,0,0,1,1.511,1.17,5.451,5.451,0,0,1-.214,3.5,2.157,2.157,0,0,1-.938,1.38c-1.238-.691.623-3.663-.05-4.853a4.211,4.211,0,0,0-1.071-.2c-1.786-.027-2.887,1.9-4.056,2.956-.412-.137-.445-.115-.671-.479a1.224,1.224,0,0,1,.158-.559A7.658,7.658,0,0,1,497.61,695.04Z" transform="translate(-316.272 -459.116)" fill="#ecc35d"/>
      <path id="Trazado_874950" data-name="Trazado 874950" d="M674.638,587.883a5,5,0,0,1,.846-.016,3.456,3.456,0,0,1,2.125,1.336,6.367,6.367,0,0,1,1.1,4.657,2.464,2.464,0,0,1-.767,1.788l-.294-.092.159.146c-.222-.054-.221,0-.31-.183-.379-.781.014-1.9.2-2.7a6.152,6.152,0,0,0-1.622-3.631c-.255-.213-.323-.187-.631-.152a2.868,2.868,0,0,0-.343,2.124c-.257.456-.5,1-1,1.21l-.191-.155a4.321,4.321,0,0,1-.076-.737C673.853,590.415,673.9,588.642,674.638,587.883Z" transform="translate(-441.831 -384.569)" fill="#ecc35d"/>
      <path id="Trazado_874951" data-name="Trazado 874951" d="M532.488,598.884c.3-.037.608-.074.913-.085a4.745,4.745,0,0,1,3.506,1.5c-.2.829-.578,2.551-1.287,3.011-.4-.074-.384-.108-.641-.438-.137-.667.326-1.383.551-2.012a1,1,0,0,0-.207-.648,1.024,1.024,0,0,0-.762-.394,5.165,5.165,0,0,0-3.62,1.257,7.624,7.624,0,0,0-.751.923,5.414,5.414,0,0,0-1.159,4.016c.041.236-.015.27-.112.482l-.329.063c-.25-.131-.377-.131-.5-.4a4.062,4.062,0,0,1,.125-2.877A7.637,7.637,0,0,1,532.488,598.884Z" transform="translate(-340.318 -392.179)" fill="#ecc35d"/>
      <path id="Trazado_874952" data-name="Trazado 874952" d="M536.582,653.411a1.143,1.143,0,0,0-1.168-.244c-2.53.56-3.99,3.685-5.054,3.683-.166-.28-.157-.151-.088-.457a6.137,6.137,0,0,1,2.956-3.431,8.482,8.482,0,0,1,4-.932,4.492,4.492,0,0,1,2.465,2.888,7.51,7.51,0,0,1-.316,4.906,1.82,1.82,0,0,1-.664.638l-.369-.026-.174-.229c.427-1.795,1.224-4.595.117-6.3a1.269,1.269,0,0,0-.942-.592,1.254,1.254,0,0,0-.6.041,1.7,1.7,0,0,1,.242.783,3.19,3.19,0,0,1-.937,2.257l-.384-.145A9.083,9.083,0,0,1,536.582,653.411Z" transform="translate(-341.951 -429.204)" fill="#ecc35d"/>
      <path id="Trazado_874953" data-name="Trazado 874953" d="M410.38,724.453a3.132,3.132,0,0,1,.751.144c.39.151.481.362.622.727-.123,1.185-1.222,2.452-1.9,3.422-1.838,2.643-1.658,3.16-1.121,6.152-.247.259-.225.264-.581.285a1.473,1.473,0,0,1-.541-.529,3.315,3.315,0,0,1-.235-1.8c.276-4.131,2.894-4.98,3.469-7.153l-.175-.239a5.037,5.037,0,0,0-2.523,1.383,12.482,12.482,0,0,0-1.708,1.938,6.251,6.251,0,0,0-1.107,5.327,22.285,22.285,0,0,1,.717,2.4c.058.356.09.2-.128.5a1.007,1.007,0,0,1-.135-.037,3.426,3.426,0,0,1-1.241-1.611,7.241,7.241,0,0,1,.116-5.42A10.957,10.957,0,0,1,410.38,724.453Z" transform="translate(-254.213 -479.573)" fill="#ecc35d"/>
      <path id="Trazado_874954" data-name="Trazado 874954" d="M434.3,649.67a4.512,4.512,0,0,1,1.261.266,1.6,1.6,0,0,1,.979.989c.4,1.5-2.358,1.947-3.114,2.559a5.677,5.677,0,0,0-1.281,1.847l-.1.193c.053,1.036.331,2.147-.4,3l-.281-.074a2.268,2.268,0,0,1-.36-.623,4.557,4.557,0,0,1-.178-2.177c.469-3.507,3.3-2.723,4.265-4.728a4.726,4.726,0,0,0-1.23-.086c-2.526.151-4.483,2.074-5.751,4.109a9.441,9.441,0,0,1-.9,1.536c-.208.22-.1.145-.458.16l-.313-.312a6.121,6.121,0,0,1,1.322-2.941A9.442,9.442,0,0,1,434.3,649.67Z" transform="translate(-269.772 -427.562)" fill="#ecc35d"/>
      <path id="Trazado_874955" data-name="Trazado 874955" d="M516.714,796.187c1.239-2.737,2.459-6.007,4.252-8.418a1.479,1.479,0,0,1,1.021-.76l.228.251c.6,2-.088,5.5-.674,7.5A33.629,33.629,0,0,1,516.714,796.187Z" transform="translate(-332.554 -523.082)" fill="#767f9c"/>
      <path id="Trazado_874956" data-name="Trazado 874956" d="M598.029,596.545a7.067,7.067,0,0,1,1.654.058,6.269,6.269,0,0,1,4.523,6.321,2.989,2.989,0,0,1-1.48,1.886,1.526,1.526,0,0,1-1.3.258,1.463,1.463,0,0,1-.622-.894,5.161,5.161,0,0,1,.178-3.6l.222-.012c.58,1.006.249,2.4,1.01,3.347l.287.01a1.515,1.515,0,0,0,.368-.537,3.952,3.952,0,0,0-.172-3.23,2.429,2.429,0,0,0-.887-.556c-2.345-.644-2.127,1.515-3.247,2.189l-.269-.164a1.6,1.6,0,0,1-.1-.664c.15-1.566,1.52-1.983,2.547-2.9l-.1-.2c-4.727-1.4-4.9,2.412-6.912,2.942-.159-.332-.152-.351,0-.7C594.447,598.417,596.4,597.165,598.029,596.545Z" transform="translate(-386.035 -390.599)" fill="#ecc35d"/>
      <path id="Trazado_874957" data-name="Trazado 874957" d="M626.884,727.918a7.483,7.483,0,0,0-.835-.325c-.244-.091-.49-.175-.729-.279a3.3,3.3,0,0,1-1.719-1.752,2.035,2.035,0,0,1,.148-1.643,4.033,4.033,0,0,1,1.044-1.328c.894-.441,5.474,1.272,7.057.582a1.423,1.423,0,0,0,.164-.1l1.143.94A35.272,35.272,0,0,1,626.884,727.918Z" transform="translate(-406.817 -478.227)" fill="#efbfb0"/>
      <path id="Trazado_874958" data-name="Trazado 874958" d="M630.413,691.566c-2.871-2.545-8.109-6.217-9.081-10.037a3.791,3.791,0,0,1,.367-2.964,2.754,2.754,0,0,1,1.873-1.3c4.047-.742,13.059,7.074,16.523,9.6a80.218,80.218,0,0,1-8.539,5.639Z" transform="translate(-405.216 -446.72)" fill="#e17f3e"/>
      <path id="Trazado_874959" data-name="Trazado 874959" d="M645.458,665.1c-3.077-2.369-6.064-4.894-9.11-7.309a59.959,59.959,0,0,1-6.62-5.449,4.068,4.068,0,0,1-1.147-2.052,2.864,2.864,0,0,1,.532-2.227,4.266,4.266,0,0,1,2.759-1.6,5.675,5.675,0,0,1,3,.576,60.059,60.059,0,0,1,7.435,4.4,135.755,135.755,0,0,1,12.75,8.314A25.943,25.943,0,0,0,645.458,665.1Z" transform="translate(-410.324 -425.305)" fill="#e17f3e"/>
      <path id="Trazado_874960" data-name="Trazado 874960" d="M574.347,484.364a1.849,1.849,0,0,1,.251-1.243c2.03-.7,8.187,1.655,10.083,2.572,1.2.581,4.653,2.259,4.935,3.67a2.425,2.425,0,0,1,.022.286,22.243,22.243,0,0,0,1.5,2.345,56.73,56.73,0,0,1-4.169,5.442c-4.485,6.211-4.5,6.572-11.87,9.044C574.761,499.107,574.994,491.732,574.347,484.364Z" transform="translate(-372.637 -311.638)" fill="#b35f01"/>
      <path id="Trazado_874961" data-name="Trazado 874961" d="M618.469,504.853a22.25,22.25,0,0,0,1.5,2.345,56.73,56.73,0,0,1-4.169,5.442C616.094,510.727,617.749,506.86,618.469,504.853Z" transform="translate(-401.469 -326.842)" fill="#1c1c35"/>
      <path id="Trazado_874962" data-name="Trazado 874962" d="M660.6,445.943a37.587,37.587,0,0,0,8.1-3.4c-2.812,4.722-4.483,7.837-3.063,13.447,1.311,5.176,4.5,8.364,9.021,11.053,4.536,2.7,9.533,4.061,14.409,5.949-.586,1.428-.967,2.985-1.455,4.454a106.651,106.651,0,0,1-3.884,10.381c.607.315,1.29.569,1.54,1.266a3.42,3.42,0,0,1-.424,2.328c-.536.8-2.194,2.888-2.394,3.738a8.355,8.355,0,0,1-.373,1.226c-4.346-3.012-7.474-7.406-10.156-11.9-5.951-9.972-10.735-24.792-7.823-36.355a18.78,18.78,0,0,1-8.039,5.013C656.745,451.826,660.683,446.751,660.6,445.943Z" transform="translate(-429.466 -283.508)" fill="#a291b1"/>
      <path id="Trazado_874963" data-name="Trazado 874963" d="M379.69,463.48l1.473,1.692,1.162,1.074a17.609,17.609,0,0,1,1.56,1.249l1.532.962,2.08,1.072,1.7.733c.527.207,1.063.456,1.6.624a22.192,22.192,0,0,0,2.2.628c.631.147,1.26.3,1.9.41.752.108,1.506.235,2.261.312,1.065.086,2.118.121,3.186.129.877-.026,1.752-.1,2.626-.165.7-.051,1.4-.174,2.09-.266l1.973-.479,1.855-.631,1.674-.739c.541-.262,1.054-.587,1.572-.891l1.072-.754.15-.048c.542-.424,1.069-.871,1.6-1.306.474-.424.908-.9,1.353-1.354,3.177,3.266,6.656,6.217,9.985,9.324a13.68,13.68,0,0,0,1.621-3.4,16.917,16.917,0,0,0,.523-2.331,32.905,32.905,0,0,0,3.167,1.469c.647,7.368.414,14.743.753,22.115-3.982,1.119-8.039,1.963-12.033,3.042-10.325,2.789-20.564,6.451-29.777,11.962a57.145,57.145,0,0,1-3.371-4.744,192.729,192.729,0,0,1-13.89-22.973c-1.452-2.8-2.928-5.609-4.175-8.512l.658.576C373.217,469.5,376.4,466.42,379.69,463.48Z" transform="translate(-229.898 -298.067)" fill="#1c1c35"/>
      <path id="Trazado_874964" data-name="Trazado 874964" d="M502.918,470.874c3.177,3.266,6.656,6.217,9.985,9.324-.427.705-.839,1.426-1.3,2.111a27.864,27.864,0,0,1-2.995,3.563l-1.6,1.458a34.4,34.4,0,0,1-3.137,2.367c-.685.4-1.391.868-2.105,1.2a23,23,0,0,1-3.766,1.7c-1.543-5.31-2.855-10.685-4.368-16l1.855-.631,1.674-.739c.541-.262,1.054-.587,1.572-.891l1.072-.754.15-.047c.542-.424,1.069-.871,1.6-1.306C502.039,471.8,502.474,471.329,502.918,470.874Z" transform="translate(-316.506 -303.21)" fill="#273b49"/>
      <path id="Trazado_874965" data-name="Trazado 874965" d="M499.731,485.91l1.674-.739c1.333,2.51,2.369,5.2,3.548,7.783,1.021,2.24,2.19,4.428,3.163,6.687-.685.4-1.391.868-2.105,1.2C505.207,499.382,499.9,487.146,499.731,485.91Z" transform="translate(-320.742 -313.153)" fill="#304c54"/>
      <path id="Trazado_874966" data-name="Trazado 874966" d="M508.024,479.611c1.9,1.193,6.881,9.933,8.648,12.338l-1.6,1.458a34.385,34.385,0,0,1-3.137,2.367c-.973-2.258-2.142-4.447-3.163-6.687-1.178-2.587-2.215-5.272-3.548-7.783.541-.262,1.054-.587,1.572-.891l1.072-.754Z" transform="translate(-324.567 -309.286)" fill="#273b49"/>
      <path id="Trazado_874967" data-name="Trazado 874967" d="M511.616,479.611c1.9,1.193,6.881,9.933,8.648,12.338l-1.6,1.458c-.812-.694-7.448-11.5-8.275-12.994l1.072-.754Z" transform="translate(-328.158 -309.286)" fill="#304c54"/>
      <path id="Trazado_874968" data-name="Trazado 874968" d="M517.361,470.874c3.177,3.266,6.656,6.217,9.985,9.324-.427.705-.839,1.426-1.3,2.111a27.866,27.866,0,0,1-2.995,3.563c-1.768-2.4-6.752-11.145-8.648-12.337.542-.424,1.069-.871,1.6-1.306C516.482,471.8,516.916,471.329,517.361,470.874Z" transform="translate(-330.948 -303.21)" fill="#273b49"/>
      <path id="Trazado_874969" data-name="Trazado 874969" d="M521.02,470.874c3.177,3.266,6.656,6.217,9.985,9.324-.427.705-.839,1.426-1.3,2.111-3.393-3.312-6.451-6.962-10.041-10.08C520.141,471.8,520.575,471.329,521.02,470.874Z" transform="translate(-334.607 -303.21)" fill="#304c54"/>
      <path id="Trazado_874970" data-name="Trazado 874970" d="M381.194,463.48l1.473,1.692,1.162,1.074a17.608,17.608,0,0,1,1.56,1.249l1.532.962,2.08,1.072,1.7.733c.527.207,1.063.456,1.6.624a22.2,22.2,0,0,0,2.2.628c-1.157,3.1-2.029,6.358-2.937,9.537-.561,1.967-1.231,3.974-1.628,5.979a15.051,15.051,0,0,1-3.243-1.377l-2.785-1.45a17.274,17.274,0,0,1-2.714-1.745l-2.015-1.418c-.759-.548-1.462-1.174-2.177-1.779-.727-.718-1.4-1.477-2.082-2.24a26.034,26.034,0,0,1-1.821-2.251l-1.823-2.511C374.721,469.5,377.9,466.42,381.194,463.48Z" transform="translate(-231.402 -298.067)" fill="#304c54"/>
      <path id="Trazado_874971" data-name="Trazado 874971" d="M419.555,485.751c.527.207,1.063.456,1.6.624a71.14,71.14,0,0,1-3.123,8.342,59.272,59.272,0,0,1-2.49,6.425l-2.785-1.45C415.277,495.17,417.072,490.292,419.555,485.751Z" transform="translate(-260.252 -313.557)" fill="#467265"/>
      <path id="Trazado_874972" data-name="Trazado 874972" d="M404.97,479.825l2.08,1.072,1.7.733c-2.483,4.541-4.277,9.419-6.8,13.942a17.269,17.269,0,0,1-2.714-1.745l-2.015-1.418a43.317,43.317,0,0,1,2.7-4.51Z" transform="translate(-249.451 -309.435)" fill="#304c54"/>
      <path id="Trazado_874973" data-name="Trazado 874973" d="M404.97,479.825l2.08,1.072c-1.059,2.058-2.382,4.04-3.561,6.037a68.856,68.856,0,0,1-4.246,6.892l-2.015-1.418a43.317,43.317,0,0,1,2.7-4.51Z" transform="translate(-249.451 -309.435)" fill="#467265"/>
      <path id="Trazado_874974" data-name="Trazado 874974" d="M381.194,463.48l1.473,1.692,1.162,1.074a17.608,17.608,0,0,1,1.56,1.249l1.532.962-5.041,8.073a43.309,43.309,0,0,0-2.7,4.51c-.759-.548-1.462-1.174-2.177-1.779-.727-.718-1.4-1.477-2.082-2.24a26.034,26.034,0,0,1-1.821-2.251l-1.823-2.511C374.721,469.5,377.9,466.42,381.194,463.48Z" transform="translate(-231.402 -298.067)" fill="#304c54"/>
      <path id="Trazado_874975" data-name="Trazado 874975" d="M392.152,472.564a17.613,17.613,0,0,1,1.56,1.249,99.97,99.97,0,0,0-8.387,11.766c-.727-.718-1.4-1.477-2.082-2.24C386.4,479.95,389.258,476.18,392.152,472.564Z" transform="translate(-239.725 -304.385)" fill="#467265"/>
      <path id="Trazado_874976" data-name="Trazado 874976" d="M386.83,469.036l1.162,1.074c-2.894,3.616-5.752,7.386-8.909,10.774a26.019,26.019,0,0,1-1.821-2.251C379.795,475.9,383.912,471.207,386.83,469.036Z" transform="translate(-235.565 -301.931)" fill="#304c54"/>
      <path id="Trazado_874977" data-name="Trazado 874977" d="M381.194,463.48l1.473,1.692c-2.918,2.171-7.035,6.86-9.568,9.6l-1.823-2.511C374.721,469.5,377.9,466.42,381.194,463.48Z" transform="translate(-231.402 -298.067)" fill="#467265"/>
      <path id="Trazado_874978" data-name="Trazado 874978" d="M449.182,490.15l1.973-.479c1.513,5.32,2.825,10.695,4.368,16-.819.276-1.636.564-2.467.8-1.436.294-2.867.573-4.317.792-.931.074-1.87.181-2.8.178-1.474,0-2.941,0-4.412-.119l-2.986-.417c-1.171-.2-2.325-.488-3.481-.759l-2.5-.906c.4-2,1.066-4.012,1.628-5.979.908-3.18,1.78-6.441,2.938-9.537.631.147,1.26.3,1.9.41.752.108,1.506.235,2.261.312,1.064.086,2.118.121,3.186.129.877-.026,1.751-.1,2.626-.165C447.789,490.365,448.49,490.242,449.182,490.15Z" transform="translate(-274.021 -316.283)" fill="#467265"/>
      <path id="Trazado_874979" data-name="Trazado 874979" d="M464.942,492.9c.3.028.708-.023.9.2-.023,5.539.582,11.06.579,16.59-1.474,0-2.941,0-4.412-.119.21-3.438.543-6.859.843-10.289.179-2.054.257-4.13.558-6.169A3.713,3.713,0,0,1,464.942,492.9Z" transform="translate(-294.507 -318.527)" fill="#304c54"/>
      <path id="Trazado_874980" data-name="Trazado 874980" d="M437.12,489.865c.631.147,1.26.3,1.9.41.752.108,1.506.235,2.261.312a40.243,40.243,0,0,0-1.052,5.7c-.533,3.575-.97,7.214-1.689,10.757-1.171-.2-2.325-.488-3.481-.759l-2.5-.906c.4-2,1.066-4.012,1.628-5.979C435.091,496.223,435.963,492.961,437.12,489.865Z" transform="translate(-274.021 -316.418)" fill="#304c54"/>
      <path id="Trazado_874981" data-name="Trazado 874981" d="M437.12,489.865c.631.147,1.26.3,1.9.41-1.561,5.285-2.489,10.716-3.961,16.012l-2.5-.906c.4-2,1.066-4.012,1.628-5.979C435.091,496.223,435.963,492.961,437.12,489.865Z" transform="translate(-274.021 -316.418)" fill="#467265"/>
      <path id="Trazado_874982" data-name="Trazado 874982" d="M482.386,490.15l1.973-.479c1.513,5.32,2.825,10.695,4.368,16-.819.276-1.636.564-2.467.8-1.436.294-2.867.573-4.317.792-.072-1.864-.374-3.757-.548-5.618-.351-3.747-.681-7.5-1.1-11.235C480.992,490.365,481.694,490.242,482.386,490.15Z" transform="translate(-307.225 -316.283)" fill="#273b49"/>
      <path id="Trazado_874983" data-name="Trazado 874983" d="M487.16,490.15l1.973-.479c1.513,5.32,2.825,10.695,4.368,16-.819.276-1.636.564-2.467.8-.347-.469-3.4-14.383-3.622-15.765A.824.824,0,0,0,487.16,490.15Z" transform="translate(-311.999 -316.283)" fill="#304c54"/>
      <path id="Trazado_874984" data-name="Trazado 874984" d="M199.887,473.319c1.534-.523,3.063-1.345,4.549-2,2.9-1.288,5.826-2.551,8.792-3.691.449.868.892,1.733,1.3,2.623.452.932.959,1.866,1.349,2.824a16.014,16.014,0,0,0,.771,1.495c1.247,2.9,2.723,5.707,4.175,8.512a192.73,192.73,0,0,0,13.89,22.973,57.142,57.142,0,0,0,3.371,4.745,81.764,81.764,0,0,0-11.588,9.743c-7.88,8.936-12.8,19.2-12.048,31.39a86.085,86.085,0,0,0,3.824,19.642c.639.666,9.68.717,11.083.746a116.027,116.027,0,0,0,18.04-.757c-.063,1.206-.164,2.4-.293,3.6-.962,8.1-.048,18.476,5.15,25.106a23.679,23.679,0,0,0,2.943,3.023l-.4.531a92.619,92.619,0,0,1-15.07,7.452l-.041,1.681a4.843,4.843,0,0,1-.139-1.565c-10.773,4.621-29.148,8.219-40.875,8.647a67.493,67.493,0,0,1-17.174-1.077c-9.244-1.791-18.232-5.519-23.666-13.636-8.783-13.121-8.762-36.546-7.021-51.734.743-6.483,2.043-12.734,3.292-19.12.565-2,1-4.037,1.558-6.039.709-2.552,1.553-5.062,2.394-7.573l1.247-3.922c1.276-2.124,2.089-4.955,3.156-7.255.96-2.07,2.4-4.122,3.135-6.251,1.652-2.329,3.1-4.782,4.818-7.075a71.183,71.183,0,0,1,20.614-18.25C193.894,476.394,196.912,474.848,199.887,473.319Z" transform="translate(-77.428 -300.948)" fill="#467265"/>
      <path id="Trazado_874985" data-name="Trazado 874985" d="M239.456,804.284a26.4,26.4,0,0,0-17.813,7.177c-.6.557-2.125,2.6-2.7,2.847a1.923,1.923,0,0,1,.173-.416c2.648-4.847,8.462-9.176,13.62-10.947,4.528-1.555,10.216-2.054,14.623.083l.823.776a45.364,45.364,0,0,0-7.133,1.728c-8,2.873-13.7,8.774-17.568,16.2-.409.785-.651,1.635-1.029,2.435-.129.273-.241.7-.524.8a9.038,9.038,0,0,1,.466-1.655c2.5-7.376,6.271-13.278,13.158-17.208C236.822,805.385,238.155,804.926,239.456,804.284Z" transform="translate(-125.453 -533.228)" fill="#1c1c35"/>
      <path id="Trazado_874986" data-name="Trazado 874986" d="M293.822,473.319c1.534-.523,3.063-1.345,4.549-2,2.9-1.288,5.826-2.551,8.792-3.691.449.868.892,1.733,1.3,2.623.452.932.959,1.866,1.349,2.824a16.015,16.015,0,0,0,.771,1.495c1.247,2.9,2.723,5.707,4.175,8.512a192.73,192.73,0,0,0,13.89,22.973,57.138,57.138,0,0,0,3.371,4.745,81.766,81.766,0,0,0-11.588,9.743c-7.88,8.936-12.8,19.2-12.048,31.39a86.081,86.081,0,0,0,3.824,19.642l-.147.118c-.284.228-1.538.015-1.937-.013-5.374-.365-10.651-.267-16.029-.15l-.823-.776a98.955,98.955,0,0,0,1.9-13.557,185.035,185.035,0,0,0-6.7-68.063c-1.069-3.7-2.159-7.426-3.515-11.029C287.829,476.394,290.847,474.848,293.822,473.319Z" transform="translate(-171.363 -300.948)" fill="#304c54"/>
      <path id="Trazado_874987" data-name="Trazado 874987" d="M314.085,473.319c1.534-.523,3.063-1.345,4.549-2,2.9-1.288,5.826-2.551,8.792-3.691.449.868.892,1.733,1.3,2.623.452.932.959,1.866,1.349,2.824a16.022,16.022,0,0,0,.771,1.495c1.247,2.9,2.723,5.707,4.175,8.512a192.73,192.73,0,0,0,13.89,22.973,57.138,57.138,0,0,0,3.371,4.745,81.765,81.765,0,0,0-11.588,9.743,82.134,82.134,0,0,1-5.553-7.664,237.193,237.193,0,0,1-15.606-28C317.67,481.049,315.736,477.234,314.085,473.319Z" transform="translate(-191.625 -300.948)" fill="#b35f01"/>
    </g>
  </g>
</svg>
