<svg id="Grupo_1189750" data-name="Grupo 1189750" xmlns="http://www.w3.org/2000/svg" width="82" height="82" viewBox="0 0 82 82">
  <rect id="Rectángulo_402627" data-name="Rectángulo 402627" width="82" height="82" fill="none"/>
  <g id="XMLID_1_" transform="translate(-56.019 4.1)">
    <g id="XMLID_3322_" transform="translate(70.019 -0.1)">
      <g id="XMLID_756_" transform="translate(7.748 25.275)">
        <path id="XMLID_2843_" d="M126.153,181.741c-1.206,0-2.153-1.263-2.153-2.871s.947-2.87,2.153-2.87,2.153,1.263,2.153,2.87S127.358,181.741,126.153,181.741Zm0-4.306c-.287,0-.718.56-.718,1.435s.431,1.435.718,1.435.718-.56.718-1.435S126.44,177.435,126.153,177.435Z" transform="translate(-124 -176)"/>
      </g>
      <g id="XMLID_755_" transform="translate(21.239 25.275)">
        <path id="XMLID_2840_" d="M220.153,181.741c-1.206,0-2.153-1.263-2.153-2.871s.947-2.87,2.153-2.87,2.153,1.263,2.153,2.87S221.358,181.741,220.153,181.741Zm0-4.306c-.287,0-.718.56-.718,1.435s.431,1.435.718,1.435.718-.56.718-1.435S220.44,177.435,220.153,177.435Z" transform="translate(-218 -176)"/>
      </g>
      <g id="XMLID_757_" transform="translate(14.106 32.422)">
        <path id="XMLID_2839_" d="M170.84,228.541a.761.761,0,0,1-.388-.115L168.3,227.02l.789-1.206,1.765,1.148,1.765-1.163.789,1.206-2.153,1.421A.8.8,0,0,1,170.84,228.541Z" transform="translate(-168.3 -225.8)"/>
      </g>
      <g id="XMLID_758_" transform="translate(15.928 34.46)">
        <path id="XMLID_2838_" d="M181,240h1.435v2.583H181Z" transform="translate(-181 -240)"/>
      </g>
      <g id="XMLID_771_" transform="translate(1.576 16.376)">
        <path id="XMLID_2835_" d="M96.07,141.27c-4.966,0-8.741-.732-11.252-2.153A7.053,7.053,0,0,1,81,132.658a10.324,10.324,0,0,1,1.938-6.7,26.808,26.808,0,0,0,1.722-3.071c.23-.5.459-1,.675-1.507C86.956,117.588,88.506,114,96.07,114s9.1,3.588,10.75,7.377c.215.488.431,1,.675,1.507a24.789,24.789,0,0,0,1.722,3.071,10.324,10.324,0,0,1,1.938,6.7,7.078,7.078,0,0,1-3.818,6.459C104.811,140.538,101.022,141.27,96.07,141.27Zm0-25.834c-6.616,0-7.851,2.87-9.43,6.516-.215.5-.445,1.019-.689,1.536a25.034,25.034,0,0,1-1.808,3.229,8.891,8.891,0,0,0-1.722,5.942c0,4.765,4.593,7.176,13.635,7.176s13.635-2.411,13.635-7.176a8.891,8.891,0,0,0-1.722-5.942,29.043,29.043,0,0,1-1.808-3.229c-.244-.517-.474-1.033-.689-1.536-1.55-3.646-2.8-6.516-9.4-6.516Z" transform="translate(-81 -114)"/>
      </g>
      <g id="XMLID_732_" transform="translate(12.383 36.268)">
        <path id="XMLID_2834_" d="M162.012,255.884a1.83,1.83,0,0,1-1.421-.646,1.919,1.919,0,0,1-1.493.646c-1.909,0-2.77-2.239-2.8-2.325l1.349-.5c0,.014.56,1.407,1.464,1.407.718,0,.732-1.148.732-1.163a.711.711,0,0,1,.689-.7.7.7,0,0,1,.732.66c0,.014.129,1.206.746,1.206.7,0,1.335-.933,1.493-1.249l1.277.646C164.754,253.917,163.749,255.884,162.012,255.884Z" transform="translate(-156.3 -252.596)"/>
      </g>
      <g id="XMLID_1247_" transform="translate(0 0.014)">
        <path id="XMLID_2833_" d="M77.925,21.041a20.377,20.377,0,0,1-5.267-6.258c-2.21-4.32-3.559-10.664-1.895-13.377A2.825,2.825,0,0,1,73.289,0c4.693,0,9.272,9.056,10.19,12.932a15.662,15.662,0,0,1,.244,4.578l-1.435-.1a14.257,14.257,0,0,0-.215-4.148c-.947-4.047-5.325-11.826-8.784-11.826a1.4,1.4,0,0,0-1.306.732c-1.335,2.182-.043,8.052,1.952,11.97a19.275,19.275,0,0,0,4.909,5.813Z" transform="translate(-70.019 0)"/>
      </g>
      <g id="XMLID_26_" transform="translate(0.543 3.201)">
        <path id="XMLID_2832_" d="M82.742,37.7c-.3-4.851-1.88-8.7-4.736-11.439A11.246,11.246,0,0,0,73.8,23.578l.4-1.378a12.857,12.857,0,0,1,4.736,2.971c2.167,2.067,4.822,5.9,5.224,12.444Z" transform="translate(-73.8 -22.2)"/>
      </g>
      <g id="XMLID_761_" transform="translate(19.501)">
        <path id="XMLID_2831_" d="M211.764,20.955l-.919-1.105a19.238,19.238,0,0,0,4.909-5.813c1.995-3.918,3.287-9.788,1.952-11.97a1.426,1.426,0,0,0-1.306-.732c-3.459,0-7.836,7.779-8.8,11.826a14.223,14.223,0,0,0-.215,4.148l-1.435.1a15.661,15.661,0,0,1,.244-4.578c.919-3.861,5.5-12.932,10.19-12.932a2.865,2.865,0,0,1,2.54,1.407c1.665,2.713.3,9.042-1.895,13.362A20.133,20.133,0,0,1,211.764,20.955Z" transform="translate(-205.892 0.1)"/>
      </g>
      <g id="XMLID_1533_" transform="translate(22.358 4.88)">
        <path id="XMLID_2830_" d="M227.235,47.721l-1.435-.086c.459-7.65,3.947-11.683,6.774-13.735l.832,1.163c-2.569,1.866-5.741,5.569-6.172,12.659Z" transform="translate(-225.8 -33.9)"/>
      </g>
      <g id="XMLID_1671_" transform="translate(2.954 40.991)">
        <path id="XMLID_2829_" d="M126.754,318.008c-3.4,0-8.54,0-8.54-3.732a5.593,5.593,0,0,1,2.2-4.32l-1.177-.847c-4.291,5.167-7.449,8.9-15.572,8.9-2.856,0-4.464-.617-4.952-1.88s.445-2.713,1.177-3.588a19.133,19.133,0,0,1-4.148-2.756A14.331,14.331,0,0,1,90.6,298.776c0-8.755,3.215-13.1,3.344-13.276l1.148.861c-.029.043-3.057,4.177-3.057,12.415a12.746,12.746,0,0,0,4.622,9.9,17.141,17.141,0,0,0,4.708,2.957.747.747,0,0,1,.459.531.738.738,0,0,1-.215.66c-.789.718-1.823,2.1-1.55,2.784.086.23.6.962,3.617.962,7.506,0,10.319-3.387,14.582-8.511l.316-.373a.732.732,0,0,1,.976-.129l2.54,1.823a.732.732,0,0,1,.3.631.707.707,0,0,1-.388.588,4.482,4.482,0,0,0-2.339,3.674c0,1.909,2.713,2.3,7.1,2.3,2.5,0,5.31,0,7.033-3.9l1.306.574c-2.11,4.765-5.87,4.765-8.353,4.765Z" transform="translate(-90.6 -285.5)"/>
      </g>
      <g id="XMLID_1670_" transform="translate(30.597 33.126)">
        <path id="XMLID_2828_" d="M301.011,263.309l-1.407-.3a34,34,0,0,0,.646-7.191c0-7.262-4.607-13.333-8.468-17.166a47.373,47.373,0,0,0-8.583-6.7l.718-1.249a47.451,47.451,0,0,1,8.855,6.9c5.827,5.77,8.913,12.056,8.913,18.2A35.961,35.961,0,0,1,301.011,263.309Z" transform="translate(-283.2 -230.7)"/>
      </g>
      <g id="XMLID_86_" transform="translate(27.819 49.789)">
        <path id="XMLID_2827_" d="M267.026,361.2a10.716,10.716,0,0,1-3.172-7.363,9.223,9.223,0,0,1,2.67-7.033l1.019,1.019a7.786,7.786,0,0,0-2.239,5.956,9.309,9.309,0,0,0,2.67,6.329Z" transform="translate(-263.847 -346.8)"/>
      </g>
      <g id="XMLID_84_" transform="translate(47.475 52.646)">
        <path id="XMLID_2826_" d="M402.494,376.637a5.014,5.014,0,0,1-1.076-.1l.287-1.406a3.828,3.828,0,0,0,2.741-.5,2.779,2.779,0,0,0,.832-2.239c0-2.253-.445-3.717-1.249-4.119s-2.024.244-2.383.517l-.847-1.163c.086-.057,2.124-1.521,3.875-.631,1.349.689,2.024,2.5,2.024,5.4a4.106,4.106,0,0,1-1.364,3.359A4.471,4.471,0,0,1,402.494,376.637Z" transform="translate(-400.8 -366.706)"/>
      </g>
      <g id="XMLID_359_" transform="translate(12.943 63.022)">
        <path id="XMLID_2825_" d="M161.262,444.253l-1.062-.962A35.324,35.324,0,0,1,165.668,439l.775,1.206A34.946,34.946,0,0,0,161.262,444.253Z" transform="translate(-160.2 -439)"/>
      </g>
      <g id="XMLID_798_" transform="translate(4.659 63.61)">
        <path id="XMLID_2822_" d="M113.893,452.989c-6.6,0-10.262-1.177-11.195-3.588-1.12-2.9,2.426-6.172,2.569-6.3l.962,1.062c-.832.761-2.827,3.086-2.2,4.722.388,1,2.11,2.67,9.86,2.67Zm-7.664-8.827-.488-.531Z" transform="translate(-102.48 -443.1)"/>
      </g>
    </g>
  </g>
</svg>
