<svg id="Grupo_1189749" data-name="Grupo 1189749" xmlns="http://www.w3.org/2000/svg" width="82" height="82" viewBox="0 0 82 82">
  <rect id="Rectángulo_402627" data-name="Rectángulo 402627" width="82" height="82" fill="none"/>
  <g id="Grupo_1189824" data-name="Grupo 1189824" transform="translate(7.064 7)">
    <path id="Trazado_878071" data-name="Trazado 878071" d="M.964,26.747a15.052,15.052,0,0,1,2.257-7.454c4.4-6.919,13.367-7.357,16-7.328q.686.005,1.37.056a32.354,32.354,0,0,1,8.028-6.965A40.716,40.716,0,0,1,38.684.688C43.388-.545,46.8-.12,48.841,1.95A7.448,7.448,0,0,1,50.8,7.737a5.849,5.849,0,0,1,.937.971c1.55,2.026,2.1,5.676.3,8.036-1.6,2.112-4.239,2.044-7.58,1.959a37.318,37.318,0,0,0-9.617.7,30.222,30.222,0,0,0-6.653,2.34S28.173,25,31.281,25H42.554c16.125,0,20.12,14.074,20.9,17.868a19.076,19.076,0,0,1,.087,6.022c1.029-.335,2.11-.631,3.229-.883a1.733,1.733,0,0,1,1.5.348A1.71,1.71,0,0,1,68.9,49.73a26.084,26.084,0,0,1-.962,6.449c-.954,3.219-2.528,5.42-4.684,6.542l-.016.008a6.744,6.744,0,0,1-3.106.824,5.551,5.551,0,0,1-.906-.074A6.24,6.24,0,0,1,56.8,62.5a3.168,3.168,0,0,0-.038.488,5.192,5.192,0,0,1-5.187,5.186H30.607a2.658,2.658,0,0,1-2.654-2.656V64.85a4.04,4.04,0,0,1,4.07-4h6.841L37.3,59.639a3.553,3.553,0,0,0-1.75-.721,25.608,25.608,0,0,1-10.342-3.7,24.354,24.354,0,0,1-5.157-4.445l-.011,14.186a3.258,3.258,0,0,1-3.275,3.233H10.231a2.656,2.656,0,0,1-2.656-2.617,4.765,4.765,0,0,1,2.9-4.406,1.348,1.348,0,0,0,.83-1.228V51.973a1,1,0,0,1,2,0v2.752a11.355,11.355,0,0,0,4.743,1.311l.005-6.554a1.531,1.531,0,0,1,2.733-.948,22.312,22.312,0,0,0,12.85,8.036,18.367,18.367,0,0,1-.143-5.588A17.913,17.913,0,0,1,34,48.463a25.457,25.457,0,0,0-5.756-6.071c-1.248-.942-4.93-2.91-4.957-2.924l-.021-.01a16.963,16.963,0,0,0-11.1-1.865l.112.277A13.874,13.874,0,0,1,13.3,43.054v4.258a1,1,0,0,1-2,0V43.054a11.862,11.862,0,0,0-.87-4.431L8.806,34.6a1.473,1.473,0,0,0-1.376-.9C.967,33.665.963,26.79.963,26.79s0-.029,0-.043ZM15.585,57.7a13.416,13.416,0,0,1-2.281-.758v3A3.343,3.343,0,0,1,11.269,63a2.77,2.77,0,0,0-1.7,2.555.652.652,0,0,0,.658.636h6.532a1.259,1.259,0,0,0,1.277-1.237l.005-6.921a13.432,13.432,0,0,1-2.46-.339ZM47.416,3.351c-3.326-3.382-12.657.3-17.758,3.41a30.168,30.168,0,0,0-6.691,5.567,21.662,21.662,0,0,1,2.3.563,31.91,31.91,0,0,1,6.017-3.57A40.716,40.716,0,0,1,41.814,6.208a14.819,14.819,0,0,1,7.008.416,5.459,5.459,0,0,0-1.406-3.273ZM59.551,61.509a4.472,4.472,0,0,0,2.77-.555l.012-.006c3.824-1.992,4.456-8.468,4.556-10.921a32.6,32.6,0,0,0-3.783,1.124,20.865,20.865,0,0,1-5.385,9.56,4.414,4.414,0,0,0,1.83.8ZM44.487,66.181h7.09a3.192,3.192,0,0,0,3.189-3.188,5.329,5.329,0,0,1,1.513-3.663,18.88,18.88,0,0,0,5.464-13.417q0-.481-.029-.956a19.024,19.024,0,0,0-5.21,1.081,1,1,0,1,1-.682-1.878,21,21,0,0,1,5.675-1.19A19.159,19.159,0,0,0,48.08,27.8a52.372,52.372,0,0,0-1.474,7.43,59.68,59.68,0,0,0,.4,15.53,18.634,18.634,0,0,1,4.442-4.348,1,1,0,0,1,1.139,1.641c-5.354,3.718-6.872,9.454-7.367,11.553A28.077,28.077,0,0,0,44.487,66.181Zm-8.744-9.251.044.006a5.551,5.551,0,0,1,2.734,1.125l1.959,1.516a1.826,1.826,0,0,1-1.116,3.272H32.022a2.041,2.041,0,0,0-2.072,2v.673a.658.658,0,0,0,.657.658H42.489A28.129,28.129,0,0,1,45.46,53.246,55.118,55.118,0,0,1,44.34,38c-8.049,5.549-8.745,12.295-8.867,13.239a16.514,16.514,0,0,0,.27,5.691ZM29.452,40.8a27.375,27.375,0,0,1,5.365,5.369c2.5-5.814,7.509-9.343,9.752-10.691.019-.163.035-.326.055-.489a54.348,54.348,0,0,1,1.514-7.657,19.318,19.318,0,0,0-3.584-.335H32.079a47.4,47.4,0,0,1-3,8.819C28.54,37,27.942,38.184,27.3,39.333,28.04,39.788,28.76,40.275,29.452,40.8ZM7.441,31.7a3.463,3.463,0,0,1,3.216,2.146l.752,1.856A18.958,18.958,0,0,1,24.2,37.689q.69.311,1.362.658c.614-1.1,1.186-2.224,1.7-3.362a45.358,45.358,0,0,0,2.8-8.14,5.106,5.106,0,0,1-3.8-4.082l-.031.018a1,1,0,0,1-1-1.731,41.977,41.977,0,0,1,9.169-3.6,39.039,39.039,0,0,1,10.1-.749c3.256.083,5,.069,5.94-1.172,1.046-1.367.9-4.042-.3-5.613-.412-.538-4.682-4.843-18.039,1.22a30.658,30.658,0,0,0-11.249,8.744,1,1,0,1,1-1.544-1.268,35.269,35.269,0,0,1,4.027-4.168c-1.57-.357-13.267-2.188-18.439,5.917a12.873,12.873,0,0,0-1.945,6.446S2.9,31.677,7.441,31.7Z" transform="translate(-0.963 0)"/>
  </g>
</svg>
