<svg xmlns="http://www.w3.org/2000/svg" width="82" height="82" viewBox="0 0 82 82">
  <g id="Grupo_1189777" data-name="Grupo 1189777" transform="translate(-0.395 -0.41)">
    <rect id="Rectángulo_402627" data-name="Rectángulo 402627" width="82" height="82" transform="translate(0.395 0.41)" fill="none"/>
    <g id="Layer_5" transform="translate(9.396 10.793)">
      <path id="Trazado_878078" data-name="Trazado 878078" d="M28.663,48.131a31.427,31.427,0,0,0,16-6.2C54.7,34.936,58.5,27.2,55.984,18.928a2.6,2.6,0,0,1,.908-2.725A6.33,6.33,0,0,0,58.2,14.56l5.259-1.388a.309.309,0,0,0,.059-.576l-4.833-2.4A5.983,5.983,0,0,0,56.872,7.34c-3.324-2.907-9.037-2-11.934,1.709L43.258,11.2c-2.336,3-2.336,3-4.36,3.251-.754.092-1.727.211-3.072.474C13.293,19.344,7.7,31.4,2.293,43.046,1.58,44.582.868,46.118.119,47.633a1.137,1.137,0,0,0,1.14,1.633,27.048,27.048,0,0,0,6.957-1.972c3.668-1.441,6.621-2.348,10.568-.279A19.5,19.5,0,0,0,26,48.262l.4,0v4.466H24.014a1.134,1.134,0,0,0,0,2.269l8.712,0a1.135,1.135,0,0,0,0-2.27H28.662V48.131ZM56.64,11.772a3.552,3.552,0,0,1-1.214,2.7,4.824,4.824,0,0,0-1.614,5.11c2.233,7.324-1.185,14.025-10.5,20.524A29.66,29.66,0,0,1,26,45.992a17.4,17.4,0,0,1-6.266-1.034c-4.573-2.412-7.775-1.568-12.345.222a34.078,34.078,0,0,1-4.267,1.446L4.349,44c1.1-2.36,2.178-4.694,3.388-6.95a91.94,91.94,0,0,1,12.4-2.586c4.862-.531,9.186-1,15.3-7.083a17.712,17.712,0,0,0,2.311-2.751c.721-1.065,1.34-2.239.9-2.59-.427-.339-1.535.515-2.474,1.382-.762.7-1.439,1.458-2.167,2.19-5.63,5.672-9.474,6.094-14.111,6.6A87.613,87.613,0,0,0,9.313,34.292C14.018,26.6,20.992,20.147,36.259,17.16c1.274-.25,2.2-.364,2.912-.452,2.765-.34,3.15-.606,5.873-4.1l1.68-2.156c2-2.569,6.03-3.69,8.651-1.4a3.678,3.678,0,0,1,1.265,2.722Zm-3.574.336a1.394,1.394,0,1,0-1.583-1.174A1.395,1.395,0,0,0,53.066,12.108Z" transform="translate(0)" fill="#fff" fill-rule="evenodd"/>
    </g>
  </g>
</svg>
