<svg xmlns="http://www.w3.org/2000/svg" width="74.078" height="74.693" viewBox="0 0 74.078 74.693">
  <g id="Grupo_1189832" data-name="Grupo 1189832" transform="translate(-211.394 -2146)">
    <path id="Rectángulo_402596" data-name="Rectángulo 402596" d="M74.078,0h0a0,0,0,0,1,0,0V65.31a9.383,9.383,0,0,1-9.383,9.383H0a0,0,0,0,1,0,0v-.615A74.078,74.078,0,0,1,74.078,0Z" transform="translate(211.394 2146)" fill="#26c790"/>
    <path id="Trazado_874772" data-name="Trazado 874772" d="M9.493,4.127a.788.788,0,0,1,.716.346,1.387,1.387,0,0,1,.222.766,1.27,1.27,0,0,1-.222.741.809.809,0,0,1-.716.321H6.331q0,1.136,0,2.026a8.932,8.932,0,0,1-.049,1.186.851.851,0,0,1-.346.741,1.235,1.235,0,0,1-1.482,0,.851.851,0,0,1-.346-.741V6.3H1.144A1.139,1.139,0,0,1,.23,5.98a.933.933,0,0,1-.222-.741,1.412,1.412,0,0,1,.346-.766.989.989,0,0,1,.79-.346H4.108V1.114A1.022,1.022,0,0,1,4.454.225,1.124,1.124,0,0,1,5.195,0a1.244,1.244,0,0,1,.741.321.989.989,0,0,1,.346.79A7.2,7.2,0,0,1,6.331,2.2q0,.84,0,1.927Z" transform="translate(267.394 2208.114) rotate(-43)" fill="#fff"/>
    <g id="Grupo_1189831" data-name="Grupo 1189831" transform="translate(216.267 2150.461)">
      <path id="Trazado_878095" data-name="Trazado 878095" d="M10.355,38.558a19.608,19.608,0,0,1,16.309-4.3,23.161,23.161,0,0,1,3.631.983c6.96.181,11.244,2.938,13.615,5.227a15.609,15.609,0,0,1,3.424,4.767c3.322,1.219,5.393,4.378,6.581,6.193A25.252,25.252,0,0,0,56.7,54.949L66.8,65.621a6.221,6.221,0,0,1,1.673,3.487,3.981,3.981,0,0,1-.9,3.288c-.056.06-.114.118-.174.174a4.684,4.684,0,0,1-1.68,2.8,6.271,6.271,0,0,1-4,1.2,12.813,12.813,0,0,1-2.153-.2c-.2-.03-2.713-.412-5.243-1.061-.069.232-.13.432-.184.607-.388,1.267-.438,1.43-.85,5.434a.714.714,0,0,1-.7.641.731.731,0,0,1-.615-.342l-.719-1.1-.433,3.006a.714.714,0,0,1-1.313.274,16.066,16.066,0,0,1-1.542-3.564,9.454,9.454,0,0,1-.007-6.121l-5.267-.533c-.02.061-.041.123-.062.183a4.653,4.653,0,0,0,.256,4.238,1.719,1.719,0,0,1,.1,1.684,1.753,1.753,0,0,1-1.408.987A11.372,11.372,0,0,1,39.2,80.7l-.666,2.329,0,.016a5.248,5.248,0,0,1-7.348,3.144L15.759,78.528a5.25,5.25,0,0,1-1.427-8.362l11.15-11.457a15.566,15.566,0,0,1,4.965-10.67A16.251,16.251,0,0,1,34.071,45.5a22.905,22.905,0,0,0-5.456-3.672c-.144-.07-.292-.139-.443-.209a32,32,0,0,0-4.617-.269,17.129,17.129,0,0,0-8.168,1.78.714.714,0,0,1-.9-.152.744.744,0,0,1-.1-.783,7.572,7.572,0,0,1,2.151-2.762,28.868,28.868,0,0,0-5.331.775.979.979,0,0,1-1.108-.481.941.941,0,0,1,.255-1.169Zm32.511,2.888a16.915,16.915,0,0,0-8.454-4.316,29.428,29.428,0,0,1,2.575,1.63,21.81,21.81,0,0,1,5.5,5.312,8.842,8.842,0,0,1,1.623.374,7.928,7.928,0,0,0,1.393.342,15.072,15.072,0,0,0-2.635-3.342Zm24.2,28.717a3.743,3.743,0,0,0-.009-.883,4.6,4.6,0,0,0-.586-1.728,1.313,1.313,0,0,0-.918-.349c-.274.054-.495.363-.633.612a.515.515,0,0,0-.036.422.472.472,0,0,0,.269.284A4.362,4.362,0,0,1,67.068,70.163ZM49.74,81.04l.37-2.566a.714.714,0,0,1,1.3-.288l.668,1.026a15.179,15.179,0,0,1,.693-3.706c.051-.166.108-.353.173-.569a16.155,16.155,0,0,0-2.908-.577l-.6-.06c-1.074,2.235-.412,4.931.3,6.741ZM31.417,49.086a14.045,14.045,0,0,0-4.526,9.967,11.941,11.941,0,0,1-2.1,5.441,23.033,23.033,0,0,0-2.41,5.118.714.714,0,0,1-.683.507.723.723,0,0,1-.294-.063.733.733,0,0,1-.381-.888,24.273,24.273,0,0,1,2.535-5.4,24.676,24.676,0,0,0,1.266-2.347L15.4,71.111a3.9,3.9,0,0,0-1.089,3.277,3.786,3.786,0,0,0,2.08,2.86l15.424,7.662a3.822,3.822,0,0,0,5.348-2.282l.621-2.171a12.151,12.151,0,0,1-6.943-4.776,9.16,9.16,0,0,1-1.773-6.647,15.84,15.84,0,0,0-.419-6.68c-1.517-4.382.482-6.869.568-6.972a.714.714,0,0,1,1.1.905c-.064.081-1.563,2.017-.322,5.6a17.235,17.235,0,0,1,.488,7.318,7.74,7.74,0,0,0,1.5,5.617c3.309,4.388,7.335,4.68,9.441,4.464a.332.332,0,0,0,.269-.189.3.3,0,0,0-.015-.3,6.026,6.026,0,0,1-.4-5.485c1.389-3.888-.334-11.188-1.433-13.228a11.733,11.733,0,0,0-2.817-3.673.714.714,0,1,1,.836-1.157,12.76,12.76,0,0,1,3.238,4.153c1.035,1.922,2.713,8.251,1.927,12.8l7.15.723a17.615,17.615,0,0,1,3.257.654,54.344,54.344,0,0,0,6.344,1.374l.016,0c2.241.385,3.929.149,5.017-.7a3.182,3.182,0,0,0,.716-.782,5.277,5.277,0,0,1-1,.093q-.123,0-.25-.005a15.446,15.446,0,0,1-3.7-1.141,6.224,6.224,0,0,0-3.534-.853.718.718,0,1,1-.181-1.424,7.745,7.745,0,0,1,4.347,1,15.085,15.085,0,0,0,3.126,1,2.966,2.966,0,0,0,1.94-.5,3.547,3.547,0,0,0-1.657-1.808,1.905,1.905,0,0,1-1.079-1.13,1.945,1.945,0,0,1,.133-1.589,2.5,2.5,0,0,1,1.389-1.264l-9.4-9.929a26.685,26.685,0,0,1-2.94-3.721c-1.736-2.651-3.872-5.518-7.273-5.985a9.377,9.377,0,0,1-1.81-.431,7.163,7.163,0,0,0-3.933-.18,11.905,11.905,0,0,1-2.675.638l-1.55.171a14.116,14.116,0,0,0-4.063,2.661Zm-8.392-9.156a25.13,25.13,0,0,0-3.862-.5A8.6,8.6,0,0,0,17.1,40.84a22.1,22.1,0,0,1,5.922-.911Zm6.275.645a23.26,23.26,0,0,1,6.284,4.4l1.289-.143a10.509,10.509,0,0,0,2.356-.565A5.4,5.4,0,0,1,40.66,44a25.87,25.87,0,0,0-14.254-8.332,17.9,17.9,0,0,0-13.365,2.716A26.6,26.6,0,0,1,29.3,40.575Z" transform="translate(-9.996 -33.914)"/>
      <path id="Trazado_878096" data-name="Trazado 878096" d="M187,212.245a1.852,1.852,0,1,1-1.853,1.852A1.852,1.852,0,0,1,187,212.245Zm0,2.278a.425.425,0,1,0-.425-.425A.425.425,0,0,0,187,214.523Z" transform="translate(-151.159 -191.034)"/>
    </g>
  </g>
</svg>
