<svg id="Grupo_1188539" data-name="Grupo 1188539" xmlns="http://www.w3.org/2000/svg" width="83.701" height="84.387" viewBox="0 0 83.701 84.387">
  <path id="Rectángulo_402596" data-name="Rectángulo 402596" d="M83.7,0h0a0,0,0,0,1,0,0V73.785a10.6,10.6,0,0,1-10.6,10.6H0a0,0,0,0,1,0,0V83.7A83.7,83.7,0,0,1,83.7,0Z" transform="translate(0)" fill="#fdaa30"/>
  <path id="Trazado_874772" data-name="Trazado 874772" d="M10.583,4.6a.878.878,0,0,1,.8.386,1.546,1.546,0,0,1,.248.854,1.416,1.416,0,0,1-.248.826.9.9,0,0,1-.8.358H7.058q0,1.267,0,2.258A9.958,9.958,0,0,1,7,10.6a.949.949,0,0,1-.386.826,1.377,1.377,0,0,1-1.652,0A.949.949,0,0,1,4.58,10.6V7.025h-3.3A1.27,1.27,0,0,1,.256,6.667a1.04,1.04,0,0,1-.248-.826,1.574,1.574,0,0,1,.386-.854A1.1,1.1,0,0,1,1.275,4.6h3.3V1.242A1.139,1.139,0,0,1,4.965.25,1.254,1.254,0,0,1,5.792,0a1.387,1.387,0,0,1,.826.358A1.1,1.1,0,0,1,7,1.242a8.027,8.027,0,0,1,.055,1.212q0,.936,0,2.148Z" transform="translate(62.323 70.818) rotate(-43)" fill="#fff"/>
  <g id="Grupo_1189836" data-name="Grupo 1189836" transform="translate(0 13.068)">
    <g id="Grupo_1189837" data-name="Grupo 1189837" transform="translate(0 0)">
      <g id="Grupo_1189836-2" data-name="Grupo 1189836" transform="translate(0 0)">
        <path id="Trazado_878104" data-name="Trazado 878104" d="M2.431,57.918A9.268,9.268,0,0,1,7.3,55.1a9.283,9.283,0,0,1,3.031-8.251.991.991,0,0,1,1.315,1.482,7.3,7.3,0,0,0-2.215,7.333.991.991,0,0,1-.862,1.239A7.3,7.3,0,0,0,6.565,70.949a.991.991,0,0,1,.621.905,7.33,7.33,0,0,0,7.3,7.2,7.233,7.233,0,0,0,5.321-2.3.99.99,0,0,1,1.516.085A7.3,7.3,0,0,0,33.43,76.24a.991.991,0,0,1,1.267-.385,7.238,7.238,0,0,0,3.083.683,7.315,7.315,0,0,0,5.982-3.117.99.99,0,0,1,1.3-.294,4.854,4.854,0,0,0,7.141-3.25,11.765,11.765,0,0,1-10.786-4.493c-1.342,2.483-2.982,3.9-4.533,3.9a2.5,2.5,0,0,1-.646-.084c-1.328-.353-2.218-1.738-2.5-3.9a17.418,17.418,0,0,1,.58-6.517,14.9,14.9,0,0,1,3.782-7.1,5.612,5.612,0,0,1,1.548-4.738,7.3,7.3,0,0,0-7.83-.757.991.991,0,0,1-1.335-.433,4.855,4.855,0,0,0-9.037,1.009A.991.991,0,0,1,20,47.391a7.34,7.34,0,0,0-4.918-.76.991.991,0,0,1-.38-1.945,9.348,9.348,0,0,1,5.2.474,6.839,6.839,0,0,1,11.851-1.12,9.283,9.283,0,0,1,9.554,1.72,5.652,5.652,0,0,1,.8-.305,5.655,5.655,0,0,1,9.95-2.843,5.655,5.655,0,0,1,7.714,3.862,5.653,5.653,0,0,1,6.582,7.7,5.7,5.7,0,0,1-.641,1.126,16.47,16.47,0,0,1,1.735,5.745.991.991,0,1,1-1.965.256,15.529,15.529,0,0,0-1.27-4.59,5.709,5.709,0,0,1-1.743.744c.016.248.025.5.025.746a11.7,11.7,0,0,1-1.743,6.156c.719,3.653,2.192,5.493,2.992,5.416.619-.059,1.6-1.511,1.851-4.553a.991.991,0,1,1,1.975.161c-.31,3.8-1.669,6.175-3.636,6.364q-.123.012-.245.012c-1.858,0-3.527-2.039-4.491-5.4a11.791,11.791,0,0,1-4.944,3.068,6.848,6.848,0,0,1-5.529,6.184V90.384A2.733,2.733,0,0,1,46,93.114H44.307a2.732,2.732,0,0,1-2.683,2.242H39.47a2.733,2.733,0,0,1-2.73-2.729V88.812a.991.991,0,0,1,1.982,0v3.815a.749.749,0,0,0,.749.748h2.154a.748.748,0,0,0,.748-.748V77.3a9.282,9.282,0,0,1-3.651,1.173v6.215a.991.991,0,0,1-1.982,0V78.46a9.16,9.16,0,0,1-2.09-.483,9.289,9.289,0,0,1-14.2.888q-.151.126-.307.245a1,1,0,0,1,.01.131V92.961a2.733,2.733,0,0,1-2.73,2.73H16.375a2.733,2.733,0,0,1-2.543,1.744H11.678a2.733,2.733,0,0,1-2.73-2.729V79.2a9.409,9.409,0,0,1-.984-.844,9.222,9.222,0,0,1-2.73-5.832,9.284,9.284,0,0,1-2.8-14.608ZM39.5,54.677a5.65,5.65,0,0,1-.669-.909,15.066,15.066,0,0,0-2.6,5.52c-1.172,4.411-.464,7.732.519,7.994.624.165,2.132-.957,3.433-3.874a11.767,11.767,0,0,1-.679-8.732Zm21.827.947.034,0a3.671,3.671,0,1,0-1.946-6.894.991.991,0,0,1-1.461-.881,3.672,3.672,0,0,0-5.665-3.118.991.991,0,0,1-1.4-.338,3.671,3.671,0,0,0-6.85,1.866.991.991,0,0,1-.855.991,3.688,3.688,0,0,0-1.434.514,1,1,0,0,1-.144.093,3.672,3.672,0,1,0,5.747,3,.991.991,0,0,1,.855-.991,3.714,3.714,0,0,0,1.5-.555.991.991,0,0,1,1.4.338,3.669,3.669,0,0,0,4.924,1.394.991.991,0,0,1,1.461.881,3.675,3.675,0,0,0,3.838,3.7ZM60.52,58.2c0-.21-.008-.42-.021-.629a5.662,5.662,0,0,1-4.832-4.278,5.66,5.66,0,0,1-5.733-1.87,5.743,5.743,0,0,1-.646.231,5.653,5.653,0,0,1-7.817,4.431q-.138-.059-.27-.124A9.789,9.789,0,1,0,60.52,58.2ZM44.355,91.133H46a.75.75,0,0,0,.749-.749V75.7a6.84,6.84,0,0,1-1.883-.469c-.163.192-.335.375-.512.552V91.133ZM16.563,93.709h.856a.75.75,0,0,0,.749-.749V80.267a9.332,9.332,0,0,1-1.605.529V93.709Zm-5.633,1a.749.749,0,0,0,.749.748h2.153a.749.749,0,0,0,.749-.748V81.033l-.1,0a9.266,9.266,0,0,1-3.556-.7V94.706Z" transform="translate(-0.006 -40.57)"/>
      </g>
    </g>
    <g id="Grupo_1189839" data-name="Grupo 1189839" transform="translate(54.405 16.998)">
      <g id="Grupo_1189838" data-name="Grupo 1189838" transform="translate(0 0)">
        <path id="Trazado_878105" data-name="Trazado 878105" d="M85.756,169.36a.991.991,0,0,1,.991.991v.12a.991.991,0,1,1-1.982,0v-.12A.991.991,0,0,1,85.756,169.36Z" transform="translate(-84.765 -169.36)"/>
      </g>
    </g>
    <g id="Grupo_1189841" data-name="Grupo 1189841" transform="translate(46.278 16.998)">
      <g id="Grupo_1189840" data-name="Grupo 1189840" transform="translate(0 0)">
        <path id="Trazado_878106" data-name="Trazado 878106" d="M147.332,169.36a.991.991,0,0,1,.991.991v.12a.991.991,0,1,1-1.982,0v-.12A.991.991,0,0,1,147.332,169.36Z" transform="translate(-146.341 -169.36)"/>
      </g>
    </g>
    <g id="Grupo_1189843" data-name="Grupo 1189843" transform="translate(13.715 12.011)">
      <g id="Grupo_1189842" data-name="Grupo 1189842" transform="translate(0)">
        <path id="Trazado_878107" data-name="Trazado 878107" d="M394.063,131.573a.991.991,0,0,1,.991.991v.12a.991.991,0,1,1-1.982,0v-.12A.991.991,0,0,1,394.063,131.573Z" transform="translate(-393.072 -131.573)"/>
      </g>
    </g>
    <g id="Grupo_1189845" data-name="Grupo 1189845" transform="translate(16.395 14.193)">
      <g id="Grupo_1189844" data-name="Grupo 1189844" transform="translate(0)">
        <path id="Trazado_878108" data-name="Trazado 878108" d="M373.751,148.106a.991.991,0,0,1,.991.991v.12a.991.991,0,1,1-1.982,0v-.12A.991.991,0,0,1,373.751,148.106Z" transform="translate(-372.76 -148.106)"/>
      </g>
    </g>
    <g id="Grupo_1189847" data-name="Grupo 1189847" transform="translate(13.119 22.092)">
      <g id="Grupo_1189846" data-name="Grupo 1189846">
        <path id="Trazado_878109" data-name="Trazado 878109" d="M341.675,207.967a.993.993,0,0,1,1.127.829,4.567,4.567,0,0,0,1.731,2.739,5.905,5.905,0,0,0,4.6.636.991.991,0,0,1,.367,1.947,11.307,11.307,0,0,1-2.088.207,6.793,6.793,0,0,1-4.047-1.192,6.525,6.525,0,0,1-2.52-4.048A.988.988,0,0,1,341.675,207.967Z" transform="translate(-340.831 -207.956)"/>
      </g>
    </g>
    <g id="Grupo_1189849" data-name="Grupo 1189849" transform="translate(23.362 13.496)">
      <g id="Grupo_1189848" data-name="Grupo 1189848" transform="translate(0)">
        <path id="Trazado_878110" data-name="Trazado 878110" d="M279.906,143.589a.991.991,0,0,1,1.354-.362c2.444,1.413,3.935.06,4.1-.106a.991.991,0,0,1,1.419,1.383,4.876,4.876,0,0,1-3.413,1.332,6.158,6.158,0,0,1-3.1-.894A.991.991,0,0,1,279.906,143.589Z" transform="translate(-279.772 -142.826)"/>
      </g>
    </g>
    <g id="Grupo_1189851" data-name="Grupo 1189851" transform="translate(29.367 31.083)">
      <g id="Grupo_1189850" data-name="Grupo 1189850" transform="translate(0)">
        <path id="Trazado_878111" data-name="Trazado 878111" d="M234.405,276.846a.991.991,0,0,1,1.354-.362c2.444,1.413,3.935.06,4.1-.106a.991.991,0,0,1,1.419,1.383,4.875,4.875,0,0,1-3.413,1.332,6.156,6.156,0,0,1-3.1-.894A.991.991,0,0,1,234.405,276.846Z" transform="translate(-234.272 -276.082)"/>
      </g>
    </g>
  </g>
</svg>
