<svg id="Grupo_1189808" data-name="Grupo 1189808" xmlns="http://www.w3.org/2000/svg" width="83.701" height="84.387" viewBox="0 0 83.701 84.387">
  <path id="Rectángulo_402596" data-name="Rectángulo 402596" d="M83.7,0h0a0,0,0,0,1,0,0V73.785a10.6,10.6,0,0,1-10.6,10.6H0a0,0,0,0,1,0,0V83.7A83.7,83.7,0,0,1,83.7,0Z" transform="translate(0)" fill="#fdaa30"/>
  <path id="Trazado_874772" data-name="Trazado 874772" d="M10.583,4.6a.878.878,0,0,1,.8.386,1.546,1.546,0,0,1,.248.854,1.416,1.416,0,0,1-.248.826.9.9,0,0,1-.8.358H7.058q0,1.267,0,2.258A9.958,9.958,0,0,1,7,10.6a.949.949,0,0,1-.386.826,1.377,1.377,0,0,1-1.652,0A.949.949,0,0,1,4.58,10.6V7.025h-3.3A1.27,1.27,0,0,1,.256,6.667a1.04,1.04,0,0,1-.248-.826,1.574,1.574,0,0,1,.386-.854A1.1,1.1,0,0,1,1.275,4.6h3.3V1.242A1.139,1.139,0,0,1,4.965.25,1.254,1.254,0,0,1,5.792,0a1.387,1.387,0,0,1,.826.358A1.1,1.1,0,0,1,7,1.242a8.027,8.027,0,0,1,.055,1.212q0,.936,0,2.148Z" transform="translate(62.323 70.818) rotate(-43)" fill="#fff"/>
  <g id="Grupo_1189856" data-name="Grupo 1189856" transform="translate(10.255 14)">
    <path id="Trazado_878115" data-name="Trazado 878115" d="M12,11a1,1,0,0,0,0,2,1.787,1.787,0,0,1,1.776,1H12a1,1,0,0,0,0,2h3a1,1,0,0,0,1-1A3.887,3.887,0,0,0,12,11Z" fill="#fff"/>
    <path id="Trazado_878116" data-name="Trazado 878116" d="M56,16H30c-6.657,0-8.626-2.79-10.362-5.25C18.336,8.906,16.991,7,14,7H11a5.247,5.247,0,0,0-4.737,3.177C2.119,11.612.137,17.427.052,17.683a.994.994,0,0,0,0,.633l1,3A1,1,0,0,0,2,22a13,13,0,0,1,2.385.309,14.7,14.7,0,0,0,2.758.344,6.055,6.055,0,0,0,3.309-.932A50.212,50.212,0,0,1,12,34a8.444,8.444,0,0,0,2.4,5.544,10.381,10.381,0,0,1,.746.982A5.119,5.119,0,0,1,16,44a4.027,4.027,0,0,0,1,2.379v4.207l-1.707,1.707A1,1,0,0,0,15,53v3a1,1,0,0,0,1,1h4a.991.991,0,0,0,.5-.138A1,1,0,0,0,21,57h4a1,1,0,0,0,.97-.757l1-4A1,1,0,0,0,27,52V40.057a23.844,23.844,0,0,1,4.054.825A25.492,25.492,0,0,0,38,42a13.112,13.112,0,0,0,6.072-1.309,6.575,6.575,0,0,0,.911,2.173A5.7,5.7,0,0,1,46,46c0,2.542-2.681,5.267-2.708,5.294A1,1,0,0,0,43,52v3a1,1,0,0,0,1,1h4a1,1,0,0,0,.894-.553l.961-1.923C50.3,52.923,53,49.093,53,46a7.958,7.958,0,0,0-.553-2.319A7.63,7.63,0,0,1,52,42v-.585A9.324,9.324,0,0,1,54,46c0,4.624-.89,6.542-.9,6.553A1,1,0,0,0,53,53v2a1,1,0,0,0,1,1h4a1,1,0,0,0,.948-.684l1-3A.965.965,0,0,0,60,52V43a11.624,11.624,0,0,0-.43-2.481A15.9,15.9,0,0,1,59,37a4.621,4.621,0,0,1,.7-2.425,13.3,13.3,0,0,0,.618-1.332A13.642,13.642,0,0,0,62.5,34.868,1,1,0,0,0,64,34V25C64,20.654,60.785,16,56,16ZM24.219,55h-2.6l1.276-2.553A.99.99,0,0,0,23,52V47a12.053,12.053,0,0,1,.4-2.568,20.711,20.711,0,0,0,.586-3.789c.322-.143.68-.284,1.014-.4V51.878ZM50.553,44.319A7.658,7.658,0,0,1,51,46c0,2.181-2.022,5.359-2.8,6.4a1.13,1.13,0,0,0-.094.152L47.382,54H45V52.4c.81-.9,3-3.585,3-6.4a7.639,7.639,0,0,0-1.286-4.138A3.828,3.828,0,0,1,46,40v-.475c.158-.111.318-.223.466-.329a5.165,5.165,0,0,1,2.3-1.183A7.63,7.63,0,0,1,50,39.04V42a7.958,7.958,0,0,0,.553,2.319ZM62,32.062a8.585,8.585,0,0,1-1.118-1.141A14.888,14.888,0,0,0,61,29a8.676,8.676,0,0,0-1.768-5.622,1,1,0,1,0-1.566,1.244A6.766,6.766,0,0,1,59,29a11.9,11.9,0,0,1-.174,2.15c-.041.225-.087.433-.139.627-.012.044-.021.093-.034.135a9.024,9.024,0,0,1-.732,1.747A6.54,6.54,0,0,0,57,37a17.379,17.379,0,0,0,.625,3.985A10.894,10.894,0,0,1,58,43v8.838L57.28,54H55v-.8A20.22,20.22,0,0,0,56,46c0-3.555-4.4-8.815-6.553-9.9A1,1,0,0,0,49,36a6.2,6.2,0,0,0-3.7,1.57A10.9,10.9,0,0,1,38,40a23.547,23.547,0,0,1-6.429-1.049A20.772,20.772,0,0,0,26,38a10.209,10.209,0,0,0-3.447,1.1A1,1,0,0,0,22,40a17.242,17.242,0,0,1-.551,3.993A13.677,13.677,0,0,0,21,47v4.764L19.382,55H17V53.414l1.707-1.707A1,1,0,0,0,19,51V46a1.01,1.01,0,0,0-.29-.7A2.486,2.486,0,0,1,18,44a7.039,7.039,0,0,0-1.149-4.526,11.708,11.708,0,0,0-.9-1.2A6.579,6.579,0,0,1,14,34V29a9.876,9.876,0,0,1,3.6-7.2A1,1,0,0,0,18,21a1,1,0,0,1,1-1,1,1,0,0,0,0-2,3.005,3.005,0,0,0-2.957,2.494,12.64,12.64,0,0,0-2.952,3.869,39.2,39.2,0,0,0-1.143-4.679,1,1,0,0,0-1.655-.391,4.183,4.183,0,0,1-3.15,1.36,12.984,12.984,0,0,1-2.384-.309,19.65,19.65,0,0,0-2.027-.312L2.388,19H3a1,1,0,0,0,0-2H2.488c.867-1.851,2.534-4.475,4.755-5.03a1.013,1.013,0,0,0,.7-.648A3.437,3.437,0,0,1,11,9h3c1.868,0,2.657,1,4,2.9,1.613,2.286,3.765,5.315,9.614,5.965A3.981,3.981,0,0,0,27.1,19.1,4.009,4.009,0,0,0,24,23a1,1,0,0,0,2,0,2,2,0,0,1,2-2,1,1,0,0,0,1-1,2,2,0,0,1,2-2H47a2,2,0,0,1,2,2,1,1,0,0,0,1,1,1,1,0,0,1,1,1,1,1,0,0,0,2,0,3.006,3.006,0,0,0-2.093-2.86A3.974,3.974,0,0,0,50.454,18H56c3.536,0,6,3.689,6,7Z" fill="#fff"/>
    <path id="Trazado_878117" data-name="Trazado 878117" d="M23,34a2,2,0,0,1-2-2,1,1,0,0,0-1-1,1,1,0,0,1-1-1,1,1,0,0,0-2,0,3.006,3.006,0,0,0,2.093,2.86A4.008,4.008,0,0,0,23,36a1,1,0,0,0,0-2Z" fill="#fff"/>
    <path id="Trazado_878118" data-name="Trazado 878118" d="M45,30a1,1,0,0,0-1,1,1,1,0,0,1-1,1,1,1,0,0,0-1,1,3,3,0,0,1-3,3,1,1,0,0,0,0,2,5.009,5.009,0,0,0,4.927-4.146A3.006,3.006,0,0,0,46,31,1,1,0,0,0,45,30Z" fill="#fff"/>
    <path id="Trazado_878119" data-name="Trazado 878119" d="M56,29a1,1,0,0,1-1,1,1,1,0,0,0-1,1,2,2,0,0,1-2,2,1,1,0,0,0,0,2,4.007,4.007,0,0,0,3.907-3.14A3,3,0,0,0,58,29a1,1,0,0,0-2,0Z" fill="#fff"/>
    <path id="Trazado_878120" data-name="Trazado 878120" d="M39.5,24.5a1,1,0,0,0-2,0,1,1,0,0,1-1,1,1,1,0,0,0-1,1,3,3,0,0,1-3,3,1,1,0,0,0,0,2,5.009,5.009,0,0,0,4.927-4.146A3.006,3.006,0,0,0,39.5,24.5Z" fill="#fff"/>
  </g>
</svg>
