<svg xmlns="http://www.w3.org/2000/svg" width="82" height="82" viewBox="0 0 82 82">
  <g id="Grupo_1189737" data-name="Grupo 1189737" transform="translate(-768.832 -1965)">
    <rect id="Rectángulo_402627" data-name="Rectángulo 402627" width="82" height="82" transform="translate(768.832 1965)" fill="none"/>
    <g id="Grupo_1189739" data-name="Grupo 1189739" transform="translate(772.832 1969.698)">
      <path id="Trazado_877777" data-name="Trazado 877777" d="M75.6,51.4c-2.45-.624-8.474-2.282-11.5-4.192-6.644-4.192-15.287-16.438-23.086-6.452A16.514,16.514,0,0,0,37.956,47.7c-1.2,6.275-1,16.731,3.184,27.259A46.477,46.477,0,0,0,45.8,83.834a3.95,3.95,0,0,0,2.169,1.574,22.878,22.878,0,0,0,6.393.906,25.471,25.471,0,0,0,10.318-2.26,27.927,27.927,0,0,0,6.76-4.174,1.078,1.078,0,0,0,.376-1.153,7.319,7.319,0,0,1,5.51-9.207,1.078,1.078,0,0,0,.847-1.184,125.4,125.4,0,0,1-.681-14.479A2.509,2.509,0,0,0,75.6,51.4ZM72.253,69.873A9.454,9.454,0,0,0,69.57,78.63a25.743,25.743,0,0,1-15.226,5.533,20.648,20.648,0,0,1-5.777-.824,1.79,1.79,0,0,1-.985-.712h0a44.322,44.322,0,0,1-4.44-8.462c-4.013-10.1-4.217-20.081-3.07-26.057.734-3.828,3.245-8.738,7.7-8.849,3.847-.1,7.351,3.105,9.992,5.528a37.889,37.889,0,0,0,5.189,4.243c3.285,2.074,9.569,3.808,12.117,4.457a.359.359,0,0,1,.269.353,133.209,133.209,0,0,0,.6,13.825,9.457,9.457,0,0,0-3.679,2.208Z" transform="translate(-31.956 -31.367)"/>
      <path id="Trazado_877778" data-name="Trazado 877778" d="M70.773,32.979A31.932,31.932,0,0,0,50.818,16.3c-1.674-.468-3.337-.853-4.945-1.225-4-.926-7.775-1.8-10.87-3.755-5.021-3.169-8.312-8.354-14.182-10.29A14.373,14.373,0,0,0,4.834,6.1a21.519,21.519,0,0,0-3.72,7.609,1.078,1.078,0,0,0,2.081.56A19.349,19.349,0,0,1,6.532,7.426,12.178,12.178,0,0,1,20.476,3.2c5.444,1.951,8.641,6.95,13.377,9.939,3.4,2.148,7.353,3.063,11.534,4.032,1.585.367,3.224.747,4.851,1.2A29.747,29.747,0,0,1,68.83,33.911a24.531,24.531,0,0,1,.581,20.552A27.626,27.626,0,0,1,57.67,67.636c-8.254,4.728-18.451,5.1-27.3,1.848-13.881-5.1-20.8-16.254-24.165-24.714A57.848,57.848,0,0,1,2.247,20.664,1.078,1.078,0,0,0,.1,20.529a60.076,60.076,0,0,0,4.11,25.037C7.732,54.435,15,66.134,29.632,71.507c9.44,3.468,20.3,3.043,29.11-2a29.765,29.765,0,0,0,12.65-14.194,26.657,26.657,0,0,0-.619-22.334Z"/>
      <path id="Trazado_877779" data-name="Trazado 877779" d="M175.521,348.948a7.318,7.318,0,0,1-8.448-1.5,1.288,1.288,0,0,0-1.69.093,27.459,27.459,0,0,1-16.458,6.249,2.532,2.532,0,0,0-1.486,4.5,35.33,35.33,0,0,0,9.484,5.239,31.226,31.226,0,0,0,10.794,1.946c7.122,0,11.031-1.909,12.728-3.046a2.517,2.517,0,0,0,.981-2.93,96.06,96.06,0,0,0-4.481-10.074,1.077,1.077,0,0,0-1.425-.475Zm3.725,11.689c-3.609,2.42-9.264,2.681-11.528,2.681a29.487,29.487,0,0,1-10.051-1.814,33.183,33.183,0,0,1-8.907-4.919q-.348-.472.219-.643a29.554,29.554,0,0,0,17.262-6.332,9.465,9.465,0,0,0,9.239,1.685,89.658,89.658,0,0,1,3.918,8.921A.364.364,0,0,1,179.246,360.637Z" transform="translate(-125.445 -297.039)"/>
      <path id="Trazado_877780" data-name="Trazado 877780" d="M290.327,277.441a5.421,5.421,0,0,0,3.5,9.313c.092,0,.184.007.275.007a5.422,5.422,0,1,0-3.776-9.32Zm7.031,3.95a3.263,3.263,0,1,1-3.267-3.32q.083,0,.166,0h0a3.264,3.264,0,0,1,3.1,3.316Z" transform="translate(-247.203 -236.023)"/>
      <path id="Trazado_877781" data-name="Trazado 877781" d="M341.98,189.84a2.664,2.664,0,0,0,2.224-.651,24.41,24.41,0,0,0,5.615-8.091,21.387,21.387,0,0,0-.517-17.9,27.456,27.456,0,0,0-15.038-13.4,2.513,2.513,0,0,0-3.386,2.348c-.008,2.871.044,8.379.483,13.008a1.077,1.077,0,0,0,.753.927,8.372,8.372,0,0,1,2.74,1.435,1.078,1.078,0,0,0,1.349-1.68,10.405,10.405,0,0,0-2.759-1.572c-.374-4.387-.419-9.421-.412-12.112a.358.358,0,0,1,.483-.334,25.254,25.254,0,0,1,13.843,12.305,19.26,19.26,0,0,1,.48,16.117,22.269,22.269,0,0,1-5.122,7.381.361.361,0,0,1-.581-.108c-1.655-3.67-3.386-7.608-4.014-9.043a9.416,9.416,0,0,0,1.322-7.555,1.078,1.078,0,0,0-2.092.518,7.277,7.277,0,0,1-1.315,6.245,1.077,1.077,0,0,0-.136,1.092c.022.05,2.206,5.047,4.271,9.628a2.516,2.516,0,0,0,1.808,1.433Z" transform="translate(-283.349 -127.894)"/>
    </g>
  </g>
</svg>
