<svg xmlns="http://www.w3.org/2000/svg" width="82" height="82" viewBox="0 0 82 82">
  <g id="Grupo_1189678" data-name="Grupo 1189678" transform="translate(-769.073 -1963)">
    <rect id="Rectángulo_402627" data-name="Rectángulo 402627" width="82" height="82" transform="translate(769.073 1963)" fill="none"/>
    <g id="Grupo_1189715" data-name="Grupo 1189715" transform="translate(778.073 1972)">
      <path id="Trazado_877736" data-name="Trazado 877736" d="M26.783,27.977a1,1,0,0,0,1.192-.759C27.994,27.136,29.877,19,35,19s7.006,8.136,7.024,8.218a.966.966,0,0,0,1.192.759C43.614,27.888,53,25.714,53,18a8.479,8.479,0,0,0-.8-4,8.479,8.479,0,0,0,.8-4C53,2.286,43.616.112,43.217.023a1,1,0,0,0-1.192.759C42.006.864,40.123,9,35,9S27.994.864,27.976.782A1,1,0,0,0,26.784.023C26.385.112,17,2.286,17,10a8.479,8.479,0,0,0,.8,4,8.479,8.479,0,0,0-.8,4c0,7.714,9.384,9.888,9.783,9.977ZM51,10a5.569,5.569,0,0,1-.707,3.293,1.034,1.034,0,0,0-.024,1.389c.008.009.731.874.731,3.318,0,4-3.484,6.189-5.916,7.233A6.918,6.918,0,0,0,44.6,18.3a5.042,5.042,0,0,0,.122-8.513,4.923,4.923,0,0,0,.81-1.592,8.232,8.232,0,0,0-.576-5.481C47.389,3.733,51,5.93,51,10ZM35,11c4.6,0,7.062-4.388,8.188-7.29a6.288,6.288,0,0,1,.445,3.847,2.589,2.589,0,0,1-1.08,1.549,1,1,0,0,0,.126,1.842A3.437,3.437,0,0,1,45,14a3.44,3.44,0,0,1-2.316,3.052,1,1,0,0,0-.665.781,1.01,1.01,0,0,0,.374.961c.112.088,2.349,1.914.851,5.638C42.144,21.534,39.678,17,35,17c-4.6,0-7.062,4.387-8.188,7.29a6.288,6.288,0,0,1-.445-3.847,2.589,2.589,0,0,1,1.08-1.549,1,1,0,0,0-.126-1.842A3.437,3.437,0,0,1,25,14a3.44,3.44,0,0,1,2.316-3.052,1,1,0,0,0,.665-.781,1.01,1.01,0,0,0-.374-.961c-.112-.088-2.349-1.914-.851-5.638C27.857,6.467,30.323,11,35,11ZM19.731,13.318C19.723,13.309,19,12.444,19,10c0-4,3.484-6.189,5.916-7.233A6.918,6.918,0,0,0,25.4,9.7a5.042,5.042,0,0,0-.122,8.513,4.923,4.923,0,0,0-.81,1.592,8.232,8.232,0,0,0,.576,5.481C22.611,24.267,19,22.07,19,18a5.569,5.569,0,0,1,.707-3.293,1.034,1.034,0,0,0,.024-1.389Z"/>
      <path id="Trazado_877737" data-name="Trazado 877737" d="M33,15h4a1,1,0,0,0,0-2H33a1,1,0,0,0,0,2Z"/>
      <path id="Trazado_877738" data-name="Trazado 877738" d="M11.5,34.65A3.5,3.5,0,1,0,8,31.15,3.5,3.5,0,0,0,11.5,34.65Zm0-5a1.5,1.5,0,1,1-1.5,1.5A1.5,1.5,0,0,1,11.5,29.65Z"/>
      <path id="Trazado_877739" data-name="Trazado 877739" d="M37.134,55.969,39.9,50.448A1,1,0,0,0,39.025,49c-.242,0-5.7-.089-9.324,3.818a25.928,25.928,0,0,1-2.549-1.181L29.6,49.8a1,1,0,0,0-1.2-1.6L25.284,50.54a22.921,22.921,0,0,1-2.065-1.53l4.229-2.115a1,1,0,1,0-.895-1.789L21.625,47.57A21.333,21.333,0,0,1,19.9,45.557l6.345-1.587a1,1,0,0,0-.484-1.94l-7.034,1.759a21.591,21.591,0,0,1-1.13-2.121l7.623-1.692a1,1,0,1,0-.433-1.953L16.82,39.791c-.129-.361-.271-.722-.379-1.083,6.3-3,7.327-6.807,7.369-6.974a1,1,0,0,0-.361-1.038L12.12,22.016a4.952,4.952,0,0,0-7.734,2.468L.045,38.474A1,1,0,0,0,.3,39.487c.141.138,3.372,3.187,10.036,1.707.145.438.322.954.534,1.52l-6.58,6.58a1,1,0,0,0,0,1.414,1.048,1.048,0,0,0,1.414,0l6-6c.245.534.523,1.093.838,1.67L7.169,54.446a.976.976,0,0,0,.277,1.387.937.937,0,0,0,1.387-.277l4.851-7.281c.3.463.622.908.948,1.339l-3.545,7.98a1.033,1.033,0,0,0,.508,1.32.942.942,0,0,0,1.32-.508l3.143-7.076q.72.792,1.5,1.519l-1.539,6.934a1,1,0,0,0,.76,1.193.912.912,0,0,0,1.193-.76l1.31-5.9c.551.422,1.121.825,1.713,1.2V62a1,1,0,0,0,2,0V56.681c.436.228.888.438,1.341.645l1.7,5.948A1,1,0,0,0,27,64a.942.942,0,0,0,.963-1.274L26.7,58.307c.539.194,1.088.38,1.657.549C31.746,63.941,39.658,64,40,64a1,1,0,0,0,.868-1.5L37.134,55.97ZM2.162,38.4,6.295,25.077A2.952,2.952,0,0,1,10.9,23.6l10.719,8.212c-.563,1.078-2.249,3.457-6.768,5.418h0l-4.175,1.817c-4.744,1.274-7.487.013-8.514-.65ZM29.857,57.485a.992.992,0,0,0-.586-.447,26.082,26.082,0,0,1-3.679-1.329l-.014-.006a23.906,23.906,0,0,1-6.258-3.934,22.874,22.874,0,0,1-2.759-2.9,23.368,23.368,0,0,1-1.986-2.937,28.185,28.185,0,0,1-2.342-5.377l2.373-1.033c.188.606.394,1.211.634,1.811a20.522,20.522,0,0,0,4.528,7.263,25.917,25.917,0,0,0,9.889,6.344,1,1,0,0,0,1.121-.312,10.411,10.411,0,0,1,6.529-3.48l-2.2,4.406a1,1,0,0,0,.026.943l3.062,5.358c-2.384-.313-6.491-1.294-8.336-4.369Z"/>
      <path id="Trazado_877740" data-name="Trazado 877740" d="M63.96,27.721a1,1,0,0,0-.513-.615l-4-2a1,1,0,0,0-1.305.38L55.7,29.551a5.957,5.957,0,0,0-5.02-.5,13.764,13.764,0,0,0-2.674,1.23,13.145,13.145,0,0,1-5.174,1.731c-5.6.932-11.333-1.88-11.39-1.908a1,1,0,0,0-1.235.279A6.949,6.949,0,0,0,29.046,36.3c.7,2.23,2.985,5.029,9.859,5.694a14.465,14.465,0,0,0,2.723-.019,4.838,4.838,0,0,0,5.488,7.737l2.127-.95A23.65,23.65,0,0,0,49,52c0,7.019,1.182,9.781,4.684,10.948a9.26,9.26,0,0,0,2.938.494,6.742,6.742,0,0,0,2.826-.548,1,1,0,0,0,.388-1.446C59.816,61.419,58,58.569,58,53c0-3.041,1.4-5.529,2.749-7.935C61.907,43,63,41.057,63,39a10.425,10.425,0,0,0-1.784-6.082l2.642-4.4a1,1,0,0,0,.1-.794ZM46.308,47.885a2.887,2.887,0,0,1-3.375-.818,2.845,2.845,0,0,1,.2-3.789l1.893-1.893a44.862,44.862,0,0,0,6.979-2.365,46.165,46.165,0,0,0-2.335,7.363l-3.365,1.5Zm12.835-15.4a1.01,1.01,0,0,0,.145,1.216A7.8,7.8,0,0,1,61,39c0,1.536-.924,3.181-1.994,5.086C57.6,46.594,56,49.437,56,53a20.769,20.769,0,0,0,1.556,8.378,6.9,6.9,0,0,1-3.239-.326C52.377,60.406,51,59.377,51,52a23.665,23.665,0,0,1,.52-4.71A45.707,45.707,0,0,1,54.9,37.448a1,1,0,0,0-.191-1.158,1.04,1.04,0,0,0-1.159-.18,46.114,46.114,0,0,1-9.247,3.4h0a16.592,16.592,0,0,1-5.2.5c-3.192-.31-7.2-1.307-8.144-4.308a4.567,4.567,0,0,1,.437-3.425c1.913.806,6.8,2.542,11.775,1.714A15.006,15.006,0,0,0,49,32.024a12.031,12.031,0,0,1,2.323-1.076,4.032,4.032,0,0,1,3.977.759,1.007,1.007,0,0,0,.829.285,1,1,0,0,0,.735-.478l2.523-4.206,2.206,1.1-2.444,4.074Z"/>
    </g>
  </g>
</svg>
