<svg xmlns="http://www.w3.org/2000/svg" width="505" height="319.62" viewBox="0 0 505 319.62">
  <g id="Grupo_1189099" data-name="Grupo 1189099" transform="translate(3173 7522)">
    <g id="IMAGEN" transform="translate(-3173 -7522)">
      <rect id="Rectángulo_402607" data-name="Rectángulo 402607" width="44" height="153.182" rx="12" transform="translate(461 63.93)" fill="#26c790"/>
      <path id="Rectángulo_402599" data-name="Rectángulo 402599" d="M0,0H74.42a0,0,0,0,1,0,0V.61A74.42,74.42,0,0,1,0,75.03H0a0,0,0,0,1,0,0V0A0,0,0,0,1,0,0Z" transform="translate(0 76.444)" fill="#fdbab3"/>
      <path id="Rectángulo_402630" data-name="Rectángulo 402630" d="M74.42,0h0a0,0,0,0,1,0,0V75.03a0,0,0,0,1,0,0H0a0,0,0,0,1,0,0v-.61A74.42,74.42,0,0,1,74.42,0Z" transform="translate(356.16 238.489)" fill="#fff"/>
      <g id="Grupo_1188572" data-name="Grupo 1188572" transform="translate(18886.764 8877.698)">
        <path id="Rectángulo_402597" data-name="Rectángulo 402597" d="M74.42,0h0a0,0,0,0,1,0,0V75.03a0,0,0,0,1,0,0H0a0,0,0,0,1,0,0v-.61A74.42,74.42,0,0,1,74.42,0Z" transform="translate(-18456.184 -8714.241)" fill="#fdbab3"/>
        <g id="Grupo_1188466" data-name="Grupo 1188466" transform="translate(-18395.285 -8653.132) rotate(-90)">
          <path id="Trazado_874773" data-name="Trazado 874773" d="M.737,1.112c.469,0,.785.412,1.249,1.089A3,3,0,0,0,4.546,3.893,3,3,0,0,0,7.105,2.2c.464-.678.78-1.089,1.249-1.089S9.14,1.524,9.6,2.2a3,3,0,0,0,2.56,1.691A3,3,0,0,0,14.723,2.2c.464-.678.78-1.089,1.249-1.089s.785.412,1.249,1.089a3,3,0,0,0,2.56,1.691A3,3,0,0,0,22.341,2.2c.464-.678.78-1.089,1.249-1.089s.785.412,1.249,1.089A3,3,0,0,0,27.4,3.893,3,3,0,0,0,29.957,2.2c.464-.678.78-1.089,1.249-1.089s.786.412,1.25,1.089a2.783,2.783,0,0,0,5.12,0c.464-.678.78-1.089,1.249-1.089s.786.412,1.251,1.09a2.785,2.785,0,0,0,5.122,0c.465-.678.781-1.09,1.251-1.09.407,0,.737-.249.737-.556S46.857,0,46.45,0a3.006,3.006,0,0,0-2.561,1.691c-.465.678-.781,1.09-1.251,1.09s-.786-.412-1.251-1.089a2.784,2.784,0,0,0-5.121,0c-.464.678-.78,1.089-1.25,1.089s-.786-.412-1.25-1.089a2.783,2.783,0,0,0-5.12,0c-.464.678-.78,1.089-1.25,1.089s-.785-.412-1.249-1.089A3,3,0,0,0,23.59,0a3,3,0,0,0-2.559,1.691c-.464.678-.78,1.089-1.249,1.089S19,2.369,18.532,1.691A3,3,0,0,0,15.973,0a3,3,0,0,0-2.56,1.691c-.464.678-.78,1.089-1.249,1.089s-.785-.412-1.25-1.089A3,3,0,0,0,8.354,0a3,3,0,0,0-2.56,1.691c-.464.678-.78,1.089-1.249,1.089S3.761,2.369,3.3,1.691A3,3,0,0,0,.737,0C.33,0,0,.249,0,.556S.33,1.112.737,1.112Z" transform="translate(0 0)" fill="#fff"/>
        </g>
      </g>
      <g id="Grupo_1188480" data-name="Grupo 1188480" transform="translate(15.436 24.708)">
        <rect id="Rectángulo_402596" data-name="Rectángulo 402596" width="428.286" height="41" transform="translate(13.001 226.625)" fill="#12263f" opacity="0.407"/>
        <g id="Grupo_1099339" data-name="Grupo 1099339" transform="translate(0 0)">
          <g id="primer-plano-de-conejillos-de-indias" fill="#fef0ef" stroke="#1944b6" stroke-width="5">
            <rect width="474.129" height="267.625" rx="14" stroke="none"/>
            <rect x="2.5" y="2.5" width="469.129" height="262.625" rx="11.5" fill="none"/>
          </g>
        </g>
      </g>
      <g id="Grupo_1188479" data-name="Grupo 1188479" transform="translate(430.58 238.489)">
        <path id="Rectángulo_402596-2" data-name="Rectángulo 402596" d="M74.42,0h0a0,0,0,0,1,0,0V65.6a9.427,9.427,0,0,1-9.427,9.427H0a0,0,0,0,1,0,0v-.61A74.42,74.42,0,0,1,74.42,0Z" transform="translate(0)" fill="#fdaa30"/>
        <g id="Grupo_1188461" data-name="Grupo 1188461" transform="translate(27.104 28.144)">
          <path id="Trazado_874753" data-name="Trazado 874753" d="M32.106,4.606,27.958.458a1.622,1.622,0,0,0-2.259,0,1.633,1.633,0,0,0-.1,2.361l.823.823L24.041,6.02l-2-2a1.1,1.1,0,0,0-1.549,0L19,5.517a1.123,1.123,0,0,0,.045,1.593L3.791,22.366a1.493,1.493,0,0,0-.134,1.955l.058,1.872a2.727,2.727,0,0,0,.5,1.486L.157,31.733a.477.477,0,0,0,.674.674l4.054-4.054a2.727,2.727,0,0,0,1.486.5l1.872.058a1.492,1.492,0,0,0,1.955-.134L22.205,16.766a.477.477,0,0,0-.674-.674l-2.137,2.137L14.336,13.17l1.27-1.27,1.512,1.512a.477.477,0,1,0,.674-.674L16.28,11.226,17.5,10l1.512,1.512a.477.477,0,1,0,.674-.674L18.179,9.327l1.543-1.543,5.058,5.058-1.671,1.671a.477.477,0,1,0,.674.674l1.671-1.671a1.119,1.119,0,0,0,1.593.045l1.494-1.494a1.121,1.121,0,0,0,0-1.549l-2-2L27.68,7.387a.477.477,0,0,0-.674-.674L25.87,7.848,24.716,6.694l2.379-2.379,2.651,2.651a1.6,1.6,0,0,0,2.259,0,1.635,1.635,0,0,0,.1-2.361ZM9.524,28.1a.537.537,0,0,1-.76,0,.477.477,0,0,0-.322-.139L6.4,27.9a1.792,1.792,0,0,1-1.732-1.732l-.064-2.04a.477.477,0,0,0-.139-.322.538.538,0,0,1,0-.76l.965-.965,5.058,5.058Zm9.2-9.2-7.557,7.557L6.1,21.4l5.755-5.755,1.512,1.512a.477.477,0,1,0,.674-.674l-1.512-1.512,1.127-1.127Zm9.188-7.609a.138.138,0,0,1-.041.1l-1.494,1.494a.141.141,0,0,1-.2,0l-6.5-6.5c0-.04-.085-.026,0-.2L21.171,4.7c.038.009-.007-.089.2,0l6.5,6.5A.139.139,0,0,1,27.908,11.294Zm3.524-5.1-.1.1a.644.644,0,0,1-.91,0L26.272,2.144a.686.686,0,0,1,.1-1.012.664.664,0,0,1,.91,0L31.432,5.28A.644.644,0,0,1,31.432,6.19Z" transform="translate(-0.017 0)" fill="#12263f"/>
          <path id="Trazado_874754" data-name="Trazado 874754" d="M130.182,114.5a.477.477,0,0,0,.674-.674l-1.1-1.1a.477.477,0,0,0-.674.674Z" transform="translate(-120.739 -105.425)" fill="#12263f"/>
          <path id="Trazado_874755" data-name="Trazado 874755" d="M184.243,86.671a.477.477,0,0,0,.477-.477V84.425a.477.477,0,1,0-.954,0v1.769A.477.477,0,0,0,184.243,86.671Z" transform="translate(-172.082 -78.61)" fill="#12263f"/>
          <path id="Trazado_874756" data-name="Trazado 874756" d="M101.047,168.1h1.769a.477.477,0,0,0,0-.954h-1.769a.477.477,0,0,0,0,.954Z" transform="translate(-94.176 -156.518)" fill="#12263f"/>
          <ellipse id="Elipse_11492" data-name="Elipse 11492" cx="0.489" cy="0.489" rx="0.489" ry="0.489" transform="translate(11.146 22.744)" fill="#12263f"/>
          <ellipse id="Elipse_11493" data-name="Elipse 11493" cx="0.489" cy="0.489" rx="0.489" ry="0.489" transform="translate(12.767 21.174)" fill="#12263f"/>
        </g>
        <path id="Trazado_874772" data-name="Trazado 874772" d="M9.41,4.091a.781.781,0,0,1,.71.343,1.375,1.375,0,0,1,.22.759,1.259,1.259,0,0,1-.22.735.8.8,0,0,1-.71.318H6.276q0,1.126,0,2.008a8.854,8.854,0,0,1-.049,1.175.843.843,0,0,1-.343.735,1.224,1.224,0,0,1-1.469,0,.843.843,0,0,1-.343-.735V6.246H1.134a1.129,1.129,0,0,1-.906-.318.925.925,0,0,1-.22-.735A1.4,1.4,0,0,1,.35,4.434a.98.98,0,0,1,.784-.343H4.072V1.1A1.013,1.013,0,0,1,4.415.223,1.115,1.115,0,0,1,5.149,0a1.233,1.233,0,0,1,.735.318.98.98,0,0,1,.343.784,7.137,7.137,0,0,1,.049,1.077q0,.832,0,1.91Z" transform="translate(55.412 62.966) rotate(-43)" fill="#fff"/>
      </g>
      <g id="Grupo_1188575" data-name="Grupo 1188575" transform="translate(18609.916 8877.7)">
        <g id="Grupo_1188574" data-name="Grupo 1188574">
          <g id="Grupo_1188465" data-name="Grupo 1188465" transform="translate(-18609.916 -8639.212)">
            <path id="Rectángulo_402602" data-name="Rectángulo 402602" d="M0,0H74.42a0,0,0,0,1,0,0V75.03a0,0,0,0,1,0,0h0A74.42,74.42,0,0,1,0,.61V0A0,0,0,0,1,0,0Z" fill="#26c790"/>
            <g id="Grupo_1188464" data-name="Grupo 1188464" transform="translate(29.357 9.782)">
              <path id="Trazado_874763" data-name="Trazado 874763" d="M247.086,245.439a.431.431,0,0,1-.431.431h-.516a.431.431,0,0,1-.431-.431,2.823,2.823,0,0,1,.481-1.4,3.713,3.713,0,0,1,.339-.453c.136-.158.277-.336.42-.529a4.611,4.611,0,0,0,.89-2.467,38.633,38.633,0,0,0-.086-4.892.431.431,0,1,1,.859-.06,39.373,39.373,0,0,1,.087,5.005,5.471,5.471,0,0,1-1.057,2.927c-.155.209-.309.4-.458.577a2.9,2.9,0,0,0-.262.349,2.836,2.836,0,0,0-.26.517A.431.431,0,0,1,247.086,245.439Z" transform="translate(-240.779 -210.545)" fill="#fff"/>
              <path id="Trazado_874764" data-name="Trazado 874764" d="M104.484,260.107a.431.431,0,0,1-.431.431h-.893a.431.431,0,0,1-.329-.709,7.844,7.844,0,0,0,1.5-7.6.431.431,0,1,1,.825-.247,8.687,8.687,0,0,1-1.122,7.7h.017A.431.431,0,0,1,104.484,260.107Z" transform="translate(-82.226 -225.213)" fill="#fff"/>
              <path id="Trazado_874765" data-name="Trazado 874765" d="M167.974,176.362c.2.023.412.041.619.052a2.568,2.568,0,0,1,1.047.286.431.431,0,1,1-.4.764,1.708,1.708,0,0,0-.7-.19c-.222-.013-.447-.032-.666-.056a10.317,10.317,0,0,0-3.051.086c-.8,1.271-.922,3.921-.935,5.029a2.7,2.7,0,0,1-.49,1.536l-.008.008h0c-.011.017-.023.034-.035.05a9.3,9.3,0,0,0-.88,1.523.431.431,0,0,1-.393.256h-2.518a.431.431,0,0,1-.316-.723,10.549,10.549,0,0,0,1.092-1.474c.013-.02.024-.04.036-.061l.03-.051.015-.022a4.628,4.628,0,0,0,.63-2.074,28.913,28.913,0,0,0-.233-6.352c-1.759-1.212-2.8-3.455-3.1-6.672a.431.431,0,0,1,.858-.08,9,9,0,0,0,1.934,5.34,2.658,2.658,0,0,1,.057-.832.431.431,0,1,1,.836.209,3.213,3.213,0,0,0,.207,1.617c0,.011.006.022.01.034s.009.023.011.036a27.483,27.483,0,0,1,.282,6.75,5.5,5.5,0,0,1-.433,1.836h.1a.431.431,0,1,1,0,.862h-.563q-.281.437-.545.8h1.338a9.551,9.551,0,0,1,.855-1.432l.028-.042.008-.009a1.848,1.848,0,0,0,.326-1.04c.018-1.518.194-4.257,1.168-5.628a7.351,7.351,0,0,0,.5-1.1.431.431,0,0,1,.818.272c0,.014-.068.2-.191.488A11.79,11.79,0,0,1,167.974,176.362Z" transform="translate(-152.431 -150.384)" fill="#fff"/>
              <path id="Trazado_874766" data-name="Trazado 874766" d="M50.4,100.835a.431.431,0,0,1,.482-.148,3.787,3.787,0,0,1,2.447,1.991,3.358,3.358,0,0,1-.045,2.539.431.431,0,1,1-.781-.365,2.478,2.478,0,0,0,.033-1.837,2.4,2.4,0,0,0-1-1.09,3.679,3.679,0,0,1-1.058,3.314.431.431,0,0,1-.525.082c-.038-.022-3.845-2.089-10.051.032l-.023.007a13.955,13.955,0,0,1-3.229.463h-.031a3.4,3.4,0,0,1-2.628-1.238,12.339,12.339,0,0,1-1.912-3.161.431.431,0,0,1,.8-.323,11.467,11.467,0,0,0,1.778,2.935,2.539,2.539,0,0,0,1.964.926h.023a13.293,13.293,0,0,0,2.994-.428c5.6-1.908,9.337-.6,10.419-.12a2.6,2.6,0,0,0,.337-3.075A.431.431,0,0,1,50.4,100.835Z" transform="translate(-22.585 -90.469)" fill="#fff"/>
              <path id="Trazado_874767" data-name="Trazado 874767" d="M36.172,136.422a.431.431,0,0,1,.368.485,4.365,4.365,0,0,1-2.786,3.341,9,9,0,0,1-.784,3.975c-.964,2.392-.663,5.98-.489,7.413a2.752,2.752,0,0,1-.35,1.7,10.31,10.31,0,0,0-.927,2.381h0c-.243.89-.357,1.6-.358,1.611a.431.431,0,0,1-.426.363H27.61a.431.431,0,0,1-.366-.659,11.183,11.183,0,0,0,.828-1.595l0-.008a8.582,8.582,0,0,0-.39-7.7,10.516,10.516,0,0,1-1.481.625,6.37,6.37,0,0,1-4.4-.091,3.725,3.725,0,0,0-1.078-.242.431.431,0,1,1,.071-.859,4.585,4.585,0,0,1,1.328.3,5.506,5.506,0,0,0,3.8.075,8.644,8.644,0,0,0,1.673-.75.431.431,0,0,1,.573.113,9.3,9.3,0,0,1,.92,8.276h.311a.431.431,0,0,1,0,.862h-.656q-.179.4-.394.8h1.7c.06-.309.162-.788.312-1.338v0a11,11,0,0,1,1.014-2.588,1.86,1.86,0,0,0,.24-1.166c-.227-1.864-.457-5.362.548-7.847l.006-.014c.011-.023,1.029-2.332.668-3.809h0a6.462,6.462,0,0,0-.5-1.3.431.431,0,0,1,.76-.406,7.767,7.767,0,0,1,.444,1.035,3.491,3.491,0,0,0,2.139-2.608.431.431,0,0,1,.486-.369Z" transform="translate(-4.307 -122.373)" fill="#fff"/>
              <path id="Trazado_874768" data-name="Trazado 874768" d="M220.354,10.714a.98.98,0,0,1,.457.946A2.4,2.4,0,0,1,218.581,14a3.425,3.425,0,0,1-.954,2.491.98.98,0,0,0-.251.563l-.146,1.3a2.235,2.235,0,0,1-.16.616,3.7,3.7,0,0,1-1.79,3.89.431.431,0,0,1-.627-.283q-.048-.21-.1-.4c-.089.071-.174.135-.248.191a3.718,3.718,0,0,1-.96.528,3.565,3.565,0,0,1-.448.129.419.419,0,0,1-.09.01.433.433,0,0,1-.334-.7,2.668,2.668,0,0,0,.432-1.54,1.867,1.867,0,0,0-.032-.379,4.653,4.653,0,0,1-.015-1.775,2.254,2.254,0,0,1-.056-.312l-.125-1.239a.963.963,0,0,0-.185-.473,4.348,4.348,0,0,1-.944-2.75A2.654,2.654,0,0,1,210,13.5a2.582,2.582,0,0,1-1.1-1.888.985.985,0,0,1,1.49-.991,6.89,6.89,0,0,0,1.837.834,5,5,0,0,1,2.288-.854A4.112,4.112,0,0,0,213.4,8.077a4.182,4.182,0,0,0-2.319-1.116,6.309,6.309,0,0,1,1.555,3.054.431.431,0,0,1-.844.171A5.377,5.377,0,0,0,209.578,6.8.431.431,0,0,1,209.8,6h.029a5.679,5.679,0,0,1,4.186,1.47,5.018,5.018,0,0,1,1.369,3.132,4.423,4.423,0,0,1,1.58.485A6.347,6.347,0,0,1,218.638,7a4.01,4.01,0,0,0-2.6,1.444.431.431,0,1,1-.682-.527,5.409,5.409,0,0,1,4.546-1.88h.029a.431.431,0,0,1,.217.8,5.444,5.444,0,0,0-2.331,4.533,6.669,6.669,0,0,0,1.5-.663A.968.968,0,0,1,220.354,10.714Zm-6.566,10.976a8.144,8.144,0,0,0,.669-.551.431.431,0,0,1,.693.144,5.181,5.181,0,0,1,.185.51,2.624,2.624,0,0,0,.9-1.815,2.228,2.228,0,0,1-2.567-.091c.013.125.031.254.055.387a2.709,2.709,0,0,1,.045.552,4.484,4.484,0,0,1-.129.971Q213.713,21.745,213.788,21.689Zm3.778-9.353a.43.43,0,0,1-.354-.075,3.68,3.68,0,0,0-4.609-.016.431.431,0,0,1-.358.095,7.03,7.03,0,0,1-2.31-.987.114.114,0,0,0-.129,0,.12.12,0,0,0-.055.124,1.771,1.771,0,0,0,.706,1.292,2.106,2.106,0,0,0,1.505.181.431.431,0,0,1,.528.543,3.2,3.2,0,0,0,.695,2.619,1.825,1.825,0,0,1,.348.9l.125,1.239a1.365,1.365,0,0,0,2.715.015l.146-1.3A1.846,1.846,0,0,1,217,15.9a2.537,2.537,0,0,0,.683-2.212.431.431,0,0,1,.418-.535h.016a1.583,1.583,0,0,0,1.839-1.593.121.121,0,0,0-.06-.12.109.109,0,0,0-.121,0A8.053,8.053,0,0,1,217.566,12.337Z" transform="translate(-208.888 -6)" fill="#fff"/>
              <path id="Trazado_874769" data-name="Trazado 874769" d="M247.471,80.937a.442.442,0,0,1-.084-.008.525.525,0,0,1-.08-.025.41.41,0,0,1-.074-.04.4.4,0,0,1-.066-.054.431.431,0,0,1-.127-.3.446.446,0,0,1,.009-.084.466.466,0,0,1,.025-.081.5.5,0,0,1,.04-.074.451.451,0,0,1,.054-.066.4.4,0,0,1,.066-.053.353.353,0,0,1,.074-.04.425.425,0,0,1,.08-.025.436.436,0,0,1,.389.117.389.389,0,0,1,.054.066.412.412,0,0,1,.04.074.461.461,0,0,1,.025.081.443.443,0,0,1,.008.084.43.43,0,0,1-.431.431Z" transform="translate(-240.08 -72.098)" fill="#fff"/>
              <path id="Trazado_874770" data-name="Trazado 874770" d="M271.767,80.936a.431.431,0,0,1-.3-.734.39.39,0,0,1,.066-.054.434.434,0,0,1,.155-.065.44.44,0,0,1,.168,0,.434.434,0,0,1,.155.065.387.387,0,0,1,.066.054.431.431,0,0,1-.3.734Z" transform="translate(-266.992 -72.097)" fill="#fff"/>
              <path id="Trazado_874771" data-name="Trazado 874771" d="M256.423,109.32l-.474.318a.431.431,0,0,1-.491-.008l-.443-.318a.431.431,0,0,1,.5-.7l.2.144.226-.151a.431.431,0,1,1,.479.716Z" transform="translate(-249.633 -97.489)" fill="#fff"/>
            </g>
          </g>
          <g id="Elipse_11498" data-name="Elipse 11498" transform="translate(-18583.781 -8583.3)" fill="none" stroke="#fdaa30" stroke-width="6">
            <ellipse cx="8.063" cy="8.063" rx="8.063" ry="8.063" stroke="none"/>
            <ellipse cx="8.063" cy="8.063" rx="5.063" ry="5.063" fill="none"/>
          </g>
        </g>
        <circle id="Elipse_11502" data-name="Elipse 11502" cx="1.916" cy="1.916" r="1.916" transform="translate(-18602.906 -8633.651)" fill="#fff"/>
      </g>
      <g id="Grupo_1188573" data-name="Grupo 1188573" transform="translate(0 1.413)">
        <g id="Grupo_1188468" data-name="Grupo 1188468" transform="translate(0 0)">
          <path id="Rectángulo_402603" data-name="Rectángulo 402603" d="M74.42,0h0a0,0,0,0,1,0,0V75.03a0,0,0,0,1,0,0H0a0,0,0,0,1,0,0v-.61A74.42,74.42,0,0,1,74.42,0Z" fill="#fdaa30"/>
          <g id="Grupo_1188467" data-name="Grupo 1188467" transform="translate(28.513 29.12)">
            <path id="Trazado_874775" data-name="Trazado 874775" d="M288.475,288.708a.456.456,0,0,1-.136-.89,5.01,5.01,0,0,1,1.5-.229.455.455,0,1,1,0,.911A6,6,0,0,0,288.475,288.708Z" transform="translate(-271.625 -271.241)" fill="#12263f"/>
            <path id="Trazado_874776" data-name="Trazado 874776" d="M28.256,21.374a3.132,3.132,0,0,0-2.578-.959.136.136,0,0,1-.145-.1A10.982,10.982,0,0,0,20.5,14.178,13.853,13.853,0,0,0,13.3,12.2a7.282,7.282,0,0,0-.039-1.589c4.56-1.2,9.365-6.739,7.349-9.316C19.8.271,18.122.124,16.08.892,13.628-.854,7.774,2.356,5.683,6.229,2.908,7.269,0,10.292,0,13.193s2.281,3.793,5.193,3.972A8.389,8.389,0,0,0,5.48,24.22C3.707,25.44,1.963,27,3.219,28.775c.885,1.251,2.583.631,4.047.147a14.078,14.078,0,0,0,3.828-1.972,11.644,11.644,0,0,0,2.825-2.607,4.973,4.973,0,0,0,.9,1.107c-2.722,1.465-2.053,4.057,1.094,4.057a8.058,8.058,0,0,0,3.512-.951c1.906-.13,4.229-.5,5.532-1.946A3.192,3.192,0,0,0,28.256,21.374ZM.911,13.193c0-2.987,3.9-6.459,6.831-6.459a9.732,9.732,0,0,1,2.366.439c.563-.088.3-.981,2.453-2.986a.455.455,0,1,0-.62-.667A10.921,10.921,0,0,0,9.823,6.15a6.261,6.261,0,0,0-2.857-.265c1.883-2.686,5.756-5.008,8-4.5a12.856,12.856,0,0,0-1.551.939.455.455,0,1,0,.524.745C17.663.449,21.5.687,19.717,4.338a11.489,11.489,0,0,1-7.065,5.484.456.456,0,0,0-.345.311c-.079.254.107.4.107,1.507,0,3.057-2.809,4.656-5.583,4.656-3.655,0-5.92-.519-5.92-3.1ZM28.234,23.675a2.286,2.286,0,0,1-2.728,2.141,6.113,6.113,0,0,0,.451-3.174.455.455,0,1,0-.909.063c.2,2.833-.644,4.617-5.771,4.949a16.455,16.455,0,0,1-2.159.8c-1.5.356-2.918,0-3.079-.674-.129-.542.565-1.269,1.6-1.71a4.1,4.1,0,0,0,1.205.5.456.456,0,0,0,.136-.89,4.084,4.084,0,0,1-2.582-2.4.457.457,0,0,0-.027-.068,4.12,4.12,0,0,1,.191-3.317.455.455,0,1,0-.81-.417,5.037,5.037,0,0,0-.291,3.894,9.536,9.536,0,0,1-2.909,2.845,13.168,13.168,0,0,1-3.58,1.845c-1.8.6-2.619.754-3.017.191a1.123,1.123,0,0,1-.237-.889c.221-1.191,2.474-2.454,2.693-2.689.547-.588-.954-1.149-.954-4.275A7.133,7.133,0,0,1,6.179,17.2c.22,0,.438.006.652.006,2.8,0,5.547-1.413,6.3-4.085,4.273-.207,10.014,2.478,11.535,7.459a1.047,1.047,0,0,0,1.121.738A2.266,2.266,0,0,1,28.234,23.675Z" transform="translate(0 -0.404)" fill="#12263f"/>
            <path id="Trazado_874777" data-name="Trazado 874777" d="M260.455,308.5a.455.455,0,1,1,.446-.367A.456.456,0,0,1,260.455,308.5Z" transform="translate(-245.199 -290.1)" fill="#12263f"/>
            <ellipse id="Elipse_11499" data-name="Elipse 11499" cx="0.797" cy="0.797" rx="0.797" ry="0.797" transform="translate(4.213 10.029)" fill="#12263f"/>
          </g>
        </g>
        <path id="Trazado_874774" data-name="Trazado 874774" d="M6.926-1c.053,0,.106,0,.159,0a2.666,2.666,0,0,1,1.59.673A2.319,2.319,0,0,1,9.49,1.41a11.019,11.019,0,0,1,.068,1.565v1.6h3.274a2.063,2.063,0,0,1,1.81.927A2.868,2.868,0,0,1,15.1,7.082a2.706,2.706,0,0,1-.478,1.571,2.052,2.052,0,0,1-1.791.865H9.559v1.738a13.077,13.077,0,0,1-.068,1.686,2.107,2.107,0,0,1-.885,1.733,2.669,2.669,0,0,1-3.166,0,2.121,2.121,0,0,1-.886-1.816V9.518H1.546a2.483,2.483,0,0,1-2-.788,2.26,2.26,0,0,1-.53-1.765A2.9,2.9,0,0,1-.281,5.4,2.332,2.332,0,0,1,1.546,4.58H4.554V1.506A2.309,2.309,0,0,1,5.44-.51,2.517,2.517,0,0,1,6.926-1Zm6.038,7.593a.478.478,0,0,0-.131-.014H7.559v-3.6A8.677,8.677,0,0,0,7.512,1.7l-.019-.1v-.1A.342.342,0,0,0,7.374,1.2.679.679,0,0,0,6.96,1H6.926a.519.519,0,0,0-.313.11.9.9,0,0,0-.06.4V6.58H1.546a.342.342,0,0,0-.309.118A.912.912,0,0,0,1,7.2a.268.268,0,0,0,.071.239.927.927,0,0,0,.472.08H6.554v5.341c0,.153.032.176.049.188a.673.673,0,0,0,.841,0c.017-.012.049-.035.049-.188v-.083l.014-.082a10.753,10.753,0,0,0,.053-1.438V7.518h5.274a.547.547,0,0,0,.155-.017.73.73,0,0,0,.114-.419A.875.875,0,0,0,12.964,6.593Z" transform="translate(26.135 9.618) rotate(-43)" fill="#1944b6"/>
      </g>
    </g>
    <g id="Grupo_1189098" data-name="Grupo 1189098" transform="translate(-3081 -7480)">
      <g id="Grupo_1189069" data-name="Grupo 1189069" transform="translate(0 0)">
        <g id="Grupo_1189068" data-name="Grupo 1189068">
          <g id="Grupo_1189067" data-name="Grupo 1189067">
            <path id="Trazado_876167" data-name="Trazado 876167" d="M4088.272,2335.061l-17.717,1.576-.012.29c-3.233,2.4-6.242,4.917-7.64,8.855l11.3-2.127a18.283,18.283,0,0,0-3.513,4.32l15.165-2.88c4.382-.752,9.251-.922,13.406-2.6a11.385,11.385,0,0,0,4.776-3.636,1.819,1.819,0,0,0,.312-.716l-.063-.3-3.107-2.818a7.021,7.021,0,0,0-1.541-1.31,4.892,4.892,0,0,0-1.066-.085A71.615,71.615,0,0,1,4088.272,2335.061Z" transform="translate(-3847.871 -2158.084)" fill="#93480a"/>
            <path id="Trazado_876168" data-name="Trazado 876168" d="M3817.67,2314.3a10.958,10.958,0,0,1-1.611,4.235,4.836,4.836,0,0,1-3.026,2.062c-.954.152-1.93.158-2.878.351a12.3,12.3,0,0,0-7.34,4.325,16.9,16.9,0,0,0-2.444,4.659l9.083-1.664a27.887,27.887,0,0,0-2.29,4.711l10.089-1.788a44.336,44.336,0,0,1,4.834-.046,11.991,11.991,0,0,0,9.957-5,73.424,73.424,0,0,0,4.793-8.166l4.524-8.386c-8.153-2.041-16.717-4.784-24.149-8.75C3817.926,2305.23,3818.514,2309.889,3817.67,2314.3Z" transform="translate(-3716.599 -2141.692)" fill="#93480a"/>
            <path id="Trazado_876169" data-name="Trazado 876169" d="M4130.7,2346.961c-4.438.824-9.1,1.423-13.17,3.484a16.694,16.694,0,0,0-8.835,9.925l8.886-2.026a14.619,14.619,0,0,0-2.516,5.6,80.507,80.507,0,0,1,11.977-3.677c-.083,1.013-1.272,2.114-1.409,3.282-.05.412-.071.482.171.808a40.27,40.27,0,0,1,10.386-3.108l9.714-1.929a60.975,60.975,0,0,0,8.293-2.029c2.268-.8,4.993-2,6.069-4.3a9.307,9.307,0,0,0,.034-6.326l-.548-.316a1.324,1.324,0,0,0-.948-.34c-.532-.028-1.08.125-1.623.114l-7.385-.149c-3.821-.088-7.86-.713-11.674-.232-.875.111-1.738.067-2.606.159a26.276,26.276,0,0,0-3.713.891,1.941,1.941,0,0,1-1.04-.086Z" transform="translate(-3870.769 -2164.051)" fill="#93480a"/>
            <path id="Trazado_876170" data-name="Trazado 876170" d="M3633.47,2114.836l-.35.055a15.534,15.534,0,0,0-.294,3.927,29.783,29.783,0,0,0,4.106,15.2,21.861,21.861,0,0,0,5.274,6.037,15.255,15.255,0,0,0,3.446,1.9c1.926,2.337,3.428,4.708,5.648,6.827,4.734,4.517,11.217,7.6,17.426,9.481l6.206,1.562a35.038,35.038,0,0,1,11.048,5.485c5.589,4.079,9.47,9.964,13.983,15.108a116.065,116.065,0,0,0,15.591,14.7l4.276-.64a38.264,38.264,0,0,0,8.029-2.658l.042-.1c-.77-.777-1.8-1.377-2.633-2.1l-6.861-6.293a104.17,104.17,0,0,1-14.963-18.275c-1.2-1.853-2.689-3.882-3.128-6.076-10.565-2.05-20.443-5.335-29.13-11.892a41.623,41.623,0,0,1-6.124-5.4,17.574,17.574,0,0,1-1.888-1.95c-1.205.533-4.493-.422-5.87-.793a21.007,21.007,0,0,1-12.443-8.965c-.933-1.488-1.6-3.131-2.483-4.656a.849.849,0,0,1,.254-.172,37.282,37.282,0,0,0,5.611-3.932c1.654-1.355,3.516-2.958,4.316-4.989a2.92,2.92,0,0,0-.287-1.322c-1.816-3.159-6.738-1.438-9.415-.543a8.79,8.79,0,0,1-1.731.592,9.975,9.975,0,0,1-1.455-.859,13.758,13.758,0,0,0-3.614-1.683A4.206,4.206,0,0,0,3633.47,2114.836Z" transform="translate(-3632.823 -2047.47)" fill="#b55b09"/>
            <path id="Trazado_876171" data-name="Trazado 876171" d="M3633.47,2114.836l-.35.055a15.534,15.534,0,0,0-.294,3.927,29.783,29.783,0,0,0,4.106,15.2,21.861,21.861,0,0,0,5.274,6.037,15.255,15.255,0,0,0,3.446,1.9,9.353,9.353,0,0,1,1.89-.569,17.926,17.926,0,0,1,1.8,1.32,12.64,12.64,0,0,0,3.49,1.285,10.4,10.4,0,0,0,7.577-1.61l-2.948.515a11.05,11.05,0,0,1-8.392-2.421c-4.339-3.454-6.125-9.867-6.688-15.159a.849.849,0,0,1,.254-.172,37.282,37.282,0,0,0,5.611-3.932c1.654-1.355,3.516-2.958,4.316-4.989a2.92,2.92,0,0,0-.287-1.322c-1.816-3.159-6.738-1.438-9.415-.543a8.79,8.79,0,0,1-1.731.592,9.975,9.975,0,0,1-1.455-.859,13.758,13.758,0,0,0-3.614-1.683A4.206,4.206,0,0,0,3633.47,2114.836Z" transform="translate(-3632.823 -2047.47)" fill="#9f540f"/>
            <path id="Trazado_876172" data-name="Trazado 876172" d="M3632.826,2121.249a29.781,29.781,0,0,0,4.106,15.2,21.854,21.854,0,0,0,5.274,6.037l.9-.606a5.841,5.841,0,0,0,.1-2.449,80.747,80.747,0,0,0-1.593-7.93c-.232-1.2-.254-2.743-.6-3.866-.175-.562-2.545-2.138-3.153-2.661-2.462-2.116-4.132-4.39-4.376-7.706l-.35.055A15.539,15.539,0,0,0,3632.826,2121.249Z" transform="translate(-3632.823 -2049.9)" fill="#733a29"/>
            <path id="Trazado_876173" data-name="Trazado 876173" d="M3711.218,2007.475c-1.8.267-3.6.461-5.375.862l-9.956,2.629-.111.057c-1.858.919-4.077,1.479-6.028,2.209a128.894,128.894,0,0,0-11.908,5.051,111.926,111.926,0,0,0-15.434,9.213,120.223,120.223,0,0,0-19.54,17.526c-3.237,3.593-6.781,7.763-8.412,12.39a20.133,20.133,0,0,0-1.04,4.585l.351-.055a4.208,4.208,0,0,1,2.587-2.43,13.8,13.8,0,0,1,3.614,1.683,9.94,9.94,0,0,0,1.454.859,8.8,8.8,0,0,0,1.731-.591c2.678-.895,7.6-2.615,9.415.543a2.918,2.918,0,0,1,.287,1.323c-.8,2.031-2.663,3.634-4.316,4.989a37.32,37.32,0,0,1-5.612,3.931.851.851,0,0,0-.254.172c.878,1.525,1.549,3.169,2.483,4.657a21.008,21.008,0,0,0,12.443,8.965c1.377.371,4.666,1.327,5.87.793a59.542,59.542,0,0,1-3.83-5.38,31.861,31.861,0,0,1-3.7-11.283c-1.271-8.369,2.493-14.525,7.229-20.975,12.029-16.385,29.2-30.447,48.527-37.147a117.332,117.332,0,0,1,20.853-4.8,5.985,5.985,0,0,0,.6-.481l-.162-.152-17.177.6C3714.273,2006.8,3712.738,2007.249,3711.218,2007.475Z" transform="translate(-3633.119 -1994.577)" fill="#733a29"/>
            <path id="Trazado_876174" data-name="Trazado 876174" d="M3695.777,2011.453c-1.858.919-4.077,1.479-6.028,2.209a128.894,128.894,0,0,0-11.908,5.051,111.878,111.878,0,0,0-15.434,9.213,120.253,120.253,0,0,0-19.54,17.526c-3.237,3.594-6.781,7.763-8.412,12.391a20.139,20.139,0,0,0-1.04,4.585l.351-.055a4.208,4.208,0,0,1,2.587-2.43,14.812,14.812,0,0,1,1.668-3.3A95.189,95.189,0,0,1,3656.728,2036a133.821,133.821,0,0,1,34.792-21.452c3.159-1.331,6.3-2.63,9.566-3.673,4.846-1.548,9.779-2.156,14.724-3.221-1.537-.422-3.072.022-4.592.249-1.8.267-3.6.461-5.375.862l-9.956,2.629Z" transform="translate(-3633.119 -1995.006)" fill="#de7604"/>
            <path id="Trazado_876175" data-name="Trazado 876175" d="M3768.32,1996.29c1.779-.4,3.577-.6,5.375-.862,1.52-.226,3.055-.67,4.592-.249l17.176-.6.162.152a5.92,5.92,0,0,1-.6.481c-3.538,3.537-9,7.816-9.015,13.333-.009,3.126.14,5.325,2.451,7.613,2.821,2.792,6.747,3.415,10.194,5.083a61.684,61.684,0,0,1,5.388,3.512,34.525,34.525,0,0,0,18.319,4.98c3.465-.029,7.981-.92,10.611-3.369l-.662-1.69a8.2,8.2,0,0,0,1.931-4.223c.383-2.908-.647-5.923.993-8.591,1.651-2.685,4.48-4.38,6.564-6.655l.128-.141-.144-.345-1.118-1.493-.062-.1a25.7,25.7,0,0,0-4.556-4.964,36.686,36.686,0,0,0-16.678-8.824c-7.594-1.643-14.489-.7-21.024,3.512-4.672-4.1-9.871-7.721-15.925-9.41-4.681-1.305-9.273-1.41-13.582,1.041-5.292,3.01-8.875,8.669-10.479,14.439Z" transform="translate(-3695.596 -1982.53)" fill="#ba610a"/>
            <path id="Trazado_876176" data-name="Trazado 876176" d="M3843.37,2020.193c7.267-4.492,14.847-4.645,22.947-2.546,2.058.533,4.041,1.346,6.1,1.835l-1.118-1.494-.1,0a6.666,6.666,0,0,1-2.271-1.115l-3.739-1.823c-7.765-3.562-18.463-4.753-25.463,1.03-4.35,3.593-10.867,13.615-17.044,13.116-1.068-.087-2.044-.6-3.062-.682a12.486,12.486,0,0,0,9.732,2.9,7.311,7.311,0,0,0,2.479-.672C3836.163,2027.764,3838.851,2022.987,3843.37,2020.193Z" transform="translate(-3726.224 -1997.295)" fill="#9f540f"/>
            <path id="Trazado_876177" data-name="Trazado 876177" d="M3847.855,2034.7l8.26-1.122a41.054,41.054,0,0,1-3.057,4.824c4.6,2.8,8.525,5.638,13.957,6.666a12.244,12.244,0,0,0,5.423.059,12.588,12.588,0,0,0,2.718-1.4,8.2,8.2,0,0,0,1.932-4.223c.383-2.909-.647-5.924.992-8.591,1.651-2.685,4.48-4.38,6.565-6.655l.128-.141-.143-.345c-2.062-.489-4.044-1.3-6.1-1.835-8.1-2.1-15.68-1.947-22.946,2.546-4.52,2.794-7.208,7.57-11.541,10.544C3844.886,2035.36,3846.912,2034.828,3847.855,2034.7Z" transform="translate(-3738.437 -2001.579)" fill="#de7604"/>
            <path id="Trazado_876178" data-name="Trazado 876178" d="M4104,2136.314c-2.188,1.191-5.315,1.492-7.724,2.211a86.08,86.08,0,0,0-11.752,4.538c-16.961,7.969-31.326,22.067-41.337,37.779a79,79,0,0,0-9.106,18.942,34.582,34.582,0,0,0-1.259,5.216,30.012,30.012,0,0,1-.523,4.058,9.647,9.647,0,0,1-1.338,2.335,25.463,25.463,0,0,1-9.388,8.568c-10.3,5.462-22.72,6.717-34.175,5.54a64.649,64.649,0,0,1-12.834-2.479c-3.422-1.074-6.977-2.772-8.73-6.085s-1.149-6.351-.508-9.82c-1.16,1.467-1.8,3.669-2.654,5.374l-7.673,15.3c-1.16,2.3-2.681,4.385-3.845,6.689,14.7,2.618,30.025,3.549,44.945,3.711l12.611-.04a43.519,43.519,0,0,1,5.973-.2l17.717-1.577a71.648,71.648,0,0,0,10.3-1.433,4.877,4.877,0,0,1,1.066.085,7.018,7.018,0,0,1,1.541,1.31l3.107,2.818.064.3a8.158,8.158,0,0,1,3.515,2.6,1.94,1.94,0,0,0,1.041.087,26.305,26.305,0,0,1,3.711-.891c.869-.092,1.733-.049,2.608-.159,3.814-.482,7.853.144,11.675.231l7.384.149c.543.011,1.09-.142,1.622-.115a1.333,1.333,0,0,1,.949.34l.671-.1a11.957,11.957,0,0,1,2.01-5.139c1.93-2.9,4.718-5.379,7.161-7.845a98.592,98.592,0,0,0,8.919-10.027c12.129-16.112,15.52-36.162,12.716-55.828a98.762,98.762,0,0,0-2.669-12.374c-.335-1.216-.609-3.289-1.63-4.053a3.114,3.114,0,0,0,.165-.58,6.736,6.736,0,0,0-.5-1.6c-.663-1.932-1.349-3.886-2.191-5.749-.334-.736-.745-1.831-1.542-2.131Z" transform="translate(-3791.991 -2059.399)" fill="#b55b09"/>
            <path id="Trazado_876179" data-name="Trazado 876179" d="M4192.565,2172.817c-.073,1.389-.005,2.787-.2,4.169-.634,4.6-1.053,9.1-2.372,13.593-4.115,13.991-11.956,28.043-23.688,37.05-7.863,6.035-16.78,10.18-26.777,10.762a23.98,23.98,0,0,1-4.3.083l-.49-.1c-.643-.136-1.353-.111-2.008-.2a21.026,21.026,0,0,1-5.125-1.229,20.652,20.652,0,0,1-7.255-4.448,13.748,13.748,0,0,0-2.142-2.2,39.38,39.38,0,0,0,5.28,9.785c.606.833,3.537,4.053,3.5,4.728l-.76.2a4.894,4.894,0,0,1,1.065.084,7.061,7.061,0,0,1,1.541,1.31l3.107,2.818.063.3a8.16,8.16,0,0,1,3.517,2.6,1.936,1.936,0,0,0,1.04.087,26.211,26.211,0,0,1,3.713-.891c.869-.092,1.732-.048,2.606-.159,3.814-.482,7.853.144,11.674.231l7.385.149c.543.011,1.09-.142,1.622-.115a1.331,1.331,0,0,1,.949.34l.671-.1a11.967,11.967,0,0,1,2.01-5.139c1.93-2.9,4.718-5.379,7.161-7.846a98.557,98.557,0,0,0,8.919-10.026c12.128-16.112,15.52-36.162,12.716-55.828a98.611,98.611,0,0,0-2.669-12.374c-.334-1.215-.61-3.288-1.63-4.053A81.352,81.352,0,0,1,4192.565,2172.817Z" transform="translate(-3875.524 -2069.463)" fill="#a55a1c"/>
            <path id="Trazado_876180" data-name="Trazado 876180" d="M3687.638,2089.421a41.623,41.623,0,0,0,6.123,5.4c8.687,6.557,18.565,9.842,29.13,11.892,16.634,2.44,38.274-1.948,52.165-11.588a14.18,14.18,0,0,0,3.042-2.257,46.376,46.376,0,0,0,17.03-44.2,82.112,82.112,0,0,0-2.348-9.626c-2.63,2.449-7.147,3.34-10.612,3.369a34.513,34.513,0,0,1-18.319-4.98,61.737,61.737,0,0,0-5.388-3.512c-3.447-1.668-7.373-2.292-10.194-5.083-2.312-2.288-2.46-4.487-2.451-7.613.016-5.518,5.476-9.8,9.014-13.334a117.345,117.345,0,0,0-20.854,4.8c-19.326,6.7-36.5,20.762-48.527,37.146-4.736,6.45-8.5,12.606-7.228,20.975a31.869,31.869,0,0,0,3.7,11.283,59.588,59.588,0,0,0,3.831,5.379A17.589,17.589,0,0,0,3687.638,2089.421Z" transform="translate(-3655.398 -1995.21)" fill="#de7604"/>
            <path id="Trazado_876181" data-name="Trazado 876181" d="M3703.427,2176.354c8.687,6.557,18.565,9.842,29.13,11.892,16.633,2.44,38.274-1.947,52.165-11.588-.748-.437-1.691.068-2.451.328-3.934,1.347-7.748,2.773-11.775,3.849a93.163,93.163,0,0,1-28.582,2.9,106.173,106.173,0,0,1-30.448-6.421,75.087,75.087,0,0,1-11.96-5.491,4.864,4.864,0,0,0-2.2-.868A41.641,41.641,0,0,0,3703.427,2176.354Z" transform="translate(-3665.064 -2076.747)" fill="#ba610a"/>
            <path id="Trazado_876182" data-name="Trazado 876182" d="M3754.968,2060.732a11.215,11.215,0,0,0-2.481,8.5,11.018,11.018,0,0,0,4.272,7.162,14.351,14.351,0,0,0,8.987,2.791c3.532-.341,6.983-1.407,9.324-4.257a11.567,11.567,0,0,0,2.645-8.716,12.082,12.082,0,0,0-4.453-7.76,12.527,12.527,0,0,0-8.31-2.52l-.1.011C3761.032,2056.367,3757.457,2057.658,3754.968,2060.732Z" transform="translate(-3692.617 -2019.211)" fill="#763b05"/>
            <path id="Trazado_876183" data-name="Trazado 876183" d="M3762.419,2066.615a8.155,8.155,0,0,0-.372,6.2,7.735,7.735,0,0,0,4.376,4.57,8.71,8.71,0,0,0,3.864.574c2.2-.679,4-1.537,5.118-3.681a8.246,8.246,0,0,0,.249-6.343,8.118,8.118,0,0,0-3.928-4.659,8.592,8.592,0,0,0-4.365-.712A7.68,7.68,0,0,0,3762.419,2066.615Z" transform="translate(-3697.213 -2022.538)" fill="#070605"/>
            <path id="Trazado_876184" data-name="Trazado 876184" d="M3783.081,2082.242c.316.47.442.7,1.037.83a2.836,2.836,0,0,0,.669.021c.319-.639.6-.9.419-1.6a1.986,1.986,0,0,0-1.561-.68A2.776,2.776,0,0,0,3783.081,2082.242Z" transform="translate(-3707.954 -2031.671)" fill="#fefefe"/>
            <path id="Trazado_876185" data-name="Trazado 876185" d="M3766.012,2068.228a2.963,2.963,0,0,0,.413,2.292,3.466,3.466,0,0,0,1.974,1.506,5.937,5.937,0,0,0,1.573-.045,3.883,3.883,0,0,0,2.206-2.392,2.837,2.837,0,0,0-.355-2.142,3.514,3.514,0,0,0-2.123-1.6,4.884,4.884,0,0,0-1.538,0C3767.114,2066.482,3766.334,2066.958,3766.012,2068.228Z" transform="translate(-3699.38 -2024.157)" fill="#fefefe"/>
            <path id="Trazado_876186" data-name="Trazado 876186" d="M3846.528,2026.628c-2.084,2.275-4.914,3.97-6.564,6.655-1.641,2.667-.61,5.682-.993,8.59a8.2,8.2,0,0,1-1.932,4.223l.662,1.69a82.116,82.116,0,0,1,2.348,9.626,46.373,46.373,0,0,1-17.029,44.2,14.232,14.232,0,0,1-3.042,2.258c-13.891,9.64-35.532,14.027-52.165,11.588.439,2.193,1.926,4.223,3.127,6.076a104.215,104.215,0,0,0,14.963,18.275l6.86,6.293c.834.726,1.864,1.326,2.634,2.1l-.042.1a38.257,38.257,0,0,1-8.029,2.658l-4.276.64,17.881,11.5c7.433,3.966,16,6.71,24.15,8.75l8.2,1.575c.438,4.508.9,13.543-2.058,17.069a5.231,5.231,0,0,1-3,1.516c-3.535.95-6.925,1.9-9.4,4.817a21.661,21.661,0,0,0-2.9,4.922l6.626-1.319a10.353,10.353,0,0,1,2.719-.459l-1.319,3.578a3.335,3.335,0,0,0-.39,1.187,34.847,34.847,0,0,1,6.5-1.635l8.183-.9c3.182-.333,6.537-.376,9.176-2.419,2.821-2.185,4.576-5.669,6.1-8.822l3.281-6.882a46.077,46.077,0,0,0,2.671-5.039c1.163-2.306,2.685-4.393,3.844-6.689l7.673-15.3c.849-1.7,1.5-3.907,2.654-5.375-.641,3.47-1.238,6.52.508,9.821s5.309,5.01,8.731,6.085a64.707,64.707,0,0,0,12.834,2.48c11.455,1.176,23.873-.079,34.175-5.541a25.449,25.449,0,0,0,9.388-8.568,9.629,9.629,0,0,0,1.338-2.335,30.159,30.159,0,0,0,.523-4.058,34.6,34.6,0,0,1,1.259-5.215,78.989,78.989,0,0,1,9.106-18.941c10.012-15.713,24.377-29.811,41.338-37.78a86.046,86.046,0,0,1,11.752-4.539c2.408-.72,5.536-1.021,7.724-2.211l.092-.051c.146-.928-.545-1.773-1.022-2.552l-3.786-5.783c-8.117-11.18-19.205-19.945-31.367-26.354a113.241,113.241,0,0,0-13.1-6.022,90.25,90.25,0,0,0-34.22-5.647l-16,1.354-18.6,1.659c-9.489.658-18.887.758-28.311-.734a30.825,30.825,0,0,1-1.528-2.916,19.522,19.522,0,0,0-8.259-7.167,11.786,11.786,0,0,0-6.838-1.131,18.263,18.263,0,0,0-2.718.96Z" transform="translate(-3700.321 -2003.953)" fill="#de7604"/>
            <path id="Trazado_876187" data-name="Trazado 876187" d="M3802.565,2273.9l-4.276.64,17.88,11.5c7.433,3.966,16,6.709,24.15,8.75l8.2,1.575a22.877,22.877,0,0,0-3.709-10.751,35.194,35.194,0,0,0-4.254-4.669l-4.1-4.3a18.347,18.347,0,0,0,5.828,8.955,9.818,9.818,0,0,1-2.688-.436c-7.919-1.583-15.889-5.294-22.74-9.523a45.867,45.867,0,0,1-3.8-2.633,13.162,13.162,0,0,0-2.461-1.769A38.289,38.289,0,0,1,3802.565,2273.9Z" transform="translate(-3715.559 -2126.892)" fill="#ba610a"/>
            <path id="Trazado_876188" data-name="Trazado 876188" d="M3846.528,2026.628c-2.084,2.275-4.914,3.97-6.564,6.655-1.641,2.667-.61,5.682-.993,8.59a8.2,8.2,0,0,1-1.932,4.223l.662,1.69a82.116,82.116,0,0,1,2.348,9.626,46.373,46.373,0,0,1-17.029,44.2,14.232,14.232,0,0,1-3.042,2.258c-13.891,9.64-35.532,14.027-52.165,11.588.439,2.193,1.926,4.223,3.127,6.076a104.215,104.215,0,0,0,14.963,18.275l6.86,6.293c.834.726,1.864,1.326,2.634,2.1a14.4,14.4,0,0,0,3.509-1.791,32.727,32.727,0,0,0,9.65-9.213c-1.27,4.665-2.745,8.751-5.962,12.474l1.561-.529c7.448-2.721,13.669-7.539,19.8-12.422a83.644,83.644,0,0,0,11.246-10.193,53.932,53.932,0,0,0,7.525-11.327,32.717,32.717,0,0,0,2.649-7.322,25.909,25.909,0,0,1,1.191-4.914,24.406,24.406,0,0,1,.2,4.755,39.924,39.924,0,0,1-.744,8.472,56.27,56.27,0,0,1-3.947,10.75l.146-.033a9.207,9.207,0,0,0,1.443-1.128l3.66-2.917c9.413-7.6,18.224-15.751,23.133-27.063,6.818-15.71,6.084-33.4.195-49.268a44.364,44.364,0,0,0-2.3-5.245,45.178,45.178,0,0,1-2.357-4.547,30.825,30.825,0,0,1-1.528-2.916,19.522,19.522,0,0,0-8.259-7.167,11.786,11.786,0,0,0-6.838-1.131,18.263,18.263,0,0,0-2.718.96Z" transform="translate(-3700.321 -2003.953)" fill="#b55b09"/>
          </g>
        </g>
      </g>
      <path id="Trazado_876189" data-name="Trazado 876189" d="M3905.593,2247.5a11.119,11.119,0,0,0-.572-2.521c-.9-2.543-2.845-4.835-4.625-6.811a66.056,66.056,0,0,0-10.741-9.633,61.409,61.409,0,0,0-8.484-5.064,70.66,70.66,0,0,0-6.545-2.777c-1.072-.4-2.292-.708-3.313-1.214l-.061-.031a13.141,13.141,0,0,0-5.76-7.937,9.4,9.4,0,0,0-7.466-.572,22.876,22.876,0,0,0-8.754,5.173,14.608,14.608,0,0,0-11.557-1.931,20.161,20.161,0,0,0-9.167,4.851,14.175,14.175,0,0,0-2.506,2.728l-.033.055-.614.82-.079.19a10.048,10.048,0,0,0-1.494-.528,6.485,6.485,0,0,0-3.759.623,10.725,10.725,0,0,0-4.54,3.939,16.617,16.617,0,0,1-.84,1.6,68.522,68.522,0,0,1-15.562.4l-10.227-.912-8.8-.744a49.587,49.587,0,0,0-18.811,3.1,62.166,62.166,0,0,0-7.2,3.31,49.812,49.812,0,0,0-17.243,14.487l-2.081,3.179c-.263.428-.643.893-.563,1.4-.438.165-.663.767-.847,1.171-.462,1.024-.839,2.1-1.2,3.161a3.735,3.735,0,0,0-.276.88,1.7,1.7,0,0,0,.09.32c-.561.42-.712,1.559-.9,2.228a54.458,54.458,0,0,0-1.467,6.8c-1.541,10.811.323,21.833,6.99,30.688a54.164,54.164,0,0,0,4.9,5.512,30.888,30.888,0,0,1,3.936,4.313,6.56,6.56,0,0,1,1.105,2.824l.369.056-.3.174a5.125,5.125,0,0,0,.019,3.478c.592,1.269,2.09,1.928,3.336,2.366a33.565,33.565,0,0,0,4.559,1.115l5.34,1.061a22.133,22.133,0,0,1,5.709,1.709c.134-.18.122-.219.1-.445-.076-.643-.729-1.247-.775-1.8a44.191,44.191,0,0,1,6.584,2.021,8.046,8.046,0,0,0-1.383-3.079l4.884,1.114a9.172,9.172,0,0,0-4.855-5.455,26.489,26.489,0,0,0-7.241-1.916l-.035-.142a4.481,4.481,0,0,1,1.934-1.428,1,1,0,0,0,.171.394,6.258,6.258,0,0,0,2.625,2c2.284.925,4.961,1.018,7.37,1.432l8.336,1.583a10.048,10.048,0,0,0-1.931-2.375l6.214,1.169c-.77-2.165-2.423-3.55-4.2-4.868l-.006-.159a23.835,23.835,0,0,1,3.284.111l6.932.022a151.263,151.263,0,0,0,24.706-2.039,25.23,25.23,0,0,0,1.469,2.77l1.8,3.783a13.233,13.233,0,0,0,3.356,4.85c1.45,1.122,3.295,1.146,5.044,1.329l4.5.5a19.126,19.126,0,0,1,3.571.9,1.839,1.839,0,0,0-.215-.654l-.724-1.966a5.66,5.66,0,0,1,1.495.253l3.643.725a11.9,11.9,0,0,0-1.594-2.707c-1.359-1.6-3.223-2.125-5.166-2.648a2.874,2.874,0,0,1-1.649-.833c-1.626-1.939-1.372-6.905-1.131-9.383l4.51-.866,2.487,4.609a40.491,40.491,0,0,0,2.634,4.489,6.594,6.594,0,0,0,5.473,2.75,24.248,24.248,0,0,1,2.658.025l5.545.983a15.265,15.265,0,0,0-1.258-2.59l4.992.915a9.271,9.271,0,0,0-1.344-2.561,6.756,6.756,0,0,0-4.034-2.377c-.521-.107-1.058-.11-1.583-.193a2.661,2.661,0,0,1-1.664-1.133,6.037,6.037,0,0,1-.885-2.327,21.471,21.471,0,0,1,.252-7.4l9.83-6.321a63.8,63.8,0,0,0,8.57-8.083c2.481-2.827,4.615-6.062,7.687-8.3a19.246,19.246,0,0,1,6.073-3.015l3.411-.859a24.211,24.211,0,0,0,9.579-5.211,39.291,39.291,0,0,0,3.1-3.753,8.413,8.413,0,0,0,1.895-1.044,12,12,0,0,0,2.9-3.319,16.364,16.364,0,0,0,2.257-8.354A8.6,8.6,0,0,0,3905.593,2247.5Z" transform="translate(-3680.956 -2096.489)" fill="#6b3605" opacity="0.18"/>
      <g id="Grupo_1189072" data-name="Grupo 1189072" transform="translate(46.911 119.233)">
        <g id="Grupo_1189071" data-name="Grupo 1189071">
          <g id="Grupo_1189070" data-name="Grupo 1189070">
            <path id="Trazado_876190" data-name="Trazado 876190" d="M3806.85,2414.792l9.739.867.006.159c1.778,1.318,3.432,2.7,4.2,4.867l-6.215-1.17a10.044,10.044,0,0,1,1.932,2.375l-8.336-1.583c-2.409-.414-5.085-.507-7.37-1.432a6.265,6.265,0,0,1-2.625-2,1.011,1.011,0,0,1-.172-.393l.035-.165,1.708-1.549a3.85,3.85,0,0,1,.847-.721,2.694,2.694,0,0,1,.585-.046A39.516,39.516,0,0,0,3806.85,2414.792Z" transform="translate(-3762.33 -2317.507)" fill="#93480a"/>
            <path id="Trazado_876191" data-name="Trazado 876191" d="M3955.854,2403.382a6.039,6.039,0,0,0,.885,2.327,2.657,2.657,0,0,0,1.664,1.134c.524.083,1.061.086,1.582.193a6.76,6.76,0,0,1,4.035,2.378,9.322,9.322,0,0,1,1.344,2.561l-4.994-.915a15.308,15.308,0,0,1,1.26,2.59l-5.546-.982a24.015,24.015,0,0,0-2.659-.026,6.592,6.592,0,0,1-5.473-2.75,40.44,40.44,0,0,1-2.634-4.489l-2.488-4.609a59.011,59.011,0,0,0,13.276-4.809A21.478,21.478,0,0,0,3955.854,2403.382Z" transform="translate(-3834.743 -2308.497)" fill="#93480a"/>
            <path id="Trazado_876192" data-name="Trazado 876192" d="M3777.646,2421.333a26.493,26.493,0,0,1,7.241,1.916,9.176,9.176,0,0,1,4.855,5.455l-4.884-1.114a8.05,8.05,0,0,1,1.383,3.08,44.212,44.212,0,0,0-6.583-2.022c.045.557.7,1.162.774,1.8.027.226.04.265-.095.444a22.152,22.152,0,0,0-5.709-1.709l-5.34-1.061a33.47,33.47,0,0,1-4.559-1.116c-1.247-.437-2.745-1.1-3.336-2.365a5.118,5.118,0,0,1-.019-3.478l.3-.173a.73.73,0,0,1,.522-.187c.292-.015.593.068.891.063l4.059-.083a43.861,43.861,0,0,1,6.418-.127c.48.061.956.037,1.433.088a14.452,14.452,0,0,1,2.041.489,1.068,1.068,0,0,0,.572-.047Z" transform="translate(-3743.865 -2320.786)" fill="#93480a"/>
            <path id="Trazado_876193" data-name="Trazado 876193" d="M4027.375,2293.733l.193.031a8.586,8.586,0,0,1,.161,2.159,16.369,16.369,0,0,1-2.256,8.354,12,12,0,0,1-2.9,3.319,8.383,8.383,0,0,1-1.894,1.045,39.342,39.342,0,0,1-3.1,3.753,24.208,24.208,0,0,1-9.579,5.211l-3.412.858a19.262,19.262,0,0,0-6.073,3.016c-3.072,2.242-5.206,5.477-7.687,8.3a63.732,63.732,0,0,1-8.57,8.082l-2.351-.352a21,21,0,0,1-4.414-1.461l-.024-.058c.424-.427.99-.758,1.449-1.156l3.771-3.459a57.345,57.345,0,0,0,8.225-10.045,10.394,10.394,0,0,0,1.72-3.341c5.808-1.127,11.237-2.932,16.013-6.538a22.851,22.851,0,0,0,3.365-2.966,9.74,9.74,0,0,0,1.04-1.073c.661.294,2.469-.231,3.226-.435a11.545,11.545,0,0,0,6.839-4.928c.513-.818.883-1.721,1.365-2.56a.467.467,0,0,0-.14-.095,20.506,20.506,0,0,1-3.084-2.161,7.439,7.439,0,0,1-2.372-2.743,1.6,1.6,0,0,1,.158-.727c1-1.737,3.7-.791,5.175-.3a4.793,4.793,0,0,0,.951.325,5.558,5.558,0,0,0,.8-.472,7.581,7.581,0,0,1,1.987-.926A2.314,2.314,0,0,1,4027.375,2293.733Z" transform="translate(-3851.06 -2256.701)" fill="#e0c29b"/>
            <path id="Trazado_876194" data-name="Trazado 876194" d="M4064.48,2293.733l.193.031a8.541,8.541,0,0,1,.161,2.159,16.373,16.373,0,0,1-2.256,8.354,12,12,0,0,1-2.9,3.319,8.362,8.362,0,0,1-1.894,1.045,5.132,5.132,0,0,0-1.039-.313,10.129,10.129,0,0,0-.987.726,6.953,6.953,0,0,1-1.918.706,5.717,5.717,0,0,1-4.165-.885l1.619.284a6.078,6.078,0,0,0,4.615-1.331c2.385-1.9,3.367-5.424,3.676-8.333a.484.484,0,0,0-.139-.095,20.407,20.407,0,0,1-3.084-2.161,7.452,7.452,0,0,1-2.374-2.743,1.62,1.62,0,0,1,.158-.727c1-1.737,3.7-.791,5.175-.3a4.837,4.837,0,0,0,.952.325,5.611,5.611,0,0,0,.8-.472,7.594,7.594,0,0,1,1.985-.926A2.312,2.312,0,0,1,4064.48,2293.733Z" transform="translate(-3888.167 -2256.701)" fill="#9f540f"/>
            <path id="Trazado_876195" data-name="Trazado 876195" d="M4074.249,2297.259a16.371,16.371,0,0,1-2.256,8.355,12,12,0,0,1-2.9,3.319l-.492-.333a3.212,3.212,0,0,1-.052-1.346,44.424,44.424,0,0,1,.875-4.36c.127-.659.139-1.508.332-2.125.1-.309,1.4-1.176,1.734-1.463a5.966,5.966,0,0,0,2.405-4.235l.193.03A8.589,8.589,0,0,1,4074.249,2297.259Z" transform="translate(-3897.582 -2258.038)" fill="#e0c29b"/>
            <path id="Trazado_876196" data-name="Trazado 876196" d="M3982.077,2234.717c.989.146,1.977.254,2.956.474l5.472,1.445.062.031c1.021.505,2.24.813,3.313,1.214a70.664,70.664,0,0,1,6.546,2.776,61.5,61.5,0,0,1,8.484,5.065,66.054,66.054,0,0,1,10.741,9.634c1.78,1.975,3.728,4.267,4.625,6.811a11.044,11.044,0,0,1,.571,2.52l-.192-.03a2.312,2.312,0,0,0-1.422-1.336,7.624,7.624,0,0,0-1.987.925,5.461,5.461,0,0,1-.8.472,4.805,4.805,0,0,1-.952-.325c-1.471-.492-4.177-1.438-5.174.3a1.594,1.594,0,0,0-.159.727,7.451,7.451,0,0,0,2.372,2.743,20.487,20.487,0,0,0,3.084,2.161.491.491,0,0,1,.141.094c-.482.84-.852,1.742-1.366,2.561a11.546,11.546,0,0,1-6.838,4.928c-.758.2-2.566.729-3.227.436a32.59,32.59,0,0,0,2.1-2.957,17.534,17.534,0,0,0,2.032-6.2c.7-4.6-1.37-7.984-3.975-11.53-6.611-9.006-16.05-16.737-26.674-20.419a64.5,64.5,0,0,0-11.463-2.637,3.457,3.457,0,0,1-.328-.265l.089-.083,9.441.332A6.051,6.051,0,0,1,3982.077,2234.717Z" transform="translate(-3848.34 -2227.626)" fill="#f9e4c5"/>
            <path id="Trazado_876197" data-name="Trazado 876197" d="M4000.1,2236.9c1.021.5,2.241.813,3.314,1.215a70.267,70.267,0,0,1,6.545,2.776,61.423,61.423,0,0,1,8.485,5.064,66.053,66.053,0,0,1,10.741,9.633c1.779,1.976,3.728,4.268,4.624,6.811a11.014,11.014,0,0,1,.572,2.521l-.193-.03a2.313,2.313,0,0,0-1.421-1.336,8.164,8.164,0,0,0-.917-1.812,52.328,52.328,0,0,0-10.284-11.347,73.571,73.571,0,0,0-19.125-11.793c-1.736-.732-3.463-1.446-5.26-2.02-2.664-.851-5.375-1.184-8.094-1.77a6.052,6.052,0,0,1,2.524.137c.988.147,1.977.253,2.955.473l5.473,1.446Z" transform="translate(-3857.871 -2227.862)" fill="#de7604"/>
            <path id="Trazado_876198" data-name="Trazado 876198" d="M3959.575,2228.568c-.977-.22-1.966-.327-2.955-.474a6.059,6.059,0,0,0-2.524-.136l-9.442-.333-.089.084a3.274,3.274,0,0,0,.329.264c1.945,1.944,4.946,4.3,4.955,7.33.005,1.718-.077,2.927-1.348,4.184-1.549,1.534-3.708,1.877-5.6,2.794a33.852,33.852,0,0,0-2.963,1.931,18.975,18.975,0,0,1-10.069,2.738c-1.9-.016-4.388-.506-5.833-1.852l.364-.929a4.5,4.5,0,0,1-1.062-2.321c-.211-1.6.355-3.257-.546-4.722s-2.463-2.408-3.609-3.658l-.07-.078.08-.189.614-.821.034-.055a14.1,14.1,0,0,1,2.5-2.728,20.18,20.18,0,0,1,9.168-4.851,14.608,14.608,0,0,1,11.556,1.931,22.876,22.876,0,0,1,8.754-5.173,9.4,9.4,0,0,1,7.467.572,13.137,13.137,0,0,1,5.76,7.937Z" transform="translate(-3822.882 -2221.004)" fill="#ba610a"/>
            <path id="Trazado_876199" data-name="Trazado 876199" d="M3935.235,2241.708c-4-2.469-8.161-2.554-12.614-1.4-1.132.294-2.221.741-3.354,1.01l.614-.821h.057a3.662,3.662,0,0,0,1.248-.613l2.056-1c4.269-1.959,10.149-2.613,14,.566,2.392,1.975,5.974,7.484,9.37,7.209.587-.047,1.124-.329,1.684-.374a6.863,6.863,0,0,1-5.351,1.592,4.034,4.034,0,0,1-1.363-.369C3939.2,2245.869,3937.72,2243.243,3935.235,2241.708Z" transform="translate(-3822.961 -2229.121)" fill="#9f540f"/>
            <path id="Trazado_876200" data-name="Trazado 876200" d="M3939.4,2249.681l-4.541-.616a22.9,22.9,0,0,0,1.68,2.652c-2.526,1.537-4.686,3.1-7.672,3.664a6.717,6.717,0,0,1-2.98.032,6.888,6.888,0,0,1-1.494-.771,4.5,4.5,0,0,1-1.062-2.322c-.211-1.6.355-3.256-.546-4.722s-2.463-2.408-3.609-3.658l-.07-.077.08-.19c1.131-.269,2.221-.716,3.353-1.01,4.453-1.153,8.62-1.07,12.615,1.4,2.484,1.535,3.962,4.161,6.342,5.8A5.871,5.871,0,0,1,3939.4,2249.681Z" transform="translate(-3822.882 -2231.476)" fill="#de7604"/>
            <path id="Trazado_876201" data-name="Trazado 876201" d="M3731.808,2305.54a23.063,23.063,0,0,0,4.246,1.216,47.26,47.26,0,0,1,6.46,2.495c9.324,4.381,17.221,12.13,22.724,20.767a43.458,43.458,0,0,1,5.006,10.412,19.151,19.151,0,0,1,.692,2.867,16.6,16.6,0,0,0,.287,2.23,5.342,5.342,0,0,0,.735,1.284,14.008,14.008,0,0,0,5.161,4.71c5.664,3,12.489,3.692,18.786,3.044a35.517,35.517,0,0,0,7.056-1.363c1.88-.59,3.835-1.523,4.8-3.345s.631-3.491.279-5.4a17.246,17.246,0,0,1,1.459,2.954l4.218,8.413c.638,1.263,1.474,2.41,2.113,3.677a151.372,151.372,0,0,1-24.706,2.04l-6.933-.022a23.943,23.943,0,0,0-3.283-.112l-9.739-.866a39.328,39.328,0,0,1-5.664-.788,2.7,2.7,0,0,0-.585.046,3.848,3.848,0,0,0-.847.721l-1.708,1.549-.034.164a4.473,4.473,0,0,0-1.933,1.428,1.075,1.075,0,0,1-.572.047,14.311,14.311,0,0,0-2.041-.489c-.478-.051-.953-.027-1.433-.088a43.966,43.966,0,0,0-6.418.127l-4.059.082c-.3.006-.6-.078-.891-.063a.733.733,0,0,0-.522.187l-.368-.056a6.559,6.559,0,0,0-1.1-2.825,30.992,30.992,0,0,0-3.936-4.313,54.066,54.066,0,0,1-4.9-5.511c-6.668-8.857-8.531-19.879-6.99-30.689a54.262,54.262,0,0,1,1.468-6.8c.184-.668.335-1.808.9-2.228a1.842,1.842,0,0,1-.091-.319,3.71,3.71,0,0,1,.276-.881c.365-1.062.742-2.136,1.2-3.16.184-.405.409-1.007.847-1.172Z" transform="translate(-3726.649 -2263.259)" fill="#b55b09"/>
            <path id="Trazado_876202" data-name="Trazado 876202" d="M3729.04,2325.6c.04.764,0,1.533.108,2.292a50.352,50.352,0,0,0,1.3,7.472c2.262,7.691,6.572,15.414,13.021,20.366a26.665,26.665,0,0,0,14.719,5.916,13.2,13.2,0,0,0,2.365.045l.27-.056c.354-.075.743-.061,1.1-.109a11.555,11.555,0,0,0,2.817-.676,11.354,11.354,0,0,0,3.988-2.445,7.609,7.609,0,0,1,1.177-1.209,21.667,21.667,0,0,1-2.9,5.379c-.333.457-1.944,2.227-1.925,2.6l.418.11a2.7,2.7,0,0,0-.585.047,3.846,3.846,0,0,0-.847.72l-1.708,1.549-.034.164a4.478,4.478,0,0,0-1.933,1.428,1.07,1.07,0,0,1-.572.048,14.347,14.347,0,0,0-2.041-.49c-.478-.051-.953-.027-1.433-.088a43.966,43.966,0,0,0-6.418.127l-4.059.083c-.3.006-.6-.078-.891-.063a.732.732,0,0,0-.522.186l-.368-.055a6.553,6.553,0,0,0-1.1-2.825,31,31,0,0,0-3.936-4.314,54.048,54.048,0,0,1-4.9-5.511c-6.668-8.856-8.531-19.878-6.99-30.689a54.277,54.277,0,0,1,1.468-6.8c.184-.668.335-1.808.9-2.228A44.661,44.661,0,0,0,3729.04,2325.6Z" transform="translate(-3726.649 -2268.791)" fill="#a55a1c"/>
            <path id="Trazado_876203" data-name="Trazado 876203" d="M3985.142,2279.762a22.908,22.908,0,0,1-3.366,2.966c-4.775,3.6-10.205,5.411-16.013,6.538-9.144,1.34-21.04-1.071-28.676-6.37a7.786,7.786,0,0,1-1.672-1.241,25.484,25.484,0,0,1-9.361-24.295,45.071,45.071,0,0,1,1.291-5.291c1.446,1.346,3.929,1.836,5.833,1.852a18.974,18.974,0,0,0,10.07-2.738,34.056,34.056,0,0,1,2.963-1.931c1.894-.917,4.052-1.26,5.6-2.794,1.271-1.258,1.353-2.467,1.348-4.184-.009-3.033-3.011-5.386-4.955-7.33a64.5,64.5,0,0,1,11.463,2.637c10.624,3.682,20.063,11.413,26.675,20.42,2.6,3.546,4.672,6.93,3.974,11.53a17.507,17.507,0,0,1-2.032,6.2,32.951,32.951,0,0,1-2.1,2.957A9.688,9.688,0,0,1,3985.142,2279.762Z" transform="translate(-3826.195 -2227.974)" fill="#de7604"/>
            <path id="Trazado_876204" data-name="Trazado 876204" d="M3993.129,2327.55c-4.775,3.6-10.2,5.411-16.012,6.538-9.144,1.341-21.04-1.071-28.676-6.37.412-.24.929.037,1.348.181,2.163.739,4.259,1.524,6.474,2.115a51.19,51.19,0,0,0,15.711,1.6,58.384,58.384,0,0,0,16.737-3.53,41.372,41.372,0,0,0,6.573-3.018,2.686,2.686,0,0,1,1.212-.478A22.828,22.828,0,0,1,3993.129,2327.55Z" transform="translate(-3837.549 -2272.795)" fill="#ba610a"/>
            <path id="Trazado_876205" data-name="Trazado 876205" d="M3998.908,2263.992a6.168,6.168,0,0,1,1.364,4.672,6.056,6.056,0,0,1-2.348,3.937,7.893,7.893,0,0,1-4.94,1.534,7.223,7.223,0,0,1-5.126-2.34A6.36,6.36,0,0,1,3986.4,2267a6.645,6.645,0,0,1,2.448-4.266,6.885,6.885,0,0,1,4.568-1.385l.053.006A7.768,7.768,0,0,1,3998.908,2263.992Z" transform="translate(-3856.513 -2241.168)" fill="#763b05"/>
            <path id="Trazado_876206" data-name="Trazado 876206" d="M4000.751,2267.227a4.486,4.486,0,0,1,.206,3.41,4.257,4.257,0,0,1-2.406,2.512,4.788,4.788,0,0,1-2.124.315,4.182,4.182,0,0,1-2.814-2.023,4.534,4.534,0,0,1-.136-3.487,4.458,4.458,0,0,1,2.159-2.561,4.716,4.716,0,0,1,2.4-.391A4.218,4.218,0,0,1,4000.751,2267.227Z" transform="translate(-3859.926 -2242.997)" fill="#070605"/>
            <path id="Trazado_876207" data-name="Trazado 876207" d="M3996.2,2275.816c-.173.258-.243.386-.569.456a1.543,1.543,0,0,1-.368.011c-.176-.351-.332-.495-.231-.882a1.091,1.091,0,0,1,.858-.374A1.533,1.533,0,0,1,3996.2,2275.816Z" transform="translate(-3860.829 -2248.017)" fill="#fefefe"/>
            <path id="Trazado_876208" data-name="Trazado 876208" d="M4003.309,2268.113a1.623,1.623,0,0,1-.227,1.26,1.912,1.912,0,0,1-1.084.828,3.337,3.337,0,0,1-.865-.025,2.139,2.139,0,0,1-1.214-1.314,1.564,1.564,0,0,1,.2-1.177,1.928,1.928,0,0,1,1.167-.881,2.711,2.711,0,0,1,.845,0C4002.7,2267.153,4003.133,2267.415,4003.309,2268.113Z" transform="translate(-3863.268 -2243.886)" fill="#fefefe"/>
            <path id="Trazado_876209" data-name="Trazado 876209" d="M3828.044,2245.245c1.146,1.25,2.7,2.181,3.609,3.658s.335,3.123.546,4.721a4.51,4.51,0,0,0,1.062,2.322l-.364.929a45.153,45.153,0,0,0-1.291,5.291,25.484,25.484,0,0,0,9.361,24.3,7.78,7.78,0,0,0,1.672,1.241c7.636,5.3,19.532,7.711,28.675,6.37a10.359,10.359,0,0,1-1.719,3.34,57.31,57.31,0,0,1-8.225,10.046l-3.771,3.459c-.458.4-1.025.728-1.449,1.156l.024.057a20.987,20.987,0,0,0,4.414,1.461l2.35.352-9.83,6.323a59,59,0,0,1-13.274,4.809l-4.51.866c-.241,2.478-.5,7.444,1.132,9.383a2.87,2.87,0,0,0,1.647.833c1.943.522,3.807,1.047,5.167,2.648a11.932,11.932,0,0,1,1.593,2.706l-3.642-.725a5.684,5.684,0,0,0-1.495-.253l.725,1.967a1.857,1.857,0,0,1,.214.653,19.169,19.169,0,0,0-3.571-.9l-4.5-.5c-1.75-.184-3.594-.208-5.044-1.33a13.223,13.223,0,0,1-3.355-4.85l-1.8-3.783a25.15,25.15,0,0,1-1.468-2.77c-.64-1.267-1.476-2.414-2.114-3.677l-4.218-8.413a17.169,17.169,0,0,0-1.458-2.954c.352,1.907.681,3.583-.279,5.4s-2.919,2.754-4.8,3.345a35.476,35.476,0,0,1-7.056,1.363c-6.3.648-13.123-.043-18.786-3.045a14.008,14.008,0,0,1-5.161-4.711,5.349,5.349,0,0,1-.735-1.283,16.6,16.6,0,0,1-.287-2.231,19.288,19.288,0,0,0-.692-2.867,43.476,43.476,0,0,0-5.006-10.412c-5.5-8.637-13.4-16.386-22.723-20.767a47.308,47.308,0,0,0-6.46-2.5,23.024,23.024,0,0,1-4.246-1.216l-.051-.028c-.08-.51.3-.975.563-1.4l2.081-3.179a49.8,49.8,0,0,1,17.243-14.486,62.15,62.15,0,0,1,7.2-3.311,49.594,49.594,0,0,1,18.811-3.1l8.8.744,10.227.913a68.583,68.583,0,0,0,15.562-.4,16.808,16.808,0,0,0,.84-1.6,10.73,10.73,0,0,1,4.54-3.939,6.484,6.484,0,0,1,3.759-.622,10.024,10.024,0,0,1,1.493.528Z" transform="translate(-3731.747 -2232.781)" fill="#de7604"/>
            <path id="Trazado_876210" data-name="Trazado 876210" d="M3959.075,2381.173l2.351.352-9.829,6.322a59.03,59.03,0,0,1-13.276,4.81l-4.51.865a12.587,12.587,0,0,1,2.04-5.91,19.3,19.3,0,0,1,2.339-2.566l2.255-2.363a10.081,10.081,0,0,1-3.2,4.922,5.413,5.413,0,0,0,1.478-.239,39.373,39.373,0,0,0,12.5-5.235c.717-.444,1.418-.934,2.089-1.448a7.23,7.23,0,0,1,1.353-.973A21.022,21.022,0,0,0,3959.075,2381.173Z" transform="translate(-3830.233 -2300.36)" fill="#ba610a"/>
            <path id="Trazado_876211" data-name="Trazado 876211" d="M3903.417,2245.245c1.146,1.25,2.7,2.181,3.609,3.658s.335,3.123.545,4.721a4.523,4.523,0,0,0,1.063,2.322l-.364.929a45.157,45.157,0,0,0-1.292,5.291,25.486,25.486,0,0,0,9.362,24.3,7.78,7.78,0,0,0,1.672,1.241c7.636,5.3,19.532,7.711,28.676,6.37a10.38,10.38,0,0,1-1.72,3.34,57.351,57.351,0,0,1-8.225,10.046l-3.771,3.459c-.459.4-1.025.728-1.449,1.156a7.987,7.987,0,0,1-1.928-.985,18,18,0,0,1-5.306-5.065,16.421,16.421,0,0,0,3.278,6.857l-.858-.291c-4.095-1.5-7.514-4.144-10.884-6.829a45.98,45.98,0,0,1-6.183-5.6,29.707,29.707,0,0,1-4.136-6.226,18.03,18.03,0,0,1-1.456-4.025,14.215,14.215,0,0,0-.655-2.7,13.415,13.415,0,0,0-.112,2.614,21.942,21.942,0,0,0,.408,4.657,30.952,30.952,0,0,0,2.171,5.91l-.082-.018a5.034,5.034,0,0,1-.792-.62l-2.012-1.6c-5.174-4.18-10.018-8.658-12.716-14.876-3.748-8.636-3.345-18.361-.107-27.083a24.358,24.358,0,0,1,1.265-2.883,25.032,25.032,0,0,0,1.3-2.5,16.7,16.7,0,0,0,.84-1.6,10.739,10.739,0,0,1,4.54-3.939,6.485,6.485,0,0,1,3.76-.622,10.089,10.089,0,0,1,1.494.528Z" transform="translate(-3807.12 -2232.781)" fill="#f9e4c5"/>
          </g>
        </g>
      </g>
    </g>
  </g>
</svg>
