<svg xmlns="http://www.w3.org/2000/svg" xmlns:xlink="http://www.w3.org/1999/xlink" width="146.427" height="172.032" viewBox="0 0 146.427 172.032">
  <defs>
    <filter id="Rect치ngulo_403073" x="0" y="0" width="146.427" height="172.032" filterUnits="userSpaceOnUse">
      <feOffset dy="3" input="SourceAlpha"/>
      <feGaussianBlur stdDeviation="3" result="blur"/>
      <feFlood flood-opacity="0.161"/>
      <feComposite operator="in" in2="blur"/>
      <feComposite in="SourceGraphic"/>
    </filter>
  </defs>
  <g id="Grupo_1189815" data-name="Grupo 1189815" transform="translate(-195.445 -3644)">
    <g transform="matrix(1, 0, 0, 1, 195.45, 3644)" filter="url(#Rect치ngulo_403073)">
      <rect id="Rect치ngulo_403073-2" data-name="Rect치ngulo 403073" width="128.427" height="154.032" rx="10" transform="translate(9 6)" fill="#fee3e0"/>
    </g>
    <g id="Grupo_1189814" data-name="Grupo 1189814" transform="translate(225.445 3683.451)">
      <g id="Grupo_1189813" data-name="Grupo 1189813" transform="translate(0 0.549)">
        <path id="Trazado_878055" data-name="Trazado 878055" d="M53.66,390.4a1.67,1.67,0,0,0,1.67,1.67h6.793a1.67,1.67,0,1,0,0-3.34H55.33A1.67,1.67,0,0,0,53.66,390.4Z" transform="translate(-44.698 -323.899)"/>
        <path id="Trazado_878056" data-name="Trazado 878056" d="M4.493,388.729H1.671a1.67,1.67,0,1,0,0,3.34H4.493a1.67,1.67,0,0,0,0-3.34Z" transform="translate(-0.001 -323.899)"/>
        <path id="Trazado_878057" data-name="Trazado 878057" d="M78.317,384.062a1.67,1.67,0,0,0-2.348.258l-7.054,8.794H55.33a1.67,1.67,0,1,0,0,3.34H69.717a1.67,1.67,0,0,0,1.3-.625l7.556-9.419A1.67,1.67,0,0,0,78.317,384.062Z" transform="translate(-44.698 -319.705)"/>
        <path id="Trazado_878058" data-name="Trazado 878058" d="M4.493,440.09H1.671a1.67,1.67,0,1,0,0,3.34H4.493a1.67,1.67,0,0,0,0-3.34Z" transform="translate(-0.001 -366.682)"/>
        <path id="Trazado_878059" data-name="Trazado 878059" d="M4.493,491.452H1.671a1.67,1.67,0,1,0,0,3.34H4.493a1.67,1.67,0,0,0,0-3.34Z" transform="translate(-0.001 -409.466)"/>
        <path id="Trazado_878060" data-name="Trazado 878060" d="M69.717,491.452H55.33a1.67,1.67,0,0,0,0,3.34H69.717a1.67,1.67,0,1,0,0-3.34Z" transform="translate(-44.698 -409.466)"/>
        <path id="Trazado_878061" data-name="Trazado 878061" d="M418.176,217.473A6.175,6.175,0,1,0,412,223.64,6.174,6.174,0,0,0,418.176,217.473Zm-9.009,0A2.834,2.834,0,1,1,412,220.3,2.832,2.832,0,0,1,409.167,217.473Z" transform="translate(-338.05 -176.111)"/>
        <path id="Trazado_878062" data-name="Trazado 878062" d="M42.765,258.766a6.175,6.175,0,1,0-6.177,6.167A6.177,6.177,0,0,0,42.765,258.766Zm-9.009,0a2.834,2.834,0,1,1,2.832,2.827A2.83,2.83,0,0,1,33.756,258.766Z" transform="translate(-25.336 -210.508)"/>
        <path id="Trazado_878063" data-name="Trazado 878063" d="M325.557,20.961l-3.293-5.686,3.293-5.691a1.67,1.67,0,0,0,0-1.673L321.78,1.383a1.67,1.67,0,0,0-1.445-.834h-7.556a1.67,1.67,0,0,0-1.445.834l-3.3,5.694h-6.588a1.67,1.67,0,0,0-1.445.834l-3.3,5.694h-6.592a1.67,1.67,0,1,0,0,3.34h6.592l3.3,5.694a1.67,1.67,0,0,0,1.445.834l6.588,0,3.295,5.694a1.67,1.67,0,0,0,1.445.834h6.592l3.3,5.694a1.67,1.67,0,1,0,2.891-1.673l-3.294-5.691,3.294-5.691a1.67,1.67,0,0,0,0-1.674Zm-17.52-.831-5.624,0L299.6,15.275l2.811-4.858h5.624l2.811,4.858Zm11.334,6.527h-5.629L310.931,21.8l2.811-4.854h5.629l2.811,4.854Zm0-13.051h-5.629l-2.811-4.858,2.811-4.858h5.629l2.811,4.858Z" transform="translate(-240.273 -0.549)"/>
        <path id="Trazado_878064" data-name="Trazado 878064" d="M63.938,50.849A30,30,0,0,0,35.106,22.07c-.013-8.381-3.328-15.537-9.6-20.293A6.039,6.039,0,0,0,15.864,7.4a5.992,5.992,0,0,0,2.328,3.993,11.759,11.759,0,0,1,1.73,1.6l-7.45,7.433a11.794,11.794,0,0,1-1.614-1.73,6.067,6.067,0,0,0-8.473-1.149,6.039,6.039,0,0,0-1.152,8.459c4.71,6.182,11.884,9.541,20.338,9.567A29.623,29.623,0,0,0,25.508,49.3,1.67,1.67,0,1,0,28.4,47.638a26.46,26.46,0,0,1-2.8-19.292c1.5-6.434.77-11.984-2.033-16.1a1.663,1.663,0,0,0-.106-.151A15.02,15.02,0,0,0,20.21,8.729,2.7,2.7,0,0,1,19.7,4.951a2.714,2.714,0,0,1,3.793-.513c7.151,5.424,9.842,14.583,7.384,25.129A21.234,21.234,0,0,0,51.485,55.639c-.032.153-.064.306-.1.459a38.1,38.1,0,0,0-.818,4.913,26.438,26.438,0,0,1-12.354-3.545,1.67,1.67,0,1,0-1.677,2.889A29.78,29.78,0,0,0,50.4,64.349c.01,8.382,3.324,15.54,9.6,20.3a6.041,6.041,0,1,0,7.317-9.613,11.8,11.8,0,0,1-1.73-1.606l7.453-7.437a11.8,11.8,0,0,1,1.613,1.729,6.043,6.043,0,0,0,9.627-7.309C79.571,54.233,72.4,50.875,63.938,50.849ZM21.769,15.87a16.087,16.087,0,0,1,1.194,7.6,16.123,16.123,0,0,1-7.611-1.193ZM3.889,23.983A2.7,2.7,0,0,1,4.4,20.21a2.72,2.72,0,0,1,3.8.512c3.248,4.262,8.166,6.351,14.309,6.113-.053.261-.108.513-.164.752a30.467,30.467,0,0,0-.712,4.648C16.088,32.233,8.979,30.665,3.889,23.983ZM33.652,34.128a17.775,17.775,0,0,1,7.3,1.414l-5.886,5.873A17.712,17.712,0,0,1,33.652,34.128ZM36.74,44.464l7.268-7.252a18.094,18.094,0,0,1,4.761,4.749L41.5,49.212a18.09,18.09,0,0,1-4.761-4.748Zm7.818,6.417,5.883-5.87a17.734,17.734,0,0,1,1.415,7.284A17.81,17.81,0,0,1,44.559,50.881Zm21.778,28.6a2.666,2.666,0,0,1-.522,1.991,2.718,2.718,0,0,1-3.8.518c-7.152-5.425-9.842-14.584-7.379-25.13A21.234,21.234,0,0,0,34.025,30.785c.032-.154.064-.307.1-.461a38.08,38.08,0,0,0,.816-4.92A26.64,26.64,0,0,1,59.911,58.077c-1.987,8.5-.076,15.469,5.386,19.618A2.673,2.673,0,0,1,66.336,79.477Zm-2.6-8.925a16.071,16.071,0,0,1-1.193-7.6,16.093,16.093,0,0,1,7.614,1.189Zm18.405-6.126A2.7,2.7,0,0,1,77.309,65.7c-3.25-4.265-8.169-6.353-14.31-6.11.053-.261.108-.512.164-.751a30.5,30.5,0,0,0,.711-4.647c5.551,0,12.659,1.57,17.746,8.247A2.668,2.668,0,0,1,82.144,64.426Z" transform="translate(0 -0.549)"/>
        <path id="Trazado_878065" data-name="Trazado 878065" d="M180.393,316.388a1.674,1.674,0,1,0-1.182-.493l0,0A1.659,1.659,0,0,0,180.393,316.388Z" transform="translate(-148.873 -260.854)"/>
      </g>
    </g>
  </g>
</svg>
