<svg xmlns="http://www.w3.org/2000/svg" width="82" height="82" viewBox="0 0 82 82">
  <g id="Grupo_1189679" data-name="Grupo 1189679" transform="translate(-769.073 -1963)">
    <rect id="Rectángulo_402627" data-name="Rectángulo 402627" width="82" height="82" transform="translate(769.073 1963)" fill="none"/>
    <g id="Grupo_1189716" data-name="Grupo 1189716" transform="translate(778.073 1972)">
      <circle id="Elipse_11676" data-name="Elipse 11676" cx="1.5" cy="1.5" r="1.5" transform="translate(31 50)"/>
      <circle id="Elipse_11677" data-name="Elipse 11677" cx="1" cy="1" r="1" transform="translate(8 50)"/>
      <circle id="Elipse_11678" data-name="Elipse 11678" cx="1" cy="1" r="1" transform="translate(54 50)"/>
      <path id="Trazado_877741" data-name="Trazado 877741" d="M63.768,11.359l-5-6A1,1,0,0,0,58,5H45a1,1,0,0,0-.869.5L42.6,8.185,39.707,5.293A1,1,0,0,0,39,5H21a1,1,0,0,0-.707.293L17.542,8.044,16.97,5.758A1,1,0,0,0,16,5H8a.994.994,0,0,0-.581.187l-7,5A1,1,0,0,0,0,11V53a6.006,6.006,0,0,0,6,6H58a6.006,6.006,0,0,0,6-6V12a1,1,0,0,0-.232-.641ZM47.781,43,45.187,32.622,51.922,30.1,62,35.594V43ZM39.965,32.737a1,1,0,0,0-1.144-.72L28.057,33.974l-9.77-2.932a1,1,0,0,0-1.236,1.274L21.016,44,21,49.5a1.5,1.5,0,0,1-3,0V44c0-.123-4.868-12.843-4.868-12.843l2.277-3.036S27.768,31,27.843,31a.723.723,0,0,0,.425-.036l7.2-2a1,1,0,1,0-.535-1.928l-6.956,1.933-11.308-2.61,5.9-8.425,14.042-1.873,7.568,8.408L39.732,25.7a1,1,0,1,0,.536,1.928l4.929-1.37.662,3.974-2.211.828a1,1,0,0,0-.618,1.179L46,44v5.5a1.5,1.5,0,0,1-3,0V44C43,43.911,39.965,32.737,39.965,32.737ZM22.721,43l-3.163-9.488,8.155,2.446a.967.967,0,0,0,.466.025l10.1-1.836L40.691,43ZM2,28.427l9.23,3.357L15.544,43H2Zm52.543-3.091L62,28.65v4.665l-8.742-4.768Zm1.523-1.512L62,19.868v6.593ZM36.919,7l-2.431,3.039-10.788.9L22.388,7ZM8.32,7h6.9l1.7,6.8-1.738,2.484a1,1,0,1,0,1.638,1.147l2-2.858a1,1,0,0,0,.151-.815l-.863-3.451,2.456-2.456,1.488,4.465A1,1,0,0,0,23,13a.781.781,0,0,0,.083,0l12-1a1,1,0,0,0,.7-.371l3.3-4.128,2.488,2.488L40.132,12.5a1,1,0,0,0,.209,1.25l8,7a1,1,0,0,0,1.155.115l10-5.714a1,1,0,0,0-.992-1.736l-9.381,5.36-6.849-5.992L45.581,7H57.532L62,12.362v5.1l-8.555,5.7a1.9,1.9,0,0,0-.374.461l-1.836,4.59-3.468,1.3-.781-4.683a1.748,1.748,0,0,0-.243-.5l-9-10a1,1,0,0,0-.875-.322l-15,2a1,1,0,0,0-.687.418l-7,10-2.539,3.385L2,26.3V23.22S10.935,25,11,25a1,1,0,0,0,.819-.427l2.1-3a1,1,0,1,0-1.638-1.146l-1.725,2.465L2,21.18V11.515ZM58,57H6a4,4,0,0,1-4-4V45H16v4.5a3.5,3.5,0,0,0,7,0V45H41v4.5a3.5,3.5,0,0,0,7,0V45H62v8A4,4,0,0,1,58,57Z"/>
    </g>
  </g>
</svg>
