<svg xmlns="http://www.w3.org/2000/svg" width="83.701" height="84.387" viewBox="0 0 83.701 84.387">
  <g id="Grupo_1189792" data-name="Grupo 1189792" transform="translate(-0.307)">
    <path id="Rectángulo_402596" data-name="Rectángulo 402596" d="M83.7,0h0a0,0,0,0,1,0,0V73.785a10.6,10.6,0,0,1-10.6,10.6H0a0,0,0,0,1,0,0V83.7A83.7,83.7,0,0,1,83.7,0Z" transform="translate(0.307)" fill="#fdaa30"/>
    <path id="Trazado_874772" data-name="Trazado 874772" d="M10.583,4.6a.878.878,0,0,1,.8.386,1.546,1.546,0,0,1,.248.854,1.416,1.416,0,0,1-.248.826.9.9,0,0,1-.8.358H7.058q0,1.267,0,2.258A9.958,9.958,0,0,1,7,10.6a.949.949,0,0,1-.386.826,1.377,1.377,0,0,1-1.652,0A.949.949,0,0,1,4.58,10.6V7.025h-3.3A1.27,1.27,0,0,1,.256,6.667a1.04,1.04,0,0,1-.248-.826,1.574,1.574,0,0,1,.386-.854A1.1,1.1,0,0,1,1.275,4.6h3.3V1.242A1.139,1.139,0,0,1,4.965.25,1.254,1.254,0,0,1,5.792,0a1.387,1.387,0,0,1,.826.358A1.1,1.1,0,0,1,7,1.242a8.027,8.027,0,0,1,.055,1.212q0,.936,0,2.148Z" transform="translate(62.323 70.818) rotate(-43)" fill="#fff"/>
    <g id="_x30_7_-_Rabbit_1_" transform="translate(-82.605 -14.885)">
      <path id="Trazado_878066" data-name="Trazado 878066" d="M239.981,413.493a.5.5,0,0,1-.5-.5,1,1,0,1,0-1.991,0,.5.5,0,0,1-.5.5,1,1,0,1,0,0,1.991,2.475,2.475,0,0,0,1.493-.5,2.475,2.475,0,0,0,1.493.5,1,1,0,1,0,0-1.991Z" transform="translate(-115.577 -341.539)"/>
      <circle id="Elipse_11688" data-name="Elipse 11688" cx="0.995" cy="0.995" r="0.995" transform="translate(111.963 67.972)"/>
      <circle id="Elipse_11689" data-name="Elipse 11689" cx="0.995" cy="0.995" r="0.995" transform="translate(131.87 67.972)"/>
      <path id="Trazado_878067" data-name="Trazado 878067" d="M136.237,54.846c4.8-8.585,7.888-30.072,3.048-32.548-7.565-3.894-12.74,24.212-13.139,26.327a9.625,9.625,0,0,0-6.47,0c-.4-2.115-5.574-30.209-13.139-26.327-4.84,2.488-1.754,23.975,3.048,32.548C106.862,57.123,104,61.166,104,65.981c.1,10.115,9.195,13.972,18.912,13.935,9.717.037,18.812-3.82,18.912-13.935C141.823,61.166,138.962,57.123,136.237,54.846Zm-13.325,23.08c-8.622-.05-16.8-2.949-16.921-11.944.224-6.134,4.218-9.58,8.4-12.044a1,1,0,1,0-.871-1.792,18.6,18.6,0,0,0-2.327,1.493c-3.894-5.5-7.154-28.455-3.757-29.574,5.375-1.779,10.065,23.652,10.389,25.431l-1.319.659a.993.993,0,0,0,.883,1.779c1.941-.871,2.887-1.866,5.524-1.891,2.638.025,3.583,1.02,5.524,1.891a.993.993,0,0,0,.883-1.779L128,49.5c.323-1.779,5.014-27.2,10.389-25.431,3.4,1.12.137,24.075-3.757,29.574a17.269,17.269,0,0,0-2.327-1.493,1,1,0,0,0-.871,1.792c4.18,2.463,8.174,5.91,8.4,12.044C139.708,74.977,131.534,77.876,122.912,77.926Z"/>
    </g>
  </g>
</svg>
