<svg xmlns="http://www.w3.org/2000/svg" width="82" height="82" viewBox="0 0 82 82">
  <g id="Grupo_1189704" data-name="Grupo 1189704" transform="translate(-768.781 -1962.939)">
    <rect id="Rectángulo_402627" data-name="Rectángulo 402627" width="82" height="82" transform="translate(768.781 1962.939)" fill="none"/>
    <g id="Grupo_1189731" data-name="Grupo 1189731" transform="translate(776.781 1970.939)">
      <g id="Grupo_1189731-2" data-name="Grupo 1189731">
        <path id="Trazado_877761" data-name="Trazado 877761" d="M28.2,48.8a1.063,1.063,0,0,1-1-.9.945.945,0,0,1,.9-1.1A21.852,21.852,0,0,0,46.8,28.1a1,1,0,0,1,2,.2A23.972,23.972,0,0,1,28.3,48.7a.1.1,0,0,1-.1.1ZM15.5,46.9a.6.6,0,0,1-.4-.1A23.818,23.818,0,0,1,1,25,24.071,24.071,0,0,1,25,1,23.818,23.818,0,0,1,46.8,15.1a.985.985,0,0,1-1.8.8A21.982,21.982,0,1,0,15.9,45a.992.992,0,0,1,.5,1.3.961.961,0,0,1-.9.6Zm11.1-3.5a.987.987,0,0,1-1-.9,1.088,1.088,0,0,1,.9-1.1A16.272,16.272,0,0,0,41.4,26.5a1,1,0,0,1,2,.2A18.3,18.3,0,0,1,26.6,43.4ZM15,40.4a1.421,1.421,0,0,1-.6-.2A18.525,18.525,0,0,1,25,6.5a18.814,18.814,0,0,1,15.2,7.9,1,1,0,0,1-1.6,1.2A16.873,16.873,0,0,0,25,8.5a16.526,16.526,0,0,0-9.4,30.1.9.9,0,0,1,.2,1.4,1.234,1.234,0,0,1-.8.4Z"/>
      </g>
      <g id="Grupo_1189732" data-name="Grupo 1189732">
        <path id="Trazado_877762" data-name="Trazado 877762" d="M41,65A24,24,0,1,1,65,41,24.071,24.071,0,0,1,41,65Zm0-46A22,22,0,1,0,63,41,22.065,22.065,0,0,0,41,19Zm0,40.5A18.5,18.5,0,1,1,59.5,41,18.522,18.522,0,0,1,41,59.5Zm0-35A16.5,16.5,0,1,0,57.5,41,16.516,16.516,0,0,0,41,24.5Z"/>
      </g>
    </g>
  </g>
</svg>
