<svg xmlns="http://www.w3.org/2000/svg" width="505" height="319.62" viewBox="0 0 505 319.62">
  <g id="Grupo_1189104" data-name="Grupo 1189104" transform="translate(1885 6935)">
    <g id="IMAGEN" transform="translate(-1885 -6935)">
      <rect id="Rectángulo_402607" data-name="Rectángulo 402607" width="44" height="153.182" rx="12" transform="translate(461 63.93)" fill="#26c790"/>
      <path id="Rectángulo_402599" data-name="Rectángulo 402599" d="M0,0H74.42a0,0,0,0,1,0,0V.61A74.42,74.42,0,0,1,0,75.03H0a0,0,0,0,1,0,0V0A0,0,0,0,1,0,0Z" transform="translate(0 76.444)" fill="#fdbab3"/>
      <path id="Rectángulo_402630" data-name="Rectángulo 402630" d="M74.42,0h0a0,0,0,0,1,0,0V75.03a0,0,0,0,1,0,0H0a0,0,0,0,1,0,0v-.61A74.42,74.42,0,0,1,74.42,0Z" transform="translate(356.16 238.489)" fill="#fff"/>
      <g id="Grupo_1188572" data-name="Grupo 1188572" transform="translate(18886.764 8877.698)">
        <path id="Rectángulo_402597" data-name="Rectángulo 402597" d="M74.42,0h0a0,0,0,0,1,0,0V75.03a0,0,0,0,1,0,0H0a0,0,0,0,1,0,0v-.61A74.42,74.42,0,0,1,74.42,0Z" transform="translate(-18456.184 -8714.241)" fill="#fdbab3"/>
        <g id="Grupo_1188466" data-name="Grupo 1188466" transform="translate(-18395.285 -8653.132) rotate(-90)">
          <path id="Trazado_874773" data-name="Trazado 874773" d="M.737,1.112c.469,0,.785.412,1.249,1.089A3,3,0,0,0,4.546,3.893,3,3,0,0,0,7.105,2.2c.464-.678.78-1.089,1.249-1.089S9.14,1.524,9.6,2.2a3,3,0,0,0,2.56,1.691A3,3,0,0,0,14.723,2.2c.464-.678.78-1.089,1.249-1.089s.785.412,1.249,1.089a3,3,0,0,0,2.56,1.691A3,3,0,0,0,22.341,2.2c.464-.678.78-1.089,1.249-1.089s.785.412,1.249,1.089A3,3,0,0,0,27.4,3.893,3,3,0,0,0,29.957,2.2c.464-.678.78-1.089,1.249-1.089s.786.412,1.25,1.089a2.783,2.783,0,0,0,5.12,0c.464-.678.78-1.089,1.249-1.089s.786.412,1.251,1.09a2.785,2.785,0,0,0,5.122,0c.465-.678.781-1.09,1.251-1.09.407,0,.737-.249.737-.556S46.857,0,46.45,0a3.006,3.006,0,0,0-2.561,1.691c-.465.678-.781,1.09-1.251,1.09s-.786-.412-1.251-1.089a2.784,2.784,0,0,0-5.121,0c-.464.678-.78,1.089-1.25,1.089s-.786-.412-1.25-1.089a2.783,2.783,0,0,0-5.12,0c-.464.678-.78,1.089-1.25,1.089s-.785-.412-1.249-1.089A3,3,0,0,0,23.59,0a3,3,0,0,0-2.559,1.691c-.464.678-.78,1.089-1.249,1.089S19,2.369,18.532,1.691A3,3,0,0,0,15.973,0a3,3,0,0,0-2.56,1.691c-.464.678-.78,1.089-1.249,1.089s-.785-.412-1.25-1.089A3,3,0,0,0,8.354,0a3,3,0,0,0-2.56,1.691c-.464.678-.78,1.089-1.249,1.089S3.761,2.369,3.3,1.691A3,3,0,0,0,.737,0C.33,0,0,.249,0,.556S.33,1.112.737,1.112Z" transform="translate(0 0)" fill="#fff"/>
        </g>
      </g>
      <g id="Grupo_1188480" data-name="Grupo 1188480" transform="translate(15.436 24.708)">
        <rect id="Rectángulo_402596" data-name="Rectángulo 402596" width="428.286" height="41" transform="translate(13.001 226.625)" fill="#12263f" opacity="0.407"/>
        <g id="Grupo_1099339" data-name="Grupo 1099339" transform="translate(0 0)">
          <g id="primer-plano-de-conejillos-de-indias" fill="#fef0ef" stroke="#1944b6" stroke-width="5">
            <rect width="474.129" height="267.625" rx="14" stroke="none"/>
            <rect x="2.5" y="2.5" width="469.129" height="262.625" rx="11.5" fill="none"/>
          </g>
        </g>
      </g>
      <g id="Grupo_1188479" data-name="Grupo 1188479" transform="translate(430.58 238.489)">
        <path id="Rectángulo_402596-2" data-name="Rectángulo 402596" d="M74.42,0h0a0,0,0,0,1,0,0V65.6a9.427,9.427,0,0,1-9.427,9.427H0a0,0,0,0,1,0,0v-.61A74.42,74.42,0,0,1,74.42,0Z" transform="translate(0)" fill="#fdaa30"/>
        <g id="Grupo_1188461" data-name="Grupo 1188461" transform="translate(27.104 28.144)">
          <path id="Trazado_874753" data-name="Trazado 874753" d="M32.106,4.606,27.958.458a1.622,1.622,0,0,0-2.259,0,1.633,1.633,0,0,0-.1,2.361l.823.823L24.041,6.02l-2-2a1.1,1.1,0,0,0-1.549,0L19,5.517a1.123,1.123,0,0,0,.045,1.593L3.791,22.366a1.493,1.493,0,0,0-.134,1.955l.058,1.872a2.727,2.727,0,0,0,.5,1.486L.157,31.733a.477.477,0,0,0,.674.674l4.054-4.054a2.727,2.727,0,0,0,1.486.5l1.872.058a1.492,1.492,0,0,0,1.955-.134L22.205,16.766a.477.477,0,0,0-.674-.674l-2.137,2.137L14.336,13.17l1.27-1.27,1.512,1.512a.477.477,0,1,0,.674-.674L16.28,11.226,17.5,10l1.512,1.512a.477.477,0,1,0,.674-.674L18.179,9.327l1.543-1.543,5.058,5.058-1.671,1.671a.477.477,0,1,0,.674.674l1.671-1.671a1.119,1.119,0,0,0,1.593.045l1.494-1.494a1.121,1.121,0,0,0,0-1.549l-2-2L27.68,7.387a.477.477,0,0,0-.674-.674L25.87,7.848,24.716,6.694l2.379-2.379,2.651,2.651a1.6,1.6,0,0,0,2.259,0,1.635,1.635,0,0,0,.1-2.361ZM9.524,28.1a.537.537,0,0,1-.76,0,.477.477,0,0,0-.322-.139L6.4,27.9a1.792,1.792,0,0,1-1.732-1.732l-.064-2.04a.477.477,0,0,0-.139-.322.538.538,0,0,1,0-.76l.965-.965,5.058,5.058Zm9.2-9.2-7.557,7.557L6.1,21.4l5.755-5.755,1.512,1.512a.477.477,0,1,0,.674-.674l-1.512-1.512,1.127-1.127Zm9.188-7.609a.138.138,0,0,1-.041.1l-1.494,1.494a.141.141,0,0,1-.2,0l-6.5-6.5c0-.04-.085-.026,0-.2L21.171,4.7c.038.009-.007-.089.2,0l6.5,6.5A.139.139,0,0,1,27.908,11.294Zm3.524-5.1-.1.1a.644.644,0,0,1-.91,0L26.272,2.144a.686.686,0,0,1,.1-1.012.664.664,0,0,1,.91,0L31.432,5.28A.644.644,0,0,1,31.432,6.19Z" transform="translate(-0.017 0)" fill="#12263f"/>
          <path id="Trazado_874754" data-name="Trazado 874754" d="M130.182,114.5a.477.477,0,0,0,.674-.674l-1.1-1.1a.477.477,0,0,0-.674.674Z" transform="translate(-120.739 -105.425)" fill="#12263f"/>
          <path id="Trazado_874755" data-name="Trazado 874755" d="M184.243,86.671a.477.477,0,0,0,.477-.477V84.425a.477.477,0,1,0-.954,0v1.769A.477.477,0,0,0,184.243,86.671Z" transform="translate(-172.082 -78.61)" fill="#12263f"/>
          <path id="Trazado_874756" data-name="Trazado 874756" d="M101.047,168.1h1.769a.477.477,0,0,0,0-.954h-1.769a.477.477,0,0,0,0,.954Z" transform="translate(-94.176 -156.518)" fill="#12263f"/>
          <ellipse id="Elipse_11492" data-name="Elipse 11492" cx="0.489" cy="0.489" rx="0.489" ry="0.489" transform="translate(11.146 22.744)" fill="#12263f"/>
          <ellipse id="Elipse_11493" data-name="Elipse 11493" cx="0.489" cy="0.489" rx="0.489" ry="0.489" transform="translate(12.767 21.174)" fill="#12263f"/>
        </g>
        <path id="Trazado_874772" data-name="Trazado 874772" d="M9.41,4.091a.781.781,0,0,1,.71.343,1.375,1.375,0,0,1,.22.759,1.259,1.259,0,0,1-.22.735.8.8,0,0,1-.71.318H6.276q0,1.126,0,2.008a8.854,8.854,0,0,1-.049,1.175.843.843,0,0,1-.343.735,1.224,1.224,0,0,1-1.469,0,.843.843,0,0,1-.343-.735V6.246H1.134a1.129,1.129,0,0,1-.906-.318.925.925,0,0,1-.22-.735A1.4,1.4,0,0,1,.35,4.434a.98.98,0,0,1,.784-.343H4.072V1.1A1.013,1.013,0,0,1,4.415.223,1.115,1.115,0,0,1,5.149,0a1.233,1.233,0,0,1,.735.318.98.98,0,0,1,.343.784,7.137,7.137,0,0,1,.049,1.077q0,.832,0,1.91Z" transform="translate(55.412 62.966) rotate(-43)" fill="#fff"/>
      </g>
      <g id="Grupo_1188575" data-name="Grupo 1188575" transform="translate(18609.916 8877.7)">
        <g id="Grupo_1188574" data-name="Grupo 1188574">
          <g id="Grupo_1188465" data-name="Grupo 1188465" transform="translate(-18609.916 -8639.212)">
            <path id="Rectángulo_402602" data-name="Rectángulo 402602" d="M0,0H74.42a0,0,0,0,1,0,0V75.03a0,0,0,0,1,0,0h0A74.42,74.42,0,0,1,0,.61V0A0,0,0,0,1,0,0Z" fill="#26c790"/>
            <g id="Grupo_1188464" data-name="Grupo 1188464" transform="translate(29.357 9.782)">
              <path id="Trazado_874763" data-name="Trazado 874763" d="M247.086,245.439a.431.431,0,0,1-.431.431h-.516a.431.431,0,0,1-.431-.431,2.823,2.823,0,0,1,.481-1.4,3.713,3.713,0,0,1,.339-.453c.136-.158.277-.336.42-.529a4.611,4.611,0,0,0,.89-2.467,38.633,38.633,0,0,0-.086-4.892.431.431,0,1,1,.859-.06,39.373,39.373,0,0,1,.087,5.005,5.471,5.471,0,0,1-1.057,2.927c-.155.209-.309.4-.458.577a2.9,2.9,0,0,0-.262.349,2.836,2.836,0,0,0-.26.517A.431.431,0,0,1,247.086,245.439Z" transform="translate(-240.779 -210.545)" fill="#fff"/>
              <path id="Trazado_874764" data-name="Trazado 874764" d="M104.484,260.107a.431.431,0,0,1-.431.431h-.893a.431.431,0,0,1-.329-.709,7.844,7.844,0,0,0,1.5-7.6.431.431,0,1,1,.825-.247,8.687,8.687,0,0,1-1.122,7.7h.017A.431.431,0,0,1,104.484,260.107Z" transform="translate(-82.226 -225.213)" fill="#fff"/>
              <path id="Trazado_874765" data-name="Trazado 874765" d="M167.974,176.362c.2.023.412.041.619.052a2.568,2.568,0,0,1,1.047.286.431.431,0,1,1-.4.764,1.708,1.708,0,0,0-.7-.19c-.222-.013-.447-.032-.666-.056a10.317,10.317,0,0,0-3.051.086c-.8,1.271-.922,3.921-.935,5.029a2.7,2.7,0,0,1-.49,1.536l-.008.008h0c-.011.017-.023.034-.035.05a9.3,9.3,0,0,0-.88,1.523.431.431,0,0,1-.393.256h-2.518a.431.431,0,0,1-.316-.723,10.549,10.549,0,0,0,1.092-1.474c.013-.02.024-.04.036-.061l.03-.051.015-.022a4.628,4.628,0,0,0,.63-2.074,28.913,28.913,0,0,0-.233-6.352c-1.759-1.212-2.8-3.455-3.1-6.672a.431.431,0,0,1,.858-.08,9,9,0,0,0,1.934,5.34,2.658,2.658,0,0,1,.057-.832.431.431,0,1,1,.836.209,3.213,3.213,0,0,0,.207,1.617c0,.011.006.022.01.034s.009.023.011.036a27.483,27.483,0,0,1,.282,6.75,5.5,5.5,0,0,1-.433,1.836h.1a.431.431,0,1,1,0,.862h-.563q-.281.437-.545.8h1.338a9.551,9.551,0,0,1,.855-1.432l.028-.042.008-.009a1.848,1.848,0,0,0,.326-1.04c.018-1.518.194-4.257,1.168-5.628a7.351,7.351,0,0,0,.5-1.1.431.431,0,0,1,.818.272c0,.014-.068.2-.191.488A11.79,11.79,0,0,1,167.974,176.362Z" transform="translate(-152.431 -150.384)" fill="#fff"/>
              <path id="Trazado_874766" data-name="Trazado 874766" d="M50.4,100.835a.431.431,0,0,1,.482-.148,3.787,3.787,0,0,1,2.447,1.991,3.358,3.358,0,0,1-.045,2.539.431.431,0,1,1-.781-.365,2.478,2.478,0,0,0,.033-1.837,2.4,2.4,0,0,0-1-1.09,3.679,3.679,0,0,1-1.058,3.314.431.431,0,0,1-.525.082c-.038-.022-3.845-2.089-10.051.032l-.023.007a13.955,13.955,0,0,1-3.229.463h-.031a3.4,3.4,0,0,1-2.628-1.238,12.339,12.339,0,0,1-1.912-3.161.431.431,0,0,1,.8-.323,11.467,11.467,0,0,0,1.778,2.935,2.539,2.539,0,0,0,1.964.926h.023a13.293,13.293,0,0,0,2.994-.428c5.6-1.908,9.337-.6,10.419-.12a2.6,2.6,0,0,0,.337-3.075A.431.431,0,0,1,50.4,100.835Z" transform="translate(-22.585 -90.469)" fill="#fff"/>
              <path id="Trazado_874767" data-name="Trazado 874767" d="M36.172,136.422a.431.431,0,0,1,.368.485,4.365,4.365,0,0,1-2.786,3.341,9,9,0,0,1-.784,3.975c-.964,2.392-.663,5.98-.489,7.413a2.752,2.752,0,0,1-.35,1.7,10.31,10.31,0,0,0-.927,2.381h0c-.243.89-.357,1.6-.358,1.611a.431.431,0,0,1-.426.363H27.61a.431.431,0,0,1-.366-.659,11.183,11.183,0,0,0,.828-1.595l0-.008a8.582,8.582,0,0,0-.39-7.7,10.516,10.516,0,0,1-1.481.625,6.37,6.37,0,0,1-4.4-.091,3.725,3.725,0,0,0-1.078-.242.431.431,0,1,1,.071-.859,4.585,4.585,0,0,1,1.328.3,5.506,5.506,0,0,0,3.8.075,8.644,8.644,0,0,0,1.673-.75.431.431,0,0,1,.573.113,9.3,9.3,0,0,1,.92,8.276h.311a.431.431,0,0,1,0,.862h-.656q-.179.4-.394.8h1.7c.06-.309.162-.788.312-1.338v0a11,11,0,0,1,1.014-2.588,1.86,1.86,0,0,0,.24-1.166c-.227-1.864-.457-5.362.548-7.847l.006-.014c.011-.023,1.029-2.332.668-3.809h0a6.462,6.462,0,0,0-.5-1.3.431.431,0,0,1,.76-.406,7.767,7.767,0,0,1,.444,1.035,3.491,3.491,0,0,0,2.139-2.608.431.431,0,0,1,.486-.369Z" transform="translate(-4.307 -122.373)" fill="#fff"/>
              <path id="Trazado_874768" data-name="Trazado 874768" d="M220.354,10.714a.98.98,0,0,1,.457.946A2.4,2.4,0,0,1,218.581,14a3.425,3.425,0,0,1-.954,2.491.98.98,0,0,0-.251.563l-.146,1.3a2.235,2.235,0,0,1-.16.616,3.7,3.7,0,0,1-1.79,3.89.431.431,0,0,1-.627-.283q-.048-.21-.1-.4c-.089.071-.174.135-.248.191a3.718,3.718,0,0,1-.96.528,3.565,3.565,0,0,1-.448.129.419.419,0,0,1-.09.01.433.433,0,0,1-.334-.7,2.668,2.668,0,0,0,.432-1.54,1.867,1.867,0,0,0-.032-.379,4.653,4.653,0,0,1-.015-1.775,2.254,2.254,0,0,1-.056-.312l-.125-1.239a.963.963,0,0,0-.185-.473,4.348,4.348,0,0,1-.944-2.75A2.654,2.654,0,0,1,210,13.5a2.582,2.582,0,0,1-1.1-1.888.985.985,0,0,1,1.49-.991,6.89,6.89,0,0,0,1.837.834,5,5,0,0,1,2.288-.854A4.112,4.112,0,0,0,213.4,8.077a4.182,4.182,0,0,0-2.319-1.116,6.309,6.309,0,0,1,1.555,3.054.431.431,0,0,1-.844.171A5.377,5.377,0,0,0,209.578,6.8.431.431,0,0,1,209.8,6h.029a5.679,5.679,0,0,1,4.186,1.47,5.018,5.018,0,0,1,1.369,3.132,4.423,4.423,0,0,1,1.58.485A6.347,6.347,0,0,1,218.638,7a4.01,4.01,0,0,0-2.6,1.444.431.431,0,1,1-.682-.527,5.409,5.409,0,0,1,4.546-1.88h.029a.431.431,0,0,1,.217.8,5.444,5.444,0,0,0-2.331,4.533,6.669,6.669,0,0,0,1.5-.663A.968.968,0,0,1,220.354,10.714Zm-6.566,10.976a8.144,8.144,0,0,0,.669-.551.431.431,0,0,1,.693.144,5.181,5.181,0,0,1,.185.51,2.624,2.624,0,0,0,.9-1.815,2.228,2.228,0,0,1-2.567-.091c.013.125.031.254.055.387a2.709,2.709,0,0,1,.045.552,4.484,4.484,0,0,1-.129.971Q213.713,21.745,213.788,21.689Zm3.778-9.353a.43.43,0,0,1-.354-.075,3.68,3.68,0,0,0-4.609-.016.431.431,0,0,1-.358.095,7.03,7.03,0,0,1-2.31-.987.114.114,0,0,0-.129,0,.12.12,0,0,0-.055.124,1.771,1.771,0,0,0,.706,1.292,2.106,2.106,0,0,0,1.505.181.431.431,0,0,1,.528.543,3.2,3.2,0,0,0,.695,2.619,1.825,1.825,0,0,1,.348.9l.125,1.239a1.365,1.365,0,0,0,2.715.015l.146-1.3A1.846,1.846,0,0,1,217,15.9a2.537,2.537,0,0,0,.683-2.212.431.431,0,0,1,.418-.535h.016a1.583,1.583,0,0,0,1.839-1.593.121.121,0,0,0-.06-.12.109.109,0,0,0-.121,0A8.053,8.053,0,0,1,217.566,12.337Z" transform="translate(-208.888 -6)" fill="#fff"/>
              <path id="Trazado_874769" data-name="Trazado 874769" d="M247.471,80.937a.442.442,0,0,1-.084-.008.525.525,0,0,1-.08-.025.41.41,0,0,1-.074-.04.4.4,0,0,1-.066-.054.431.431,0,0,1-.127-.3.446.446,0,0,1,.009-.084.466.466,0,0,1,.025-.081.5.5,0,0,1,.04-.074.451.451,0,0,1,.054-.066.4.4,0,0,1,.066-.053.353.353,0,0,1,.074-.04.425.425,0,0,1,.08-.025.436.436,0,0,1,.389.117.389.389,0,0,1,.054.066.412.412,0,0,1,.04.074.461.461,0,0,1,.025.081.443.443,0,0,1,.008.084.43.43,0,0,1-.431.431Z" transform="translate(-240.08 -72.098)" fill="#fff"/>
              <path id="Trazado_874770" data-name="Trazado 874770" d="M271.767,80.936a.431.431,0,0,1-.3-.734.39.39,0,0,1,.066-.054.434.434,0,0,1,.155-.065.44.44,0,0,1,.168,0,.434.434,0,0,1,.155.065.387.387,0,0,1,.066.054.431.431,0,0,1-.3.734Z" transform="translate(-266.992 -72.097)" fill="#fff"/>
              <path id="Trazado_874771" data-name="Trazado 874771" d="M256.423,109.32l-.474.318a.431.431,0,0,1-.491-.008l-.443-.318a.431.431,0,0,1,.5-.7l.2.144.226-.151a.431.431,0,1,1,.479.716Z" transform="translate(-249.633 -97.489)" fill="#fff"/>
            </g>
          </g>
          <g id="Elipse_11498" data-name="Elipse 11498" transform="translate(-18583.781 -8583.3)" fill="none" stroke="#fdaa30" stroke-width="6">
            <ellipse cx="8.063" cy="8.063" rx="8.063" ry="8.063" stroke="none"/>
            <ellipse cx="8.063" cy="8.063" rx="5.063" ry="5.063" fill="none"/>
          </g>
        </g>
        <circle id="Elipse_11502" data-name="Elipse 11502" cx="1.916" cy="1.916" r="1.916" transform="translate(-18602.906 -8633.651)" fill="#fff"/>
      </g>
      <g id="Grupo_1188573" data-name="Grupo 1188573" transform="translate(0 1.413)">
        <g id="Grupo_1188468" data-name="Grupo 1188468" transform="translate(0 0)">
          <path id="Rectángulo_402603" data-name="Rectángulo 402603" d="M74.42,0h0a0,0,0,0,1,0,0V75.03a0,0,0,0,1,0,0H0a0,0,0,0,1,0,0v-.61A74.42,74.42,0,0,1,74.42,0Z" fill="#fdaa30"/>
          <g id="Grupo_1188467" data-name="Grupo 1188467" transform="translate(28.513 29.12)">
            <path id="Trazado_874775" data-name="Trazado 874775" d="M288.475,288.708a.456.456,0,0,1-.136-.89,5.01,5.01,0,0,1,1.5-.229.455.455,0,1,1,0,.911A6,6,0,0,0,288.475,288.708Z" transform="translate(-271.625 -271.241)" fill="#12263f"/>
            <path id="Trazado_874776" data-name="Trazado 874776" d="M28.256,21.374a3.132,3.132,0,0,0-2.578-.959.136.136,0,0,1-.145-.1A10.982,10.982,0,0,0,20.5,14.178,13.853,13.853,0,0,0,13.3,12.2a7.282,7.282,0,0,0-.039-1.589c4.56-1.2,9.365-6.739,7.349-9.316C19.8.271,18.122.124,16.08.892,13.628-.854,7.774,2.356,5.683,6.229,2.908,7.269,0,10.292,0,13.193s2.281,3.793,5.193,3.972A8.389,8.389,0,0,0,5.48,24.22C3.707,25.44,1.963,27,3.219,28.775c.885,1.251,2.583.631,4.047.147a14.078,14.078,0,0,0,3.828-1.972,11.644,11.644,0,0,0,2.825-2.607,4.973,4.973,0,0,0,.9,1.107c-2.722,1.465-2.053,4.057,1.094,4.057a8.058,8.058,0,0,0,3.512-.951c1.906-.13,4.229-.5,5.532-1.946A3.192,3.192,0,0,0,28.256,21.374ZM.911,13.193c0-2.987,3.9-6.459,6.831-6.459a9.732,9.732,0,0,1,2.366.439c.563-.088.3-.981,2.453-2.986a.455.455,0,1,0-.62-.667A10.921,10.921,0,0,0,9.823,6.15a6.261,6.261,0,0,0-2.857-.265c1.883-2.686,5.756-5.008,8-4.5a12.856,12.856,0,0,0-1.551.939.455.455,0,1,0,.524.745C17.663.449,21.5.687,19.717,4.338a11.489,11.489,0,0,1-7.065,5.484.456.456,0,0,0-.345.311c-.079.254.107.4.107,1.507,0,3.057-2.809,4.656-5.583,4.656-3.655,0-5.92-.519-5.92-3.1ZM28.234,23.675a2.286,2.286,0,0,1-2.728,2.141,6.113,6.113,0,0,0,.451-3.174.455.455,0,1,0-.909.063c.2,2.833-.644,4.617-5.771,4.949a16.455,16.455,0,0,1-2.159.8c-1.5.356-2.918,0-3.079-.674-.129-.542.565-1.269,1.6-1.71a4.1,4.1,0,0,0,1.205.5.456.456,0,0,0,.136-.89,4.084,4.084,0,0,1-2.582-2.4.457.457,0,0,0-.027-.068,4.12,4.12,0,0,1,.191-3.317.455.455,0,1,0-.81-.417,5.037,5.037,0,0,0-.291,3.894,9.536,9.536,0,0,1-2.909,2.845,13.168,13.168,0,0,1-3.58,1.845c-1.8.6-2.619.754-3.017.191a1.123,1.123,0,0,1-.237-.889c.221-1.191,2.474-2.454,2.693-2.689.547-.588-.954-1.149-.954-4.275A7.133,7.133,0,0,1,6.179,17.2c.22,0,.438.006.652.006,2.8,0,5.547-1.413,6.3-4.085,4.273-.207,10.014,2.478,11.535,7.459a1.047,1.047,0,0,0,1.121.738A2.266,2.266,0,0,1,28.234,23.675Z" transform="translate(0 -0.404)" fill="#12263f"/>
            <path id="Trazado_874777" data-name="Trazado 874777" d="M260.455,308.5a.455.455,0,1,1,.446-.367A.456.456,0,0,1,260.455,308.5Z" transform="translate(-245.199 -290.1)" fill="#12263f"/>
            <ellipse id="Elipse_11499" data-name="Elipse 11499" cx="0.797" cy="0.797" rx="0.797" ry="0.797" transform="translate(4.213 10.029)" fill="#12263f"/>
          </g>
        </g>
        <path id="Trazado_874774" data-name="Trazado 874774" d="M6.926-1c.053,0,.106,0,.159,0a2.666,2.666,0,0,1,1.59.673A2.319,2.319,0,0,1,9.49,1.41a11.019,11.019,0,0,1,.068,1.565v1.6h3.274a2.063,2.063,0,0,1,1.81.927A2.868,2.868,0,0,1,15.1,7.082a2.706,2.706,0,0,1-.478,1.571,2.052,2.052,0,0,1-1.791.865H9.559v1.738a13.077,13.077,0,0,1-.068,1.686,2.107,2.107,0,0,1-.885,1.733,2.669,2.669,0,0,1-3.166,0,2.121,2.121,0,0,1-.886-1.816V9.518H1.546a2.483,2.483,0,0,1-2-.788,2.26,2.26,0,0,1-.53-1.765A2.9,2.9,0,0,1-.281,5.4,2.332,2.332,0,0,1,1.546,4.58H4.554V1.506A2.309,2.309,0,0,1,5.44-.51,2.517,2.517,0,0,1,6.926-1Zm6.038,7.593a.478.478,0,0,0-.131-.014H7.559v-3.6A8.677,8.677,0,0,0,7.512,1.7l-.019-.1v-.1A.342.342,0,0,0,7.374,1.2.679.679,0,0,0,6.96,1H6.926a.519.519,0,0,0-.313.11.9.9,0,0,0-.06.4V6.58H1.546a.342.342,0,0,0-.309.118A.912.912,0,0,0,1,7.2a.268.268,0,0,0,.071.239.927.927,0,0,0,.472.08H6.554v5.341c0,.153.032.176.049.188a.673.673,0,0,0,.841,0c.017-.012.049-.035.049-.188v-.083l.014-.082a10.753,10.753,0,0,0,.053-1.438V7.518h5.274a.547.547,0,0,0,.155-.017.73.73,0,0,0,.114-.419A.875.875,0,0,0,12.964,6.593Z" transform="translate(26.135 9.618) rotate(-43)" fill="#1944b6"/>
      </g>
    </g>
    <g id="Grupo_1189103" data-name="Grupo 1189103" transform="translate(-1805 -6893)">
      <path id="Trazado_875855" data-name="Trazado 875855" d="M198.961,2050.692l61.239-51.064H533.236v173.95H208.151Z" transform="translate(-198.961 -1968.19)" fill="#ffefc4"/>
      <rect id="Rectángulo_402717" data-name="Rectángulo 402717" width="241.464" height="21.377" transform="translate(84.922 28.165)" fill="#6b4113"/>
      <g id="Grupo_1189014" data-name="Grupo 1189014" transform="translate(60.482 0)">
        <path id="Trazado_875856" data-name="Trazado 875856" d="M421.436,2093.736l-7.814,5.574V1921.486l7.814-5.573Z" transform="translate(-393.492 -1915.912)" fill="#301d09"/>
        <rect id="Rectángulo_402718" data-name="Rectángulo 402718" width="20.147" height="177.824" transform="translate(0 5.58)" fill="#6b4113"/>
        <path id="Trazado_875857" data-name="Trazado 875857" d="M387.962,1915.912l-7.8,5.58H360.018l9.559-5.58Z" transform="translate(-360.018 -1915.912)" fill="#4d2e0e"/>
      </g>
      <path id="Trazado_875858" data-name="Trazado 875858" d="M328.056,2000.411V2020.3l-53.911,50.77.523-28.264Z" transform="translate(-245.911 -1968.679)" fill="#301d09"/>
      <path id="Trazado_875859" data-name="Trazado 875859" d="M533.731,2432.095l-334,6.015,60.261-52.3,273.736-1.128Z" transform="translate(-199.444 -2208.646)" fill="#0a6b05"/>
      <g id="Grupo_1189015" data-name="Grupo 1189015" transform="translate(306.443 0.697)">
        <path id="Trazado_875860" data-name="Trazado 875860" d="M1099.831,2139.576l-10.794,6.952V1924.722l10.794-6.952Z" transform="translate(-1061.229 -1917.769)" fill="#301d09"/>
        <rect id="Rectángulo_402719" data-name="Rectángulo 402719" width="27.832" height="221.806" transform="translate(0 6.96)" fill="#6b4113"/>
        <path id="Trazado_875861" data-name="Trazado 875861" d="M1053.589,1917.769l-10.77,6.96h-27.832l13.205-6.96Z" transform="translate(-1014.987 -1917.769)" fill="#4d2e0e"/>
      </g>
      <path id="Trazado_875862" data-name="Trazado 875862" d="M281.106,1999.922,198.961,2071.4v-20.707l61.239-51.064Z" transform="translate(-198.961 -1968.19)" fill="#593610"/>
      <g id="Grupo_1189016" data-name="Grupo 1189016" transform="translate(0.29 22.521)">
        <path id="Trazado_875863" data-name="Trazado 875863" d="M284.578,2176.53l-10.794,6.289V1982.172l10.794-6.289Z" transform="translate(-245.976 -1975.883)" fill="#301d09"/>
        <rect id="Rectángulo_402720" data-name="Rectángulo 402720" width="27.832" height="200.646" transform="translate(0 6.296)" fill="#6b4113"/>
        <path id="Trazado_875864" data-name="Trazado 875864" d="M238.336,1975.883l-10.77,6.3H199.734l13.205-6.3Z" transform="translate(-199.734 -1975.883)" fill="#4d2e0e"/>
      </g>
      <g id="Grupo_1189019" data-name="Grupo 1189019" transform="translate(51.346 28.477)">
        <g id="Grupo_1189018" data-name="Grupo 1189018">
          <g id="Grupo_1189017" data-name="Grupo 1189017">
            <path id="Trazado_875865" data-name="Trazado 875865" d="M770.241,2332.485l-12.875,1.146-.008.21c-2.35,1.742-4.537,3.573-5.553,6.435l8.215-1.545a13.282,13.282,0,0,0-2.553,3.139l11.02-2.092c3.184-.547,6.723-.67,9.742-1.893a8.266,8.266,0,0,0,3.47-2.643,1.314,1.314,0,0,0,.227-.52l-.045-.217-2.258-2.048a5.131,5.131,0,0,0-1.12-.952,3.566,3.566,0,0,0-.774-.062A52.167,52.167,0,0,1,770.241,2332.485Z" transform="translate(-595.54 -2203.875)" fill="#93480a"/>
            <path id="Trazado_875866" data-name="Trazado 875866" d="M510.367,2309.5a7.976,7.976,0,0,1-1.17,3.077,3.514,3.514,0,0,1-2.2,1.5c-.694.111-1.4.115-2.092.255a8.934,8.934,0,0,0-5.334,3.143,12.285,12.285,0,0,0-1.776,3.386l6.6-1.21a20.227,20.227,0,0,0-1.664,3.424l7.331-1.3a31.993,31.993,0,0,1,3.513-.033,8.713,8.713,0,0,0,7.235-3.635,53.387,53.387,0,0,0,3.483-5.935l3.288-6.093a78.023,78.023,0,0,1-17.549-6.359A28.364,28.364,0,0,1,510.367,2309.5Z" transform="translate(-436.919 -2184.067)" fill="#93480a"/>
            <path id="Trazado_875867" data-name="Trazado 875867" d="M812.106,2344.006c-3.225.6-6.613,1.034-9.572,2.532a12.132,12.132,0,0,0-6.42,7.212l6.457-1.473a10.614,10.614,0,0,0-1.828,4.071,58.357,58.357,0,0,1,8.7-2.672c-.06.736-.925,1.535-1.025,2.385-.036.3-.052.351.125.587a29.251,29.251,0,0,1,7.548-2.259l7.059-1.4a44.5,44.5,0,0,0,6.027-1.474c1.647-.578,3.628-1.451,4.41-3.128a6.765,6.765,0,0,0,.025-4.6l-.4-.23a.965.965,0,0,0-.69-.247c-.386-.02-.784.09-1.179.083l-5.366-.108c-2.777-.064-5.712-.519-8.485-.168-.635.08-1.263.049-1.894.115a19.058,19.058,0,0,0-2.7.647,1.411,1.411,0,0,1-.756-.063Z" transform="translate(-623.21 -2211.084)" fill="#93480a"/>
            <path id="Trazado_875868" data-name="Trazado 875868" d="M336.158,2119.169l-.255.04a11.29,11.29,0,0,0-.213,2.854,21.64,21.64,0,0,0,2.983,11.045,15.882,15.882,0,0,0,3.833,4.387,11.044,11.044,0,0,0,2.5,1.381,51.866,51.866,0,0,0,4.1,4.962,32,32,0,0,0,12.663,6.889l4.509,1.135a25.46,25.46,0,0,1,8.029,3.986c4.062,2.964,6.882,7.241,10.161,10.979a84.364,84.364,0,0,0,11.33,10.685l3.107-.465a27.782,27.782,0,0,0,5.835-1.932l.031-.076c-.56-.565-1.308-1-1.914-1.528l-4.986-4.573a75.725,75.725,0,0,1-10.874-13.28,13.68,13.68,0,0,1-2.273-4.416c-7.678-1.49-14.856-3.877-21.169-8.642a30.252,30.252,0,0,1-4.45-3.922,12.823,12.823,0,0,1-1.373-1.418c-.875.388-3.265-.307-4.266-.576a15.265,15.265,0,0,1-9.042-6.515c-.679-1.081-1.167-2.276-1.8-3.384a.627.627,0,0,1,.185-.125,27.089,27.089,0,0,0,4.078-2.857,9.838,9.838,0,0,0,3.136-3.626,2.12,2.12,0,0,0-.208-.961c-1.32-2.3-4.9-1.044-6.842-.395a6.393,6.393,0,0,1-1.258.43,7.205,7.205,0,0,1-1.058-.624,10.019,10.019,0,0,0-2.626-1.223A3.057,3.057,0,0,0,336.158,2119.169Z" transform="translate(-335.688 -2070.214)" fill="#b55b09"/>
            <path id="Trazado_875869" data-name="Trazado 875869" d="M336.158,2119.169l-.255.04a11.29,11.29,0,0,0-.213,2.854,21.64,21.64,0,0,0,2.983,11.045,15.882,15.882,0,0,0,3.833,4.387,11.044,11.044,0,0,0,2.5,1.381,6.841,6.841,0,0,1,1.374-.413,13.031,13.031,0,0,1,1.3.959,9.185,9.185,0,0,0,2.536.933,7.555,7.555,0,0,0,5.506-1.17l-2.142.375a8.03,8.03,0,0,1-6.1-1.76c-3.153-2.51-4.452-7.17-4.86-11.017a.627.627,0,0,1,.185-.125,27.089,27.089,0,0,0,4.078-2.857,9.838,9.838,0,0,0,3.136-3.626,2.12,2.12,0,0,0-.208-.961c-1.32-2.3-4.9-1.044-6.842-.395a6.393,6.393,0,0,1-1.258.43,7.205,7.205,0,0,1-1.058-.624,10.019,10.019,0,0,0-2.626-1.223A3.057,3.057,0,0,0,336.158,2119.169Z" transform="translate(-335.688 -2070.214)" fill="#9f540f"/>
            <path id="Trazado_875870" data-name="Trazado 875870" d="M335.69,2125a21.64,21.64,0,0,0,2.983,11.045,15.879,15.879,0,0,0,3.833,4.387l.652-.44a4.241,4.241,0,0,0,.069-1.78,58.579,58.579,0,0,0-1.158-5.763c-.169-.871-.185-1.993-.439-2.809-.127-.409-1.849-1.554-2.292-1.934a7.89,7.89,0,0,1-3.18-5.6l-.255.04A11.29,11.29,0,0,0,335.69,2125Z" transform="translate(-335.688 -2073.151)" fill="#733a29"/>
            <path id="Trazado_875871" data-name="Trazado 875871" d="M392.8,2015.674c-1.306.194-2.614.335-3.906.626l-7.235,1.911-.08.041c-1.35.668-2.962,1.075-4.381,1.605a93.574,93.574,0,0,0-8.653,3.67,81.25,81.25,0,0,0-11.216,6.7,87.358,87.358,0,0,0-14.2,12.736c-2.353,2.611-4.928,5.641-6.114,9a14.639,14.639,0,0,0-.756,3.332l.255-.04a3.059,3.059,0,0,1,1.88-1.766,10.044,10.044,0,0,1,2.626,1.224,7.175,7.175,0,0,0,1.057.624,6.363,6.363,0,0,0,1.258-.43c1.946-.65,5.523-1.9,6.842.4a2.115,2.115,0,0,1,.208.961,9.834,9.834,0,0,1-3.136,3.625,27.086,27.086,0,0,1-4.078,2.857.618.618,0,0,0-.185.125c.638,1.109,1.126,2.3,1.8,3.384a15.266,15.266,0,0,0,9.042,6.516c1,.269,3.39.963,4.266.576a43.312,43.312,0,0,1-2.783-3.91,23.154,23.154,0,0,1-2.686-8.2c-.923-6.082,1.812-10.555,5.253-15.242,8.741-11.907,21.22-22.126,35.264-26.994a85.32,85.32,0,0,1,15.154-3.486,4.414,4.414,0,0,0,.434-.349l-.118-.111-12.482.439A7.989,7.989,0,0,0,392.8,2015.674Z" transform="translate(-336.046 -2006.3)" fill="#733a29"/>
            <path id="Trazado_875872" data-name="Trazado 875872" d="M381.579,2018.771c-1.35.668-2.962,1.075-4.381,1.605a93.574,93.574,0,0,0-8.653,3.67,81.322,81.322,0,0,0-11.216,6.695,87.37,87.37,0,0,0-14.2,12.736c-2.353,2.611-4.928,5.641-6.114,9a14.628,14.628,0,0,0-.756,3.332l.255-.041a3.059,3.059,0,0,1,1.88-1.766,10.758,10.758,0,0,1,1.212-2.4,69.173,69.173,0,0,1,13.595-15,97.245,97.245,0,0,1,25.283-15.59c2.3-.967,4.578-1.911,6.952-2.67,3.521-1.125,7.106-1.566,10.7-2.34a8.005,8.005,0,0,0-3.337.181c-1.306.194-2.614.335-3.906.626l-7.235,1.911Z" transform="translate(-336.046 -2006.819)" fill="#de7604"/>
            <path id="Trazado_875873" data-name="Trazado 875873" d="M464.388,2001.743c1.292-.291,2.6-.433,3.906-.626a8,8,0,0,1,3.337-.18l12.482-.439.118.111a4.45,4.45,0,0,1-.434.349c-2.571,2.571-6.539,5.68-6.551,9.689-.006,2.271.1,3.869,1.781,5.532,2.05,2.029,4.9,2.482,7.408,3.694a44.849,44.849,0,0,1,3.916,2.553,25.091,25.091,0,0,0,13.312,3.619c2.518-.022,5.8-.669,7.712-2.448l-.481-1.229a5.961,5.961,0,0,0,1.4-3.069c.278-2.114-.47-4.3.721-6.242s3.256-3.183,4.77-4.836l.093-.1-.1-.25-.812-1.085-.045-.072a18.7,18.7,0,0,0-3.311-3.607,26.672,26.672,0,0,0-12.12-6.413,19.314,19.314,0,0,0-15.278,2.553c-3.4-2.976-7.173-5.611-11.573-6.838-3.4-.949-6.738-1.025-9.87.757-3.845,2.187-6.449,6.3-7.615,10.493Z" transform="translate(-411.539 -1991.744)" fill="#ba610a"/>
            <path id="Trazado_875874" data-name="Trazado 875874" d="M533.679,2026.226c5.281-3.265,10.79-3.376,16.675-1.85,1.5.387,2.936.979,4.433,1.334l-.812-1.085H553.9a4.846,4.846,0,0,1-1.65-.81l-2.717-1.324c-5.642-2.589-13.417-3.455-18.5.748-3.16,2.611-7.9,9.894-12.385,9.531-.776-.062-1.486-.435-2.225-.5a9.074,9.074,0,0,0,7.072,2.106,5.332,5.332,0,0,0,1.8-.489C528.442,2031.727,530.4,2028.256,533.679,2026.226Z" transform="translate(-448.549 -2009.585)" fill="#9f540f"/>
            <path id="Trazado_875875" data-name="Trazado 875875" d="M542.821,2038.829l6-.815a29.894,29.894,0,0,1-2.22,3.505c3.341,2.032,6.194,4.1,10.142,4.844a8.887,8.887,0,0,0,3.941.043,9.123,9.123,0,0,0,1.975-1.02,5.96,5.96,0,0,0,1.4-3.069c.278-2.114-.471-4.3.721-6.242s3.256-3.183,4.77-4.836l.093-.1-.1-.25c-1.5-.355-2.938-.946-4.433-1.334-5.886-1.525-11.394-1.414-16.675,1.85-3.284,2.03-5.238,5.5-8.386,7.663A7.76,7.76,0,0,0,542.821,2038.829Z" transform="translate(-463.306 -2014.761)" fill="#de7604"/>
            <path id="Trazado_875876" data-name="Trazado 875876" d="M754.752,2140.522c-1.591.866-3.863,1.084-5.613,1.607a62.476,62.476,0,0,0-8.54,3.3c-12.327,5.791-22.765,16.036-30.041,27.455a57.387,57.387,0,0,0-6.618,13.765,25.133,25.133,0,0,0-.916,3.79,21.818,21.818,0,0,1-.38,2.949,7.021,7.021,0,0,1-.972,1.7,18.5,18.5,0,0,1-6.823,6.227c-7.486,3.969-16.51,4.881-24.835,4.026a46.989,46.989,0,0,1-9.327-1.8c-2.486-.781-5.07-2.015-6.344-4.422s-.835-4.615-.369-7.136a22.707,22.707,0,0,0-1.929,3.905L646.471,2207c-.843,1.67-1.948,3.187-2.794,4.862a200.021,200.021,0,0,0,32.661,2.7l9.165-.029a31.59,31.59,0,0,1,4.34-.147l12.875-1.146a52.1,52.1,0,0,0,7.488-1.042,3.6,3.6,0,0,1,.774.062,5.123,5.123,0,0,1,1.12.953l2.258,2.047.045.217a5.923,5.923,0,0,1,2.555,1.888,1.411,1.411,0,0,0,.756.063,18.926,18.926,0,0,1,2.7-.647c.631-.066,1.26-.035,1.894-.115,2.773-.351,5.707.1,8.485.168l5.366.108c.395.008.792-.1,1.178-.083a.968.968,0,0,1,.69.247l.487-.074a8.684,8.684,0,0,1,1.461-3.735,40.876,40.876,0,0,1,5.2-5.7,71.655,71.655,0,0,0,6.482-7.287c8.814-11.708,11.278-26.279,9.241-40.57a71.793,71.793,0,0,0-1.94-8.992c-.244-.884-.443-2.391-1.185-2.946a2.291,2.291,0,0,0,.12-.422,4.875,4.875,0,0,0-.365-1.164c-.482-1.4-.98-2.825-1.593-4.177-.243-.536-.54-1.332-1.12-1.55Z" transform="translate(-528.018 -2084.628)" fill="#b55b09"/>
            <path id="Trazado_875877" data-name="Trazado 875877" d="M859.35,2171.9c-.052,1.01,0,2.025-.143,3.03a66.568,66.568,0,0,1-1.724,9.878c-2.99,10.168-8.688,20.379-17.214,26.925-5.713,4.385-12.194,7.4-19.459,7.82a17.417,17.417,0,0,1-3.126.06l-.355-.074c-.468-.1-.982-.081-1.459-.144a15.315,15.315,0,0,1-3.724-.893,15.018,15.018,0,0,1-5.272-3.233,10.039,10.039,0,0,0-1.557-1.6,28.611,28.611,0,0,0,3.837,7.111c.44.6,2.569,2.946,2.545,3.435l-.553.145a3.583,3.583,0,0,1,.774.062,5.127,5.127,0,0,1,1.12.952l2.258,2.048.045.217a5.918,5.918,0,0,1,2.555,1.888,1.414,1.414,0,0,0,.756.063,18.954,18.954,0,0,1,2.7-.647c.631-.067,1.259-.035,1.894-.115,2.772-.351,5.707.1,8.485.168l5.366.108c.395.008.792-.1,1.178-.083a.968.968,0,0,1,.69.247l.487-.074a8.686,8.686,0,0,1,1.461-3.735,40.893,40.893,0,0,1,5.2-5.7,71.6,71.6,0,0,0,6.482-7.286c8.814-11.708,11.278-26.279,9.241-40.57a71.8,71.8,0,0,0-1.94-8.992c-.244-.884-.443-2.39-1.185-2.946A59.028,59.028,0,0,1,859.35,2171.9Z" transform="translate(-628.957 -2096.789)" fill="#a55a1c"/>
            <path id="Trazado_875878" data-name="Trazado 875878" d="M386.4,2075.528a30.23,30.23,0,0,0,4.45,3.922c6.313,4.765,13.491,7.153,21.169,8.642,12.088,1.773,27.814-1.415,37.909-8.42a10.342,10.342,0,0,0,2.211-1.641,33.7,33.7,0,0,0,12.376-32.118,59.762,59.762,0,0,0-1.706-6.995c-1.912,1.779-5.194,2.427-7.712,2.448a25.082,25.082,0,0,1-13.312-3.619,45.081,45.081,0,0,0-3.916-2.552c-2.5-1.212-5.358-1.665-7.408-3.694-1.679-1.663-1.787-3.261-1.781-5.532.012-4.01,3.98-7.119,6.551-9.689a85.32,85.32,0,0,0-15.154,3.486c-14.044,4.868-26.523,15.088-35.264,26.994-3.441,4.687-6.176,9.161-5.253,15.242a23.154,23.154,0,0,0,2.686,8.2,43.381,43.381,0,0,0,2.783,3.91A12.775,12.775,0,0,0,386.4,2075.528Z" transform="translate(-362.967 -2007.065)" fill="#de7604"/>
            <path id="Trazado_875879" data-name="Trazado 875879" d="M402.525,2177.976c6.313,4.765,13.491,7.152,21.169,8.642,12.088,1.773,27.814-1.415,37.909-8.421-.544-.317-1.23.05-1.782.238-2.859.979-5.63,2.016-8.558,2.8a67.718,67.718,0,0,1-20.77,2.11,77.158,77.158,0,0,1-22.126-4.667,54.518,54.518,0,0,1-8.692-3.99,3.536,3.536,0,0,0-1.6-.632A30.258,30.258,0,0,0,402.525,2177.976Z" transform="translate(-374.647 -2105.591)" fill="#ba610a"/>
            <path id="Trazado_875880" data-name="Trazado 875880" d="M453.25,2066.241a8.148,8.148,0,0,0-1.8,6.175,8.008,8.008,0,0,0,3.1,5.2,10.43,10.43,0,0,0,6.531,2.028c2.567-.248,5.075-1.023,6.776-3.094a8.407,8.407,0,0,0,1.922-6.334,8.78,8.78,0,0,0-3.236-5.639,9.11,9.11,0,0,0-6.039-1.832l-.071.008A10.268,10.268,0,0,0,453.25,2066.241Z" transform="translate(-407.94 -2036.066)" fill="#763b05"/>
            <path id="Trazado_875881" data-name="Trazado 875881" d="M460.879,2072.118a5.929,5.929,0,0,0-.271,4.508,5.622,5.622,0,0,0,3.181,3.321,6.343,6.343,0,0,0,2.809.417,5.532,5.532,0,0,0,3.719-2.675,5.99,5.99,0,0,0,.18-4.609,5.9,5.9,0,0,0-2.855-3.386,6.242,6.242,0,0,0-3.171-.517A5.577,5.577,0,0,0,460.879,2072.118Z" transform="translate(-413.494 -2040.087)" fill="#070605"/>
            <path id="Trazado_875882" data-name="Trazado 875882" d="M481.067,2087.873c.23.342.321.511.754.6a2.056,2.056,0,0,0,.486.016c.232-.464.44-.654.305-1.167a1.445,1.445,0,0,0-1.134-.494A2.019,2.019,0,0,0,481.067,2087.873Z" transform="translate(-426.473 -2051.123)" fill="#fefefe"/>
            <path id="Trazado_875883" data-name="Trazado 875883" d="M464.534,2074.07a2.148,2.148,0,0,0,.3,1.666,2.521,2.521,0,0,0,1.434,1.094,4.335,4.335,0,0,0,1.142-.033,2.822,2.822,0,0,0,1.6-1.738,2.063,2.063,0,0,0-.258-1.557,2.556,2.556,0,0,0-1.543-1.164,3.553,3.553,0,0,0-1.118,0C465.335,2072.8,464.767,2073.148,464.534,2074.07Z" transform="translate(-416.112 -2042.044)" fill="#fefefe"/>
            <path id="Trazado_875884" data-name="Trazado 875884" d="M523.5,2034.109c-1.515,1.653-3.57,2.884-4.77,4.836s-.443,4.129-.721,6.242a5.963,5.963,0,0,1-1.4,3.069l.481,1.228a59.762,59.762,0,0,1,1.706,6.995,33.7,33.7,0,0,1-12.376,32.118,10.346,10.346,0,0,1-2.211,1.641c-10.095,7.005-25.821,10.194-37.909,8.42a13.676,13.676,0,0,0,2.273,4.417,75.725,75.725,0,0,0,10.873,13.28l4.986,4.573c.605.527,1.354.963,1.914,1.528l-.031.077a27.781,27.781,0,0,1-5.835,1.931l-3.107.465,12.995,8.358a78.025,78.025,0,0,0,17.549,6.358l5.962,1.145c.318,3.275.654,9.841-1.5,12.4a3.8,3.8,0,0,1-2.18,1.1c-2.568.691-5.032,1.384-6.829,3.5a15.718,15.718,0,0,0-2.107,3.577l4.815-.958a7.525,7.525,0,0,1,1.976-.334l-.958,2.6a2.425,2.425,0,0,0-.283.863,25.331,25.331,0,0,1,4.72-1.188l5.946-.657c2.312-.242,4.75-.273,6.668-1.758,2.051-1.588,3.325-4.12,4.436-6.411l2.384-5a33.356,33.356,0,0,0,1.941-3.662c.846-1.675,1.951-3.191,2.794-4.861l5.577-11.122a22.685,22.685,0,0,1,1.929-3.905c-.466,2.521-.9,4.737.369,7.136s3.858,3.642,6.344,4.422a46.991,46.991,0,0,0,9.327,1.8c8.325.855,17.348-.057,24.835-4.026a18.5,18.5,0,0,0,6.823-6.227,7.02,7.02,0,0,0,.972-1.7,21.808,21.808,0,0,0,.38-2.949,25.148,25.148,0,0,1,.915-3.79,57.4,57.4,0,0,1,6.618-13.765c7.276-11.418,17.714-21.664,30.041-27.454a62.479,62.479,0,0,1,8.54-3.3c1.75-.523,4.022-.741,5.613-1.607l.066-.037c.106-.674-.4-1.288-.743-1.854l-2.751-4.2a65.844,65.844,0,0,0-22.795-19.151,82.33,82.33,0,0,0-9.522-4.376,65.574,65.574,0,0,0-24.868-4.1l-11.63.984-13.519,1.207a90.661,90.661,0,0,1-20.573-.533,22.316,22.316,0,0,1-1.11-2.119,14.177,14.177,0,0,0-6-5.208,8.569,8.569,0,0,0-4.97-.822,13.354,13.354,0,0,0-1.975.7Z" transform="translate(-417.248 -2017.632)" fill="#de7604"/>
            <path id="Trazado_875885" data-name="Trazado 875885" d="M498.889,2273.016l-3.107.465,12.995,8.358a78.049,78.049,0,0,0,17.549,6.359l5.962,1.145a16.638,16.638,0,0,0-2.7-7.812,25.572,25.572,0,0,0-3.092-3.393l-2.982-3.123a13.329,13.329,0,0,0,4.235,6.508,7.146,7.146,0,0,1-1.954-.317,52,52,0,0,1-16.526-6.919,33.557,33.557,0,0,1-2.762-1.914,9.586,9.586,0,0,0-1.789-1.286A27.781,27.781,0,0,1,498.889,2273.016Z" transform="translate(-435.662 -2166.184)" fill="#ba610a"/>
            <path id="Trazado_875886" data-name="Trazado 875886" d="M523.5,2034.109c-1.515,1.653-3.57,2.884-4.77,4.836s-.443,4.129-.721,6.242a5.963,5.963,0,0,1-1.4,3.069l.481,1.228a59.762,59.762,0,0,1,1.706,6.995,33.7,33.7,0,0,1-12.376,32.118,10.346,10.346,0,0,1-2.211,1.641c-10.095,7.005-25.821,10.194-37.909,8.42a13.676,13.676,0,0,0,2.273,4.417,75.725,75.725,0,0,0,10.873,13.28l4.986,4.573c.605.527,1.354.963,1.914,1.528a10.465,10.465,0,0,0,2.55-1.3,23.766,23.766,0,0,0,7.013-6.7c-.923,3.391-1.995,6.36-4.332,9.065l1.134-.385c5.413-1.977,9.933-5.478,14.389-9.027a60.8,60.8,0,0,0,8.172-7.408,39.176,39.176,0,0,0,5.468-8.231,23.819,23.819,0,0,0,1.925-5.321,18.8,18.8,0,0,1,.865-3.571,17.69,17.69,0,0,1,.148,3.456,29.01,29.01,0,0,1-.54,6.157,40.89,40.89,0,0,1-2.869,7.813l.107-.024a6.717,6.717,0,0,0,1.048-.819l2.66-2.119c6.84-5.526,13.243-11.447,16.811-19.667,4.954-11.416,4.421-24.273.141-35.8a32.271,32.271,0,0,0-1.672-3.812,32.812,32.812,0,0,1-1.713-3.3,22.316,22.316,0,0,1-1.11-2.119,14.177,14.177,0,0,0-6-5.208,8.569,8.569,0,0,0-4.97-.822,13.354,13.354,0,0,0-1.975.7Z" transform="translate(-417.248 -2017.632)" fill="#b55b09"/>
          </g>
        </g>
      </g>
      <g id="Grupo_1189023" data-name="Grupo 1189023" transform="translate(135.58 88.012)">
        <path id="Trazado_875887" data-name="Trazado 875887" d="M737.391,2187.528a11.106,11.106,0,0,0-.575-2.533c-.9-2.557-2.859-4.86-4.648-6.846a66.416,66.416,0,0,0-10.8-9.682,61.835,61.835,0,0,0-8.527-5.09,71.221,71.221,0,0,0-6.578-2.79c-1.078-.4-2.3-.712-3.33-1.22l-.061-.032a13.207,13.207,0,0,0-5.789-7.977,9.446,9.446,0,0,0-7.5-.575,23,23,0,0,0-8.8,5.2,14.685,14.685,0,0,0-11.615-1.94,20.273,20.273,0,0,0-9.214,4.875,14.207,14.207,0,0,0-2.517,2.742l-.034.055-.617.825-.079.19a10.15,10.15,0,0,0-1.5-.53,6.507,6.507,0,0,0-3.778.625,10.78,10.78,0,0,0-4.563,3.959,16.851,16.851,0,0,1-.844,1.611,68.9,68.9,0,0,1-15.641.405l-10.278-.917-8.842-.748a49.845,49.845,0,0,0-18.905,3.12,62.624,62.624,0,0,0-7.239,3.327,50.053,50.053,0,0,0-17.329,14.559l-2.092,3.2c-.264.43-.646.9-.565,1.409-.441.166-.667.771-.852,1.178-.465,1.029-.844,2.108-1.21,3.176a3.714,3.714,0,0,0-.278.885,1.75,1.75,0,0,0,.091.321c-.564.422-.716,1.567-.9,2.24a54.471,54.471,0,0,0-1.475,6.836c-1.549,10.865.324,21.942,7.025,30.844a54.421,54.421,0,0,0,4.927,5.539,31.1,31.1,0,0,1,3.956,4.335,6.608,6.608,0,0,1,1.111,2.839l.37.056-.3.176a5.143,5.143,0,0,0,.019,3.495c.595,1.275,2.1,1.938,3.353,2.378a33.8,33.8,0,0,0,4.582,1.121l5.367,1.066a22.253,22.253,0,0,1,5.739,1.718c.134-.18.122-.22.095-.447-.075-.646-.733-1.254-.779-1.813a44.34,44.34,0,0,1,6.617,2.032,8.076,8.076,0,0,0-1.389-3.095l4.909,1.12a9.222,9.222,0,0,0-4.88-5.484,26.631,26.631,0,0,0-7.277-1.925l-.035-.143a4.5,4.5,0,0,1,1.943-1.436,1,1,0,0,0,.173.4,6.287,6.287,0,0,0,2.638,2.01c2.3.929,4.986,1.023,7.407,1.439l8.378,1.591a10.1,10.1,0,0,0-1.941-2.386l6.246,1.175c-.773-2.177-2.435-3.569-4.222-4.893l-.006-.16a23.958,23.958,0,0,1,3.3.112l6.967.022a152.075,152.075,0,0,0,24.831-2.049,25.371,25.371,0,0,0,1.476,2.783l1.812,3.8a13.289,13.289,0,0,0,3.372,4.874c1.458,1.129,3.311,1.152,5.069,1.336l4.521.5a19.3,19.3,0,0,1,3.589.9,1.847,1.847,0,0,0-.215-.656l-.728-1.977a5.7,5.7,0,0,1,1.5.254l3.66.729a11.958,11.958,0,0,0-1.6-2.72c-1.366-1.609-3.239-2.136-5.192-2.661a2.886,2.886,0,0,1-1.657-.837c-1.635-1.948-1.379-6.94-1.137-9.43l4.533-.87,2.5,4.633a40.473,40.473,0,0,0,2.648,4.511,6.624,6.624,0,0,0,5.5,2.764,24.309,24.309,0,0,1,2.672.025l5.573.988a15.389,15.389,0,0,0-1.265-2.6l5.018.919a9.348,9.348,0,0,0-1.35-2.574,6.8,6.8,0,0,0-4.055-2.39c-.524-.107-1.063-.11-1.59-.194a2.674,2.674,0,0,1-1.672-1.139,6.06,6.06,0,0,1-.89-2.339,21.572,21.572,0,0,1,.253-7.436l9.879-6.354a64.14,64.14,0,0,0,8.613-8.123c2.494-2.841,4.638-6.092,7.725-8.346a19.362,19.362,0,0,1,6.1-3.03l3.428-.863a24.333,24.333,0,0,0,9.627-5.238,39.474,39.474,0,0,0,3.121-3.771,8.426,8.426,0,0,0,1.9-1.05,12.084,12.084,0,0,0,2.914-3.335,16.451,16.451,0,0,0,2.268-8.4A8.6,8.6,0,0,0,737.391,2187.528Z" transform="translate(-559.996 -2150.28)" fill="#6b3605" opacity="0.18"/>
        <g id="Grupo_1189022" data-name="Grupo 1189022" transform="translate(9.8 5.309)">
          <g id="Grupo_1189021" data-name="Grupo 1189021">
            <g id="Grupo_1189020" data-name="Grupo 1189020">
              <path id="Trazado_875888" data-name="Trazado 875888" d="M690.466,2423.461l9.789.871.006.16c1.787,1.324,3.449,2.717,4.222,4.892l-6.245-1.175a10.1,10.1,0,0,1,1.941,2.387L691.8,2429c-2.421-.416-5.111-.509-7.407-1.439a6.278,6.278,0,0,1-2.638-2.009,1,1,0,0,1-.173-.395l.035-.165,1.717-1.557a3.876,3.876,0,0,1,.851-.724,2.756,2.756,0,0,1,.589-.047A39.623,39.623,0,0,0,690.466,2423.461Z" transform="translate(-645.723 -2325.687)" fill="#93480a"/>
              <path id="Trazado_875889" data-name="Trazado 875889" d="M888.455,2405.991a6.06,6.06,0,0,0,.89,2.339,2.674,2.674,0,0,0,1.672,1.139c.527.084,1.067.087,1.59.194a6.793,6.793,0,0,1,4.055,2.39,9.346,9.346,0,0,1,1.351,2.574l-5.018-.919a15.377,15.377,0,0,1,1.265,2.6l-5.573-.988a24.37,24.37,0,0,0-2.672-.025,6.625,6.625,0,0,1-5.5-2.764,40.556,40.556,0,0,1-2.648-4.511l-2.5-4.633a59.32,59.32,0,0,0,13.342-4.834A21.571,21.571,0,0,0,888.455,2405.991Z" transform="translate(-766.735 -2310.629)" fill="#93480a"/>
              <path id="Trazado_875890" data-name="Trazado 875890" d="M648.814,2432.22a26.638,26.638,0,0,1,7.277,1.925,9.223,9.223,0,0,1,4.88,5.483l-4.909-1.12a8.077,8.077,0,0,1,1.389,3.095,44.319,44.319,0,0,0-6.617-2.031c.046.559.7,1.167.779,1.813.027.227.039.267-.1.446a22.288,22.288,0,0,0-5.738-1.717l-5.367-1.066a33.722,33.722,0,0,1-4.582-1.121c-1.253-.439-2.758-1.1-3.353-2.377a5.146,5.146,0,0,1-.018-3.5l.3-.175a.738.738,0,0,1,.525-.187c.294-.015.6.069.9.063l4.079-.083a44.27,44.27,0,0,1,6.45-.127c.483.061.96.037,1.44.088a14.415,14.415,0,0,1,2.051.493,1.077,1.077,0,0,0,.575-.048Z" transform="translate(-614.863 -2331.167)" fill="#93480a"/>
              <path id="Trazado_875891" data-name="Trazado 875891" d="M971.206,2261.29l.194.031a8.582,8.582,0,0,1,.162,2.169,16.45,16.45,0,0,1-2.268,8.4,12.077,12.077,0,0,1-2.914,3.335,8.452,8.452,0,0,1-1.9,1.05,39.444,39.444,0,0,1-3.121,3.771,24.329,24.329,0,0,1-9.627,5.238l-3.428.863a19.354,19.354,0,0,0-6.1,3.03c-3.088,2.254-5.232,5.505-7.725,8.347a64.134,64.134,0,0,1-8.614,8.123l-2.362-.354a21.139,21.139,0,0,1-4.436-1.468l-.024-.058c.425-.429.995-.761,1.455-1.162l3.79-3.477a57.59,57.59,0,0,0,8.267-10.1,10.41,10.41,0,0,0,1.728-3.358c5.837-1.132,11.295-2.947,16.093-6.57a23,23,0,0,0,3.383-2.982,9.741,9.741,0,0,0,1.044-1.078c.665.3,2.482-.233,3.243-.438a11.607,11.607,0,0,0,6.874-4.953c.516-.822.887-1.73,1.372-2.573a.469.469,0,0,0-.14-.094,20.6,20.6,0,0,1-3.1-2.172,7.478,7.478,0,0,1-2.384-2.757,1.607,1.607,0,0,1,.158-.731c1-1.745,3.722-.794,5.2-.3a4.837,4.837,0,0,0,.956.326,5.51,5.51,0,0,0,.8-.474,7.62,7.62,0,0,1,2-.93A2.324,2.324,0,0,1,971.206,2261.29Z" transform="translate(-794.005 -2224.072)" fill="#e0c29b"/>
              <path id="Trazado_875892" data-name="Trazado 875892" d="M1033.215,2261.29l.194.031a8.582,8.582,0,0,1,.162,2.169,16.451,16.451,0,0,1-2.268,8.4,12.079,12.079,0,0,1-2.914,3.335,8.458,8.458,0,0,1-1.9,1.05,5.168,5.168,0,0,0-1.044-.315,9.945,9.945,0,0,0-.992.729,6.991,6.991,0,0,1-1.928.71,5.747,5.747,0,0,1-4.186-.89l1.628.284a6.1,6.1,0,0,0,4.637-1.338c2.4-1.908,3.384-5.451,3.695-8.375a.469.469,0,0,0-.14-.094,20.6,20.6,0,0,1-3.1-2.172,7.478,7.478,0,0,1-2.384-2.757,1.609,1.609,0,0,1,.159-.731c1-1.745,3.722-.794,5.2-.3a4.833,4.833,0,0,0,.956.326,5.5,5.5,0,0,0,.8-.474,7.621,7.621,0,0,1,2-.93A2.324,2.324,0,0,1,1033.215,2261.29Z" transform="translate(-856.014 -2224.072)" fill="#9f540f"/>
              <path id="Trazado_875893" data-name="Trazado 875893" d="M1049.3,2265.723a16.449,16.449,0,0,1-2.268,8.4,12.073,12.073,0,0,1-2.914,3.336l-.5-.335a3.221,3.221,0,0,1-.053-1.353,44.343,44.343,0,0,1,.881-4.382c.128-.662.14-1.515.334-2.136.1-.311,1.406-1.181,1.742-1.47a6,6,0,0,0,2.417-4.257l.194.031A8.584,8.584,0,0,1,1049.3,2265.723Z" transform="translate(-871.747 -2226.305)" fill="#e0c29b"/>
              <path id="Trazado_875894" data-name="Trazado 875894" d="M923.867,2182.608c.993.148,1.987.255,2.969.476l5.5,1.453.061.031c1.026.509,2.252.818,3.33,1.22a71.239,71.239,0,0,1,6.578,2.791,61.912,61.912,0,0,1,8.527,5.09,66.423,66.423,0,0,1,10.8,9.683c1.789,1.985,3.747,4.289,4.648,6.846a11.105,11.105,0,0,1,.574,2.533l-.194-.031a2.324,2.324,0,0,0-1.429-1.343,7.606,7.606,0,0,0-2,.93,5.554,5.554,0,0,1-.8.474,4.849,4.849,0,0,1-.956-.326c-1.48-.494-4.2-1.445-5.2.3a1.606,1.606,0,0,0-.158.731,7.48,7.48,0,0,0,2.384,2.757,20.631,20.631,0,0,0,3.1,2.172.473.473,0,0,1,.14.095c-.485.843-.856,1.751-1.372,2.573a11.608,11.608,0,0,1-6.874,4.953c-.761.205-2.578.733-3.243.438a32.807,32.807,0,0,0,2.116-2.972,17.6,17.6,0,0,0,2.042-6.233c.7-4.624-1.377-8.024-3.994-11.588-6.645-9.052-16.132-16.821-26.81-20.522a64.817,64.817,0,0,0-11.521-2.649,3.38,3.38,0,0,1-.33-.266l.089-.084,9.49.334A6.084,6.084,0,0,1,923.867,2182.608Z" transform="translate(-789.456 -2175.482)" fill="#f9e4c5"/>
              <path id="Trazado_875895" data-name="Trazado 875895" d="M948.327,2184.963c1.026.508,2.252.817,3.33,1.22a71.225,71.225,0,0,1,6.578,2.791,61.912,61.912,0,0,1,8.527,5.09,66.411,66.411,0,0,1,10.8,9.683c1.789,1.985,3.747,4.289,4.648,6.846a11.1,11.1,0,0,1,.575,2.533l-.194-.031a2.325,2.325,0,0,0-1.429-1.343,8.168,8.168,0,0,0-.922-1.82,52.578,52.578,0,0,0-10.335-11.4,73.916,73.916,0,0,0-19.221-11.853c-1.745-.735-3.481-1.453-5.286-2.029-2.677-.855-5.4-1.19-8.135-1.779a6.088,6.088,0,0,1,2.537.137c.993.147,1.987.255,2.969.476l5.5,1.453Z" transform="translate(-805.385 -2175.876)" fill="#de7604"/>
              <path id="Trazado_875896" data-name="Trazado 875896" d="M884.295,2172.018c-.982-.221-1.976-.329-2.969-.476a6.08,6.08,0,0,0-2.537-.137l-9.49-.334-.089.084a3.432,3.432,0,0,0,.33.266c1.955,1.953,4.971,4.318,4.98,7.366,0,1.727-.077,2.942-1.354,4.206-1.558,1.542-3.728,1.886-5.632,2.808a34.2,34.2,0,0,0-2.977,1.941,19.066,19.066,0,0,1-10.12,2.751c-1.914-.016-4.409-.508-5.863-1.861l.366-.934a4.534,4.534,0,0,1-1.067-2.333c-.211-1.607.358-3.272-.548-4.746s-2.475-2.42-3.627-3.677l-.07-.078.079-.19.617-.825.034-.055a14.192,14.192,0,0,1,2.517-2.742,20.273,20.273,0,0,1,9.214-4.875,14.682,14.682,0,0,1,11.615,1.94,23,23,0,0,1,8.8-5.2,9.446,9.446,0,0,1,7.5.575,13.206,13.206,0,0,1,5.789,7.977Z" transform="translate(-746.914 -2164.416)" fill="#ba610a"/>
              <path id="Trazado_875897" data-name="Trazado 875897" d="M859.885,2190.63c-4.015-2.482-8.2-2.566-12.677-1.407-1.137.295-2.232.744-3.37,1.014l.617-.825h.056a3.684,3.684,0,0,0,1.255-.616l2.065-1.007c4.29-1.969,10.2-2.626,14.068.569,2.4,1.985,6,7.522,9.416,7.246.59-.048,1.129-.331,1.692-.377a6.9,6.9,0,0,1-5.377,1.6,4.038,4.038,0,0,1-1.37-.372C863.866,2194.813,862.381,2192.174,859.885,2190.63Z" transform="translate(-747.046 -2177.979)" fill="#9f540f"/>
              <path id="Trazado_875898" data-name="Trazado 875898" d="M864.022,2200.212l-4.563-.62a22.631,22.631,0,0,0,1.688,2.665c-2.541,1.545-4.71,3.115-7.711,3.683a6.76,6.76,0,0,1-3,.033,6.934,6.934,0,0,1-1.5-.775,4.533,4.533,0,0,1-1.067-2.333c-.211-1.607.358-3.273-.548-4.746s-2.475-2.42-3.627-3.677l-.07-.078.079-.191c1.138-.27,2.233-.719,3.37-1.014,4.475-1.159,8.663-1.075,12.678,1.407,2.5,1.543,3.982,4.182,6.375,5.825A5.883,5.883,0,0,1,864.022,2200.212Z" transform="translate(-746.914 -2181.915)" fill="#de7604"/>
              <path id="Trazado_875899" data-name="Trazado 875899" d="M591.277,2277.524a23.2,23.2,0,0,0,4.268,1.221,47.63,47.63,0,0,1,6.492,2.508c9.371,4.4,17.307,12.192,22.838,20.873a43.622,43.622,0,0,1,5.031,10.464,19.143,19.143,0,0,1,.7,2.881,16.613,16.613,0,0,0,.289,2.242,5.344,5.344,0,0,0,.739,1.29,14.07,14.07,0,0,0,5.187,4.734c5.691,3.017,12.551,3.71,18.881,3.06a35.644,35.644,0,0,0,7.09-1.37c1.89-.594,3.855-1.531,4.823-3.362s.635-3.508.28-5.425a17.268,17.268,0,0,1,1.467,2.969l4.239,8.455c.641,1.269,1.481,2.422,2.124,3.7a152.075,152.075,0,0,1-24.831,2.049l-6.967-.022a24.073,24.073,0,0,0-3.3-.112l-9.789-.871a39.626,39.626,0,0,1-5.692-.792,2.725,2.725,0,0,0-.589.047,3.864,3.864,0,0,0-.851.724l-1.717,1.557-.035.164a4.5,4.5,0,0,0-1.943,1.436,1.077,1.077,0,0,1-.575.048,14.447,14.447,0,0,0-2.051-.492c-.48-.051-.958-.027-1.44-.088a44.27,44.27,0,0,0-6.45.127l-4.079.083c-.3.006-.6-.079-.9-.064a.739.739,0,0,0-.525.188l-.37-.056a6.6,6.6,0,0,0-1.11-2.839,31.125,31.125,0,0,0-3.956-4.335,54.48,54.48,0,0,1-4.928-5.539c-6.7-8.9-8.574-19.979-7.025-30.844a54.473,54.473,0,0,1,1.475-6.836c.185-.671.337-1.817.9-2.239a1.739,1.739,0,0,1-.091-.321,3.705,3.705,0,0,1,.278-.885c.366-1.068.745-2.147,1.21-3.176.185-.407.411-1.012.852-1.178Z" transform="translate(-586.093 -2235.03)" fill="#b55b09"/>
              <path id="Trazado_875900" data-name="Trazado 875900" d="M588.5,2301.376c.039.767,0,1.54.109,2.3a50.552,50.552,0,0,0,1.311,7.51c2.273,7.729,6.6,15.492,13.087,20.469A26.794,26.794,0,0,0,617.8,2337.6a13.261,13.261,0,0,0,2.377.047l.27-.056c.355-.075.746-.062,1.109-.109a11.655,11.655,0,0,0,2.831-.679,11.413,11.413,0,0,0,4.008-2.458,7.653,7.653,0,0,1,1.183-1.215,21.772,21.772,0,0,1-2.917,5.406c-.335.46-1.953,2.239-1.935,2.612l.421.11a2.756,2.756,0,0,0-.589.047,3.881,3.881,0,0,0-.851.724l-1.717,1.557-.035.165a4.5,4.5,0,0,0-1.943,1.436,1.082,1.082,0,0,1-.575.048,14.548,14.548,0,0,0-2.051-.492c-.48-.051-.958-.027-1.44-.087a44.133,44.133,0,0,0-6.45.127l-4.079.083c-.3.006-.6-.078-.9-.063a.739.739,0,0,0-.525.188l-.37-.056a6.6,6.6,0,0,0-1.11-2.84,31.094,31.094,0,0,0-3.956-4.334,54.486,54.486,0,0,1-4.928-5.539c-6.7-8.9-8.574-19.979-7.025-30.844a54.447,54.447,0,0,1,1.475-6.836c.185-.672.337-1.817.9-2.24A44.855,44.855,0,0,0,588.5,2301.376Z" transform="translate(-586.093 -2244.275)" fill="#a55a1c"/>
              <path id="Trazado_875901" data-name="Trazado 875901" d="M912.2,2228.113a23.028,23.028,0,0,1-3.383,2.981c-4.8,3.623-10.257,5.438-16.093,6.57-9.19,1.348-21.145-1.076-28.82-6.4a7.843,7.843,0,0,1-1.681-1.247,25.62,25.62,0,0,1-9.409-24.417,45.334,45.334,0,0,1,1.3-5.318c1.453,1.353,3.948,1.844,5.863,1.861a19.069,19.069,0,0,0,10.12-2.751,34.2,34.2,0,0,1,2.977-1.941c1.9-.921,4.074-1.266,5.632-2.808,1.277-1.264,1.359-2.479,1.354-4.206-.009-3.048-3.025-5.412-4.98-7.366a64.815,64.815,0,0,1,11.521,2.65c10.677,3.7,20.164,11.47,26.81,20.522,2.616,3.564,4.7,6.964,3.994,11.588a17.607,17.607,0,0,1-2.042,6.234,32.841,32.841,0,0,1-2.116,2.972A9.742,9.742,0,0,1,912.2,2228.113Z" transform="translate(-752.449 -2176.064)" fill="#de7604"/>
              <path id="Trazado_875902" data-name="Trazado 875902" d="M927.788,2306c-4.8,3.623-10.256,5.437-16.093,6.57-9.19,1.348-21.145-1.076-28.82-6.4.413-.242.935.037,1.354.181,2.173.744,4.28,1.532,6.506,2.126a51.469,51.469,0,0,0,15.791,1.6,58.651,58.651,0,0,0,16.821-3.547,41.452,41.452,0,0,0,6.608-3.034,2.7,2.7,0,0,1,1.217-.48A23,23,0,0,1,927.788,2306Z" transform="translate(-771.424 -2250.967)" fill="#ba610a"/>
              <path id="Trazado_875903" data-name="Trazado 875903" d="M946.229,2221.052a6.194,6.194,0,0,1,1.37,4.695,6.088,6.088,0,0,1-2.36,3.957,7.931,7.931,0,0,1-4.965,1.542,7.257,7.257,0,0,1-5.152-2.352,6.394,6.394,0,0,1-1.461-4.816,6.676,6.676,0,0,1,2.46-4.288,6.924,6.924,0,0,1,4.591-1.392l.054.007A7.8,7.8,0,0,1,946.229,2221.052Z" transform="translate(-803.117 -2198.111)" fill="#763b05"/>
              <path id="Trazado_875904" data-name="Trazado 875904" d="M950.354,2225.52a4.509,4.509,0,0,1,.206,3.427,4.274,4.274,0,0,1-2.418,2.525,4.809,4.809,0,0,1-2.135.317,4.207,4.207,0,0,1-2.828-2.033,4.555,4.555,0,0,1-.137-3.5,4.481,4.481,0,0,1,2.171-2.574,4.745,4.745,0,0,1,2.411-.394A4.24,4.24,0,0,1,950.354,2225.52Z" transform="translate(-808.82 -2201.169)" fill="#070605"/>
              <path id="Trazado_875905" data-name="Trazado 875905" d="M946.382,2237.5c-.175.26-.245.389-.573.458a1.555,1.555,0,0,1-.369.012c-.177-.353-.335-.5-.232-.887a1.1,1.1,0,0,1,.862-.375A1.536,1.536,0,0,1,946.382,2237.5Z" transform="translate(-810.329 -2209.558)" fill="#fefefe"/>
              <path id="Trazado_875906" data-name="Trazado 875906" d="M955.151,2227a1.632,1.632,0,0,1-.228,1.266,1.916,1.916,0,0,1-1.09.832,3.282,3.282,0,0,1-.869-.025,2.147,2.147,0,0,1-1.219-1.321,1.569,1.569,0,0,1,.2-1.184,1.941,1.941,0,0,1,1.173-.884,2.68,2.68,0,0,1,.849,0C954.542,2226.04,954.973,2226.3,955.151,2227Z" transform="translate(-814.404 -2202.656)" fill="#fefefe"/>
              <path id="Trazado_875907" data-name="Trazado 875907" d="M691.4,2196.623c1.152,1.257,2.714,2.193,3.627,3.677s.337,3.139.548,4.746a4.535,4.535,0,0,0,1.067,2.333l-.366.934a45.39,45.39,0,0,0-1.3,5.318,25.621,25.621,0,0,0,9.409,24.417,7.857,7.857,0,0,0,1.681,1.247c7.674,5.326,19.63,7.75,28.82,6.4a10.421,10.421,0,0,1-1.728,3.358,57.561,57.561,0,0,1-8.266,10.1l-3.79,3.477c-.46.4-1.03.732-1.455,1.162l.024.058a21.144,21.144,0,0,0,4.436,1.469l2.362.354-9.879,6.354a59.3,59.3,0,0,1-13.342,4.833l-4.533.87c-.242,2.49-.5,7.482,1.137,9.43a2.885,2.885,0,0,0,1.657.837c1.952.525,3.826,1.052,5.192,2.661a11.977,11.977,0,0,1,1.6,2.719l-3.66-.729a5.7,5.7,0,0,0-1.5-.254l.729,1.977a1.847,1.847,0,0,1,.215.656,19.208,19.208,0,0,0-3.589-.9l-4.521-.5c-1.758-.185-3.611-.208-5.069-1.337a13.29,13.29,0,0,1-3.372-4.874l-1.812-3.8a25.484,25.484,0,0,1-1.476-2.783c-.643-1.274-1.483-2.427-2.124-3.7l-4.239-8.455a17.27,17.27,0,0,0-1.467-2.969c.354,1.917.684,3.6-.281,5.426s-2.933,2.769-4.823,3.362a35.679,35.679,0,0,1-7.09,1.37c-6.329.65-13.189-.043-18.881-3.061a14.063,14.063,0,0,1-5.186-4.734,5.333,5.333,0,0,1-.739-1.29,16.584,16.584,0,0,1-.289-2.242,19.154,19.154,0,0,0-.7-2.881,43.62,43.62,0,0,0-5.031-10.464c-5.531-8.681-13.467-16.47-22.838-20.873a47.589,47.589,0,0,0-6.492-2.507,23.184,23.184,0,0,1-4.268-1.222l-.05-.028c-.08-.512.3-.979.565-1.409l2.092-3.2a50.064,50.064,0,0,1,17.329-14.559,62.648,62.648,0,0,1,7.239-3.327,49.858,49.858,0,0,1,18.905-3.12l8.842.748,10.278.917a68.919,68.919,0,0,0,15.641-.406,16.879,16.879,0,0,0,.844-1.611,10.781,10.781,0,0,1,4.563-3.959,6.509,6.509,0,0,1,3.778-.625,10.149,10.149,0,0,1,1.5.53Z" transform="translate(-594.612 -2184.097)" fill="#de7604"/>
              <path id="Trazado_875908" data-name="Trazado 875908" d="M888.688,2378.251l2.362.354-9.879,6.354a59.325,59.325,0,0,1-13.342,4.834l-4.533.87a12.648,12.648,0,0,1,2.05-5.939,19.43,19.43,0,0,1,2.35-2.579l2.267-2.375a10.136,10.136,0,0,1-3.22,4.947,5.446,5.446,0,0,0,1.485-.241,39.551,39.551,0,0,0,12.564-5.261,25.448,25.448,0,0,0,2.1-1.455,7.286,7.286,0,0,1,1.36-.978A21.144,21.144,0,0,0,888.688,2378.251Z" transform="translate(-759.198 -2297.032)" fill="#ba610a"/>
              <path id="Trazado_875909" data-name="Trazado 875909" d="M817.355,2196.623c1.152,1.257,2.714,2.193,3.627,3.677s.337,3.139.548,4.746a4.535,4.535,0,0,0,1.067,2.333l-.366.934a45.39,45.39,0,0,0-1.3,5.318,25.621,25.621,0,0,0,9.409,24.417,7.857,7.857,0,0,0,1.681,1.247c7.674,5.326,19.63,7.75,28.82,6.4a10.421,10.421,0,0,1-1.728,3.358,57.557,57.557,0,0,1-8.267,10.1l-3.79,3.477c-.46.4-1.03.732-1.455,1.162a7.956,7.956,0,0,1-1.938-.99,18.076,18.076,0,0,1-5.331-5.09,16.5,16.5,0,0,0,3.293,6.892l-.862-.293c-4.115-1.5-7.552-4.164-10.94-6.862a46.228,46.228,0,0,1-6.213-5.632,29.815,29.815,0,0,1-4.157-6.258,18.1,18.1,0,0,1-1.464-4.046,14.276,14.276,0,0,0-.658-2.714,13.447,13.447,0,0,0-.113,2.626,22.054,22.054,0,0,0,.411,4.681,31.079,31.079,0,0,0,2.181,5.939l-.081-.019a5.123,5.123,0,0,1-.8-.623l-2.022-1.611c-5.2-4.2-10.068-8.7-12.781-14.952-3.767-8.679-3.361-18.453-.108-27.219a24.559,24.559,0,0,1,1.272-2.9,25.006,25.006,0,0,0,1.3-2.512,16.878,16.878,0,0,0,.844-1.611,10.781,10.781,0,0,1,4.563-3.959,6.51,6.51,0,0,1,3.778-.625,10.159,10.159,0,0,1,1.5.53Z" transform="translate(-720.573 -2184.097)" fill="#f9e4c5"/>
            </g>
          </g>
        </g>
      </g>
      <g id="Grupo_1189027" data-name="Grupo 1189027" transform="translate(42.59 100.175)">
        <path id="Trazado_875910" data-name="Trazado 875910" d="M493.03,2219.916a11.1,11.1,0,0,0-.575-2.533c-.9-2.557-2.859-4.861-4.648-6.846a66.424,66.424,0,0,0-10.8-9.683,61.8,61.8,0,0,0-8.527-5.089,71.058,71.058,0,0,0-6.578-2.791c-1.078-.4-2.3-.712-3.33-1.221l-.061-.031a13.2,13.2,0,0,0-5.79-7.977,9.446,9.446,0,0,0-7.5-.576,23,23,0,0,0-8.8,5.2,14.685,14.685,0,0,0-11.615-1.941,20.278,20.278,0,0,0-9.214,4.875,14.2,14.2,0,0,0-2.517,2.742l-.034.055-.617.825-.079.19a10.158,10.158,0,0,0-1.5-.53,6.51,6.51,0,0,0-3.779.625,10.777,10.777,0,0,0-4.563,3.959,17.116,17.116,0,0,1-.844,1.611,68.933,68.933,0,0,1-15.641.4l-10.278-.917-8.842-.748a49.862,49.862,0,0,0-18.905,3.12,62.563,62.563,0,0,0-7.239,3.327,50.05,50.05,0,0,0-17.329,14.56l-2.092,3.195c-.264.43-.646.9-.565,1.41-.441.166-.667.771-.852,1.178-.465,1.029-.844,2.108-1.211,3.176a3.736,3.736,0,0,0-.278.885,1.76,1.76,0,0,0,.091.321c-.564.422-.716,1.567-.9,2.239a54.549,54.549,0,0,0-1.474,6.836c-1.549,10.865.325,21.942,7.025,30.843a54.388,54.388,0,0,0,4.928,5.54,31.07,31.07,0,0,1,3.956,4.335,6.6,6.6,0,0,1,1.11,2.839l.37.056-.3.175a5.145,5.145,0,0,0,.018,3.495c.595,1.275,2.1,1.938,3.353,2.377a33.722,33.722,0,0,0,4.582,1.122l5.367,1.065a22.225,22.225,0,0,1,5.738,1.717c.135-.18.122-.219.095-.446-.075-.646-.733-1.254-.778-1.813a44.451,44.451,0,0,1,6.617,2.032,8.072,8.072,0,0,0-1.389-3.095l4.909,1.12a9.22,9.22,0,0,0-4.881-5.483,26.616,26.616,0,0,0-7.277-1.925l-.035-.143a4.5,4.5,0,0,1,1.943-1.435,1,1,0,0,0,.173.4,6.293,6.293,0,0,0,2.638,2.009c2.3.929,4.986,1.023,7.407,1.438l8.378,1.591a10.1,10.1,0,0,0-1.941-2.387l6.245,1.175c-.772-2.176-2.435-3.567-4.222-4.892l-.006-.16a23.987,23.987,0,0,1,3.3.112l6.968.022a152.129,152.129,0,0,0,24.831-2.05,25.444,25.444,0,0,0,1.476,2.784l1.812,3.8a13.286,13.286,0,0,0,3.372,4.874c1.458,1.129,3.311,1.153,5.069,1.337l4.521.5a19.188,19.188,0,0,1,3.589.9,1.843,1.843,0,0,0-.215-.656l-.729-1.977a5.754,5.754,0,0,1,1.5.254l3.66.728a11.959,11.959,0,0,0-1.6-2.719c-1.366-1.609-3.239-2.136-5.192-2.662a2.883,2.883,0,0,1-1.657-.836c-1.635-1.949-1.38-6.94-1.137-9.431l4.533-.87,2.5,4.632a40.483,40.483,0,0,0,2.648,4.512,6.622,6.622,0,0,0,5.5,2.763,24.609,24.609,0,0,1,2.671.026l5.574.988a15.4,15.4,0,0,0-1.265-2.6l5.018.919a9.353,9.353,0,0,0-1.35-2.574,6.794,6.794,0,0,0-4.055-2.389c-.524-.106-1.063-.11-1.591-.194a2.673,2.673,0,0,1-1.672-1.139,6.062,6.062,0,0,1-.89-2.34,21.565,21.565,0,0,1,.253-7.435l9.879-6.354a64.119,64.119,0,0,0,8.614-8.123c2.493-2.842,4.637-6.092,7.725-8.346a19.34,19.34,0,0,1,6.1-3.03l3.428-.863a24.33,24.33,0,0,0,9.627-5.238,39.386,39.386,0,0,0,3.121-3.772,8.381,8.381,0,0,0,1.9-1.05,12.075,12.075,0,0,0,2.914-3.335,16.454,16.454,0,0,0,2.268-8.4A8.6,8.6,0,0,0,493.03,2219.916Z" transform="translate(-314.411 -2182.668)" fill="#6b3605" opacity="0.18"/>
        <g id="Grupo_1189026" data-name="Grupo 1189026" transform="translate(0 5.309)">
          <g id="Grupo_1189025" data-name="Grupo 1189025">
            <g id="Grupo_1189024" data-name="Grupo 1189024">
              <path id="Trazado_875911" data-name="Trazado 875911" d="M416.747,2455.85l9.788.871.006.16c1.787,1.324,3.449,2.716,4.222,4.892l-6.245-1.175a10.1,10.1,0,0,1,1.941,2.386l-8.378-1.591c-2.421-.416-5.111-.51-7.407-1.439a6.285,6.285,0,0,1-2.638-2.009,1,1,0,0,1-.173-.395l.035-.165,1.717-1.557a3.875,3.875,0,0,1,.851-.724,2.694,2.694,0,0,1,.589-.047A39.566,39.566,0,0,0,416.747,2455.85Z" transform="translate(-372.004 -2358.076)" fill="#93480a"/>
              <path id="Trazado_875912" data-name="Trazado 875912" d="M614.736,2438.379a6.061,6.061,0,0,0,.89,2.339,2.674,2.674,0,0,0,1.672,1.139c.527.084,1.067.087,1.591.194a6.8,6.8,0,0,1,4.055,2.39,9.342,9.342,0,0,1,1.35,2.574l-5.018-.919a15.413,15.413,0,0,1,1.265,2.6l-5.573-.987a24.487,24.487,0,0,0-2.671-.025,6.623,6.623,0,0,1-5.5-2.764,40.519,40.519,0,0,1-2.648-4.512l-2.5-4.633a59.28,59.28,0,0,0,13.342-4.833A21.57,21.57,0,0,0,614.736,2438.379Z" transform="translate(-493.016 -2343.017)" fill="#93480a"/>
              <path id="Trazado_875913" data-name="Trazado 875913" d="M375.095,2464.609a26.632,26.632,0,0,1,7.277,1.924,9.222,9.222,0,0,1,4.881,5.483l-4.909-1.12a8.075,8.075,0,0,1,1.39,3.094,44.508,44.508,0,0,0-6.617-2.031c.045.56.7,1.168.778,1.813.027.228.04.266-.095.447a22.225,22.225,0,0,0-5.738-1.717l-5.367-1.066a33.722,33.722,0,0,1-4.582-1.121c-1.253-.439-2.758-1.1-3.353-2.377a5.145,5.145,0,0,1-.018-3.495l.3-.175a.736.736,0,0,1,.525-.188c.294-.016.6.069.9.063l4.08-.083a44.2,44.2,0,0,1,6.451-.128c.482.062.96.037,1.44.088a14.475,14.475,0,0,1,2.051.492,1.072,1.072,0,0,0,.575-.048Z" transform="translate(-341.143 -2363.556)" fill="#93480a"/>
              <path id="Trazado_875914" data-name="Trazado 875914" d="M697.487,2293.678l.194.031a8.6,8.6,0,0,1,.162,2.169,16.454,16.454,0,0,1-2.268,8.4,12.072,12.072,0,0,1-2.914,3.335,8.391,8.391,0,0,1-1.9,1.05,39.409,39.409,0,0,1-3.121,3.772,24.326,24.326,0,0,1-9.627,5.238l-3.429.863a19.364,19.364,0,0,0-6.1,3.031c-3.088,2.254-5.232,5.5-7.725,8.347a64.14,64.14,0,0,1-8.614,8.123l-2.362-.353a21.111,21.111,0,0,1-4.436-1.469l-.024-.058c.425-.429.995-.761,1.455-1.162l3.791-3.477a57.589,57.589,0,0,0,8.267-10.1,10.422,10.422,0,0,0,1.728-3.357c5.837-1.133,11.295-2.948,16.093-6.57a22.976,22.976,0,0,0,3.383-2.982,9.73,9.73,0,0,0,1.044-1.078c.666.3,2.482-.233,3.243-.438a11.6,11.6,0,0,0,6.874-4.953c.516-.822.887-1.73,1.372-2.573a.476.476,0,0,0-.14-.095,20.536,20.536,0,0,1-3.1-2.172,7.48,7.48,0,0,1-2.384-2.756,1.612,1.612,0,0,1,.159-.731c1-1.745,3.722-.794,5.2-.3a4.851,4.851,0,0,0,.957.326,5.492,5.492,0,0,0,.8-.474,7.629,7.629,0,0,1,2-.93A2.324,2.324,0,0,1,697.487,2293.678Z" transform="translate(-520.286 -2256.461)" fill="#e0c29b"/>
              <path id="Trazado_875915" data-name="Trazado 875915" d="M759.5,2293.678l.194.031a8.6,8.6,0,0,1,.162,2.169,16.454,16.454,0,0,1-2.268,8.4,12.072,12.072,0,0,1-2.914,3.335,8.387,8.387,0,0,1-1.9,1.05,5.184,5.184,0,0,0-1.044-.314,9.889,9.889,0,0,0-.992.729,6.97,6.97,0,0,1-1.928.71,5.747,5.747,0,0,1-4.186-.889l1.628.284a6.1,6.1,0,0,0,4.637-1.338c2.4-1.908,3.384-5.451,3.695-8.375a.476.476,0,0,0-.14-.095,20.542,20.542,0,0,1-3.1-2.172,7.479,7.479,0,0,1-2.384-2.756,1.61,1.61,0,0,1,.158-.731c1-1.745,3.722-.794,5.2-.3a4.847,4.847,0,0,0,.956.326,5.492,5.492,0,0,0,.8-.474,7.631,7.631,0,0,1,2-.93A2.324,2.324,0,0,1,759.5,2293.678Z" transform="translate(-582.295 -2256.461)" fill="#9f540f"/>
              <path id="Trazado_875916" data-name="Trazado 875916" d="M775.585,2298.111a16.45,16.45,0,0,1-2.268,8.4,12.059,12.059,0,0,1-2.914,3.335l-.495-.334a3.22,3.22,0,0,1-.053-1.353,44.62,44.62,0,0,1,.88-4.381c.129-.663.141-1.516.334-2.137.1-.311,1.406-1.181,1.742-1.47a6,6,0,0,0,2.418-4.257l.194.03A8.606,8.606,0,0,1,775.585,2298.111Z" transform="translate(-598.028 -2258.693)" fill="#e0c29b"/>
              <path id="Trazado_875917" data-name="Trazado 875917" d="M650.148,2215c.993.147,1.987.254,2.97.476l5.5,1.453.062.031c1.026.508,2.252.817,3.33,1.22a71.232,71.232,0,0,1,6.578,2.791,61.853,61.853,0,0,1,8.527,5.09,66.4,66.4,0,0,1,10.795,9.683c1.789,1.985,3.747,4.289,4.648,6.846a11.112,11.112,0,0,1,.575,2.533l-.194-.031a2.324,2.324,0,0,0-1.429-1.342,7.6,7.6,0,0,0-2,.93,5.517,5.517,0,0,1-.8.474,4.863,4.863,0,0,1-.957-.326c-1.479-.495-4.2-1.445-5.2.3a1.609,1.609,0,0,0-.158.73,7.486,7.486,0,0,0,2.384,2.756,20.626,20.626,0,0,0,3.1,2.172.463.463,0,0,1,.141.095c-.485.843-.856,1.751-1.372,2.573a11.6,11.6,0,0,1-6.874,4.953c-.761.2-2.578.733-3.244.438a32.87,32.87,0,0,0,2.116-2.972,17.609,17.609,0,0,0,2.043-6.233c.7-4.624-1.378-8.025-3.994-11.588-6.645-9.053-16.132-16.822-26.809-20.523a64.845,64.845,0,0,0-11.521-2.65,3.347,3.347,0,0,1-.33-.265l.089-.085,9.49.334A6.07,6.07,0,0,1,650.148,2215Z" transform="translate(-515.737 -2207.871)" fill="#f9e4c5"/>
              <path id="Trazado_875918" data-name="Trazado 875918" d="M674.608,2217.352c1.026.508,2.252.817,3.33,1.22a71.085,71.085,0,0,1,6.578,2.791,61.8,61.8,0,0,1,8.527,5.09,66.428,66.428,0,0,1,10.8,9.683c1.789,1.985,3.747,4.289,4.647,6.846a11.112,11.112,0,0,1,.575,2.533l-.194-.03a2.321,2.321,0,0,0-1.429-1.342,8.155,8.155,0,0,0-.922-1.821,52.6,52.6,0,0,0-10.335-11.405,73.935,73.935,0,0,0-19.222-11.852c-1.745-.735-3.48-1.453-5.285-2.029-2.677-.855-5.4-1.191-8.134-1.779a6.085,6.085,0,0,1,2.537.137c.993.147,1.987.255,2.97.477l5.5,1.453Z" transform="translate(-531.666 -2208.265)" fill="#de7604"/>
              <path id="Trazado_875919" data-name="Trazado 875919" d="M610.576,2204.406c-.982-.222-1.976-.329-2.97-.476a6.069,6.069,0,0,0-2.537-.137l-9.49-.334-.089.085a3.347,3.347,0,0,0,.33.265c1.955,1.955,4.971,4.318,4.98,7.367.005,1.727-.078,2.941-1.354,4.206-1.558,1.543-3.728,1.887-5.632,2.809a34.187,34.187,0,0,0-2.977,1.94,19.069,19.069,0,0,1-10.12,2.752c-1.914-.017-4.41-.508-5.863-1.861l.366-.934a4.532,4.532,0,0,1-1.067-2.333c-.211-1.607.358-3.273-.548-4.746s-2.475-2.419-3.627-3.677l-.07-.078.079-.19.617-.825.034-.055a14.206,14.206,0,0,1,2.517-2.742,20.274,20.274,0,0,1,9.214-4.875,14.684,14.684,0,0,1,11.615,1.94,22.993,22.993,0,0,1,8.8-5.2,9.444,9.444,0,0,1,7.5.575,13.2,13.2,0,0,1,5.789,7.977Z" transform="translate(-473.195 -2196.804)" fill="#ba610a"/>
              <path id="Trazado_875920" data-name="Trazado 875920" d="M586.166,2223.019c-4.015-2.482-8.2-2.566-12.678-1.407-1.137.295-2.232.745-3.37,1.015l.617-.825h.056a3.673,3.673,0,0,0,1.255-.616l2.066-1.007c4.29-1.969,10.2-2.626,14.068.569,2.4,1.985,6,7.521,9.416,7.246.59-.048,1.129-.331,1.691-.377a6.9,6.9,0,0,1-5.376,1.6,4.051,4.051,0,0,1-1.37-.372C590.147,2227.2,588.662,2224.562,586.166,2223.019Z" transform="translate(-473.327 -2210.368)" fill="#9f540f"/>
              <path id="Trazado_875921" data-name="Trazado 875921" d="M590.3,2232.6l-4.563-.62a22.654,22.654,0,0,0,1.688,2.665c-2.54,1.545-4.709,3.115-7.711,3.683a6.766,6.766,0,0,1-3,.033,7.011,7.011,0,0,1-1.5-.775,4.535,4.535,0,0,1-1.067-2.333c-.211-1.607.358-3.272-.548-4.746s-2.475-2.42-3.627-3.677l-.07-.078.079-.19c1.138-.271,2.233-.72,3.37-1.015,4.475-1.159,8.663-1.075,12.678,1.407,2.5,1.542,3.982,4.182,6.375,5.825A5.9,5.9,0,0,1,590.3,2232.6Z" transform="translate(-473.195 -2214.303)" fill="#de7604"/>
              <path id="Trazado_875922" data-name="Trazado 875922" d="M317.558,2309.912a23.185,23.185,0,0,0,4.268,1.223,47.487,47.487,0,0,1,6.492,2.507c9.371,4.4,17.307,12.191,22.838,20.873a43.638,43.638,0,0,1,5.031,10.464,19.154,19.154,0,0,1,.7,2.881,16.557,16.557,0,0,0,.289,2.242,5.314,5.314,0,0,0,.739,1.29,14.067,14.067,0,0,0,5.187,4.734c5.691,3.017,12.551,3.711,18.881,3.061a35.714,35.714,0,0,0,7.09-1.37c1.89-.593,3.855-1.531,4.823-3.362s.635-3.508.281-5.425a17.261,17.261,0,0,1,1.467,2.969l4.239,8.455c.641,1.27,1.481,2.422,2.124,3.7a152.133,152.133,0,0,1-24.831,2.05l-6.968-.022a24.069,24.069,0,0,0-3.3-.112l-9.788-.871a39.5,39.5,0,0,1-5.693-.792,2.723,2.723,0,0,0-.588.047,3.874,3.874,0,0,0-.851.724l-1.717,1.557-.035.165a4.5,4.5,0,0,0-1.943,1.435,1.072,1.072,0,0,1-.575.048,14.475,14.475,0,0,0-2.051-.492c-.48-.051-.958-.027-1.44-.088a44.2,44.2,0,0,0-6.451.127l-4.08.083c-.3.005-.6-.079-.9-.063a.736.736,0,0,0-.525.188l-.37-.056a6.605,6.605,0,0,0-1.11-2.84,31.1,31.1,0,0,0-3.956-4.334,54.453,54.453,0,0,1-4.928-5.54c-6.7-8.9-8.574-19.979-7.025-30.843a54.549,54.549,0,0,1,1.474-6.836c.185-.671.337-1.817.9-2.239a1.755,1.755,0,0,1-.091-.321,3.716,3.716,0,0,1,.278-.885c.366-1.068.745-2.147,1.211-3.176.185-.407.411-1.012.851-1.178Z" transform="translate(-312.373 -2267.419)" fill="#b55b09"/>
              <path id="Trazado_875923" data-name="Trazado 875923" d="M314.777,2333.764c.04.768,0,1.54.109,2.3a50.608,50.608,0,0,0,1.31,7.51c2.273,7.729,6.6,15.492,13.087,20.469a26.8,26.8,0,0,0,14.794,5.945,13.193,13.193,0,0,0,2.377.046l.27-.056c.355-.075.747-.061,1.109-.11a11.609,11.609,0,0,0,2.831-.679,11.4,11.4,0,0,0,4.008-2.458,7.685,7.685,0,0,1,1.184-1.216,21.755,21.755,0,0,1-2.917,5.406c-.334.46-1.953,2.24-1.935,2.612l.421.11a2.635,2.635,0,0,0-.588.047,3.872,3.872,0,0,0-.851.724l-1.717,1.557-.035.165a4.5,4.5,0,0,0-1.943,1.436,1.081,1.081,0,0,1-.575.047,14.542,14.542,0,0,0-2.051-.492c-.48-.051-.958-.027-1.44-.088a44.134,44.134,0,0,0-6.451.127l-4.08.083c-.3.006-.6-.079-.9-.063a.735.735,0,0,0-.525.188l-.37-.056a6.608,6.608,0,0,0-1.11-2.839,31.1,31.1,0,0,0-3.956-4.334,54.4,54.4,0,0,1-4.928-5.54c-6.7-8.9-8.574-19.978-7.025-30.843a54.531,54.531,0,0,1,1.474-6.836c.185-.672.337-1.817.9-2.239A44.873,44.873,0,0,0,314.777,2333.764Z" transform="translate(-312.373 -2276.664)" fill="#a55a1c"/>
              <path id="Trazado_875924" data-name="Trazado 875924" d="M638.477,2260.5a23,23,0,0,1-3.383,2.982c-4.8,3.623-10.256,5.437-16.093,6.57-9.19,1.348-21.145-1.076-28.82-6.4a7.819,7.819,0,0,1-1.681-1.247,25.617,25.617,0,0,1-9.409-24.417,45.357,45.357,0,0,1,1.3-5.318c1.453,1.353,3.948,1.845,5.863,1.862a19.071,19.071,0,0,0,10.12-2.752,34.189,34.189,0,0,1,2.977-1.94c1.9-.922,4.073-1.266,5.632-2.809,1.276-1.264,1.359-2.478,1.354-4.206-.009-3.048-3.026-5.412-4.98-7.366a64.825,64.825,0,0,1,11.521,2.65c10.677,3.7,20.164,11.47,26.809,20.522,2.616,3.563,4.7,6.964,3.994,11.588a17.606,17.606,0,0,1-2.043,6.233,32.835,32.835,0,0,1-2.116,2.972A9.718,9.718,0,0,1,638.477,2260.5Z" transform="translate(-478.73 -2208.452)" fill="#de7604"/>
              <path id="Trazado_875925" data-name="Trazado 875925" d="M654.069,2338.385c-4.8,3.623-10.257,5.438-16.093,6.57-9.19,1.349-21.145-1.076-28.82-6.4.413-.241.935.038,1.354.181,2.173.744,4.28,1.532,6.506,2.126a51.461,51.461,0,0,0,15.791,1.6,58.673,58.673,0,0,0,16.821-3.547,41.508,41.508,0,0,0,6.608-3.033,2.685,2.685,0,0,1,1.217-.48A23,23,0,0,1,654.069,2338.385Z" transform="translate(-497.705 -2283.355)" fill="#ba610a"/>
              <path id="Trazado_875926" data-name="Trazado 875926" d="M672.51,2253.44a6.2,6.2,0,0,1,1.37,4.695,6.086,6.086,0,0,1-2.36,3.957,7.931,7.931,0,0,1-4.964,1.542,7.258,7.258,0,0,1-5.151-2.352,6.393,6.393,0,0,1-1.461-4.815,6.675,6.675,0,0,1,2.46-4.287,6.922,6.922,0,0,1,4.591-1.392l.054.006A7.807,7.807,0,0,1,672.51,2253.44Z" transform="translate(-529.398 -2230.5)" fill="#763b05"/>
              <path id="Trazado_875927" data-name="Trazado 875927" d="M676.635,2257.909a4.508,4.508,0,0,1,.206,3.427,4.275,4.275,0,0,1-2.418,2.525,4.827,4.827,0,0,1-2.135.317,4.208,4.208,0,0,1-2.828-2.034,4.555,4.555,0,0,1-.137-3.5,4.486,4.486,0,0,1,2.17-2.574,4.745,4.745,0,0,1,2.411-.393A4.241,4.241,0,0,1,676.635,2257.909Z" transform="translate(-535.1 -2233.557)" fill="#070605"/>
              <path id="Trazado_875928" data-name="Trazado 875928" d="M672.663,2269.885c-.175.26-.244.389-.573.458a1.557,1.557,0,0,1-.37.012c-.177-.353-.334-.5-.232-.886a1.1,1.1,0,0,1,.863-.376A1.532,1.532,0,0,1,672.663,2269.885Z" transform="translate(-536.609 -2241.946)" fill="#fefefe"/>
              <path id="Trazado_875929" data-name="Trazado 875929" d="M681.431,2259.392a1.634,1.634,0,0,1-.228,1.266,1.915,1.915,0,0,1-1.09.832,3.285,3.285,0,0,1-.869-.025,2.146,2.146,0,0,1-1.219-1.321,1.568,1.568,0,0,1,.2-1.183,1.942,1.942,0,0,1,1.173-.885,2.723,2.723,0,0,1,.849,0C680.822,2258.428,681.254,2258.691,681.431,2259.392Z" transform="translate(-540.685 -2235.045)" fill="#fefefe"/>
              <path id="Trazado_875930" data-name="Trazado 875930" d="M417.675,2229.011c1.152,1.257,2.714,2.193,3.627,3.677s.337,3.139.548,4.746a4.536,4.536,0,0,0,1.067,2.333l-.366.934a45.37,45.37,0,0,0-1.3,5.318,25.619,25.619,0,0,0,9.409,24.417,7.839,7.839,0,0,0,1.681,1.248c7.674,5.326,19.63,7.75,28.82,6.4a10.415,10.415,0,0,1-1.728,3.357,57.6,57.6,0,0,1-8.267,10.1l-3.791,3.477c-.46.4-1.029.733-1.455,1.162l.024.058a21.136,21.136,0,0,0,4.436,1.469l2.362.353-9.879,6.354a59.3,59.3,0,0,1-13.342,4.833l-4.533.871c-.242,2.49-.5,7.481,1.137,9.43a2.887,2.887,0,0,0,1.657.837c1.952.525,3.826,1.052,5.192,2.661a11.962,11.962,0,0,1,1.6,2.719l-3.66-.729a5.754,5.754,0,0,0-1.5-.254l.728,1.977a1.841,1.841,0,0,1,.216.656,19.223,19.223,0,0,0-3.589-.9l-4.521-.5c-1.758-.184-3.612-.208-5.069-1.336a13.289,13.289,0,0,1-3.372-4.874L412,2316a25.344,25.344,0,0,1-1.476-2.784c-.643-1.273-1.483-2.426-2.124-3.7l-4.239-8.455a17.235,17.235,0,0,0-1.467-2.969c.354,1.917.685,3.6-.281,5.425s-2.932,2.769-4.823,3.362a35.715,35.715,0,0,1-7.09,1.37c-6.329.65-13.189-.043-18.881-3.061a14.062,14.062,0,0,1-5.187-4.734,5.326,5.326,0,0,1-.739-1.29,16.577,16.577,0,0,1-.289-2.242,19.154,19.154,0,0,0-.7-2.881,43.633,43.633,0,0,0-5.031-10.465c-5.531-8.681-13.467-16.469-22.838-20.872a47.558,47.558,0,0,0-6.492-2.507,23.145,23.145,0,0,1-4.268-1.222l-.051-.028c-.08-.513.3-.98.565-1.41l2.092-3.2a50.06,50.06,0,0,1,17.33-14.56,62.554,62.554,0,0,1,7.239-3.327,49.853,49.853,0,0,1,18.905-3.12l8.842.748,10.278.917a68.877,68.877,0,0,0,15.641-.4,17.047,17.047,0,0,0,.844-1.611,10.778,10.778,0,0,1,4.563-3.959,6.509,6.509,0,0,1,3.779-.625,10.114,10.114,0,0,1,1.5.53Z" transform="translate(-320.893 -2216.485)" fill="#de7604"/>
              <path id="Trazado_875931" data-name="Trazado 875931" d="M614.969,2410.64l2.362.354-9.879,6.354a59.283,59.283,0,0,1-13.342,4.834l-4.533.87a12.648,12.648,0,0,1,2.05-5.939,19.442,19.442,0,0,1,2.35-2.58l2.267-2.374a10.136,10.136,0,0,1-3.22,4.947,5.428,5.428,0,0,0,1.485-.241,39.551,39.551,0,0,0,12.564-5.261,25.423,25.423,0,0,0,2.1-1.455,7.342,7.342,0,0,1,1.36-.978A21.081,21.081,0,0,0,614.969,2410.64Z" transform="translate(-485.479 -2329.421)" fill="#ba610a"/>
              <path id="Trazado_875932" data-name="Trazado 875932" d="M543.636,2229.011c1.152,1.257,2.714,2.193,3.627,3.677s.337,3.139.548,4.746a4.535,4.535,0,0,0,1.067,2.333l-.366.934a45.37,45.37,0,0,0-1.3,5.318,25.619,25.619,0,0,0,9.409,24.417,7.837,7.837,0,0,0,1.681,1.248c7.674,5.326,19.63,7.75,28.82,6.4a10.415,10.415,0,0,1-1.728,3.357,57.6,57.6,0,0,1-8.267,10.1l-3.791,3.477c-.46.4-1.029.733-1.455,1.162a7.972,7.972,0,0,1-1.938-.99,18.09,18.09,0,0,1-5.332-5.09,16.507,16.507,0,0,0,3.294,6.892l-.862-.293c-4.115-1.5-7.552-4.165-10.94-6.863a46.241,46.241,0,0,1-6.213-5.632,29.776,29.776,0,0,1-4.158-6.258,18.09,18.09,0,0,1-1.463-4.045,14.317,14.317,0,0,0-.658-2.714,13.448,13.448,0,0,0-.113,2.627,22.043,22.043,0,0,0,.411,4.681,31.03,31.03,0,0,0,2.181,5.939l-.082-.018a5.083,5.083,0,0,1-.8-.623l-2.022-1.611c-5.2-4.2-10.068-8.7-12.781-14.952-3.767-8.679-3.361-18.453-.107-27.219a24.462,24.462,0,0,1,1.271-2.9,25.055,25.055,0,0,0,1.3-2.512,17.075,17.075,0,0,0,.844-1.611,10.779,10.779,0,0,1,4.563-3.959,6.509,6.509,0,0,1,3.779-.625,10.112,10.112,0,0,1,1.5.53Z" transform="translate(-446.853 -2216.485)" fill="#f9e4c5"/>
            </g>
          </g>
        </g>
      </g>
      <rect id="Rectángulo_402721" data-name="Rectángulo 402721" width="27.832" height="327.074" transform="translate(7.835 229.463) rotate(-90)" fill="#6b4113"/>
    </g>
  </g>
</svg>
