<svg xmlns="http://www.w3.org/2000/svg" width="82" height="82" viewBox="0 0 82 82">
  <g id="Grupo_1189705" data-name="Grupo 1189705" transform="translate(-768.781 -1962.939)">
    <rect id="Rectángulo_402627" data-name="Rectángulo 402627" width="82" height="82" transform="translate(768.781 1962.939)" fill="none"/>
    <g id="Grupo_1189733" data-name="Grupo 1189733" transform="translate(776.781 1970.939)">
      <path id="Trazado_877763" data-name="Trazado 877763" d="M61.633,4.05H51.345A4.878,4.878,0,0,0,46.545,0H19.96a4.878,4.878,0,0,0-4.8,4.05H4.871A4.876,4.876,0,0,0,0,8.921V47.842a4.876,4.876,0,0,0,4.871,4.871H26.533v4.756h-.085a5.705,5.705,0,0,0-5.7,5.7V64.9a1.606,1.606,0,0,0,1.6,1.6h21.8a1.606,1.606,0,0,0,1.6-1.6V63.168a5.705,5.705,0,0,0-5.7-5.7h-.085V52.713H51.537a.974.974,0,1,0,0-1.948H4.871a2.926,2.926,0,0,1-2.923-2.923V8.921A2.926,2.926,0,0,1,4.871,6H15.089V7.947H5.39A1.5,1.5,0,0,0,3.9,9.441V47.322A1.5,1.5,0,0,0,5.39,48.816H61.114a1.5,1.5,0,0,0,1.494-1.494V9.441a1.5,1.5,0,0,0-1.494-1.494h-9.7V6H61.633a2.926,2.926,0,0,1,2.923,2.923V47.842a2.926,2.926,0,0,1-2.923,2.923h-5.55a.974.974,0,0,0,0,1.948h5.55A4.876,4.876,0,0,0,66.5,47.842V8.921A4.876,4.876,0,0,0,61.633,4.05ZM28.481,52.713h9.542v4.756H28.481Zm-.974,6.7H40.056a3.755,3.755,0,0,1,3.75,3.75v1.388H22.7V63.168a3.755,3.755,0,0,1,3.751-3.75h1.059Zm21.96-12.551H17.037V18.012a.974.974,0,1,0-1.948,0V46.867H5.845V9.9h9.244v3.571a.974.974,0,1,0,1.948,0V4.871A2.926,2.926,0,0,1,19.96,1.948H46.545a2.926,2.926,0,0,1,2.923,2.923ZM60.659,9.9V46.867H51.416V9.9ZM44.469,41.046H22.035a.974.974,0,0,0,0,1.948H44.469a.974.974,0,1,0,0-1.948Zm0-5.845H22.035a.974.974,0,1,0,0,1.948H44.469a.974.974,0,0,0,0-1.948ZM39.8,13.015a2.947,2.947,0,0,0-4.071.136l-4.438,4.438-.551-.551a2.923,2.923,0,1,0-4.133,4.133l2.158,2.159a3.576,3.576,0,0,0,5.051,0L39.9,17.245a2.958,2.958,0,0,0-.1-4.23Zm-1.276,2.852-6.084,6.084a1.627,1.627,0,0,1-2.3,0l-2.158-2.158a.974.974,0,0,1,1.378-1.378l.964.964a1.364,1.364,0,0,0,1.929,0L37.1,14.528a1.014,1.014,0,0,1,1.382-.073.983.983,0,0,1,.035,1.411ZM33.252,5.845a12.47,12.47,0,1,0,12.47,12.47A12.484,12.484,0,0,0,33.252,5.845Zm0,22.991A10.521,10.521,0,1,1,43.773,18.315,10.533,10.533,0,0,1,33.252,28.836Z"/>
    </g>
  </g>
</svg>
