<svg xmlns="http://www.w3.org/2000/svg" width="82" height="82" viewBox="0 0 82 82">
  <g id="Grupo_1189707" data-name="Grupo 1189707" transform="translate(-768.781 -1962.939)">
    <rect id="Rectángulo_402627" data-name="Rectángulo 402627" width="82" height="82" transform="translate(768.781 1962.939)" fill="none"/>
    <g id="Grupo_1189735" data-name="Grupo 1189735" transform="translate(777.571 1971.939)">
      <path id="Trazado_877774" data-name="Trazado 877774" d="M12.258,47.072H51.742a1,1,0,0,0,1-1V21.317a1,1,0,0,0-1-1H12.258a1,1,0,0,0-1,1V46.072a1,1,0,0,0,1,1Zm1-24.755H50.742V45.072H13.258Z"/>
      <path id="Trazado_877775" data-name="Trazado 877775" d="M17.28,14.35a1,1,0,0,0-.87,1v1.92H11.03a2.83,2.83,0,0,0-2.82,2.82v27.2a2.832,2.832,0,0,0,2.82,2.83H27.02v5.52l-7.05,4.52A1,1,0,0,0,20.51,62h4.72a.925.925,0,0,0,.29-.04L32,59.98l6.47,1.98a1.012,1.012,0,0,0,.29.04h4.73a1,1,0,0,0,.54-1.84l-7.06-4.52V50.12h16a2.832,2.832,0,0,0,2.82-2.83V20.09a2.83,2.83,0,0,0-2.82-2.82H47.59V15.35a1,1,0,0,0-.87-1l-3.7-.49a11.262,11.262,0,0,0-.59-1.4L44.71,9.5a.994.994,0,0,0-.08-1.32L41.42,4.97a.992.992,0,0,0-1.31-.08L37.15,7.17a13.674,13.674,0,0,0-1.42-.59l-.48-3.71A1,1,0,0,0,34.26,2H29.73a1,1,0,0,0-.99.87l-.48,3.71a11.013,11.013,0,0,0-1.41.59L23.89,4.89a.992.992,0,0,0-1.31.08L19.37,8.18a1.006,1.006,0,0,0-.09,1.32l2.28,2.96a11.262,11.262,0,0,0-.59,1.4l-3.69.49ZM40.07,60H38.91l-6.62-2.02a.989.989,0,0,0-.59,0L25.08,60H23.92l4.64-2.97a.985.985,0,0,0,.46-.84V50.12h5.95v6.07a.985.985,0,0,0,.46.84Zm12.9-40.73a.824.824,0,0,1,.82.82v27.2a.813.813,0,0,1-.82.83H11.03a.813.813,0,0,1-.82-.83V20.09a.824.824,0,0,1,.82-.82ZM23.54,11.75,21.4,8.97l1.97-1.96,2.77,2.14a1,1,0,0,0,1.11.08,8.9,8.9,0,0,1,2.18-.91,1.008,1.008,0,0,0,.73-.84L30.61,4h2.77l.45,3.48a1.008,1.008,0,0,0,.73.84,8.9,8.9,0,0,1,2.19.91,1,1,0,0,0,1.11-.08l2.77-2.14,1.96,1.96-2.14,2.78a1,1,0,0,0-.08,1.11,8.8,8.8,0,0,1,.91,2.17,1.008,1.008,0,0,0,.84.73l3.47.46v1.05H38.36a6.368,6.368,0,0,0-12.72,0H18.41V16.22l3.46-.46a1.008,1.008,0,0,0,.84-.73,8.863,8.863,0,0,1,.91-2.17,1,1,0,0,0-.08-1.11Z"/>
    </g>
  </g>
</svg>
