<svg xmlns="http://www.w3.org/2000/svg" xmlns:xlink="http://www.w3.org/1999/xlink" width="328" height="276" viewBox="0 0 328 276">
  <defs>
    <filter id="conejillo-de-indias-esponjoso-sentado-en-la-hierba-verde-generado-por-ia" x="0" y="52" width="328" height="208" filterUnits="userSpaceOnUse">
      <feOffset dy="3" input="SourceAlpha"/>
      <feGaussianBlur stdDeviation="3" result="blur"/>
      <feFlood flood-opacity="0.161"/>
      <feComposite operator="in" in2="blur"/>
      <feComposite in="SourceGraphic"/>
    </filter>
  </defs>
  <g id="Grupo_1189222" data-name="Grupo 1189222" transform="translate(-296.051 -6052)">
    <g transform="matrix(1, 0, 0, 1, 296.05, 6052)" filter="url(#conejillo-de-indias-esponjoso-sentado-en-la-hierba-verde-generado-por-ia)">
      <rect id="conejillo-de-indias-esponjoso-sentado-en-la-hierba-verde-generado-por-ia-2" data-name="conejillo-de-indias-esponjoso-sentado-en-la-hierba-verde-generado-por-ia" width="310" height="190" rx="10" transform="translate(9 58)" fill="#fee3e0"/>
    </g>
    <path id="Rect치ngulo_402600" data-name="Rect치ngulo 402600" d="M136,0h37.974a0,0,0,0,1,0,0V175.867a0,0,0,0,1,0,0H0a0,0,0,0,1,0,0V136A136,136,0,0,1,136,0Z" transform="translate(310.938 6088.5)" fill="#fdbab3"/>
    <path id="Rect치ngulo_402761" data-name="Rect치ngulo 402761" d="M0,0H86.987a0,0,0,0,1,0,0V87.934a0,0,0,0,1,0,0h0A86.987,86.987,0,0,1,0,.947V0A0,0,0,0,1,0,0Z" transform="translate(513.924 6126.741)" fill="#af817c"/>
    <g id="Grupo_1189221" data-name="Grupo 1189221" transform="translate(305.051 6052)">
      <path id="Trazado_876473" data-name="Trazado 876473" d="M4000.786,1615.14c-.086-.563-14.543-40.85-25.638-47.5s-5.206,30.338-3.635,36.087,12.713,18.071,12.713,18.071Z" transform="translate(-3855.275 -1566.84)" fill="#5b5552"/>
      <path id="Trazado_876474" data-name="Trazado 876474" d="M3954.657,3159.51s13.081,1.635,30.412-4.578c15.753-5.647,33.4-1.3,38.445,13.046a3.468,3.468,0,0,1-3.274,4.612h-85.53S3937.821,3160.469,3954.657,3159.51Z" transform="translate(-3872.796 -2899.206)" fill="#5b5552"/>
      <g id="Grupo_1189214" data-name="Grupo 1189214" transform="translate(0 240.364)">
        <path id="Trazado_876475" data-name="Trazado 876475" d="M4576.771,3102.079c4.348,3.561,10.65,6.1,19.4,6.353a59.214,59.214,0,0,0,9.865-.586,27.519,27.519,0,0,0,6.617-1.626c4.282-1.755,5.4-4.38,4.807-7.236-1.47-7.121-13.531-15.664-13.531-15.664s-4.986-1.416-13.417-3.692q-2.454-.663-5.283-1.415c-2.975-.794-6.246-1.659-9.769-2.578C4567.8,3073.635,4564.44,3091.976,4576.771,3102.079Z" transform="translate(-4567.961 -3074.825)" fill="#7a7370"/>
        <path id="Trazado_876476" data-name="Trazado 876476" d="M4780.068,3098.621c6.983-1.563-2.065-8.681-3.926-15.655-1.937-7.262,12.027-8.19,12.385-8.213-2.975-.794-5.975-2.312-9.5-3.231C4771.372,3069.525,4765.842,3087.328,4780.068,3098.621Z" transform="translate(-4771.258 -3071.368)" fill="#bcbab7"/>
        <path id="Trazado_876477" data-name="Trazado 876477" d="M4569.514,3101.422s11.924,26.09,5.06,25.763c-2.612-.125-1.627,1.268.6,3.039a59.257,59.257,0,0,0,9.865-.586,27.549,27.549,0,0,0,6.618-1.627l4.807-7.236c-1.47-7.121-13.531-15.664-13.531-15.664s-4.985-1.416-13.417-3.692Z" transform="translate(-4546.961 -3096.618)" fill="#5b5552"/>
      </g>
      <g id="Grupo_1189215" data-name="Grupo 1189215" transform="translate(22.048 44.442)">
        <path id="Trazado_876478" data-name="Trazado 876478" d="M3711.5,2632.3s20.224,30.747,19.74,41.547-29.408,4.454-30.587.055,4.566-8.972-3.179-19.7S3711.5,2632.3,3711.5,2632.3Z" transform="translate(-3564.209 -2506.525)" fill="#5b5552"/>
        <path id="Trazado_876479" data-name="Trazado 876479" d="M3655.7,2067.849a12.229,12.229,0,0,0,11.721,8.728H3684.6l15.316-3.925,22.374-5.735,27.384-7.018c.044-1.633.112-3.222.2-4.758,2.363-42.475,19.422-48.872,19.422-48.872,31.494-24.569,28.395-64.276,28.606-88.615.025-2.9-.011-5.588-.062-8,0-.128-.005-.254-.009-.381-.073-3.173-.178-5.853-.224-7.918.071-.013,7.589-.208,7.66-.224,8.884-1.9,12.552-7.6,13.928-13.175a26.7,26.7,0,0,0,.735-5.854,30.47,30.47,0,0,0-.6-6.8c3.126-2.584.356-6.025-1.9-8.068a21.129,21.129,0,0,0-2.19-1.742s-14.227-15.04-23.873-18.8-31.066,0-31.066,0a114.251,114.251,0,0,0-12.821,4.251c-4.139,1.681-7.851,16.161-8.251,27.483v0a46.279,46.279,0,0,0,.112,5.587,8.826,8.826,0,0,1-4.534,8.5c-.538.3-1.074.6-1.6.9-62.814,35.475-87.206,98.7-87.516,121.038C3645.459,2031.032,3651.883,2055.081,3655.7,2067.849Z" transform="translate(-3645.685 -1845.018)" fill="#7a7370"/>
        <path id="Trazado_876480" data-name="Trazado 876480" d="M4216.374,2811.1s-8.216-26.161-25.221-30.133c0,0,16.669.681,22.887,11.6S4216.374,2811.1,4216.374,2811.1Z" transform="translate(-4129.671 -2631.435)" fill="#5b5552"/>
        <path id="Trazado_876481" data-name="Trazado 876481" d="M3769.94,2197.543c-.073-3.173-.178-5.853-.225-7.919.071-.012,7.589-.208,7.661-.224,0,0-31.366-.322-34.926-1.306C3742.45,2188.094,3752.664,2196.077,3769.94,2197.543Z" transform="translate(-3617.792 -2133.284)" fill="#5b5552"/>
        <path id="Trazado_876482" data-name="Trazado 876482" d="M4098.32,2069.115a53.507,53.507,0,0,1,15.21,2.193c-6-2.862-9.126-16.925-9.184-17.175a45.982,45.982,0,0,0,.111,5.587,8.83,8.83,0,0,1-4.533,8.5Q4099.118,2068.665,4098.32,2069.115Z" transform="translate(-4010.8 -2020.725)" fill="#5b5552"/>
        <path id="Trazado_876483" data-name="Trazado 876483" d="M4067.466,2681.139s-4.324-2.672-9.229-11.011c0,0,1.617,12.355,4.814,13.862Z" transform="translate(-3958.332 -2538.308)" fill="#5b5552"/>
        <path id="Trazado_876484" data-name="Trazado 876484" d="M4188.666,2200.062s-9.26,0-11.549,9.028C4177.117,2209.09,4182.883,2203.087,4188.666,2200.062Z" transform="translate(-4098.523 -2143.34)" fill="#5b5552"/>
        <path id="Trazado_876485" data-name="Trazado 876485" d="M4102.735,2207.071s-9.006,2.153-9.132,11.466C4093.6,2218.537,4097.814,2211.357,4102.735,2207.071Z" transform="translate(-3999.25 -2149.229)" fill="#5b5552"/>
        <path id="Trazado_876486" data-name="Trazado 876486" d="M4364.989,2326.791s-8.312,1.987-8.475,10.4C4356.515,2337.188,4360.432,2330.685,4364.989,2326.791Z" transform="translate(-4303.508 -2249.823)" fill="#5b5552"/>
        <path id="Trazado_876487" data-name="Trazado 876487" d="M4379.073,2408.84s-8.312,1.987-8.474,10.4C4370.6,2419.237,4374.516,2412.734,4379.073,2408.84Z" transform="translate(-4319.842 -2318.764)" fill="#5b5552"/>
      </g>
      <g id="Grupo_1189216" data-name="Grupo 1189216" transform="translate(98.657 116.281)">
        <path id="Trazado_876488" data-name="Trazado 876488" d="M3785.544,2444.745l27.582-4.946c1.3-46.762,19.64-55.047,19.64-55.047,31.5-24.569,29.42-63.781,28.414-89.575h0c-.751-.793-1.659-.571-2.344.279-3.009,3.737-10.424,14.106-15.029,30.483-5.885,20.928-16.49,35.18-38.728,47.652s-9.51,20.969-7.7,36.668C3798.724,2421.88,3790.107,2437.445,3785.544,2444.745Z" transform="translate(-3785.544 -2294.686)" fill="#bcbab7"/>
        <path id="Trazado_876489" data-name="Trazado 876489" d="M3801.153,2447.029s2.746-4.274-.36-7.762A29.575,29.575,0,0,1,3801.153,2447.029Z" transform="translate(-3728.619 -2416.168)" fill="#66605d" opacity="0.3"/>
        <path id="Trazado_876490" data-name="Trazado 876490" d="M3825.472,2456.246s4.05-3.067,2.336-7.411A29.58,29.58,0,0,1,3825.472,2456.246Z" transform="translate(-3758.519 -2424.208)" fill="#66605d" opacity="0.3"/>
      </g>
      <g id="Grupo_1189217" data-name="Grupo 1189217" transform="translate(153.618 55.119)">
        <path id="Trazado_876491" data-name="Trazado 876491" d="M3838.909,1919.2c-1.263-2.677-5.913-10.768-14.093-5.733a.832.832,0,0,0-.363.483c-.573,2.031-2.994,13.018,14,6.387A.839.839,0,0,0,3838.909,1919.2Z" transform="translate(-3824.003 -1911.847)" fill="#bcbab7"/>
        <ellipse id="Elipse_11625" data-name="Elipse 11625" cx="4.806" cy="4.806" rx="4.806" ry="4.806" transform="translate(2.562 0.754)" fill="#30232d"/>
        <ellipse id="Elipse_11626" data-name="Elipse 11626" cx="1.455" cy="1.455" rx="1.455" ry="1.455" transform="translate(8.582 5.855) rotate(-103.283)" fill="#fff"/>
      </g>
      <g id="Grupo_1189218" data-name="Grupo 1189218" transform="translate(98.282 4.637)">
        <path id="Trazado_876492" data-name="Trazado 876492" d="M4061.3,1638.77c-.18-.54-21.241-37.8-33.3-42.483s0,30.782,2.52,36.182,15.586,15.661,15.586,15.661Z" transform="translate(-4022.727 -1595.863)" fill="#7a7370"/>
        <path id="Trazado_876493" data-name="Trazado 876493" d="M4102.736,1636.505c.19,7.036,1.871,25.011,13.7,35.21a28.616,28.616,0,0,0,5.943,3.956,1.258,1.258,0,0,0,1.815-1.008c.441-4.992.614-19.78-10.653-32.3a.012.012,0,0,1,0-.007,45.479,45.479,0,0,0-8.31-7.2A1.591,1.591,0,0,0,4102.736,1636.505Z" transform="translate(-4098.549 -1628.642)" fill="#bcbab7"/>
        <path id="Trazado_876494" data-name="Trazado 876494" d="M4105.631,1711.1a28.6,28.6,0,0,0,5.943,3.955,1.257,1.257,0,0,0,1.815-1.008c.441-4.992.614-19.78-10.653-32.3C4102.987,1682.228,4113.831,1703.079,4105.631,1711.1Z" transform="translate(-4087.745 -1668.03)" fill="#66605d" opacity="0.3"/>
      </g>
      <path id="Trazado_876495" data-name="Trazado 876495" d="M3647.2,2009.922c11.53-3.727,24.361-3.434,36.244-1.718,4.37.632,9.194-1.408,13.547-4.239a8.415,8.415,0,0,0,2.771-11.1c-1.361-2.478-2.673-4.925-2.447-6.485.544-3.759,4.316-2.837,4.316-2.837,2.251,2.043,5.021,5.485,1.9,8.069a30.483,30.483,0,0,1,.6,6.8c0,.218-.219,3.76-.247,3.933a16.329,16.329,0,0,1-.463,2.044c-3.093,10.642-8.242,11.369-13.952,13.052-9.048,2.667-22.705.865-34.927-1.306C3646.628,2014.418,3643.576,2011.094,3647.2,2009.922Z" transform="translate(-3507.835 -1916.884)" fill="#bcbab7"/>
      <path id="Trazado_876496" data-name="Trazado 876496" d="M3651.463,2001.827s4.742,3.434,2.78,5.232S3651.463,2001.827,3651.463,2001.827Z" transform="translate(-3458.549 -1932.333)" fill="#443e3b"/>
      <path id="Trazado_876497" data-name="Trazado 876497" d="M3773.247,2074.813a48.968,48.968,0,0,0-20.007,17.388l-.973,1.48,1.055-1.422a49.438,49.438,0,0,1,8.533-8.869,48.331,48.331,0,0,1,8.8-5.7,32.191,32.191,0,0,1,3.18-1.383.8.8,0,1,0-.584-1.491Z" transform="translate(-3594.291 -1993.604)" fill="#443e3b"/>
      <path id="Trazado_876498" data-name="Trazado 876498" d="M3723.372,2093.371a43.718,43.718,0,0,0-9.276,22.078l-.2,1.586c.191-.945.388-2.218.619-3.132a46.33,46.33,0,0,1,3.777-10.429,47.194,47.194,0,0,1,2.382-4.093,32.6,32.6,0,0,1,3.866-4.917.8.8,0,1,0-1.17-1.094Z" transform="translate(-3538.586 -2009.019)" fill="#443e3b"/>
      <path id="Trazado_876499" data-name="Trazado 876499" d="M3899.729,1838.624a18.856,18.856,0,0,0-6.509-8.988,20.919,20.919,0,0,1,3.5,4.233,15.991,15.991,0,0,1,2.069,4.949.481.481,0,1,0,.941-.195Z" transform="translate(-3742.201 -1787.651)" fill="#443e3b"/>
      <path id="Trazado_876500" data-name="Trazado 876500" d="M3904.154,1860.789a14.691,14.691,0,0,0-7.288-4.805,15.645,15.645,0,0,1,5.229,3.661,9.419,9.419,0,0,1,1.248,1.661.481.481,0,1,0,.812-.516Z" transform="translate(-3747.287 -1809.79)" fill="#443e3b"/>
      <g id="Grupo_1189219" data-name="Grupo 1189219" transform="translate(128.153 162.738)">
        <path id="Trazado_876501" data-name="Trazado 876501" d="M3759.3,2616.706h0a81.1,81.1,0,0,0,7.794,6.532c5.446,4.066,5.808,7.992,5.523,11.44-.131,1.614-.429,3.151-.464,4.614a7.68,7.68,0,0,0,.352,2.661,5.941,5.941,0,0,0,.826,1.607c.708.983,3.173,1.9,6.4,2.514,6.022,1.146,14.694,1.227,19.491-1.319.16-.086.316-.173.47-.266.179-.105.349-.218.516-.333a5.766,5.766,0,0,0,2.25-2.8,5.189,5.189,0,0,0,.295-1.832c0-.1-.006-.2-.013-.307-.653-10.794-31.234-53.748-31.234-53.748S3734.084,2592.416,3759.3,2616.706Z" transform="translate(-3750.567 -2585.475)" fill="#7a7370"/>
        <path id="Trazado_876502" data-name="Trazado 876502" d="M3769.729,2928.457a5.941,5.941,0,0,0,.826,1.607c1.326,1.838,8.786,3.449,15.862,3.263.269-.007.538-.016.8-.029,3.737-.17,7.291-.862,9.693-2.306-3.123-1.207-6.071-3.442-9.818-2.1a8.49,8.49,0,0,0-1.268.576c-.01.007-.02.01-.029.016s-7.666-4.076-12.081-2.776A22.47,22.47,0,0,0,3769.729,2928.457Z" transform="translate(-3747.792 -2871.978)" fill="#bcbab7"/>
        <path id="Trazado_876503" data-name="Trazado 876503" d="M3829.1,2919.4c.029.093.577,1.828,1.054,4.144a36.765,36.765,0,0,1,.589,3.858c.269-.006.538-.016.8-.029a9.214,9.214,0,0,0-.125-4.406A7.521,7.521,0,0,0,3829.1,2919.4Z" transform="translate(-3792.113 -2866.049)" fill="#5b5552"/>
        <path id="Trazado_876504" data-name="Trazado 876504" d="M3766.5,2915.648c.048.083.957,1.659,1.924,3.817.372.835.752,1.758,1.092,2.715.16-.086.316-.173.47-.266.179-.106.349-.218.516-.333a8.635,8.635,0,0,0-.967-2.953A7.5,7.5,0,0,0,3766.5,2915.648Z" transform="translate(-3720.867 -2862.899)" fill="#5b5552"/>
      </g>
      <g id="Grupo_1189220" data-name="Grupo 1189220" transform="translate(45.598 253.247)">
        <path id="Trazado_876505" data-name="Trazado 876505" d="M4088.9,3170.833h26.635l22.375-5.734,27.582-4.688c.044-1.633-.042-.1.044-1.633-5.557-4.825-17.245-8.84-26.274-5.6-17.333,6.215-30.413,4.579-30.413,4.579C4092.012,3158.714,4088.9,3170.833,4088.9,3170.833Z" transform="translate(-4084.853 -3152.006)" fill="#5b5552" opacity="0.5"/>
        <path id="Trazado_876506" data-name="Trazado 876506" d="M4036.846,3188.963h85.53a3.462,3.462,0,0,0,3.272-4.614c-5.046-14.345-22.692-18.693-38.446-13.045-17.329,6.212-30.412,4.579-30.412,4.579C4039.954,3176.84,4036.846,3188.963,4036.846,3188.963Z" transform="translate(-4036.846 -3166.21)" fill="#7a7370"/>
        <path id="Trazado_876507" data-name="Trazado 876507" d="M4050.14,3245.3s3.743,5.351,4.089,7.848h.756a3.455,3.455,0,0,0,1.348-.269C4055.644,3250.729,4053.787,3246.208,4050.14,3245.3Z" transform="translate(-3969.454 -3230.396)" fill="#5b5552"/>
      </g>
    </g>
    <g id="Grupo_1189207" data-name="Grupo 1189207" transform="translate(460.051 6214.674)">
      <g id="Grupo_1189207-2" data-name="Grupo 1189207" transform="translate(129.041 85.164)">
        <path id="Trazado_876433" data-name="Trazado 876433" d="M423.973,1182.016s7.277-5.974,11.774-4.619.24,15.994-7.406,17.178a53.469,53.469,0,0,1-15.112-.083Z" transform="translate(-413.229 -1176.392)" fill="#e5bfa5"/>
        <path id="Trazado_876434" data-name="Trazado 876434" d="M460.523,1251.782s3.484-3.647,6.636-1.329A10.836,10.836,0,0,0,460.523,1251.782Z" transform="translate(-447.268 -1242.035)" fill="#c99367"/>
        <path id="Trazado_876435" data-name="Trazado 876435" d="M427.862,1171.793s2.572-4.339,6.165-2.79A10.836,10.836,0,0,0,427.862,1171.793Z" transform="translate(-411.054 -1168.669)" fill="#d8aa8b"/>
        <path id="Trazado_876436" data-name="Trazado 876436" d="M396.236,1180.44s4.781-1.607,6.492,1.912A10.834,10.834,0,0,0,396.236,1180.44Z" transform="translate(-376.769 -1178.998)" fill="#d8aa8b"/>
        <path id="Trazado_876437" data-name="Trazado 876437" d="M463.285,1274.406s4.973-.842,6.114,2.9A10.834,10.834,0,0,0,463.285,1274.406Z" transform="translate(-449.769 -1264.352)" fill="#c99367"/>
      </g>
      <g id="Grupo_1189208" data-name="Grupo 1189208" transform="translate(37.21 97.316)">
        <path id="Trazado_876438" data-name="Trazado 876438" d="M1396.766,1302.295c-.56.86-.965,3.289-1.21,5.234a3.182,3.182,0,0,1-3.278,2.672c-2.132-.033-4.782.092-7.479.163-.6.016-1.208.027-1.809.035-.194,0-.388.005-.582.005-3.378.024-6.608-.143-8.755-.925a6.515,6.515,0,0,1-.7-.295,2.9,2.9,0,0,1-1.9-2.789c.076-2.053,4.217-4.334,8.28-6.081,3.947-1.7,7.819-2.9,7.819-2.9S1397.755,1300.775,1396.766,1302.295Z" transform="translate(-1371.051 -1297.42)" fill="#cc8e5e"/>
        <path id="Trazado_876439" data-name="Trazado 876439" d="M1388.484,1302.295c-.56.86-.965,3.289-1.21,5.234A3.182,3.182,0,0,1,1384,1310.2c-2.132-.033-4.782.092-7.479.163a10.387,10.387,0,0,0,3.755-.995,1.839,1.839,0,0,0-.239-3.383c-5.156-1.757-7.716-3.976-8.982-5.671,3.947-1.7,7.819-2.9,7.819-2.9S1389.473,1300.775,1388.484,1302.295Z" transform="translate(-1362.768 -1297.42)" fill="#7b573f" opacity="0.3"/>
        <path id="Trazado_876440" data-name="Trazado 876440" d="M1594.119,1399.76a7.982,7.982,0,0,0-2.418,2.4,6.565,6.565,0,0,1-.7-.295A4.176,4.176,0,0,1,1594.119,1399.76Z" transform="translate(-1589.099 -1390.101)" fill="#7b573f" opacity="0.3"/>
      </g>
      <g id="Grupo_1189209" data-name="Grupo 1189209" transform="translate(27.648 0)">
        <path id="Trazado_876441" data-name="Trazado 876441" d="M1417.614,312.729c-11.7,2.481-11.312-9.2-11.312-9.2s.047-.152.14-.438c.5-1.556,2.339-7.067,5.061-13.364v0c5.133-11.879,13.415-26.551,21.838-22.738C1447.05,273.195,1429.314,310.249,1417.614,312.729Z" transform="translate(-1406.301 -266.376)" fill="#cc8e5e"/>
        <path id="Trazado_876442" data-name="Trazado 876442" d="M1444.9,298.944c-.22,1.871-2.448,15.021-9.472,22.13l-.083.084a14.361,14.361,0,0,1-8.371,4.337s-4.419-13.988,1.5-25.322a22.581,22.581,0,0,1,2.8-4.18C1441.2,284.282,1445.187,296.467,1444.9,298.944Z" transform="translate(-1414.697 -288.666)" fill="#e5bfa5"/>
        <path id="Trazado_876443" data-name="Trazado 876443" d="M1535.933,409.2l-.083.084a14.36,14.36,0,0,1-8.37,4.337s-4.419-13.988,1.5-25.322C1528.979,388.3,1525.988,406.981,1535.933,409.2Z" transform="translate(-1515.206 -376.788)" fill="#a05252" opacity="0.2"/>
        <path id="Trazado_876444" data-name="Trazado 876444" d="M1684.715,531.7a23.27,23.27,0,0,0-6.178-4.507c.5-1.556,2.339-7.067,5.061-13.364C1683.544,514.18,1681.4,528.047,1684.715,531.7Z" transform="translate(-1678.395 -490.477)" fill="#7b573f" opacity="0.3"/>
      </g>
      <g id="Grupo_1189210" data-name="Grupo 1189210" transform="translate(0 25.996)">
        <path id="Trazado_876445" data-name="Trazado 876445" d="M502.1,584.262a2.671,2.671,0,0,0,1.139,1.765,1.987,1.987,0,0,0,.657.287s0,.017.007.047a13.924,13.924,0,0,0,.3,1.435,10.761,10.761,0,0,0,2.475,4.789c.1.1.214.2.327.3a4.61,4.61,0,0,0,3.176,1.128,5.722,5.722,0,0,0,1.128,1.13c.15.117.316.239.5.361a8.962,8.962,0,0,0,2.65,1.188,13.688,13.688,0,0,0,7.263-.258l.093-.026q.881-.245,1.838-.6c.5-.184,1-.395,1.5-.627a1.374,1.374,0,0,1,1.806.639,17.952,17.952,0,0,0,1.462,2.379c.514.723,1.11,1.484,1.775,2.271a76.777,76.777,0,0,0,14.857,13.05l.064.042.115.077.3.2c.969.641,1.941,1.247,2.905,1.808,1.323.773,2.635,1.463,3.911,2.049a60.939,60.939,0,0,0,11.723,3.571q1.072.235,2.179.456l.566.112c12.73,2.491,28.212,3.644,34.248,2.709l.264-.04a23.285,23.285,0,0,1,2.539-.211,59.656,59.656,0,0,1,11.3,1.184,50.332,50.332,0,0,0,5.988.717c.136.006.271.01.4.012a13.18,13.18,0,0,0,4.006-.457c1.961-.584,5.674-2.659,9.491-6.245a39.282,39.282,0,0,0,10.066-15.19,37.954,37.954,0,0,0,1.865-7.424c1.1-7.492-7.912-43.886-41.634-53.391-20.734-5.844-39.51,4.569-50.9,13.458a7.509,7.509,0,0,1-7.039,1.177c-.087-.029-.173-.06-.259-.092a7.8,7.8,0,0,1-1.479-.752,54.334,54.334,0,0,0-7.285-3.942,20.6,20.6,0,0,0-3.966-.791,26.033,26.033,0,0,0-4.549-.1,23.492,23.492,0,0,0-12.7,4.654c-.14.1-.279.211-.419.32q-.411.321-.818.668-.2.167-.391.34-.214.187-.425.381a35.346,35.346,0,0,0-4.2,4.62C504.306,572.113,501.782,582.79,502.1,584.262Z" transform="translate(-502.07 -541.799)" fill="#cc8e5e"/>
        <path id="Trazado_876446" data-name="Trazado 876446" d="M1854.942,791.838a2.672,2.672,0,0,0,1.139,1.765,1.988,1.988,0,0,0,.657.287s0,.017.007.047a13.894,13.894,0,0,0,.3,1.435,10.761,10.761,0,0,0,2.475,4.789c.1.1.214.2.327.3a4.61,4.61,0,0,0,3.176,1.128q.639-.3,1.224-.6c.232-.118.459-.237.678-.357a21.167,21.167,0,0,0,4.726-3.327q.22-.214.419-.427c5.908-6.333-1.745-12.01-5.51-12.762-3.389-.678-1.876-8.709-.779-13.1C1857.151,779.69,1854.627,790.367,1854.942,791.838Z" transform="translate(-1854.916 -749.376)" fill="#e5bfa5"/>
        <path id="Trazado_876447" data-name="Trazado 876447" d="M1086.583,966.492s-31.062,17.3-6.241,34.334C1080.342,1000.826,1062.524,983.266,1086.583,966.492Z" transform="translate(-995.246 -926.407)" fill="#7b573f" opacity="0.3"/>
        <path id="Trazado_876448" data-name="Trazado 876448" d="M1734.339,1020.49s-.337,9.241-4.051,11.216a17.9,17.9,0,0,1-1.462-2.378,1.374,1.374,0,0,0-1.806-.638q-.759.348-1.505.627c-4.053,1.509-7.061,1.459-9.193.884h0S1729.216,1028.223,1734.339,1020.49Z" transform="translate(-1703.937 -975.308)" fill="#7b573f" opacity="0.3"/>
        <path id="Trazado_876449" data-name="Trazado 876449" d="M1561.99,1077.815s5.022-1.53,5.465-5.045a.608.608,0,0,1,.638-.528c.693.036,1.931-.352,3.485-2.768a1.242,1.242,0,0,1,1.022-.573c1.744-.031,6.149.5,6.229,6.645a85.983,85.983,0,0,1-1.5,15.64S1562.927,1081.758,1561.99,1077.815Z" transform="translate(-1533.866 -1019.148)" fill="#e5bfa5"/>
        <path id="Trazado_876450" data-name="Trazado 876450" d="M1494.991,702.372c-6.231,7.033-11.646,6.024-11.646,6.024a23.777,23.777,0,0,0,4.348-4.939A7.516,7.516,0,0,0,1494.991,702.372Z" transform="translate(-1442.599 -687.216)" fill="#7b573f" opacity="0.3"/>
        <path id="Trazado_876451" data-name="Trazado 876451" d="M1299.929,631.924s.69-5.536,7.213-5.735C1307.142,626.189,1301.876,628.217,1299.929,631.924Z" transform="translate(-1237.438 -618.224)" fill="#d8aa8b"/>
        <path id="Trazado_876452" data-name="Trazado 876452" d="M1238.648,642.819s2.54-4.968,8.738-2.926C1247.386,639.893,1241.744,640,1238.648,642.819Z" transform="translate(-1171.899 -630.189)" fill="#d8aa8b"/>
        <path id="Trazado_876453" data-name="Trazado 876453" d="M1068.86,685.926s3.291-4.5,9.091-1.511C1077.951,684.414,1072.362,683.63,1068.86,685.926Z" transform="translate(-986.437 -670.024)" fill="#d8aa8b"/>
        <path id="Trazado_876454" data-name="Trazado 876454" d="M1072.423,566.7s2.594-4.939,8.77-2.83C1081.193,563.866,1075.55,563.911,1072.423,566.7Z" transform="translate(-990.016 -561.309)" fill="#d8aa8b"/>
        <path id="Trazado_876455" data-name="Trazado 876455" d="M824.843,632.2s3.91-3.98,9.214-.177C834.057,632.021,828.641,630.434,824.843,632.2Z" transform="translate(-719.511 -622.015)" fill="#d8aa8b"/>
        <path id="Trazado_876456" data-name="Trazado 876456" d="M787.344,662.943s5.034-2.4,8.72,2.981C796.064,665.925,791.516,662.584,787.344,662.943Z" transform="translate(-677.979 -651.024)" fill="#d8aa8b"/>
        <path id="Trazado_876457" data-name="Trazado 876457" d="M692.22,678.854s5.531-.729,7.369,5.533C699.589,684.387,696.3,679.8,692.22,678.854Z" transform="translate(-572.526 -665.894)" fill="#d8aa8b"/>
      </g>
      <path id="Trazado_876458" data-name="Trazado 876458" d="M1518.281,1434.877c-.194,0-.388.005-.582.005A4.882,4.882,0,0,1,1518.281,1434.877Z" transform="translate(-1469.132 -1324.581)" fill="#7b573f" opacity="0.3"/>
      <g id="Grupo_1189211" data-name="Grupo 1189211" transform="translate(12.385 51.092)">
        <path id="Trazado_876459" data-name="Trazado 876459" d="M1809.66,815.295c-.487-.024-1.18-5.447,1.287-7.055,2.225-1.451,5.7.365,7.226.694a.332.332,0,0,1,.236.457,13.35,13.35,0,0,0-.827,3.191C1817.372,814.123,1814.593,815.541,1809.66,815.295Z" transform="translate(-1809.184 -807.685)" fill="#7b573f"/>
        <path id="Trazado_876460" data-name="Trazado 876460" d="M1822.94,823.291c-.12,0-2.092-8.715,6.344-4.822a.471.471,0,0,1,.274.412C1829.593,819.946,1829.244,823.531,1822.94,823.291Z" transform="translate(-1821.58 -816.543)" fill="#42210b"/>
        <ellipse id="Elipse_11624" data-name="Elipse 11624" cx="1.101" cy="1.101" rx="1.101" ry="1.101" transform="translate(3.994 1.616)" fill="#efe8e4"/>
      </g>
      <path id="Trazado_876461" data-name="Trazado 876461" d="M1677.161,703.191l.127.13C1677.245,703.279,1677.2,703.237,1677.161,703.191Z" transform="translate(-1643.19 -661.961)" fill="#7b573f" opacity="0.3"/>
      <path id="Trazado_876462" data-name="Trazado 876462" d="M1676.746,704.614l-.043-.044C1676.718,704.584,1676.731,704.6,1676.746,704.614Z" transform="translate(-1642.605 -663.211)" fill="#7b573f" opacity="0.3"/>
      <g id="Grupo_1189212" data-name="Grupo 1189212" transform="translate(0.162 34.235)">
        <path id="Trazado_876463" data-name="Trazado 876463" d="M1971.728,1046.307c-1.574,2.607-4.1,6.465-6.72,8.009a9.564,9.564,0,0,0,1.922-1.757,29.533,29.533,0,0,0,2.971-4.279c.439-.75.863-1.517,1.251-2.286a.328.328,0,1,1,.576.313Z" transform="translate(-1965.008 -1006.481)" fill="#e8c7b1"/>
        <path id="Trazado_876464" data-name="Trazado 876464" d="M1880.692,642.333a61.909,61.909,0,0,1-2.093-8.2,20.641,20.641,0,0,1-.352-5.046,16.374,16.374,0,0,0,.3,3.343,46.9,46.9,0,0,0,1.738,6.481c.357,1.06.736,2.12,1.144,3.153a.394.394,0,1,1-.74.268Z" transform="translate(-1866.499 -629.088)" fill="#e8c7b1"/>
        <path id="Trazado_876465" data-name="Trazado 876465" d="M1869.419,652.7a53.079,53.079,0,0,1,.139-6.072,19.429,19.429,0,0,1,1.227-5.911,12.984,12.984,0,0,0-.644,2.933,37.982,37.982,0,0,0-.148,6c.045,1,.11,2.007.211,2.994a.393.393,0,1,1-.785.054Z" transform="translate(-1854.993 -639.621)" fill="#e8c7b1"/>
        <path id="Trazado_876466" data-name="Trazado 876466" d="M1935.036,1039.215c1.216,3.77-.041,8.746-1.6,12.271l-.381.873-.853,1.7.748-1.748c.114-.309.38-1.041.489-1.337s.336-1.049.431-1.354l.138-.452.113-.459a16.753,16.753,0,0,0,.217-8.739l-.071-.208-.039-.1-.019-.048a.461.461,0,1,1,.825-.4Z" transform="translate(-1925.66 -1000.236)" fill="#e8c7b1"/>
        <path id="Trazado_876467" data-name="Trazado 876467" d="M1823.265,1011.262c2.733,1.135,4.777,3.453,6.446,5.816.166.258.616.956.776,1.209.36.637.83,1.436,1.138,2.1l.423.854.753,1.749-.856-1.7-.708-1.235c-.143-.269-.587-.933-.759-1.2l-.257-.4-.278-.382a16.755,16.755,0,0,0-6.547-5.792l-.205-.08-.1-.034-.049-.016a.461.461,0,1,1,.221-.891Z" transform="translate(-1812.599 -975.168)" fill="#e8c7b1"/>
      </g>
      <g id="Grupo_1189213" data-name="Grupo 1189213" transform="translate(64.152 98.277)">
        <path id="Trazado_876468" data-name="Trazado 876468" d="M888.587,1319.852c-5.844-.224-6.831-2.855-13.719-1.789-6.126.949-21.981-.253-34.815-2.822a3.742,3.742,0,0,1,1.04-3.165c8.8-8.527,18.573-2.782,22.48.19a4.1,4.1,0,0,0,3.5.787c5.8-1.457,14.279,2.289,16.952,3.733C885.231,1317.436,890.448,1317.991,888.587,1319.852Z" transform="translate(-840.024 -1307.6)" fill="#7b573f" opacity="0.3"/>
        <path id="Trazado_876469" data-name="Trazado 876469" d="M819.4,1336.521c-9.77.077-33.477-1.573-45.078-2.431a3.158,3.158,0,0,1-2.418-1.562,4.409,4.409,0,0,1-.412-.835,4.081,4.081,0,0,1,.747-4.29c8.61-8.588,18.242-2.731,22.1.3a3.972,3.972,0,0,0,3.444.813c5.7-1.448,19.365-1.06,21.835-.062C822.959,1329.8,832.572,1336.417,819.4,1336.521Z" transform="translate(-770.682 -1321.476)" fill="#cc8e5e"/>
        <path id="Trazado_876470" data-name="Trazado 876470" d="M1308.881,1409.441a10.164,10.164,0,0,0-3.9,1.131,4.434,4.434,0,0,1-.412-.835A5.209,5.209,0,0,1,1308.881,1409.441Z" transform="translate(-1303.768 -1399.519)" fill="#7b573f" opacity="0.3"/>
      </g>
      <path id="Trazado_876471" data-name="Trazado 876471" d="M1939.177,1016.06a.446.446,0,1,1-.569-.275A.447.447,0,0,1,1939.177,1016.06Z" transform="translate(-1929.752 -945.029)" fill="#7b573f" opacity="0.3"/>
      <path id="Trazado_876472" data-name="Trazado 876472" d="M1883.374,1012.749a.446.446,0,1,1-.568-.274A.446.446,0,0,1,1883.374,1012.749Z" transform="translate(-1868.682 -942.031)" fill="#7b573f" opacity="0.3"/>
    </g>
  </g>
</svg>
