<svg id="Grupo_1188555" data-name="Grupo 1188555" xmlns="http://www.w3.org/2000/svg" width="82" height="82" viewBox="0 0 82 82">
  <rect id="Rectángulo_402627" data-name="Rectángulo 402627" width="82" height="82" fill="none"/>
  <g id="Grupo_1189818" data-name="Grupo 1189818" transform="translate(8 3)">
    <g id="Grupo_1189819" data-name="Grupo 1189819" transform="translate(38.156 69.015)">
      <g id="Grupo_1189818-2" data-name="Grupo 1189818">
        <path id="Trazado_878068" data-name="Trazado 878068" d="M296.131,464.936h-1.054a1.113,1.113,0,1,0,0,2.227h1.054a1.113,1.113,0,0,0,0-2.227Z" transform="translate(-293.964 -464.936)"/>
      </g>
    </g>
    <g id="Grupo_1189821" data-name="Grupo 1189821">
      <g id="Grupo_1189820" data-name="Grupo 1189820">
        <path id="Trazado_878069" data-name="Trazado 878069" d="M101.538,65.126a3.806,3.806,0,0,0-2.674-2.233,4.217,4.217,0,0,0-2.483.308,29.9,29.9,0,0,0-5.6-12.5,41.27,41.27,0,0,0-10.1-9.322,65.233,65.233,0,0,0-17.917-8.144,1.265,1.265,0,0,1-.884-.876A83.3,83.3,0,0,0,58.285,22.08a1.215,1.215,0,0,1,.137-1.167,24.9,24.9,0,0,0,3.766-10.207c.429-3.179.185-6.052-.652-7.685C60.546,1.089,59.287.728,58.411.767a3.575,3.575,0,0,0-2.176.98A4.076,4.076,0,0,0,53.091,0c-.992,0-2.028.723-3,2.092C48.23,4.731,45.871,11.17,48.239,19.15a11.086,11.086,0,0,0-5.609,2.16c-.076.064-7.459,6.573-5.332,10.591q.017.032.036.062a5.772,5.772,0,0,0,3.262,2.525,5.917,5.917,0,0,0,3.085,3.089A22.109,22.109,0,0,0,44.964,54,37.152,37.152,0,0,0,52.384,64.3,15.706,15.706,0,0,1,55.81,69.03a3.487,3.487,0,0,0-3.06,2.63l-.739,2.957A1.114,1.114,0,0,0,53.091,76h4.222a4.676,4.676,0,0,0,3.865-2.035,18.328,18.328,0,0,0,3.152-8.724,2.215,2.215,0,0,1,1.905-2.026,11.14,11.14,0,0,0,2.4,5.848,3.488,3.488,0,0,0-2.8,2.6L65.1,74.618A1.113,1.113,0,0,0,66.18,76H98.307a1.113,1.113,0,0,0,.977-.58,31.049,31.049,0,0,0,1.685-3.763C102.056,68.7,102.242,66.56,101.538,65.126ZM51.513,4c.8-1.365,1.447-1.742,1.591-1.774.695.009,1.3.725,1.647,1.268a19.988,19.988,0,0,0-1.794,3.5c-1.156,2.83-1.491,6.515-1,10.955a.808.808,0,0,1-.192.621.909.909,0,0,1-.65.312c-.212.01-.419.022-.624.035C48.509,12.612,49.768,6.981,51.513,4ZM67.606,73.774,68,72.2a1.264,1.264,0,0,1,1.229-.959h2.455a1.113,1.113,0,1,0,0-2.227h-.167C69.33,66.7,68.3,64.35,68.448,62.041a9.44,9.44,0,0,1,3.324-6.058,1.113,1.113,0,0,0-1.366-1.758,11.833,11.833,0,0,0-4.071,6.75,4.483,4.483,0,0,0-4.223,4.077,16.1,16.1,0,0,1-2.772,7.657,2.451,2.451,0,0,1-2.027,1.064h-2.8L54.91,72.2a1.264,1.264,0,0,1,1.228-.959h1.117a1.113,1.113,0,0,0,1.113-1.113c0-.3-.123-3.035-4.4-7.386a34.973,34.973,0,0,1-6.99-9.685,19.948,19.948,0,0,1-1.122-14.994c.151.009.3.014.454.014,3.891,0,8.187-2.712,9.038-4.245a1.113,1.113,0,1,0-1.946-1.081c-.448.807-4.282,3.3-7.464,3.088A3.712,3.712,0,0,1,43.5,34.83a11.935,11.935,0,0,0,3.173-.592,1.113,1.113,0,1,0-.753-2.1c-.048.017-4.786,1.679-6.671-1.313-.347-.717.155-2.175,1.351-3.913a22.569,22.569,0,0,1,3.466-3.908c1.31-1.109,3.716-1.749,7.151-1.9a3.143,3.143,0,0,0,2.242-1.09,3.013,3.013,0,0,0,.713-2.315c-.453-4.065-.169-7.384.844-9.866,1.541-3.772,2.918-4.82,3.489-4.845h.017c.446,0,.868.729,1.03,1.046,1.09,2.125,1.022,9.574-2.99,15.648A3.427,3.427,0,0,0,56.256,23a81.082,81.082,0,0,1,3.477,9.974,3.477,3.477,0,0,0,2.428,2.409,62.909,62.909,0,0,1,17.276,7.849C88.076,49.009,93.1,56.211,94.369,64.634c-2.467,2.528-4.455,7.3-5.164,9.14h-21.6Zm30.029,0H91.6c.271-.664.629-1.5,1.053-2.382a17.9,17.9,0,0,1,3.7-5.577,2.61,2.61,0,0,1,2.061-.741,1.673,1.673,0,0,1,1.121,1.033C100.23,67.515,98.918,71.239,97.634,73.774Z" transform="translate(-36.913)"/>
      </g>
    </g>
    <g id="Grupo_1189823" data-name="Grupo 1189823" transform="translate(7.926 23.798)">
      <g id="Grupo_1189822" data-name="Grupo 1189822">
        <path id="Trazado_878070" data-name="Trazado 878070" d="M93.2,160.322a2.9,2.9,0,1,0,2.9,2.9A2.9,2.9,0,0,0,93.2,160.322Zm0,3.57a.672.672,0,1,1,.671-.672A.672.672,0,0,1,93.2,163.892Z" transform="translate(-90.305 -160.322)"/>
      </g>
    </g>
  </g>
</svg>
