<svg xmlns="http://www.w3.org/2000/svg" width="505" height="139" viewBox="0 0 505 139">
  <g id="Grupo_1188843" data-name="Grupo 1188843" transform="translate(-915.051 -859)">
    <g id="Rectángulo_402643" data-name="Rectángulo 402643" transform="translate(915.051 859)" fill="#e8f9f3" stroke="#1caa79" stroke-width="1">
      <rect width="505" height="139" rx="10" stroke="none"/>
      <rect x="0.5" y="0.5" width="504" height="138" rx="9.5" fill="none"/>
    </g>
    <g id="XMLID_2077_" transform="translate(930.758 858.219)">
      <g id="XMLID_1829_" transform="translate(1.926 27.707)">
        <g id="XMLID_1757_" transform="translate(71.702 73.773)">
          <path id="XMLID_850_" d="M382.315,421.929v-3.081H385.4a7.9,7.9,0,0,1,7.9,7.9v3.081h-3.081A7.9,7.9,0,0,1,382.315,421.929Z" transform="translate(-382.315 -418.848)" fill="#89df8f"/>
        </g>
        <g id="XMLID_1832_" transform="translate(6.338 0)">
          <g id="XMLID_1703_">
            <path id="XMLID_849_" d="M100.574,39.958,43.7,96.835a2.677,2.677,0,0,0,1.893,4.57H88.455a36.451,36.451,0,0,0,36.451-36.451V50.036a14.253,14.253,0,0,0-24.332-10.078Z" transform="translate(-42.91 -35.783)" fill="#ffcd69"/>
          </g>
        </g>
        <g id="XMLID_1389_" transform="translate(0 34.027)">
          <path id="XMLID_843_" d="M10,259.746a12.18,12.18,0,0,0,17.172-.053l38.663-38.663-8.56-8.56Z" transform="translate(-10 -212.471)" fill="#ff7d97"/>
        </g>
        <g id="XMLID_1332_" transform="translate(2.569 18.334)">
          <path id="Trazado_875144" data-name="Trazado 875144" d="M23.34,178.259a39.312,39.312,0,0,0,47.232-6.381,28.938,28.938,0,0,0,.043-40.894Z" transform="translate(-23.34 -130.984)" fill="#80b6ff"/>
        </g>
        <g id="XMLID_1752_" transform="translate(8.003 22.199)">
          <path id="XMLID_116_" d="M51.557,188.963A39.228,39.228,0,0,0,81.61,177.536l.085-.085a28.861,28.861,0,0,0,7.839-26.4Z" transform="translate(-51.557 -151.05)" fill="#a0c8ff"/>
        </g>
      </g>
      <g id="XMLID_126_" transform="translate(0 25.781)">
        <path id="XMLID_270_" d="M398.549,108.623a1.924,1.924,0,1,0,1.362-.564A1.931,1.931,0,0,0,398.549,108.623Z" transform="translate(-321.339 -92.213)"/>
        <path id="XMLID_822_" d="M96.66,91.4H70.58a38.375,38.375,0,0,0,9.259-6.324,1.926,1.926,0,1,0-2.613-2.83A34.418,34.418,0,0,1,53.809,91.4H49.6A41.165,41.165,0,0,0,53.089,88.3,30.867,30.867,0,0,0,54.45,46.085L67.29,33.244A12.328,12.328,0,0,1,88.335,41.96V56.879a34.421,34.421,0,0,1-2.07,11.8A1.926,1.926,0,1,0,89.884,70a38.26,38.26,0,0,0,2.3-13.121V48.726H96.66a1.926,1.926,0,0,0,1.362-3.288l-6.04-6.04A16.179,16.179,0,0,0,64.566,30.52L3.133,91.955a1.926,1.926,0,0,0,.408,3.035,40.885,40.885,0,0,0,6.647,3.035L.564,107.648a1.926,1.926,0,0,0,.008,2.732,14.139,14.139,0,0,0,19.887-.061L31.035,99.743a41.383,41.383,0,0,0,12.78-4.487H64.68l7.022,7.022v2.283a9.833,9.833,0,0,0,9.822,9.822h3.081a1.926,1.926,0,0,0,1.926-1.926v-3.081a9.833,9.833,0,0,0-9.822-9.822H74.426l-4.3-4.3H96.66a1.926,1.926,0,0,0,0-3.852Zm-58-16.417a37.456,37.456,0,0,1-24.005,10.89L46.535,54A26.955,26.955,0,0,1,38.663,74.987Zm-27.911,14.8c.487.017.974.029,1.459.029a41.3,41.3,0,0,0,29.175-12.1,30.791,30.791,0,0,0,8.6-27.166l1.732-1.732a27.021,27.021,0,0,1-1.357,36.761A37.46,37.46,0,0,1,7.7,92.83ZM17.736,107.6a10.286,10.286,0,0,1-12.947,1.275L14.4,99.262a41.193,41.193,0,0,0,9.474,1.106c.37,0,.739-.006,1.108-.016Zm64.944,1.781v1.156H81.524a5.977,5.977,0,0,1-5.97-5.97v-1.156h1.156A5.977,5.977,0,0,1,82.68,109.376Z" transform="translate(0 -25.781)"/>
        <path id="XMLID_844_" d="M427.558,282.684a1.925,1.925,0,1,0,1.362-.564A1.94,1.94,0,0,0,427.558,282.684Z" transform="translate(-344.761 -232.753)"/>
      </g>
    </g>
    <g id="Grupo_1188833" data-name="Grupo 1188833" transform="translate(1292.667 888)">
      <g id="Grupo_1188831" data-name="Grupo 1188831" transform="translate(2.139 2.127)">
        <path id="Trazado_875357" data-name="Trazado 875357" d="M251.417,82.346a13.224,13.224,0,0,0-4.633,7.4,52.71,52.71,0,0,0-11.732-2.535c-.213-.021-.425-.038-.638-.056A13.28,13.28,0,0,1,250.139,77.08l.067.014a2.994,2.994,0,0,1,1.212,5.252Z" transform="translate(-195.631 -76.785)" fill="#6d92ac"/>
        <path id="Trazado_875358" data-name="Trazado 875358" d="M34.991,331.033a16.51,16.51,0,0,1-14.548,4.055,16.508,16.508,0,0,1-6.729,13.376,16.49,16.49,0,0,1,.356-21.273,16.49,16.49,0,0,1,20.921,3.842Z" transform="translate(69.636 -272.229)" fill="#6d92ac"/>
        <path id="Trazado_875359" data-name="Trazado 875359" d="M190.138,169.79a44.743,44.743,0,0,0-31.22-1.853,46.149,46.149,0,0,1-34.73-3.911,43.175,43.175,0,0,1-15.518-14.251,11.7,11.7,0,0,1,3-15.912,50.66,50.66,0,0,1,34.518-9c24.714,2.462,43.589,21.606,44.627,44.332" transform="translate(-106.772 -114.434)" fill="#6d92ac"/>
      </g>
      <path id="Trazado_875360" data-name="Trazado 875360" d="M154.776,238.34c18.01-2,34.653.137,46.035,12.517v0a44.719,44.719,0,0,0-29.07-.972,46.149,46.149,0,0,1-34.73-3.911,43.173,43.173,0,0,1-15.518-14.251,11.68,11.68,0,0,1-1.409-3.038C130.388,234.283,143.791,238.945,154.776,238.34Z" transform="translate(-117.455 -194.257)" fill="#fff"/>
      <ellipse id="Elipse_11572" data-name="Elipse 11572" cx="4.558" cy="6.544" rx="4.558" ry="6.544" transform="matrix(-0.047, -0.999, 0.999, -0.047, 30.552, 35.659)" fill="#fff"/>
      <path id="XMLID_77_" d="M306.882,292.757l-1.473-8.835a11.466,11.466,0,0,0-13.2-9.424l-3.419.57.9,5.416A14.933,14.933,0,0,0,306.882,292.757Z" transform="translate(-259.404 -230.201)" fill="#6d92ac"/>
      <g id="Grupo_1188832" data-name="Grupo 1188832" transform="translate(0 0)">
        <path id="Trazado_875361" data-name="Trazado 875361" d="M306.149,193.454A10.145,10.145,0,0,1,300.774,192a6.121,6.121,0,0,1-3.056-4.831c-.174-3.744,3.494-6.854,8.35-7.08s8.8,2.53,8.972,6.273-3.494,6.854-8.35,7.08Q306.418,193.454,306.149,193.454Zm4.642-6.894c-.051-1.094-1.825-2.231-4.181-2.231-.113,0-.228,0-.344.008-2.525.118-4.353,1.487-4.3,2.633.033.7.761,1.233,1.073,1.429a6.1,6.1,0,0,0,3.452.793C309.017,189.075,310.844,187.705,310.791,186.559Z" transform="translate(-269.464 -155.983)"/>
        <path id="Trazado_875362" data-name="Trazado 875362" d="M409.923,199.462a2.126,2.126,0,1,1,1.963,2.941A2.131,2.131,0,0,1,409.923,199.462Z" transform="translate(-392.263 -170.222)"/>
        <path id="Trazado_875363" data-name="Trazado 875363" d="M152.129,199.958a2.115,2.115,0,0,1-.814.162,2.126,2.126,0,1,1,.814-.162Z" transform="translate(-76.262 -168.413)"/>
        <path id="Trazado_875364" data-name="Trazado 875364" d="M5.807,86.609A52.662,52.662,0,0,1,39.36,77.038,15.406,15.406,0,0,1,57.1,67.128l.064.014a5.12,5.12,0,0,1,2.088,8.988,11.03,11.03,0,0,0-3.327,4.435,52.83,52.83,0,0,1,13.462,7.557,2.127,2.127,0,1,1-2.6,3.363A49.449,49.449,0,0,0,41.35,81.456,48.55,48.55,0,0,0,8.278,90.07a9.55,9.55,0,0,0-3.823,9.708c11.513,6.1,23.684,9.448,32.693,8.969,10.162-1.126,18.719-.827,26.162.914a41.783,41.783,0,0,1,20.5,11.127,41.619,41.619,0,0,0-5.107-15.56,2.127,2.127,0,1,1,3.709-2.081,45.809,45.809,0,0,1,5.653,17.4,18.549,18.549,0,0,1,20.34,5.817,2.126,2.126,0,0,1-.2,2.911A18.662,18.662,0,0,1,94.2,134.189a18.691,18.691,0,0,1-7.449,12.67,2.127,2.127,0,0,1-2.908-.368,18.548,18.548,0,0,1-1.6-21.253,42.576,42.576,0,0,0-27.327-.791l-.045.013a48.107,48.107,0,0,1-5.833,1.268l.544,3.262a2.127,2.127,0,0,1-1.748,2.447,17.024,17.024,0,0,1-16.138-6.2,48,48,0,0,1-13.157-4.874A45.566,45.566,0,0,1,2.256,105.413a13.8,13.8,0,0,1,3.551-18.8ZM56.6,72.812a.849.849,0,0,0,.3-.88.812.812,0,0,0-.643-.637l-.045-.01a11.158,11.158,0,0,0-12.428,6.176A54.9,54.9,0,0,1,51.894,79.2a15.239,15.239,0,0,1,4.7-6.387Zm29.289,69.2a14.39,14.39,0,0,0,4.207-10.226,2.127,2.127,0,0,1,2.559-2.1,14.373,14.373,0,0,0,10.978-2.188,14.3,14.3,0,0,0-16.415-1.955A14.3,14.3,0,0,0,85.884,142.009Zm-32.2-21.634A46.768,46.768,0,0,1,74.741,118.9a39.466,39.466,0,0,0-12.4-5.1,65.748,65.748,0,0,0-18.37-1.347,13.488,13.488,0,0,1,4.133,7.7l.23,1.378a43.872,43.872,0,0,0,5.35-1.158ZM45,127.418l-1.094-6.564a9.344,9.344,0,0,0-9.193-7.806,9.46,9.46,0,0,0-1.556.129l-1.322.22.553,3.318A12.826,12.826,0,0,0,45,127.418Zm-24.425-10.78a43.767,43.767,0,0,0,8.308,3.495,17.083,17.083,0,0,1-.689-2.717l-.85-5.1a80.518,80.518,0,0,1-19.168-5.99,41.78,41.78,0,0,0,12.4,10.312Z" transform="translate(-0.001 -66.784)"/>
      </g>
    </g>
    <g id="Grupo_1188838" data-name="Grupo 1188838" transform="translate(1049.031 879)">
      <g id="Grupo_1188836" data-name="Grupo 1188836" transform="translate(1.461 1.448)">
        <path id="Trazado_875365" data-name="Trazado 875365" d="M311.388,31.758A15.878,15.878,0,0,1,307,33.92c-1.914.6-3.8,1.263-5.658,2.008a62.945,62.945,0,0,0-9.648,4.837c-6.306,3.9-11.245,7.355-11.245,7.355l-4.981-7.111a83.273,83.273,0,0,0,6.152-5.756,31.9,31.9,0,0,0,5.441-7.593,35.043,35.043,0,0,0,3.025-8.291,15.2,15.2,0,0,1,6.361-8.948c6.642-4.649,15.886-3.377,20.441,1.607l.565,2.46,1.33.477C321.118,20.642,317.286,27.628,311.388,31.758Z" transform="translate(-223.973 -7.533)" fill="#7dce5c"/>
        <path id="Trazado_875366" data-name="Trazado 875366" d="M301.343,120.531a62.946,62.946,0,0,0-9.648,4.837c-6.306,3.9-11.245,7.355-11.245,7.355l-4.981-7.111a83.273,83.273,0,0,0,6.152-5.756,31.9,31.9,0,0,0,5.441-7.593c4.762.327,11.283,2,14.281,8.268Z" transform="translate(-223.973 -92.136)" fill="#59c230"/>
        <path id="Trazado_875367" data-name="Trazado 875367" d="M29.123,308.794a17.377,17.377,0,0,1-18.338,6.994l-1.044-.246a2.882,2.882,0,0,1-1.263-4.951,48.556,48.556,0,0,0,7.138-7.743c4.158-5.922,6.777-14.69,6.777-14.69l11.844,8.315A32.224,32.224,0,0,1,29.123,308.794Z" transform="translate(-7.517 -234.226)" fill="#48a024"/>
        <path id="Trazado_875368" data-name="Trazado 875368" d="M212.334,193.933c0,.02,3.992,20.205-14.917,30.414a2.883,2.883,0,0,1-4.252-2.529,131.825,131.825,0,0,0-1.713-21.292,137.7,137.7,0,0,0-7.342-25.158l18.531-3.243A51.443,51.443,0,0,1,212.334,193.933Z" transform="translate(-150.172 -140.493)" fill="#59c230"/>
        <path id="Trazado_875369" data-name="Trazado 875369" d="M112.342,217.153c-.1.069-.2.14-.3.209-15.073,10.526-30.244,12.3-36.4,6.008l-3.313-4.747,15.917-11.116L126.9,180.513l3.315,4.745C133.976,193.155,127.2,206.66,112.342,217.153Z" transform="translate(-59.873 -147.269)" fill="#c76d33"/>
        <path id="Trazado_875370" data-name="Trazado 875370" d="M112.342,330.619c-.1.069-.2.14-.3.209-15.073,10.526-30.244,12.3-36.4,6.008l-3.313-4.747,15.917-11.116C92.7,326.5,100.115,330.655,112.342,330.619Z" transform="translate(-59.873 -260.735)" fill="#a05423"/>
        <path id="Trazado_875371" data-name="Trazado 875371" d="M271.856,218.285a2.884,2.884,0,0,1-4.251-2.531c-.006-1.528-.036-3.352-.115-5.377L270.368,205l-3.657-4.847c-.311-2.691-.716-5.239-1.076-7.072l1.349-2.881c-2.234-1.177-2.189-1.145-2.208-1.165a141.566,141.566,0,0,0-6.227-19.728l18.53-3.242a51.437,51.437,0,0,1,9.694,21.807c0,.019,3.992,20.206-14.917,30.415Z" transform="translate(-210.305 -135.596)" fill="#7dce5c"/>
        <path id="Trazado_875372" data-name="Trazado 875372" d="M311.094,344.356a4.177,4.177,0,0,1-.968,3.226,10.749,10.749,0,0,1-6.931,3.722c-.466.058-.934.1-1.4.122-.122-3.061-.351-6.578-.777-10.226a35.61,35.61,0,0,0,5.393-.5A4.2,4.2,0,0,1,311.094,344.356Z" transform="translate(-244.614 -276.646)" fill="#f1e12b"/>
        <path id="Trazado_875373" data-name="Trazado 875373" d="M295.345,254.132a4.176,4.176,0,0,1-.967,3.228,10.759,10.759,0,0,1-6.931,3.722,23.494,23.494,0,0,1-2.807.162c-.7-3.694-1.625-7.311-2.565-10.564,3.375.588,5.333.2,8.592-.2A4.2,4.2,0,0,1,295.345,254.132Z" transform="translate(-229.309 -203.763)" fill="#f1e12b"/>
        <path id="Trazado_875374" data-name="Trazado 875374" d="M68.721,365.042a17.38,17.38,0,0,1-14.84,12.846l-1.065.125a2.882,2.882,0,0,1-2.881-4.22c.461-.861.94-1.8,1.409-2.79l3.725-4.174-.709-4.266a63.636,63.636,0,0,0,.98-14.608l13.974,3.763a32.23,32.23,0,0,1-.592,13.326Z" transform="translate(-41.504 -282.53)" fill="#59c230"/>
        <path id="Trazado_875375" data-name="Trazado 875375" d="M68,428.9c-.824,1.613-4.558,3.933-8.8,3.556-.162-.014-.323-.03-.485-.05a38.456,38.456,0,0,0,3.015-8.441l3.709.319A3.185,3.185,0,0,1,68,428.9Z" transform="translate(-48.88 -343.931)" fill="#f3c23b"/>
        <path id="Trazado_875376" data-name="Trazado 875376" d="M109.369,143.492c-5.89,13.376-19.118,25.837-33.759,33.4l-6.11.271-1.9,3.313v0a57.6,57.6,0,0,1-16.635,3.8,2.878,2.878,0,0,1-3-2.252,31.667,31.667,0,0,1-.657-4.649l3.267-4.284-1.833-7.351a35.741,35.741,0,0,1,4.61-9.365l8.224-5.741,20.8-14.516a35.823,35.823,0,0,1,10.357-1.1l4.4,3.725,7.02-1.059a31.218,31.218,0,0,1,4.14,2.218A2.877,2.877,0,0,1,109.369,143.492Z" transform="translate(-39.662 -110.49)" fill="#df8a57"/>
        <path id="Trazado_875377" data-name="Trazado 875377" d="M75.61,242.671c-8.116,4.2-16.668,6.882-24.644,7.384a2.878,2.878,0,0,1-3-2.252,31.667,31.667,0,0,1-.657-4.649l3.267-4.284-1.833-7.351a35.741,35.741,0,0,1,4.61-9.365l8.224-5.741C61.765,224.229,64.025,236.661,75.61,242.671Z" transform="translate(-39.662 -176.27)" fill="#c76d33"/>
        <path id="Trazado_875378" data-name="Trazado 875378" d="M107.781,140.883l-2.842,6.8a11.529,11.529,0,0,1-4.007,4.935l-8.814,6.154A11.557,11.557,0,0,1,86.1,160.83l-7.345.309,5.27-3.288,2.992-5.775a53.131,53.131,0,0,1,20.76-11.193Z" transform="translate(-65.068 -115.255)" fill="#c76d33"/>
        <path id="Trazado_875379" data-name="Trazado 875379" d="M87.421,207.733a11.583,11.583,0,0,1-1.316.144l-7.345.309a47.413,47.413,0,0,1,8.262-9.063A45.656,45.656,0,0,0,87.421,207.733Z" transform="translate(-65.068 -162.303)" fill="#a05423"/>
        <path id="Trazado_875380" data-name="Trazado 875380" d="M181.762,233.116a2.883,2.883,0,0,1,.424,4.4A36.545,36.545,0,0,1,171,245.32a2.883,2.883,0,0,1-3.981-1.911l-1.508-5.885a2.893,2.893,0,0,1,1.792-3.417,15.8,15.8,0,0,0,5.624-3.927,2.892,2.892,0,0,1,3.824-.506Z" transform="translate(-135.078 -186.575)" fill="#c76d33"/>
        <path id="Trazado_875381" data-name="Trazado 875381" d="M55.825,292.167l2.614,5.486a2.883,2.883,0,0,1-1.83,4.018,36.687,36.687,0,0,1-9.578,1.359,31.443,31.443,0,0,1,1.433-11.636,14.853,14.853,0,0,0,3.8-.7,2.892,2.892,0,0,1,3.564,1.473Z" transform="translate(-39.382 -236.145)" fill="#a05423"/>
        <path id="Trazado_875382" data-name="Trazado 875382" d="M284.04,137.822a36.626,36.626,0,0,1-4.573,8.524,2.883,2.883,0,0,1-4.4.335l-4.25-4.343a2.892,2.892,0,0,1-.155-3.853,14.82,14.82,0,0,0,1.964-3.327A31.517,31.517,0,0,1,284.04,137.822Z" transform="translate(-219.555 -110.63)" fill="#c76d33"/>
        <g id="Grupo_1188835" data-name="Grupo 1188835" transform="translate(74.671 11.508)">
          <g id="Grupo_1188834" data-name="Grupo 1188834">
            <path id="Trazado_875383" data-name="Trazado 875383" d="M405.943,69.087c1.407,2.029.483,5.106-2.065,6.873s-5.754,1.555-7.161-.474-.483-5.106,2.065-6.873S404.536,67.058,405.943,69.087Z" transform="translate(-396.059 -67.415)" fill="#fff"/>
          </g>
        </g>
      </g>
      <g id="Grupo_1188837" data-name="Grupo 1188837" transform="translate(0.02 0)">
        <path id="Trazado_875384" data-name="Trazado 875384" d="M96.454,6.233C91.9-.266,80.934-2.323,73.109,3.156a16.757,16.757,0,0,0-6.939,9.806A32.919,32.919,0,0,1,60.51,25.313c-8.886-2-17.936-.156-25.976,3.843a1.463,1.463,0,0,0-.789,1.654,1.443,1.443,0,0,0,2.043.942A45.3,45.3,0,0,1,41.713,29.3l-1.708,4.01A10.071,10.071,0,0,1,36.5,37.625l-8.813,6.154a10.075,10.075,0,0,1-5.262,1.8l-4.355.222a51.56,51.56,0,0,1,12-10.736,1.482,1.482,0,0,0,.552-1.872,1.442,1.442,0,0,0-2.088-.568C11.915,43.589,6.409,57.657,7.816,70.014A49.549,49.549,0,0,1,1.46,76.738a4.324,4.324,0,0,0,1.891,7.427,20.975,20.975,0,0,0,5.434.76,18.946,18.946,0,0,0,3.142-.265,53.147,53.147,0,0,1-3.306,7.371,4.325,4.325,0,0,0,3.808,6.362,13.626,13.626,0,0,0,1.577-.155,18.857,18.857,0,0,0,16.063-13.9c.167-.619.308-1.233.43-1.839a42.86,42.86,0,0,0,12.454-3.35c.034,1.211.055,2.426.06,3.631A4.324,4.324,0,0,0,49.39,86.57a31.852,31.852,0,0,0,7.92-5.961l.009,1a4.325,4.325,0,0,0,6.377,3.8A29.417,29.417,0,0,0,79.642,60.6a1.475,1.475,0,0,0-1.026-1.536,1.443,1.443,0,0,0-1.847,1.289A26.5,26.5,0,0,1,62.328,82.868,1.442,1.442,0,0,1,60.2,81.6q-.008-2.062-.068-4.054a12.126,12.126,0,0,0,7.931-4.223,5.638,5.638,0,0,0-4.983-9.25c-2.053.255-3.051.4-3.953.46q-.28-2.146-.636-4.218c.439-.029.867-.067,1.278-.117a12.163,12.163,0,0,0,7.852-4.215,5.642,5.642,0,0,0-2.471-8.988,62.751,62.751,0,0,0,5.663-8.58A49.135,49.135,0,0,1,76.5,53.935a1.442,1.442,0,1,0,2.846-.461,52.608,52.608,0,0,0-7-18.135,5.331,5.331,0,0,0,.387-1.044,67.929,67.929,0,0,1,12.179-5.083c8.958-2.785,17.419-14.576,11.538-22.978ZM53.686,30.209a15.186,15.186,0,0,0,1.741-2.754,29.724,29.724,0,0,1,8.659,1.961,35.421,35.421,0,0,1-3.882,6.9,1.439,1.439,0,0,1-2.2.168l-4.25-4.344a1.454,1.454,0,0,1-.065-1.937ZM11.617,58.047a15.2,15.2,0,0,0,3.19-.687,1.454,1.454,0,0,1,1.795.729l2.614,5.486a1.44,1.44,0,0,1-.916,2.01,35.546,35.546,0,0,1-7.823,1.264,29.713,29.713,0,0,1,1.14-8.8ZM5.061,81.608,4.015,81.36a1.439,1.439,0,0,1-.631-2.475A58.2,58.2,0,0,0,8.49,73.753a4.35,4.35,0,0,0,4.366,2.919c.229-.014.479-.032.746-.055a41.356,41.356,0,0,1-.774,4.907,16.12,16.12,0,0,1-7.767.085Zm10.37,1.413,2.469.213a1.743,1.743,0,0,1,1.4,2.525c-.429.839-2.769,2.515-5.793,2.776a37.335,37.335,0,0,0,1.923-5.513ZM13.67,95.374,12.6,95.5a1.44,1.44,0,0,1-1.442-2.108c.315-.588.655-1.245,1-1.951,4.518.207,8.622-2.255,9.7-4.37a4.628,4.628,0,0,0-3.72-6.708L16.03,80.18q.312-1.828.5-3.9a63.945,63.945,0,0,0,11.63-2.889,30.9,30.9,0,0,1-.876,10.2A15.988,15.988,0,0,1,13.67,95.374ZM30.963,72.355a79.388,79.388,0,0,0,12.715-6.393,1.441,1.441,0,1,0-1.516-2.452c-13.7,8.468-25.186,10.013-29.489,10.285a1.447,1.447,0,0,1-1.5-1.12q-.321-1.477-.494-2.95a38.423,38.423,0,0,0,8.394-1.363,4.325,4.325,0,0,0,2.744-6.027L19.2,56.849a4.335,4.335,0,0,0-5.333-2.216,10.524,10.524,0,0,1-1.2.327A34.922,34.922,0,0,1,15.9,48.8l6.674-.341a12.953,12.953,0,0,0,6.766-2.32l8.813-6.154a12.953,12.953,0,0,0,4.508-5.553l2.616-6.143a35,35,0,0,1,6.89-.908,10.5,10.5,0,0,1-.716,1.008,4.335,4.335,0,0,0,.243,5.771l4.25,4.343a4.324,4.324,0,0,0,6.6-.5,38.31,38.31,0,0,0,4.172-7.41q1.323.671,2.6,1.48a1.444,1.444,0,0,1,.534,1.793c-1.9,4.32-7.874,15.5-22.2,25.948a1.441,1.441,0,1,0,1.7,2.329c2.062-1.5,3.957-3.025,5.7-4.541.652,3.171,1.163,6.464,1.532,9.912C48.367,74.182,38.948,78.591,30.949,79.55a35.472,35.472,0,0,0,.015-7.195ZM48.022,84.032A1.441,1.441,0,0,1,45.9,82.767c-.006-1.633-.041-3.283-.1-4.918a66.179,66.179,0,0,0,11.1-6.911q.2,2.612.309,5.346a27.877,27.877,0,0,1-9.187,7.749Zm15.416-17.1a2.755,2.755,0,0,1,2.442,4.51,9.313,9.313,0,0,1-5.858,3.208q-.183-3.736-.552-7.253C60.441,67.328,61.492,67.176,63.438,66.934Zm2-12.83a9.321,9.321,0,0,1-6.014,3.232c-.463.057-.953.1-1.46.121q-.212-1.054-.445-2.09a76.389,76.389,0,0,0,5.51-5.774A2.755,2.755,0,0,1,65.438,54.1ZM84.06,26.458a71.679,71.679,0,0,0-11.715,4.774,4.294,4.294,0,0,0-1.484-1.591,32.779,32.779,0,0,0-7.385-3.513,36.025,36.025,0,0,0,5.5-12.522,13.7,13.7,0,0,1,5.783-8.09c6.222-4.356,15.076-3,18.978,1.9a2.744,2.744,0,0,1-3.3,1.881,1.441,1.441,0,0,0-.694,2.8,5.631,5.631,0,0,0,5.516-1.666c1.611,6.345-4.949,14.087-11.2,16.031Z" transform="translate(-0.02 0)"/>
        <path id="Trazado_875385" data-name="Trazado 875385" d="M176.52,225.876l-5.006-3.442a4.336,4.336,0,0,0-5.728.748,14.342,14.342,0,0,1-5.051,3.527,4.337,4.337,0,0,0-2.675,5.121l1.508,5.885a4.325,4.325,0,0,0,5.97,2.867,38.208,38.208,0,0,0,11.618-8.113A4.325,4.325,0,0,0,176.52,225.876ZM175.1,230.45a35.336,35.336,0,0,1-10.745,7.5,1.44,1.44,0,0,1-1.992-.955l-1.508-5.885a1.456,1.456,0,0,1,.91-1.712,17.327,17.327,0,0,0,6.2-4.327,1.455,1.455,0,0,1,1.92-.265c5.046,3.47,5.006,3.462,5.006,3.442A1.44,1.44,0,0,1,175.1,230.45Z" transform="translate(-127.579 -179.074)"/>
        <path id="Trazado_875386" data-name="Trazado 875386" d="M403.4,41.6a4.111,4.111,0,0,0-1.035,5.725,1.441,1.441,0,0,0,2.369-1.643,1.231,1.231,0,1,1,2.023-1.4,1.441,1.441,0,0,0,2.369-1.643A4.119,4.119,0,0,0,403.4,41.6Z" transform="translate(-324.451 -33.011)"/>
      </g>
    </g>
    <g id="Grupo_1188842" data-name="Grupo 1188842" transform="translate(1167.578 884)">
      <path id="Trazado_875387" data-name="Trazado 875387" d="M258.836,294.8l.611,3.207a.776.776,0,0,0,.743.656h7.2a.886.886,0,0,0,.834-1l-.4-5.06-2.528-31.847-9.507-4.565,6.6,35.11a.852.852,0,0,1,0,.3.824.824,0,0,1-.373.582l-2.807,1.73A.857.857,0,0,0,258.836,294.8Z" transform="translate(-215.706 -211.82)" fill="#91aac4"/>
      <path id="Trazado_875388" data-name="Trazado 875388" d="M255.8,432.155l.611,3.207a.776.776,0,0,0,.743.657h7.2a.886.886,0,0,0,.834-1l-.4-5.06-5.432-1a.823.823,0,0,1-.373.582l-2.807,1.729A.857.857,0,0,0,255.8,432.155Z" transform="translate(-212.668 -349.172)" fill="#476775"/>
      <path id="Trazado_875389" data-name="Trazado 875389" d="M106,299.028V310.2a.815.815,0,0,1-.18.514.794.794,0,0,1-.21.188l-3.349,2.07a.83.83,0,0,0-.378.555l-.658,3.618a.825.825,0,0,0,.811.974h8.119a.825.825,0,0,0,.825-.826V294.585l-2.56-13.925-16.4,3.1,9,14.86Z" transform="translate(-24.899 -231.272)" fill="#91aac4"/>
      <g id="Grupo_1188839" data-name="Grupo 1188839" transform="translate(76.316 33.079)">
        <path id="Trazado_875390" data-name="Trazado 875390" d="M92.846,434.689h8.119a.825.825,0,0,0,.825-.826v-5.688l-5.16-.892a.794.794,0,0,1-.211.188l-3.349,2.07a.83.83,0,0,0-.378.555l-.658,3.618A.826.826,0,0,0,92.846,434.689Z" transform="translate(-92.021 -380.922)" fill="#476775"/>
        <path id="Trazado_875391" data-name="Trazado 875391" d="M8.673,201.1c2.852-.094,10.7.532,14.765,9.633a.87.87,0,0,1-.689,1.221c-2.262.268-7.392.495-10.373-2.377a17.635,17.635,0,0,1-4.5-7.355A.866.866,0,0,1,8.673,201.1Z" transform="translate(3.508 -201.092)" fill="#476775"/>
      </g>
      <path id="Trazado_875392" data-name="Trazado 875392" d="M24.785,56.356v1.917c0,.118,0,.233.009.347.2,3.932,3.872,5.667,7.871,4.969l8.359-1.461s-.707,18.931,2.157,31.046a18.093,18.093,0,0,0,3.78,7.378c7.078,8.5,8.475,24.82,8.475,24.82a.851.851,0,0,1-.088.285.817.817,0,0,1-.231.274L50.835,129.2a.82.82,0,0,0-.3.848l.7,2.936a.821.821,0,0,0,.8.634h7.693a.911.911,0,0,0,.887-.7l1.154-5.6L62.1,104.9a.911.911,0,0,1,.857-.7l36.163-1.45a.9.9,0,0,1,.653.246l12.049,11.19a.909.909,0,0,0,.623.244h3.975a.914.914,0,0,1,.915.915v11.19a.91.91,0,0,1-.1.42.885.885,0,0,1-.261.311l-2.114,1.587a.916.916,0,0,0-.338.508l-.779,3.12a.911.911,0,0,0,.884,1.133h7.5a.912.912,0,0,0,.912-.912V109.3a.913.913,0,0,0-.523-.827l-2.6-2.932a.918.918,0,0,1-.525-.826V92.279a14.763,14.763,0,0,0-12.9-14.649l-31.374.285A14.752,14.752,0,0,1,61.046,68L56.015,53.529a7.361,7.361,0,0,0-6.95-4.941H43.493a24.443,24.443,0,0,0-5.352.728,71.979,71.979,0,0,0-11.7,4.067C25.528,53.383,24.785,55.439,24.785,56.356Z" transform="translate(-23.178 -46.767)" fill="#e1e9f2"/>
      <g id="Grupo_1188840" data-name="Grupo 1188840" transform="translate(3.703 1.871)">
        <path id="Trazado_875393" data-name="Trazado 875393" d="M38.759,222.723a.957.957,0,0,0-.524-.863l-2.6-3.058a.956.956,0,0,1-.524-.861V204.972a15.346,15.346,0,0,0-10.325-14.688l1.42-.013a14.767,14.767,0,0,1,12.9,14.651v12.436a.914.914,0,0,0,.524.825l2.6,2.933a.914.914,0,0,1,.524.828v23.4a.912.912,0,0,1-.912.912H38.759Z" transform="translate(53.406 -161.28)" fill="#b3d2f2"/>
        <path id="Trazado_875394" data-name="Trazado 875394" d="M286.182,67.21l-5.032-15.1a7.677,7.677,0,0,0-2.141-3.283,7.353,7.353,0,0,1,6.139,4.892L290.18,68.2a14.756,14.756,0,0,0,9.888,9.343A14.81,14.81,0,0,1,286.182,67.21Z" transform="translate(-256.013 -48.831)" fill="#b3d2f2"/>
        <path id="Trazado_875395" data-name="Trazado 875395" d="M446.227,110.118l8.359-1.521s-.025.71-.047,1.947l-4.314.753a7.726,7.726,0,0,1-5.784-1.023A9.492,9.492,0,0,0,446.227,110.118Z" transform="translate(-444.441 -96.347)" fill="#b3d2f2"/>
        <path id="Trazado_875396" data-name="Trazado 875396" d="M322.462,346.218l.332-23.373a.919.919,0,0,1,.856-.729l3.257-.136a.906.906,0,0,0-.115.275l-.332,22.413-1.155,5.6a.911.911,0,0,1-.887.7h-2.9Z" transform="translate(-291.567 -265.992)" fill="#b3d2f2"/>
      </g>
      <g id="Grupo_1188841" data-name="Grupo 1188841" transform="translate(1.607 2.549)">
        <path id="Trazado_875397" data-name="Trazado 875397" d="M439,59.181V61.1c0,.118,0,.233.009.347,5.455-1.957,11.034-3.069,11.777-5.5a25.684,25.684,0,0,1,1.57-3.808,71.978,71.978,0,0,0-11.7,4.067C439.746,56.209,439,58.265,439,59.181Z" transform="translate(-439.003 -52.142)" fill="#476775"/>
        <path id="Trazado_875398" data-name="Trazado 875398" d="M25.694,437.587H33.2a.912.912,0,0,0,.912-.914v-4.879l-5.81-.865a.869.869,0,0,1-.26.31l-2.115,1.587a.918.918,0,0,0-.338.507l-.78,3.12A.912.912,0,0,0,25.694,437.587Z" transform="translate(64.147 -353.29)" fill="#476775"/>
        <path id="Trazado_875399" data-name="Trazado 875399" d="M323.73,428.982l.7,2.937a.824.824,0,0,0,.8.634h7.691a.911.911,0,0,0,.887-.7l1.155-5.6-6.427-1.655a.823.823,0,0,1-.231.274l-4.281,3.263A.823.823,0,0,0,323.73,428.982Z" transform="translate(-297.982 -348.255)" fill="#476775"/>
      </g>
      <path id="Trazado_875400" data-name="Trazado 875400" d="M223.264,52.272h0a3.684,3.684,0,0,1,3.994-3.672l11.336.96a30.051,30.051,0,0,1,21.464,11.86h0l-6.826-2.97a30.046,30.046,0,0,0-11.985-2.494h-14.3A3.684,3.684,0,0,1,223.264,52.272Z" transform="translate(-200.875 -46.766)" fill="#f2e5cb"/>
      <path id="Trazado_875401" data-name="Trazado 875401" d="M376.672,55.031l-.52-4.2c-.334-2.7-3.127-4.736-6.438-4.689l-1.249.018a1.41,1.41,0,0,0-1.379,1.961l2.527,5.2C371.478,57.484,376.694,57.694,376.672,55.031Z" transform="translate(-346.941 -44.82)" fill="#91aac4"/>
      <path id="Trazado_875402" data-name="Trazado 875402" d="M38.888,200.022v1.9a1.606,1.606,0,0,1-3.213,0v-1.962c0-.225-.006-.447-.017-.668a12.992,12.992,0,0,0-.876-4.083,13.2,13.2,0,0,0-7.552-7.526,13.1,13.1,0,0,0-2.949-.755l-22.66.208H1.607a1.605,1.605,0,0,1-.015-3.21l22.773-.21c.071,0,.143,0,.216.013a16.262,16.262,0,0,1,6.4,2.232A16.8,16.8,0,0,1,45.8,196.513a2.473,2.473,0,0,1-1.966,3.469,22.958,22.958,0,0,1-2.722.165A19.188,19.188,0,0,1,38.888,200.022Zm-3.146-9.689a16.287,16.287,0,0,1,2.823,6.4,17.168,17.168,0,0,0,3.851.156A13.789,13.789,0,0,0,35.742,190.333Z" transform="translate(58.933 -154.197)"/>
      <path id="Trazado_875403" data-name="Trazado 875403" d="M18.4,208.753a1.6,1.6,0,0,1,1.748,1.45A75.612,75.612,0,0,0,21.7,220.385a16.349,16.349,0,0,0,3.45,6.713c6.476,7.765,8.368,21.363,8.759,24.868l3.245.835.3-20.356a1.593,1.593,0,0,1,.043-.347,2.514,2.514,0,0,1,2.355-1.932l36.171-1.45a2.491,2.491,0,0,1,1.8.673l9.524,8.839,0,0,2.322,2.155h3.705a2.522,2.522,0,0,1,2.52,2.519v10.233l2.492.371V237.227a1.656,1.656,0,0,1-.119-.121l-2.442-2.748a2.528,2.528,0,0,1-1.091-2.073v-2.238a1.606,1.606,0,0,1,3.213,0v1.877a1.606,1.606,0,0,1,.119.121l2.442,2.748a2.531,2.531,0,0,1,1.091,2.075v23.38a2.52,2.52,0,0,1-2.518,2.517H91.58a2.517,2.517,0,0,1-2.444-3.126l.779-3.113a2.525,2.525,0,0,1,.934-1.407l1.838-1.378V243.6H89.4a2.517,2.517,0,0,1-1.582-.559v11.6c0,.006,0,.013,0,.019v5.683a2.434,2.434,0,0,1-2.432,2.43H77.271a2.424,2.424,0,0,1-2.411-2.7c.006-.054.011-.109.02-.163l.658-3.613c.007-.039.018-.076.027-.113s.019-.09.032-.133c.008-.028.019-.054.028-.081.018-.053.034-.106.055-.158s.041-.089.063-.132.028-.064.044-.094a2.462,2.462,0,0,1,.865-.923l2.977-1.839v-9.25l-3.512-.29a1.605,1.605,0,0,1-1.242-.768l-6.23-10.28-16.556.664,2.156,27.131a2.585,2.585,0,0,1-.047.759c0,.012,0,.024-.006.036s-.014.047-.019.07a2.536,2.536,0,0,1-.584,1.09,2.42,2.42,0,0,1-1.778.789h-7.2a2.306,2.306,0,0,1-.416-.038,2.384,2.384,0,0,1-1.856-1.713c-.019-.068-.035-.138-.049-.209l-.264-1.385-.348-1.823a2.491,2.491,0,0,1,.435-1.926,2.391,2.391,0,0,1,.671-.624l2.347-1.445-3.816-20.281-.667.027-.319,21.523s0,.008,0,.012v.005c0,.014,0,.029,0,.043,0,.035,0,.071-.007.106-.006.051-.013.1-.024.151l-1.155,5.595c0,.014-.006.028-.009.042a2.507,2.507,0,0,1-2.451,1.939H28.993a2.423,2.423,0,0,1-2.365-1.864l-.7-2.934c-.008-.033-.014-.067-.02-.1s-.011-.05-.015-.075-.008-.06-.011-.091-.008-.057-.011-.085,0-.061,0-.092,0-.056,0-.084,0-.059,0-.089,0-.057,0-.086.005-.054.008-.081,0-.062.009-.092c.006-.051.015-.1.025-.151,0-.007,0-.014,0-.02.011-.054.024-.108.039-.161l0-.007a2.429,2.429,0,0,1,.868-1.283l3.915-2.981c-.325-2.918-2.1-16.2-8.05-23.334a19.522,19.522,0,0,1-4.108-8.029A78.7,78.7,0,0,1,16.947,210.5,1.6,1.6,0,0,1,18.4,208.753Zm79.994,50.8v-2.8l-3.649-.543-.732.549-1.037.778-.5,2.016Zm-13.783,0V256l-3.153-.544-2.818,1.74-.429,2.356ZM77.2,240.141l4.169.344a1.605,1.605,0,0,1,1.474,1.6V252.44l1.767.305V240.068l-8.761-8.132-3.536.142ZM50.986,259.555l-.246-3.1-3.2-.59-.023.016a2.432,2.432,0,0,1-.232.165L44.933,257.5l.221,1.158.172.9h5.659Zm-2.745-6.821,2.236.412-1.6-20.129-4.313.173Zm-18.632,6.821h6.509l.726-3.518-4.094-1.054-3.583,2.729Z" transform="translate(-0.131 -174.098)"/>
      <path id="Trazado_875404" data-name="Trazado 875404" d="M218.256,45.039c1.6-.714,10.631-4.626,17-4.823a3.2,3.2,0,0,1,1.676-.493l1.249-.017a9.084,9.084,0,0,1,3.138.5h0l.072,0h.027c.169,0,.344,0,.53.017l11.336.959a31.709,31.709,0,0,1,22.612,12.484,1.606,1.606,0,0,1-1.924,2.437l-6.826-2.967a28.271,28.271,0,0,0-11.344-2.36h-4.432l3.446,9.905a13.137,13.137,0,0,0,12.416,8.824h.136a1.605,1.605,0,0,1,.014,3.21h-.151a16.347,16.347,0,0,1-15.45-10.98l-3.812-10.959h-1.25a3.312,3.312,0,0,1-2.7,2.665,4.892,4.892,0,0,1-1.04.108,6.48,6.48,0,0,1-3.021-.8,7.527,7.527,0,0,1-3.311-3.589l-2.518-5.182a2.947,2.947,0,0,1-.175-.46c-6.144.7-14.494,4.493-14.586,4.535a1.6,1.6,0,0,1-.237.086,3.518,3.518,0,0,0-.486,1.425v1.915a3.478,3.478,0,0,0,1.194,2.807,5.983,5.983,0,0,0,4.8.924l8.359-1.459a1.606,1.606,0,0,1,1.882,1.641c0,.053-.195,5.352.043,12.03a1.605,1.605,0,0,1-1.548,1.661h-.058a1.606,1.606,0,0,1-1.6-1.548c-.154-4.334-.13-8.107-.091-10.285l-6.43,1.123a9.063,9.063,0,0,1-7.423-1.629,6.634,6.634,0,0,1-2.339-5.264V49.573C215.427,48.357,216.275,45.421,218.256,45.039Zm49.161,4.739a28.481,28.481,0,0,0-14.407-5.4l-7.406-.627a6.134,6.134,0,0,1,.629,2.043l.218,1.771H255.8A31.45,31.45,0,0,1,267.418,49.778Zm-27.875-1.991.021.044a4.2,4.2,0,0,0,2.911,2.462,1.706,1.706,0,0,0,1.069-.059l-.107-.862s0,0,0,0l-.392-3.177a3.676,3.676,0,0,0-2.336-2.775h-3.291Z" transform="translate(-215.426 -39.705)"/>
      <ellipse id="Elipse_11573" data-name="Elipse 11573" cx="1.606" cy="1.605" rx="1.606" ry="1.605" transform="translate(16.177 5.319)"/>
    </g>
  </g>
</svg>
