<svg xmlns="http://www.w3.org/2000/svg" xmlns:xlink="http://www.w3.org/1999/xlink" width="400" height="375" viewBox="0 0 400 375">
  <defs>
    <clipPath id="clip-path">
      <path id="Trazado_875199" data-name="Trazado 875199" d="M50.927,207s-5.181-12.089-1.727-19.573,35.116-51.236,54.114-51.811S150.519,181.1,161.457,181.1s61.1-59.37,81.746-62.749c21.108-3.454,102.317,74.527,107.094,83.127,7.2,12.953,1.709,25.676-2.32,32.585S187.362,308.9,50.927,207Z" transform="translate(-48.012 -118.236)" fill="none"/>
    </clipPath>
    <clipPath id="clip-path-2">
      <path id="Trazado_875209" data-name="Trazado 875209" d="M400.443,250.224s22.718-26.344-9.909-43.5l-.967,1.933s12.084,5.317,11.359,21.268-18.368,21.993-18.368,21.993a26.307,26.307,0,0,0,9.154.544A25.372,25.372,0,0,0,400.443,250.224Z" transform="translate(-382.558 -206.721)" fill="none"/>
    </clipPath>
    <clipPath id="clip-path-3">
      <path id="Trazado_875223" data-name="Trazado 875223" d="M353.1,242.063s32.763-37.992-14.29-62.738l-1.395,2.788s17.428,7.668,16.382,30.672-26.49,31.718-26.49,31.718a37.982,37.982,0,0,0,13.2.784C348.587,244.48,353.1,242.063,353.1,242.063Z" transform="translate(-327.312 -179.325)" fill="none"/>
    </clipPath>
    <clipPath id="clip-path-4">
      <path id="Trazado_875271" data-name="Trazado 875271" d="M264.643,256.772s11.4,11.25,25.582,12.791,39.3,12.637,62.723-1.233c5.938-3.515,8.184-5.565,14.178-3.852,7.552,2.158,20.034-2.775,26.661,6.318s-8.63,23.887,2.775,34.983c12.092,11.766,7.705.617,6.01-2.466s-5.548-5.085-2.774-11.558,9.863-7.705,8.63-24.2-20.342-25.119-40.53-26.507-32.671-4.469-60.873,3.853l-6.319,1.7s-2.312-4.315-6.01-2.466-2.928-3.082-8.938-2S264.643,256.772,264.643,256.772Z" transform="translate(-264.643 -239.332)" fill="none"/>
    </clipPath>
    <clipPath id="clip-path-5">
      <path id="Trazado_875320" data-name="Trazado 875320" d="M211.461,350.22s-20.412,13.327-38.8,27.8c-16.08,12.662-17.083,22.373-11.069,25.325,9.088,4.46,41.906,6.705,58.593-5.9s27.11-34.016,46.908-26.178c22.326,8.838,30.311,9.975,27.317,5.741s-12.819-21.291-32.328-25.435S211.461,350.22,211.461,350.22Z" transform="translate(-158.204 -349.299)" fill="none"/>
    </clipPath>
    <clipPath id="clip-path-6">
      <path id="Trazado_875336" data-name="Trazado 875336" d="M252.537,57.312s1.082-5.128.353-7.17-1.551-3.68,3.135-4.4,21.269-2.75,24.754-4.942,3.126.882.4,2.736c0,0,14.32-2.2,23.14,5.523s-4.974.489-4.974.489,12.91,10.36,12.279,12.008-8.408-3.535-8.408-3.535,11.971,8.867,11.011,11.208-13.284-6.095-13.284-6.095,14.856,12.68,13.4,15.334-11.6-6.393-11.6-6.393,9.64,9.36,8.014,11.634-14.434-7.039-14.434-7.039,4.9,5.465,3.6,7.047-7.6-3.35-7.6-3.35,5.683,5.388,4.1,6.733S252.537,57.312,252.537,57.312Z" transform="translate(-252.326 -40.037)" fill="none"/>
    </clipPath>
    <clipPath id="clip-path-7">
      <path id="Trazado_875342" data-name="Trazado 875342" d="M236.47,68.372s-2.571,3.424-5.214,3.42-3.094,3.475-4.552,6.129-9.172-.553-10.855,3.841-16.059,31.574-14.54,30.9,9.268-9.235,9.268-9.235-8.7,21.733-6.5,19.931,11.474-13.681,11.474-13.681-6.036,24.643-3.271,21.861,9.175-15.569,10.242-19.506c0,0,1.527,16.9,3.432,20.145s4.959-22.158,4.959-22.158,9.427,19.292,12.347,18.08-3.026-20.053-3.026-20.053,4.365,10.8,8.722,10.772c0,0,4.9,5.465,6.6,3.977s.364-5.718.364-5.718,4.337,3.8,5.2,1.867-3.569-9.428-3.569-9.428,2.1,1.247,2.762-.139-5.73-8.555-5.73-8.555a12.655,12.655,0,0,0,6.857-.145s3.24,3.382,5.087,2.011a3.262,3.262,0,0,0,.687-3.768s3.188,2.859,4.774,1.514-6.2-10.624-6.2-10.624Z" transform="translate(-201.198 -68.372)" fill="none"/>
    </clipPath>
    <clipPath id="clip-path-8">
      <path id="Trazado_875345" data-name="Trazado 875345" d="M252.408,52.061s-5.893,1.693-8.372-.522-5.639-5.83-9.373-4.265-14,5.678-11.53,13.438,10.683,3.868,10.683,3.868l-.535,7.621,26.831-2.877Z" transform="translate(-222.753 -46.892)" fill="none"/>
    </clipPath>
    <clipPath id="clip-path-9">
      <path id="Trazado_875349" data-name="Trazado 875349" d="M224.056,66.675s1.233-2.388,4.871-1.066c2.36.858,3.493-2.226,3.493-2.226s4.365,4.225.8,6.3-5.662,3.665-4.674,5.139.621,1.766-1.5.748A7.128,7.128,0,0,1,224.056,66.675Z" transform="translate(-223.472 -63.383)" fill="none"/>
    </clipPath>
  </defs>
  <g id="Grupo_1188830" data-name="Grupo 1188830" transform="translate(-180 -1035)">
    <rect id="Rectángulo_402640" data-name="Rectángulo 402640" width="400" height="375" rx="10" transform="translate(180 1035)" fill="#e7ecf8"/>
    <g id="Grupo_1188829" data-name="Grupo 1188829" transform="translate(191.947 1024.88)">
      <g id="Grupo_1188650" data-name="Grupo 1188650" transform="translate(18.531 23.083)">
        <g id="Grupo_1188639" data-name="Grupo 1188639" transform="translate(0.045)">
          <g id="Grupo_1188631" data-name="Grupo 1188631" transform="translate(0 7.647)">
            <g id="Grupo_1188627" data-name="Grupo 1188627" transform="translate(0 19.588)">
              <g id="Grupo_1188626" data-name="Grupo 1188626">
                <g id="Grupo_1188625" data-name="Grupo 1188625">
                  <g id="Grupo_1188612" data-name="Grupo 1188612" transform="translate(35.391 11.379)">
                    <path id="Trazado_875145" data-name="Trazado 875145" d="M70.341,98.63S60.468,81.723,71.88,75.985,70.341,98.63,70.341,98.63Z" transform="translate(-66.375 -75.219)" fill="#57571e"/>
                  </g>
                  <g id="Grupo_1188613" data-name="Grupo 1188613" transform="translate(45.373 21.342)">
                    <path id="Trazado_875146" data-name="Trazado 875146" d="M79.852,96.059S93.927,82.45,102.213,92.17,79.852,96.059,79.852,96.059Z" transform="translate(-79.852 -88.67)" fill="#57571e"/>
                  </g>
                  <g id="Grupo_1188614" data-name="Grupo 1188614" transform="translate(27.213 49.19)">
                    <path id="Trazado_875147" data-name="Trazado 875147" d="M55.334,135.535s12.283-15.246,21.709-6.625S55.334,135.535,55.334,135.535Z" transform="translate(-55.334 -126.269)" fill="#57571e"/>
                  </g>
                  <g id="Grupo_1188615" data-name="Grupo 1188615" transform="translate(5.244 57.464)">
                    <path id="Trazado_875148" data-name="Trazado 875148" d="M40.87,160.4s-19.842-7.448-14.182-20.063S40.87,160.4,40.87,160.4Z" transform="translate(-25.672 -137.441)" fill="#57571e"/>
                  </g>
                  <g id="Grupo_1188616" data-name="Grupo 1188616" transform="translate(0 97.826)">
                    <path id="Trazado_875149" data-name="Trazado 875149" d="M36.112,212.922S15.363,208.6,19.025,195.267,36.112,212.922,36.112,212.922Z" transform="translate(-18.592 -191.935)" fill="#57571e"/>
                  </g>
                  <g id="Grupo_1188617" data-name="Grupo 1188617" transform="translate(13.345 38.84)">
                    <path id="Trazado_875150" data-name="Trazado 875150" d="M47.153,137.58s-16.909-12.776-7.9-23.264S47.153,137.58,47.153,137.58Z" transform="translate(-36.61 -112.295)" fill="#424418"/>
                  </g>
                  <g id="Grupo_1188618" data-name="Grupo 1188618" transform="translate(0.215 76.271)">
                    <path id="Trazado_875151" data-name="Trazado 875151" d="M35.481,184.675s-20.439-5.6-15.956-18.683S35.481,184.675,35.481,184.675Z" transform="translate(-18.882 -162.833)" fill="#424418"/>
                  </g>
                  <g id="Grupo_1188619" data-name="Grupo 1188619" transform="translate(23.044 25.011)">
                    <path id="Trazado_875152" data-name="Trazado 875152" d="M56.089,119.362S42.97,102.718,54.344,94.855,56.089,119.362,56.089,119.362Z" transform="translate(-49.705 -93.624)" fill="#424418"/>
                  </g>
                  <g id="Grupo_1188620" data-name="Grupo 1188620" transform="translate(35.037 32.853)">
                    <path id="Trazado_875153" data-name="Trazado 875153" d="M65.9,113.477s12.283-15.246,21.709-6.624S65.9,113.477,65.9,113.477Z" transform="translate(-65.897 -104.211)" fill="#424418"/>
                  </g>
                  <g id="Grupo_1188621" data-name="Grupo 1188621" transform="translate(22.751 61.268)">
                    <path id="Trazado_875154" data-name="Trazado 875154" d="M49.309,153.818s10.2-16.711,20.666-9.386S49.309,153.818,49.309,153.818Z" transform="translate(-49.309 -142.576)" fill="#424418"/>
                  </g>
                  <g id="Grupo_1188622" data-name="Grupo 1188622" transform="translate(17.857 78.179)">
                    <path id="Trazado_875155" data-name="Trazado 875155" d="M42.7,176.651s10.2-16.711,20.666-9.385S42.7,176.651,42.7,176.651Z" transform="translate(-42.701 -165.408)" fill="#57571e"/>
                  </g>
                  <g id="Grupo_1188623" data-name="Grupo 1188623" transform="translate(15.275 96.257)">
                    <path id="Trazado_875156" data-name="Trazado 875156" d="M39.216,201.059s10.2-16.711,20.666-9.385S39.216,201.059,39.216,201.059Z" transform="translate(-39.216 -189.816)" fill="#424418"/>
                  </g>
                  <g id="Grupo_1188624" data-name="Grupo 1188624" transform="translate(49.103)">
                    <path id="Trazado_875157" data-name="Trazado 875157" d="M86.615,82.135S80.1,63.672,92.386,60.184,86.615,82.135,86.615,82.135Z" transform="translate(-84.889 -59.855)" fill="#424418"/>
                  </g>
                </g>
              </g>
              <path id="Trazado_875158" data-name="Trazado 875158" d="M44.708,208.744c.741-3.2-25.058-77.8,42.461-134.05" transform="translate(-24.266 -63.703)" fill="none" stroke="#424418" stroke-miterlimit="10" stroke-width="7.431"/>
            </g>
            <g id="Grupo_1188630" data-name="Grupo 1188630" transform="translate(69.637)">
              <g id="Grupo_1188629" data-name="Grupo 1188629">
                <path id="Trazado_875159" data-name="Trazado 875159" d="M112.773,114.266a.4.4,0,0,0-.116.123.364.364,0,0,0-.036.075l-.01.036.013-.038.107-.3c.072-.185.153-.48.228-.714l.464-1.549q.468-1.576.968-3.16c.662-2.109,1.406-4.2,2.189-6.266A104.958,104.958,0,0,1,122.095,90.4a91.885,91.885,0,0,1,15.689-21.275,88.378,88.378,0,0,1,10.05-8.582l2.7-1.9c.91-.618,1.86-1.176,2.787-1.766l1.4-.873,1.442-.8,2.889-1.584A100.56,100.56,0,0,1,183.8,45.016l.114.508a99.617,99.617,0,0,0-24.219,9.3L156.9,56.471l-1.391.83-1.346.9c-.892.609-1.8,1.184-2.677,1.819L148.9,61.962a86.4,86.4,0,0,0-9.54,8.689,89.253,89.253,0,0,0-14.573,21.141,101.836,101.836,0,0,0-4.965,11.86c-.694,2.029-1.349,4.07-1.926,6.139q-.438,1.551-.847,3.12l-.423,1.6c-.083.287-.134.521-.243.851l-.153.472-.019.059-.056.128c-.039.087-.081.173-.127.257a4.746,4.746,0,0,1-.3.488Z" transform="translate(-112.612 -36.419)" fill="#57571e"/>
                <g id="Grupo_1188628" data-name="Grupo 1188628" transform="translate(1.192)">
                  <path id="Trazado_875160" data-name="Trazado 875160" d="M178.59,50.471s-.75-13.749,8.233-13.675S178.59,50.471,178.59,50.471Z" transform="translate(-130.911 -34.287)" fill="#57571e"/>
                  <path id="Trazado_875161" data-name="Trazado 875161" d="M186.3,52.429s13.176-4,15.241,4.746S186.3,52.429,186.3,52.429Z" transform="translate(-132.916 -38.105)" fill="#57571e"/>
                  <path id="Trazado_875162" data-name="Trazado 875162" d="M158.078,69.35s12.581-5.6,15.711,2.824S158.078,69.35,158.078,69.35Z" transform="translate(-125.595 -42.257)" fill="#57571e"/>
                  <path id="Trazado_875163" data-name="Trazado 875163" d="M140.988,79.267s-10.024-11.031-2.432-17.107S140.988,79.267,140.988,79.267Z" transform="translate(-119.796 -40.601)" fill="#57571e"/>
                  <path id="Trazado_875164" data-name="Trazado 875164" d="M121.261,110.515s-11.594-9.366-5.023-16.532S121.261,110.515,121.261,110.515Z" transform="translate(-114.222 -48.767)" fill="#57571e"/>
                  <path id="Trazado_875165" data-name="Trazado 875165" d="M152.022,67.2s-6.479-13.423,2.526-17.093S152.022,67.2,152.022,67.2Z" transform="translate(-123.44 -37.626)" fill="#57571e"/>
                  <path id="Trazado_875166" data-name="Trazado 875166" d="M129.889,92.672S118.9,82.6,125.9,75.859,129.889,92.672,129.889,92.672Z" transform="translate(-116.646 -44.102)" fill="#57571e"/>
                  <path id="Trazado_875167" data-name="Trazado 875167" d="M163.151,58.849s-2.865-14.627,6.776-15.895S163.151,58.849,163.151,58.849Z" transform="translate(-126.808 -35.867)" fill="#57571e"/>
                  <path id="Trazado_875168" data-name="Trazado 875168" d="M171.769,58.94s12.581-5.6,15.711,2.824S171.769,58.94,171.769,58.94Z" transform="translate(-129.146 -39.557)" fill="#57571e"/>
                  <path id="Trazado_875169" data-name="Trazado 875169" d="M148.216,78.885s11.748-7.181,15.944.762S148.216,78.885,148.216,78.885Z" transform="translate(-123.038 -44.43)" fill="#57571e"/>
                  <path id="Trazado_875170" data-name="Trazado 875170" d="M136.751,91.051s11.748-7.181,15.944.762S136.751,91.051,136.751,91.051Z" transform="translate(-120.065 -47.585)" fill="#57571e"/>
                  <path id="Trazado_875171" data-name="Trazado 875171" d="M126.734,105.2s11.749-7.181,15.945.762S126.734,105.2,126.734,105.2Z" transform="translate(-117.467 -51.256)" fill="#57571e"/>
                  <path id="Trazado_875172" data-name="Trazado 875172" d="M193.711,45.448S195.56,31.8,204.369,33.565,193.711,45.448,193.711,45.448Z" transform="translate(-134.837 -33.408)" fill="#57571e"/>
                </g>
              </g>
            </g>
          </g>
          <g id="Grupo_1188638" data-name="Grupo 1188638" transform="translate(238.693)">
            <g id="Grupo_1188633" data-name="Grupo 1188633" transform="translate(61.666 42.234)">
              <path id="Trazado_875173" data-name="Trazado 875173" d="M439.249,171.72s5.446-3.072,8.414-4.645c9.593-15.9,13.3-32.686,14.255-47.225l-10.309,6.359,10.536-11.342a131.435,131.435,0,0,0-.529-15.555l-3.06,2.666,2.656-6.415a103.032,103.032,0,0,0-2.943-15.458,159.427,159.427,0,0,0-16.432,21.619l-.234,8.015-2.346-3.72c-9.063,15.686-13.136,30.123-14.534,42.4l3.32,7.8-3.7-3.7c-1.546,22.118,5.4,36.226,5.4,36.226a96.739,96.739,0,0,0,14.816-16.86Z" transform="translate(-424.12 -80.105)" fill="#cb9123"/>
              <g id="Grupo_1188632" data-name="Grupo 1188632" transform="translate(3.298)">
                <path id="Trazado_875174" data-name="Trazado 875174" d="M460.237,80.105s-14.611,57.06-28.525,108.63" transform="translate(-429.387 -80.105)" fill="none" stroke="#522b21" stroke-miterlimit="10" stroke-width="0.817"/>
                <path id="Trazado_875175" data-name="Trazado 875175" d="M428.573,153.76l8.719,30.4,22.02-22.258" transform="translate(-428.573 -99.207)" fill="none" stroke="#522b21" stroke-miterlimit="10" stroke-width="0.817"/>
                <path id="Trazado_875176" data-name="Trazado 875176" d="M434.346,135.963l8.436,28.829,20.769-20.8" transform="translate(-430.07 -94.591)" fill="none" stroke="#522b21" stroke-miterlimit="10" stroke-width="0.817"/>
              </g>
            </g>
            <g id="Grupo_1188635" data-name="Grupo 1188635" transform="translate(0 11.482)">
              <path id="Trazado_875177" data-name="Trazado 875177" d="M401.891,135.526s2.194-7.334,3.476-11.241c-5.045-22.169-16.032-40.116-27.534-53.75L374.141,84.9l-.34-18.948a160.677,160.677,0,0,0-13.676-13.267l-.435,4.95-3.106-7.912a126.2,126.2,0,0,0-15.723-11.134,195.1,195.1,0,0,0,3.87,33.019l6.6,7.267L346.1,77.583c5.328,21.527,14,37.718,23.186,49.729l9.55,4.057-6.406-.127c17.42,20.817,35.524,27.36,35.524,27.36a118.468,118.468,0,0,0-1.252-27.45Z" transform="translate(-340.862 -38.585)" fill="#a66428"/>
              <g id="Grupo_1188634" data-name="Grupo 1188634">
                <path id="Trazado_875178" data-name="Trazado 875178" d="M340.862,38.585s35.572,62.725,67.1,120.017" transform="translate(-340.862 -38.585)" fill="none" stroke="#522b21" stroke-miterlimit="10" stroke-width="1"/>
                <path id="Trazado_875179" data-name="Trazado 875179" d="M366.681,132.281l33.5,19.4.516-38.328" transform="translate(-347.558 -57.976)" fill="none" stroke="#522b21" stroke-miterlimit="10" stroke-width="1"/>
                <path id="Trazado_875180" data-name="Trazado 875180" d="M356.659,112.106l31.921,18.258.65-35.981" transform="translate(-344.959 -53.056)" fill="none" stroke="#522b21" stroke-miterlimit="10" stroke-width="1"/>
              </g>
            </g>
            <g id="Grupo_1188637" data-name="Grupo 1188637" transform="translate(49.356)">
              <path id="Trazado_875181" data-name="Trazado 875181" d="M423.87,80.058s2.381-3.063,3.7-4.673a64.619,64.619,0,0,0-3.156-30.436l-4.376,6.107,3.312-9.012a81.563,81.563,0,0,0-4.029-8.773l-1.112,2.258-.016-4.307a63.969,63.969,0,0,0-5.387-8.14,98.816,98.816,0,0,0-4.223,16.306l1.786,4.642-2.234-1.566A67.716,67.716,0,0,0,409.976,70.2l3.768,3.666-3-1.234c4.414,13.026,11.766,19.434,11.766,19.434a60.033,60.033,0,0,0,4.439-13.2Z" transform="translate(-407.5 -23.083)" fill="#a66428"/>
              <g id="Grupo_1188636" data-name="Grupo 1188636" transform="translate(0.013)">
                <path id="Trazado_875182" data-name="Trazado 875182" d="M414.666,23.083s5.308,36.148,9.7,68.987" transform="translate(-409.371 -23.083)" fill="none" stroke="#522b21" stroke-miterlimit="10" stroke-width="0.507"/>
                <path id="Trazado_875183" data-name="Trazado 875183" d="M408.477,74.256l12.27,15.3,7.268-18.01" transform="translate(-407.766 -35.653)" fill="none" stroke="#522b21" stroke-miterlimit="10" stroke-width="0.507"/>
                <path id="Trazado_875184" data-name="Trazado 875184" d="M407.517,62.8,419.249,77.27l6.9-16.877" transform="translate(-407.517 -32.759)" fill="none" stroke="#522b21" stroke-miterlimit="10" stroke-width="0.507"/>
              </g>
            </g>
          </g>
        </g>
        <g id="Grupo_1188649" data-name="Grupo 1188649" transform="translate(0 232.482)">
          <g id="Grupo_1188644" data-name="Grupo 1188644" transform="translate(205.08 49.239)">
            <g id="Grupo_1188641" data-name="Grupo 1188641" transform="translate(0 45.89)">
              <path id="Trazado_875185" data-name="Trazado 875185" d="M295.419,465.406s17.7,14.411,37.914,20.027,32.813-6.434,28.161-15.18C354.832,457.731,340.8,476.641,295.419,465.406Z" transform="translate(-295.419 -465.406)" fill="#75a9cf"/>
              <g id="Grupo_1188640" data-name="Grupo 1188640" transform="translate(37.132 7.347)">
                <path id="Trazado_875186" data-name="Trazado 875186" d="M357.05,489.349a38.792,38.792,0,0,1-11.5-1.318" transform="translate(-345.553 -478.62)" fill="none" stroke="#fff" stroke-miterlimit="10" stroke-width="2"/>
                <path id="Trazado_875187" data-name="Trazado 875187" d="M378.834,475.325a13.431,13.431,0,0,1-7.091,8.743" transform="translate(-352.345 -475.325)" fill="none" stroke="#fff" stroke-miterlimit="10" stroke-width="2"/>
              </g>
            </g>
            <g id="Grupo_1188643" data-name="Grupo 1188643" transform="translate(30.271)">
              <path id="Trazado_875188" data-name="Trazado 875188" d="M336.289,442.793s28.451,4.081,53.913-2.964,31.251-28.221,20.558-34.645C395.449,395.986,392.564,425.5,336.289,442.793Z" transform="translate(-336.289 -403.447)" fill="#96c2e5"/>
              <g id="Grupo_1188642" data-name="Grupo 1188642" transform="translate(53.567 3.743)">
                <path id="Trazado_875189" data-name="Trazado 875189" d="M419.109,440.583a36.088,36.088,0,0,1-10.5,4.819" transform="translate(-408.612 -416.821)" fill="none" stroke="#fff" stroke-miterlimit="10" stroke-width="2"/>
                <path id="Trazado_875190" data-name="Trazado 875190" d="M432.711,408.5a9.913,9.913,0,0,1,2.44,10.8,25.841,25.841,0,0,1-4.844,8.048" transform="translate(-414.238 -408.501)" fill="none" stroke="#fff" stroke-miterlimit="10" stroke-width="2"/>
              </g>
            </g>
          </g>
          <g id="Grupo_1188648" data-name="Grupo 1188648">
            <g id="Grupo_1188646" data-name="Grupo 1188646" transform="translate(20.604 20.658)">
              <path id="Trazado_875191" data-name="Trazado 875191" d="M46.351,364.859s-.369,28.739,9.909,53.077,32.024,27.34,37.012,15.906C100.414,417.472,70.777,418.425,46.351,364.859Z" transform="translate(-46.35 -364.859)" fill="#75a9cf"/>
              <g id="Grupo_1188645" data-name="Grupo 1188645" transform="translate(10.893 45.694)">
                <path id="Trazado_875192" data-name="Trazado 875192" d="M76.241,451.423A28.756,28.756,0,0,0,89.2,458.21" transform="translate(-64.995 -433.003)" fill="none" stroke="#fff" stroke-miterlimit="10" stroke-width="2"/>
                <path id="Trazado_875193" data-name="Trazado 875193" d="M61.057,426.553a42.127,42.127,0,0,0,5.893,12.305" transform="translate(-61.057 -426.553)" fill="none" stroke="#fff" stroke-miterlimit="10" stroke-width="2"/>
              </g>
            </g>
            <g id="Grupo_1188647" data-name="Grupo 1188647">
              <path id="Trazado_875194" data-name="Trazado 875194" d="M36.9,336.968s-12.884,17.238-17.383,36.5,7.346,30.66,15.4,25.935C46.458,392.639,28.1,380.16,36.9,336.968Z" transform="translate(-18.531 -336.968)" fill="#96c2e5"/>
              <path id="Trazado_875195" data-name="Trazado 875195" d="M27.174,406.366s-5.468-5.342-3.1-18.541" transform="translate(-19.814 -350.157)" fill="none" stroke="#fff" stroke-miterlimit="10" stroke-width="2"/>
            </g>
          </g>
        </g>
      </g>
      <g id="Grupo_1188704" data-name="Grupo 1188704" transform="translate(34.548 55.058)">
        <g id="Grupo_1188701" data-name="Grupo 1188701" transform="translate(0 25.88)">
          <g id="Grupo_1188699" data-name="Grupo 1188699" transform="translate(2.203)">
            <path id="Trazado_875196" data-name="Trazado 875196" d="M355.926,211.026s-.69-11.8-8.443-28.016c-6.064-12.685-44.16-67.793-55.673-68.561-9.559-.637-40.257,56.988-49.287,54.155-18.506-5.806-61.036-69.749-73.884-67.341-12.281,2.3-47.973,37.227-99.991,79.6-11.433,9.313-4.3,20.224-1.187,27.533S222.642,304.2,355.926,211.026Z" transform="translate(-48.125 -101.196)" fill="#424418"/>
            <g id="Grupo_1188656" data-name="Grupo 1188656" transform="translate(3.616 12.62)">
              <g id="Grupo_1188653" data-name="Grupo 1188653">
                <path id="Trazado_875197" data-name="Trazado 875197" d="M50.927,207s-5.181-12.089-1.727-19.573,35.116-51.236,54.114-51.811S150.519,181.1,161.457,181.1s61.1-59.37,81.746-62.749c21.108-3.454,102.317,74.527,107.094,83.127,7.2,12.953,1.709,25.676-2.32,32.585S187.362,308.9,50.927,207Z" transform="translate(-48.012 -118.236)" fill="#a1a15b"/>
                <g id="Grupo_1188652" data-name="Grupo 1188652">
                  <g id="Grupo_1188651" data-name="Grupo 1188651" clip-path="url(#clip-path)">
                    <path id="Trazado_875198" data-name="Trazado 875198" d="M285.105,135.978c-5.756,3.07-9.978-6.908-13.048-7.292s.767,8.059-4.989,9.595S259.008,126,254.4,128.687s-2.3,12.281-8.059,12.281-4.99-6.524-10.363-6.908S226,142.887,222.549,140.2s-2.686-2.686,9.594-14.968,22.643-11.514,22.643-11.514C267.835,114.487,290.863,132.908,285.105,135.978Zm-171.083-3.3s-8.8-1.168-19.887,8.7-11.739,9.832-8.926,12.294,7.2-5.168,11.763-4.574,3.587,6.122,8.5,6.407,3.422-8.015,7.484-10.079,5.343,9.837,10.33,8.812,2.131-8.418,4.731-7.938,5.708,9.2,10.771,6.867S125.117,133.976,114.023,132.675Z" transform="translate(-57.293 -117.062)" fill="#fff"/>
                  </g>
                </g>
              </g>
              <g id="Grupo_1188655" data-name="Grupo 1188655" transform="translate(7.241 28.516)">
                <g id="Grupo_1188654" data-name="Grupo 1188654" transform="translate(141.161)">
                  <line id="Línea_588" data-name="Línea 588" y1="14.29" x2="17.776" fill="none" stroke="#424418" stroke-miterlimit="10" stroke-width="1"/>
                  <line id="Línea_589" data-name="Línea 589" y1="9.062" x2="11.153" transform="translate(1.394 7.319)" fill="none" stroke="#424418" stroke-miterlimit="10" stroke-width="1"/>
                </g>
                <path id="Trazado_875200" data-name="Trazado 875200" d="M162.729,173.678A249.883,249.883,0,0,1,181.2,195.288" transform="translate(-85.003 -161.13)" fill="none" stroke="#424418" stroke-miterlimit="10" stroke-width="1"/>
                <line id="Línea_590" data-name="Línea 590" x2="10.108" y2="10.805" transform="translate(74.589 13.942)" fill="none" stroke="#424418" stroke-miterlimit="10" stroke-width="1"/>
                <line id="Línea_591" data-name="Línea 591" x2="7.668" y2="9.062" transform="translate(89.925 30.672)" fill="none" stroke="#424418" stroke-miterlimit="10" stroke-width="1"/>
                <line id="Línea_592" data-name="Línea 592" y1="21.261" x2="17.776" transform="translate(0 14.639)" fill="none" stroke="#424418" stroke-miterlimit="10" stroke-width="1"/>
                <line id="Línea_593" data-name="Línea 593" y1="7.319" x2="6.971" transform="translate(2.788 29.626)" fill="none" stroke="#424418" stroke-miterlimit="10" stroke-width="1"/>
                <line id="Línea_594" data-name="Línea 594" y1="8.017" x2="7.319" transform="translate(12.896 17.079)" fill="none" stroke="#424418" stroke-miterlimit="10" stroke-width="1"/>
              </g>
            </g>
            <g id="Grupo_1188694" data-name="Grupo 1188694" transform="translate(66.401 26.09)">
              <path id="Trazado_875201" data-name="Trazado 875201" d="M132.781,232.719s44.9,4.605,63.9,9.786,147.55,14.78,174.031-14c0,0,14.025,14.386,3.854,56.029-24.243,99.248-152.554,14.392-191.7-5.756S132.781,232.719,132.781,232.719Z" transform="translate(-132.781 -160.302)" fill="#6d6e2d"/>
              <g id="Grupo_1188693" data-name="Grupo 1188693" transform="translate(118.019)">
                <g id="Grupo_1188674" data-name="Grupo 1188674" transform="translate(48.909 30.236)">
                  <g id="Grupo_1188667" data-name="Grupo 1188667" transform="translate(18.072 21.832)">
                    <path id="Trazado_875202" data-name="Trazado 875202" d="M400.443,250.224s22.718-26.344-9.909-43.5l-.967,1.933s12.084,5.317,11.359,21.268-18.368,21.993-18.368,21.993a26.307,26.307,0,0,0,9.154.544A25.372,25.372,0,0,0,400.443,250.224Z" transform="translate(-382.558 -206.721)" fill="#be8a27"/>
                    <g id="Grupo_1188666" data-name="Grupo 1188666">
                      <g id="Grupo_1188665" data-name="Grupo 1188665" clip-path="url(#clip-path-2)">
                        <g id="Grupo_1188664" data-name="Grupo 1188664" transform="translate(9.889 6.48)">
                          <g id="Grupo_1188663" data-name="Grupo 1188663">
                            <g id="Grupo_1188657" data-name="Grupo 1188657" transform="translate(0.398 24.825)">
                              <path id="Trazado_875203" data-name="Trazado 875203" d="M411.36,258.4h0l0-.513h0c-.189,0-12.395-.085-14.411-8.9l-.5.114C398.553,258.307,411.152,258.4,411.36,258.4Z" transform="translate(-396.447 -248.987)" fill="#dcac3a"/>
                            </g>
                            <g id="Grupo_1188658" data-name="Grupo 1188658" transform="translate(1.712 20.33)">
                              <path id="Trazado_875204" data-name="Trazado 875204" d="M412.958,251.464c.433,0,.688-.015.706-.016l-.033-.513c-.123.007-12.372.681-14.919-8.017l-.493.144C400.515,250.906,410.243,251.464,412.958,251.464Z" transform="translate(-398.22 -242.919)" fill="#dcac3a"/>
                            </g>
                            <g id="Grupo_1188659" data-name="Grupo 1188659" transform="translate(3.747 16.255)">
                              <path id="Trazado_875205" data-name="Trazado 875205" d="M413.2,243.989a22.791,22.791,0,0,0,4.3-.389l-.109-.5c-.121.026-12.13,2.533-15.955-5.682l-.465.217C403.453,242.969,409.183,243.989,413.2,243.989Z" transform="translate(-400.968 -237.416)" fill="#dcac3a"/>
                            </g>
                            <g id="Grupo_1188660" data-name="Grupo 1188660" transform="translate(4.322 11.946)">
                              <path id="Trazado_875206" data-name="Trazado 875206" d="M411.56,236.536A23.294,23.294,0,0,0,419,235.222l-.186-.478c-.115.044-11.591,4.379-16.64-3.145l-.427.286C404.205,235.553,408.1,236.536,411.56,236.536Z" transform="translate(-401.744 -231.599)" fill="#dcac3a"/>
                            </g>
                            <g id="Grupo_1188661" data-name="Grupo 1188661" transform="translate(3.422 7.369)">
                              <path id="Trazado_875207" data-name="Trazado 875207" d="M408.781,229.273a22.31,22.31,0,0,0,9.284-2.372l-.244-.451c-.109.058-10.949,5.8-16.9-1.03l-.387.337A10.494,10.494,0,0,0,408.781,229.273Z" transform="translate(-400.529 -225.419)" fill="#dcac3a"/>
                            </g>
                            <g id="Grupo_1188662" data-name="Grupo 1188662">
                              <path id="Trazado_875208" data-name="Trazado 875208" d="M400.6,222.158c6.533,0,12.034-6.274,12.1-6.353l-.389-.336c-.081.093-8.171,9.313-16.166,5.046l-.241.453A9.835,9.835,0,0,0,400.6,222.158Z" transform="translate(-395.909 -215.47)" fill="#dcac3a"/>
                            </g>
                          </g>
                        </g>
                      </g>
                    </g>
                  </g>
                  <g id="Grupo_1188669" data-name="Grupo 1188669">
                    <path id="Trazado_875210" data-name="Trazado 875210" d="M392.386,197.161s-4.9-9.263,7.247-19.916c0,0,8.747,13.49-1.992,22.044S392.386,197.161,392.386,197.161Z" transform="translate(-366.672 -177.245)" fill="#424418"/>
                    <g id="Grupo_1188668" data-name="Grupo 1188668" transform="translate(9.872 18.453)">
                      <path id="Trazado_875211" data-name="Trazado 875211" d="M399.379,208s9.2,5.412,26.79,4.33c0,0-9.472-11.636-24.354-10.012S399.379,208,399.379,208Z" transform="translate(-377.455 -202.159)" fill="#57571e"/>
                      <path id="Trazado_875212" data-name="Trazado 875212" d="M388.142,209.278s-3.465,9.155-16.656,18.489c0,0,.081-13.758,11.65-21.151S388.142,209.278,388.142,209.278Z" transform="translate(-371.486 -202.611)" fill="#57571e"/>
                      <path id="Trazado_875213" data-name="Trazado 875213" d="M371.486,228.3s7.385-16.732,18.261-22.351c0,0,15.861.316,30.452,7.363" transform="translate(-371.486 -203.141)" fill="none" stroke="#424418" stroke-miterlimit="10" stroke-width="0.693"/>
                    </g>
                    <path id="Trazado_875214" data-name="Trazado 875214" d="M396.338,209.656s2.36,9.5-3.174,24.682c0,0-7.763-11.36-2.457-24.022S396.338,209.656,396.338,209.656Z" transform="translate(-366.118 -184.316)" fill="#424418"/>
                    <path id="Trazado_875215" data-name="Trazado 875215" d="M383.006,205.8s-8.912,4.05-24.848,1.368c0,0,9.758-9.7,23.175-6.784S383.006,205.8,383.006,205.8Z" transform="translate(-358.158 -183.104)" fill="#424418"/>
                  </g>
                  <g id="Grupo_1188673" data-name="Grupo 1188673" transform="translate(25.064 20.38)">
                    <g id="Grupo_1188672" data-name="Grupo 1188672">
                      <g id="Grupo_1188670" data-name="Grupo 1188670" transform="translate(2.225)">
                        <circle id="Elipse_11544" data-name="Elipse 11544" cx="3.807" cy="3.807" r="3.807" fill="#d57129"/>
                      </g>
                      <g id="Grupo_1188671" data-name="Grupo 1188671" transform="translate(0 5.782)">
                        <circle id="Elipse_11545" data-name="Elipse 11545" cx="3.263" cy="3.263" r="3.263" fill="#b4591a"/>
                      </g>
                    </g>
                  </g>
                </g>
                <g id="Grupo_1188692" data-name="Grupo 1188692">
                  <g id="Grupo_1188685" data-name="Grupo 1188685" transform="translate(26.062 31.777)">
                    <path id="Trazado_875216" data-name="Trazado 875216" d="M353.1,242.063s32.763-37.992-14.29-62.738l-1.395,2.788s17.428,7.668,16.382,30.672-26.49,31.718-26.49,31.718a37.982,37.982,0,0,0,13.2.784C348.587,244.48,353.1,242.063,353.1,242.063Z" transform="translate(-327.312 -179.325)" fill="#dcac3a"/>
                    <g id="Grupo_1188684" data-name="Grupo 1188684">
                      <g id="Grupo_1188683" data-name="Grupo 1188683" clip-path="url(#clip-path-3)">
                        <g id="Grupo_1188682" data-name="Grupo 1188682" transform="translate(14.261 9.346)">
                          <g id="Grupo_1188681" data-name="Grupo 1188681">
                            <g id="Grupo_1188675" data-name="Grupo 1188675" transform="translate(0.575 35.801)">
                              <path id="Trazado_875217" data-name="Trazado 875217" d="M368.85,253.848h0l0-.741h0c-.272,0-17.876-.123-20.783-12.828l-.721.165C350.38,253.721,368.55,253.848,368.85,253.848Z" transform="translate(-347.343 -240.279)" fill="#be8a27"/>
                            </g>
                            <g id="Grupo_1188676" data-name="Grupo 1188676" transform="translate(2.469 29.32)">
                              <path id="Trazado_875218" data-name="Trazado 875218" d="M371.154,243.852c.624,0,.992-.021,1.018-.022l-.047-.739c-.176.01-17.843.983-21.515-11.562l-.71.208C353.21,243.046,367.239,243.852,371.154,243.852Z" transform="translate(-349.899 -231.529)" fill="#be8a27"/>
                            </g>
                            <g id="Grupo_1188677" data-name="Grupo 1188677" transform="translate(5.404 23.442)">
                              <path id="Trazado_875219" data-name="Trazado 875219" d="M371.5,233.071a32.9,32.9,0,0,0,6.2-.561l-.158-.724c-.175.038-17.492,3.654-23.009-8.194l-.671.313C357.445,231.6,365.709,233.071,371.5,233.071Z" transform="translate(-353.862 -223.593)" fill="#be8a27"/>
                            </g>
                            <g id="Grupo_1188678" data-name="Grupo 1188678" transform="translate(6.233 17.228)">
                              <path id="Trazado_875220" data-name="Trazado 875220" d="M369.137,222.323a33.586,33.586,0,0,0,10.725-1.895l-.267-.69c-.167.064-16.717,6.316-24-4.534l-.615.413C358.531,220.9,364.142,222.323,369.137,222.323Z" transform="translate(-354.981 -215.204)" fill="#be8a27"/>
                            </g>
                            <g id="Grupo_1188679" data-name="Grupo 1188679" transform="translate(4.935 10.627)">
                              <path id="Trazado_875221" data-name="Trazado 875221" d="M365.13,211.849a32.188,32.188,0,0,0,13.389-3.421l-.353-.651c-.156.084-15.789,8.362-24.378-1.486l-.559.486A15.137,15.137,0,0,0,365.13,211.849Z" transform="translate(-353.229 -206.291)" fill="#be8a27"/>
                            </g>
                            <g id="Grupo_1188680" data-name="Grupo 1188680">
                              <path id="Trazado_875222" data-name="Trazado 875222" d="M353.338,201.589c9.421,0,17.355-9.049,17.452-9.162l-.561-.484c-.117.135-11.784,13.431-23.314,7.277l-.349.654A14.185,14.185,0,0,0,353.338,201.589Z" transform="translate(-346.566 -191.943)" fill="#be8a27"/>
                            </g>
                          </g>
                        </g>
                      </g>
                    </g>
                  </g>
                  <g id="Grupo_1188687" data-name="Grupo 1188687">
                    <path id="Trazado_875224" data-name="Trazado 875224" d="M341.486,165.437s3.6-13.65,21.123-29.015c0,0,1.943,19.747-13.544,32.082S341.486,165.437,341.486,165.437Z" transform="translate(-304.402 -136.422)" fill="#57571e"/>
                    <g id="Grupo_1188686" data-name="Grupo 1188686" transform="translate(14.235 26.904)">
                      <path id="Trazado_875225" data-name="Trazado 875225" d="M351.571,181.166s13.268,7.805,38.634,6.244c0,0-13.659-16.78-35.122-14.439S351.571,181.166,351.571,181.166Z" transform="translate(-319.953 -172.747)" fill="#57571e"/>
                      <path id="Trazado_875226" data-name="Trazado 875226" d="M335.365,183.012s-5,13.2-24.021,26.665c0,0,.117-19.842,16.8-30.5S335.365,183.012,335.365,183.012Z" transform="translate(-311.344 -173.398)" fill="#57571e"/>
                      <path id="Trazado_875227" data-name="Trazado 875227" d="M311.344,210.441s10.651-24.131,26.336-32.234c0,0,22.873.456,43.917,10.619" transform="translate(-311.344 -174.163)" fill="none" stroke="#424418" stroke-miterlimit="10" stroke-width="1"/>
                    </g>
                    <path id="Trazado_875228" data-name="Trazado 875228" d="M347.184,183.557s3.406,13.7-4.577,35.6c0,0-11.2-16.382-3.543-34.644S347.184,183.557,347.184,183.557Z" transform="translate(-303.603 -146.722)" fill="#424418"/>
                    <path id="Trazado_875229" data-name="Trazado 875229" d="M327.959,178s-12.852,5.84-35.835,1.973c0,0,14.073-13.988,33.421-9.785S327.959,178,327.959,178Z" transform="translate(-292.124 -144.974)" fill="#424418"/>
                  </g>
                  <g id="Grupo_1188691" data-name="Grupo 1188691" transform="translate(36.146 29.683)">
                    <g id="Grupo_1188690" data-name="Grupo 1188690">
                      <g id="Grupo_1188688" data-name="Grupo 1188688" transform="translate(3.209)">
                        <circle id="Elipse_11546" data-name="Elipse 11546" cx="5.49" cy="5.49" r="5.49" fill="#d57129"/>
                      </g>
                      <g id="Grupo_1188689" data-name="Grupo 1188689" transform="translate(0 8.339)">
                        <circle id="Elipse_11547" data-name="Elipse 11547" cx="4.705" cy="4.705" r="4.705" fill="#b4591a"/>
                      </g>
                    </g>
                  </g>
                </g>
              </g>
            </g>
            <g id="Grupo_1188698" data-name="Grupo 1188698" transform="translate(0 83.379)">
              <path id="Trazado_875230" data-name="Trazado 875230" d="M46.014,223.142c6.121-17.068,41.5-12.276,109,26.482,125.009,71.779,200.763,9.654,194.544,36.227-5.751,24.573-7.449,32.854-27.022,50.124-34.6,30.53-131.967,35.134-191.7,12.665C68.082,325.037,32.39,261.137,46.014,223.142Z" transform="translate(-43.129 -213.771)" fill="#dcac3a"/>
              <g id="Grupo_1188697" data-name="Grupo 1188697" transform="translate(6.635 8.565)">
                <g id="Grupo_1188695" data-name="Grupo 1188695" transform="translate(124.82 60.487)">
                  <path id="Trazado_875231" data-name="Trazado 875231" d="M372.669,337.062c9.047-4.451,15.895-17.5,22.09-17.5,7.842,0,15.161,12.547,15.161,12.547" transform="translate(-260.046 -310.258)" fill="none" stroke="#cb9123" stroke-miterlimit="10" stroke-width="1"/>
                  <path id="Trazado_875232" data-name="Trazado 875232" d="M286.023,322.194c10.98.523,15.51-3.486,24.4-4.531,7.777-.915,16.488,13.647,27.3,18.7" transform="translate(-237.576 -309.756)" fill="none" stroke="#cb9123" stroke-miterlimit="10" stroke-width="1"/>
                  <path id="Trazado_875233" data-name="Trazado 875233" d="M220.612,311.772c8.365-2.091,23.288-6.322,29.278-4.182,2.375.848,4.378,3.554,7.074,6.167" transform="translate(-220.612 -307.001)" fill="none" stroke="#cb9123" stroke-miterlimit="10" stroke-width="1"/>
                  <path id="Trazado_875234" data-name="Trazado 875234" d="M338.259,327.927s11.5-7.668,15.684-6.971,20.564,7.319,20.564,7.319" transform="translate(-251.123 -310.609)" fill="none" stroke="#cb9123" stroke-miterlimit="10" stroke-width="1"/>
                </g>
                <g id="Grupo_1188696" data-name="Grupo 1188696">
                  <circle id="Elipse_11548" data-name="Elipse 11548" cx="2.33" cy="2.33" r="2.33" transform="translate(103.906 40.23)" fill="none" stroke="#cb9123" stroke-miterlimit="10" stroke-width="1.256"/>
                  <circle id="Elipse_11549" data-name="Elipse 11549" cx="3.012" cy="3.012" r="3.012" transform="translate(105.352 49.546)" fill="none" stroke="#cb9123" stroke-miterlimit="10" stroke-width="1.256"/>
                  <circle id="Elipse_11550" data-name="Elipse 11550" cx="1.822" cy="1.822" r="1.822" transform="translate(114.632 44.614)" fill="#cb9123"/>
                  <circle id="Elipse_11551" data-name="Elipse 11551" cx="1.822" cy="1.822" r="1.822" transform="translate(262.067 74.24)" fill="#cb9123"/>
                  <circle id="Elipse_11552" data-name="Elipse 11552" cx="1.822" cy="1.822" r="1.822" transform="translate(201.768 72.498)" fill="#cb9123"/>
                  <circle id="Elipse_11553" data-name="Elipse 11553" cx="1.822" cy="1.822" r="1.822" transform="translate(40.74 35.552)" fill="#cb9123"/>
                  <circle id="Elipse_11554" data-name="Elipse 11554" cx="1.173" cy="1.173" r="1.173" transform="translate(263.112 82.859)" fill="#cb9123"/>
                  <circle id="Elipse_11555" data-name="Elipse 11555" cx="1.173" cy="1.173" r="1.173" transform="translate(279.407 64.826)" fill="#cb9123"/>
                  <circle id="Elipse_11556" data-name="Elipse 11556" cx="1.822" cy="1.822" r="1.822" transform="translate(4.143)" fill="#cb9123"/>
                  <circle id="Elipse_11557" data-name="Elipse 11557" cx="2.48" cy="2.48" r="2.48" transform="translate(4.84 32.763)" fill="#cb9123"/>
                  <circle id="Elipse_11558" data-name="Elipse 11558" cx="1.434" cy="1.434" r="1.434" transform="translate(49.454 46.785)" fill="#cb9123"/>
                  <circle id="Elipse_11559" data-name="Elipse 11559" cx="1.434" cy="1.434" r="1.434" transform="translate(91.628 51.276)" fill="#cb9123"/>
                  <circle id="Elipse_11560" data-name="Elipse 11560" cx="1.434" cy="1.434" r="1.434" transform="translate(207.036 80.902)" fill="#cb9123"/>
                  <circle id="Elipse_11561" data-name="Elipse 11561" cx="1.434" cy="1.434" r="1.434" transform="translate(0 27.884)" fill="#cb9123"/>
                  <circle id="Elipse_11562" data-name="Elipse 11562" cx="1.434" cy="1.434" r="1.434" transform="translate(0.309 21.65)" fill="#cb9123"/>
                  <circle id="Elipse_11563" data-name="Elipse 11563" cx="3.514" cy="3.514" r="3.514" transform="translate(123.397 48.471)" fill="none" stroke="#cb9123" stroke-miterlimit="10" stroke-width="1.256"/>
                  <circle id="Elipse_11564" data-name="Elipse 11564" cx="2.788" cy="2.788" r="2.788" transform="translate(229.339 74.886)" fill="none" stroke="#cb9123" stroke-miterlimit="10" stroke-width="1"/>
                  <circle id="Elipse_11565" data-name="Elipse 11565" cx="2.788" cy="2.788" r="2.788" transform="translate(269.596 65.606)" fill="none" stroke="#cb9123" stroke-miterlimit="10" stroke-width="1"/>
                </g>
              </g>
            </g>
          </g>
          <g id="Grupo_1188700" data-name="Grupo 1188700" transform="translate(0 114.331)">
            <path id="Trazado_875235" data-name="Trazado 875235" d="M344.4,329.432c2.257-12.884-7.718,8.363-50.231,19.75-39.162,10.488-65.07-3.107-97.2-20.273-38.354-20.488-50.886-2.946-93.895-9.218-40.015-5.836-50.283-45.2-55.331-28.549C43.662,304.6,84.49,411.335,214.645,407.378,300.23,404.775,341.413,346.519,344.4,329.432Z" transform="translate(-42.052 -263.731)" fill="#75a9cf"/>
            <path id="Trazado_875236" data-name="Trazado 875236" d="M42.315,258.6c2.883-12.759-2.479,20.136,32.361,47.028C106.77,330.4,182.82,315.2,182.82,315.2s65.237,6.135,85.2,23.027c29.935,25.33,58.174-8.482,56.416,8.824-1.421,13.994-80.233,96.744-198.806,42.927C47.661,354.594,38.491,275.52,42.315,258.6Z" transform="translate(-40.529 -255.613)" fill="#96c2e5"/>
            <path id="Trazado_875237" data-name="Trazado 875237" d="M42.41,255.56s-11.5,63.086,55.767,105.609,72.945-8.436,121.667,5.485C274.972,382.4,319.853,354.9,319.853,354.9s-57.161,83.651-185.426,41.825C23.558,360.568,39.971,265.668,42.41,255.56Z" transform="translate(-40.156 -255.56)" fill="#75a9cf"/>
          </g>
        </g>
        <g id="Grupo_1188703" data-name="Grupo 1188703" transform="translate(18.057)">
          <path id="Trazado_875238" data-name="Trazado 875238" d="M378.154,152.051c6.705,1.921,4.506-9.477,11.515-9.728,5.274-.189,4.491,10.453,12.929,12.511,3.566.87,8.96-5.828,15.1,1.708,6.659,8.169,12.594,4.469,13.813,9.344,1.5,6.016-32.908,2.844-44.283,2.844-9.826,0-38.6,2.438-41.033-2.032-3.038-5.571,18.019-2.1,19.43-7.254C367.848,151.327,371.905,150.261,378.154,152.051Z" transform="translate(-137.504 -85.981)" fill="#fff" opacity="0.54"/>
          <g id="Grupo_1188702" data-name="Grupo 1188702">
            <path id="Trazado_875239" data-name="Trazado 875239" d="M139.807,74.938c5.984,1.714,4.022-8.458,10.277-8.682,4.706-.169,4.008,9.329,11.539,11.166,3.183.776,8-5.2,13.479,1.524,5.944,7.29,11.24,3.988,12.328,8.339,1.343,5.37-29.369,2.538-39.522,2.538-8.769,0-34.445,2.176-36.62-1.812-2.712-4.973,16.081-1.875,17.34-6.475C130.609,74.292,134.229,73.341,139.807,74.938Z" transform="translate(-76.59 -66.254)" fill="#fff"/>
            <path id="Trazado_875240" data-name="Trazado 875240" d="M88.553,113.069c4.993,1.429,3.355-7.057,8.575-7.244,3.927-.141,3.344,7.784,9.627,9.316,2.655.648,6.672-4.34,11.246,1.272,4.959,6.083,9.378,3.328,10.286,6.959,1.12,4.48-24.5,2.118-32.975,2.118-7.317,0-28.739,1.815-30.554-1.513-2.263-4.148,13.418-1.564,14.467-5.4C80.879,112.529,83.9,111.736,88.553,113.069Z" transform="translate(-64.535 -76.516)" fill="#fff" opacity="0.69"/>
          </g>
        </g>
      </g>
      <g id="Grupo_1188828" data-name="Grupo 1188828" transform="translate(53.661 35.64)">
        <g id="Grupo_1188725" data-name="Grupo 1188725" transform="translate(0 100.093)">
          <ellipse id="Elipse_11566" data-name="Elipse 11566" cx="38.427" cy="8.888" rx="38.427" ry="8.888" transform="translate(13.987 91.776)" fill="#cb9123"/>
          <g id="Grupo_1188724" data-name="Grupo 1188724">
            <g id="Grupo_1188705" data-name="Grupo 1188705" transform="translate(0 25.134)">
              <path id="Trazado_875241" data-name="Trazado 875241" d="M82.219,209.112a14.7,14.7,0,0,0-12.093,9.979c-3.692,10.354-.718,23.065-.718,23.065" transform="translate(-66.562 -209.112)" fill="none" stroke="#a66428" stroke-miterlimit="10" stroke-width="5.885"/>
              <path id="Trazado_875242" data-name="Trazado 875242" d="M67.834,247.3s-3.742,4.825-.646,9.695a11.582,11.582,0,0,1,1.174,9.786,8.319,8.319,0,0,0,2.5-4.432l1.241,2.785S74.563,249.464,67.834,247.3Z" transform="translate(-65.962 -219.015)" fill="#522b21"/>
            </g>
            <g id="Grupo_1188723" data-name="Grupo 1188723" transform="translate(4.067)">
              <g id="Grupo_1188706" data-name="Grupo 1188706" transform="translate(11.942 23.776)">
                <path id="Trazado_875243" data-name="Trazado 875243" d="M171.352,214.654s-6.922-8.355-10.15-.781-.858,23.222-.966,27.268-3.046,15.1-4.948,16.8,1.488,5.971,1.478,8.129,2,11.142,1.161,13.918,2.993,4.834,7.947,5.56,2.846-3.574.892-4.419-7.353-8.506-4.491-20.587S184.272,237.709,171.352,214.654Z" transform="translate(-104.986 -208.166)" fill="#99521e"/>
                <path id="Trazado_875244" data-name="Trazado 875244" d="M104.219,211.236s-6.922-8.355-10.15-.782-.858,23.223-.966,27.269-3.045,15.1-4.948,16.8,1.488,5.971,1.478,8.129,2,11.142,1.161,13.918,2.992,4.834,7.947,5.56,2.846-3.574.891-4.419-7.353-8.506-4.491-20.588S117.14,234.291,104.219,211.236Z" transform="translate(-87.576 -207.28)" fill="#99521e"/>
              </g>
              <g id="Grupo_1188722" data-name="Grupo 1188722">
                <g id="Grupo_1188714" data-name="Grupo 1188714">
                  <g id="Grupo_1188712" data-name="Grupo 1188712" transform="translate(55.459)">
                    <path id="Trazado_875245" data-name="Trazado 875245" d="M169.848,204.033s6.119,7.559,10.406,7.107c8.067-.851,13.147-21.892,19.031-25.2s12.7,4.557,9.275,12.806-9.981,41.41-45.494,32.633C126.69,222.386,159.4,196.582,169.848,204.033Z" transform="translate(-146.331 -177.768)" fill="#a66428"/>
                    <g id="Grupo_1188711" data-name="Grupo 1188711" transform="translate(46.274)">
                      <g id="Grupo_1188708" data-name="Grupo 1188708">
                        <g id="Grupo_1188707" data-name="Grupo 1188707">
                          <path id="Trazado_875246" data-name="Trazado 875246" d="M211.875,186.732s-3.091-2.248-3.067-5.453l5.051,2.069S220.07,187.289,211.875,186.732Z" transform="translate(-208.808 -176.76)" fill="#a66428"/>
                          <path id="Trazado_875247" data-name="Trazado 875247" d="M217.5,180.5s-1.855-2.723-.905-5.318l3.5,3.148S223.992,183.33,217.5,180.5Z" transform="translate(-210.757 -175.178)" fill="#a66428"/>
                        </g>
                        <path id="Trazado_875248" data-name="Trazado 875248" d="M213.8,196.826c-3.249-4.625-2.1-9.974.854-14.034,2.248-3.091,6.758-4.635,11.99-1.059s7.278-1.134,11.7.6,3.956,5.014,3.956,5.014,3.779,2.6.956,4.862c0,0,1.378,2.477-1.038,2.655s-5.055-1.16-9.139,2.242S219.742,205.286,213.8,196.826Z" transform="translate(-209.595 -176.343)" fill="#a66428"/>
                      </g>
                      <g id="Grupo_1188710" data-name="Grupo 1188710" transform="translate(3.067 3.476)">
                        <g id="Grupo_1188709" data-name="Grupo 1188709" transform="translate(5.268 5.618)">
                          <path id="Trazado_875249" data-name="Trazado 875249" d="M251.091,195.842a20.66,20.66,0,0,0-5.1-.132,3.808,3.808,0,0,1-3.94-2.012" transform="translate(-225.764 -189.075)" fill="none" stroke="#522b21" stroke-miterlimit="10" stroke-width="1.065"/>
                          <ellipse id="Elipse_11567" data-name="Elipse 11567" cx="1.74" cy="4.176" rx="1.74" ry="4.176" transform="matrix(0.051, -0.999, 0.999, 0.051, 0, 6.907)" fill="#d57129"/>
                          <path id="Trazado_875250" data-name="Trazado 875250" d="M223.215,189.557s1.409,2.441,3.822,1.589,1.442-3.69,1.442-3.69" transform="translate(-220.88 -187.456)" fill="none" stroke="#522b21" stroke-miterlimit="10" stroke-width="1.065"/>
                          <line id="Línea_595" data-name="Línea 595" x1="1.426" y2="1.553" transform="translate(15.454 3.864)" fill="none" stroke="#522b21" stroke-miterlimit="10" stroke-width="1.065"/>
                          <path id="Trazado_875251" data-name="Trazado 875251" d="M245.48,188.887a18.23,18.23,0,0,0-3.37-1.333" transform="translate(-225.78 -187.481)" fill="none" stroke="#522b21" stroke-miterlimit="10" stroke-width="1.065"/>
                        </g>
                        <path id="Trazado_875252" data-name="Trazado 875252" d="M212.949,186.367c.2-.315,1.968-5.8,6.556-6.5" transform="translate(-212.949 -179.871)" fill="none" stroke="#522b21" stroke-miterlimit="10" stroke-width="1.065"/>
                      </g>
                    </g>
                  </g>
                  <g id="Grupo_1188713" data-name="Grupo 1188713" transform="translate(0 0.296)">
                    <path id="Trazado_875253" data-name="Trazado 875253" d="M84.307,195.08s-9.872,11.391,4.887,28.124,54.11,17.623,63.279,5.452,2.145-34.828-13.369-36.733-12.459-18.1-25.936-16.188S100.122,191.053,84.307,195.08Z" transform="translate(-73.948 -175.578)" fill="#a66428"/>
                    <path id="Trazado_875254" data-name="Trazado 875254" d="M157.887,207.427a9.314,9.314,0,0,0-3.362-1.6c-1.644-.283-7.4,3.679-10.63,11.251s-.858,23.223-.966,27.269-3.046,15.1-4.948,16.8,1.487,5.972,1.478,8.129,2,11.141,1.16,13.917,2.993,4.834,7.947,5.561,2.847-3.574.892-4.419-7.353-8.506-4.491-20.587S170.808,230.483,157.887,207.427Z" transform="translate(-88.556 -183.42)" fill="#a66428"/>
                    <path id="Trazado_875255" data-name="Trazado 875255" d="M86.927,202.481s-4.42-.555-6.088-.64-6.781,4.534-8.856,12.436,2.584,23.153,3.076,27.181-.781,15.349-2.412,17.268,2.355,5.75,2.664,7.892,3.631,10.82,3.206,13.676,3.677,4.441,8.688,4.571,2.288-3.888.228-4.493-8.535-7.566-7.489-19.9S103.123,223.825,86.927,202.481Z" transform="translate(-71.453 -182.389)" fill="#a66428"/>
                  </g>
                </g>
                <g id="Grupo_1188721" data-name="Grupo 1188721" transform="translate(11.635 3.174)">
                  <g id="Grupo_1188719" data-name="Grupo 1188719" transform="translate(4.083)">
                    <g id="Grupo_1188715" data-name="Grupo 1188715" transform="translate(78.371 25.445)">
                      <path id="Trazado_875256" data-name="Trazado 875256" d="M215.752,214.684s-3.691,15-17.231,20.866" transform="translate(-198.496 -214.043)" fill="none" stroke="#522b21" stroke-miterlimit="10" stroke-width="1.065"/>
                      <path id="Trazado_875257" data-name="Trazado 875257" d="M217.935,213.818a27.458,27.458,0,0,1-4.674,9.658" transform="translate(-202.318 -213.818)" fill="none" stroke="#522b21" stroke-miterlimit="10" stroke-width="1.065"/>
                      <path id="Trazado_875258" data-name="Trazado 875258" d="M198.487,237.7s5.417-2.372,8.4-6.123" transform="translate(-198.487 -218.423)" fill="none" stroke="#522b21" stroke-miterlimit="10" stroke-width="1.065"/>
                    </g>
                    <g id="Grupo_1188718" data-name="Grupo 1188718">
                      <g id="Grupo_1188716" data-name="Grupo 1188716" transform="translate(13.573)">
                        <path id="Trazado_875259" data-name="Trazado 875259" d="M118.7,179.463a23.129,23.129,0,0,0-7.7,6.159" transform="translate(-110.999 -179.463)" fill="none" stroke="#522b21" stroke-miterlimit="10" stroke-width="1.065"/>
                        <path id="Trazado_875260" data-name="Trazado 875260" d="M119.993,182.416a23.132,23.132,0,0,1,4.5-2.338" transform="translate(-113.332 -179.622)" fill="none" stroke="#522b21" stroke-miterlimit="10" stroke-width="1.065"/>
                        <path id="Trazado_875261" data-name="Trazado 875261" d="M111.275,191.482a15.08,15.08,0,0,1,3.971-5.587" transform="translate(-111.071 -181.131)" fill="none" stroke="#522b21" stroke-miterlimit="10" stroke-width="1.065"/>
                      </g>
                      <g id="Grupo_1188717" data-name="Grupo 1188717" transform="translate(0 40.034)">
                        <line id="Línea_596" data-name="Línea 596" x1="1.105" y1="8.419" transform="translate(37.278 9.703)" fill="none" stroke="#522b21" stroke-miterlimit="10" stroke-width="1.065"/>
                        <path id="Trazado_875262" data-name="Trazado 875262" d="M96.677,242.5s-3.4-4.494-4-8.984" transform="translate(-92.674 -233.515)" fill="none" stroke="#522b21" stroke-miterlimit="10" stroke-width="1.065"/>
                      </g>
                    </g>
                  </g>
                  <g id="Grupo_1188720" data-name="Grupo 1188720" transform="translate(0 95.578)">
                    <path id="Trazado_875263" data-name="Trazado 875263" d="M88.514,312.06s.488-1.369-1.352-3.553" transform="translate(-87.162 -308.507)" fill="none" stroke="#522b21" stroke-miterlimit="10" stroke-width="1.065"/>
                    <path id="Trazado_875264" data-name="Trazado 875264" d="M93.673,312.323s.655-1.918-1.63-3.568" transform="translate(-88.428 -308.571)" fill="none" stroke="#522b21" stroke-miterlimit="10" stroke-width="1.065"/>
                    <path id="Trazado_875265" data-name="Trazado 875265" d="M149.075,315.757a3.164,3.164,0,0,0-.387-3.365" transform="translate(-103.118 -309.515)" fill="none" stroke="#522b21" stroke-miterlimit="10" stroke-width="1.065"/>
                    <path id="Trazado_875266" data-name="Trazado 875266" d="M153.229,316.3s1.044-1.341-.8-3.525" transform="translate(-104.089 -309.613)" fill="none" stroke="#522b21" stroke-miterlimit="10" stroke-width="1.065"/>
                  </g>
                </g>
              </g>
            </g>
          </g>
        </g>
        <g id="Grupo_1188780" data-name="Grupo 1188780" transform="translate(118.158 144.46)">
          <g id="Grupo_1188774" data-name="Grupo 1188774">
            <g id="Grupo_1188731" data-name="Grupo 1188731" transform="translate(46.924 30.157)" opacity="0.43">
              <ellipse id="Elipse_11568" data-name="Elipse 11568" cx="39.604" cy="10.456" rx="39.604" ry="10.456" fill="#424418"/>
            </g>
            <g id="Grupo_1188773" data-name="Grupo 1188773">
              <g id="Grupo_1188732" data-name="Grupo 1188732" transform="translate(52.729 24.313)">
                <path id="Trazado_875267" data-name="Trazado 875267" d="M324.117,282.991s4.007,10.788-13.716,9.246c0,0-2.929-.77-4.161-.154s-2.466,3.083-2.466,3.083-2.158-1.387-.463-4.161c0,0-2.62,0-4.931,3.39,0,0-.616-2.774,2.466-5.7a5.042,5.042,0,0,0-4.161.924,4.742,4.742,0,0,1,3.7-3.853c3.237-.616,10.48.154,10.017-4.161" transform="translate(-296.685 -271.458)" fill="#a1a15b"/>
                <path id="Trazado_875268" data-name="Trazado 875268" d="M385.059,267.9s4.44,18.614-7.524,19.775c0,0-2.989-.484-4.157.249s-2.156,3.306-2.156,3.306-2.281-1.172-.862-4.1c0,0-2.608.253-4.581,3.851,0,0-.881-2.7,1.9-5.914a5.044,5.044,0,0,0-4.052,1.323,4.741,4.741,0,0,1,3.309-4.192c3.161-.927,9.143-1.507,7.7-6.787" transform="translate(-314.046 -267.905)" fill="#a1a15b"/>
              </g>
              <g id="Grupo_1188772" data-name="Grupo 1188772">
                <g id="Grupo_1188739" data-name="Grupo 1188739" transform="translate(0 1.297)">
                  <g id="Grupo_1188737" data-name="Grupo 1188737" transform="translate(28.997 1.853)">
                    <g id="Grupo_1188733" data-name="Grupo 1188733">
                      <path id="Trazado_875269" data-name="Trazado 875269" d="M264.643,256.772s11.4,11.25,25.582,12.791,39.3,12.637,62.723-1.233c5.938-3.515,8.184-5.565,14.178-3.852,7.552,2.158,20.034-2.775,26.661,6.318s-8.63,23.887,2.775,34.983c12.092,11.766,7.705.617,6.01-2.466s-5.548-5.085-2.774-11.558,9.863-7.705,8.63-24.2-20.342-25.119-40.53-26.507-32.671-4.469-60.873,3.853l-6.319,1.7s-2.312-4.315-6.01-2.466-2.928-3.082-8.938-2S264.643,256.772,264.643,256.772Z" transform="translate(-264.643 -239.332)" fill="#57571e"/>
                    </g>
                    <g id="Grupo_1188736" data-name="Grupo 1188736">
                      <g id="Grupo_1188735" data-name="Grupo 1188735" clip-path="url(#clip-path-4)">
                        <g id="Grupo_1188734" data-name="Grupo 1188734" transform="translate(27.861 23.763)">
                          <path id="Trazado_875270" data-name="Trazado 875270" d="M302.259,278.319a65.219,65.219,0,0,0,12.286-1.961c5.359-1.568,18.429-6.012,34.244-4.705s21.174-1.045,23.135,1.438-11.24,10.848-26.664,12.416S312.062,282.633,302.259,278.319Z" transform="translate(-302.259 -271.416)" fill="#424418"/>
                        </g>
                      </g>
                    </g>
                  </g>
                  <g id="Grupo_1188738" data-name="Grupo 1188738">
                    <path id="Trazado_875272" data-name="Trazado 875272" d="M266.352,238.839s-2.616-2.751-5.936-1.815a5.112,5.112,0,0,0-3.306,3.38l-24.34,2.718s-3.049-2.527-4.269,1.045c-2.266.7-5.479,7.879.061,10.851s15.829-1.486,21.171.164c2.636.815,8.69,4.778,13.126,7.333,4.8,2.765,8.953.739,14.772-5.517C283.779,250.386,281.982,237.024,266.352,238.839Z" transform="translate(-225.493 -236.83)" fill="#57571e"/>
                  </g>
                </g>
                <g id="Grupo_1188771" data-name="Grupo 1188771" transform="translate(0.045)">
                  <g id="Grupo_1188765" data-name="Grupo 1188765">
                    <g id="Grupo_1188759" data-name="Grupo 1188759">
                      <g id="Grupo_1188750" data-name="Grupo 1188750" transform="translate(0 8.259)">
                        <g id="Grupo_1188742" data-name="Grupo 1188742" transform="translate(42.435 1.419)">
                          <g id="Grupo_1188740" data-name="Grupo 1188740">
                            <path id="Trazado_875273" data-name="Trazado 875273" d="M282.847,249.868a3.661,3.661,0,0,1,3.581-1.707c2.572.214,2.143,4.071,2.143,4.071Z" transform="translate(-282.847 -248.145)" fill="#dcac3a"/>
                          </g>
                          <g id="Grupo_1188741" data-name="Grupo 1188741" transform="translate(3.133 0.743)">
                            <line id="Línea_597" data-name="Línea 597" x1="0.788" y2="2.37" fill="none" stroke="#383811" stroke-linejoin="round" stroke-width="1"/>
                          </g>
                        </g>
                        <g id="Grupo_1188743" data-name="Grupo 1188743" transform="translate(36.218 6.338)">
                          <ellipse id="Elipse_11569" data-name="Elipse 11569" cx="2.96" cy="6.448" rx="2.96" ry="6.448" transform="matrix(0.177, -0.984, 0.984, 0.177, 0, 5.826)" fill="#6d6e2d"/>
                        </g>
                        <g id="Grupo_1188748" data-name="Grupo 1188748" transform="translate(0 4.304)">
                          <g id="Grupo_1188745" data-name="Grupo 1188745" transform="translate(8.125)">
                            <g id="Grupo_1188744" data-name="Grupo 1188744" transform="translate(0 0.201)">
                              <path id="Trazado_875274" data-name="Trazado 875274" d="M236.523,255.458s1.5-2.941,2.549-3.137S240.64,255,240.64,255A11.712,11.712,0,0,0,236.523,255.458Z" transform="translate(-236.523 -252.312)" fill="#fff"/>
                            </g>
                            <path id="Trazado_875275" data-name="Trazado 875275" d="M255.847,255.192s3.137-.065,4.705.915c0,0-.915-3.791-1.634-4.052S255.847,255.192,255.847,255.192Z" transform="translate(-241.534 -252.041)" fill="#fff"/>
                          </g>
                          <g id="Grupo_1188746" data-name="Grupo 1188746" transform="translate(0 0.864)">
                            <path id="Trazado_875276" data-name="Trazado 875276" d="M225.553,253.207a6.548,6.548,0,0,0,7.36,2.662c4.854-1.409,16.912-1.722,21.924,1.409s10.022,4.542,11.9,1.566" transform="translate(-225.553 -253.207)" fill="none" stroke="#383811" stroke-linejoin="round" stroke-width="1"/>
                          </g>
                          <g id="Grupo_1188747" data-name="Grupo 1188747" transform="translate(40.07 5.675)">
                            <line id="Línea_598" data-name="Línea 598" x2="2.234" y2="1.931" fill="none" stroke="#383811" stroke-linejoin="round" stroke-width="1"/>
                          </g>
                        </g>
                        <g id="Grupo_1188749" data-name="Grupo 1188749" transform="translate(13.854)">
                          <line id="Línea_599" data-name="Línea 599" y1="0.295" x2="2.876" transform="translate(0 2.249)" fill="none" stroke="#383811" stroke-linejoin="round" stroke-width="1"/>
                          <path id="Trazado_875277" data-name="Trazado 875277" d="M244.994,246.333s3.137-.85,3.463,2.32" transform="translate(-244.449 -246.229)" fill="none" stroke="#383811" stroke-linejoin="round" stroke-width="1"/>
                        </g>
                      </g>
                      <g id="Grupo_1188758" data-name="Grupo 1188758" transform="translate(52.238)">
                        <g id="Grupo_1188752" data-name="Grupo 1188752" transform="translate(18.56)">
                          <g id="Grupo_1188751" data-name="Grupo 1188751">
                            <path id="Trazado_875278" data-name="Trazado 875278" d="M321.141,246.62s1.961-3.921,3.268-4.182,3.4,3.4,3.4,3.4S325.323,247.666,321.141,246.62Z" transform="translate(-321.141 -236.984)" fill="#dcac3a"/>
                            <path id="Trazado_875279" data-name="Trazado 875279" d="M335.435,242.032s1.961-3.921,3.268-4.182,3.4,3.4,3.4,3.4S339.618,243.078,335.435,242.032Z" transform="translate(-324.848 -235.794)" fill="#be8a27"/>
                            <path id="Trazado_875280" data-name="Trazado 875280" d="M348.141,240.267s1.961-3.921,3.268-4.183,3.4,3.4,3.4,3.4S352.324,241.313,348.141,240.267Z" transform="translate(-328.143 -235.336)" fill="#dcac3a"/>
                            <path id="Trazado_875281" data-name="Trazado 875281" d="M361.636,238.489s2.735-3.427,4.067-3.41,2.616,4.031,2.616,4.031S365.509,240.383,361.636,238.489Z" transform="translate(-331.643 -235.079)" fill="#be8a27"/>
                            <path id="Trazado_875282" data-name="Trazado 875282" d="M376.283,239.372s2.735-3.427,4.067-3.411,2.616,4.031,2.616,4.031S380.157,241.265,376.283,239.372Z" transform="translate(-335.442 -235.308)" fill="#dcac3a"/>
                            <path id="Trazado_875283" data-name="Trazado 875283" d="M391.283,240.254s2.735-3.427,4.067-3.411,2.616,4.032,2.616,4.032S395.157,242.148,391.283,240.254Z" transform="translate(-339.332 -235.536)" fill="#be8a27"/>
                            <path id="Trazado_875284" data-name="Trazado 875284" d="M406.813,241.666s2.734-3.427,4.067-3.411,2.616,4.031,2.616,4.031S410.686,243.559,406.813,241.666Z" transform="translate(-343.359 -235.903)" fill="#dcac3a"/>
                            <path id="Trazado_875285" data-name="Trazado 875285" d="M420.7,244.407s2.808-2.463,3.923-2.249,1.589,3.774,1.589,3.774A7.042,7.042,0,0,1,420.7,244.407Z" transform="translate(-346.96 -236.911)" fill="#be8a27"/>
                            <path id="Trazado_875286" data-name="Trazado 875286" d="M432.7,248.642s2.808-2.463,3.923-2.249,1.589,3.774,1.589,3.774A7.039,7.039,0,0,1,432.7,248.642Z" transform="translate(-350.072 -238.01)" fill="#dcac3a"/>
                            <path id="Trazado_875287" data-name="Trazado 875287" d="M443.792,255.87s3.3-1.75,4.336-1.285.676,4.039.676,4.039A7.041,7.041,0,0,1,443.792,255.87Z" transform="translate(-352.949 -240.117)" fill="#be8a27"/>
                            <path id="Trazado_875288" data-name="Trazado 875288" d="M451.472,264.758s3.646-.81,4.522-.087-.421,4.074-.421,4.074A7.04,7.04,0,0,1,451.472,264.758Z" transform="translate(-354.941 -242.676)" fill="#dcac3a"/>
                            <path id="Trazado_875289" data-name="Trazado 875289" d="M455.4,274.765s4.234-.248,4.731.624-2.592,3.954-2.592,3.954A6.223,6.223,0,0,1,455.4,274.765Z" transform="translate(-355.96 -245.363)" fill="#be8a27"/>
                            <path id="Trazado_875290" data-name="Trazado 875290" d="M455.2,284.635s4.16.824,4.421,1.793-3.5,3.176-3.5,3.176A6.221,6.221,0,0,1,455.2,284.635Z" transform="translate(-355.873 -247.931)" fill="#dcac3a"/>
                          </g>
                        </g>
                        <g id="Grupo_1188757" data-name="Grupo 1188757" transform="translate(0 5.715)">
                          <g id="Grupo_1188755" data-name="Grupo 1188755">
                            <g id="Grupo_1188753" data-name="Grupo 1188753">
                              <path id="Trazado_875291" data-name="Trazado 875291" d="M309.152,257.042a26.908,26.908,0,0,0-7.973-11.633c1.83,3.267,3.529,11.11,3.529,11.11a41.162,41.162,0,0,0-8.626-13.724" transform="translate(-296.082 -242.795)" fill="none" stroke="#383811" stroke-linejoin="round" stroke-width="1"/>
                            </g>
                            <g id="Grupo_1188754" data-name="Grupo 1188754" transform="translate(12.776 4.704)">
                              <path id="Trazado_875292" data-name="Trazado 875292" d="M313.331,249.146a35.979,35.979,0,0,1,.687,6.406" transform="translate(-313.331 -249.146)" fill="none" stroke="#383811" stroke-linejoin="round" stroke-width="1"/>
                            </g>
                          </g>
                          <g id="Grupo_1188756" data-name="Grupo 1188756" transform="translate(21.435 3.948)">
                            <path id="Trazado_875293" data-name="Trazado 875293" d="M325.023,257.915s1.961-3.922,3.268-4.183,3.4,3.4,3.4,3.4S329.206,258.96,325.023,257.915Z" transform="translate(-325.023 -249.575)" fill="#a1a15b"/>
                            <path id="Trazado_875294" data-name="Trazado 875294" d="M338.082,254.562s1.961-3.922,3.268-4.183,3.4,3.4,3.4,3.4S342.265,255.607,338.082,254.562Z" transform="translate(-328.41 -248.706)" fill="#a1a15b"/>
                            <path id="Trazado_875295" data-name="Trazado 875295" d="M352.854,251.811s2.649-3.493,3.983-3.508,2.714,3.966,2.714,3.966S356.772,253.609,352.854,251.811Z" transform="translate(-332.241 -248.171)" fill="#a1a15b"/>
                            <path id="Trazado_875296" data-name="Trazado 875296" d="M367.5,251.633s2.649-3.492,3.983-3.508,2.714,3.966,2.714,3.966S371.419,253.433,367.5,251.633Z" transform="translate(-336.039 -248.125)" fill="#a1a15b"/>
                            <path id="Trazado_875297" data-name="Trazado 875297" d="M381.618,252.163s2.65-3.493,3.983-3.508,2.714,3.966,2.714,3.966S385.537,253.962,381.618,252.163Z" transform="translate(-339.7 -248.262)" fill="#a1a15b"/>
                            <path id="Trazado_875298" data-name="Trazado 875298" d="M396.442,253.045s2.649-3.492,3.983-3.508,2.714,3.966,2.714,3.966S400.36,254.844,396.442,253.045Z" transform="translate(-343.545 -248.491)" fill="#a1a15b"/>
                            <path id="Trazado_875299" data-name="Trazado 875299" d="M411.442,254.458s2.649-3.493,3.983-3.508,2.714,3.966,2.714,3.966S415.36,256.256,411.442,254.458Z" transform="translate(-347.435 -248.857)" fill="#a1a15b"/>
                            <path id="Trazado_875300" data-name="Trazado 875300" d="M426.331,256.516s3.823-2.146,5.052-1.629.906,4.72.906,4.72S429.206,259.728,426.331,256.516Z" transform="translate(-351.296 -249.858)" fill="#a1a15b"/>
                            <path id="Trazado_875301" data-name="Trazado 875301" d="M438.514,265.118s3.3-1.851,4.359-1.4.781,4.072.781,4.072A7.129,7.129,0,0,1,438.514,265.118Z" transform="translate(-354.456 -252.15)" fill="#a1a15b"/>
                            <path id="Trazado_875302" data-name="Trazado 875302" d="M445.717,275.445s2.933-1.646,3.875-1.25.695,3.62.695,3.62A6.337,6.337,0,0,1,445.717,275.445Z" transform="translate(-356.324 -254.87)" fill="#a1a15b"/>
                            <path id="Trazado_875303" data-name="Trazado 875303" d="M446.005,285.877s2.851-1.6,3.767-1.214.675,3.519.675,3.519A6.16,6.16,0,0,1,446.005,285.877Z" transform="translate(-356.398 -257.585)" fill="#a1a15b"/>
                            <path id="Trazado_875304" data-name="Trazado 875304" d="M443.936,295s2.383-2.237,3.365-2.083,1.5,3.254,1.5,3.254A6.162,6.162,0,0,1,443.936,295Z" transform="translate(-355.862 -259.739)" fill="#a1a15b"/>
                          </g>
                        </g>
                      </g>
                    </g>
                    <g id="Grupo_1188764" data-name="Grupo 1188764" transform="translate(56.552 27.673)">
                      <g id="Grupo_1188762" data-name="Grupo 1188762" transform="translate(9.541)">
                        <g id="Grupo_1188760" data-name="Grupo 1188760" transform="translate(0 7.973)">
                          <path id="Trazado_875305" data-name="Trazado 875305" d="M314.788,283.207s9.672,2.092,14.378,2.745" transform="translate(-314.788 -283.207)" fill="none" stroke="#57571e" stroke-miterlimit="10" stroke-width="1"/>
                        </g>
                        <g id="Grupo_1188761" data-name="Grupo 1188761" transform="translate(47.315)">
                          <path id="Trazado_875306" data-name="Trazado 875306" d="M378.67,278.716s7.973-4.575,11.894-6.274" transform="translate(-378.67 -272.442)" fill="none" stroke="#57571e" stroke-miterlimit="10" stroke-width="1"/>
                        </g>
                      </g>
                      <g id="Grupo_1188763" data-name="Grupo 1188763" transform="translate(0 11.788)">
                        <path id="Trazado_875307" data-name="Trazado 875307" d="M305.435,293.408s1.7-1.829,3.66-.784" transform="translate(-302.821 -289.38)" fill="none" stroke="#424418" stroke-miterlimit="10" stroke-width="1"/>
                        <path id="Trazado_875308" data-name="Trazado 875308" d="M301.906,290.294s2.222-2.745,5.1-1.7" transform="translate(-301.906 -288.357)" fill="none" stroke="#424418" stroke-miterlimit="10" stroke-width="1"/>
                        <path id="Trazado_875309" data-name="Trazado 875309" d="M372.317,292.956s1.569-2.615,3.66-1.7" transform="translate(-320.166 -289.059)" fill="none" stroke="#424418" stroke-miterlimit="10" stroke-width="1"/>
                        <path id="Trazado_875310" data-name="Trazado 875310" d="M369.141,290.381a3.246,3.246,0,0,1,3.66-1.569" transform="translate(-319.343 -288.444)" fill="none" stroke="#424418" stroke-miterlimit="10" stroke-width="1"/>
                      </g>
                    </g>
                  </g>
                  <g id="Grupo_1188770" data-name="Grupo 1188770" transform="translate(40.954 22.008)">
                    <g id="Grupo_1188767" data-name="Grupo 1188767" transform="translate(87.107)">
                      <g id="Grupo_1188766" data-name="Grupo 1188766" transform="translate(0.03 2.223)">
                        <path id="Trazado_875311" data-name="Trazado 875311" d="M398.494,267.8a72.487,72.487,0,0,0,18.124,2.44" transform="translate(-398.494 -267.795)" fill="none" stroke="#383811" stroke-linejoin="round" stroke-width="1"/>
                      </g>
                      <path id="Trazado_875312" data-name="Trazado 875312" d="M415.6,268.467s6.678.247,11.13.33" transform="translate(-402.9 -265.746)" fill="none" stroke="#383811" stroke-linejoin="round" stroke-width="1"/>
                      <path id="Trazado_875313" data-name="Trazado 875313" d="M398.454,264.793a36.63,36.63,0,0,0,10.47,2.391" transform="translate(-398.454 -264.793)" fill="none" stroke="#383811" stroke-linejoin="round" stroke-width="1"/>
                    </g>
                    <g id="Grupo_1188769" data-name="Grupo 1188769" transform="translate(0 2.398)">
                      <g id="Grupo_1188768" data-name="Grupo 1188768" transform="translate(0 2.091)">
                        <path id="Trazado_875314" data-name="Trazado 875314" d="M280.847,270.854a34.82,34.82,0,0,0,14.464,4.531" transform="translate(-280.847 -270.854)" fill="none" stroke="#383811" stroke-linejoin="round" stroke-width="1"/>
                      </g>
                      <path id="Trazado_875315" data-name="Trazado 875315" d="M293.553,273.442a42.484,42.484,0,0,0,9.236,1.046" transform="translate(-284.142 -269.434)" fill="none" stroke="#383811" stroke-linejoin="round" stroke-width="1"/>
                      <path id="Trazado_875316" data-name="Trazado 875316" d="M281.553,268.031A16.338,16.338,0,0,0,288,271.168" transform="translate(-281.03 -268.031)" fill="none" stroke="#383811" stroke-linejoin="round" stroke-width="1"/>
                    </g>
                  </g>
                </g>
              </g>
            </g>
          </g>
        </g>
        <g id="Grupo_1188795" data-name="Grupo 1188795" transform="translate(68.32 209.029)">
          <g id="Grupo_1188791" data-name="Grupo 1188791">
            <g id="Grupo_1188786" data-name="Grupo 1188786" transform="translate(0 20.029)">
              <g id="Grupo_1188784" data-name="Grupo 1188784">
                <path id="Trazado_875317" data-name="Trazado 875317" d="M211.461,350.22s-20.412,13.327-38.8,27.8c-16.08,12.662-17.083,22.373-11.069,25.325,9.088,4.46,41.906,6.705,58.593-5.9s27.11-34.016,46.908-26.178c22.326,8.838,30.311,9.975,27.317,5.741s-12.819-21.291-32.328-25.435S211.461,350.22,211.461,350.22Z" transform="translate(-158.204 -349.299)" fill="#424418"/>
                <g id="Grupo_1188783" data-name="Grupo 1188783">
                  <g id="Grupo_1188782" data-name="Grupo 1188782" clip-path="url(#clip-path-5)">
                    <g id="Grupo_1188781" data-name="Grupo 1188781" transform="translate(-3.11 8.349)">
                      <path id="Trazado_875318" data-name="Trazado 875318" d="M226.926,400.114s-.017-4.485,10.228-7.464,4.466-9.567,11.091-12.688c14.238-6.708,4.662-16.1,17.519-18.65s13.481,1.989,11.511,5.893,15.889,2.4,20.2,9.095-18.328,13.892-27.614,17.567S242.4,409.613,226.926,400.114Z" transform="translate(-172.916 -360.571)" fill="#fff"/>
                      <path id="Trazado_875319" data-name="Trazado 875319" d="M156.994,414.993s5.346-.553,12.583,2.93,9.876-3.42,16.18-3.279,8.556,7.062,8.766,9.323-17.2,15.009-32.124,6.17S156.994,414.993,156.994,414.993Z" transform="translate(-154.004 -374.594)" fill="#fff"/>
                    </g>
                  </g>
                </g>
              </g>
              <g id="Grupo_1188785" data-name="Grupo 1188785" transform="translate(16.332 28.591)">
                <ellipse id="Elipse_11570" data-name="Elipse 11570" cx="12.587" cy="4.568" rx="12.587" ry="4.568" transform="translate(5.376 10.649) rotate(-25.024)" fill="#fff"/>
                <path id="Trazado_875321" data-name="Trazado 875321" d="M186.823,410.4s-2.327-4.777-6.568.05" transform="translate(-180.255 -393.189)" fill="none" stroke="#000" stroke-miterlimit="10" stroke-width="1.165"/>
              </g>
            </g>
            <g id="Grupo_1188790" data-name="Grupo 1188790" transform="translate(37.318)">
              <g id="Grupo_1188788" data-name="Grupo 1188788" transform="translate(88.974 34.596)">
                <g id="Grupo_1188787" data-name="Grupo 1188787">
                  <path id="Trazado_875322" data-name="Trazado 875322" d="M333.235,385.109s-11.618,18.756,2.406,28.535c0,0-.38-5.988,3.44-9.075C345,399.787,346.917,391.8,333.235,385.109Z" transform="translate(-328.717 -373.153)" fill="#424418"/>
                  <path id="Trazado_875323" data-name="Trazado 875323" d="M335.541,381.347s11.865-18.6,26.758-10.2c0,0-5.561,2.254-6.687,7.033C353.868,385.585,347.5,390.775,335.541,381.347Z" transform="translate(-330.487 -368.967)" fill="#424418"/>
                </g>
              </g>
              <g id="Grupo_1188789" data-name="Grupo 1188789">
                <path id="Trazado_875324" data-name="Trazado 875324" d="M228.861,346.314s-1.119-16.991,11.407-23.921a1.06,1.06,0,0,1,1.552,1.13c-.71,3.994-1.738,12.726,1.715,17.374,4.059,5.465,1.615,10.243,1.615,10.243l-15.866,1.3Z" transform="translate(-213.84 -322.258)" fill="#424418"/>
                <path id="Trazado_875325" data-name="Trazado 875325" d="M208.593,421.59s17.671,11.371,31.108,7a1.488,1.488,0,0,0,.392-2.609c-3.2-2.339-8.8-7.129-9.785-12.544C228.919,405.78,208.279,414.713,208.593,421.59Z" transform="translate(-208.589 -345.141)" fill="#424418"/>
              </g>
            </g>
          </g>
          <g id="Grupo_1188794" data-name="Grupo 1188794" transform="translate(14.19 26.66)">
            <g id="Grupo_1188793" data-name="Grupo 1188793">
              <g id="Grupo_1188792" data-name="Grupo 1188792">
                <path id="Trazado_875326" data-name="Trazado 875326" d="M177.363,385.211s14.023-13.6,37.958-26.958" transform="translate(-177.363 -358.253)" fill="none" stroke="#fff" stroke-miterlimit="10" stroke-width="1.165"/>
                <path id="Trazado_875327" data-name="Trazado 875327" d="M195.547,381.247s12.36-8.552,15.883-10.386" transform="translate(-182.079 -361.523)" fill="none" stroke="#fff" stroke-miterlimit="10" stroke-width="1.165"/>
              </g>
              <path id="Trazado_875328" data-name="Trazado 875328" d="M312.769,361.041s7.472,3.707,10.954,9.36" transform="translate(-212.479 -358.976)" fill="none" stroke="#fff" stroke-miterlimit="10" stroke-width="1.165"/>
              <path id="Trazado_875329" data-name="Trazado 875329" d="M320.1,369.314s4.979,4.254,7.161,9.029" transform="translate(-214.38 -361.122)" fill="none" stroke="#fff" stroke-miterlimit="10" stroke-width="1.165"/>
            </g>
          </g>
        </g>
        <g id="Grupo_1188827" data-name="Grupo 1188827" transform="translate(100.163)">
          <g id="Grupo_1188825" data-name="Grupo 1188825">
            <g id="Grupo_1188822" data-name="Grupo 1188822">
              <g id="Grupo_1188799" data-name="Grupo 1188799" transform="translate(38.821 13.999)">
                <g id="Grupo_1188797" data-name="Grupo 1188797">
                  <g id="Grupo_1188796" data-name="Grupo 1188796">
                    <path id="Trazado_875330" data-name="Trazado 875330" d="M256.712,58.938l-3.1,3.47.379,23.406L282.1,99.827l13.037-.31L299.4,88.1,285.713,62.941Z" transform="translate(-253.611 -58.938)" fill="#b82357"/>
                  </g>
                </g>
                <g id="Grupo_1188798" data-name="Grupo 1188798" transform="translate(17.135 17.256)">
                  <path id="Trazado_875331" data-name="Trazado 875331" d="M302.7,101.316c.314.3,20.865,16.349,23.486,31.86.694,4.107-.778,9.18-4.285,2.541s-13.713-19.967-13.713-19.967,4.34,7.243,12.012,35.754,4.26,34.128.655,34.084-12.206-28.644-13.567-42.733a71.537,71.537,0,0,0-6.464-23.9s6.443,16.649-.5,32.969c-5.556,13.068-3.181-12-3.361-23.121-.149-9.176-2.77-12.007-2.77-12.007s3.849,10.61-.992,15.055c-3.654,3.355-4.094-23.831-4.094-23.831l2.352-7.454Z" transform="translate(-279.953 -86.992)" fill="#b82357"/>
                  <path id="Trazado_875332" data-name="Trazado 875332" d="M297.619,82.237s24.309,16.232,23.8,18.989-6.878-.438-6.878-.438,13.091,10.78,10.235,12.613-14.573-8.971-14.573-8.971l-4.737-4.045s4.922,6.928,2.466,8.067-7.633-4.685-7.633-4.685,9.591,15.234,5.779,17.494-13.58-15.582-13.58-15.582,6.384,12.4,3.249,13.963-9.812-11.933-9.812-11.933,2.555,13.561-.039,14.565-5.045-14.621-5.045-14.621.381,6.59-2.5,6.773-1.01-19.907-1.01-19.907,14.988,8.111,19.019,5.266C299.957,97.249,297.619,82.237,297.619,82.237Z" transform="translate(-276.746 -82.237)" fill="#96c2e5"/>
                </g>
              </g>
              <g id="Grupo_1188811" data-name="Grupo 1188811">
                <g id="Grupo_1188803" data-name="Grupo 1188803" transform="translate(37.869)">
                  <path id="Trazado_875333" data-name="Trazado 875333" d="M252.537,57.312s1.082-5.128.353-7.17-1.551-3.68,3.135-4.4,21.269-2.75,24.754-4.942,3.126.882.4,2.736c0,0,14.32-2.2,23.14,5.523s-4.974.489-4.974.489,12.91,10.36,12.279,12.008-8.408-3.535-8.408-3.535,11.971,8.867,11.011,11.208-13.284-6.095-13.284-6.095,14.856,12.68,13.4,15.334-11.6-6.393-11.6-6.393,9.64,9.36,8.014,11.634-14.434-7.039-14.434-7.039,4.9,5.465,3.6,7.047-7.6-3.35-7.6-3.35,5.683,5.388,4.1,6.733S252.537,57.312,252.537,57.312Z" transform="translate(-252.326 -40.037)" fill="#75a9cf"/>
                  <g id="Grupo_1188802" data-name="Grupo 1188802">
                    <g id="Grupo_1188801" data-name="Grupo 1188801" clip-path="url(#clip-path-6)">
                      <g id="Grupo_1188800" data-name="Grupo 1188800" transform="translate(-4.471 -2.741)">
                        <path id="Trazado_875334" data-name="Trazado 875334" d="M285.863,40.82s16.384-1.772,17.986,1.361c1.626,3.18-4.641,8.622-15.711,9.04,0,0,6.187,1.668,5.6,6.545s-6.5,1.977-6.5,1.977,7.124,4.387,7.2,7.861-9.333.381-9.333.381,11.664,8.359,8.14,14.729-30.92-19.051-30.92-19.051l-1.131-12.873Z" transform="translate(-250.153 -37.37)" fill="#dcac3a"/>
                        <path id="Trazado_875335" data-name="Trazado 875335" d="M270.1,38.369s14.912-3.816,13.661-.989-4.077,7.573-13.8,7.941c0,0,5.435,1.465,4.915,5.749s-5.708,1.737-5.708,1.737,6.258,3.854,6.322,6.9-8.2.335-8.2.335,10.246,7.342,7.15,12.937-27.16-16.734-27.16-16.734l-.993-11.308Z" transform="translate(-246.289 -36.337)" fill="#b82357"/>
                      </g>
                    </g>
                  </g>
                </g>
                <g id="Grupo_1188810" data-name="Grupo 1188810" transform="translate(0 20.987)">
                  <path id="Trazado_875337" data-name="Trazado 875337" d="M236.47,68.372s-2.571,3.424-5.214,3.42-3.094,3.475-4.552,6.129-9.172-.553-10.855,3.841-16.059,31.574-14.54,30.9,9.268-9.235,9.268-9.235-8.7,21.733-6.5,19.931,11.474-13.681,11.474-13.681-6.036,24.643-3.271,21.861,9.175-15.569,10.242-19.506c0,0,1.527,16.9,3.432,20.145s4.959-22.158,4.959-22.158,9.427,19.292,12.347,18.08-3.026-20.053-3.026-20.053,8.62,13.044,10.457,14.364c5.1,3.66,1.046-7.189,1.046-7.189s8.521,5.659,9.389,3.723-3.569-9.428-3.569-9.428,2.1,1.247,2.762-.139-5.73-8.555-5.73-8.555a12.655,12.655,0,0,0,6.857-.145s3.24,3.382,5.087,2.011a3.262,3.262,0,0,0,.687-3.768s3.188,2.859,4.774,1.514-6.2-10.624-6.2-10.624Z" transform="translate(-201.198 -68.372)" fill="#75a9cf"/>
                  <g id="Grupo_1188809" data-name="Grupo 1188809">
                    <g id="Grupo_1188808" data-name="Grupo 1188808" clip-path="url(#clip-path-7)">
                      <g id="Grupo_1188807" data-name="Grupo 1188807" transform="translate(-4.619 -0.655)">
                        <g id="Grupo_1188804" data-name="Grupo 1188804" transform="translate(0 1.644)">
                          <path id="Trazado_875338" data-name="Trazado 875338" d="M199.512,105.153s-6.494,15.146-3.968,17.6c2.564,2.486,9.6-1.912,13.246-12.374,0,0-.218,6.405,4.619,7.268s3.794-5.635,3.794-5.635,2.107,8.1,5.407,9.185,3.1-8.812,3.1-8.812,4.574,13.6,11.7,12.1-9.156-35.144-9.156-35.144l-11.978-4.853Z" transform="translate(-194.961 -73.538)" fill="#dcac3a"/>
                          <path id="Trazado_875339" data-name="Trazado 875339" d="M243.5,101.708s7.033,14.9,10.542,14.636c3.561-.271,4.936-8.457-.481-18.12,0,0,4.651,4.41,8.5,1.361s-1.7-6.576-1.7-6.576,7.459,3.79,10.46,2.041-4.543-8.162-4.543-8.162S279.5,92.48,283.1,86.151s-32.381-16.445-32.381-16.445l-11.574,5.75Z" transform="translate(-206.419 -69.706)" fill="#dcac3a"/>
                        </g>
                        <g id="Grupo_1188806" data-name="Grupo 1188806" transform="translate(1.048)">
                          <g id="Grupo_1188805" data-name="Grupo 1188805">
                            <path id="Trazado_875340" data-name="Trazado 875340" d="M202.024,95.839s-8.017,13.139-4.947,12.771,8.435-1.679,11.634-10.868c0,0-.191,5.626,4.057,6.384s3.333-4.949,3.333-4.949,1.851,7.112,4.749,8.067,2.722-7.74,2.722-7.74,4.019,11.947,10.275,10.626S225.8,79.26,225.8,79.26L215.284,75Z" transform="translate(-196.376 -69.435)" fill="#b82357"/>
                            <path id="Trazado_875341" data-name="Trazado 875341" d="M239.432,96.282s4.521,14.712,6.281,12.171,4.335-7.428-.423-15.916c0,0,4.085,3.874,7.469,1.2s-1.5-5.776-1.5-5.776,6.552,3.329,9.189,1.793-3.99-7.17-3.99-7.17,11.608,4.912,14.767-.647-28.443-14.445-28.443-14.445l-10.166,5.051Z" transform="translate(-205.776 -67.487)" fill="#b82357"/>
                          </g>
                        </g>
                      </g>
                    </g>
                  </g>
                </g>
              </g>
              <g id="Grupo_1188821" data-name="Grupo 1188821" transform="translate(15.965 5.077)">
                <g id="Grupo_1188814" data-name="Grupo 1188814">
                  <path id="Trazado_875343" data-name="Trazado 875343" d="M252.408,52.061s-5.893,1.693-8.372-.522-5.639-5.83-9.373-4.265-14,5.678-11.53,13.438,10.683,3.868,10.683,3.868l-.535,7.621,26.831-2.877Z" transform="translate(-222.753 -46.892)" fill="#b82357"/>
                  <g id="Grupo_1188813" data-name="Grupo 1188813">
                    <g id="Grupo_1188812" data-name="Grupo 1188812" clip-path="url(#clip-path-8)">
                      <path id="Trazado_875344" data-name="Trazado 875344" d="M229.545,64.458s-3.075-3.107-2.389-5.42,1.9-4.765,6.966-4.388,7.252,9.221-.076,15.588C222.625,80.16,229.545,64.458,229.545,64.458Z" transform="translate(-223.869 -48.894)" fill="#fff"/>
                    </g>
                  </g>
                </g>
                <g id="Grupo_1188820" data-name="Grupo 1188820" transform="translate(0.533 7.471)">
                  <g id="Grupo_1188815" data-name="Grupo 1188815" transform="translate(3.184)">
                    <ellipse id="Elipse_11571" data-name="Elipse 11571" cx="0.837" cy="1.627" rx="0.837" ry="1.627" transform="translate(1.485 3.102) rotate(-45.927)" fill="#522b21"/>
                    <path id="Trazado_875346" data-name="Trazado 875346" d="M230.394,57.3s-1.66-.96-2.623.437" transform="translate(-227.771 -56.98)" fill="none" stroke="#522b21" stroke-miterlimit="10" stroke-width="1.124"/>
                  </g>
                  <g id="Grupo_1188819" data-name="Grupo 1188819" transform="translate(0 4.743)">
                    <g id="Grupo_1188818" data-name="Grupo 1188818">
                      <path id="Trazado_875347" data-name="Trazado 875347" d="M224.056,66.675s1.3-2.323,4.871-1.066c2.368.834,3.493-2.226,3.493-2.226s4.365,4.225.8,6.3-5.431,2.806-4.811,4.528c.74,2.053.758,2.378-1.363,1.36A7.128,7.128,0,0,1,224.056,66.675Z" transform="translate(-223.472 -63.383)" fill="#dcac3a"/>
                      <g id="Grupo_1188817" data-name="Grupo 1188817">
                        <g id="Grupo_1188816" data-name="Grupo 1188816" clip-path="url(#clip-path-9)">
                          <path id="Trazado_875348" data-name="Trazado 875348" d="M233.9,63.383a7.224,7.224,0,0,1-1.235,4.769c-1.764,2.535-4.451,2.564-3.146,5.258.359.741,1.1,1.469,2.943,1.307s6.825-.9,6.608-6.157A5.1,5.1,0,0,0,233.9,63.383Z" transform="translate(-224.95 -63.383)" fill="#522b21"/>
                        </g>
                      </g>
                    </g>
                    <line id="Línea_600" data-name="Línea 600" x1="0.96" y2="1.66" transform="translate(1.88 3.19)" fill="none" stroke="#522b21" stroke-miterlimit="10" stroke-width="1.124"/>
                  </g>
                </g>
              </g>
            </g>
            <g id="Grupo_1188824" data-name="Grupo 1188824" transform="translate(11.133 10.105)">
              <line id="Línea_601" data-name="Línea 601" y1="7.396" x2="3.798" transform="translate(0.375 26.914)" fill="none" stroke="#522b21" stroke-miterlimit="10" stroke-width="1.124"/>
              <line id="Línea_602" data-name="Línea 602" x1="3.839" y2="7.587" transform="translate(0 31.25)" fill="none" stroke="#522b21" stroke-miterlimit="10" stroke-width="1.124"/>
              <line id="Línea_603" data-name="Línea 603" x2="9.47" y2="4.89" transform="translate(27.3)" fill="none" stroke="#522b21" stroke-miterlimit="10" stroke-width="1.124"/>
              <g id="Grupo_1188823" data-name="Grupo 1188823" transform="translate(64.338 55.172)">
                <path id="Trazado_875350" data-name="Trazado 875350" d="M323.57,185.763s2.252,11.546,6.842,19.574" transform="translate(-308.404 -143.107)" fill="none" stroke="#522b21" stroke-miterlimit="10" stroke-width="0.806"/>
                <line id="Línea_604" data-name="Línea 604" x2="1.543" y2="5.504" transform="translate(13.058 34.445)" fill="none" stroke="#522b21" stroke-miterlimit="10" stroke-width="0.806"/>
                <path id="Trazado_875351" data-name="Trazado 875351" d="M305.846,149.123s-.492,8.944-2.752,12.766" transform="translate(-303.094 -133.605)" fill="none" stroke="#522b21" stroke-miterlimit="10" stroke-width="0.806"/>
                <line id="Línea_605" data-name="Línea 605" x2="0.515" y2="4.277" transform="translate(1.976 8.456)" fill="none" stroke="#522b21" stroke-miterlimit="10" stroke-width="0.806"/>
                <path id="Trazado_875352" data-name="Trazado 875352" d="M335.324,138.094a21.5,21.5,0,0,1,1.792,6.624" transform="translate(-311.453 -130.744)" fill="none" stroke="#522b21" stroke-miterlimit="10" stroke-width="0.806"/>
                <path id="Trazado_875353" data-name="Trazado 875353" d="M329.4,128.171a33.508,33.508,0,0,1,2.929,4.414" transform="translate(-309.915 -128.171)" fill="none" stroke="#522b21" stroke-miterlimit="10" stroke-width="0.806"/>
                <path id="Trazado_875354" data-name="Trazado 875354" d="M318.018,133.115s3.193,11.174,5.576,19.445" transform="translate(-306.964 -129.453)" fill="none" stroke="#522b21" stroke-miterlimit="10" stroke-width="0.806"/>
                <line id="Línea_606" data-name="Línea 606" x2="3.554" y2="12.832" transform="translate(12.53 15.472)" fill="none" stroke="#522b21" stroke-miterlimit="10" stroke-width="0.806"/>
              </g>
            </g>
          </g>
          <g id="Grupo_1188826" data-name="Grupo 1188826" transform="translate(69.785 5.055)">
            <path id="Trazado_875355" data-name="Trazado 875355" d="M301.5,46.862a39.952,39.952,0,0,1,13.025,3.709" transform="translate(-296.994 -46.862)" fill="none" stroke="#522b21" stroke-miterlimit="10" stroke-width="1.124"/>
            <path id="Trazado_875356" data-name="Trazado 875356" d="M295.417,47.962A37.769,37.769,0,0,1,306.191,50.1" transform="translate(-295.417 -47.147)" fill="none" stroke="#522b21" stroke-miterlimit="10" stroke-width="1.124"/>
          </g>
        </g>
      </g>
    </g>
  </g>
</svg>
