<svg id="Grupo_1189793" data-name="Grupo 1189793" xmlns="http://www.w3.org/2000/svg" width="75.078" height="75.693" viewBox="0 0 75.078 75.693">
  <path id="Rectángulo_402596" data-name="Rectángulo 402596" d="M75.078,0h0a0,0,0,0,1,0,0V66.183a9.51,9.51,0,0,1-9.51,9.51H0a0,0,0,0,1,0,0v-.615A75.078,75.078,0,0,1,75.078,0Z" transform="translate(0)" fill="#fdaa30"/>
  <g id="Grupo_1188461" data-name="Grupo 1188461" transform="translate(20.77 23.546)">
    <path id="Trazado_874753" data-name="Trazado 874753" d="M41.949,6.018,36.529.6a2.12,2.12,0,0,0-2.952,0,2.134,2.134,0,0,0-.133,3.085l1.075,1.075L31.41,7.866,28.8,5.257a1.433,1.433,0,0,0-2.024,0L24.826,7.209a1.467,1.467,0,0,0,.058,2.082L4.949,29.226a1.951,1.951,0,0,0-.175,2.555l.076,2.446A3.564,3.564,0,0,0,5.5,36.168l-5.3,5.3a.623.623,0,0,0,.881.881l5.3-5.3A3.564,3.564,0,0,0,8.32,37.7l2.446.076a1.949,1.949,0,0,0,2.555-.175l15.69-15.69a.623.623,0,0,0-.881-.881L25.337,23.82l-6.609-6.61,1.66-1.66,1.976,1.976a.623.623,0,0,0,.881-.881l-1.976-1.976,1.6-1.6,1.976,1.976a.623.623,0,1,0,.881-.881l-1.976-1.976,2.016-2.016,6.61,6.61-2.184,2.184a.623.623,0,0,0,.881.881l2.184-2.184a1.462,1.462,0,0,0,2.082.058L37.29,15.77a1.465,1.465,0,0,0,0-2.024l-2.609-2.609,1.484-1.484a.623.623,0,0,0-.881-.881L33.8,10.256,32.291,8.748,35.4,5.639,38.864,9.1a2.09,2.09,0,0,0,2.952,0,2.136,2.136,0,0,0,.133-3.085ZM12.44,36.717a.7.7,0,0,1-.993,0,.623.623,0,0,0-.421-.182l-2.666-.083A2.342,2.342,0,0,1,6.1,34.188l-.083-2.666A.623.623,0,0,0,5.83,31.1a.7.7,0,0,1,0-.993l1.26-1.26,6.61,6.61ZM24.456,24.7l-9.874,9.874-6.61-6.61,7.52-7.52,1.976,1.976a.623.623,0,0,0,.881-.881l-1.976-1.976,1.473-1.473Zm12.007-9.943a.181.181,0,0,1-.054.13L34.456,16.84a.185.185,0,0,1-.261,0L25.707,8.352c-.006-.052-.111-.033,0-.261l1.952-1.952c.05.011-.009-.116.261,0l8.488,8.489A.181.181,0,0,1,36.462,14.758Zm4.605-6.669-.133.133a.842.842,0,0,1-1.189,0L34.325,2.8a.9.9,0,0,1,.133-1.322.868.868,0,0,1,1.189,0l5.42,5.42A.842.842,0,0,1,41.068,8.089Z" transform="translate(-0.017 0)" fill="#12263f"/>
    <path id="Trazado_874754" data-name="Trazado 874754" d="M130.563,115.091a.623.623,0,1,0,.881-.881L130,112.766a.623.623,0,1,0-.881.881Z" transform="translate(-118.225 -103.229)" fill="#12263f"/>
    <path id="Trazado_874755" data-name="Trazado 874755" d="M184.389,87.506a.623.623,0,0,0,.623-.623V84.571a.623.623,0,1,0-1.246,0v2.312A.623.623,0,0,0,184.389,87.506Z" transform="translate(-168.498 -76.973)" fill="#12263f"/>
    <path id="Trazado_874756" data-name="Trazado 874756" d="M101.193,168.392H103.5a.623.623,0,0,0,0-1.246h-2.312a.623.623,0,0,0,0,1.246Z" transform="translate(-92.215 -153.257)" fill="#12263f"/>
    <ellipse id="Elipse_11492" data-name="Elipse 11492" cx="0.639" cy="0.639" rx="0.639" ry="0.639" transform="translate(14.564 29.72)" fill="#12263f"/>
    <ellipse id="Elipse_11493" data-name="Elipse 11493" cx="0.639" cy="0.639" rx="0.639" ry="0.639" transform="translate(16.683 27.668)" fill="#12263f"/>
  </g>
  <path id="Trazado_874772" data-name="Trazado 874772" d="M9.493,4.127a.788.788,0,0,1,.716.346,1.387,1.387,0,0,1,.222.766,1.27,1.27,0,0,1-.222.741.809.809,0,0,1-.716.321H6.331q0,1.136,0,2.026a8.932,8.932,0,0,1-.049,1.186.851.851,0,0,1-.346.741,1.235,1.235,0,0,1-1.482,0,.851.851,0,0,1-.346-.741V6.3H1.144A1.139,1.139,0,0,1,.23,5.98a.933.933,0,0,1-.222-.741,1.412,1.412,0,0,1,.346-.766.989.989,0,0,1,.79-.346H4.108V1.114A1.022,1.022,0,0,1,4.454.225,1.124,1.124,0,0,1,5.195,0a1.244,1.244,0,0,1,.741.321.989.989,0,0,1,.346.79A7.2,7.2,0,0,1,6.331,2.2q0,.84,0,1.927Z" transform="translate(55.902 63.522) rotate(-43)" fill="#fff"/>
</svg>
