<svg xmlns="http://www.w3.org/2000/svg" xmlns:xlink="http://www.w3.org/1999/xlink" width="213.541" height="136.597" viewBox="0 0 213.541 136.597">
  <defs>
    <filter id="Trazado_876630" x="0" y="3.391" width="213.541" height="133.206" filterUnits="userSpaceOnUse">
      <feOffset dy="3" input="SourceAlpha"/>
      <feGaussianBlur stdDeviation="3" result="blur"/>
      <feFlood flood-opacity="0.161"/>
      <feComposite operator="in" in2="blur"/>
      <feComposite in="SourceGraphic"/>
    </filter>
  </defs>
  <g id="Grupo_1189380" data-name="Grupo 1189380" transform="translate(-1172.347 -830.609)">
    <g transform="matrix(1, 0, 0, 1, 1172.35, 830.61)" filter="url(#Trazado_876630)">
      <path id="Trazado_876630-2" data-name="Trazado 876630" d="M11.238,0H184.3c6.207,0,11.238,2.433,11.238,5.434V109.772c0,3-5.031,5.434-11.238,5.434H11.238C5.031,115.206,0,112.773,0,109.772V5.434C0,2.433,5.031,0,11.238,0Z" transform="translate(9 9.39)" fill="#26c790"/>
    </g>
    <g id="Grupo_1189382" data-name="Grupo 1189382" transform="translate(1220.348 830.617)">
      <path id="Trazado_876716" data-name="Trazado 876716" d="M1615.69,1902.55c4.955,3.576,11.066,7.868,16.987,12.351C1624.693,1908.327,1617.559,1903.191,1615.69,1902.55Z" transform="translate(-1565.699 -1825.539)" fill="none"/>
      <path id="Trazado_876717" data-name="Trazado 876717" d="M1089.919,1166.131c-8.608-7.7-8.834-39.867-16.989-43.643a11.377,11.377,0,0,0-7.211-.833,18.853,18.853,0,0,1-.49,3.4c-3.851,16.46-4.074,21.6-.679,34.959a45.069,45.069,0,0,0,4.174,10.3c11.506.558,27.026,1.467,29.813,2.422C1094.83,1170.065,1091.771,1167.79,1089.919,1166.131Z" transform="translate(-1048.545 -1095.728)" fill="#fc7660"/>
      <path id="Trazado_876718" data-name="Trazado 876718" d="M1208.8,1880.463c-5.92-4.483-12.031-8.774-16.987-12.351-2.786-.955-18.306-1.864-29.812-2.422,4.516,8.3,11.14,15.64,15.987,19.3,6.8,5.134,15.18,9.363,18.348,15.18s19.934,6.191,20.387,5.285,4.984-6.116,6.8-6.72c.714-.238,2.095-.862,3.59-1.532A212.95,212.95,0,0,0,1208.8,1880.463Z" transform="translate(-1141.823 -1791.102)" fill="#ffb199"/>
      <path id="Trazado_876719" data-name="Trazado 876719" d="M1892.5,2107.284l.3-.132c-4.185-5.161-11.249-11.031-18.609-16.6,3.118,2.567,6.365,5.354,9.478,8.177,3.175,2.876,6.211,5.794,8.829,8.557Z" transform="translate(-1807.213 -2001.185)" fill="#fc7660"/>
      <path id="Trazado_876720" data-name="Trazado 876720" d="M278.41,94h-1.359a1.281,1.281,0,1,1,0-2.563h1.359a1.281,1.281,0,0,1,0,2.563Z" transform="translate(-257.649 -85.439)"/>
      <path id="Trazado_876721" data-name="Trazado 876721" d="M1833.039,1630.764c-23.417-39-55.469-39-55.469-39s14.4,29.294,33.69,47.3c2.818-.074,6.433-.281,7.31-.865,1.359-.906,1.133-7.475,1.133-7.475,2.492,2.037,13.591,3.624,13.591,3.624C1833.264,1633.314,1833.191,1632.115,1833.039,1630.764Z" transform="translate(-1716.942 -1535.172)" fill="#414447"/>
      <path id="Trazado_876722" data-name="Trazado 876722" d="M886.737,837.983c-3.834-1.625-6.287-1.916-7.716-1.851-2.245,1.559-4.591,3.437-4.591,3.437a26.332,26.332,0,0,1,7.235,2.257A16.128,16.128,0,0,0,886.737,837.983Z" transform="translate(-873.149 -829.191)" fill="#414447"/>
      <path id="Trazado_876723" data-name="Trazado 876723" d="M1093.478,756.011c3.707,5.594,9.6,14.72,17.244,18.248-6.74-12.773-12.528-23.774-20.869-24.213a23.761,23.761,0,0,0-8.123.831C1086.126,751.342,1091.241,752.636,1093.478,756.011Z" transform="translate(-1066.827 -748.729)" fill="#414447"/>
      <path id="Trazado_876724" data-name="Trazado 876724" d="M1229.245,826.66c8.535,10.645,19.459,10.072,25.283,8.756-5.576-1.954-10.044-4.352-12.372-8.756l-.651-1.232c-7.644-3.531-13.537-12.654-17.244-18.248a8.41,8.41,0,0,0-2.535-2.41A32.875,32.875,0,0,0,1229.245,826.66Z" transform="translate(-1197.61 -799.897)" fill="#fc7660"/>
      <path id="Trazado_876725" data-name="Trazado 876725" d="M1054.515,856.8c-.969-8.723-5.06-23.75-20.358-40.816-11.812-13.175-27.573-15.315-38.822-19.254-5.824,1.314-16.748,1.887-25.283-8.756a32.873,32.873,0,0,1-7.519-21.891c-2.563-1.636-6.071-2.393-9.212-2.724a28.166,28.166,0,0,0-6.6,3.247,28.629,28.629,0,0,0-2.431,1.547c1.429-.066,3.883.226,7.716,1.851a16.126,16.126,0,0,1-5.073,3.843c4.356,2.109,9,6.063,8.659,13.294a11.377,11.377,0,0,1,7.211.833c8.155,3.775,8.381,35.941,16.989,43.643,7.4,6.625,33.538,23.141,43.607,35.558a26.87,26.87,0,0,1,6-2.034c.482,0,1.789,0,3.337-.04-19.294-18.005-33.69-47.3-33.69-47.3S1031.1,817.8,1054.515,856.8Z" transform="translate(-938.419 -761.208)" fill="#a83c2d"/>
      <g id="Grupo_1189381" data-name="Grupo 1189381" transform="translate(-0.001 -0.008)">
        <path id="Trazado_876726" data-name="Trazado 876726" d="M278.41,94h-1.359a1.281,1.281,0,1,1,0-2.563h1.359a1.281,1.281,0,0,1,0,2.563Z" transform="translate(-257.648 -85.431)"/>
        <path id="Trazado_876727" data-name="Trazado 876727" d="M1335.434,1420.042a1.276,1.276,0,0,1-.854-.327c-4.542-4.065-6.788-13.961-8.961-23.531-.214-.942-.427-1.881-.641-2.809a1.281,1.281,0,1,1,2.5-.576c.215.931.429,1.872.643,2.818,2.083,9.178,4.238,18.669,8.171,22.189a1.281,1.281,0,0,1-.855,2.236Z" transform="translate(-1294.06 -1348.349)"/>
        <path id="Trazado_876728" data-name="Trazado 876728" d="M1966.16,2334.619a1.286,1.286,0,0,1-1.147-1.868c.564-1.128,5.957-6.61,8.217-7.363.613-.2,1.879-.772,3.22-1.373l.552-.247a1.281,1.281,0,1,1,1.046,2.339l-.551.247c-1.462.655-2.724,1.221-3.458,1.466-1.355.451-6.167,5.127-6.747,6.1A1.261,1.261,0,0,1,1966.16,2334.619Z" transform="translate(-1891.939 -2218.964)"/>
        <path id="Trazado_876729" data-name="Trazado 876729" d="M1084.877,1187.917a1.281,1.281,0,0,1-1.126-.669c-2.135-3.918-6.939-7.158-12.025-10.588-1.989-1.341-4.046-2.728-5.97-4.182-6.185-4.673-17.255-17.033-20.629-30.3-3.385-13.328-3.285-18.646.674-35.567a17.651,17.651,0,0,0,.458-3.175,1.281,1.281,0,0,1,1.02-1.188,13.281,13.281,0,0,1,2.466-.273,1.281,1.281,0,1,1,.042,2.563c-.35.006-.7.029-1.05.069a20.181,20.181,0,0,1-.443,2.594c-3.878,16.577-3.974,21.393-.684,34.346,3.042,11.965,13.346,24.1,19.69,28.891,1.869,1.412,3.9,2.78,5.858,4.1,5.353,3.61,10.409,7.019,12.843,11.487a1.282,1.282,0,0,1-1.124,1.895Z" transform="translate(-1030.362 -1077.559)"/>
        <path id="Trazado_876730" data-name="Trazado 876730" d="M1793.042,1622.125a1.281,1.281,0,0,1-.874-.345c-19.244-17.961-33.821-47.378-33.966-47.673a1.281,1.281,0,0,1,1.15-1.847c.338,0,8.413.057,19.474,4.987,10.15,4.523,24.824,14.2,37.093,34.64a1.281,1.281,0,0,1,.175.516c.139,1.231.228,2.472.263,3.687a1.281,1.281,0,0,1-1.462,1.306c-.96-.137-8.085-1.191-12.109-2.777-.052,2.777-.446,5.574-1.723,6.426-.442.295-1.361.907-7.987,1.08Zm-31.51-47.142c3.589,6.839,16.178,29.62,32,44.565,4.565-.143,5.789-.506,6.062-.617.423-.666.705-3.588.609-6.384a1.281,1.281,0,0,1,2.092-1.036c1.429,1.168,7.23,2.426,11.425,3.111-.037-.551-.085-1.1-.143-1.656-11.856-19.634-25.927-28.955-35.663-33.319A55.829,55.829,0,0,0,1761.532,1574.982Z" transform="translate(-1698.722 -1516.945)"/>
        <path id="Trazado_876731" data-name="Trazado 876731" d="M861.175,816.624a20.967,20.967,0,0,1,7.843,1.961,1.281,1.281,0,0,1,.484,2,17.363,17.363,0,0,1-5.523,4.188,1.281,1.281,0,0,1-1.092-.012,25.113,25.113,0,0,0-6.841-2.14,1.281,1.281,0,0,1-.636-2.271c.1-.078,2.406-1.923,4.661-3.489a1.281,1.281,0,0,1,.673-.228Q860.947,816.624,861.175,816.624Zm5.048,3.62a15.6,15.6,0,0,0-5.005-1.057c-.7.5-1.408,1.015-2.035,1.487a28.035,28.035,0,0,1,4.251,1.514A14.44,14.44,0,0,0,866.223,820.244Z" transform="translate(-854.929 -810.964)"/>
        <path id="Trazado_876732" data-name="Trazado 876732" d="M1092.5,757.313a1.281,1.281,0,0,1-1.134-.684l-.041-.077c-6.527-12.371-12.165-23.054-19.762-23.454a22.537,22.537,0,0,0-7.691.779,1.281,1.281,0,1,1-.731-2.456,25.039,25.039,0,0,1,8.556-.882c9.051.476,15,11.756,21.894,24.818l.041.077a1.282,1.282,0,0,1-1.132,1.88Z" transform="translate(-1048.603 -730.492)"/>
        <path id="Trazado_876733" data-name="Trazado 876733" d="M1337.213,1112.891c-6.071,0-13.713-2-20.082-9.939a1.281,1.281,0,1,1,2-1.6,22.541,22.541,0,0,0,19.344,8.944c-3.445-1.643-6.658-3.934-8.565-7.543l-.651-1.233a1.281,1.281,0,0,1,2.266-1.2l.651,1.232c1.845,3.49,5.333,5.926,11.662,8.145a1.281,1.281,0,0,1-.141,2.459A29.579,29.579,0,0,1,1337.213,1112.891Z" transform="translate(-1286.495 -1075.379)"/>
        <path id="Trazado_876734" data-name="Trazado 876734" d="M937.372,770.14a1.281,1.281,0,0,1-1.28-1.342c.254-5.342-2.417-9.407-7.937-12.08a1.281,1.281,0,0,1,.025-2.318,13.921,13.921,0,0,0,3.315-2.2,14.5,14.5,0,0,0-5.365-1.051,1.281,1.281,0,0,1-.79-2.333,29.536,29.536,0,0,1,2.548-1.619c.342-.187.706-.409,1.1-.652a23.18,23.18,0,0,1,5.745-2.7,1.281,1.281,0,1,1,.73,2.456,20.666,20.666,0,0,0-5.141,2.429l-.486.295a28.871,28.871,0,0,1,4.445,1.513,1.281,1.281,0,0,1,.484,2,17.59,17.59,0,0,1-3.427,3.006c4.591,2.849,7.089,6.887,7.312,11.831a12.938,12.938,0,0,1,2.285.008,1.281,1.281,0,0,1-.234,2.552,10.375,10.375,0,0,0-3.072.175A1.281,1.281,0,0,1,937.372,770.14Z" transform="translate(-920.198 -742.921)"/>
        <path id="Trazado_876735" data-name="Trazado 876735" d="M1372.1,1200.219a1.282,1.282,0,0,1-.524-2.452c3.253-1.453,4.968-2.145,5.92-2.145h.206c-18.115-18.058-31.57-45.212-31.709-45.5a1.282,1.282,0,0,1,1.15-1.847c.338,0,8.412.057,19.474,4.987,9.215,4.107,22.158,12.464,33.646,29.261-2.1-8.954-7.217-20.818-18.964-33.922-9.16-10.217-20.687-13.6-30.856-16.586-2.5-.733-4.865-1.428-7.09-2.194a29.542,29.542,0,0,1-6.116.654c-6.072,0-13.718-1.994-20.088-9.937a1.281,1.281,0,0,1,2-1.6c8.109,10.111,18.518,9.545,24,8.307a1.281,1.281,0,0,1,.706.041c2.263.792,4.714,1.512,7.31,2.274,9.978,2.929,22.4,6.574,32.042,17.334,15.156,16.907,19.61,31.916,20.677,41.53a1.281,1.281,0,0,1-2.372.8c-11.886-19.8-26.033-29.177-35.807-33.559a55.831,55.831,0,0,0-16.382-4.664c3.617,6.893,16.379,29.989,32.384,44.924a1.281,1.281,0,0,1-.841,2.218c-1.563.041-2.884.041-3.37.041a34.81,34.81,0,0,0-4.874,1.922A1.278,1.278,0,0,1,1372.1,1200.219Z" transform="translate(-1286.514 -1092.965)"/>
        <path id="Trazado_876736" data-name="Trazado 876736" d="M1330.016,1396.874a1.277,1.277,0,0,1-.854-.326c-4.541-4.063-6.786-13.954-8.958-23.52-.341-1.5-.679-2.991-1.023-4.446a1.281,1.281,0,0,1,2.494-.59c.346,1.462.686,2.961,1.029,4.469,2.083,9.173,4.236,18.659,8.168,22.177a1.281,1.281,0,0,1-.855,2.236Z" transform="translate(-1288.641 -1325.179)"/>
        <path id="Trazado_876737" data-name="Trazado 876737" d="M1150.271,1273.115a1.281,1.281,0,0,1-1.28-1.229c-.163-4,2.454-8.976,2.565-9.186a1.281,1.281,0,0,1,2.264,1.2c-.024.045-2.4,4.577-2.268,7.879a1.281,1.281,0,0,1-1.228,1.333Z" transform="translate(-1129.661 -1227.092)"/>
        <path id="Trazado_876738" data-name="Trazado 876738" d="M1203.131,1473.055a1.281,1.281,0,0,1-1.279-1.229c-.163-4,2.453-8.976,2.565-9.186a1.281,1.281,0,0,1,2.264,1.2c-.024.045-2.4,4.577-2.268,7.879a1.281,1.281,0,0,1-1.228,1.333Z" transform="translate(-1179.048 -1413.893)"/>
        <path id="Trazado_876739" data-name="Trazado 876739" d="M1409.7,1337.844a1.28,1.28,0,0,1-1.078-.587c-2.307-3.581-3.244-9.16-3.283-9.4a1.281,1.281,0,0,1,2.529-.416c.009.053.892,5.3,2.909,8.424a1.282,1.282,0,0,1-1.076,1.976Z" transform="translate(-1369.15 -1287.214)"/>
        <path id="Trazado_876740" data-name="Trazado 876740" d="M1508.341,1619.988a1.276,1.276,0,0,1-.781-.266c-3.269-2.518-4.491-7.758-4.542-7.98a1.281,1.281,0,0,1,2.5-.569c.018.076,1.082,4.574,3.607,6.518a1.281,1.281,0,0,1-.783,2.3Z" transform="translate(-1460.4 -1552.369)"/>
        <path id="Trazado_876741" data-name="Trazado 876741" d="M1828.921,2025.608a1.275,1.275,0,0,1-.781-.266c-3.269-2.518-4.491-7.758-4.542-7.98a1.281,1.281,0,0,1,2.5-.569c.016.07,1.081,4.573,3.607,6.519a1.281,1.281,0,0,1-.783,2.3Z" transform="translate(-1759.914 -1931.335)"/>
        <path id="Trazado_876742" data-name="Trazado 876742" d="M1792.151,2171.528a1.275,1.275,0,0,1-.781-.266c-3.269-2.518-4.491-7.758-4.542-7.98a1.281,1.281,0,0,1,2.5-.569c.016.07,1.081,4.573,3.607,6.518a1.282,1.282,0,0,1-.783,2.3Z" transform="translate(-1725.561 -2067.667)"/>
        <path id="Trazado_876743" data-name="Trazado 876743" d="M1569.414,1436.981a1.28,1.28,0,0,1-1.023-.508c-2.035-2.689-3.275-8.343-3.327-8.582a1.281,1.281,0,0,1,2.5-.542c.32,1.478,1.46,5.721,2.865,7.577a1.282,1.282,0,0,1-1.021,2.055Z" transform="translate(-1518.373 -1380.613)"/>
        <path id="Trazado_876744" data-name="Trazado 876744" d="M1686.434,1764.658a1.281,1.281,0,0,1-1.1-.621c-1.4-2.32-4.026-8.178-4.137-8.426a1.281,1.281,0,1,1,2.339-1.048c.027.059,2.678,5.965,3.995,8.153a1.282,1.282,0,0,1-1.1,1.942Z" transform="translate(-1626.796 -1686.561)"/>
        <path id="Trazado_876745" data-name="Trazado 876745" d="M1581.844,1873.818a1.281,1.281,0,0,1-1.1-.621c-1.4-2.32-4.026-8.178-4.138-8.426a1.281,1.281,0,0,1,2.339-1.049c.027.059,2.678,5.965,4,8.153a1.282,1.282,0,0,1-1.1,1.942Z" transform="translate(-1529.079 -1788.547)"/>
        <path id="Trazado_876746" data-name="Trazado 876746" d="M533.291,1618a1.281,1.281,0,0,1-.034-2.562l18.963-.506,8.193-20.88a1.281,1.281,0,1,1,2.386.936l-8.5,21.67a1.281,1.281,0,0,1-1.159.813l-19.812.529Z" transform="translate(-497.05 -1488.539)"/>
        <path id="Trazado_876747" data-name="Trazado 876747" d="M697.811,1851.185a1.282,1.282,0,0,1-1.088-1.956l3.147-5.084-8.534-3.714a1.281,1.281,0,0,1,1.023-2.35l9.892,4.3a1.281,1.281,0,0,1,.578,1.849l-3.926,6.343A1.281,1.281,0,0,1,697.811,1851.185Z" transform="translate(-645.186 -1717.196)"/>
        <path id="Trazado_876748" data-name="Trazado 876748" d="M859.607,1678.561a1.282,1.282,0,0,1-.248-2.538l14.606-2.9.523-9.726a1.281,1.281,0,0,1,2.559.138l-.576,10.72a1.282,1.282,0,0,1-1.03,1.188l-15.582,3.1A1.291,1.291,0,0,1,859.607,1678.561Z" transform="translate(-801.923 -1552.953)"/>
        <path id="Trazado_876749" data-name="Trazado 876749" d="M962.854,1807.347a1.282,1.282,0,0,1-1.194-1.746l2.313-5.942-7.742-1.647a1.281,1.281,0,0,1,.533-2.507l9.216,1.961a1.281,1.281,0,0,1,.927,1.718l-2.859,7.347A1.282,1.282,0,0,1,962.854,1807.347Z" transform="translate(-892.446 -1677.49)"/>
        <path id="Trazado_876750" data-name="Trazado 876750" d="M1099.34,1834.918a1.276,1.276,0,0,1-.8-.281l-3.02-2.416a1.281,1.281,0,1,1,1.6-2l3.02,2.416a1.281,1.281,0,0,1-.8,2.282Z" transform="translate(-1023.081 -1709.689)"/>
      </g>
    </g>
  </g>
</svg>
