<svg xmlns="http://www.w3.org/2000/svg" width="82" height="82" viewBox="0 0 82 82">
  <g id="Grupo_1189736" data-name="Grupo 1189736" transform="translate(-768.781 -1963)">
    <rect id="Rectángulo_402627" data-name="Rectángulo 402627" width="82" height="82" transform="translate(768.781 1963)" fill="none"/>
    <g id="Grupo_1189738" data-name="Grupo 1189738" transform="translate(781.511 1975.731)">
      <path id="Trazado_877776" data-name="Trazado 877776" d="M1.657,56.538H54.883a1.656,1.656,0,0,0,1.656-1.656v-23.3a1.656,1.656,0,0,0-1.656-1.656H46.491V1.656A1.656,1.656,0,0,0,43.353.915a64.98,64.98,0,0,0-6.8,28.918v.092H33.239V1.656A1.656,1.656,0,0,0,30.1.915a64.98,64.98,0,0,0-6.8,28.918v.092H19.988V1.656A1.656,1.656,0,0,0,16.85.915a64.981,64.981,0,0,0-6.8,28.918v.092H1.657A1.656,1.656,0,0,0,0,31.582v23.3a1.656,1.656,0,0,0,1.656,1.656ZM39.865,29.833A61.854,61.854,0,0,1,43.178,9.9V34.895a1.656,1.656,0,1,1-3.313,0Zm-13.251,0A61.854,61.854,0,0,1,29.927,9.9V34.895a1.656,1.656,0,1,1-3.313,0Zm-13.251,0A61.854,61.854,0,0,1,16.675,9.9V34.895a1.656,1.656,0,1,1-3.313,0ZM3.314,33.238H10.05v1.656a4.969,4.969,0,1,0,9.938,0V33.238H23.3v1.656a4.969,4.969,0,1,0,9.938,0V33.238h3.313v1.656a4.969,4.969,0,1,0,9.938,0V33.238h6.736V53.226H3.314Z" transform="translate(0 0)"/>
      <ellipse id="Elipse_11681" data-name="Elipse 11681" cx="1.283" cy="1.924" rx="1.283" ry="1.924" transform="translate(20.573 39.814)"/>
      <ellipse id="Elipse_11682" data-name="Elipse 11682" cx="1.283" cy="1.924" rx="1.283" ry="1.924" transform="translate(33.401 39.814)"/>
      <circle id="Elipse_11683" data-name="Elipse 11683" cx="1.924" cy="1.924" r="1.924" transform="translate(46.23 39.814)"/>
      <circle id="Elipse_11684" data-name="Elipse 11684" cx="1.924" cy="1.924" r="1.924" transform="translate(6.462 39.814)"/>
      <circle id="Elipse_11685" data-name="Elipse 11685" cx="1.924" cy="1.924" r="1.924" transform="translate(12.876 46.228)"/>
      <ellipse id="Elipse_11686" data-name="Elipse 11686" cx="1.283" cy="1.924" rx="1.283" ry="1.924" transform="translate(26.987 46.228)"/>
      <circle id="Elipse_11687" data-name="Elipse 11687" cx="1.924" cy="1.924" r="1.924" transform="translate(39.816 46.228)"/>
    </g>
  </g>
</svg>
