<svg xmlns="http://www.w3.org/2000/svg" width="81.504" height="92.172" viewBox="0 0 81.504 92.172">
  <g id="Grupo_1189370" data-name="Grupo 1189370" transform="translate(-0.051 8)">
    <g id="Grupo_1188468" data-name="Grupo 1188468" transform="translate(0 1.548)">
      <path id="Rectángulo_402603" data-name="Rectángulo 402603" d="M81.5,0h0a0,0,0,0,1,0,0V82.172a0,0,0,0,1,0,0H0a0,0,0,0,1,0,0V81.5A81.5,81.5,0,0,1,81.5,0Z" transform="translate(0.051 0.452)" fill="#26c790"/>
      <path id="Trazado_876726" data-name="Trazado 876726" d="M76.688,41.945a13.892,13.892,0,0,1-.049-1.987,11.877,11.877,0,0,0-.057-1.737c-.4-2.368-.78-4.744-1.3-7.086a13.684,13.684,0,0,0-4.806-8.173,7.912,7.912,0,0,0-3.1-1.53c-4.615-1.116-10.85,1.11-12.2,4.594-.178.463-.476.877-.7,1.325-1.182,2.387-2.523,4.712-3.49,7.182A33.325,33.325,0,0,0,48.5,44.675a69.65,69.65,0,0,0,1.081,9.343,11.744,11.744,0,0,0,4.893,6.372,3.631,3.631,0,0,0,.883.437c1.35.433,2.692.907,4.065,1.241a9.484,9.484,0,0,0,5.161.177c1.113-.35,2.2-.764,3.294-1.181A12.992,12.992,0,0,0,75.568,52.7,22.016,22.016,0,0,0,76.688,41.945ZM71.647,32.24c.4-.4,1.342-1.663,1.572-.768.044.331-2.747,3.477-2.468,3.7.157.263,1.14-1.119,1.741-1.641.268-.233,1.238-1.6,1.417-.841a3.743,3.743,0,0,1-.68,1.5l-1.6,1.989,0,.009c-.412.449-.9,1.034-1.259,1.4-.3.3-1.34.71-1.075.117.332-.679,1.365-1.843,1.013-2.078a17.145,17.145,0,0,1-2.464,3.022c-1.153.892-1.042-.065-1.042-.065l3.767-5.048C70.946,33.112,71.255,32.627,71.647,32.24ZM69.715,33.6s-3.293,4.837-3.794,4.9c-1.274.043.795-1.7.867-1.817a42.336,42.336,0,0,1,3.936-5.253c.522-.058-.408,1.192-1.009,2.171Zm-4.982,2.491c-.3.387-.909,1.627-1.3,1.4-.71-.422.183-1.174.337-1.53.294-.674,6.208-7.789,6.208-7.789s1.175-.524.441.463C68.55,31.134,66.638,33.608,64.733,36.087Zm-.4-12.82c.037,0,.064.11.1.169.086.283-.43.525-.45.09a1.757,1.757,0,0,0-.124-.245c-.033-.191.29-.3.479-.013Zm.085,1.684c.638.664-1.541,2.866-1.991,2.642C61.719,26.873,64.019,24.574,64.421,24.951Zm-3.573.615c.106-.149.771-.725,1.064-.6.432.315-.422.944-.533,1.1s-.363.735-.648.522C60.1,26.292,60.736,25.723,60.848,25.566Zm-.121,34.317c-.319-.918,2.129-1.113,2.049-.144C62.707,60.221,60.965,60.465,60.727,59.882Zm6.486-1.269c-.093.2-.181.393-.205.425-.561.724-1.176.433-.6-.183.065-.134.167-.32.195-.384C66.729,58.181,67.454,58.231,67.213,58.614Zm4.559-3.751c-.6.966-1.753,2.745-2.483,2.273-.479-.416,1.448-2.96,1.648-3.261.4-.614-.047-1.163-.541-.526,0,0-2.91,4.38-3.229,4.2-.033-.018-.124-.074-.27-.166-.24-.456,1.453-1.545,1.017-1.8-.169-.343-.6.233-1.036.4-.633-.324,1.743-2.192,2.563-3.246.1-.13.194-.266.281-.4.869-1.12.08-1.8-.944-.719-.844.841-4.817,5.538-5.6,6.328-.369.428-.837-.089-.284-.782,0,0,2.551-3.573,2.655-3.662.17-.55-.073-.878-.556-.551a1.818,1.818,0,0,0-.443.418v0l-2.868,3.924c-.347.389-.611.776-.78.46a2.412,2.412,0,0,1,.469-2.085h0C64.51,49.9,67.818,50.2,67.818,50.2l0-.008c.466,0,.93,0,1.392-.041,2.156-.174,3.734,2.812,2.559,4.708Zm1.447-2.529c-.392-.492-.638-.759-.838-1.058a3.58,3.58,0,0,0-3.371-1.663c-.321.013-.951-.039-.951-.039-4.574.121-7.212,6.244-7.212,6.244s-.879,1.611-1.29,2.376c-.719.867-2.878.24-4.123-.571a7.76,7.76,0,0,1-3.353-3.814,22.163,22.163,0,0,1-.575-12.494,36.787,36.787,0,0,1,3.565-10.337c.568-1,1.217-1.956,1.979-3.173.3.507.472.75.6,1.014.47.959,3.124.97,6.457-1.019a4.629,4.629,0,0,0,1.676-4.337c2.387.206,3.777,1.58,4.923,3.385-2.309,1.091-6.652,6.65-6.773,6.736-2.458-.2-6.909,4.411-7.13,4.57a5.8,5.8,0,0,0-2.036,4.79c.069,1.6,4.038.668,5.8-.623.854-.613,1.048-4.122,1.455-3.659a5.645,5.645,0,0,0,5.5,1.407c2.091-.609,6.355-5.4,6.355-5.4l.057-.028a38.966,38.966,0,0,1,.954,9.709C74.927,47.012,74.081,49.524,73.22,52.334ZM60.6,39.305c-.016.168-.306.311-.473.464-.512.163-.214-.506-.321-.759-.142-.433-.443.223-.677.341-1,.161.593-1.909,2.795-4,.8-.536-.028.7-.2.988-.387.635-.821,1.243-1.236,1.863a4.734,4.734,0,0,1,.116,1.1Zm-3.182,2.984c.714-.377,1.352-.715,1.978-1.047.606-.438.241.7-.082.774C58.734,42.159,57,42.934,57.417,42.289ZM57,40.41a1.161,1.161,0,0,1-.15-.155c-.257-.254-.087-.618.153-.391.054.052.109.1.161.155C57.593,40.425,57.219,40.752,57,40.41Zm1-.1c.064.028.167.047.18.09.018.06-.034.141-.055.213l-.167.059C57.593,40.607,57.75,40.256,58,40.312ZM44.082,25a18.744,18.744,0,0,0-6.067-5.807,19.278,19.278,0,0,0-7.155-2.775c-1.607-.3-7.576-1.235-10.726-.747a43.151,43.151,0,0,0-6.907,2.343A6.034,6.034,0,0,0,11,20.62c-1.438,3.362-.351,10.465,1.618,12.231.174.156.928,1.568,1.374,1.978,1.62,1.493,3.106,3.131,4.718,4.795-.426.423-.751.794-1.122,1.107a19.438,19.438,0,0,0-5.765,8.577A56.884,56.884,0,0,0,10,58.652a23.5,23.5,0,0,0,3.178,11.416,4.841,4.841,0,0,0,1.313,1.48,7.665,7.665,0,0,0,6.557,1.457c4.684-1.057,9.1-2.667,12.722-5.971,3.011-2.744,5.968-5.528,7.772-9.284a20.046,20.046,0,0,0,1.327-2.668,18.054,18.054,0,0,0,.259-2.662,16.888,16.888,0,0,0-.582-8.619c-.089-.229-.136-.474-.224-.791.455-.643.951-1.3,1.4-1.987a13.214,13.214,0,0,0,2.426-5.4,26.614,26.614,0,0,1,.56-2.688,5.824,5.824,0,0,0-.517-4.549c-.679-1.14-1.427-2.241-2.109-3.38Zm-.951,4.025c.435.486-3.559,4.641-3.775,4.308-.584-.515,3.411-4.911,3.775-4.308Zm-1.144-2.351c.878,1.118-5.389,7.216-5.825,6.925C34.856,32.27,41.535,26.146,41.988,26.675Zm-2.5-.136,0,0L37.6,28.8c-3.092,3.467-3.543,2.644-.552-.767l3.559-3.72C41.447,24.961,39.934,25.977,39.484,26.539Zm.17-2.929-3.2,3.824c-.771.887-2.119,2.468-2.473,2.173-.525-.437,4.446-6.223,5.017-6.261.174-.011,1.049-.241.659.264ZM32.17,36.449c-1.208-.656,1.2-3.59,1.871-3.05C34.435,33.618,32.446,36.616,32.17,36.449Zm5.84-13.924c.3.39-2.043,2.876-2.043,2.876s-1.926,2.723-2.229,2.57c-.264-.141-.209-.443-.12-.761C33.619,27.21,37.251,21.865,38.01,22.526Zm-4.719,4.216a.425.425,0,0,1-.367,0c-.612-.447,2.317-3.539,2.586-3.762C36.477,22.978,33.291,26.741,33.291,26.741Zm-18.6.328c-.214.357-.564.474-.316-.359a9.978,9.978,0,0,1,4.546-4.251C19.408,22.751,14.923,26.633,14.7,27.069Zm7.228-5.776c.18.123-1.053,1.294-1.88,2.222,0,0-4.456,4.94-4.616,4.808C14.721,27.333,21.479,20.774,21.924,21.293Zm-1.91,4.349s-2.273,2.029-2.276,2.012c-.62.679-1.5,1.01-1.02.163.056-.2,4.269-4.267,4.893-4.7C22.216,23.123,20.961,24.692,20.013,25.642Zm-6.663,37.7c-.864.328.29-2.135.75-2.8.286-.421,3.387-3.856,2.45-1.515l-2.227,3.444C14,62.94,13.715,63.011,13.35,63.339Zm1.57-.376,2.965-4.85c.523-.994,1.7-1.724,1.908-1.323L14.912,63.96C13.632,65.3,14.92,62.963,14.92,62.963Zm.137,2.285,0,.007,5.754-8.526c.336-.225.694.515.454.91a26.83,26.83,0,0,0-1.97,2.836s-3.9,5.653-4.334,6.143C14.174,66.843,14.744,65.951,15.057,65.249Zm6.674-7.276c.452-.484,1.036.22,1.059,1.064.008.3-1.181,5.536-5.336,7.366l-1.012.349c-.367.03-.068-.514.215-1.058L20,60.8A31.265,31.265,0,0,0,21.731,57.972Zm15.806,2.3c-2.749,3.349-5.744,6.414-9.873,8.1-.915.375-1.789.854-2.678,1.294a6.079,6.079,0,0,1-5.256.247c-.909-.373-1.49-.252-.844.1a6.243,6.243,0,0,1,.811.645c.3.646-4-.541-3.347-1.115.284-.2.874-.1.652-.464-.493-.4-2.242-1.076-1.652-1.36.669-.3,1.727-.58,2.378-.89h0s5.871-1.7,5.4-8.947a2.058,2.058,0,0,0-1.865-1.774,6.988,6.988,0,0,0-6.736,2.3c-.566.591-1.039,1.271-1.788,2.2A23.649,23.649,0,0,1,16.087,47.43c.416-.976.8.169,1.075.51a2.945,2.945,0,0,0,3.544,1,28.377,28.377,0,0,0,5.743-5.421,12.576,12.576,0,0,0,8,1.852c.163-.019,2.77-.089,3.727-.852a4.022,4.022,0,0,1,.577-.3c1.012-.335,2.212,1.882,1.494,2.179a21.959,21.959,0,0,0-3.54,1.586,23.681,23.681,0,0,0-2.916,2.705,7.982,7.982,0,0,0-2.08.035,8.351,8.351,0,0,0-2.684,1.2c-3.8,2.781-4.88,6.785-3.781,7.066a3.937,3.937,0,0,0,3.083-.144c.543-.255,3.432-1.876,3.957-1.559,1.033.623,1.981,1.446,3.888.662,1.856-.764,3.719-4.113,3.719-4.113.187-.331.575-.652.557-.293a24.526,24.526,0,0,1-2.908,6.733ZM24.151,42c.441.3.853.587,1.266.864,0,0-3.4,4.148-3.606,4.371-.632.7-2.242.754-1.386-.241C20.482,46.873,23.282,44.051,24.151,42Zm1.177-12.081c.288.505-3.8,4.735-4.275,4.2-.414-.445,3.579-4.983,4.275-4.2ZM34.9,42.828l-.759.107c-.71.033,2.71-5.646,3.273-5.449.712.157-2.514,5.342-2.514,5.342Zm4.093-5.056c.65.307-2.294,4.969-2.9,4.889l-.423.059s2.535-5.255,3.321-4.948Zm-6.723,5.372c-.484-.112,1.95-3.657,2.259-3.549C35.185,39.825,32.944,43.193,32.267,43.144Zm2.442,13.969,3-4.35c.45-.525.818-1.126,1.273-1.652.167-.194.937-2.335,1.32-1.575a1.7,1.7,0,0,1-.192,1.128s-4.662,6.887-5.128,6.981C34.638,57.664,34.509,57.391,34.708,57.113Zm-.644-.538c-.927.283.407-1.709.544-1.88.222-.351.442-.7.661-1.055.934-1.235,2.063-1.686,1.16-.354Zm3.478-7.347c-.089-.381,2.807-2.162,2.806-1.422C40.431,48.292,37.63,49.686,37.542,49.227Zm-5.214,2.418c.718-.05,1.162.188.761.977-.208.407-2.4,4.991-4.583,5.323C27.849,57.758,32.329,51.646,32.329,51.646ZM26.143,57.7c-1.235-.281,2.945-4.711,3.149-4.887a5.758,5.758,0,0,1,1.684-.858l-2.368,3.454S26.611,57.822,26.143,57.7Zm13.319-4.37s-2.117,3.109-2.194,3.232a2.712,2.712,0,0,1-.375.406c-.335.182-.479,0-.107-.357l3.531-5.374c.372-.622.758-1.026.73-.544a5.469,5.469,0,0,1-1.585,2.638Zm3.512-17.888a28.609,28.609,0,0,1-3.127,5.574c-.493.713-2.692,2.4-2.171,1.241,2.15-2.415,2.15-2.415,2.24-5.3-.454-1.525-3.447-.3-4.31.249-1.414,1.105-4.272,5.58-4.528,5.885-.932-.013-1.592-.71-2.371-1.146-.861-.483-1.712-.985-2.6-1.423a18.046,18.046,0,0,1-3.755-2.431c-.3-.259-.771-.6-1.1-.885-1.234-1.081,4.776-4.1,5.251-5.959a4,4,0,0,0,.167-.972,1.793,1.793,0,0,0-.875-1.682,1.427,1.427,0,0,0-1.62.29c-1.223.917-4.689,4.689-4.788,4.753-1.645,1.054-4.339-2.541-3.409-3.176a43.7,43.7,0,0,0,5.984-5.695,15.778,15.778,0,0,0,1.319-2.329c.608-2-1.468-2.125-2.377-1.708a9.234,9.234,0,0,0-1.177.672c-5.518,2.465-6.019,5.293-6.019,5.293-.067.442-.132.864-.235,1.55-1.2.612-1.761-6.624,1.512-8.383,8.647-4.646,21.32.849,21.366.869.358.153.7.349,1.135.581-1.032.7-3.649.258-5.4,4.39a4.533,4.533,0,0,0,.49,3.795c1.559,2.741-.3,2.5-.9,3.116a9.284,9.284,0,0,0-1.414,2.463c-.325,1.386-.1,1.7,1.393,2.442.837.35,3.324-1.044,3.82-2.689,4.462,1.361,7.888-4.448,8.058-4.554a8.087,8.087,0,0,1-.561,5.167Z" transform="translate(-2.851 -0.021)" fill-rule="evenodd"/>
    </g>
    <path id="Trazado_874774" data-name="Trazado 874774" d="M8.681,0c.058,0,.116,0,.174.005A2.92,2.92,0,0,1,10.6.742a2.539,2.539,0,0,1,.893,1.9,12.068,12.068,0,0,1,.075,1.714V6.111H15.15a2.259,2.259,0,0,1,1.982,1.015,3.141,3.141,0,0,1,.5,1.726,2.963,2.963,0,0,1-.524,1.721,2.248,2.248,0,0,1-1.961.947H11.564v1.9a14.322,14.322,0,0,1-.074,1.846,2.308,2.308,0,0,1-.969,1.9,2.923,2.923,0,0,1-3.467,0,2.323,2.323,0,0,1-.971-1.988V11.519H2.789A2.719,2.719,0,0,1,.6,10.656,2.475,2.475,0,0,1,.019,8.724,3.176,3.176,0,0,1,.787,7.005a2.554,2.554,0,0,1,2-.894H6.082V2.744A2.529,2.529,0,0,1,7.053.536,2.757,2.757,0,0,1,8.681,0Zm6.612,8.316A.523.523,0,0,0,15.15,8.3H9.374V4.353a9.5,9.5,0,0,0-.052-1.394L9.3,2.853V2.744a.374.374,0,0,0-.13-.339.744.744,0,0,0-.453-.214H8.681a.568.568,0,0,0-.343.12.989.989,0,0,0-.066.434V8.3H2.789a.374.374,0,0,0-.339.13,1,1,0,0,0-.256.549.294.294,0,0,0,.077.262,1.015,1.015,0,0,0,.517.088H8.272v5.849c0,.168.035.193.053.206a.737.737,0,0,0,.921,0c.019-.013.053-.038.053-.206v-.091L9.315,15a11.777,11.777,0,0,0,.058-1.575V9.329H15.15a.6.6,0,0,0,.17-.018.8.8,0,0,0,.124-.459A.958.958,0,0,0,15.293,8.316Z" transform="translate(45.075 4.027) rotate(-43)" fill="#1944b6"/>
  </g>
</svg>
