<svg xmlns="http://www.w3.org/2000/svg" width="82" height="82" viewBox="0 0 82 82">
  <g id="Grupo_1189637" data-name="Grupo 1189637" transform="translate(-769.369 -1963)">
    <rect id="Rectángulo_402627" data-name="Rectángulo 402627" width="82" height="82" transform="translate(769.369 1963)" fill="none"/>
    <path id="Trazado_877717" data-name="Trazado 877717" d="M34.82,53.018V43.876H30.1a.619.619,0,0,1-.541-.9l7.458-14.191a.614.614,0,0,1,1.155.283v9.178h4.8a.619.619,0,0,1,.541.9L35.974,53.313a.627.627,0,0,1-.688.307A.617.617,0,0,1,34.82,53.018Zm15.641-19.5C45.4,24.832,37.031,17.5,36.945,17.423a.631.631,0,0,0-.811,0c-.713.614-17.4,15.3-17.4,28.137C19.068,60.07,31.662,60.12,37.928,60.5a24.274,24.274,0,0,0,8.281-1.462.615.615,0,0,0-.455-1.143,23.714,23.714,0,0,1-9.178,1.327c-8.208-.528-16.612-2.568-16.612-13.663S33.972,21.06,36.54,18.713c1.72,1.56,8.539,8,12.852,15.42a.617.617,0,0,0,1.069-.614ZM53.115,45.56c0,3.846-1.057,6.93-3.133,9.166a.613.613,0,0,0,.9.836c2.3-2.47,3.465-5.836,3.465-10A.614.614,0,0,0,53.115,45.56Zm7.741,1.167c0,13.1-8.638,20.323-24.316,20.323S12.224,59.825,12.224,46.727C11.536,34,27.865,15.137,36.134,8.109a.6.6,0,0,1,.811,0A109.882,109.882,0,0,1,48.863,20.691c7.962,9.866,11.992,18.627,11.992,26.036Zm-1.229,0c0-15.789-19.978-34.514-23.087-37.34-3.109,2.826-23.087,21.551-23.087,37.34S26.01,65.821,36.54,65.821,59.627,62.5,59.627,46.727Z" transform="translate(773.166 1966.048)"/>
  </g>
</svg>
