<svg xmlns="http://www.w3.org/2000/svg" width="81.504" height="92.172" viewBox="0 0 81.504 92.172">
  <g id="Grupo_1189608" data-name="Grupo 1189608" transform="translate(-308.347 -7759)">
    <g id="Grupo_1189458" data-name="Grupo 1189458" transform="translate(308.296 7767)">
      <g id="Grupo_1188468" data-name="Grupo 1188468" transform="translate(0 1.548)">
        <path id="Rectángulo_402603" data-name="Rectángulo 402603" d="M81.5,0h0a0,0,0,0,1,0,0V82.172a0,0,0,0,1,0,0H0a0,0,0,0,1,0,0V81.5A81.5,81.5,0,0,1,81.5,0Z" transform="translate(0.051 0.452)" fill="#e7ecf8"/>
      </g>
      <path id="Trazado_874774" data-name="Trazado 874774" d="M8.681,0c.058,0,.116,0,.174.005A2.92,2.92,0,0,1,10.6.742a2.539,2.539,0,0,1,.893,1.9,12.068,12.068,0,0,1,.075,1.714V6.111H15.15a2.259,2.259,0,0,1,1.982,1.015,3.141,3.141,0,0,1,.5,1.726,2.963,2.963,0,0,1-.524,1.721,2.248,2.248,0,0,1-1.961.947H11.564v1.9a14.322,14.322,0,0,1-.074,1.846,2.308,2.308,0,0,1-.969,1.9,2.923,2.923,0,0,1-3.467,0,2.323,2.323,0,0,1-.971-1.988V11.519H2.789A2.719,2.719,0,0,1,.6,10.656,2.475,2.475,0,0,1,.019,8.724,3.176,3.176,0,0,1,.787,7.005a2.554,2.554,0,0,1,2-.894H6.082V2.744A2.529,2.529,0,0,1,7.053.536,2.757,2.757,0,0,1,8.681,0Zm6.612,8.316A.523.523,0,0,0,15.15,8.3H9.374V4.353a9.5,9.5,0,0,0-.052-1.394L9.3,2.853V2.744a.374.374,0,0,0-.13-.339.744.744,0,0,0-.453-.214H8.681a.568.568,0,0,0-.343.12.989.989,0,0,0-.066.434V8.3H2.789a.374.374,0,0,0-.339.13,1,1,0,0,0-.256.549.294.294,0,0,0,.077.262,1.015,1.015,0,0,0,.517.088H8.272v5.849c0,.168.035.193.053.206a.737.737,0,0,0,.921,0c.019-.013.053-.038.053-.206v-.091L9.315,15a11.777,11.777,0,0,0,.058-1.575V9.329H15.15a.6.6,0,0,0,.17-.018.8.8,0,0,0,.124-.459A.958.958,0,0,0,15.293,8.316Z" transform="translate(45.075 4.027) rotate(-43)" fill="#a2b4e2"/>
    </g>
    <g id="Grupo_1189607" data-name="Grupo 1189607" transform="translate(309.351 7755.086)">
      <path id="Trazado_877518" data-name="Trazado 877518" d="M67.678,38.52A19.446,19.446,0,0,0,51.5,34.256a22.968,22.968,0,0,0-3.6.975c-6.9.18-11.151,2.914-13.5,5.184a15.48,15.48,0,0,0-3.4,4.727c-3.294,1.209-5.348,4.342-6.527,6.141a25.043,25.043,0,0,1-2.759,3.492L11.7,65.359a6.169,6.169,0,0,0-1.659,3.458,3.948,3.948,0,0,0,.89,3.261c.055.06.113.117.172.172a4.645,4.645,0,0,0,1.666,2.78,6.219,6.219,0,0,0,3.971,1.193,12.706,12.706,0,0,0,2.135-.2c.2-.03,2.69-.409,5.2-1.052.068.23.129.428.182.6.385,1.257.435,1.418.843,5.389a.708.708,0,0,0,.7.636.725.725,0,0,0,.61-.339l.713-1.095.429,2.982a.708.708,0,0,0,1.3.271,15.933,15.933,0,0,0,1.53-3.534,9.376,9.376,0,0,0,.007-6.071l5.223-.528c.02.061.04.121.062.181a4.614,4.614,0,0,1-.254,4.2,1.705,1.705,0,0,0-.094,1.67,1.739,1.739,0,0,0,1.4.979,11.279,11.279,0,0,0,2.349-.006l.661,2.309,0,.015a5.2,5.2,0,0,0,7.288,3.118l15.3-7.6a5.206,5.206,0,0,0,1.415-8.293L52.676,58.5a15.438,15.438,0,0,0-4.924-10.582A16.116,16.116,0,0,0,44.158,45.4a22.716,22.716,0,0,1,5.411-3.641c.143-.069.29-.138.44-.207a31.737,31.737,0,0,1,4.579-.267,16.987,16.987,0,0,1,8.1,1.765.708.708,0,0,0,.892-.151.738.738,0,0,0,.1-.777,7.509,7.509,0,0,0-2.133-2.739,28.63,28.63,0,0,1,5.287.768.971.971,0,0,0,1.1-.477.933.933,0,0,0-.253-1.159ZM35.436,41.384A16.775,16.775,0,0,1,43.82,37.1a29.184,29.184,0,0,0-2.554,1.616,21.63,21.63,0,0,0-5.452,5.268,8.77,8.77,0,0,0-1.61.371,7.861,7.861,0,0,1-1.382.339,14.948,14.948,0,0,1,2.614-3.314Zm-24,28.48a3.712,3.712,0,0,1,.009-.876,4.565,4.565,0,0,1,.581-1.714,1.3,1.3,0,0,1,.91-.346c.271.054.491.36.627.607a.511.511,0,0,1,.035.418.468.468,0,0,1-.267.282A4.326,4.326,0,0,0,11.434,69.863ZM28.619,80.651l-.367-2.545a.708.708,0,0,0-1.294-.285L26.3,78.838a15.054,15.054,0,0,0-.688-3.676c-.05-.164-.107-.35-.171-.564a16.022,16.022,0,0,1,2.884-.572l.592-.06C29.979,76.182,29.323,78.855,28.619,80.651ZM46.79,48.96a13.929,13.929,0,0,1,4.489,9.884,11.843,11.843,0,0,0,2.078,5.4,22.842,22.842,0,0,1,2.39,5.076.708.708,0,0,0,.677.5.717.717,0,0,0,.291-.062.727.727,0,0,0,.377-.88,24.072,24.072,0,0,0-2.514-5.351A24.473,24.473,0,0,1,53.323,61.2L62.671,70.8a3.863,3.863,0,0,1,1.08,3.25,3.755,3.755,0,0,1-2.063,2.837l-15.3,7.6a3.791,3.791,0,0,1-5.3-2.263l-.615-2.153a12.05,12.05,0,0,0,6.886-4.737,9.085,9.085,0,0,0,1.758-6.592,15.709,15.709,0,0,1,.416-6.625c1.5-4.346-.478-6.812-.563-6.915a.708.708,0,1,0-1.094.9c.064.08,1.55,2,.32,5.554a17.093,17.093,0,0,0-.484,7.257,7.676,7.676,0,0,1-1.483,5.57,10.15,10.15,0,0,1-9.363,4.427.329.329,0,0,1-.266-.187.293.293,0,0,1,.015-.293,5.976,5.976,0,0,0,.393-5.439c-1.377-3.856.331-11.1,1.421-13.119a11.636,11.636,0,0,1,2.794-3.643.708.708,0,1,0-.829-1.147A12.654,12.654,0,0,0,37.181,59.2c-1.026,1.906-2.691,8.183-1.911,12.7l-7.091.717a17.468,17.468,0,0,0-3.23.649,53.893,53.893,0,0,1-6.292,1.363l-.015,0c-2.223.381-3.9.148-4.976-.7a3.155,3.155,0,0,1-.71-.775,5.233,5.233,0,0,0,1,.093q.122,0,.248-.005a15.318,15.318,0,0,0,3.67-1.132,6.173,6.173,0,0,1,3.505-.846.712.712,0,0,0,.18-1.413,7.681,7.681,0,0,0-4.311.989,14.959,14.959,0,0,1-3.1.987,2.942,2.942,0,0,1-1.924-.494,3.518,3.518,0,0,1,1.643-1.793,1.89,1.89,0,0,0,1.07-1.121A1.929,1.929,0,0,0,14.8,66.85,2.48,2.48,0,0,0,13.423,65.6l9.325-9.847a26.464,26.464,0,0,0,2.915-3.69c1.721-2.629,3.84-5.472,7.213-5.935A9.3,9.3,0,0,0,34.67,45.7a7.1,7.1,0,0,1,3.9-.179,11.807,11.807,0,0,0,2.653.633l1.537.17a14,14,0,0,1,4.029,2.64Zm8.322-9.081a24.922,24.922,0,0,1,3.83-.491,8.525,8.525,0,0,1,2.043,1.395,21.917,21.917,0,0,0-5.873-.9Zm-6.223.64a23.068,23.068,0,0,0-6.232,4.365l-1.278-.142a10.422,10.422,0,0,1-2.337-.56,5.351,5.351,0,0,0-1.419-.27,25.656,25.656,0,0,1,14.136-8.263,17.749,17.749,0,0,1,13.255,2.694A26.377,26.377,0,0,0,48.889,40.52Z"/>
      <path id="Trazado_877519" data-name="Trazado 877519" d="M186.98,212.245a1.837,1.837,0,1,0,1.837,1.837A1.837,1.837,0,0,0,186.98,212.245Zm0,2.259a.422.422,0,1,1,.422-.422A.422.422,0,0,1,186.98,214.5Z" transform="translate(-154.486 -157.295)"/>
    </g>
  </g>
</svg>
