<svg xmlns="http://www.w3.org/2000/svg" width="505" height="319.619" viewBox="0 0 505 319.619">
  <g id="Grupo_1189081" data-name="Grupo 1189081" transform="translate(-854.051 -3893)">
    <g id="IMAGEN" transform="translate(854.051 3893)">
      <rect id="Rectángulo_402607" data-name="Rectángulo 402607" width="44" height="153.182" rx="12" transform="translate(461 63.93)" fill="#26c790"/>
      <path id="Rectángulo_402599" data-name="Rectángulo 402599" d="M0,0H74.42a0,0,0,0,1,0,0V.61A74.42,74.42,0,0,1,0,75.03H0a0,0,0,0,1,0,0V0A0,0,0,0,1,0,0Z" transform="translate(0 76.444)" fill="#fdbab3"/>
      <path id="Rectángulo_402630" data-name="Rectángulo 402630" d="M74.42,0h0a0,0,0,0,1,0,0V75.03a0,0,0,0,1,0,0H0a0,0,0,0,1,0,0v-.61A74.42,74.42,0,0,1,74.42,0Z" transform="translate(356.16 238.489)" fill="#fff"/>
      <g id="Grupo_1188572" data-name="Grupo 1188572" transform="translate(18886.764 8877.698)">
        <path id="Rectángulo_402597" data-name="Rectángulo 402597" d="M74.42,0h0a0,0,0,0,1,0,0V75.03a0,0,0,0,1,0,0H0a0,0,0,0,1,0,0v-.61A74.42,74.42,0,0,1,74.42,0Z" transform="translate(-18456.184 -8714.241)" fill="#fdbab3"/>
        <g id="Grupo_1188466" data-name="Grupo 1188466" transform="translate(-18395.285 -8653.132) rotate(-90)">
          <path id="Trazado_874773" data-name="Trazado 874773" d="M.737,1.112c.469,0,.785.412,1.249,1.089A3,3,0,0,0,4.546,3.893,3,3,0,0,0,7.105,2.2c.464-.678.78-1.089,1.249-1.089S9.14,1.524,9.6,2.2a3,3,0,0,0,2.56,1.691A3,3,0,0,0,14.723,2.2c.464-.678.78-1.089,1.249-1.089s.785.412,1.249,1.089a3,3,0,0,0,2.56,1.691A3,3,0,0,0,22.341,2.2c.464-.678.78-1.089,1.249-1.089s.785.412,1.249,1.089A3,3,0,0,0,27.4,3.893,3,3,0,0,0,29.957,2.2c.464-.678.78-1.089,1.249-1.089s.786.412,1.25,1.089a2.783,2.783,0,0,0,5.12,0c.464-.678.78-1.089,1.249-1.089s.786.412,1.251,1.09a2.785,2.785,0,0,0,5.122,0c.465-.678.781-1.09,1.251-1.09.407,0,.737-.249.737-.556S46.857,0,46.45,0a3.006,3.006,0,0,0-2.561,1.691c-.465.678-.781,1.09-1.251,1.09s-.786-.412-1.251-1.089a2.784,2.784,0,0,0-5.121,0c-.464.678-.78,1.089-1.25,1.089s-.786-.412-1.25-1.089a2.783,2.783,0,0,0-5.12,0c-.464.678-.78,1.089-1.25,1.089s-.785-.412-1.249-1.089A3,3,0,0,0,23.59,0a3,3,0,0,0-2.559,1.691c-.464.678-.78,1.089-1.249,1.089S19,2.369,18.532,1.691A3,3,0,0,0,15.973,0a3,3,0,0,0-2.56,1.691c-.464.678-.78,1.089-1.249,1.089s-.785-.412-1.25-1.089A3,3,0,0,0,8.354,0a3,3,0,0,0-2.56,1.691c-.464.678-.78,1.089-1.249,1.089S3.761,2.369,3.3,1.691A3,3,0,0,0,.737,0C.33,0,0,.249,0,.556S.33,1.112.737,1.112Z" transform="translate(0 0)" fill="#fff"/>
        </g>
      </g>
      <g id="Grupo_1188480" data-name="Grupo 1188480" transform="translate(15.436 24.708)">
        <rect id="Rectángulo_402596" data-name="Rectángulo 402596" width="428.286" height="41" transform="translate(13.001 226.625)" fill="#12263f" opacity="0.407"/>
        <g id="Grupo_1099339" data-name="Grupo 1099339" transform="translate(0 0)">
          <g id="primer-plano-de-conejillos-de-indias" fill="#fef7f6" stroke="#1944b6" stroke-width="5">
            <rect width="474.129" height="267.625" rx="14" stroke="none"/>
            <rect x="2.5" y="2.5" width="469.129" height="262.625" rx="11.5" fill="none"/>
          </g>
        </g>
      </g>
      <g id="Grupo_1188479" data-name="Grupo 1188479" transform="translate(430.58 238.489)">
        <path id="Rectángulo_402596-2" data-name="Rectángulo 402596" d="M74.42,0h0a0,0,0,0,1,0,0V65.6a9.427,9.427,0,0,1-9.427,9.427H0a0,0,0,0,1,0,0v-.61A74.42,74.42,0,0,1,74.42,0Z" transform="translate(0)" fill="#fdaa30"/>
        <g id="Grupo_1188461" data-name="Grupo 1188461" transform="translate(27.104 28.144)">
          <path id="Trazado_874753" data-name="Trazado 874753" d="M32.106,4.606,27.958.458a1.622,1.622,0,0,0-2.259,0,1.633,1.633,0,0,0-.1,2.361l.823.823L24.041,6.02l-2-2a1.1,1.1,0,0,0-1.549,0L19,5.517a1.123,1.123,0,0,0,.045,1.593L3.791,22.366a1.493,1.493,0,0,0-.134,1.955l.058,1.872a2.727,2.727,0,0,0,.5,1.486L.157,31.733a.477.477,0,0,0,.674.674l4.054-4.054a2.727,2.727,0,0,0,1.486.5l1.872.058a1.492,1.492,0,0,0,1.955-.134L22.205,16.766a.477.477,0,0,0-.674-.674l-2.137,2.137L14.336,13.17l1.27-1.27,1.512,1.512a.477.477,0,1,0,.674-.674L16.28,11.226,17.5,10l1.512,1.512a.477.477,0,1,0,.674-.674L18.179,9.327l1.543-1.543,5.058,5.058-1.671,1.671a.477.477,0,1,0,.674.674l1.671-1.671a1.119,1.119,0,0,0,1.593.045l1.494-1.494a1.121,1.121,0,0,0,0-1.549l-2-2L27.68,7.387a.477.477,0,0,0-.674-.674L25.87,7.848,24.716,6.694l2.379-2.379,2.651,2.651a1.6,1.6,0,0,0,2.259,0,1.635,1.635,0,0,0,.1-2.361ZM9.524,28.1a.537.537,0,0,1-.76,0,.477.477,0,0,0-.322-.139L6.4,27.9a1.792,1.792,0,0,1-1.732-1.732l-.064-2.04a.477.477,0,0,0-.139-.322.538.538,0,0,1,0-.76l.965-.965,5.058,5.058Zm9.2-9.2-7.557,7.557L6.1,21.4l5.755-5.755,1.512,1.512a.477.477,0,1,0,.674-.674l-1.512-1.512,1.127-1.127Zm9.188-7.609a.138.138,0,0,1-.041.1l-1.494,1.494a.141.141,0,0,1-.2,0l-6.5-6.5c0-.04-.085-.026,0-.2L21.171,4.7c.038.009-.007-.089.2,0l6.5,6.5A.139.139,0,0,1,27.908,11.294Zm3.524-5.1-.1.1a.644.644,0,0,1-.91,0L26.272,2.144a.686.686,0,0,1,.1-1.012.664.664,0,0,1,.91,0L31.432,5.28A.644.644,0,0,1,31.432,6.19Z" transform="translate(-0.017 0)" fill="#12263f"/>
          <path id="Trazado_874754" data-name="Trazado 874754" d="M130.182,114.5a.477.477,0,0,0,.674-.674l-1.1-1.1a.477.477,0,0,0-.674.674Z" transform="translate(-120.739 -105.425)" fill="#12263f"/>
          <path id="Trazado_874755" data-name="Trazado 874755" d="M184.243,86.671a.477.477,0,0,0,.477-.477V84.425a.477.477,0,1,0-.954,0v1.769A.477.477,0,0,0,184.243,86.671Z" transform="translate(-172.082 -78.61)" fill="#12263f"/>
          <path id="Trazado_874756" data-name="Trazado 874756" d="M101.047,168.1h1.769a.477.477,0,0,0,0-.954h-1.769a.477.477,0,0,0,0,.954Z" transform="translate(-94.176 -156.518)" fill="#12263f"/>
          <ellipse id="Elipse_11492" data-name="Elipse 11492" cx="0.489" cy="0.489" rx="0.489" ry="0.489" transform="translate(11.146 22.744)" fill="#12263f"/>
          <ellipse id="Elipse_11493" data-name="Elipse 11493" cx="0.489" cy="0.489" rx="0.489" ry="0.489" transform="translate(12.767 21.174)" fill="#12263f"/>
        </g>
        <path id="Trazado_874772" data-name="Trazado 874772" d="M9.41,4.091a.781.781,0,0,1,.71.343,1.375,1.375,0,0,1,.22.759,1.259,1.259,0,0,1-.22.735.8.8,0,0,1-.71.318H6.276q0,1.126,0,2.008a8.854,8.854,0,0,1-.049,1.175.843.843,0,0,1-.343.735,1.224,1.224,0,0,1-1.469,0,.843.843,0,0,1-.343-.735V6.246H1.134a1.129,1.129,0,0,1-.906-.318.925.925,0,0,1-.22-.735A1.4,1.4,0,0,1,.35,4.434a.98.98,0,0,1,.784-.343H4.072V1.1A1.013,1.013,0,0,1,4.415.223,1.115,1.115,0,0,1,5.149,0a1.233,1.233,0,0,1,.735.318.98.98,0,0,1,.343.784,7.137,7.137,0,0,1,.049,1.077q0,.832,0,1.91Z" transform="translate(55.412 62.966) rotate(-43)" fill="#fff"/>
      </g>
      <g id="Grupo_1188575" data-name="Grupo 1188575" transform="translate(18609.916 8877.7)">
        <g id="Grupo_1188574" data-name="Grupo 1188574">
          <g id="Grupo_1188465" data-name="Grupo 1188465" transform="translate(-18609.916 -8639.212)">
            <path id="Rectángulo_402602" data-name="Rectángulo 402602" d="M0,0H74.42a0,0,0,0,1,0,0V75.03a0,0,0,0,1,0,0h0A74.42,74.42,0,0,1,0,.61V0A0,0,0,0,1,0,0Z" fill="#26c790"/>
            <g id="Grupo_1188464" data-name="Grupo 1188464" transform="translate(29.357 9.782)">
              <path id="Trazado_874763" data-name="Trazado 874763" d="M247.086,245.439a.431.431,0,0,1-.431.431h-.516a.431.431,0,0,1-.431-.431,2.823,2.823,0,0,1,.481-1.4,3.713,3.713,0,0,1,.339-.453c.136-.158.277-.336.42-.529a4.611,4.611,0,0,0,.89-2.467,38.633,38.633,0,0,0-.086-4.892.431.431,0,1,1,.859-.06,39.373,39.373,0,0,1,.087,5.005,5.471,5.471,0,0,1-1.057,2.927c-.155.209-.309.4-.458.577a2.9,2.9,0,0,0-.262.349,2.836,2.836,0,0,0-.26.517A.431.431,0,0,1,247.086,245.439Z" transform="translate(-240.779 -210.545)" fill="#fff"/>
              <path id="Trazado_874764" data-name="Trazado 874764" d="M104.484,260.107a.431.431,0,0,1-.431.431h-.893a.431.431,0,0,1-.329-.709,7.844,7.844,0,0,0,1.5-7.6.431.431,0,1,1,.825-.247,8.687,8.687,0,0,1-1.122,7.7h.017A.431.431,0,0,1,104.484,260.107Z" transform="translate(-82.226 -225.213)" fill="#fff"/>
              <path id="Trazado_874765" data-name="Trazado 874765" d="M167.974,176.362c.2.023.412.041.619.052a2.568,2.568,0,0,1,1.047.286.431.431,0,1,1-.4.764,1.708,1.708,0,0,0-.7-.19c-.222-.013-.447-.032-.666-.056a10.317,10.317,0,0,0-3.051.086c-.8,1.271-.922,3.921-.935,5.029a2.7,2.7,0,0,1-.49,1.536l-.008.008h0c-.011.017-.023.034-.035.05a9.3,9.3,0,0,0-.88,1.523.431.431,0,0,1-.393.256h-2.518a.431.431,0,0,1-.316-.723,10.549,10.549,0,0,0,1.092-1.474c.013-.02.024-.04.036-.061l.03-.051.015-.022a4.628,4.628,0,0,0,.63-2.074,28.913,28.913,0,0,0-.233-6.352c-1.759-1.212-2.8-3.455-3.1-6.672a.431.431,0,0,1,.858-.08,9,9,0,0,0,1.934,5.34,2.658,2.658,0,0,1,.057-.832.431.431,0,1,1,.836.209,3.213,3.213,0,0,0,.207,1.617c0,.011.006.022.01.034s.009.023.011.036a27.483,27.483,0,0,1,.282,6.75,5.5,5.5,0,0,1-.433,1.836h.1a.431.431,0,1,1,0,.862h-.563q-.281.437-.545.8h1.338a9.551,9.551,0,0,1,.855-1.432l.028-.042.008-.009a1.848,1.848,0,0,0,.326-1.04c.018-1.518.194-4.257,1.168-5.628a7.351,7.351,0,0,0,.5-1.1.431.431,0,0,1,.818.272c0,.014-.068.2-.191.488A11.79,11.79,0,0,1,167.974,176.362Z" transform="translate(-152.431 -150.384)" fill="#fff"/>
              <path id="Trazado_874766" data-name="Trazado 874766" d="M50.4,100.835a.431.431,0,0,1,.482-.148,3.787,3.787,0,0,1,2.447,1.991,3.358,3.358,0,0,1-.045,2.539.431.431,0,1,1-.781-.365,2.478,2.478,0,0,0,.033-1.837,2.4,2.4,0,0,0-1-1.09,3.679,3.679,0,0,1-1.058,3.314.431.431,0,0,1-.525.082c-.038-.022-3.845-2.089-10.051.032l-.023.007a13.955,13.955,0,0,1-3.229.463h-.031a3.4,3.4,0,0,1-2.628-1.238,12.339,12.339,0,0,1-1.912-3.161.431.431,0,0,1,.8-.323,11.467,11.467,0,0,0,1.778,2.935,2.539,2.539,0,0,0,1.964.926h.023a13.293,13.293,0,0,0,2.994-.428c5.6-1.908,9.337-.6,10.419-.12a2.6,2.6,0,0,0,.337-3.075A.431.431,0,0,1,50.4,100.835Z" transform="translate(-22.585 -90.469)" fill="#fff"/>
              <path id="Trazado_874767" data-name="Trazado 874767" d="M36.172,136.422a.431.431,0,0,1,.368.485,4.365,4.365,0,0,1-2.786,3.341,9,9,0,0,1-.784,3.975c-.964,2.392-.663,5.98-.489,7.413a2.752,2.752,0,0,1-.35,1.7,10.31,10.31,0,0,0-.927,2.381h0c-.243.89-.357,1.6-.358,1.611a.431.431,0,0,1-.426.363H27.61a.431.431,0,0,1-.366-.659,11.183,11.183,0,0,0,.828-1.595l0-.008a8.582,8.582,0,0,0-.39-7.7,10.516,10.516,0,0,1-1.481.625,6.37,6.37,0,0,1-4.4-.091,3.725,3.725,0,0,0-1.078-.242.431.431,0,1,1,.071-.859,4.585,4.585,0,0,1,1.328.3,5.506,5.506,0,0,0,3.8.075,8.644,8.644,0,0,0,1.673-.75.431.431,0,0,1,.573.113,9.3,9.3,0,0,1,.92,8.276h.311a.431.431,0,0,1,0,.862h-.656q-.179.4-.394.8h1.7c.06-.309.162-.788.312-1.338v0a11,11,0,0,1,1.014-2.588,1.86,1.86,0,0,0,.24-1.166c-.227-1.864-.457-5.362.548-7.847l.006-.014c.011-.023,1.029-2.332.668-3.809h0a6.462,6.462,0,0,0-.5-1.3.431.431,0,0,1,.76-.406,7.767,7.767,0,0,1,.444,1.035,3.491,3.491,0,0,0,2.139-2.608.431.431,0,0,1,.486-.369Z" transform="translate(-4.307 -122.373)" fill="#fff"/>
              <path id="Trazado_874768" data-name="Trazado 874768" d="M220.354,10.714a.98.98,0,0,1,.457.946A2.4,2.4,0,0,1,218.581,14a3.425,3.425,0,0,1-.954,2.491.98.98,0,0,0-.251.563l-.146,1.3a2.235,2.235,0,0,1-.16.616,3.7,3.7,0,0,1-1.79,3.89.431.431,0,0,1-.627-.283q-.048-.21-.1-.4c-.089.071-.174.135-.248.191a3.718,3.718,0,0,1-.96.528,3.565,3.565,0,0,1-.448.129.419.419,0,0,1-.09.01.433.433,0,0,1-.334-.7,2.668,2.668,0,0,0,.432-1.54,1.867,1.867,0,0,0-.032-.379,4.653,4.653,0,0,1-.015-1.775,2.254,2.254,0,0,1-.056-.312l-.125-1.239a.963.963,0,0,0-.185-.473,4.348,4.348,0,0,1-.944-2.75A2.654,2.654,0,0,1,210,13.5a2.582,2.582,0,0,1-1.1-1.888.985.985,0,0,1,1.49-.991,6.89,6.89,0,0,0,1.837.834,5,5,0,0,1,2.288-.854A4.112,4.112,0,0,0,213.4,8.077a4.182,4.182,0,0,0-2.319-1.116,6.309,6.309,0,0,1,1.555,3.054.431.431,0,0,1-.844.171A5.377,5.377,0,0,0,209.578,6.8.431.431,0,0,1,209.8,6h.029a5.679,5.679,0,0,1,4.186,1.47,5.018,5.018,0,0,1,1.369,3.132,4.423,4.423,0,0,1,1.58.485A6.347,6.347,0,0,1,218.638,7a4.01,4.01,0,0,0-2.6,1.444.431.431,0,1,1-.682-.527,5.409,5.409,0,0,1,4.546-1.88h.029a.431.431,0,0,1,.217.8,5.444,5.444,0,0,0-2.331,4.533,6.669,6.669,0,0,0,1.5-.663A.968.968,0,0,1,220.354,10.714Zm-6.566,10.976a8.144,8.144,0,0,0,.669-.551.431.431,0,0,1,.693.144,5.181,5.181,0,0,1,.185.51,2.624,2.624,0,0,0,.9-1.815,2.228,2.228,0,0,1-2.567-.091c.013.125.031.254.055.387a2.709,2.709,0,0,1,.045.552,4.484,4.484,0,0,1-.129.971Q213.713,21.745,213.788,21.689Zm3.778-9.353a.43.43,0,0,1-.354-.075,3.68,3.68,0,0,0-4.609-.016.431.431,0,0,1-.358.095,7.03,7.03,0,0,1-2.31-.987.114.114,0,0,0-.129,0,.12.12,0,0,0-.055.124,1.771,1.771,0,0,0,.706,1.292,2.106,2.106,0,0,0,1.505.181.431.431,0,0,1,.528.543,3.2,3.2,0,0,0,.695,2.619,1.825,1.825,0,0,1,.348.9l.125,1.239a1.365,1.365,0,0,0,2.715.015l.146-1.3A1.846,1.846,0,0,1,217,15.9a2.537,2.537,0,0,0,.683-2.212.431.431,0,0,1,.418-.535h.016a1.583,1.583,0,0,0,1.839-1.593.121.121,0,0,0-.06-.12.109.109,0,0,0-.121,0A8.053,8.053,0,0,1,217.566,12.337Z" transform="translate(-208.888 -6)" fill="#fff"/>
              <path id="Trazado_874769" data-name="Trazado 874769" d="M247.471,80.937a.442.442,0,0,1-.084-.008.525.525,0,0,1-.08-.025.41.41,0,0,1-.074-.04.4.4,0,0,1-.066-.054.431.431,0,0,1-.127-.3.446.446,0,0,1,.009-.084.466.466,0,0,1,.025-.081.5.5,0,0,1,.04-.074.451.451,0,0,1,.054-.066.4.4,0,0,1,.066-.053.353.353,0,0,1,.074-.04.425.425,0,0,1,.08-.025.436.436,0,0,1,.389.117.389.389,0,0,1,.054.066.412.412,0,0,1,.04.074.461.461,0,0,1,.025.081.443.443,0,0,1,.008.084.43.43,0,0,1-.431.431Z" transform="translate(-240.08 -72.098)" fill="#fff"/>
              <path id="Trazado_874770" data-name="Trazado 874770" d="M271.767,80.936a.431.431,0,0,1-.3-.734.39.39,0,0,1,.066-.054.434.434,0,0,1,.155-.065.44.44,0,0,1,.168,0,.434.434,0,0,1,.155.065.387.387,0,0,1,.066.054.431.431,0,0,1-.3.734Z" transform="translate(-266.992 -72.097)" fill="#fff"/>
              <path id="Trazado_874771" data-name="Trazado 874771" d="M256.423,109.32l-.474.318a.431.431,0,0,1-.491-.008l-.443-.318a.431.431,0,0,1,.5-.7l.2.144.226-.151a.431.431,0,1,1,.479.716Z" transform="translate(-249.633 -97.489)" fill="#fff"/>
            </g>
          </g>
          <g id="Elipse_11498" data-name="Elipse 11498" transform="translate(-18583.781 -8583.3)" fill="none" stroke="#fdaa30" stroke-width="6">
            <ellipse cx="8.063" cy="8.063" rx="8.063" ry="8.063" stroke="none"/>
            <ellipse cx="8.063" cy="8.063" rx="5.063" ry="5.063" fill="none"/>
          </g>
        </g>
        <circle id="Elipse_11502" data-name="Elipse 11502" cx="1.916" cy="1.916" r="1.916" transform="translate(-18602.906 -8633.651)" fill="#fff"/>
      </g>
      <g id="Grupo_1188573" data-name="Grupo 1188573" transform="translate(0 1.413)">
        <g id="Grupo_1188468" data-name="Grupo 1188468" transform="translate(0 0)">
          <path id="Rectángulo_402603" data-name="Rectángulo 402603" d="M74.42,0h0a0,0,0,0,1,0,0V75.03a0,0,0,0,1,0,0H0a0,0,0,0,1,0,0v-.61A74.42,74.42,0,0,1,74.42,0Z" fill="#fdaa30"/>
          <g id="Grupo_1188467" data-name="Grupo 1188467" transform="translate(28.513 29.12)">
            <path id="Trazado_874775" data-name="Trazado 874775" d="M288.475,288.708a.456.456,0,0,1-.136-.89,5.01,5.01,0,0,1,1.5-.229.455.455,0,1,1,0,.911A6,6,0,0,0,288.475,288.708Z" transform="translate(-271.625 -271.241)" fill="#12263f"/>
            <path id="Trazado_874776" data-name="Trazado 874776" d="M28.256,21.374a3.132,3.132,0,0,0-2.578-.959.136.136,0,0,1-.145-.1A10.982,10.982,0,0,0,20.5,14.178,13.853,13.853,0,0,0,13.3,12.2a7.282,7.282,0,0,0-.039-1.589c4.56-1.2,9.365-6.739,7.349-9.316C19.8.271,18.122.124,16.08.892,13.628-.854,7.774,2.356,5.683,6.229,2.908,7.269,0,10.292,0,13.193s2.281,3.793,5.193,3.972A8.389,8.389,0,0,0,5.48,24.22C3.707,25.44,1.963,27,3.219,28.775c.885,1.251,2.583.631,4.047.147a14.078,14.078,0,0,0,3.828-1.972,11.644,11.644,0,0,0,2.825-2.607,4.973,4.973,0,0,0,.9,1.107c-2.722,1.465-2.053,4.057,1.094,4.057a8.058,8.058,0,0,0,3.512-.951c1.906-.13,4.229-.5,5.532-1.946A3.192,3.192,0,0,0,28.256,21.374ZM.911,13.193c0-2.987,3.9-6.459,6.831-6.459a9.732,9.732,0,0,1,2.366.439c.563-.088.3-.981,2.453-2.986a.455.455,0,1,0-.62-.667A10.921,10.921,0,0,0,9.823,6.15a6.261,6.261,0,0,0-2.857-.265c1.883-2.686,5.756-5.008,8-4.5a12.856,12.856,0,0,0-1.551.939.455.455,0,1,0,.524.745C17.663.449,21.5.687,19.717,4.338a11.489,11.489,0,0,1-7.065,5.484.456.456,0,0,0-.345.311c-.079.254.107.4.107,1.507,0,3.057-2.809,4.656-5.583,4.656-3.655,0-5.92-.519-5.92-3.1ZM28.234,23.675a2.286,2.286,0,0,1-2.728,2.141,6.113,6.113,0,0,0,.451-3.174.455.455,0,1,0-.909.063c.2,2.833-.644,4.617-5.771,4.949a16.455,16.455,0,0,1-2.159.8c-1.5.356-2.918,0-3.079-.674-.129-.542.565-1.269,1.6-1.71a4.1,4.1,0,0,0,1.205.5.456.456,0,0,0,.136-.89,4.084,4.084,0,0,1-2.582-2.4.457.457,0,0,0-.027-.068,4.12,4.12,0,0,1,.191-3.317.455.455,0,1,0-.81-.417,5.037,5.037,0,0,0-.291,3.894,9.536,9.536,0,0,1-2.909,2.845,13.168,13.168,0,0,1-3.58,1.845c-1.8.6-2.619.754-3.017.191a1.123,1.123,0,0,1-.237-.889c.221-1.191,2.474-2.454,2.693-2.689.547-.588-.954-1.149-.954-4.275A7.133,7.133,0,0,1,6.179,17.2c.22,0,.438.006.652.006,2.8,0,5.547-1.413,6.3-4.085,4.273-.207,10.014,2.478,11.535,7.459a1.047,1.047,0,0,0,1.121.738A2.266,2.266,0,0,1,28.234,23.675Z" transform="translate(0 -0.404)" fill="#12263f"/>
            <path id="Trazado_874777" data-name="Trazado 874777" d="M260.455,308.5a.455.455,0,1,1,.446-.367A.456.456,0,0,1,260.455,308.5Z" transform="translate(-245.199 -290.1)" fill="#12263f"/>
            <ellipse id="Elipse_11499" data-name="Elipse 11499" cx="0.797" cy="0.797" rx="0.797" ry="0.797" transform="translate(4.213 10.029)" fill="#12263f"/>
          </g>
        </g>
        <path id="Trazado_874774" data-name="Trazado 874774" d="M6.926-1c.053,0,.106,0,.159,0a2.666,2.666,0,0,1,1.59.673A2.319,2.319,0,0,1,9.49,1.41a11.019,11.019,0,0,1,.068,1.565v1.6h3.274a2.063,2.063,0,0,1,1.81.927A2.868,2.868,0,0,1,15.1,7.082a2.706,2.706,0,0,1-.478,1.571,2.052,2.052,0,0,1-1.791.865H9.559v1.738a13.077,13.077,0,0,1-.068,1.686,2.107,2.107,0,0,1-.885,1.733,2.669,2.669,0,0,1-3.166,0,2.121,2.121,0,0,1-.886-1.816V9.518H1.546a2.483,2.483,0,0,1-2-.788,2.26,2.26,0,0,1-.53-1.765A2.9,2.9,0,0,1-.281,5.4,2.332,2.332,0,0,1,1.546,4.58H4.554V1.506A2.309,2.309,0,0,1,5.44-.51,2.517,2.517,0,0,1,6.926-1Zm6.038,7.593a.478.478,0,0,0-.131-.014H7.559v-3.6A8.677,8.677,0,0,0,7.512,1.7l-.019-.1v-.1A.342.342,0,0,0,7.374,1.2.679.679,0,0,0,6.96,1H6.926a.519.519,0,0,0-.313.11.9.9,0,0,0-.06.4V6.58H1.546a.342.342,0,0,0-.309.118A.912.912,0,0,0,1,7.2a.268.268,0,0,0,.071.239.927.927,0,0,0,.472.08H6.554v5.341c0,.153.032.176.049.188a.673.673,0,0,0,.841,0c.017-.012.049-.035.049-.188v-.083l.014-.082a10.753,10.753,0,0,0,.053-1.438V7.518h5.274a.547.547,0,0,0,.155-.017.73.73,0,0,0,.114-.419A.875.875,0,0,0,12.964,6.593Z" transform="translate(26.135 9.618) rotate(-43)" fill="#1944b6"/>
      </g>
    </g>
    <g id="Grupo_1189080" data-name="Grupo 1189080" transform="translate(901.051 3961)">
      <g id="Grupo_1189035" data-name="Grupo 1189035" transform="translate(159.859 0)">
        <g id="Grupo_1189034" data-name="Grupo 1189034">
          <g id="Grupo_1189033" data-name="Grupo 1189033">
            <path id="Trazado_875955" data-name="Trazado 875955" d="M1319.527,1528.9l-13.9,1.237-.009.227c-2.538,1.881-4.9,3.857-6,6.948l8.869-1.669a14.363,14.363,0,0,0-2.757,3.39l11.9-2.259c3.438-.591,7.259-.724,10.518-2.044a8.929,8.929,0,0,0,3.747-2.853,1.421,1.421,0,0,0,.245-.561l-.049-.234-2.437-2.211a5.522,5.522,0,0,0-1.209-1.028,3.846,3.846,0,0,0-.836-.066A56.283,56.283,0,0,1,1319.527,1528.9Z" transform="translate(-1130.91 -1390.042)" fill="#93480a"/>
            <path id="Trazado_875956" data-name="Trazado 875956" d="M1063.166,1507.109a8.6,8.6,0,0,1-1.263,3.322,3.8,3.8,0,0,1-2.375,1.618c-.748.119-1.515.124-2.259.275a9.65,9.65,0,0,0-5.758,3.393,13.277,13.277,0,0,0-1.918,3.656l7.126-1.306a21.856,21.856,0,0,0-1.8,3.7l7.915-1.4a34.472,34.472,0,0,1,3.793-.036,9.408,9.408,0,0,0,7.812-3.925,57.656,57.656,0,0,0,3.76-6.407l3.55-6.579a84.235,84.235,0,0,1-18.947-6.865C1063.368,1499.991,1063.829,1503.646,1063.166,1507.109Z" transform="translate(-983.868 -1371.681)" fill="#93480a"/>
            <path id="Trazado_875957" data-name="Trazado 875957" d="M1360.5,1540.234c-3.482.646-7.139,1.116-10.334,2.733a13.1,13.1,0,0,0-6.931,7.787l6.971-1.59a11.461,11.461,0,0,0-1.973,4.4,63.036,63.036,0,0,1,9.4-2.885c-.065.8-1,1.658-1.106,2.575-.039.323-.056.378.135.635a31.581,31.581,0,0,1,8.149-2.439l7.622-1.514a48,48,0,0,0,6.507-1.592c1.779-.624,3.917-1.566,4.761-3.376a7.3,7.3,0,0,0,.026-4.963l-.429-.249a1.042,1.042,0,0,0-.745-.267c-.417-.022-.846.1-1.272.089l-5.794-.117c-3-.068-6.167-.559-9.16-.181-.685.087-1.364.053-2.045.125a20.534,20.534,0,0,0-2.913.7,1.53,1.53,0,0,1-.817-.068Z" transform="translate(-1156.559 -1396.725)" fill="#93480a"/>
            <path id="Trazado_875958" data-name="Trazado 875958" d="M890.534,1318.993l-.275.043a12.214,12.214,0,0,0-.231,3.081,23.372,23.372,0,0,0,3.221,11.925,17.16,17.16,0,0,0,4.138,4.737,11.958,11.958,0,0,0,2.7,1.491,55.965,55.965,0,0,0,4.432,5.357c3.714,3.544,8.8,5.96,13.672,7.438l4.869,1.225a27.5,27.5,0,0,1,8.668,4.3c4.385,3.2,7.43,7.818,10.971,11.853a91.12,91.12,0,0,0,12.232,11.536l3.355-.5a29.96,29.96,0,0,0,6.3-2.085l.034-.082c-.6-.61-1.413-1.08-2.066-1.65l-5.383-4.937a81.756,81.756,0,0,1-11.74-14.338,14.794,14.794,0,0,1-2.454-4.768c-8.29-1.609-16.039-4.186-22.855-9.331a32.639,32.639,0,0,1-4.8-4.234,13.791,13.791,0,0,1-1.482-1.531c-.945.419-3.525-.331-4.606-.622a16.481,16.481,0,0,1-9.763-7.034c-.733-1.167-1.26-2.456-1.948-3.654a.662.662,0,0,1,.2-.135,29.264,29.264,0,0,0,4.4-3.085,10.62,10.62,0,0,0,3.386-3.915,2.281,2.281,0,0,0-.225-1.037c-1.424-2.479-5.286-1.128-7.387-.426a6.883,6.883,0,0,1-1.358.464,7.791,7.791,0,0,1-1.142-.673,10.823,10.823,0,0,0-2.835-1.321A3.3,3.3,0,0,0,890.534,1318.993Z" transform="translate(-890.027 -1266.138)" fill="#b55b09"/>
            <path id="Trazado_875959" data-name="Trazado 875959" d="M890.534,1318.993l-.275.043a12.214,12.214,0,0,0-.231,3.081,23.372,23.372,0,0,0,3.221,11.925,17.16,17.16,0,0,0,4.138,4.737,11.958,11.958,0,0,0,2.7,1.491,7.38,7.38,0,0,1,1.483-.446,14.033,14.033,0,0,1,1.408,1.036,9.911,9.911,0,0,0,2.739,1.008,8.157,8.157,0,0,0,5.945-1.263l-2.312.4a8.669,8.669,0,0,1-6.585-1.9c-3.4-2.71-4.806-7.741-5.248-11.895a.662.662,0,0,1,.2-.135,29.264,29.264,0,0,0,4.4-3.085,10.62,10.62,0,0,0,3.386-3.915,2.281,2.281,0,0,0-.225-1.037c-1.424-2.479-5.286-1.128-7.387-.426a6.883,6.883,0,0,1-1.358.464,7.791,7.791,0,0,1-1.142-.673,10.823,10.823,0,0,0-2.835-1.321A3.3,3.3,0,0,0,890.534,1318.993Z" transform="translate(-890.027 -1266.138)" fill="#9f540f"/>
            <path id="Trazado_875960" data-name="Trazado 875960" d="M890.029,1324.84a23.372,23.372,0,0,0,3.221,11.925,17.161,17.161,0,0,0,4.138,4.737l.7-.475a4.582,4.582,0,0,0,.075-1.921,63.212,63.212,0,0,0-1.251-6.222c-.182-.941-.2-2.152-.474-3.034-.138-.441-2-1.678-2.474-2.088-1.932-1.66-3.242-3.444-3.434-6.046l-.275.043A12.216,12.216,0,0,0,890.029,1324.84Z" transform="translate(-890.027 -1268.861)" fill="#733a29"/>
            <path id="Trazado_875961" data-name="Trazado 875961" d="M951.634,1217.01c-1.411.209-2.822.362-4.217.676l-7.811,2.063-.087.045c-1.457.721-3.2,1.161-4.729,1.733a101.06,101.06,0,0,0-9.342,3.963,87.68,87.68,0,0,0-12.109,7.229,94.264,94.264,0,0,0-15.331,13.75c-2.541,2.819-5.321,6.091-6.6,9.721a15.792,15.792,0,0,0-.816,3.6l.275-.043a3.3,3.3,0,0,1,2.029-1.906,10.819,10.819,0,0,1,2.835,1.321,7.792,7.792,0,0,0,1.142.674,6.9,6.9,0,0,0,1.358-.464c2.1-.7,5.963-2.052,7.387.427a2.279,2.279,0,0,1,.225,1.037,10.622,10.622,0,0,1-3.386,3.915,29.244,29.244,0,0,1-4.4,3.084.666.666,0,0,0-.2.135c.689,1.2,1.216,2.487,1.948,3.654a16.481,16.481,0,0,0,9.762,7.034c1.081.291,3.661,1.041,4.606.622a46.522,46.522,0,0,1-3.005-4.221,25,25,0,0,1-2.9-8.853c-1-6.566,1.956-11.4,5.672-16.457,9.437-12.855,22.91-23.889,38.074-29.145a92.049,92.049,0,0,1,16.361-3.763,4.7,4.7,0,0,0,.469-.376l-.127-.12-13.477.474A8.644,8.644,0,0,0,951.634,1217.01Z" transform="translate(-890.359 -1206.891)" fill="#733a29"/>
            <path id="Trazado_875962" data-name="Trazado 875962" d="M939.519,1220.275c-1.457.721-3.2,1.161-4.729,1.733a101.06,101.06,0,0,0-9.342,3.963,87.656,87.656,0,0,0-12.109,7.229,94.274,94.274,0,0,0-15.331,13.75c-2.541,2.819-5.321,6.091-6.6,9.722a15.789,15.789,0,0,0-.816,3.6l.275-.043a3.3,3.3,0,0,1,2.029-1.907,11.584,11.584,0,0,1,1.308-2.586,74.669,74.669,0,0,1,14.678-16.2,104.965,104.965,0,0,1,27.3-16.832c2.478-1.044,4.943-2.064,7.506-2.883,3.8-1.214,7.672-1.69,11.552-2.526a8.636,8.636,0,0,0-3.6.194c-1.411.209-2.822.362-4.217.676l-7.811,2.063Z" transform="translate(-890.359 -1207.371)" fill="#de7604"/>
            <path id="Trazado_875963" data-name="Trazado 875963" d="M1017.4,1204.193c1.4-.314,2.807-.467,4.217-.676a8.644,8.644,0,0,1,3.6-.194l13.477-.474.127.12a4.72,4.72,0,0,1-.469.376c-2.776,2.775-7.06,6.132-7.072,10.462-.007,2.452.109,4.178,1.923,5.973,2.213,2.19,5.294,2.679,8,3.988a48.6,48.6,0,0,1,4.228,2.756,27.084,27.084,0,0,0,14.373,3.908c2.719-.023,6.262-.722,8.326-2.643l-.519-1.327a6.435,6.435,0,0,0,1.516-3.313c.3-2.282-.508-4.647.778-6.74s3.515-3.437,5.15-5.221l.1-.111-.112-.27-.877-1.172-.048-.077a20.188,20.188,0,0,0-3.575-3.894,28.791,28.791,0,0,0-13.086-6.923,20.85,20.85,0,0,0-16.495,2.756c-3.666-3.214-7.744-6.058-12.495-7.382-3.673-1.025-7.275-1.107-10.657.816-4.151,2.361-6.963,6.8-8.222,11.328Z" transform="translate(-960.341 -1193.397)" fill="#ba610a"/>
            <path id="Trazado_875964" data-name="Trazado 875964" d="M1086.559,1227.9c5.7-3.525,11.649-3.645,18-2,1.614.419,3.169,1.057,4.786,1.44l-.877-1.172-.08,0a5.222,5.222,0,0,1-1.782-.875l-2.934-1.43c-6.092-2.8-14.485-3.729-19.979.808-3.412,2.818-8.526,10.682-13.372,10.29-.837-.068-1.6-.47-2.4-.535a9.794,9.794,0,0,0,7.636,2.274,5.752,5.752,0,0,0,1.946-.527C1080.9,1233.841,1083.014,1230.094,1086.559,1227.9Z" transform="translate(-994.648 -1209.936)" fill="#9f540f"/>
            <path id="Trazado_875965" data-name="Trazado 875965" d="M1094.177,1240.718l6.48-.88a32.238,32.238,0,0,1-2.4,3.784c3.607,2.195,6.688,4.424,10.95,5.23a9.609,9.609,0,0,0,4.255.047,9.872,9.872,0,0,0,2.132-1.1,6.435,6.435,0,0,0,1.516-3.313c.3-2.282-.508-4.647.779-6.74s3.515-3.437,5.15-5.221l.1-.111-.112-.27c-1.617-.384-3.172-1.022-4.786-1.44-6.355-1.647-12.3-1.527-18,2-3.546,2.192-5.655,5.939-9.053,8.273C1091.848,1241.238,1093.437,1240.821,1094.177,1240.718Z" transform="translate(-1008.329 -1214.734)" fill="#de7604"/>
            <path id="Trazado_875966" data-name="Trazado 875966" d="M1313.111,1339.848c-1.718.934-4.171,1.17-6.06,1.735a67.5,67.5,0,0,0-9.22,3.561c-13.309,6.252-24.579,17.313-32.433,29.641a61.95,61.95,0,0,0-7.145,14.861,27.183,27.183,0,0,0-.989,4.092,23.535,23.535,0,0,1-.41,3.184,7.556,7.556,0,0,1-1.05,1.832,19.976,19.976,0,0,1-7.365,6.723c-8.083,4.284-17.825,5.27-26.813,4.346a50.66,50.66,0,0,1-10.07-1.945c-2.684-.843-5.474-2.175-6.849-4.774s-.9-4.982-.4-7.7a24.541,24.541,0,0,0-2.083,4.216l-6.02,12.008c-.91,1.8-2.1,3.44-3.017,5.249a215.975,215.975,0,0,0,35.263,2.91l9.895-.031a34.083,34.083,0,0,1,4.686-.159l13.9-1.237a56.281,56.281,0,0,0,8.084-1.124,3.833,3.833,0,0,1,.836.067,5.517,5.517,0,0,1,1.209,1.028l2.438,2.211.049.234a6.387,6.387,0,0,1,2.758,2.039,1.53,1.53,0,0,0,.817.068,20.526,20.526,0,0,1,2.913-.7c.681-.072,1.36-.038,2.045-.125,2.993-.378,6.162.113,9.16.181l5.794.117c.426.008.855-.111,1.272-.089a1.041,1.041,0,0,1,.745.267l.526-.08a9.383,9.383,0,0,1,1.577-4.032,44.174,44.174,0,0,1,5.619-6.156,77.443,77.443,0,0,0,7-7.866c9.516-12.641,12.176-28.373,9.977-43.8a77.431,77.431,0,0,0-2.095-9.708c-.263-.954-.478-2.581-1.279-3.18a2.5,2.5,0,0,0,.13-.456,5.257,5.257,0,0,0-.395-1.257c-.521-1.517-1.059-3.05-1.719-4.511-.263-.578-.584-1.437-1.209-1.672Z" transform="translate(-1068.316 -1279.5)" fill="#b55b09"/>
            <path id="Trazado_875967" data-name="Trazado 875967" d="M1410.631,1371.863c-.056,1.09,0,2.187-.154,3.271a71.828,71.828,0,0,1-1.861,10.666c-3.228,10.977-9.379,22-18.585,29.069-6.168,4.735-13.165,7.987-21.009,8.443a18.738,18.738,0,0,1-3.375.065l-.384-.08c-.5-.107-1.06-.087-1.575-.156a16.532,16.532,0,0,1-4.02-.964,16.2,16.2,0,0,1-5.692-3.491,10.866,10.866,0,0,0-1.681-1.727,30.923,30.923,0,0,0,4.143,7.677c.475.653,2.774,3.18,2.748,3.709l-.6.156a3.848,3.848,0,0,1,.836.067,5.51,5.51,0,0,1,1.209,1.028l2.438,2.211.049.234a6.388,6.388,0,0,1,2.758,2.038,1.528,1.528,0,0,0,.817.068,20.525,20.525,0,0,1,2.913-.7c.682-.072,1.36-.038,2.045-.125,2.993-.378,6.162.113,9.16.181l5.794.117c.426.008.855-.111,1.272-.089a1.043,1.043,0,0,1,.745.266l.526-.08a9.381,9.381,0,0,1,1.577-4.032,44.172,44.172,0,0,1,5.619-6.156,77.44,77.44,0,0,0,7-7.866c9.516-12.641,12.176-28.373,9.977-43.8a77.444,77.444,0,0,0-2.095-9.708c-.263-.954-.478-2.581-1.279-3.18A63.7,63.7,0,0,1,1410.631,1371.863Z" transform="translate(-1161.886 -1290.773)" fill="#a55a1c"/>
            <path id="Trazado_875968" data-name="Trazado 875968" d="M940.609,1281.516a32.674,32.674,0,0,0,4.8,4.234c6.815,5.145,14.565,7.722,22.855,9.331,13.051,1.915,30.03-1.528,40.929-9.092a11.141,11.141,0,0,0,2.387-1.771,36.384,36.384,0,0,0,13.361-34.676,64.336,64.336,0,0,0-1.843-7.552c-2.064,1.921-5.607,2.62-8.326,2.643a27.083,27.083,0,0,1-14.372-3.908,48.566,48.566,0,0,0-4.228-2.756c-2.7-1.309-5.785-1.8-8-3.988-1.813-1.8-1.93-3.521-1.923-5.973.013-4.329,4.3-7.686,7.072-10.461a92.073,92.073,0,0,0-16.361,3.763c-15.163,5.256-28.636,16.29-38.073,29.145-3.715,5.061-6.668,9.891-5.672,16.457a24.992,24.992,0,0,0,2.9,8.853,46.437,46.437,0,0,0,3.005,4.221A13.782,13.782,0,0,0,940.609,1281.516Z" transform="translate(-915.315 -1207.599)" fill="#de7604"/>
            <path id="Trazado_875969" data-name="Trazado 875969" d="M956.24,1377.083c6.815,5.145,14.565,7.722,22.855,9.331,13.051,1.915,30.03-1.528,40.929-9.092-.588-.342-1.328.053-1.923.257-3.086,1.057-6.079,2.176-9.239,3.02a73.094,73.094,0,0,1-22.425,2.277,83.3,83.3,0,0,1-23.889-5.038,58.946,58.946,0,0,1-9.384-4.308,3.816,3.816,0,0,0-1.728-.682A32.658,32.658,0,0,0,956.24,1377.083Z" transform="translate(-926.141 -1298.933)" fill="#ba610a"/>
            <path id="Trazado_875970" data-name="Trazado 875970" d="M1005.924,1267.062a8.8,8.8,0,0,0-1.946,6.667,8.642,8.642,0,0,0,3.352,5.619,11.26,11.26,0,0,0,7.051,2.189c2.772-.268,5.479-1.1,7.316-3.34a9.08,9.08,0,0,0,2.075-6.839,9.481,9.481,0,0,0-3.494-6.089,9.834,9.834,0,0,0-6.519-1.977l-.077.009C1010.682,1263.636,1007.877,1264.649,1005.924,1267.062Z" transform="translate(-957.004 -1234.484)" fill="#763b05"/>
            <path id="Trazado_875971" data-name="Trazado 875971" d="M1013.312,1272.793a6.4,6.4,0,0,0-.292,4.868,6.073,6.073,0,0,0,3.434,3.586,6.846,6.846,0,0,0,3.032.45,5.974,5.974,0,0,0,4.016-2.888,6.467,6.467,0,0,0,.194-4.976,6.367,6.367,0,0,0-3.082-3.655,6.748,6.748,0,0,0-3.424-.558A6.024,6.024,0,0,0,1013.312,1272.793Z" transform="translate(-962.152 -1238.211)" fill="#070605"/>
            <path id="Trazado_875972" data-name="Trazado 875972" d="M1033.127,1288.119c.248.368.347.552.814.651a2.227,2.227,0,0,0,.524.017c.251-.5.475-.706.329-1.26a1.561,1.561,0,0,0-1.225-.533A2.18,2.18,0,0,0,1033.127,1288.119Z" transform="translate(-974.184 -1248.441)" fill="#fefefe"/>
            <path id="Trazado_875973" data-name="Trazado 875973" d="M1016.858,1274.6a2.32,2.32,0,0,0,.324,1.8,2.72,2.72,0,0,0,1.548,1.182,4.692,4.692,0,0,0,1.234-.035,3.05,3.05,0,0,0,1.731-1.877,2.228,2.228,0,0,0-.279-1.681,2.758,2.758,0,0,0-1.666-1.256,3.853,3.853,0,0,0-1.207,0C1017.724,1273.233,1017.111,1273.606,1016.858,1274.6Z" transform="translate(-964.58 -1240.026)" fill="#fefefe"/>
            <path id="Trazado_875974" data-name="Trazado 875974" d="M1080.345,1235.184c-1.635,1.784-3.854,3.115-5.15,5.221s-.479,4.458-.779,6.74a6.437,6.437,0,0,1-1.516,3.313l.519,1.326a64.328,64.328,0,0,1,1.843,7.552,36.385,36.385,0,0,1-13.361,34.676,11.136,11.136,0,0,1-2.387,1.771c-10.9,7.564-27.878,11.007-40.928,9.092a14.8,14.8,0,0,0,2.454,4.768,81.749,81.749,0,0,0,11.74,14.338l5.383,4.937c.654.57,1.462,1.04,2.066,1.65l-.034.082a30,30,0,0,1-6.3,2.086l-3.355.5,14.03,9.023a84.217,84.217,0,0,0,18.947,6.865l6.437,1.236c.344,3.536.706,10.625-1.615,13.393a4.1,4.1,0,0,1-2.353,1.189c-2.773.746-5.433,1.494-7.373,3.779a16.991,16.991,0,0,0-2.275,3.862l5.2-1.035a8.111,8.111,0,0,1,2.133-.361l-1.034,2.807a2.619,2.619,0,0,0-.306.932,27.3,27.3,0,0,1,5.1-1.283l6.42-.709c2.5-.261,5.129-.3,7.2-1.9,2.215-1.715,3.59-4.448,4.789-6.922l2.573-5.4a36.017,36.017,0,0,0,2.1-3.953c.913-1.809,2.106-3.446,3.017-5.249l6.021-12.008a24.555,24.555,0,0,1,2.083-4.216c-.5,2.723-.972,5.115.4,7.7s4.165,3.932,6.85,4.774a50.664,50.664,0,0,0,10.07,1.946c8.988.924,18.73-.061,26.813-4.346a19.974,19.974,0,0,0,7.366-6.723,7.579,7.579,0,0,0,1.05-1.832,23.584,23.584,0,0,0,.41-3.184,27.233,27.233,0,0,1,.988-4.092,61.956,61.956,0,0,1,7.145-14.861c7.855-12.328,19.125-23.389,32.433-29.642a67.456,67.456,0,0,1,9.22-3.561c1.889-.565,4.343-.8,6.06-1.735l.072-.04c.114-.728-.427-1.391-.8-2l-2.971-4.538a71.1,71.1,0,0,0-24.61-20.677,88.965,88.965,0,0,0-10.281-4.725,70.809,70.809,0,0,0-26.848-4.431l-12.557,1.063-14.6,1.3a97.844,97.844,0,0,1-22.211-.576,24.08,24.08,0,0,1-1.2-2.288,15.306,15.306,0,0,0-6.48-5.623,9.244,9.244,0,0,0-5.366-.888,14.394,14.394,0,0,0-2.132.753Z" transform="translate(-965.632 -1217.394)" fill="#de7604"/>
            <path id="Trazado_875975" data-name="Trazado 875975" d="M1050.966,1470.444l-3.355.5,14.03,9.024a84.233,84.233,0,0,0,18.947,6.865l6.437,1.236a17.959,17.959,0,0,0-2.911-8.435,27.617,27.617,0,0,0-3.338-3.663l-3.219-3.372a14.393,14.393,0,0,0,4.573,7.026,7.711,7.711,0,0,1-2.109-.342,56.152,56.152,0,0,1-17.842-7.471,36.086,36.086,0,0,1-2.981-2.066,10.377,10.377,0,0,0-1.932-1.388A29.975,29.975,0,0,1,1050.966,1470.444Z" transform="translate(-982.702 -1355.102)" fill="#ba610a"/>
            <path id="Trazado_875976" data-name="Trazado 875976" d="M1080.345,1235.184c-1.635,1.784-3.854,3.115-5.15,5.221s-.479,4.458-.779,6.74a6.437,6.437,0,0,1-1.516,3.313l.519,1.326a64.328,64.328,0,0,1,1.843,7.552,36.385,36.385,0,0,1-13.361,34.676,11.136,11.136,0,0,1-2.387,1.771c-10.9,7.564-27.878,11.007-40.928,9.092a14.8,14.8,0,0,0,2.454,4.768,81.749,81.749,0,0,0,11.74,14.338l5.383,4.937c.654.57,1.462,1.04,2.066,1.65a11.308,11.308,0,0,0,2.753-1.406,25.671,25.671,0,0,0,7.572-7.229c-1,3.661-2.154,6.866-4.677,9.787l1.225-.415c5.844-2.135,10.725-5.915,15.536-9.746a65.642,65.642,0,0,0,8.823-8,42.32,42.32,0,0,0,5.9-8.886,25.764,25.764,0,0,0,2.078-5.745,20.285,20.285,0,0,1,.934-3.855,19.061,19.061,0,0,1,.16,3.731,31.306,31.306,0,0,1-.583,6.647,44.1,44.1,0,0,1-3.1,8.435l.116-.026a7.292,7.292,0,0,0,1.132-.884l2.871-2.289c7.385-5.966,14.3-12.358,18.15-21.234,5.349-12.326,4.773-26.206.153-38.655a34.939,34.939,0,0,0-1.806-4.115,35.337,35.337,0,0,1-1.849-3.567,24.08,24.08,0,0,1-1.2-2.288,15.306,15.306,0,0,0-6.48-5.623,9.244,9.244,0,0,0-5.366-.888,14.394,14.394,0,0,0-2.132.753Z" transform="translate(-965.632 -1217.394)" fill="#b55b09"/>
          </g>
        </g>
      </g>
      <g id="Grupo_1189038" data-name="Grupo 1189038" transform="translate(0 57.583)">
        <g id="Grupo_1189037" data-name="Grupo 1189037">
          <g id="Grupo_1189036" data-name="Grupo 1189036">
            <path id="Trazado_875977" data-name="Trazado 875977" d="M604.915,1586.793l10.507.935.007.172c1.918,1.421,3.7,2.916,4.532,5.252l-6.7-1.261a10.831,10.831,0,0,1,2.084,2.562l-8.993-1.708c-2.6-.446-5.487-.547-7.951-1.544a6.747,6.747,0,0,1-2.832-2.157,1.076,1.076,0,0,1-.186-.424l.037-.177,1.843-1.671a4.168,4.168,0,0,1,.914-.777,2.917,2.917,0,0,1,.632-.05A42.5,42.5,0,0,0,604.915,1586.793Z" transform="translate(-556.885 -1481.836)" fill="#93480a"/>
            <path id="Trazado_875978" data-name="Trazado 875978" d="M799.083,1570.324a6.5,6.5,0,0,0,.955,2.511,2.868,2.868,0,0,0,1.795,1.222c.566.09,1.145.094,1.708.208a7.292,7.292,0,0,1,4.353,2.565,10.024,10.024,0,0,1,1.45,2.763l-5.386-.987a16.539,16.539,0,0,1,1.358,2.794l-5.983-1.06a26.063,26.063,0,0,0-2.868-.028,7.11,7.11,0,0,1-5.9-2.967,43.551,43.551,0,0,1-2.843-4.843l-2.683-4.973a63.688,63.688,0,0,0,14.322-5.189A23.147,23.147,0,0,0,799.083,1570.324Z" transform="translate(-668.421 -1467.956)" fill="#93480a"/>
            <path id="Trazado_875979" data-name="Trazado 875979" d="M564.887,1595.364c2.633.489,5.4.844,7.812,2.066a9.9,9.9,0,0,1,5.239,5.886l-5.27-1.2a8.67,8.67,0,0,1,1.492,3.323,47.622,47.622,0,0,0-7.1-2.181c.049.6.755,1.253.836,1.947.029.244.042.286-.1.479a23.9,23.9,0,0,0-6.16-1.844l-5.761-1.144a36.275,36.275,0,0,1-4.918-1.2c-1.345-.471-2.961-1.184-3.6-2.552a5.521,5.521,0,0,1-.02-3.751l.325-.188a.789.789,0,0,1,.563-.2c.315-.016.64.074.962.068l4.379-.089a47.433,47.433,0,0,1,6.924-.137c.518.065,1.031.04,1.546.094a15.517,15.517,0,0,1,2.2.529,1.157,1.157,0,0,0,.617-.052Z" transform="translate(-528.442 -1486.887)" fill="#93480a"/>
            <path id="Trazado_875980" data-name="Trazado 875980" d="M883.775,1428.13l.208.033a9.222,9.222,0,0,1,.174,2.329,17.667,17.667,0,0,1-2.435,9.014,12.966,12.966,0,0,1-3.128,3.58,9.013,9.013,0,0,1-2.044,1.127,42.366,42.366,0,0,1-3.35,4.049,26.117,26.117,0,0,1-10.335,5.623l-3.68.926a20.786,20.786,0,0,0-6.552,3.253c-3.315,2.419-5.616,5.909-8.293,8.96a68.838,68.838,0,0,1-9.246,8.72l-2.536-.38a22.694,22.694,0,0,1-4.762-1.576l-.025-.062c.456-.461,1.068-.817,1.562-1.248l4.069-3.732a61.8,61.8,0,0,0,8.875-10.838,11.176,11.176,0,0,0,1.855-3.6c6.266-1.216,12.124-3.164,17.276-7.053a24.674,24.674,0,0,0,3.631-3.2,10.387,10.387,0,0,0,1.12-1.157c.715.317,2.665-.25,3.482-.47a12.46,12.46,0,0,0,7.379-5.317c.554-.882.952-1.857,1.473-2.762a.52.52,0,0,0-.151-.1,22.089,22.089,0,0,1-3.328-2.332,8.028,8.028,0,0,1-2.56-2.959,1.726,1.726,0,0,1,.17-.784c1.077-1.873,4-.852,5.584-.322a5.212,5.212,0,0,0,1.026.35,5.886,5.886,0,0,0,.863-.509,8.181,8.181,0,0,1,2.143-1A2.494,2.494,0,0,1,883.775,1428.13Z" transform="translate(-693.555 -1388.179)" fill="#e0c29b"/>
            <path id="Trazado_875981" data-name="Trazado 875981" d="M940.927,1428.13l.208.033a9.222,9.222,0,0,1,.174,2.329,17.666,17.666,0,0,1-2.435,9.014,12.965,12.965,0,0,1-3.128,3.58,9.015,9.015,0,0,1-2.044,1.127,5.592,5.592,0,0,0-1.121-.337,10.622,10.622,0,0,0-1.064.783,7.489,7.489,0,0,1-2.07.762,6.169,6.169,0,0,1-4.494-.955l1.748.305a6.553,6.553,0,0,0,4.977-1.436c2.573-2.048,3.633-5.852,3.967-8.991a.52.52,0,0,0-.151-.1,22.089,22.089,0,0,1-3.328-2.332,8.028,8.028,0,0,1-2.56-2.959,1.724,1.724,0,0,1,.17-.784c1.077-1.873,4-.852,5.584-.322a5.216,5.216,0,0,0,1.026.35,5.885,5.885,0,0,0,.863-.509,8.184,8.184,0,0,1,2.143-1A2.494,2.494,0,0,1,940.927,1428.13Z" transform="translate(-750.708 -1388.179)" fill="#9f540f"/>
            <path id="Trazado_875982" data-name="Trazado 875982" d="M955.81,1432.55a17.665,17.665,0,0,1-2.435,9.014,12.963,12.963,0,0,1-3.128,3.58l-.532-.359a3.461,3.461,0,0,1-.057-1.452,47.687,47.687,0,0,1,.945-4.7c.137-.711.151-1.627.358-2.293.1-.333,1.509-1.268,1.87-1.579a6.437,6.437,0,0,0,2.6-4.569l.208.033A9.216,9.216,0,0,1,955.81,1432.55Z" transform="translate(-765.209 -1390.236)" fill="#e0c29b"/>
            <path id="Trazado_875983" data-name="Trazado 875983" d="M833.648,1351.043c1.067.158,2.133.273,3.188.511l5.9,1.56.066.034c1.1.545,2.417.878,3.575,1.31a76.2,76.2,0,0,1,7.062,3,66.3,66.3,0,0,1,9.153,5.464,71.29,71.29,0,0,1,11.588,10.393c1.92,2.132,4.022,4.6,4.989,7.349a11.937,11.937,0,0,1,.617,2.719l-.208-.033a2.494,2.494,0,0,0-1.534-1.441,8.181,8.181,0,0,0-2.143,1,5.864,5.864,0,0,1-.863.509,5.2,5.2,0,0,1-1.026-.35c-1.588-.531-4.507-1.551-5.584.322a1.724,1.724,0,0,0-.17.784,8.031,8.031,0,0,0,2.56,2.959,22.1,22.1,0,0,0,3.328,2.331.516.516,0,0,1,.151.1c-.521.905-.919,1.88-1.473,2.762a12.46,12.46,0,0,1-7.379,5.317c-.817.22-2.767.787-3.482.47a35.183,35.183,0,0,0,2.272-3.19,18.9,18.9,0,0,0,2.192-6.691c.753-4.963-1.479-8.614-4.287-12.439-7.134-9.717-17.318-18.057-28.779-22.03A69.627,69.627,0,0,0,821,1350.913a3.6,3.6,0,0,1-.354-.285l.1-.091,10.187.358A6.518,6.518,0,0,1,833.648,1351.043Z" transform="translate(-689.362 -1343.394)" fill="#f9e4c5"/>
            <path id="Trazado_875984" data-name="Trazado 875984" d="M857.487,1353.511c1.1.545,2.417.878,3.575,1.31a76.4,76.4,0,0,1,7.062,3,66.3,66.3,0,0,1,9.153,5.464,71.279,71.279,0,0,1,11.588,10.393c1.92,2.131,4.022,4.6,4.989,7.349a11.931,11.931,0,0,1,.617,2.719l-.208-.033a2.494,2.494,0,0,0-1.534-1.441,8.767,8.767,0,0,0-.989-1.955,56.455,56.455,0,0,0-11.094-12.243,79.382,79.382,0,0,0-20.633-12.723c-1.873-.789-3.736-1.559-5.674-2.178-2.874-.917-5.8-1.278-8.732-1.909a6.526,6.526,0,0,1,2.723.147c1.067.158,2.133.274,3.188.511l5.9,1.56Z" transform="translate(-704.044 -1343.757)" fill="#de7604"/>
            <path id="Trazado_875985" data-name="Trazado 875985" d="M797.625,1341.355c-1.054-.238-2.121-.353-3.188-.511a6.526,6.526,0,0,0-2.723-.147l-10.187-.358-.1.091a3.6,3.6,0,0,0,.354.284c2.1,2.1,5.336,4.636,5.346,7.908.005,1.854-.083,3.158-1.453,4.515-1.673,1.655-4,2.025-6.045,3.015a36.626,36.626,0,0,0-3.2,2.083,20.471,20.471,0,0,1-10.864,2.954c-2.055-.018-4.734-.546-6.293-2l.392-1a4.865,4.865,0,0,1-1.145-2.5c-.227-1.725.384-3.513-.589-5.094s-2.657-2.6-3.893-3.947l-.076-.084.085-.2.663-.885.037-.059a15.237,15.237,0,0,1,2.7-2.944,21.766,21.766,0,0,1,9.891-5.234,15.764,15.764,0,0,1,12.468,2.083,24.687,24.687,0,0,1,9.445-5.58,10.143,10.143,0,0,1,8.055.617,14.175,14.175,0,0,1,6.215,8.563Z" transform="translate(-650.152 -1333.194)" fill="#ba610a"/>
            <path id="Trazado_875986" data-name="Trazado 875986" d="M771.4,1359.275c-4.31-2.664-8.805-2.755-13.609-1.51-1.221.316-2.4.8-3.618,1.089l.663-.885.06,0a3.949,3.949,0,0,0,1.347-.661l2.218-1.081c4.6-2.113,10.949-2.819,15.1.611,2.579,2.131,6.445,8.074,10.108,7.778.633-.051,1.213-.355,1.816-.4a7.407,7.407,0,0,1-5.772,1.719,4.344,4.344,0,0,1-1.47-.4C775.676,1363.765,774.082,1360.933,771.4,1359.275Z" transform="translate(-650.273 -1345.696)" fill="#9f540f"/>
            <path id="Trazado_875987" data-name="Trazado 875987" d="M775.863,1368.964l-4.9-.666a24.326,24.326,0,0,0,1.812,2.861c-2.727,1.659-5.055,3.344-8.277,3.953a7.265,7.265,0,0,1-3.216.035,7.463,7.463,0,0,1-1.612-.832,4.866,4.866,0,0,1-1.145-2.5c-.227-1.724.384-3.513-.589-5.094s-2.657-2.6-3.893-3.947l-.076-.084.085-.2c1.222-.29,2.4-.772,3.618-1.089,4.8-1.245,9.3-1.154,13.609,1.51,2.68,1.657,4.275,4.49,6.844,6.253A6.338,6.338,0,0,1,775.863,1368.964Z" transform="translate(-650.152 -1349.322)" fill="#de7604"/>
            <path id="Trazado_875988" data-name="Trazado 875988" d="M507.491,1443.894c1.3.706,3.153.885,4.581,1.312a51.058,51.058,0,0,1,6.969,2.692c10.06,4.726,18.579,13.087,24.516,22.406a46.824,46.824,0,0,1,5.4,11.233,20.574,20.574,0,0,1,.747,3.094,17.837,17.837,0,0,0,.31,2.406,5.734,5.734,0,0,0,.794,1.385,15.1,15.1,0,0,0,5.568,5.082c6.109,3.239,13.474,3.984,20.268,3.285a38.348,38.348,0,0,0,7.611-1.47c2.029-.637,4.138-1.644,5.177-3.609s.682-3.766.3-5.824a18.528,18.528,0,0,1,1.575,3.187l4.551,9.076c.688,1.362,1.59,2.6,2.28,3.968a163.234,163.234,0,0,1-26.655,2.2l-7.479-.024a25.753,25.753,0,0,0-3.542-.121l-10.507-.935a42.531,42.531,0,0,1-6.111-.85,2.932,2.932,0,0,0-.632.05,4.178,4.178,0,0,0-.914.777l-1.843,1.671-.037.177a4.834,4.834,0,0,0-2.085,1.541,1.153,1.153,0,0,1-.617.052,15.547,15.547,0,0,0-2.2-.529c-.515-.054-1.028-.029-1.546-.094a47.466,47.466,0,0,0-6.924.137l-4.379.089c-.322.006-.647-.084-.962-.068a.79.79,0,0,0-.563.2l-.4-.06a7.088,7.088,0,0,0-1.192-3.048,33.394,33.394,0,0,0-4.247-4.653,58.446,58.446,0,0,1-5.289-5.946c-7.193-9.555-9.2-21.446-7.542-33.109a58.523,58.523,0,0,1,1.583-7.338c.2-.721.362-1.951.967-2.4a1.845,1.845,0,0,1-.1-.344,3.991,3.991,0,0,1,.3-.95c.393-1.146.8-2.3,1.3-3.409.2-.437.441-1.086.914-1.265Z" transform="translate(-501.925 -1398.279)" fill="#b55b09"/>
            <path id="Trazado_875989" data-name="Trazado 875989" d="M504.5,1468.1c.042.824,0,1.653.117,2.473a54.332,54.332,0,0,0,1.407,8.061c2.44,8.3,7.09,16.631,14.048,21.973a28.758,28.758,0,0,0,15.88,6.382,14.14,14.14,0,0,0,2.551.049l.29-.06c.381-.081.8-.066,1.191-.117a12.515,12.515,0,0,0,3.039-.729,12.241,12.241,0,0,0,4.3-2.638,8.2,8.2,0,0,1,1.27-1.3,23.356,23.356,0,0,1-3.132,5.8c-.359.494-2.1,2.4-2.077,2.8l.452.118a2.917,2.917,0,0,0-.632.05,4.166,4.166,0,0,0-.914.778l-1.843,1.671-.037.177a4.833,4.833,0,0,0-2.085,1.541,1.155,1.155,0,0,1-.617.051,15.546,15.546,0,0,0-2.2-.528c-.515-.054-1.028-.029-1.546-.094a47.4,47.4,0,0,0-6.924.137l-4.379.088c-.322.006-.647-.084-.962-.067a.79.79,0,0,0-.563.2l-.4-.06a7.088,7.088,0,0,0-1.192-3.048,33.4,33.4,0,0,0-4.247-4.653,58.367,58.367,0,0,1-5.289-5.946c-7.193-9.555-9.2-21.446-7.542-33.109a58.523,58.523,0,0,1,1.583-7.338c.2-.721.362-1.951.967-2.4A48.148,48.148,0,0,0,504.5,1468.1Z" transform="translate(-501.925 -1406.8)" fill="#a55a1c"/>
            <path id="Trazado_875990" data-name="Trazado 875990" d="M826.737,1399.8a24.669,24.669,0,0,1-3.631,3.2c-5.152,3.889-11.01,5.837-17.276,7.053-9.865,1.447-22.7-1.155-30.937-6.872a8.422,8.422,0,0,1-1.8-1.339,27.5,27.5,0,0,1-10.1-26.211,48.657,48.657,0,0,1,1.393-5.708c1.56,1.452,4.238,1.98,6.293,2a20.472,20.472,0,0,0,10.864-2.954,36.568,36.568,0,0,1,3.2-2.083c2.044-.99,4.373-1.359,6.046-3.015,1.37-1.357,1.459-2.661,1.453-4.515-.01-3.272-3.248-5.81-5.346-7.908a69.619,69.619,0,0,1,12.367,2.844c11.462,3.973,21.646,12.313,28.779,22.03,2.808,3.826,5.04,7.476,4.287,12.439a18.891,18.891,0,0,1-2.192,6.691,35.234,35.234,0,0,1-2.272,3.191A10.431,10.431,0,0,1,826.737,1399.8Z" transform="translate(-655.253 -1343.93)" fill="#de7604"/>
            <path id="Trazado_875991" data-name="Trazado 875991" d="M840.594,1472.04c-5.152,3.889-11.01,5.837-17.276,7.053-9.865,1.447-22.7-1.155-30.937-6.872.444-.259,1,.041,1.454.195,2.333.8,4.595,1.645,6.984,2.282a55.244,55.244,0,0,0,16.951,1.722,62.977,62.977,0,0,0,18.057-3.808,44.519,44.519,0,0,0,7.093-3.256,2.886,2.886,0,0,1,1.306-.516A24.684,24.684,0,0,1,840.594,1472.04Z" transform="translate(-672.742 -1412.967)" fill="#ba610a"/>
            <path id="Trazado_875992" data-name="Trazado 875992" d="M855.579,1388.877a6.649,6.649,0,0,1,1.471,5.039,6.535,6.535,0,0,1-2.533,4.248,8.51,8.51,0,0,1-5.33,1.655,7.789,7.789,0,0,1-5.53-2.525,6.861,6.861,0,0,1-1.568-5.169,7.166,7.166,0,0,1,2.641-4.6,7.434,7.434,0,0,1,4.928-1.495l.058.007A8.382,8.382,0,0,1,855.579,1388.877Z" transform="translate(-701.953 -1364.251)" fill="#763b05"/>
            <path id="Trazado_875993" data-name="Trazado 875993" d="M859.142,1393.209a4.838,4.838,0,0,1,.221,3.679,4.588,4.588,0,0,1-2.6,2.711,5.176,5.176,0,0,1-2.292.34,4.514,4.514,0,0,1-3.035-2.183,4.89,4.89,0,0,1-.147-3.761,4.812,4.812,0,0,1,2.33-2.763,5.094,5.094,0,0,1,2.588-.423A4.556,4.556,0,0,1,859.142,1393.209Z" transform="translate(-707.209 -1367.069)" fill="#070605"/>
            <path id="Trazado_875994" data-name="Trazado 875994" d="M854.649,1404.793c-.187.279-.262.417-.615.492a1.692,1.692,0,0,1-.4.012c-.19-.379-.359-.533-.249-.952a1.178,1.178,0,0,1,.926-.4A1.644,1.644,0,0,1,854.649,1404.793Z" transform="translate(-708.6 -1374.801)" fill="#fefefe"/>
            <path id="Trazado_875995" data-name="Trazado 875995" d="M863.443,1394.576a1.754,1.754,0,0,1-.245,1.359,2.056,2.056,0,0,1-1.17.893,3.518,3.518,0,0,1-.933-.027,2.3,2.3,0,0,1-1.309-1.418,1.683,1.683,0,0,1,.211-1.27,2.085,2.085,0,0,1,1.259-.949,2.907,2.907,0,0,1,.912,0C862.789,1393.541,863.252,1393.823,863.443,1394.576Z" transform="translate(-712.356 -1368.44)" fill="#fefefe"/>
            <path id="Trazado_875996" data-name="Trazado 875996" d="M613.67,1364.781c1.236,1.349,2.914,2.354,3.893,3.947s.362,3.37.589,5.094a4.866,4.866,0,0,0,1.146,2.5l-.393,1a48.734,48.734,0,0,0-1.393,5.709,27.5,27.5,0,0,0,10.1,26.211,8.414,8.414,0,0,0,1.8,1.339c8.238,5.717,21.072,8.319,30.937,6.872a11.178,11.178,0,0,1-1.855,3.6,61.792,61.792,0,0,1-8.875,10.838l-4.069,3.732c-.494.43-1.105.786-1.562,1.247l.025.062a22.682,22.682,0,0,0,4.762,1.576l2.536.38-10.6,6.82a63.66,63.66,0,0,1-14.322,5.189l-4.866.934c-.26,2.673-.534,8.032,1.221,10.123a3.1,3.1,0,0,0,1.778.9c2.1.564,4.107,1.129,5.573,2.857a12.826,12.826,0,0,1,1.719,2.919l-3.929-.782a6.127,6.127,0,0,0-1.613-.273l.782,2.122a1.975,1.975,0,0,1,.231.7,20.667,20.667,0,0,0-3.853-.97l-4.853-.536c-1.887-.2-3.877-.223-5.442-1.435a14.259,14.259,0,0,1-3.62-5.232l-1.945-4.082a27.284,27.284,0,0,1-1.584-2.988c-.69-1.367-1.592-2.6-2.28-3.967l-4.551-9.076a18.554,18.554,0,0,0-1.575-3.187c.38,2.058.735,3.866-.3,5.824s-3.148,2.971-5.177,3.609a38.346,38.346,0,0,1-7.611,1.47c-6.794.7-14.158-.046-20.268-3.285a15.1,15.1,0,0,1-5.568-5.082,5.72,5.72,0,0,1-.794-1.385,17.833,17.833,0,0,1-.31-2.406,20.553,20.553,0,0,0-.747-3.094,46.828,46.828,0,0,0-5.4-11.233c-5.937-9.319-14.456-17.68-24.516-22.406a51.1,51.1,0,0,0-6.969-2.692c-1.428-.427-3.282-.6-4.581-1.311l-.054-.03c-.086-.55.323-1.052.607-1.513l2.245-3.43a53.739,53.739,0,0,1,18.6-15.629,67.055,67.055,0,0,1,7.771-3.571,53.523,53.523,0,0,1,20.294-3.35l9.491.8,11.033.984a73.956,73.956,0,0,0,16.789-.435,18.08,18.08,0,0,0,.906-1.729,11.571,11.571,0,0,1,4.9-4.25,6.99,6.99,0,0,1,4.056-.671,10.889,10.889,0,0,1,1.612.569Z" transform="translate(-509.777 -1351.334)" fill="#de7604"/>
            <path id="Trazado_875997" data-name="Trazado 875997" d="M800.477,1542.611l2.536.38-10.6,6.821A63.683,63.683,0,0,1,778.086,1555l-4.866.934a13.575,13.575,0,0,1,2.2-6.376,20.9,20.9,0,0,1,2.523-2.769l2.433-2.548a10.88,10.88,0,0,1-3.456,5.311,5.842,5.842,0,0,0,1.594-.259A42.448,42.448,0,0,0,792,1543.646a27.1,27.1,0,0,0,2.254-1.562,7.844,7.844,0,0,1,1.46-1.049A22.68,22.68,0,0,0,800.477,1542.611Z" transform="translate(-661.474 -1455.425)" fill="#ba610a"/>
            <path id="Trazado_875998" data-name="Trazado 875998" d="M729.766,1364.781c1.236,1.349,2.914,2.354,3.893,3.947s.362,3.37.589,5.094a4.867,4.867,0,0,0,1.145,2.5l-.392,1a48.661,48.661,0,0,0-1.393,5.709,27.5,27.5,0,0,0,10.1,26.211,8.42,8.42,0,0,0,1.8,1.339c8.238,5.717,21.072,8.319,30.937,6.872a11.176,11.176,0,0,1-1.855,3.6,61.792,61.792,0,0,1-8.875,10.838l-4.069,3.732c-.494.43-1.105.786-1.562,1.247a8.564,8.564,0,0,1-2.081-1.062,19.4,19.4,0,0,1-5.723-5.464,17.708,17.708,0,0,0,3.535,7.4l-.925-.314c-4.417-1.614-8.107-4.471-11.743-7.367a49.613,49.613,0,0,1-6.669-6.046,31.966,31.966,0,0,1-4.463-6.717,19.435,19.435,0,0,1-1.571-4.343,15.33,15.33,0,0,0-.706-2.914,14.448,14.448,0,0,0-.121,2.82,23.717,23.717,0,0,0,.441,5.025,33.374,33.374,0,0,0,2.341,6.376l-.087-.02a5.488,5.488,0,0,1-.855-.668l-2.171-1.73c-5.582-4.51-10.807-9.341-13.719-16.05-4.044-9.317-3.608-19.809-.116-29.219a26.4,26.4,0,0,1,1.365-3.111,26.793,26.793,0,0,0,1.4-2.7,18.08,18.08,0,0,0,.906-1.729,11.571,11.571,0,0,1,4.9-4.25,6.99,6.99,0,0,1,4.056-.671,10.894,10.894,0,0,1,1.612.569Z" transform="translate(-625.873 -1351.334)" fill="#f9e4c5"/>
          </g>
        </g>
      </g>
    </g>
  </g>
</svg>
