<svg id="IMAGEN" xmlns="http://www.w3.org/2000/svg" width="505" height="319.62" viewBox="0 0 505 319.62">
  <rect id="Rectángulo_402607" data-name="Rectángulo 402607" width="44" height="153.182" rx="12" transform="translate(461 63.93)" fill="#26c790"/>
  <path id="Rectángulo_402599" data-name="Rectángulo 402599" d="M0,0H74.42a0,0,0,0,1,0,0V.61A74.42,74.42,0,0,1,0,75.03H0a0,0,0,0,1,0,0V0A0,0,0,0,1,0,0Z" transform="translate(0 76.444)" fill="#fdbab3"/>
  <path id="Rectángulo_402630" data-name="Rectángulo 402630" d="M74.42,0h0a0,0,0,0,1,0,0V75.03a0,0,0,0,1,0,0H0a0,0,0,0,1,0,0v-.61A74.42,74.42,0,0,1,74.42,0Z" transform="translate(356.16 238.489)" fill="#fff"/>
  <g id="Grupo_1188572" data-name="Grupo 1188572" transform="translate(18886.764 8877.698)">
    <path id="Rectángulo_402597" data-name="Rectángulo 402597" d="M74.42,0h0a0,0,0,0,1,0,0V75.03a0,0,0,0,1,0,0H0a0,0,0,0,1,0,0v-.61A74.42,74.42,0,0,1,74.42,0Z" transform="translate(-18456.184 -8714.241)" fill="#fdbab3"/>
    <g id="Grupo_1188466" data-name="Grupo 1188466" transform="translate(-18395.285 -8653.132) rotate(-90)">
      <path id="Trazado_874773" data-name="Trazado 874773" d="M.737,1.112c.469,0,.785.412,1.249,1.089A3,3,0,0,0,4.546,3.893,3,3,0,0,0,7.105,2.2c.464-.678.78-1.089,1.249-1.089S9.14,1.524,9.6,2.2a3,3,0,0,0,2.56,1.691A3,3,0,0,0,14.723,2.2c.464-.678.78-1.089,1.249-1.089s.785.412,1.249,1.089a3,3,0,0,0,2.56,1.691A3,3,0,0,0,22.341,2.2c.464-.678.78-1.089,1.249-1.089s.785.412,1.249,1.089A3,3,0,0,0,27.4,3.893,3,3,0,0,0,29.957,2.2c.464-.678.78-1.089,1.249-1.089s.786.412,1.25,1.089a2.783,2.783,0,0,0,5.12,0c.464-.678.78-1.089,1.249-1.089s.786.412,1.251,1.09a2.785,2.785,0,0,0,5.122,0c.465-.678.781-1.09,1.251-1.09.407,0,.737-.249.737-.556S46.857,0,46.45,0a3.006,3.006,0,0,0-2.561,1.691c-.465.678-.781,1.09-1.251,1.09s-.786-.412-1.251-1.089a2.784,2.784,0,0,0-5.121,0c-.464.678-.78,1.089-1.25,1.089s-.786-.412-1.25-1.089a2.783,2.783,0,0,0-5.12,0c-.464.678-.78,1.089-1.25,1.089s-.785-.412-1.249-1.089A3,3,0,0,0,23.59,0a3,3,0,0,0-2.559,1.691c-.464.678-.78,1.089-1.249,1.089S19,2.369,18.532,1.691A3,3,0,0,0,15.973,0a3,3,0,0,0-2.56,1.691c-.464.678-.78,1.089-1.249,1.089s-.785-.412-1.25-1.089A3,3,0,0,0,8.354,0a3,3,0,0,0-2.56,1.691c-.464.678-.78,1.089-1.249,1.089S3.761,2.369,3.3,1.691A3,3,0,0,0,.737,0C.33,0,0,.249,0,.556S.33,1.112.737,1.112Z" transform="translate(0 0)" fill="#fff"/>
    </g>
  </g>
  <g id="Grupo_1188480" data-name="Grupo 1188480" transform="translate(15.436 24.708)">
    <rect id="Rectángulo_402596" data-name="Rectángulo 402596" width="428.286" height="41" transform="translate(13.001 226.625)" fill="#12263f" opacity="0.407"/>
    <g id="Grupo_1099339" data-name="Grupo 1099339" transform="translate(0 0)">
      <g id="primer-plano-de-las-ovejas" fill="#fef0ef" stroke="#1944b6" stroke-width="5">
        <rect width="474.129" height="267.625" rx="14" stroke="none"/>
        <rect x="2.5" y="2.5" width="469.129" height="262.625" rx="11.5" fill="none"/>
      </g>
      <g id="Grupo_1189082" data-name="Grupo 1189082" transform="translate(-1961.969 -1158.017)">
        <path id="Trazado_876219" data-name="Trazado 876219" d="M2038.348,1302.984l58.264-48.584h259.777v165.5h-309.3Z" transform="translate(0 -37.679)" fill="#ffefc4"/>
        <rect id="Rectángulo_402730" data-name="Rectángulo 402730" width="229.737" height="20.339" transform="translate(2119.146 1213.607)" fill="#6b4113"/>
        <g id="Grupo_1189082-2" data-name="Grupo 1189082" transform="translate(2095.893 1186.81)">
          <path id="Trazado_876220" data-name="Trazado 876220" d="M2195.542,1365.183l-7.434,5.3V1201.3l7.434-5.3Z" transform="translate(-2168.956 -1195.995)" fill="#301d09"/>
          <rect id="Rectángulo_402731" data-name="Rectángulo 402731" width="19.169" height="169.188" transform="translate(0 5.309)" fill="#6b4113"/>
          <path id="Trazado_876221" data-name="Trazado 876221" d="M2177.3,1196l-7.418,5.309h-19.169l9.1-5.309Z" transform="translate(-2150.711 -1195.995)" fill="#4d2e0e"/>
        </g>
        <path id="Trazado_876222" data-name="Trazado 876222" d="M2142.094,1254.946v18.924l-51.293,48.3.5-26.891Z" transform="translate(-25.59 -37.945)" fill="#301d09"/>
        <path id="Trazado_876223" data-name="Trazado 876223" d="M2356.663,1568.145l-317.776,5.722,57.334-49.756,260.442-1.074Z" transform="translate(-0.263 -168.738)" fill="#0a6b05"/>
        <path id="Trazado_876224" data-name="Trazado 876224" d="M2116.5,1254.68l-78.156,68.006v-19.7l58.264-48.584Z" transform="translate(0 -37.679)" fill="#593610"/>
        <g id="Grupo_1189083" data-name="Grupo 1189083" transform="translate(2038.624 1208.238)">
          <path id="Trazado_876225" data-name="Trazado 876225" d="M2100.819,1428.736l-10.27,5.984v-190.9l10.27-5.983Z" transform="translate(-2064.092 -1237.835)" fill="#301d09"/>
          <rect id="Rectángulo_402732" data-name="Rectángulo 402732" width="26.48" height="190.902" transform="translate(0 5.99)" fill="#6b4113"/>
          <path id="Trazado_876226" data-name="Trazado 876226" d="M2075.615,1237.835l-10.247,5.99h-26.48l12.564-5.99Z" transform="translate(-2038.888 -1237.835)" fill="#4d2e0e"/>
        </g>
        <g id="Grupo_1189093" data-name="Grupo 1189093" transform="translate(2068.351 1177.168)">
          <g id="Grupo_1189084" data-name="Grupo 1189084" transform="translate(21.69 113.991)">
            <path id="Trazado_876227" data-name="Trazado 876227" d="M2142.906,1404.289l.093.063a3.2,3.2,0,0,1-.257.286c-1.473,2.038-3.838,4.6-3.4,7.337.246,1.551.5,2.63,1.826,3.58,1.624,1.159,3.621,1.154,5.465,1.7a31.116,31.116,0,0,1,2.955,1.311,17.344,17.344,0,0,0,9.487,1,8.356,8.356,0,0,0,4.995-2.522l-.464-.785a4.123,4.123,0,0,0,.62-2.25c-.043-1.474-.8-2.887-.2-4.341s1.871-2.532,2.723-3.828l.052-.08-.1-.16-.675-.651-.039-.044a12.906,12.906,0,0,0-2.658-2.1,18.441,18.441,0,0,0-8.982-3.041,13.356,13.356,0,0,0-10.148,3.427" transform="translate(-2139.285 -1399.748)" fill="#b55b09"/>
            <path id="Trazado_876228" data-name="Trazado 876228" d="M2154.2,1411.746c3.245-2.811,6.994-3.494,11.18-3.1,1.064.1,2.113.344,3.174.422l-.675-.651-.051.007a3.343,3.343,0,0,1-1.216-.371l-2-.6c-4.138-1.146-9.541-.879-12.551,2.552-1.87,2.131-4.3,7.625-7.4,7.873-.537.042-1.062-.133-1.574-.093a6.275,6.275,0,0,0,5.06.658,3.683,3.683,0,0,0,1.177-.533C2151.233,1416.08,2152.184,1413.495,2154.2,1411.746Z" transform="translate(-2141.139 -1403.206)" fill="#9f540f"/>
            <path id="Trazado_876229" data-name="Trazado 876229" d="M2157.129,1419.062l4.007-1.218a20.565,20.565,0,0,1-1.129,2.638c2.505,1.019,4.681,2.114,7.459,2.188a6.15,6.15,0,0,0,2.695-.405,6.31,6.31,0,0,0,1.236-.914,4.121,4.121,0,0,0,.62-2.25c-.043-1.474-.8-2.887-.2-4.341s1.871-2.533,2.723-3.828l.052-.081-.1-.16c-1.061-.077-2.11-.322-3.174-.422-4.187-.392-7.935.292-11.18,3.1-2.018,1.749-2.969,4.334-4.88,6.156A5.375,5.375,0,0,0,2157.129,1419.062Z" transform="translate(-2147.08 -1404.832)" fill="#de7604"/>
          </g>
          <g id="Grupo_1189085" data-name="Grupo 1189085" transform="translate(99.16 4.918)">
            <path id="Trazado_876230" data-name="Trazado 876230" d="M2296.532,1190.566l.1.1a3.715,3.715,0,0,1-.378.3c-2.238,2.237-5.692,4.944-5.7,8.434-.006,1.977.089,3.368,1.55,4.816,1.784,1.766,4.268,2.161,6.449,3.216a39.222,39.222,0,0,1,3.409,2.222,21.833,21.833,0,0,0,11.588,3.151c2.192-.019,5.049-.582,6.713-2.131l-.419-1.069a5.194,5.194,0,0,0,1.222-2.672c.241-1.84-.41-3.747.628-5.434s2.833-2.771,4.152-4.21l.081-.089-.091-.218-.707-.944-.039-.063a16.267,16.267,0,0,0-2.883-3.14,23.207,23.207,0,0,0-10.551-5.582,16.815,16.815,0,0,0-13.3,2.222" transform="translate(-2290.554 -1186.77)" fill="#b55b09"/>
            <path id="Trazado_876231" data-name="Trazado 876231" d="M2309.256,1202.684c4.6-2.842,9.392-2.939,14.516-1.611,1.3.338,2.556.852,3.859,1.161l-.708-.944-.064,0a4.208,4.208,0,0,1-1.437-.705l-2.365-1.153c-4.912-2.254-11.679-3.007-16.108.651-2.751,2.273-6.875,8.613-10.781,8.3-.675-.055-1.293-.379-1.937-.432a7.9,7.9,0,0,0,6.156,1.833,4.63,4.63,0,0,0,1.569-.426C2304.7,1207.473,2306.4,1204.452,2309.256,1202.684Z" transform="translate(-2292.348 -1192.024)" fill="#9f540f"/>
            <path id="Trazado_876232" data-name="Trazado 876232" d="M2311.727,1211.73l5.225-.709a25.9,25.9,0,0,1-1.933,3.051c2.909,1.769,5.392,3.567,8.829,4.217a7.743,7.743,0,0,0,3.43.037,7.963,7.963,0,0,0,1.719-.887,5.2,5.2,0,0,0,1.222-2.672c.242-1.84-.41-3.747.628-5.434s2.834-2.771,4.153-4.21l.081-.089-.091-.218c-1.3-.309-2.557-.824-3.859-1.161-5.123-1.328-9.918-1.231-14.516,1.611-2.859,1.767-4.559,4.788-7.3,6.67A6.748,6.748,0,0,0,2311.727,1211.73Z" transform="translate(-2299.707 -1194.605)" fill="#de7604"/>
          </g>
          <g id="Grupo_1189088" data-name="Grupo 1189088" transform="translate(102.266)">
            <path id="Trazado_876233" data-name="Trazado 876233" d="M2589.162,1528.939s4.841-2.8,6.944.845,2.379,11.5-2.744,14.728-6.383,1.049-6.383,1.049.42,1.83-2.666,1.265a9.584,9.584,0,0,1-4.769-2.25Z" transform="translate(-2434.648 -1348.283)" fill="#bd671b"/>
            <path id="Trazado_876234" data-name="Trazado 876234" d="M2314.545,1187.313s33.681-24.531,68.876,2.7c0,0,4.492-7.012,11.645-4.623s13.037,17.406,2.654,22.589c0,0,46.69,43.088,46.115,70.021,24.386,42.377,9.771,90.625-2.3,96.791s-55.831.251-59.479-.031-57.18,3.336-61.132-3.96-7.957-87.538-6.629-98.2-3.157-17.677-4.279-18.519-14.164-8.7-13.311-31.29,6.887-25.247,6.887-25.247S2314.478,1180.895,2314.545,1187.313Z" transform="translate(-2296.644 -1177.168)" fill="#b55b09"/>
            <path id="Trazado_876235" data-name="Trazado 876235" d="M2394.292,1374.839c-.142-1.285-12.471-26.94-28.178-32.84s-14.317,15.017-14.317,15.017-1.472-1.623-1.789.864,4.162,22.128,4.162,22.128-6.327,28.053-6.053,40.4,10.4,34.154,10.4,34.154,34.05,2.2,48.64.1c8.137-1.118,11.086-8.551,8.566-16.689S2394.99,1381.152,2394.292,1374.839Z" transform="translate(-2321.738 -1257.072)" fill="#f9e4c5"/>
            <path id="Trazado_876236" data-name="Trazado 876236" d="M2321.763,1256.5c.85-.393,50.253,3.834,50.529,12.206s-22.837,31.225-28.052,35.992-11.668,5.464-12.089,5.324-34.344-19.676-35.509-39.437C2295.707,1254.736,2321.763,1256.5,2321.763,1256.5Z" transform="translate(-2296.617 -1215.844)" fill="#f9e4c5"/>
            <path id="Trazado_876237" data-name="Trazado 876237" d="M2338.8,1247.472s10.664-4.693,8.771-7.36-14.377-3.3-15.852.483S2338.487,1247.615,2338.8,1247.472Z" transform="translate(-2313.658 -1206.813)" fill="#ff9594"/>
            <path id="Trazado_876238" data-name="Trazado 876238" d="M2344.371,1274.6s-3.612-1.194-3.926-4.351c0,0-1.439,3.366-3.929,3.785-.212,2.42,1.855,6.63,2.907,6.454s1.01-1.893,1.01-1.893,1.164,2.466,2.356,1.9S2344.371,1274.6,2344.371,1274.6Z" transform="translate(-2316.075 -1222.582)" fill="#de7604"/>
            <path id="Trazado_876239" data-name="Trazado 876239" d="M2500.141,1260.68s-8.946.386-14.841,5.713-1.267,7.434-1.687,7.434-1.552,14.588-1.343,17.955,1.893,2.526,2.032,4.35-.144,8.276,1.958,11.083,3.366,1.124,3.646,1.545,4.345,6.315,6.028,6.877a4.859,4.859,0,0,0,3.086,0s28.946,7.437,34.4-4.617C2533.419,1311.021,2533.757,1296.78,2500.141,1260.68Z" transform="translate(-2387.179 -1217.911)" fill="#f9e4c5"/>
            <path id="Trazado_876240" data-name="Trazado 876240" d="M2563.146,1401.985s-17.558-.141-26.682,10.235-5.615,8.975-5.616,9.4-4.071,6.871-3.374,15.429,2.346,5.893,2.346,5.893,2.551,18.518,8.439,23.712,5.891,2.529,5.891,2.529,15.474,5.189,18.959,3.231C2563.109,1472.409,2578.365,1447.575,2563.146,1401.985Z" transform="translate(-2409.205 -1286.849)" fill="#f9e4c5"/>
            <path id="Trazado_876241" data-name="Trazado 876241" d="M2471.125,1206.888s6.588,9.111,7.57,9.047,5.613-3.85,2.88-9.042S2471.055,1206.187,2471.125,1206.888Z" transform="translate(-2381.753 -1190.464)" fill="#ffb370"/>
            <path id="Trazado_876242" data-name="Trazado 876242" d="M2335.413,1553.051c-1.037-.238-8.889-2.214-10.415-2.215a2.874,2.874,0,0,0-2.315,1.419s-2.419-1.474-3.051-1.054-.842,1.841-.842,1.841-2-1.264-2.736,0,1.1,7.839,2.048,7.734,1.738-4.155,1.738-4.155,1.207,5.472,2.469,5,.582-5.377.582-5.377,3.206,5.379,4.259,3.906-.155-4.366-.155-4.366,14.165,2.238,14.815,1.07S2338.636,1553.79,2335.413,1553.051Z" transform="translate(-2306.017 -1359.468)" fill="#ff9594"/>
            <path id="Trazado_876243" data-name="Trazado 876243" d="M2482.706,1558.47c-1.037-.238-8.889-2.214-10.415-2.215a2.874,2.874,0,0,0-2.315,1.419s-2.419-1.474-3.051-1.054-.842,1.841-.842,1.841-2-1.264-2.736,0,1.1,7.839,2.048,7.734,1.738-4.154,1.738-4.154,1.207,5.471,2.47,5,.581-5.377.581-5.377,3.207,5.379,4.259,3.906-.155-4.366-.155-4.366,14.164,2.237,14.815,1.07S2485.929,1559.208,2482.706,1558.47Z" transform="translate(-2377.876 -1362.112)" fill="#ff9594"/>
            <path id="Trazado_876244" data-name="Trazado 876244" d="M2448.422,1407.363s-7.222-3.651-8.556-2.109-.339,6.969.671,7.518,2.483-2.186,2.483-2.186.559,4,1.962,4,2.106-3.015,2.106-3.015.278,4.419,2.663,3.018S2452.049,1408.94,2448.422,1407.363Z" transform="translate(-2366.19 -1288.259)" fill="#de8281"/>
            <path id="Trazado_876245" data-name="Trazado 876245" d="M2342.1,1414.209c.294-.19,3.86-3.715,5.542-2.873s.979,5.962,0,5.751-1.822-2.42-1.822-2.42.7,2.946-.107,3.577-2.278-2.14-2.278-2.14,1.4,3.157,0,2.981S2339.993,1415.576,2342.1,1414.209Z" transform="translate(-2318.363 -1291.348)" fill="#de8281"/>
            <g id="Grupo_1189086" data-name="Grupo 1189086" transform="translate(35.263 20.759)">
              <path id="Trazado_876246" data-name="Trazado 876246" d="M2365.964,1221.329a5.239,5.239,0,0,0-.127,4.134,5.145,5.145,0,0,0,2.771,2.739,6.7,6.7,0,0,0,4.392.21,6.135,6.135,0,0,0,3.719-3.018,5.4,5.4,0,0,0,.176-4.252,5.644,5.644,0,0,0-2.923-2.989,5.857,5.857,0,0,0-4.054-.167l-.043.017A6.6,6.6,0,0,0,2365.964,1221.329Z" transform="translate(-2365.473 -1217.702)" fill="#763b05"/>
              <path id="Trazado_876247" data-name="Trazado 876247" d="M2369.471,1223.854a3.812,3.812,0,0,0,.558,2.85,3.616,3.616,0,0,0,2.515,1.555,4.08,4.08,0,0,0,1.815-.193,3.561,3.561,0,0,0,1.884-2.265,3.855,3.855,0,0,0-.631-2.9,3.791,3.791,0,0,0-2.322-1.647,4.013,4.013,0,0,0-2.058.189A3.587,3.587,0,0,0,2369.471,1223.854Z" transform="translate(-2367.389 -1219.406)" fill="#070605"/>
              <path id="Trazado_876248" data-name="Trazado 876248" d="M2379.762,1229.145c.2.176.282.266.566.254a1.306,1.306,0,0,0,.3-.069c.069-.326.168-.478,0-.775a.928.928,0,0,0-.786-.125A1.3,1.3,0,0,0,2379.762,1229.145Z" transform="translate(-2372.433 -1222.922)" fill="#fefefe"/>
              <path id="Trazado_876249" data-name="Trazado 876249" d="M2370.8,1224.616a1.383,1.383,0,0,0,.455.988,1.622,1.622,0,0,0,1.069.45,2.8,2.8,0,0,0,.706-.2,1.814,1.814,0,0,0,.718-1.34,1.326,1.326,0,0,0-.411-.927,1.646,1.646,0,0,0-1.148-.476,2.285,2.285,0,0,0-.7.179A1.759,1.759,0,0,0,2370.8,1224.616Z" transform="translate(-2368.07 -1220.338)" fill="#fefefe"/>
            </g>
            <g id="Grupo_1189087" data-name="Grupo 1189087" transform="translate(13.213 19.172)">
              <path id="Trazado_876250" data-name="Trazado 876250" d="M2322.909,1218.231a5.238,5.238,0,0,0-.127,4.134,5.151,5.151,0,0,0,2.771,2.739,6.7,6.7,0,0,0,4.392.209,6.136,6.136,0,0,0,3.719-3.017,5.406,5.406,0,0,0,.176-4.252,5.647,5.647,0,0,0-2.923-2.989,5.854,5.854,0,0,0-4.054-.167l-.043.016A6.6,6.6,0,0,0,2322.909,1218.231Z" transform="translate(-2322.418 -1214.604)" fill="#763b05"/>
              <path id="Trazado_876251" data-name="Trazado 876251" d="M2326.416,1220.756a3.809,3.809,0,0,0,.558,2.85,3.614,3.614,0,0,0,2.514,1.554,4.067,4.067,0,0,0,1.816-.193,3.558,3.558,0,0,0,1.884-2.264,3.854,3.854,0,0,0-.631-2.9,3.792,3.792,0,0,0-2.323-1.647,4.019,4.019,0,0,0-2.057.189A3.587,3.587,0,0,0,2326.416,1220.756Z" transform="translate(-2324.333 -1216.308)" fill="#070605"/>
              <path id="Trazado_876252" data-name="Trazado 876252" d="M2336.708,1226.047c.2.176.282.266.566.254a1.341,1.341,0,0,0,.3-.069c.069-.327.168-.478,0-.775a.93.93,0,0,0-.786-.125A1.3,1.3,0,0,0,2336.708,1226.047Z" transform="translate(-2329.378 -1219.824)" fill="#fefefe"/>
              <path id="Trazado_876253" data-name="Trazado 876253" d="M2327.741,1221.518a1.384,1.384,0,0,0,.455.989,1.621,1.621,0,0,0,1.069.45,2.754,2.754,0,0,0,.705-.2,1.813,1.813,0,0,0,.718-1.34,1.325,1.325,0,0,0-.412-.928,1.64,1.64,0,0,0-1.148-.475,2.282,2.282,0,0,0-.7.178A1.759,1.759,0,0,0,2327.741,1221.518Z" transform="translate(-2325.015 -1217.24)" fill="#fefefe"/>
            </g>
          </g>
          <path id="Trazado_876254" data-name="Trazado 876254" d="M2362.122,1325.648a.962.962,0,0,1,1.159-.658,2.508,2.508,0,0,1,1.252.819c.405.376.855.705,1.273,1.068.811.7,1.788,1.258,2.545,2.012a1.4,1.4,0,0,1-1.357,2.33,7.993,7.993,0,0,1-3.259-2.271C2362.937,1328.111,2361.921,1326.86,2362.122,1325.648Z" transform="translate(-2226.296 -1249.277)" fill="#b55b09"/>
          <path id="Trazado_876255" data-name="Trazado 876255" d="M2343.293,1328.557a.892.892,0,0,1,1.294-.527,5.593,5.593,0,0,1,1.551,1.752,16.212,16.212,0,0,0,1.629,1.838c1.065,1.052-.544,2.642-1.637,1.637a14.8,14.8,0,0,1-1.985-2.142A3.448,3.448,0,0,1,2343.293,1328.557Z" transform="translate(-2217.103 -1250.718)" fill="#b55b09"/>
          <path id="Trazado_876256" data-name="Trazado 876256" d="M2333.473,1311.811c.063-.577.687-1.123,1.267-.727a13.609,13.609,0,0,1,2.834,3.337c1.141,1.542-1.721,3.27-2.589,1.513C2334.36,1314.671,2333.316,1313.272,2333.473,1311.811Z" transform="translate(-2212.325 -1242.435)" fill="#b55b09"/>
          <path id="Trazado_876257" data-name="Trazado 876257" d="M2382.826,1394.644c.29,1.3,1,4.575-.892,5.035-1.992.483-1.763-3.117-2-4.238C2379.539,1393.563,2382.4,1392.754,2382.826,1394.644Z" transform="translate(-2234.981 -1282.742)" fill="#b55b09"/>
          <path id="Trazado_876258" data-name="Trazado 876258" d="M2370.663,1379.318c.081-.9.165-1.8.278-2.691a1.309,1.309,0,1,1,2.583.349c-.237,1.728-.147,4.038-1.236,5.492a1.022,1.022,0,0,1-1.887-.511A19.167,19.167,0,0,1,2370.663,1379.318Z" transform="translate(-2230.346 -1273.865)" fill="#b55b09"/>
          <path id="Trazado_876259" data-name="Trazado 876259" d="M2379.494,1464.57a1.579,1.579,0,0,1,3.156,0c.069,2.8.876,6.919-1.029,9.246a.778.778,0,0,1-1.1,0C2378.618,1471.489,2379.425,1467.367,2379.494,1464.57Z" transform="translate(-2234.673 -1316.639)" fill="#b55b09"/>
          <path id="Trazado_876260" data-name="Trazado 876260" d="M2395.056,1462.154c.063-.863.17-1.722.215-2.587.071-1.368,2.222-1.367,2.131,0-.058.865-.179,1.724-.255,2.587a3.16,3.16,0,0,1-.6,2.114.707.707,0,0,1-.986,0A2.411,2.411,0,0,1,2395.056,1462.154Z" transform="translate(-2242.362 -1314.441)" fill="#b55b09"/>
          <path id="Trazado_876261" data-name="Trazado 876261" d="M2373.967,1438.592a1.418,1.418,0,0,1,1.7-.964,1.39,1.39,0,0,1,.965,1.7c-.548,1.356-.679,3.426-2.055,4.242a.8.8,0,0,1-1.079-.283C2372.772,1441.89,2373.46,1439.962,2373.967,1438.592Z" transform="translate(-2231.705 -1304.213)" fill="#b55b09"/>
          <path id="Trazado_876262" data-name="Trazado 876262" d="M2540.978,1336.216c2.2,1.2,3.566,4.031,3.764,6.422.118,1.425-2.068,1.4-2.209,0a16.045,16.045,0,0,0-.716-3.283c-.321-.984-.913-1.846-1.264-2.812C2540.463,1336.294,2540.772,1336.1,2540.978,1336.216Z" transform="translate(-2313.352 -1254.746)" fill="#b04d1a"/>
          <path id="Trazado_876263" data-name="Trazado 876263" d="M2525.073,1340.227c1.872-.051,2.337,2.4,2.266,3.823a1.145,1.145,0,0,1-2.289,0c.007-1.107-.71-2.013-.714-3.087A.749.749,0,0,1,2525.073,1340.227Z" transform="translate(-2305.448 -1256.719)" fill="#b04d1a"/>
          <path id="Trazado_876264" data-name="Trazado 876264" d="M2519.108,1315.769a30.545,30.545,0,0,0,2.646,2.387c1,.731-.216,2.161-1,1.3a13.293,13.293,0,0,1-2.3-3.179A.422.422,0,0,1,2519.108,1315.769Z" transform="translate(-2302.553 -1244.726)" fill="#b04d1a"/>
          <path id="Trazado_876265" data-name="Trazado 876265" d="M2587.844,1488.556a.955.955,0,0,1,1.583.418,8.077,8.077,0,0,1-.073,2.911,17.771,17.771,0,0,1-.54,2.986c-.429,1.507-2.494.837-2.283-.63C2586.783,1492.491,2586.561,1489.927,2587.844,1488.556Z" transform="translate(-2335.783 -1328.949)" fill="#b04d1a"/>
          <path id="Trazado_876266" data-name="Trazado 876266" d="M2571.536,1497.872a6.67,6.67,0,0,1,.346-2.525.944.944,0,0,1,1.613,0,3.684,3.684,0,0,1,.25,2.525c-.1.907-.229,1.8-.259,2.716a1.079,1.079,0,0,1-2.156,0C2571.341,1499.676,2571.458,1498.779,2571.536,1497.872Z" transform="translate(-2328.374 -1332.175)" fill="#b04d1a"/>
          <path id="Trazado_876267" data-name="Trazado 876267" d="M2575.175,1462.86a.813.813,0,0,1,.987-.56c2.455.592,2.166,5.053,2.185,6.946a1.277,1.277,0,0,1-2.552,0,21.293,21.293,0,0,0-.173-3.43A9.006,9.006,0,0,1,2575.175,1462.86Z" transform="translate(-2330.232 -1316.264)" fill="#b04d1a"/>
          <path id="Trazado_876268" data-name="Trazado 876268" d="M2136.711,1547.7a49.936,49.936,0,0,1-5.534,1.161c-.376-.139-2.753-1.9-4.159.01s-.555,5.931.158,5.97,1.406-1.745,1.406-1.745.574,2.656,1.228,2.7,1.267-1.862,1.267-1.862.3,2.95,1.327,2.574.891-3.169.891-3.169l9.428-1.307S2143.868,1546.42,2136.711,1547.7Z" transform="translate(-2111.24 -1357.845)" fill="#ff9594"/>
          <path id="Trazado_876269" data-name="Trazado 876269" d="M2211.386,1575.1a50,50,0,0,1-5.534,1.161c-.376-.138-2.753-1.9-4.159.011s-.554,5.93.158,5.97,1.406-1.745,1.406-1.745.574,2.656,1.228,2.7,1.267-1.862,1.267-1.862.3,2.951,1.327,2.575.891-3.169.891-3.169l7.755-.935S2218.543,1573.821,2211.386,1575.1Z" transform="translate(-2147.672 -1371.219)" fill="#ff9594"/>
          <path id="Trazado_876270" data-name="Trazado 876270" d="M2473.009,1553.727c.139,0,4.1-.614,4.872-.119s3.763,1.9,4.773-.613.872-4.654.079-4.456-1.268,2.079-1.347,1.664-.357-3.129-1.049-2.3-1.188,2.634-1.288,2.337.416-2.634-.634-2.594-1.307,3.089-1.307,3.089l-5.011-.277Z" transform="translate(-2279.963 -1357.912)" fill="#ff9594"/>
          <path id="Trazado_876271" data-name="Trazado 876271" d="M2166.475,1475.847a72.558,72.558,0,0,1-23.567,3.032c-12.2-.686-17.395-7-17.395-7s-23.707-1.683-27.916-15.151,12.906-32.594,12.906-32.594,16.693-21.273,24.969-23.237c0,0,10.942-7.715,10.521-2.385,0,0,14.308-3.367,22.444,2.385,0,0,23.918-17.6,57.585-13.607s44.819,24.2,44.819,24.2,10.521,4.418,10.381,7.084-4.209,4.208-4.209,4.208,11.784,26.653,8.136,43.346c.7.982.7,5.05.7,5.05s5.682.772,5.752,1.473-.982.842-.982.842,1.971.771.985,1.473-6.527,1.192-6.527,1.192-12.835,11.854-35.841,1.754c-7.155,4.075-52.745,4.075-52.745,4.075s-9.819,4.99-16.4,6.2-15.307-.21-16.044-.368.789-1.157.789-1.157-2.367-.526-2.262-1.052,1.052-1.1.895-1.1-3-1-2.893-1.368A55.6,55.6,0,0,1,2166.475,1475.847Z" transform="translate(-2096.932 -1279.392)" fill="#c96b04"/>
          <path id="Trazado_876272" data-name="Trazado 876272" d="M2149.865,1498.677c-14.519,2.42-24.935-8.1-30.668-10.837s-15.834,1.473-16.781-5.314c-.57-4.088,2.866-11.815,5.851-17.387-4.495,5.762-13.9,19.484-10.655,29.856,4.208,13.467,27.916,15.15,27.916,15.15s5.19,6.313,17.395,7a72.553,72.553,0,0,0,23.567-3.032c12.2-15.5,22.2-13.857,23.462-19.433S2164.384,1496.257,2149.865,1498.677Z" transform="translate(-2096.938 -1317.66)" fill="#b55b09"/>
          <path id="Trazado_876273" data-name="Trazado 876273" d="M2131.282,1510.272s-3.893-4.91-2.771-5.681,7.61,1.4,7.855,2.385S2133.667,1509.746,2131.282,1510.272Z" transform="translate(-2112.24 -1336.828)" fill="#ff9594"/>
          <path id="Trazado_876274" data-name="Trazado 876274" d="M2136.259,1528.424a5.591,5.591,0,0,1-3.656-2.262s-.67,2.184-.67,2.356a19.213,19.213,0,0,0,1.439,3.71c.357.33.937-.779.937-.779s.872,1.162,1.426.739S2136.259,1528.424,2136.259,1528.424Z" transform="translate(-2114.008 -1347.431)" fill="#ffe6a1"/>
          <path id="Trazado_876275" data-name="Trazado 876275" d="M2291.339,1562.58s11.433-7.688,31.844-10.213,21.433,5.876,20.9,6.137S2330.968,1564.624,2291.339,1562.58Z" transform="translate(-2191.777 -1359.984)" fill="#b55b09"/>
          <path id="Trazado_876276" data-name="Trazado 876276" d="M2421.9,1431.4s4.069-1.543,4.209-4.208-10.381-7.084-10.381-7.084-4.775-8.641-17.5-15.739c-.008.021-4.247,12.026-4.318,16.511s1.123,2.525,1.123,2.525-2.657,10.31,3.2,16.2a14.408,14.408,0,0,0,12.515,4.453s-.491,1.3,2.245,1.93,9.23,1.066,11.734-7.32C2423.162,1434.259,2421.9,1431.4,2421.9,1431.4Z" transform="translate(-2241.819 -1288.013)" fill="#a14717"/>
          <path id="Trazado_876277" data-name="Trazado 876277" d="M2170.132,1542.45a9.369,9.369,0,0,0-2.694-.814c-.458-.111-.923.517-.5.857.838.674,1.917,1.425,3.049,1.063A.613.613,0,0,0,2170.132,1542.45Z" transform="translate(-2131.005 -1354.973)" fill="#b55b09"/>
          <path id="Trazado_876278" data-name="Trazado 876278" d="M2185.067,1555.572c-.522-.739-1.751-.721-2.534-1.107-.847-.417-1.57.894-.73,1.249.812.344,2.294,1.014,3.109.452A.439.439,0,0,0,2185.067,1555.572Z" transform="translate(-2138.155 -1361.199)" fill="#b55b09"/>
          <path id="Trazado_876279" data-name="Trazado 876279" d="M2201.175,1548.514c-1.319-.561-2.545-.347-3.92-.522-.88-.112-.951,1.214-.2,1.473,1.538.529,2.589-.091,4.057-.469C2201.313,1548.943,2201.39,1548.606,2201.175,1548.514Z" transform="translate(-2145.527 -1358.077)" fill="#b55b09"/>
          <path id="Trazado_876280" data-name="Trazado 876280" d="M2103.331,1517.245c-.209-.922-1.032-1.523-1.258-2.445-.214-.873-1.687-.714-1.6.217a4.35,4.35,0,0,0,1.676,3.138C2102.756,1518.6,2103.473,1517.869,2103.331,1517.245Z" transform="translate(-2098.657 -1341.607)" fill="#b55b09"/>
          <path id="Trazado_876281" data-name="Trazado 876281" d="M2113.605,1518.322a4.77,4.77,0,0,0-2.07-1.628c-.979-.517-1.847,1-.863,1.476a5.057,5.057,0,0,0,2.536.845A.465.465,0,0,0,2113.605,1518.322Z" transform="translate(-2103.424 -1342.76)" fill="#b55b09"/>
          <path id="Trazado_876282" data-name="Trazado 876282" d="M2336.5,1563.116a16.222,16.222,0,0,0-4.078-.643c-1.134-.148-1.182,1.732,0,1.815,1.3.092,2.838.409,4.078-.082A.572.572,0,0,0,2336.5,1563.116Z" transform="translate(-2211.396 -1365.141)" fill="#b55b09"/>
          <path id="Trazado_876283" data-name="Trazado 876283" d="M2358.988,1562.13a2.481,2.481,0,0,0-1.344-.327c-.565-.051-1.123-.151-1.683-.242-1.067-.174-1.509,1.472-.448,1.623,1,.142,2.6.648,3.475-.009A.615.615,0,0,0,2358.988,1562.13Z" transform="translate(-2222.788 -1364.694)" fill="#b55b09"/>
          <path id="Trazado_876284" data-name="Trazado 876284" d="M2359.67,1556.581a5.671,5.671,0,0,0-2.009-.3c-1.1-.063-1.1,1.772,0,1.709a5.681,5.681,0,0,0,2.009-.3A.648.648,0,0,0,2359.67,1556.581Z" transform="translate(-2223.73 -1362.125)" fill="#b55b09"/>
          <g id="Grupo_1189089" data-name="Grupo 1189089" transform="translate(175.893 7.366)">
            <path id="Trazado_876285" data-name="Trazado 876285" d="M2446.36,1195.347l.1.1a3.969,3.969,0,0,1-.377.3c-2.239,2.238-5.692,4.944-5.7,8.434-.006,1.977.089,3.368,1.55,4.816,1.785,1.766,4.268,2.161,6.448,3.216a38.941,38.941,0,0,1,3.409,2.222,21.841,21.841,0,0,0,11.588,3.151c2.192-.019,5.049-.582,6.713-2.131l-.419-1.069a5.191,5.191,0,0,0,1.222-2.672c.242-1.84-.41-3.747.628-5.434s2.834-2.771,4.153-4.21l.081-.089-.091-.218-.707-.945-.039-.062a16.263,16.263,0,0,0-2.883-3.14,23.22,23.22,0,0,0-10.55-5.582,16.812,16.812,0,0,0-13.3,2.222" transform="translate(-2440.383 -1191.551)" fill="#b55b09"/>
            <path id="Trazado_876286" data-name="Trazado 876286" d="M2459.084,1207.466c4.6-2.842,9.392-2.939,14.516-1.611,1.3.337,2.555.852,3.859,1.161l-.708-.945h-.064a4.2,4.2,0,0,1-1.436-.705l-2.366-1.153c-4.911-2.254-11.678-3.008-16.108.651-2.751,2.273-6.874,8.613-10.781,8.3-.676-.054-1.293-.379-1.937-.431a7.9,7.9,0,0,0,6.157,1.833,4.638,4.638,0,0,0,1.568-.426C2454.525,1212.254,2456.226,1209.233,2459.084,1207.466Z" transform="translate(-2442.176 -1196.805)" fill="#9f540f"/>
            <path id="Trazado_876287" data-name="Trazado 876287" d="M2461.555,1216.512l5.225-.709a25.942,25.942,0,0,1-1.933,3.051c2.908,1.769,5.393,3.567,8.83,4.217a7.743,7.743,0,0,0,3.429.037,7.955,7.955,0,0,0,1.72-.887,5.2,5.2,0,0,0,1.222-2.672c.242-1.84-.41-3.747.628-5.434s2.834-2.771,4.153-4.21l.081-.089-.091-.218c-1.3-.309-2.557-.824-3.859-1.161-5.124-1.328-9.919-1.231-14.516,1.611-2.858,1.767-4.559,4.788-7.3,6.67A6.742,6.742,0,0,0,2461.555,1216.512Z" transform="translate(-2449.535 -1199.386)" fill="#de7604"/>
          </g>
          <g id="Grupo_1189090" data-name="Grupo 1189090" transform="translate(58.177 133.945)">
            <path id="Trazado_876288" data-name="Trazado 876288" d="M2213.495,1444.3l.1.054a3.052,3.052,0,0,1-.23.309c-1.274,2.168-3.388,4.939-2.7,7.625.391,1.521.741,2.572,2.154,3.393,1.725,1,3.713.808,5.6,1.184a31.046,31.046,0,0,1,3.065,1.027,17.346,17.346,0,0,0,9.54.107,8.358,8.358,0,0,0,4.735-2.98l-.536-.739a4.125,4.125,0,0,0,.406-2.3c-.182-1.463-1.064-2.8-.6-4.3s1.625-2.7,2.352-4.067l.044-.085-.114-.15-.732-.585-.042-.041a12.93,12.93,0,0,0-2.843-1.838,18.441,18.441,0,0,0-9.228-2.184,13.357,13.357,0,0,0-9.782,4.366" transform="translate(-2210.529 -1438.711)" fill="#b55b09"/>
            <path id="Trazado_876289" data-name="Trazado 876289" d="M2225.4,1450.4c2.967-3.1,6.635-4.136,10.84-4.139,1.068,0,2.135.144,3.2.122l-.732-.585-.05.011a3.334,3.334,0,0,1-1.245-.256l-2.049-.414c-4.227-.752-9.581.021-12.255,3.72-1.661,2.3-3.565,8-6.632,8.533-.53.093-1.07-.033-1.576.055a6.275,6.275,0,0,0,5.1.18,3.676,3.676,0,0,0,1.121-.641C2222.856,1454.992,2223.56,1452.329,2225.4,1450.4Z" transform="translate(-2212.663 -1441.72)" fill="#9f540f"/>
            <path id="Trazado_876290" data-name="Trazado 876290" d="M2228.865,1457.662l3.875-1.589a20.544,20.544,0,0,1-.876,2.732c2.59.78,4.859,1.665,7.631,1.479a6.161,6.161,0,0,0,2.646-.656,6.314,6.314,0,0,0,1.145-1.026,4.129,4.129,0,0,0,.406-2.3c-.181-1.463-1.064-2.8-.6-4.3s1.625-2.7,2.352-4.067l.044-.085-.114-.15c-1.063.022-2.13-.122-3.2-.122-4.205,0-7.873,1.036-10.84,4.139-1.844,1.93-2.548,4.593-4.28,6.588A5.359,5.359,0,0,0,2228.865,1457.662Z" transform="translate(-2218.589 -1443.036)" fill="#de7604"/>
          </g>
          <g id="Grupo_1189091" data-name="Grupo 1189091" transform="translate(29.224 162.046)">
            <path id="Trazado_876291" data-name="Trazado 876291" d="M2155.191,1495.845a5.241,5.241,0,0,0-1.159,3.97,5.148,5.148,0,0,0,2,3.346,6.706,6.706,0,0,0,4.2,1.3,6.135,6.135,0,0,0,4.357-1.989,5.406,5.406,0,0,0,1.236-4.073,5.647,5.647,0,0,0-2.081-3.626,5.859,5.859,0,0,0-3.883-1.178l-.046.006A6.6,6.6,0,0,0,2155.191,1495.845Z" transform="translate(-2153.995 -1493.581)" fill="#763b05"/>
            <path id="Trazado_876292" data-name="Trazado 876292" d="M2158.57,1498.52a3.812,3.812,0,0,0-.174,2.9,3.615,3.615,0,0,0,2.045,2.136,4.082,4.082,0,0,0,1.806.268,3.557,3.557,0,0,0,2.392-1.72,3.851,3.851,0,0,0,.115-2.963,3.789,3.789,0,0,0-1.835-2.177,4.009,4.009,0,0,0-2.039-.333A3.586,3.586,0,0,0,2158.57,1498.52Z" transform="translate(-2156.04 -1495.063)" fill="#070605"/>
            <path id="Trazado_876293" data-name="Trazado 876293" d="M2167.986,1505.619c.147.22.206.329.484.388a1.316,1.316,0,0,0,.313.01c.149-.3.283-.42.2-.75a.928.928,0,0,0-.729-.318A1.291,1.291,0,0,0,2167.986,1505.619Z" transform="translate(-2160.821 -1499.127)" fill="#fefefe"/>
            <path id="Trazado_876294" data-name="Trazado 876294" d="M2160.2,1499.238a1.383,1.383,0,0,0,.192,1.071,1.623,1.623,0,0,0,.922.7,2.823,2.823,0,0,0,.735-.021,1.816,1.816,0,0,0,1.031-1.118,1.327,1.327,0,0,0-.167-1,1.644,1.644,0,0,0-.992-.748,2.308,2.308,0,0,0-.718,0C2160.717,1498.422,2160.352,1498.644,2160.2,1499.238Z" transform="translate(-2157.005 -1495.783)" fill="#fefefe"/>
          </g>
          <g id="Grupo_1189092" data-name="Grupo 1189092" transform="translate(8.275 154.984)">
            <path id="Trazado_876295" data-name="Trazado 876295" d="M2114.286,1482.055a5.237,5.237,0,0,0-1.159,3.97,5.144,5.144,0,0,0,2,3.346,6.7,6.7,0,0,0,4.2,1.3,6.136,6.136,0,0,0,4.357-1.989,5.4,5.4,0,0,0,1.235-4.073,5.644,5.644,0,0,0-2.08-3.626,5.857,5.857,0,0,0-3.883-1.178l-.046.006A6.6,6.6,0,0,0,2114.286,1482.055Z" transform="translate(-2113.09 -1479.792)" fill="#763b05"/>
            <path id="Trazado_876296" data-name="Trazado 876296" d="M2117.666,1484.73a3.814,3.814,0,0,0-.174,2.9,3.614,3.614,0,0,0,2.045,2.136,4.061,4.061,0,0,0,1.806.268,3.556,3.556,0,0,0,2.391-1.72,3.851,3.851,0,0,0,.116-2.963,3.789,3.789,0,0,0-1.835-2.177,4.016,4.016,0,0,0-2.039-.333A3.588,3.588,0,0,0,2117.666,1484.73Z" transform="translate(-2115.136 -1481.273)" fill="#070605"/>
            <path id="Trazado_876297" data-name="Trazado 876297" d="M2127.082,1491.829c.147.22.207.329.485.388a1.315,1.315,0,0,0,.312.01c.15-.3.283-.42.2-.75a.93.93,0,0,0-.729-.318A1.3,1.3,0,0,0,2127.082,1491.829Z" transform="translate(-2119.916 -1485.337)" fill="#fefefe"/>
            <path id="Trazado_876298" data-name="Trazado 876298" d="M2119.3,1485.448a1.382,1.382,0,0,0,.193,1.071,1.618,1.618,0,0,0,.922.7,2.774,2.774,0,0,0,.735-.021,1.815,1.815,0,0,0,1.031-1.117,1.323,1.323,0,0,0-.166-1,1.64,1.64,0,0,0-.992-.748,2.266,2.266,0,0,0-.719,0C2119.812,1484.632,2119.447,1484.854,2119.3,1485.448Z" transform="translate(-2116.1 -1481.994)" fill="#fefefe"/>
          </g>
        </g>
        <g id="Grupo_1189094" data-name="Grupo 1189094" transform="translate(2329.908 1187.474)">
          <path id="Trazado_876299" data-name="Trazado 876299" d="M2669.585,1408.325l-10.27,6.615V1203.905l10.27-6.614Z" transform="translate(-2632.858 -1197.291)" fill="#301d09"/>
          <rect id="Rectángulo_402733" data-name="Rectángulo 402733" width="26.48" height="211.034" transform="translate(0 6.622)" fill="#6b4113"/>
          <path id="Trazado_876300" data-name="Trazado 876300" d="M2644.382,1197.291l-10.247,6.622h-26.48l12.564-6.622Z" transform="translate(-2607.654 -1197.291)" fill="#4d2e0e"/>
        </g>
        <rect id="Rectángulo_402734" data-name="Rectángulo 402734" width="26.48" height="311.19" transform="translate(2045.802 1405.129) rotate(-90)" fill="#6b4113"/>
      </g>
    </g>
  </g>
  <g id="Grupo_1188479" data-name="Grupo 1188479" transform="translate(430.58 238.489)">
    <path id="Rectángulo_402596-2" data-name="Rectángulo 402596" d="M74.42,0h0a0,0,0,0,1,0,0V65.6a9.427,9.427,0,0,1-9.427,9.427H0a0,0,0,0,1,0,0v-.61A74.42,74.42,0,0,1,74.42,0Z" transform="translate(0)" fill="#fdaa30"/>
    <g id="Grupo_1188461" data-name="Grupo 1188461" transform="translate(27.104 28.144)">
      <path id="Trazado_874753" data-name="Trazado 874753" d="M32.106,4.606,27.958.458a1.622,1.622,0,0,0-2.259,0,1.633,1.633,0,0,0-.1,2.361l.823.823L24.041,6.02l-2-2a1.1,1.1,0,0,0-1.549,0L19,5.517a1.123,1.123,0,0,0,.045,1.593L3.791,22.366a1.493,1.493,0,0,0-.134,1.955l.058,1.872a2.727,2.727,0,0,0,.5,1.486L.157,31.733a.477.477,0,0,0,.674.674l4.054-4.054a2.727,2.727,0,0,0,1.486.5l1.872.058a1.492,1.492,0,0,0,1.955-.134L22.205,16.766a.477.477,0,0,0-.674-.674l-2.137,2.137L14.336,13.17l1.27-1.27,1.512,1.512a.477.477,0,1,0,.674-.674L16.28,11.226,17.5,10l1.512,1.512a.477.477,0,1,0,.674-.674L18.179,9.327l1.543-1.543,5.058,5.058-1.671,1.671a.477.477,0,1,0,.674.674l1.671-1.671a1.119,1.119,0,0,0,1.593.045l1.494-1.494a1.121,1.121,0,0,0,0-1.549l-2-2L27.68,7.387a.477.477,0,0,0-.674-.674L25.87,7.848,24.716,6.694l2.379-2.379,2.651,2.651a1.6,1.6,0,0,0,2.259,0,1.635,1.635,0,0,0,.1-2.361ZM9.524,28.1a.537.537,0,0,1-.76,0,.477.477,0,0,0-.322-.139L6.4,27.9a1.792,1.792,0,0,1-1.732-1.732l-.064-2.04a.477.477,0,0,0-.139-.322.538.538,0,0,1,0-.76l.965-.965,5.058,5.058Zm9.2-9.2-7.557,7.557L6.1,21.4l5.755-5.755,1.512,1.512a.477.477,0,1,0,.674-.674l-1.512-1.512,1.127-1.127Zm9.188-7.609a.138.138,0,0,1-.041.1l-1.494,1.494a.141.141,0,0,1-.2,0l-6.5-6.5c0-.04-.085-.026,0-.2L21.171,4.7c.038.009-.007-.089.2,0l6.5,6.5A.139.139,0,0,1,27.908,11.294Zm3.524-5.1-.1.1a.644.644,0,0,1-.91,0L26.272,2.144a.686.686,0,0,1,.1-1.012.664.664,0,0,1,.91,0L31.432,5.28A.644.644,0,0,1,31.432,6.19Z" transform="translate(-0.017 0)" fill="#12263f"/>
      <path id="Trazado_874754" data-name="Trazado 874754" d="M130.182,114.5a.477.477,0,0,0,.674-.674l-1.1-1.1a.477.477,0,0,0-.674.674Z" transform="translate(-120.739 -105.425)" fill="#12263f"/>
      <path id="Trazado_874755" data-name="Trazado 874755" d="M184.243,86.671a.477.477,0,0,0,.477-.477V84.425a.477.477,0,1,0-.954,0v1.769A.477.477,0,0,0,184.243,86.671Z" transform="translate(-172.082 -78.61)" fill="#12263f"/>
      <path id="Trazado_874756" data-name="Trazado 874756" d="M101.047,168.1h1.769a.477.477,0,0,0,0-.954h-1.769a.477.477,0,0,0,0,.954Z" transform="translate(-94.176 -156.518)" fill="#12263f"/>
      <ellipse id="Elipse_11492" data-name="Elipse 11492" cx="0.489" cy="0.489" rx="0.489" ry="0.489" transform="translate(11.146 22.744)" fill="#12263f"/>
      <ellipse id="Elipse_11493" data-name="Elipse 11493" cx="0.489" cy="0.489" rx="0.489" ry="0.489" transform="translate(12.767 21.174)" fill="#12263f"/>
    </g>
    <path id="Trazado_874772" data-name="Trazado 874772" d="M9.41,4.091a.781.781,0,0,1,.71.343,1.375,1.375,0,0,1,.22.759,1.259,1.259,0,0,1-.22.735.8.8,0,0,1-.71.318H6.276q0,1.126,0,2.008a8.854,8.854,0,0,1-.049,1.175.843.843,0,0,1-.343.735,1.224,1.224,0,0,1-1.469,0,.843.843,0,0,1-.343-.735V6.246H1.134a1.129,1.129,0,0,1-.906-.318.925.925,0,0,1-.22-.735A1.4,1.4,0,0,1,.35,4.434a.98.98,0,0,1,.784-.343H4.072V1.1A1.013,1.013,0,0,1,4.415.223,1.115,1.115,0,0,1,5.149,0a1.233,1.233,0,0,1,.735.318.98.98,0,0,1,.343.784,7.137,7.137,0,0,1,.049,1.077q0,.832,0,1.91Z" transform="translate(55.412 62.966) rotate(-43)" fill="#fff"/>
  </g>
  <g id="Grupo_1188575" data-name="Grupo 1188575" transform="translate(18609.916 8877.7)">
    <g id="Grupo_1188574" data-name="Grupo 1188574">
      <g id="Grupo_1188465" data-name="Grupo 1188465" transform="translate(-18609.916 -8639.212)">
        <path id="Rectángulo_402602" data-name="Rectángulo 402602" d="M0,0H74.42a0,0,0,0,1,0,0V75.03a0,0,0,0,1,0,0h0A74.42,74.42,0,0,1,0,.61V0A0,0,0,0,1,0,0Z" fill="#26c790"/>
        <g id="Grupo_1188464" data-name="Grupo 1188464" transform="translate(29.357 9.782)">
          <path id="Trazado_874763" data-name="Trazado 874763" d="M247.086,245.439a.431.431,0,0,1-.431.431h-.516a.431.431,0,0,1-.431-.431,2.823,2.823,0,0,1,.481-1.4,3.713,3.713,0,0,1,.339-.453c.136-.158.277-.336.42-.529a4.611,4.611,0,0,0,.89-2.467,38.633,38.633,0,0,0-.086-4.892.431.431,0,1,1,.859-.06,39.373,39.373,0,0,1,.087,5.005,5.471,5.471,0,0,1-1.057,2.927c-.155.209-.309.4-.458.577a2.9,2.9,0,0,0-.262.349,2.836,2.836,0,0,0-.26.517A.431.431,0,0,1,247.086,245.439Z" transform="translate(-240.779 -210.545)" fill="#fff"/>
          <path id="Trazado_874764" data-name="Trazado 874764" d="M104.484,260.107a.431.431,0,0,1-.431.431h-.893a.431.431,0,0,1-.329-.709,7.844,7.844,0,0,0,1.5-7.6.431.431,0,1,1,.825-.247,8.687,8.687,0,0,1-1.122,7.7h.017A.431.431,0,0,1,104.484,260.107Z" transform="translate(-82.226 -225.213)" fill="#fff"/>
          <path id="Trazado_874765" data-name="Trazado 874765" d="M167.974,176.362c.2.023.412.041.619.052a2.568,2.568,0,0,1,1.047.286.431.431,0,1,1-.4.764,1.708,1.708,0,0,0-.7-.19c-.222-.013-.447-.032-.666-.056a10.317,10.317,0,0,0-3.051.086c-.8,1.271-.922,3.921-.935,5.029a2.7,2.7,0,0,1-.49,1.536l-.008.008h0c-.011.017-.023.034-.035.05a9.3,9.3,0,0,0-.88,1.523.431.431,0,0,1-.393.256h-2.518a.431.431,0,0,1-.316-.723,10.549,10.549,0,0,0,1.092-1.474c.013-.02.024-.04.036-.061l.03-.051.015-.022a4.628,4.628,0,0,0,.63-2.074,28.913,28.913,0,0,0-.233-6.352c-1.759-1.212-2.8-3.455-3.1-6.672a.431.431,0,0,1,.858-.08,9,9,0,0,0,1.934,5.34,2.658,2.658,0,0,1,.057-.832.431.431,0,1,1,.836.209,3.213,3.213,0,0,0,.207,1.617c0,.011.006.022.01.034s.009.023.011.036a27.483,27.483,0,0,1,.282,6.75,5.5,5.5,0,0,1-.433,1.836h.1a.431.431,0,1,1,0,.862h-.563q-.281.437-.545.8h1.338a9.551,9.551,0,0,1,.855-1.432l.028-.042.008-.009a1.848,1.848,0,0,0,.326-1.04c.018-1.518.194-4.257,1.168-5.628a7.351,7.351,0,0,0,.5-1.1.431.431,0,0,1,.818.272c0,.014-.068.2-.191.488A11.79,11.79,0,0,1,167.974,176.362Z" transform="translate(-152.431 -150.384)" fill="#fff"/>
          <path id="Trazado_874766" data-name="Trazado 874766" d="M50.4,100.835a.431.431,0,0,1,.482-.148,3.787,3.787,0,0,1,2.447,1.991,3.358,3.358,0,0,1-.045,2.539.431.431,0,1,1-.781-.365,2.478,2.478,0,0,0,.033-1.837,2.4,2.4,0,0,0-1-1.09,3.679,3.679,0,0,1-1.058,3.314.431.431,0,0,1-.525.082c-.038-.022-3.845-2.089-10.051.032l-.023.007a13.955,13.955,0,0,1-3.229.463h-.031a3.4,3.4,0,0,1-2.628-1.238,12.339,12.339,0,0,1-1.912-3.161.431.431,0,0,1,.8-.323,11.467,11.467,0,0,0,1.778,2.935,2.539,2.539,0,0,0,1.964.926h.023a13.293,13.293,0,0,0,2.994-.428c5.6-1.908,9.337-.6,10.419-.12a2.6,2.6,0,0,0,.337-3.075A.431.431,0,0,1,50.4,100.835Z" transform="translate(-22.585 -90.469)" fill="#fff"/>
          <path id="Trazado_874767" data-name="Trazado 874767" d="M36.172,136.422a.431.431,0,0,1,.368.485,4.365,4.365,0,0,1-2.786,3.341,9,9,0,0,1-.784,3.975c-.964,2.392-.663,5.98-.489,7.413a2.752,2.752,0,0,1-.35,1.7,10.31,10.31,0,0,0-.927,2.381h0c-.243.89-.357,1.6-.358,1.611a.431.431,0,0,1-.426.363H27.61a.431.431,0,0,1-.366-.659,11.183,11.183,0,0,0,.828-1.595l0-.008a8.582,8.582,0,0,0-.39-7.7,10.516,10.516,0,0,1-1.481.625,6.37,6.37,0,0,1-4.4-.091,3.725,3.725,0,0,0-1.078-.242.431.431,0,1,1,.071-.859,4.585,4.585,0,0,1,1.328.3,5.506,5.506,0,0,0,3.8.075,8.644,8.644,0,0,0,1.673-.75.431.431,0,0,1,.573.113,9.3,9.3,0,0,1,.92,8.276h.311a.431.431,0,0,1,0,.862h-.656q-.179.4-.394.8h1.7c.06-.309.162-.788.312-1.338v0a11,11,0,0,1,1.014-2.588,1.86,1.86,0,0,0,.24-1.166c-.227-1.864-.457-5.362.548-7.847l.006-.014c.011-.023,1.029-2.332.668-3.809h0a6.462,6.462,0,0,0-.5-1.3.431.431,0,0,1,.76-.406,7.767,7.767,0,0,1,.444,1.035,3.491,3.491,0,0,0,2.139-2.608.431.431,0,0,1,.486-.369Z" transform="translate(-4.307 -122.373)" fill="#fff"/>
          <path id="Trazado_874768" data-name="Trazado 874768" d="M220.354,10.714a.98.98,0,0,1,.457.946A2.4,2.4,0,0,1,218.581,14a3.425,3.425,0,0,1-.954,2.491.98.98,0,0,0-.251.563l-.146,1.3a2.235,2.235,0,0,1-.16.616,3.7,3.7,0,0,1-1.79,3.89.431.431,0,0,1-.627-.283q-.048-.21-.1-.4c-.089.071-.174.135-.248.191a3.718,3.718,0,0,1-.96.528,3.565,3.565,0,0,1-.448.129.419.419,0,0,1-.09.01.433.433,0,0,1-.334-.7,2.668,2.668,0,0,0,.432-1.54,1.867,1.867,0,0,0-.032-.379,4.653,4.653,0,0,1-.015-1.775,2.254,2.254,0,0,1-.056-.312l-.125-1.239a.963.963,0,0,0-.185-.473,4.348,4.348,0,0,1-.944-2.75A2.654,2.654,0,0,1,210,13.5a2.582,2.582,0,0,1-1.1-1.888.985.985,0,0,1,1.49-.991,6.89,6.89,0,0,0,1.837.834,5,5,0,0,1,2.288-.854A4.112,4.112,0,0,0,213.4,8.077a4.182,4.182,0,0,0-2.319-1.116,6.309,6.309,0,0,1,1.555,3.054.431.431,0,0,1-.844.171A5.377,5.377,0,0,0,209.578,6.8.431.431,0,0,1,209.8,6h.029a5.679,5.679,0,0,1,4.186,1.47,5.018,5.018,0,0,1,1.369,3.132,4.423,4.423,0,0,1,1.58.485A6.347,6.347,0,0,1,218.638,7a4.01,4.01,0,0,0-2.6,1.444.431.431,0,1,1-.682-.527,5.409,5.409,0,0,1,4.546-1.88h.029a.431.431,0,0,1,.217.8,5.444,5.444,0,0,0-2.331,4.533,6.669,6.669,0,0,0,1.5-.663A.968.968,0,0,1,220.354,10.714Zm-6.566,10.976a8.144,8.144,0,0,0,.669-.551.431.431,0,0,1,.693.144,5.181,5.181,0,0,1,.185.51,2.624,2.624,0,0,0,.9-1.815,2.228,2.228,0,0,1-2.567-.091c.013.125.031.254.055.387a2.709,2.709,0,0,1,.045.552,4.484,4.484,0,0,1-.129.971Q213.713,21.745,213.788,21.689Zm3.778-9.353a.43.43,0,0,1-.354-.075,3.68,3.68,0,0,0-4.609-.016.431.431,0,0,1-.358.095,7.03,7.03,0,0,1-2.31-.987.114.114,0,0,0-.129,0,.12.12,0,0,0-.055.124,1.771,1.771,0,0,0,.706,1.292,2.106,2.106,0,0,0,1.505.181.431.431,0,0,1,.528.543,3.2,3.2,0,0,0,.695,2.619,1.825,1.825,0,0,1,.348.9l.125,1.239a1.365,1.365,0,0,0,2.715.015l.146-1.3A1.846,1.846,0,0,1,217,15.9a2.537,2.537,0,0,0,.683-2.212.431.431,0,0,1,.418-.535h.016a1.583,1.583,0,0,0,1.839-1.593.121.121,0,0,0-.06-.12.109.109,0,0,0-.121,0A8.053,8.053,0,0,1,217.566,12.337Z" transform="translate(-208.888 -6)" fill="#fff"/>
          <path id="Trazado_874769" data-name="Trazado 874769" d="M247.471,80.937a.442.442,0,0,1-.084-.008.525.525,0,0,1-.08-.025.41.41,0,0,1-.074-.04.4.4,0,0,1-.066-.054.431.431,0,0,1-.127-.3.446.446,0,0,1,.009-.084.466.466,0,0,1,.025-.081.5.5,0,0,1,.04-.074.451.451,0,0,1,.054-.066.4.4,0,0,1,.066-.053.353.353,0,0,1,.074-.04.425.425,0,0,1,.08-.025.436.436,0,0,1,.389.117.389.389,0,0,1,.054.066.412.412,0,0,1,.04.074.461.461,0,0,1,.025.081.443.443,0,0,1,.008.084.43.43,0,0,1-.431.431Z" transform="translate(-240.08 -72.098)" fill="#fff"/>
          <path id="Trazado_874770" data-name="Trazado 874770" d="M271.767,80.936a.431.431,0,0,1-.3-.734.39.39,0,0,1,.066-.054.434.434,0,0,1,.155-.065.44.44,0,0,1,.168,0,.434.434,0,0,1,.155.065.387.387,0,0,1,.066.054.431.431,0,0,1-.3.734Z" transform="translate(-266.992 -72.097)" fill="#fff"/>
          <path id="Trazado_874771" data-name="Trazado 874771" d="M256.423,109.32l-.474.318a.431.431,0,0,1-.491-.008l-.443-.318a.431.431,0,0,1,.5-.7l.2.144.226-.151a.431.431,0,1,1,.479.716Z" transform="translate(-249.633 -97.489)" fill="#fff"/>
        </g>
      </g>
      <g id="Elipse_11498" data-name="Elipse 11498" transform="translate(-18583.781 -8583.3)" fill="none" stroke="#fdaa30" stroke-width="6">
        <ellipse cx="8.063" cy="8.063" rx="8.063" ry="8.063" stroke="none"/>
        <ellipse cx="8.063" cy="8.063" rx="5.063" ry="5.063" fill="none"/>
      </g>
    </g>
    <circle id="Elipse_11502" data-name="Elipse 11502" cx="1.916" cy="1.916" r="1.916" transform="translate(-18602.906 -8633.651)" fill="#fff"/>
  </g>
  <g id="Grupo_1188573" data-name="Grupo 1188573" transform="translate(0 1.413)">
    <g id="Grupo_1188468" data-name="Grupo 1188468" transform="translate(0 0)">
      <path id="Rectángulo_402603" data-name="Rectángulo 402603" d="M74.42,0h0a0,0,0,0,1,0,0V75.03a0,0,0,0,1,0,0H0a0,0,0,0,1,0,0v-.61A74.42,74.42,0,0,1,74.42,0Z" fill="#fdaa30"/>
      <g id="Grupo_1188467" data-name="Grupo 1188467" transform="translate(28.513 29.12)">
        <path id="Trazado_874775" data-name="Trazado 874775" d="M288.475,288.708a.456.456,0,0,1-.136-.89,5.01,5.01,0,0,1,1.5-.229.455.455,0,1,1,0,.911A6,6,0,0,0,288.475,288.708Z" transform="translate(-271.625 -271.241)" fill="#12263f"/>
        <path id="Trazado_874776" data-name="Trazado 874776" d="M28.256,21.374a3.132,3.132,0,0,0-2.578-.959.136.136,0,0,1-.145-.1A10.982,10.982,0,0,0,20.5,14.178,13.853,13.853,0,0,0,13.3,12.2a7.282,7.282,0,0,0-.039-1.589c4.56-1.2,9.365-6.739,7.349-9.316C19.8.271,18.122.124,16.08.892,13.628-.854,7.774,2.356,5.683,6.229,2.908,7.269,0,10.292,0,13.193s2.281,3.793,5.193,3.972A8.389,8.389,0,0,0,5.48,24.22C3.707,25.44,1.963,27,3.219,28.775c.885,1.251,2.583.631,4.047.147a14.078,14.078,0,0,0,3.828-1.972,11.644,11.644,0,0,0,2.825-2.607,4.973,4.973,0,0,0,.9,1.107c-2.722,1.465-2.053,4.057,1.094,4.057a8.058,8.058,0,0,0,3.512-.951c1.906-.13,4.229-.5,5.532-1.946A3.192,3.192,0,0,0,28.256,21.374ZM.911,13.193c0-2.987,3.9-6.459,6.831-6.459a9.732,9.732,0,0,1,2.366.439c.563-.088.3-.981,2.453-2.986a.455.455,0,1,0-.62-.667A10.921,10.921,0,0,0,9.823,6.15a6.261,6.261,0,0,0-2.857-.265c1.883-2.686,5.756-5.008,8-4.5a12.856,12.856,0,0,0-1.551.939.455.455,0,1,0,.524.745C17.663.449,21.5.687,19.717,4.338a11.489,11.489,0,0,1-7.065,5.484.456.456,0,0,0-.345.311c-.079.254.107.4.107,1.507,0,3.057-2.809,4.656-5.583,4.656-3.655,0-5.92-.519-5.92-3.1ZM28.234,23.675a2.286,2.286,0,0,1-2.728,2.141,6.113,6.113,0,0,0,.451-3.174.455.455,0,1,0-.909.063c.2,2.833-.644,4.617-5.771,4.949a16.455,16.455,0,0,1-2.159.8c-1.5.356-2.918,0-3.079-.674-.129-.542.565-1.269,1.6-1.71a4.1,4.1,0,0,0,1.205.5.456.456,0,0,0,.136-.89,4.084,4.084,0,0,1-2.582-2.4.457.457,0,0,0-.027-.068,4.12,4.12,0,0,1,.191-3.317.455.455,0,1,0-.81-.417,5.037,5.037,0,0,0-.291,3.894,9.536,9.536,0,0,1-2.909,2.845,13.168,13.168,0,0,1-3.58,1.845c-1.8.6-2.619.754-3.017.191a1.123,1.123,0,0,1-.237-.889c.221-1.191,2.474-2.454,2.693-2.689.547-.588-.954-1.149-.954-4.275A7.133,7.133,0,0,1,6.179,17.2c.22,0,.438.006.652.006,2.8,0,5.547-1.413,6.3-4.085,4.273-.207,10.014,2.478,11.535,7.459a1.047,1.047,0,0,0,1.121.738A2.266,2.266,0,0,1,28.234,23.675Z" transform="translate(0 -0.404)" fill="#12263f"/>
        <path id="Trazado_874777" data-name="Trazado 874777" d="M260.455,308.5a.455.455,0,1,1,.446-.367A.456.456,0,0,1,260.455,308.5Z" transform="translate(-245.199 -290.1)" fill="#12263f"/>
        <ellipse id="Elipse_11499" data-name="Elipse 11499" cx="0.797" cy="0.797" rx="0.797" ry="0.797" transform="translate(4.213 10.029)" fill="#12263f"/>
      </g>
    </g>
    <path id="Trazado_874774" data-name="Trazado 874774" d="M6.926-1c.053,0,.106,0,.159,0a2.666,2.666,0,0,1,1.59.673A2.319,2.319,0,0,1,9.49,1.41a11.019,11.019,0,0,1,.068,1.565v1.6h3.274a2.063,2.063,0,0,1,1.81.927A2.868,2.868,0,0,1,15.1,7.082a2.706,2.706,0,0,1-.478,1.571,2.052,2.052,0,0,1-1.791.865H9.559v1.738a13.077,13.077,0,0,1-.068,1.686,2.107,2.107,0,0,1-.885,1.733,2.669,2.669,0,0,1-3.166,0,2.121,2.121,0,0,1-.886-1.816V9.518H1.546a2.483,2.483,0,0,1-2-.788,2.26,2.26,0,0,1-.53-1.765A2.9,2.9,0,0,1-.281,5.4,2.332,2.332,0,0,1,1.546,4.58H4.554V1.506A2.309,2.309,0,0,1,5.44-.51,2.517,2.517,0,0,1,6.926-1Zm6.038,7.593a.478.478,0,0,0-.131-.014H7.559v-3.6A8.677,8.677,0,0,0,7.512,1.7l-.019-.1v-.1A.342.342,0,0,0,7.374,1.2.679.679,0,0,0,6.96,1H6.926a.519.519,0,0,0-.313.11.9.9,0,0,0-.06.4V6.58H1.546a.342.342,0,0,0-.309.118A.912.912,0,0,0,1,7.2a.268.268,0,0,0,.071.239.927.927,0,0,0,.472.08H6.554v5.341c0,.153.032.176.049.188a.673.673,0,0,0,.841,0c.017-.012.049-.035.049-.188v-.083l.014-.082a10.753,10.753,0,0,0,.053-1.438V7.518h5.274a.547.547,0,0,0,.155-.017.73.73,0,0,0,.114-.419A.875.875,0,0,0,12.964,6.593Z" transform="translate(26.135 9.618) rotate(-43)" fill="#1944b6"/>
  </g>
</svg>
