<svg xmlns="http://www.w3.org/2000/svg" width="82" height="82" viewBox="0 0 82 82">
  <g id="Grupo_1189636" data-name="Grupo 1189636" transform="translate(-769.369 -1963)">
    <rect id="Rectángulo_402627" data-name="Rectángulo 402627" width="82" height="82" transform="translate(769.369 1963)" fill="none"/>
    <g id="Grupo_1189809" data-name="Grupo 1189809" transform="translate(782.175 1976.001)">
      <path id="Trazado_878042" data-name="Trazado 878042" d="M54.524,235H50.81a1.477,1.477,0,0,0-1.474,1.568c.105,1.689.206,3.155.279,4.225.125,1.812.185,2.7.185,3.186a5.416,5.416,0,1,1-10.828,0c0-.028.006-2.874.358-7.387A1.477,1.477,0,0,0,37.857,235H34.423a1.476,1.476,0,0,0-1.474,1.568c.1,1.553.191,2.926.267,4.029l.014.2c.123,1.8.185,2.705.185,3.186a5.416,5.416,0,1,1-10.828,0c0-.028.006-2.873.357-7.387A1.476,1.476,0,0,0,21.472,235H18.454a1.476,1.476,0,0,0-1.474,1.568c.1,1.567.193,2.95.269,4.061l.012.163c.123,1.8.185,2.7.185,3.186a5.5,5.5,0,0,1-5.414,5.568,5.5,5.5,0,0,1-5.414-5.568c0-.028.006-2.873.357-7.387A1.476,1.476,0,0,0,5.5,235H1.477A1.478,1.478,0,0,0,0,236.477v18.284a.82.82,0,0,0,1.641,0v-18.12H5.325c-.345,4.5-.349,7.31-.349,7.338a7.141,7.141,0,0,0,7.055,7.209,7.141,7.141,0,0,0,7.055-7.209c0-.538-.059-1.4-.189-3.3l-.012-.164c-.073-1.067-.164-2.386-.257-3.876h2.666c-.345,4.5-.349,7.31-.349,7.338a7.056,7.056,0,1,0,14.11,0c0-.537-.059-1.4-.189-3.3l-.014-.2c-.073-1.06-.163-2.368-.255-3.844H37.68c-.344,4.5-.349,7.31-.349,7.338a7.056,7.056,0,1,0,14.11,0c0-.536-.062-1.449-.189-3.3-.071-1.031-.167-2.429-.268-4.04H54.36v27.016H1.641v-5.433a.82.82,0,1,0-1.641,0v5.6A1.478,1.478,0,0,0,1.477,265.3H54.524A1.478,1.478,0,0,0,56,263.821V236.477A1.478,1.478,0,0,0,54.524,235Zm0,0" transform="translate(0 -209.297)"/>
      <path id="Trazado_878043" data-name="Trazado 878043" d="M75.711,39.047a4.3,4.3,0,0,0,4.211-4.365c0-.453-.073-1.507-.183-3.1-.279-4.051-.8-11.591-.914-20.643a.82.82,0,0,0-.82-.81h-.011a.82.82,0,0,0-.81.831c.116,9.1.638,16.668.918,20.735.1,1.506.179,2.594.179,2.99a2.575,2.575,0,1,1-5.141,0,129.6,129.6,0,0,1,4.028-29.36q-.008,1.058-.008,2.125a.82.82,0,0,0,.82.82h0a.82.82,0,0,0,.82-.821c0-2.158.024-4.3.075-6.373A1.035,1.035,0,0,0,76.86.708C71.646,16.2,71.5,34.5,71.5,34.682A4.3,4.3,0,0,0,75.711,39.047Zm0,0" transform="translate(-63.68)"/>
      <path id="Trazado_878044" data-name="Trazado 878044" d="M371.524,39.048a4.3,4.3,0,0,0,4.211-4.365c0-.453-.073-1.507-.183-3.1-.385-5.588-1.187-17.215-.862-30.506a1.035,1.035,0,0,0-2.017-.364,99.343,99.343,0,0,0-3.911,16.944.82.82,0,0,0,1.623.241,106.407,106.407,0,0,1,2.6-12.571c-.088,11.542.589,21.366.934,26.369.1,1.506.179,2.594.179,2.99a2.575,2.575,0,1,1-5.141,0,127.428,127.428,0,0,1,.962-13.309.82.82,0,1,0-1.629-.2,129.294,129.294,0,0,0-.974,13.508A4.3,4.3,0,0,0,371.524,39.048Zm0,0" transform="translate(-327.137 -0.001)"/>
      <path id="Trazado_878045" data-name="Trazado 878045" d="M221.711,39.048a4.3,4.3,0,0,0,4.211-4.365c0-.453-.073-1.507-.183-3.1-.385-5.588-1.187-17.215-.862-30.506A1.035,1.035,0,0,0,222.86.709C217.646,16.2,217.5,34.5,217.5,34.683A4.3,4.3,0,0,0,221.711,39.048Zm1.457-33.724c-.088,11.542.589,21.365.934,26.368.1,1.506.179,2.594.179,2.99a2.575,2.575,0,1,1-5.141,0A129.628,129.628,0,0,1,223.168,5.324Zm0,0" transform="translate(-193.71 -0.001)"/>
      <path id="Trazado_878046" data-name="Trazado 878046" d="M68.141,406.32a.82.82,0,1,1-.82-.82A.821.821,0,0,1,68.141,406.32Zm0,0" transform="translate(-59.226 -361.148)"/>
      <path id="Trazado_878047" data-name="Trazado 878047" d="M116.063,458.988a.82.82,0,1,1-.82-.82A.821.821,0,0,1,116.063,458.988Zm0,0" transform="translate(-101.907 -408.056)"/>
      <path id="Trazado_878048" data-name="Trazado 878048" d="M176.25,392.32a.82.82,0,1,1-.82-.82A.821.821,0,0,1,176.25,392.32Zm0,0" transform="translate(-155.511 -348.68)"/>
      <path id="Trazado_878049" data-name="Trazado 878049" d="M216.246,449.066a.82.82,0,1,1-.82-.82A.82.82,0,0,1,216.246,449.066Zm0,0" transform="translate(-191.133 -399.219)"/>
      <path id="Trazado_878050" data-name="Trazado 878050" d="M311.113,445.4a.82.82,0,1,1-.82-.82A.821.821,0,0,1,311.113,445.4Zm0,0" transform="translate(-275.623 -395.956)"/>
      <path id="Trazado_878051" data-name="Trazado 878051" d="M281.141,406.32a.82.82,0,1,1-.82-.82A.821.821,0,0,1,281.141,406.32Zm0,0" transform="translate(-248.929 -361.148)"/>
      <path id="Trazado_878052" data-name="Trazado 878052" d="M379.668,461.734a.82.82,0,1,1-.82-.82A.82.82,0,0,1,379.668,461.734Zm0,0" transform="translate(-336.68 -410.501)"/>
      <path id="Trazado_878053" data-name="Trazado 878053" d="M330.988,375.918a.82.82,0,1,1-.82-.82A.821.821,0,0,1,330.988,375.918Zm0,0" transform="translate(-293.325 -334.071)"/>
      <path id="Trazado_878054" data-name="Trazado 878054" d="M424.2,406.32a.82.82,0,1,1-.82-.82A.82.82,0,0,1,424.2,406.32Zm0,0" transform="translate(-376.344 -361.148)"/>
    </g>
  </g>
</svg>
