<svg xmlns="http://www.w3.org/2000/svg" width="82" height="82" viewBox="0 0 82 82">
  <g id="Grupo_1189677" data-name="Grupo 1189677" transform="translate(-769.077 -1963)">
    <rect id="Rectángulo_402627" data-name="Rectángulo 402627" width="82" height="82" transform="translate(769.077 1963)" fill="none"/>
    <g id="Grupo_1189714" data-name="Grupo 1189714" transform="translate(775.077 1958.563)">
      <g id="Grupo_1189714-2" data-name="Grupo 1189714" transform="translate(0 12.437)">
        <path id="Trazado_877729" data-name="Trazado 877729" d="M53.411,37.634c-3.3,6.5-8.756,6.368-14.381,6a1.022,1.022,0,0,0-.134,2.04c1.276.084,2.59.171,3.9.171,3.89,0,7.788-.76,10.738-4.587A7.158,7.158,0,0,0,54.9,44.067c.382.47.741.9,1.057,1.279,2.012,2.409,2.774,3.323,2.854,6.544a2.436,2.436,0,0,1-.683.217l-5.741.942a21.112,21.112,0,0,0-14.125,9.105c-.035-.012-.07-.025-.106-.036a46,46,0,0,1-7.167-2.67l.116-.116a2.324,2.324,0,0,0,0-3.283l-2.187-2.187a1.022,1.022,0,0,0-1.445,1.445L29.663,57.5a.277.277,0,0,1,0,.392l-5.776,5.776a.277.277,0,0,1-.392,0L12.161,52.329a.277.277,0,0,1,0-.392l5.776-5.776a.277.277,0,0,1,.392,0l5.685,5.685A1.022,1.022,0,1,0,25.459,50.4L24.45,49.392c.358-.291.71-.595,1.052-.91,2.165-2,4.813-2.93,8.584-3a1.022,1.022,0,0,0-.019-2.044h-.02a14.207,14.207,0,0,0-9.934,3.544c-.362.335-.735.655-1.116.958l-3.224-3.223a2.321,2.321,0,0,0-3.283,0L15.447,45.76a39.021,39.021,0,0,1-2.509-4.706A43.867,43.867,0,0,1,9.364,27.316l3.567.01h0a1.021,1.021,0,0,0,.26-.034l.629-.166v4.5a3.922,3.922,0,0,0,3.917,3.917h4.174a3.922,3.922,0,0,0,3.917-3.917V25.385a3.922,3.922,0,0,0-3.917-3.917h-2.5a9.358,9.358,0,0,1,.554-5.523,2.4,2.4,0,0,1,2.184-1.463A9.278,9.278,0,0,1,31.29,25.9a1.022,1.022,0,1,0,1.989.471,11.323,11.323,0,0,0,.155-4.4l1.2-.315,5.977.971a2.477,2.477,0,0,1,1.868,1.444l1.008,2.287a8.52,8.52,0,0,0,3.38,3.858l1.418.863a1.022,1.022,0,0,0,1.063-1.746l-1.418-.863a6.486,6.486,0,0,1-2.573-2.937l-1.01-2.291a4.516,4.516,0,0,0-3.41-2.634L34.743,19.6a1.025,1.025,0,0,0-.424.02l-1.387.365a11.3,11.3,0,0,0-10.673-7.546h-.134a4.449,4.449,0,0,0-4.041,2.706,11.42,11.42,0,0,0-.749,6.345,3.924,3.924,0,0,0-3.493,3.519l-1.039.273-3.866-.011a2.326,2.326,0,0,0-1.928-1.087l-1.957-.028H5.019a2.311,2.311,0,0,0-1.972,1.1l-2.022-.005h0a1.022,1.022,0,0,0,0,2.044l1.726,0a50.2,50.2,0,0,0,4.1,16.272,45.291,45.291,0,0,0,3.842,6.955,2.3,2.3,0,0,0-.646,1.511,27.333,27.333,0,0,1-3.987-.4,1.022,1.022,0,0,0-.35,2.014,28.989,28.989,0,0,0,4.954.44c.123,0,.247,0,.369,0L22.05,65.109a2.324,2.324,0,0,0,3.283,0l.753-.753a51.044,51.044,0,0,0,9.407,3.85,21.212,21.212,0,0,0-.583,2.841l-.387,2.885a1.022,1.022,0,0,0,.877,1.149,1.039,1.039,0,0,0,.137.009,1.022,1.022,0,0,0,1.012-.886l.387-2.885a19.139,19.139,0,0,1,.593-2.8,2.327,2.327,0,0,0,1.769-1.7l.485-1.888a2.318,2.318,0,0,0-.04-1.3,19.067,19.067,0,0,1,12.979-8.566l5.736-.941a4.5,4.5,0,0,0,2-.857L64.7,50.055a4.537,4.537,0,0,0,1.792-3.6V42.31a4.555,4.555,0,0,0-2.17-3.862L53.53,31.877a1.022,1.022,0,1,0-1.063,1.746l1.86,1.132a10.132,10.132,0,0,0-.916,2.878Zm3.08,5.146a6.736,6.736,0,0,1-.41-6.956l7.176,4.37a2.5,2.5,0,0,1,1.19,2.117v4.144a2.482,2.482,0,0,1-.981,1.971l-2.7,2.043c-.317-2.928-1.424-4.257-3.241-6.432-.327-.392-.666-.8-1.038-1.256ZM15.867,25.385a1.875,1.875,0,0,1,1.873-1.873h4.174a1.875,1.875,0,0,1,1.873,1.873V31.63A1.875,1.875,0,0,1,21.914,33.5H17.74a1.875,1.875,0,0,1-1.873-1.873ZM4.742,26.491a.272.272,0,0,1,.077-.207.264.264,0,0,1,.2-.085l1.957.028a.278.278,0,0,1,.272.261,45.735,45.735,0,0,0,3.821,15.4,40.934,40.934,0,0,0,2.893,5.35l-1.809,1.809A43.38,43.38,0,0,1,8.712,42.74,47.766,47.766,0,0,1,4.742,26.491ZM37.8,64.423l-.485,1.888a.279.279,0,0,1-.132.173.261.261,0,0,1-.2.026A49.765,49.765,0,0,1,27.6,62.842l1.865-1.865A47.641,47.641,0,0,0,37.6,64.086a.279.279,0,0,1,.2.337Z" transform="translate(0 -12.437)"/>
        <path id="Trazado_877730" data-name="Trazado 877730" d="M350.637,365.906h-1.125a6.4,6.4,0,0,0-1.246-6.985,6.025,6.025,0,0,0-8.681,0l-.885.91-.885-.91a6.139,6.139,0,0,0-7.593-.77l-.168.115a6.07,6.07,0,0,0-.949,9.469H327.52a1.022,1.022,0,0,0,0,2.044h3.571l5.571,5.73a2.831,2.831,0,0,0,4.074,0l7.35-7.559h2.55a1.022,1.022,0,0,0,0-2.044Zm-20.037.435a4.22,4.22,0,0,1-1.275-3.372,4.164,4.164,0,0,1,1.886-3.017l.168-.115a3.763,3.763,0,0,1,2.125-.62,4,4,0,0,1,2.847,1.129l1.618,1.663a1.022,1.022,0,0,0,1.465,0l1.618-1.663a3.981,3.981,0,0,1,5.75,0,4.335,4.335,0,0,1,.368,5.56h-6.48a1.022,1.022,0,0,0-.936.611l-.249.566-.759-2.633a1.022,1.022,0,0,0-1.851-.254l-2.188,3.539h-2.75Zm8.672,7.743a.787.787,0,0,1-1.143,0l-4.186-4.3h1.332a1.022,1.022,0,0,0,.869-.485l1.275-2.062.9,3.129a1.022,1.022,0,0,0,.914.737l.069,0a1.022,1.022,0,0,0,.935-.611l1.116-2.539h3.881Z" transform="translate(-282.005 -310.11)"/>
        <path id="Trazado_877731" data-name="Trazado 877731" d="M136.045,287.151l-5.256-5.256a1.022,1.022,0,0,0-1.445,1.445L134.6,288.6a1.022,1.022,0,1,0,1.445-1.445Z" transform="translate(-111.459 -244.917)"/>
        <path id="Trazado_877732" data-name="Trazado 877732" d="M148.755,339.627a1.025,1.025,0,1,0,1.45.015l-.009-.01A1.016,1.016,0,0,0,148.755,339.627Z" transform="translate(-128.223 -294.783)"/>
        <path id="Trazado_877733" data-name="Trazado 877733" d="M165.187,356.058a1.025,1.025,0,1,0,1.45.015l-.009-.01A1.016,1.016,0,0,0,165.187,356.058Z" transform="translate(-142.416 -308.976)"/>
        <path id="Trazado_877734" data-name="Trazado 877734" d="M258.278,137.875a3.446,3.446,0,0,0-3.372,2.765,1.022,1.022,0,1,0,2,.4,1.4,1.4,0,0,1,2.735,0,1.022,1.022,0,0,0,2-.4A3.447,3.447,0,0,0,258.278,137.875Z" transform="translate(-220.152 -120.781)"/>
        <path id="Trazado_877735" data-name="Trazado 877735" d="M432.362,216.271a1.022,1.022,0,0,0-.375-1.4l-1.065-.614a1.022,1.022,0,0,0-1.021,1.771l1.065.614a1.022,1.022,0,0,0,1.4-.375Z" transform="translate(-370.875 -186.64)"/>
      </g>
    </g>
  </g>
</svg>
